<svg width="150" height="150" viewBox="0 0 150 150" fill="none" xmlns="http://www.w3.org/2000/svg">
<path d="M136.265 26H13.75V124.014H136.265V26Z" fill="#D20515"/>
<path d="M114.752 77.5952C114.819 77.8401 114.603 78.0082 114.162 78.3299L113.893 78.4788L113.984 78.6565C114.046 78.7717 113.941 78.9446 113.753 79.0358L113.35 79.2375C113.168 79.3336 112.966 79.3144 112.908 79.1989L112.822 79.0356L112.313 79.2853L112.394 79.4582C112.452 79.5735 112.342 79.7463 112.149 79.8328L111.741 80.0249C111.554 80.1113 111.357 80.0873 111.299 79.9672L111.227 79.8136C109.657 80.5531 107.899 81.3359 106.089 82.1763L106.19 82.4068C106.252 82.522 106.137 82.6901 105.954 82.7765L105.541 82.9686C105.354 83.0551 105.152 83.0263 105.104 82.911L104.994 82.6805L104.413 82.9638L104.523 83.1991C104.576 83.3192 104.471 83.4824 104.278 83.5737L103.87 83.761C103.678 83.8474 103.486 83.8234 103.428 83.7082L103.323 83.4824C102.502 83.809 101.604 83.9627 100.95 82.7285C100.672 82.1618 100.658 80.8604 100.441 80.1689C100.352 79.945 100.151 79.7846 99.9132 79.7463C91.9318 78.2144 89.2282 79.9191 84.1137 78.6562C82.505 78.2624 81.631 76.7833 79.6476 76.7593C75.3256 76.6296 74.053 76.692 69.366 76.5144C69.1643 77.1915 69.1402 77.3404 69.1402 77.3404L52.6685 77.2635L55.1849 78.4977L55.9916 85.7635C55.9916 85.7635 55.3241 85.9556 55.132 85.9796C55.2905 87.4203 55.4442 89.3892 55.5258 91.1564C55.5978 92.7412 55.6795 94.3932 55.6651 95.4449C55.6701 96.1292 55.505 96.8041 55.1848 97.409C54.8711 97.9366 54.4507 98.3929 53.9507 98.7488C53.8018 98.8593 53.1631 99.2915 52.4283 99.7093C51.6936 100.127 50.81 100.607 50.3634 100.819C50.4306 101.012 50.5092 101.201 50.5987 101.385C40.6052 106.226 28.1865 107.878 24.167 115.571C23.6868 116.464 22.0684 115.999 22.0204 115.038C22.0204 114.596 22.0204 113.881 22.0204 113.482H21.8763C21.7466 113.482 21.6458 113.305 21.6554 113.093V112.642C21.6554 112.435 21.7803 112.272 21.9051 112.277H22.078C22.1289 111.832 22.214 111.392 22.3325 110.961L22.1789 110.908C22.0588 110.865 22.0204 110.668 22.0876 110.471L22.2365 110.049C22.3085 109.852 22.4574 109.732 22.587 109.77L22.7359 109.823C23.4514 108.156 24.8297 107.422 25.4732 105.842L25.3723 105.803C25.2427 105.755 25.2042 105.563 25.2763 105.366L25.4251 104.939C25.4972 104.742 25.6509 104.622 25.7757 104.665L25.8861 104.704C25.9822 104.473 26.0927 104.223 26.2175 103.969L26.083 103.878C25.9678 103.806 25.9678 103.609 26.083 103.431L26.328 103.052C26.4336 102.879 26.6113 102.792 26.7217 102.864L26.7794 102.898H26.837C26.8706 102.898 26.885 102.898 26.9186 102.859C26.9809 102.791 27.0466 102.725 27.1155 102.663C27.7436 102.199 28.5977 102.187 29.2382 102.634C29.8673 103.013 32.326 104.416 34.6935 102.288C38.5978 98.7825 43.1647 94.0235 46.5983 93.8602C45.6667 91.8528 44.0483 87.646 43.8658 86.0949L42.7517 85.8596C42.1515 84.5678 40.6916 78.5986 40.2786 74.1132C40.2786 74.1132 39.7983 69.2774 40.2786 67.5774C40.0144 67.5487 39.5294 67.9471 39.395 67.952C38.7659 66.4104 40.8068 53.3819 42.8286 49.5881L45.926 48.3539C45.6043 48.3153 43.3664 48.2146 37.4788 47.7344C34.1701 50.659 30.3715 53.7997 28.4458 55.5045C28.1192 55.7446 27.5718 57.6079 27.5718 57.6079C27.5718 57.6079 26.6113 58.4627 25.6941 59.0918C24.5031 59.9274 21.5881 60.5709 20.9542 59.572C20.8101 59.3271 20.8342 59.2215 20.9542 59.0918C21.4056 58.6116 23.1105 57.8048 23.6867 56.7243C22.7551 57.2045 21.7178 57.6847 20.9062 57.6031C20.5508 57.6031 20.3684 56.7146 20.8246 56.5562C22.0635 56.0327 23.0432 55.807 23.7732 54.7793C24.5031 53.7516 25.3291 53.1322 26.4528 53.1081C26.4528 53.1081 31.9274 45.9576 35.1545 42.5432C36.0478 41.6115 37.7045 41.9189 37.7045 41.9189L37.9831 40.8336C37.9831 40.8336 49.0283 39.5129 54.1955 41.2177C54.0755 38.0915 55.4777 33.9375 60.3713 33.9375C62.8876 33.9375 66.5902 36.161 67.0944 38.8598C67.2481 39.6906 66.7679 40.2429 66.5133 41.2946C66.0763 42.8841 66.6862 44.6562 66.5133 45.2084C66.3693 45.6646 65.8554 45.6262 65.4088 46.2457C65.0178 46.8565 64.6789 47.4991 64.3955 48.1666L63.728 49.6649L60.28 49.4152C59.0218 52.1381 56.4382 57.6847 55.5258 63.1833C58.2342 63.4138 70.5088 65.1907 70.5088 65.1907L70.8066 66.1895C70.8066 66.1895 75.9786 66.809 80.2094 68.826C81.1699 69.0565 83.5326 68.7011 85.0933 69.4167C85.1989 69.3542 85.4583 69.0901 85.5735 69.0181C91.0913 70.7181 95.6583 73.609 100.974 74.8961C100.974 74.8961 103.462 75.5011 104.298 75.6644C105.707 75.9382 107.133 76.1211 108.567 76.2119C110.272 76.3463 111.218 76.3223 112.461 76.3944C113.345 76.4472 114.421 76.2983 114.771 77.5853M122.671 60.8062C118.913 60.7985 115.86 63.8384 115.852 67.5966C115.844 71.3548 118.884 74.4079 122.642 74.4158C126.4 74.4235 129.454 71.3836 129.461 67.6254C129.461 67.6204 129.461 67.6158 129.461 67.6108C129.456 63.8545 126.408 60.813 122.652 60.8156L122.671 60.8062Z" fill="white"/>
</svg>
