<svg width="20" height="20" viewBox="0 0 20 20" fill="none" xmlns="http://www.w3.org/2000/svg">
<path d="M2.69629 9.62017C2.69629 5.57492 5.97563 2.29492 10.0215 2.29492C14.0674 2.29492 17.3468 5.57427 17.3468 9.62017C17.3468 13.6654 14.0674 16.9454 10.0215 16.9454C5.97563 16.9454 2.69629 13.6654 2.69629 9.62017Z" fill="white"/>
<path d="M10.4209 15.8681C10.4812 16.2196 10.5416 16.5711 10.6012 16.9226C10.6963 16.9154 10.7901 16.9055 10.8845 16.8944C11.4766 16.7304 12.0701 16.577 12.6675 16.4524C13.5311 16.118 14.3153 15.6242 14.9842 15.0078C13.4268 15.0196 11.9199 15.4163 10.4209 15.8681Z" fill="#E8472F"/>
<path d="M16.9093 12.1186C17.0018 11.8635 17.0805 11.6012 17.1448 11.3337C14.4261 9.66091 12.03 10.4445 9.6582 11.4111C9.72115 11.7789 9.7841 12.1468 9.84705 12.514C12.1067 11.6662 14.3867 10.9711 16.9093 12.1186Z" fill="#E8472F"/>
<path d="M15.9676 13.899C16.1807 13.6033 16.3729 13.2911 16.5401 12.9646C14.2516 12.2688 12.1342 12.8767 10.0332 13.6079C10.0962 13.9757 10.1591 14.3436 10.2221 14.7108C12.0935 14.1056 13.9762 13.5915 15.9676 13.899Z" fill="#E8472F"/>
<path d="M10.0215 2.29492C5.97629 2.29492 2.69629 5.57427 2.69629 9.62017C2.69629 10.5408 2.86678 11.4215 3.17629 12.2333C3.16514 12.1133 3.15858 11.992 3.15858 11.8693C3.15858 9.77492 4.85629 8.07722 6.95072 8.07722C8.0858 8.07722 9.10416 8.57558 9.79858 9.36574C9.61891 8.92443 9.5199 8.44181 9.5199 7.93623C9.5199 5.84181 11.2176 4.1441 13.312 4.1441C14.2137 4.1441 15.0419 4.45886 15.6924 4.98476C14.3494 3.34279 12.3081 2.29492 10.0215 2.29492Z" fill="#00599E"/>
<path d="M16.335 10.1907C16.3278 9.95329 16.3573 9.58083 16.4531 9.13558C16.5114 8.86345 16.5842 8.6287 16.655 8.43394C16.5435 8.41952 16.434 8.37886 16.3363 8.31001C16.1501 8.17952 16.0465 7.97558 16.034 7.76509C15.8183 6.98083 16.0531 6.2687 16.1908 5.93689C16.0386 6.10214 15.7232 6.49034 15.6072 7.08116C15.5199 7.52509 15.579 7.91525 15.6649 8.20509C15.5429 8.20968 15.3658 8.20575 15.1613 8.15722C14.2458 7.94017 13.7357 7.06083 13.3147 6.33558C13.1127 5.98804 12.8603 5.4864 12.657 4.83984C12.6354 5.24771 12.6557 5.84968 12.8747 6.52968C13.2485 7.68837 13.9816 8.39788 14.3435 8.70476C14.1508 8.69493 13.9416 8.6687 13.7219 8.61624C12.6544 8.36181 11.9685 7.65034 11.6445 7.25296C11.8314 7.66279 12.3796 8.72312 13.5108 9.2864C13.8668 9.46345 14.5219 9.78935 15.2432 9.58279C15.4124 9.53427 15.5449 9.46804 15.6347 9.41624C15.7108 8.90279 15.8858 8.51722 15.9868 8.3205C15.8708 8.61558 15.575 9.48181 15.8858 10.489C16.0498 11.0208 16.3232 11.4012 16.5206 11.6287C16.3875 11.0418 16.3462 10.5474 16.335 10.1907Z" fill="#00599E"/>
<path d="M13.7459 4.85705C13.921 4.60853 14.2646 4.5482 14.5138 4.72328C14.763 4.89836 14.8226 5.24197 14.6476 5.49115C14.4725 5.73968 14.1289 5.8 13.8797 5.62492C13.6305 5.44918 13.5708 5.10558 13.7459 4.85705Z" fill="#E8472F"/>
<path d="M16.3875 7.37676C16.5626 7.12758 16.9062 7.06791 17.1554 7.24299C17.4046 7.41808 17.4642 7.76168 17.2892 8.01086C17.1141 8.25939 16.7705 8.31972 16.5213 8.14463C16.2721 7.96955 16.2124 7.62595 16.3875 7.37676Z" fill="#00599E"/>
<path d="M4.78747 11.1258C4.48584 11.0924 4.26879 10.8215 4.30223 10.5199C4.33567 10.2183 4.60649 10.0012 4.90813 10.0346C5.20911 10.0681 5.42682 10.3396 5.39338 10.6406C5.35993 10.9422 5.08911 11.1592 4.78747 11.1258Z" fill="#E8472F"/>
<path d="M4.73625 15.3159C5.03723 15.3493 5.25493 15.6208 5.22149 15.9218C5.18805 16.2234 4.91723 16.4405 4.61559 16.407C4.31461 16.3736 4.0969 16.1021 4.13034 15.8011C4.16379 15.5002 4.43461 15.2824 4.73625 15.3159Z" fill="#00599E"/>
<path d="M4.5209 13.9941C4.75303 13.7174 4.89794 13.4532 4.98516 13.2676C4.98647 13.3673 5.00155 13.5581 5.09991 13.7653C5.19762 13.9712 5.33073 14.0918 5.40417 14.1495C5.22057 14.362 4.91893 14.6558 4.47237 14.884C3.65335 15.303 2.87106 15.2348 2.55762 15.1895C2.9609 15.0872 3.27303 14.9417 3.48417 14.8256C3.69139 14.7115 4.12155 14.4709 4.5209 13.9941Z" fill="#E8472F"/>
<path d="M5.14861 13.2291C4.89418 12.5097 5.0909 11.8507 5.20697 11.5596C5.39582 11.0829 5.6909 10.7747 5.86795 10.616C5.86861 10.6186 5.86992 10.6212 5.87057 10.6238C5.87516 10.6173 5.87975 10.6101 5.88434 10.6035C6.11189 10.7884 6.5932 11.132 7.28631 11.2894C7.75648 11.3956 8.15057 11.3766 8.40172 11.3445C8.19844 11.4638 7.83189 11.6383 7.32762 11.6724C7.16566 11.6835 7.01025 11.6783 6.86271 11.6619C6.5991 11.353 6.26402 11.2199 6.0568 11.1642C6.30205 11.2645 6.66861 11.4802 6.88434 11.9196C7.19188 12.5452 6.95254 13.132 6.91647 13.2166C6.9132 13.0875 6.88238 12.4586 6.37287 11.9911C6.12041 11.7589 5.84697 11.656 5.66467 11.6081C5.77353 11.6632 5.95582 11.7694 6.1368 11.9504C6.11975 11.995 6.09877 12.0553 6.08172 12.1288C5.94139 12.7229 6.16041 13.6094 6.8791 14.0389C7.59582 14.4671 8.57615 14.3006 9.15582 13.6094C8.72434 14.3773 7.88434 14.8219 7.02205 14.7393C6.05484 14.6448 5.3932 13.9229 5.14861 13.2291Z" fill="#E8472F"/>
<path d="M4.71973 6.95959C4.94071 6.41204 5.18464 5.94844 5.45087 5.55696C5.21743 5.4009 4.97546 5.2704 4.72366 5.17073C5.14858 4.96418 5.56432 4.89204 5.96891 4.90975C6.26202 4.6009 6.57677 4.35434 6.9112 4.14844C6.83186 4.44352 6.76301 4.74057 6.7053 5.03893C7.09481 5.15499 7.47055 5.33795 7.83186 5.55237C7.42137 5.50909 7.01284 5.50581 6.61087 5.59434C6.56628 5.89467 6.53284 6.19565 6.51055 6.49729C6.30727 6.26975 6.09481 6.06122 5.87317 5.87499C5.47973 6.09598 5.09415 6.44024 4.71973 6.95959Z" fill="white"/>
<path d="M3.79143 9.03329C3.75536 8.6792 3.75536 8.36379 3.78881 8.08182C3.61635 8.06084 3.44585 8.05624 3.2793 8.07067C3.45307 7.8451 3.66028 7.69362 3.88717 7.59395C3.9593 7.3487 4.06028 7.131 4.18487 6.92969C4.22618 7.11002 4.27405 7.28772 4.32782 7.46411C4.57438 7.42149 4.83274 7.41756 5.09241 7.43526C4.85503 7.52313 4.63012 7.63133 4.43536 7.78805C4.497 7.96116 4.5652 8.13231 4.63995 8.30083C4.46356 8.23329 4.28717 8.17887 4.11143 8.13887C3.9593 8.36379 3.84717 8.65297 3.79143 9.03329Z" fill="white"/>
<path d="M7.69434 3.85578C8.32253 3.62169 8.89237 3.46759 9.41368 3.38365C9.39335 3.08857 9.34483 2.80595 9.26352 2.53906C9.72975 2.71349 10.0727 2.98103 10.3291 3.30562C10.7966 3.303 11.2242 3.36332 11.6294 3.46955C11.3173 3.62628 11.0111 3.79218 10.7107 3.96791C10.8707 4.35349 10.9638 4.77775 11.0183 5.21382C10.7802 4.86562 10.5088 4.5489 10.1612 4.30431C9.86876 4.49185 9.5822 4.68791 9.3022 4.89316C9.36515 4.56923 9.40515 4.25119 9.41893 3.943C8.96122 3.80398 8.40057 3.7607 7.69434 3.85578Z" fill="white"/>
<mask id="mask0_3488_24804" style="mask-type:luminance" maskUnits="userSpaceOnUse" x="6" y="3" width="8" height="15">
<path d="M10.0073 3.71289C9.03357 3.71355 8.21128 3.90437 7.79226 4.02305C7.62505 4.07027 7.52341 4.2401 7.56079 4.4106L7.58702 4.5306C7.64079 4.77584 7.89718 4.91814 8.13325 4.83355C8.21521 5.47617 8.36472 6.24535 7.6139 6.65912C7.4421 6.75355 7.32341 6.92207 7.29259 7.11617L7.23226 7.50502C7.23226 7.50502 7.14439 7.54371 7.02177 7.59945C6.73849 7.72797 6.54702 8.00142 6.52472 8.31224C6.49653 8.71355 6.488 9.08732 6.51226 9.48601C6.51226 9.48535 6.51226 9.48469 6.51292 9.48469C6.5221 9.64928 6.72144 9.8165 6.72144 9.8165C6.72144 9.8165 6.5503 9.9083 6.57587 10.1254C6.57587 10.1247 6.57521 10.124 6.57521 10.1234C6.62243 10.4735 6.69456 10.8572 6.79685 11.2998C7.1398 12.787 7.79161 13.665 8.61718 14.2414C8.61718 14.2414 8.71423 14.309 8.88013 14.4231C9.52734 14.867 9.13718 16.088 7.94374 16.3076C7.58833 16.3732 7.29915 16.5968 7.13718 16.9208L7.0303 17.166C6.99685 17.2414 7.03489 17.3214 7.11357 17.3431C8.05915 17.5994 9.03161 17.709 10.0146 17.7083C11.0369 17.7076 11.9673 17.5903 12.9464 17.3417C13.0264 17.3214 13.0664 17.2316 13.0296 17.1581L12.8683 16.8355C12.7267 16.5529 12.4552 16.364 12.1437 16.3142C10.9418 16.1208 10.69 14.8598 11.4146 14.3765C11.5142 14.3096 11.625 14.244 11.7614 14.1575C12.5418 13.6617 13.0736 12.766 13.3385 11.2965C13.4218 10.8335 13.4755 10.4263 13.507 10.0493C13.5064 10.0499 13.5064 10.0513 13.5057 10.0519C13.5313 9.8342 13.3221 9.74502 13.3221 9.74502C13.3221 9.74502 13.5306 9.57584 13.5398 9.41191C13.5483 9.0001 13.5306 8.61256 13.4985 8.21191C13.4729 7.88928 13.2637 7.60994 12.9614 7.49453C12.8578 7.45519 12.7864 7.42896 12.7864 7.42896L12.707 6.9306C12.686 6.8001 12.6021 6.68797 12.4828 6.63224C11.6244 6.23289 11.7641 5.53584 11.8637 4.94699V4.93453C11.8644 4.93453 11.865 4.93519 11.8657 4.93519C11.8716 4.90043 11.8775 4.86568 11.8828 4.83158C12.1188 4.91551 12.3746 4.77322 12.4283 4.52797L12.4677 4.34764C12.4972 4.21322 12.4185 4.07814 12.286 4.03945C11.8919 3.92338 11.0342 3.71355 10.0106 3.71355C10.0093 3.71289 10.0087 3.71289 10.0073 3.71289Z" fill="white"/>
</mask>
<g mask="url(#mask0_3488_24804)">
<path d="M13.5513 3.71094H6.48438V17.7103H13.5513V3.71094Z" fill="url(#paint0_linear_3488_24804)"/>
</g>
<defs>
<linearGradient id="paint0_linear_3488_24804" x1="6.4585" y1="10.7099" x2="13.5852" y2="10.7062" gradientUnits="userSpaceOnUse">
<stop stop-color="#B7B6B5"/>
<stop offset="0.2342" stop-color="#CACAC9"/>
<stop offset="0.4519" stop-color="#C5C5C4"/>
<stop offset="0.7015" stop-color="#B8B8B6"/>
<stop offset="0.9661" stop-color="#A2A19F"/>
<stop offset="1" stop-color="#9F9E9C"/>
</linearGradient>
</defs>
</svg>
