<svg width="8" height="8" viewBox="0 0 8 8" fill="none" xmlns="http://www.w3.org/2000/svg">
<path d="M3.72938 0.535156C3.79384 0.60046 3.84647 0.671116 3.8882 0.75033C3.91071 0.79301 3.92837 0.837124 3.94636 0.881423C3.96284 0.922148 3.9871 0.957286 4.01146 0.994435C4.06587 1.0775 4.10795 1.16704 4.13622 1.25994C4.1508 1.30781 4.16157 1.35683 4.16816 1.4061C4.17381 1.44811 4.16961 1.49207 4.1772 1.53357C4.17542 1.52134 4.1875 1.49911 4.19046 1.48626C4.19421 1.47 4.19779 1.45375 4.20131 1.43744C4.21316 1.38225 4.22169 1.32633 4.22633 1.27018C4.23476 1.16935 4.24629 1.05158 4.19378 0.958573C4.14322 0.868912 4.0778 0.786252 3.9997 0.714468C3.95976 0.677654 3.91653 0.643878 3.87072 0.61321C3.82776 0.584384 3.78016 0.551524 3.72938 0.535156ZM3.12846 0.573128C3.21577 0.622567 3.29367 0.678649 3.36322 0.747919C3.40132 0.78585 3.43639 0.825675 3.4699 0.866958C3.50337 0.908241 3.54161 0.941328 3.58412 0.974846C3.67199 1.044 3.74913 1.12559 3.81225 1.21413C3.84516 1.26027 3.87449 1.30867 3.89935 1.35878C3.91951 1.3994 3.93191 1.44252 3.95118 1.48325C3.95554 1.43548 3.94562 1.38336 3.93853 1.33588C3.92936 1.27443 3.91616 1.21317 3.89935 1.15295C3.87035 1.0486 3.83846 0.938648 3.75198 0.860328C3.66701 0.783404 3.56449 0.719137 3.45785 0.669866C3.40109 0.64361 3.34216 0.621464 3.28155 0.603867C3.23524 0.590348 3.1779 0.570111 3.12846 0.573128ZM4.23989 0.66203C4.28972 0.750294 4.32274 0.842094 4.33843 0.940189C4.34659 0.991137 4.3528 1.04039 4.37068 1.08967C4.38856 1.13871 4.40437 1.18776 4.41498 1.23854C4.44174 1.36647 4.4387 1.49899 4.41467 1.6267C4.45685 1.55374 4.49123 1.47643 4.51804 1.39766C4.5458 1.31593 4.58164 1.21563 4.55963 1.13005C4.53589 1.03782 4.49018 0.946497 4.43487 0.866054C4.40683 0.825274 4.37546 0.786529 4.34054 0.75033C4.31127 0.719941 4.27799 0.683705 4.23989 0.66203ZM2.63151 0.765097C2.57433 0.765453 2.52765 0.769223 2.5405 0.778357C2.5662 0.796568 2.63422 0.797959 2.84036 0.920299C2.88382 0.946052 2.92293 0.977172 2.96271 1.00739C3.00919 1.0427 3.05433 1.06811 3.10857 1.09208C3.2284 1.14498 3.34135 1.20817 3.44218 1.28766C3.49106 1.32626 3.53667 1.36812 3.5784 1.41303C3.59784 1.43398 3.61649 1.45534 3.63415 1.47752C3.64499 1.49104 3.65478 1.50879 3.6688 1.52001C3.67021 1.48566 3.64204 1.44015 3.62902 1.40881C3.60729 1.3563 3.58308 1.30471 3.55609 1.25421C3.51085 1.1698 3.45797 1.08852 3.39758 1.01222C3.33512 0.933337 3.23719 0.891504 3.14021 0.855807C3.04938 0.822345 2.88206 0.787524 2.78581 0.77233C2.75631 0.767693 2.68869 0.764741 2.63151 0.765097ZM4.7284 0.891971C4.73695 0.967945 4.74154 1.03777 4.73322 1.11408C4.72546 1.18541 4.71516 1.25201 4.71996 1.32413C4.7256 1.40842 4.71961 1.49504 4.69977 1.57727C4.69128 1.6123 4.68188 1.64668 4.66903 1.68064C4.65713 1.71226 4.63703 1.74383 4.62865 1.77617C4.69702 1.72031 4.75213 1.63954 4.79922 1.56853C4.84503 1.49954 4.89483 1.42936 4.89053 1.34613C4.88606 1.26049 4.87075 1.17531 4.84081 1.09358C4.81545 1.02426 4.7813 0.948449 4.7284 0.891971ZM2.46636 1.0963C2.4187 1.09604 2.37119 1.09776 2.32382 1.10142C2.25907 1.10645 2.19448 1.1147 2.13125 1.12794C2.10326 1.1338 2.07574 1.14133 2.04837 1.14903C2.0353 1.15272 2.02175 1.15596 2.0098 1.16199C2.00371 1.16507 1.97631 1.17619 1.98508 1.17887C1.99391 1.18155 2.13038 1.20361 2.15988 1.21232C2.21451 1.22852 2.26794 1.24709 2.3205 1.26837C2.41692 1.30737 2.50589 1.36674 2.61041 1.385C2.67946 1.39707 2.74637 1.40672 2.81414 1.42448C2.90866 1.44928 3.00204 1.47911 3.09109 1.5176C3.14433 1.54062 3.19589 1.56746 3.24539 1.59656C3.26768 1.60969 3.28909 1.6236 3.31048 1.63785C3.32311 1.64628 3.34453 1.6665 3.36051 1.66828C3.36017 1.65778 3.34891 1.64499 3.34243 1.63544C3.325 1.60996 3.30663 1.58492 3.28758 1.5604C3.24658 1.50777 3.20241 1.45731 3.15649 1.40821C3.11291 1.36167 3.06754 1.3167 3.01967 1.2738C2.97593 1.23458 2.93029 1.19119 2.87772 1.16169C2.80253 1.11952 2.69535 1.11122 2.60921 1.10323C2.56178 1.09884 2.51403 1.09655 2.46636 1.0963ZM5.10269 1.18309C5.08526 1.20985 5.08294 1.25167 5.07165 1.28133C5.06009 1.31144 5.04795 1.34162 5.03398 1.37084C5.01862 1.40296 4.99859 1.43312 4.98396 1.46547C4.96938 1.49742 4.96666 1.53148 4.95985 1.56522C4.94644 1.63203 4.92447 1.69778 4.89475 1.7599C4.87783 1.79526 4.85917 1.83008 4.83749 1.86327C4.82336 1.88494 4.80065 1.90719 4.79199 1.93138C4.82025 1.92026 4.84819 1.89608 4.87215 1.87954C4.90729 1.85518 4.94084 1.82894 4.97341 1.80179C5.03508 1.75039 5.11028 1.69576 5.12921 1.61856C5.14743 1.54449 5.15395 1.46731 5.14971 1.39133C5.14753 1.35156 5.14259 1.31189 5.13343 1.2729C5.12773 1.24871 5.12247 1.20253 5.10269 1.18309ZM2.33647 1.52725C2.28117 1.52624 2.22523 1.53119 2.17042 1.53689C2.0597 1.5484 1.95025 1.56972 1.84495 1.60229C1.79607 1.61748 1.74804 1.63505 1.7015 1.65533C1.65167 1.677 1.59545 1.69896 1.55383 1.73248C1.51154 1.76655 1.55877 1.7589 1.59 1.7608C1.64636 1.76421 1.7025 1.77224 1.75786 1.7828C1.81774 1.7942 1.87693 1.80865 1.93536 1.8253C1.9896 1.84083 2.04582 1.86553 2.10201 1.87351C2.15257 1.88072 2.20756 1.86958 2.25812 1.86628C2.28996 1.86427 2.322 1.86336 2.35395 1.86297C2.47719 1.86156 2.60112 1.86912 2.72312 1.88677C2.92524 1.91599 3.04007 1.97172 3.04347 1.95669C3.0485 1.93468 2.81927 1.77254 2.79575 1.75628C2.69827 1.68914 2.59601 1.62928 2.49138 1.57185C2.44054 1.54397 2.39563 1.52836 2.33647 1.52725ZM5.38266 1.56763C5.37495 1.56942 5.3683 1.58462 5.36428 1.58993C5.355 1.60239 5.34461 1.6145 5.33444 1.6264C5.31383 1.65058 5.29211 1.67401 5.26965 1.69691C5.22932 1.73803 5.19315 1.77144 5.1708 1.82379C5.14527 1.88339 5.11083 1.94017 5.07105 1.99285C5.05295 2.01676 5.03384 2.04002 5.01289 2.06187C5.01165 2.06315 4.99039 2.0887 4.9933 2.08959C5.00838 2.09412 5.07925 2.05732 5.09606 2.05011C5.12852 2.03615 5.15993 2.02086 5.19099 2.00461C5.22267 1.98802 5.26057 1.97311 5.28683 1.94976C5.31213 1.92725 5.32395 1.8954 5.33535 1.86568C5.35669 1.80976 5.37354 1.75349 5.38176 1.6945C5.3836 1.68076 5.4012 1.57042 5.38266 1.56763ZM5.546 1.95247C5.53343 1.95029 5.50434 1.97243 5.49507 1.97718C5.46982 1.99009 5.44409 2.00249 5.41822 2.01455C5.3842 2.03031 5.34384 2.04299 5.31787 2.0688C5.28301 2.10338 5.25634 2.14408 5.22053 2.17849C5.20047 2.19777 5.17934 2.21649 5.15694 2.23364C5.15297 2.23672 5.12268 2.25872 5.12771 2.25956C5.14731 2.26286 5.17284 2.25692 5.1925 2.25474C5.22004 2.25167 5.24727 2.24773 5.27447 2.24299C5.31559 2.23584 5.37665 2.23216 5.40737 2.20501C5.44603 2.17077 5.47463 2.11905 5.49899 2.07603C5.51178 2.05341 5.52454 2.03019 5.53364 2.00611C5.53727 1.99667 5.55432 1.96096 5.546 1.95247ZM1.9887 2.09471C1.9277 2.09444 1.86571 2.11872 1.80879 2.1357C1.7479 2.1538 1.68818 2.17499 1.63008 2.19929C1.53869 2.23755 1.45094 2.28309 1.37151 2.33912C1.33927 2.36186 1.30767 2.38554 1.27778 2.41085C1.25968 2.42621 1.23766 2.44433 1.22263 2.46389C1.19817 2.49584 1.28204 2.49434 1.3031 2.49613C1.36695 2.50161 1.43084 2.50818 1.49446 2.51572C1.57681 2.5255 1.65839 2.54075 1.74068 2.55008C1.80291 2.55717 1.86385 2.52798 1.9215 2.5115C1.99239 2.49128 2.0649 2.47457 2.13757 2.46027C2.28131 2.432 2.42833 2.41419 2.57576 2.40994C2.60592 2.40905 2.636 2.4084 2.66617 2.40874C2.687 2.40891 2.71386 2.41393 2.73397 2.40874C2.75961 2.40209 2.74772 2.39196 2.72945 2.38101C2.70795 2.36805 2.68359 2.35793 2.66074 2.34726C2.55427 2.29737 2.44713 2.24888 2.33708 2.20592C2.2787 2.18318 2.21962 2.16182 2.16018 2.14143C2.1066 2.12305 2.04674 2.09494 1.9887 2.09471ZM1.69999 2.8207C1.64888 2.82657 1.60098 2.85603 1.55685 2.87826C1.45322 2.93044 1.35413 2.99195 1.26603 3.0639C1.22788 3.09507 1.19203 3.12858 1.15935 3.16456C1.14024 3.18551 1.12204 3.20724 1.10601 3.23025C1.09522 3.24578 1.07084 3.27382 1.07587 3.29354C1.08229 3.31846 1.14573 3.3164 1.1717 3.31885C1.31086 3.33193 1.43723 3.35175 1.51616 3.36074C1.58599 3.36868 1.63892 3.33308 1.69668 3.30409C1.75718 3.2737 1.81917 3.24566 1.88202 3.2194C2.0071 3.16712 2.13618 3.12181 2.26746 3.08349C2.32707 3.06606 2.3874 3.0522 2.44768 3.03678C2.46902 3.0313 2.54961 3.016 2.50162 2.99248C2.45961 2.97192 2.40474 2.96649 2.35938 2.9542C2.30435 2.93929 2.24855 2.92695 2.19303 2.91382C2.07387 2.88555 1.95324 2.85847 1.83229 2.83758C1.78844 2.83004 1.74491 2.81556 1.69999 2.8207ZM1.5683 3.65759C1.54624 3.66083 1.52523 3.66802 1.50381 3.68109C1.45498 3.71087 1.40969 3.74603 1.36578 3.78145C1.28506 3.84664 1.20735 3.92086 1.15724 4.00868C1.14031 4.0384 1.11323 4.08301 1.12529 4.11837C1.13585 4.14943 1.17488 4.15899 1.20515 4.1681C1.29375 4.19486 1.38888 4.21902 1.48151 4.22958C1.54301 4.23656 1.57814 4.21425 1.62495 4.18196C1.67847 4.14498 1.73315 4.10947 1.7889 4.07528C1.89705 4.00897 2.00901 3.94779 2.12281 3.88964C2.168 3.86651 2.21373 3.84394 2.25993 3.82243C2.28479 3.81081 2.30973 3.79962 2.33437 3.78778C2.34828 3.78113 2.38697 3.76835 2.38982 3.75131C2.39451 3.72299 2.23785 3.71776 2.21774 3.71575C2.02473 3.69637 1.83188 3.6763 1.63882 3.65759C1.61346 3.65513 1.59036 3.65435 1.5683 3.65759ZM1.60808 4.52732C1.58619 4.52889 1.56541 4.5347 1.54479 4.54993C1.47362 4.60244 1.39951 4.67653 1.35795 4.75094C1.24454 4.95378 1.5734 5.03637 1.73194 5.05441C1.78568 5.0605 1.8205 5.02328 1.8567 4.99384C1.90011 4.95853 1.94418 4.92394 1.9887 4.88987C2.08171 4.81875 2.17701 4.75014 2.27349 4.68283C2.31377 4.65473 2.35472 4.62726 2.39494 4.59905C2.40611 4.59123 2.43935 4.57234 2.43382 4.55626C2.42851 4.54095 2.3962 4.54204 2.38319 4.54209C2.33095 4.54231 2.27841 4.54746 2.22618 4.54902C2.09752 4.55293 1.96842 4.5481 1.83983 4.54089C1.78581 4.53787 1.73196 4.53436 1.67799 4.53034C1.65305 4.52847 1.62997 4.52576 1.60808 4.52732ZM2.77767 5.26416C2.7468 5.26268 2.69872 5.27663 2.68184 5.27923C2.48609 5.30934 2.2835 5.32788 2.08423 5.32112C2.03681 5.3195 1.9884 5.31426 1.94109 5.31449C1.89824 5.31476 1.87128 5.33623 1.84284 5.36271C1.81044 5.39287 1.77745 5.42278 1.74701 5.45462C1.72265 5.48015 1.68009 5.51537 1.69819 5.55196C1.77215 5.70156 1.9972 5.76396 2.15988 5.78251C2.20786 5.78848 2.23916 5.76654 2.27228 5.73911C2.30664 5.71079 2.34099 5.68245 2.37535 5.65412C2.45261 5.59033 2.52947 5.52613 2.60589 5.46155C2.65394 5.421 2.70141 5.38011 2.74934 5.3395C2.76281 5.3281 2.81866 5.29041 2.80118 5.27169C2.79653 5.26671 2.78796 5.26465 2.77767 5.26416ZM3.25353 5.89823C3.24749 5.89673 3.23813 5.89713 3.22459 5.90034C3.12834 5.92296 3.0348 5.95169 2.93709 5.96995C2.83363 5.98928 2.72901 6.00263 2.62337 6.00883C2.56986 6.01196 2.51613 6.01296 2.46244 6.01184C2.41882 6.01089 2.37833 6.00532 2.3413 6.02962C2.30672 6.05219 2.27588 6.07976 2.24124 6.10255C2.22549 6.11289 2.20954 6.12345 2.19272 6.13239C2.18669 6.13557 2.15757 6.14478 2.15656 6.14987C2.15315 6.16663 2.20986 6.20107 2.22226 6.20984C2.25025 6.22973 2.27992 6.24768 2.31026 6.26439C2.42042 6.325 2.54518 6.38199 2.674 6.39668C2.72372 6.40233 2.75535 6.39123 2.79244 6.36263C2.83327 6.33118 2.87301 6.29851 2.91178 6.26499C2.99256 6.19516 3.06925 6.12169 3.14383 6.0465C3.17651 6.01354 3.21147 5.98142 3.24147 5.94645C3.2597 5.92516 3.27162 5.90274 3.25353 5.89823ZM3.76524 6.40452C3.75303 6.40696 3.73886 6.41315 3.73179 6.41597C3.70291 6.42748 3.6747 6.44006 3.6456 6.45123C3.58041 6.47631 3.51354 6.49817 3.44549 6.51633C3.31355 6.55158 3.17718 6.57297 3.03926 6.57811C3.00479 6.57939 2.9678 6.57619 2.93378 6.58172C2.90506 6.58647 2.88321 6.60193 2.85874 6.61517C2.8331 6.62908 2.80603 6.64222 2.77737 6.65043C2.7715 6.65217 2.71194 6.66169 2.71228 6.65917C2.71083 6.6661 2.7257 6.6762 2.73006 6.67967C2.76609 6.70855 2.81166 6.72963 2.85362 6.75019C2.97942 6.81163 3.11214 6.85042 3.25353 6.86651C3.31425 6.87344 3.35226 6.85521 3.39969 6.8204C3.4575 6.77789 3.51094 6.72999 3.56122 6.68027C3.60647 6.63547 3.64914 6.58842 3.6902 6.54044C3.71059 6.51664 3.73056 6.49265 3.75017 6.46841C3.76056 6.45551 3.78663 6.43271 3.78724 6.41567C3.78772 6.40319 3.77745 6.40208 3.76524 6.40452ZM4.32337 6.78273C4.3177 6.78298 4.30922 6.78696 4.30137 6.79057C4.28075 6.80001 4.26136 6.81192 4.2417 6.82281C4.19243 6.85019 4.1406 6.87391 4.0877 6.89514C3.98609 6.93592 3.87877 6.96637 3.76856 6.98223C3.718 6.98955 3.66494 6.98838 3.61516 6.99821C3.586 7.00396 3.56442 7.01937 3.53862 7.03166C3.49068 7.05434 3.4754 7.05093 3.52294 7.07053C3.65244 7.12383 3.74298 7.13896 3.87253 7.15371C3.89839 7.15667 3.92611 7.15769 3.95209 7.15462C3.9779 7.15155 4.00069 7.1425 4.0208 7.1287C4.06487 7.09837 4.10652 7.06648 4.14406 7.02955C4.17953 6.9947 4.21216 6.9575 4.2426 6.91895C4.25964 6.89734 4.27586 6.87536 4.29172 6.85296C4.3034 6.83648 4.32257 6.81623 4.32849 6.7969C4.33187 6.78598 4.32903 6.78248 4.32337 6.78273Z" fill="#0088D1"/>
<path d="M3.63192 3.98659C3.60002 3.98262 3.55351 4.02537 3.53066 4.04324C3.50178 4.06587 3.37057 4.16982 3.33146 4.19965C3.31219 4.21434 3.28917 4.23454 3.27028 4.24968C3.2642 4.25454 3.23352 4.2808 3.25642 4.28343C3.27843 4.28594 3.3022 4.28186 3.32393 4.27951C3.37041 4.27449 3.54203 4.24987 3.64247 4.23401C3.67113 4.22954 3.72049 4.22419 3.73921 4.20056C3.76323 4.17033 3.72139 4.10166 3.70636 4.07428C3.69267 4.04931 3.66996 3.99139 3.63192 3.98659ZM3.87392 4.39674C3.87128 4.39829 3.86938 4.40385 3.86578 4.41302C3.83098 4.50122 3.77763 4.57996 3.71841 4.65622C3.68685 4.69694 3.65374 4.73623 3.62017 4.77556C3.61497 4.78165 3.54783 4.85212 3.57677 4.85542C3.59213 4.85721 3.61539 4.84576 3.62891 4.84095C3.65176 4.83274 3.67464 4.82424 3.69732 4.81564C3.75731 4.79301 3.81636 4.76878 3.87362 4.7409C3.91702 4.71973 3.96499 4.69753 4.0017 4.66737C4.02058 4.65178 4.02935 4.63864 4.02309 4.61523C4.01806 4.59657 4.00588 4.5799 3.99476 4.5637C3.96951 4.527 3.94632 4.48921 3.92214 4.45189C3.91213 4.43642 3.90184 4.4169 3.88748 4.40428C3.87997 4.39771 3.87656 4.3952 3.87392 4.39674ZM4.12676 4.70534C4.13587 4.81489 4.10965 4.92759 4.07161 5.03021C4.0477 5.09473 4.01961 5.15793 3.98843 5.21977C3.97313 5.25016 3.95692 5.28004 3.94022 5.30988C3.93642 5.31669 3.90265 5.36695 3.92304 5.36924C3.94119 5.37131 3.96892 5.34526 3.98211 5.33609C4.00328 5.3214 4.02437 5.30669 4.04509 5.29149C4.08403 5.26289 4.12144 5.2328 4.15629 5.20018C4.20445 5.15521 4.28164 5.08451 4.29131 5.01876C4.30063 4.95535 4.2552 4.87916 4.21928 4.82799C4.19079 4.78733 4.1629 4.74092 4.12676 4.70534ZM4.4004 5.01183C4.40822 5.07199 4.41926 5.13102 4.42149 5.19174C4.4244 5.26894 4.42139 5.34607 4.41396 5.42289C4.40843 5.48003 4.39943 5.53636 4.38714 5.59255C4.37937 5.62836 4.36979 5.66366 4.35851 5.69863C4.35393 5.71294 4.32594 5.77349 4.34163 5.78573C4.36331 5.7802 4.38297 5.74931 4.39588 5.73389C4.42314 5.70121 4.44936 5.66774 4.47333 5.63294C4.52154 5.56322 4.56078 5.48781 4.58363 5.40782C4.59475 5.36883 4.60276 5.32725 4.59387 5.28697C4.58488 5.2463 4.5626 5.20619 4.54053 5.17004C4.50567 5.11289 4.45799 5.05222 4.4004 5.01183ZM6.25168 5.03865C6.20411 5.03803 6.15676 5.04075 6.11305 5.0495C6.20506 5.05313 6.29746 5.07774 6.38187 5.11097C6.46868 5.14505 6.52416 5.17303 6.60879 5.21012C6.6913 5.24627 6.78939 5.31019 6.86375 5.3593C6.89766 5.38176 6.93062 5.40539 6.96229 5.43042C6.97983 5.44427 6.99744 5.45857 7.01352 5.47382C7.02118 5.48114 7.02902 5.49283 7.03974 5.49702C7.0417 5.48741 7.02961 5.47295 7.02498 5.46508C7.01325 5.44513 7.00131 5.42545 6.98851 5.40601C6.96304 5.36735 6.93479 5.33027 6.90323 5.29541C6.84239 5.22832 6.76906 5.16069 6.68655 5.11549C6.60124 5.06879 6.48813 5.05705 6.39121 5.04739C6.34694 5.043 6.29924 5.03926 6.25168 5.03865ZM5.95694 5.15076C6.05833 5.17835 6.15342 5.2292 6.23721 5.28757C6.32335 5.34757 6.38858 5.42555 6.47137 5.48828C6.55215 5.5494 6.62955 5.61257 6.69709 5.68598C6.72799 5.7195 6.75755 5.75439 6.78509 5.79025C6.80029 5.81008 6.81536 5.83006 6.82849 5.85112C6.83474 5.86112 6.83982 5.87635 6.85049 5.88367C6.85563 5.87362 6.8469 5.85438 6.84416 5.84449C6.83723 5.81941 6.83007 5.79426 6.82186 5.76946C6.80549 5.72013 6.78534 5.67205 6.76098 5.6254C6.71406 5.53546 6.65357 5.44156 6.57564 5.37045C6.49514 5.29688 6.37267 5.25524 6.26765 5.21977C6.17168 5.18737 6.05979 5.15377 5.95694 5.15076ZM4.67796 5.23725C4.69846 5.27116 4.72042 5.29916 4.73461 5.3367C4.76891 5.42775 4.78902 5.52547 4.7979 5.62088C4.80706 5.71892 4.81148 5.81752 4.80483 5.91562C4.80383 5.93059 4.78041 6.10414 4.79247 6.10548C4.80459 6.10006 4.80915 6.08584 4.81508 6.07534C4.82731 6.05366 4.83914 6.03193 4.85003 6.00964C4.8731 5.96199 4.89398 5.9128 4.9094 5.86258C4.93828 5.7685 4.95192 5.66711 4.93924 5.56935C4.92784 5.48125 4.86746 5.41041 4.80573 5.34393C4.77188 5.30745 4.72846 5.25646 4.67796 5.23725ZM5.76467 5.27431C5.86187 5.30884 5.94992 5.36602 6.02505 5.43132C6.10203 5.49819 6.15913 5.57952 6.23209 5.64951C6.30544 5.71984 6.37137 5.79556 6.42858 5.87734C6.45869 5.92036 6.48676 5.96479 6.51145 6.01055C6.5233 6.03244 6.53393 6.05486 6.5446 6.07715C6.55181 6.09217 6.55742 6.11276 6.56931 6.12567C6.57702 6.11209 6.56938 6.08486 6.56721 6.07112C6.56335 6.04621 6.55878 6.02138 6.55364 5.99668C6.5423 5.94199 6.52691 5.88783 6.50663 5.83515C6.46926 5.73801 6.41817 5.63925 6.34811 5.5573C6.28326 5.48143 6.17541 5.42719 6.08352 5.3825C5.98296 5.33357 5.87612 5.29577 5.76467 5.27431ZM5.52147 5.36502C5.56627 5.38553 5.61125 5.40416 5.65136 5.43193C5.69683 5.46343 5.7386 5.49996 5.77552 5.53951C5.84183 5.6104 5.89177 5.69355 5.95182 5.76885C6.02137 5.856 6.08059 5.94988 6.12902 6.04792C6.15383 6.09825 6.17559 6.14987 6.19442 6.20221C6.20308 6.22629 6.21074 6.25049 6.21823 6.27484C6.22147 6.28546 6.22442 6.30578 6.23269 6.31523C6.24235 6.30433 6.23734 6.27247 6.23751 6.25917C6.2379 6.23225 6.23637 6.20528 6.2342 6.17841C6.22967 6.12265 6.22179 6.06716 6.20888 6.01235C6.18492 5.9108 6.14639 5.80677 6.08774 5.71672C6.03064 5.62896 5.92881 5.56134 5.8373 5.50486C5.74116 5.44542 5.63348 5.39407 5.52147 5.36502ZM5.02211 5.37527C5.12825 5.51376 5.17627 5.68307 5.20956 5.8463C5.22733 5.93328 5.23665 6.02149 5.23849 6.1097C5.23945 6.15578 5.23909 6.2021 5.23518 6.24802C5.23394 6.26204 5.21483 6.35102 5.23036 6.35862C5.24287 6.36482 5.31482 6.15601 5.31896 6.14104C5.34477 6.04763 5.35537 5.95007 5.34939 5.85354C5.34291 5.74935 5.30008 5.66738 5.23578 5.5814C5.17774 5.5037 5.10675 5.43002 5.02211 5.37527ZM5.2614 5.38492C5.3467 5.44139 5.41195 5.51421 5.45849 5.59979C5.50536 5.68604 5.55255 5.77428 5.5935 5.86288C5.63579 5.95438 5.66805 6.04965 5.69084 6.14646C5.70179 6.19288 5.71028 6.23956 5.71676 6.2866C5.71927 6.30464 5.7214 6.32269 5.72369 6.34084C5.72486 6.34989 5.72318 6.3838 5.73273 6.39117C5.74457 6.3843 5.74718 6.34083 5.7493 6.32999C5.75439 6.30413 5.75872 6.27808 5.76196 6.25194C5.76838 6.20038 5.77119 6.14839 5.7698 6.09644C5.76711 5.99588 5.74958 5.89502 5.71495 5.79899C5.67914 5.69972 5.59718 5.61854 5.51484 5.54765C5.44049 5.48369 5.35223 5.42799 5.2614 5.38492Z" fill="#00BBB4"/>
<path d="M2.95491 1.65652C2.94525 1.66484 2.94389 1.66088 3.05556 1.74512C3.1231 1.79606 3.19918 1.8835 3.25778 1.91478C3.30778 1.94149 3.33961 1.97193 3.3729 2.01484C3.37224 1.9497 3.35559 1.87589 3.31956 1.81835C3.29682 1.78204 3.25301 1.75645 3.21318 1.73819C3.15352 1.71087 3.08983 1.68795 3.02603 1.67008C3.01123 1.66589 2.96469 1.64814 2.95491 1.65652ZM2.60503 2.06999C2.58944 2.07037 2.5527 2.06794 2.56705 2.08626C2.57744 2.09944 2.60718 2.11068 2.62371 2.1176C2.75639 2.17335 2.88865 2.23671 3.00825 2.31319C3.04875 2.33911 3.08742 2.36997 3.1306 2.39215C3.16468 2.40957 3.20337 2.41822 3.2394 2.43162C3.27722 2.4457 3.31455 2.46317 3.34729 2.48557C3.37388 2.50378 3.39484 2.52938 3.42232 2.54614C3.41953 2.50771 3.39838 2.46485 3.38285 2.42921C3.36709 2.39324 3.34828 2.35854 3.32649 2.32524C3.28605 2.2634 3.2441 2.20784 3.1746 2.17125C3.12042 2.1427 3.05993 2.12703 2.99921 2.11519C2.91262 2.09832 2.82465 2.0847 2.73672 2.07632C2.69298 2.07218 2.64893 2.06893 2.60503 2.06999ZM2.78012 2.58562C2.69255 2.58466 2.60498 2.5888 2.51733 2.59737C2.45951 2.60302 2.40202 2.61036 2.34465 2.61907C2.30599 2.62494 2.26355 2.62904 2.22651 2.64077C2.16378 2.66071 2.21696 2.67807 2.25243 2.68718C2.29371 2.69774 2.33461 2.71043 2.37539 2.72244C2.56973 2.77981 2.75385 2.85504 2.94255 2.92526C2.98831 2.94224 3.0297 2.94253 3.07847 2.94213C3.12657 2.94175 3.17453 2.94436 3.22252 2.94816C3.32078 2.95598 3.40428 2.97611 3.48953 3.02169C3.45601 2.92684 3.3764 2.84099 3.30088 2.77066C3.23049 2.70502 3.14676 2.61816 3.04291 2.6043C2.95543 2.5926 2.86768 2.58658 2.78012 2.58562ZM2.94346 3.14224C2.88832 3.13587 2.82987 3.15124 2.7768 3.16213C2.73222 3.17124 2.68754 3.18086 2.6433 3.19136C2.5371 3.21656 2.43191 3.24603 2.32868 3.27966C2.23712 3.30949 2.14528 3.34066 2.05684 3.3773C2.02277 3.39144 1.96668 3.42147 2.03243 3.43426C2.08489 3.44448 2.1392 3.44924 2.19216 3.45656C2.30623 3.47232 2.4203 3.4878 2.53421 3.50478C2.63046 3.51914 2.72649 3.54065 2.82141 3.55149C2.87475 3.55758 2.92353 3.54069 2.97269 3.52527C3.03643 3.50527 3.10052 3.48697 3.16526 3.46982C3.22922 3.4529 3.29376 3.43707 3.35934 3.42612C3.38884 3.42115 3.41836 3.41746 3.44824 3.41528C3.4683 3.41383 3.49467 3.41401 3.47506 3.39267C3.44965 3.36508 3.40592 3.3428 3.3729 3.32336C3.32888 3.2975 3.28292 3.27457 3.23638 3.25284C3.18761 3.2301 3.13803 3.20933 3.08781 3.18955C3.04245 3.17162 2.99301 3.14794 2.94346 3.14224ZM2.90609 3.78806C2.88647 3.78741 2.86738 3.78806 2.84943 3.79108C2.79748 3.79979 2.75131 3.82686 2.70478 3.84803C2.64607 3.87468 2.58724 3.90139 2.52908 3.9291C2.4144 3.98368 2.30225 4.042 2.19125 4.10239C2.13466 4.13311 2.07904 4.16524 2.02279 4.19641C1.99575 4.21138 1.90671 4.2651 1.98391 4.27326C2.04173 4.2808 2.10176 4.27954 2.15991 4.28049C2.23292 4.28166 2.30599 4.28336 2.379 4.2838C2.49676 4.28453 2.61444 4.2839 2.7322 4.282C2.79371 4.28104 2.84517 4.2753 2.89886 4.24704C2.94248 4.22402 2.98369 4.19752 3.02603 4.1726C3.13145 4.11059 3.23768 4.05001 3.34427 3.98967C3.39399 3.96152 3.44488 3.93444 3.49315 3.90439C3.53622 3.87752 3.50288 3.86917 3.46663 3.86431C3.33848 3.8471 3.21065 3.82863 3.08239 3.81187C3.02893 3.80491 2.96493 3.78999 2.90609 3.78806ZM3.65528 4.39953C3.64175 4.40186 3.62809 4.40589 3.62153 4.40706C3.49801 4.42913 3.37446 4.44977 3.24994 4.46704C3.18682 4.47581 3.12349 4.48375 3.06009 4.49084C3.00093 4.49744 2.94661 4.50329 2.89644 4.53424C2.81148 4.5867 2.73342 4.65072 2.65264 4.70843C2.56186 4.7734 2.47175 4.83874 2.38232 4.90522C2.33645 4.9393 2.29009 4.97288 2.2449 5.00768C2.22328 5.02433 2.17 5.06517 2.22832 5.07187C2.29122 5.07902 2.36006 5.06746 2.4224 5.06193C2.49899 5.05517 2.57535 5.04697 2.65144 5.03692C2.78914 5.01882 2.92654 4.99629 3.06189 4.9673C3.11854 4.95518 3.16554 4.94058 3.20806 4.90371C3.23571 4.87975 3.26138 4.85389 3.28792 4.82897C3.37339 4.74875 3.45897 4.66828 3.53986 4.58427C3.57751 4.54516 3.61343 4.50498 3.64985 4.46493C3.65997 4.45387 3.70416 4.41452 3.68813 4.40134C3.68215 4.3964 3.66881 4.3972 3.65528 4.39953ZM3.95845 4.87388C3.94253 4.87661 3.92293 4.89387 3.90963 4.9013C3.88667 4.91421 3.86359 4.92666 3.84002 4.93867C3.78633 4.9661 3.73109 4.99115 3.67517 5.01461C3.56808 5.05942 3.45682 5.09143 3.34789 5.13154C3.24197 5.17059 3.16977 5.2686 3.09324 5.3419C3.00776 5.42368 2.92084 5.50429 2.83286 5.58389C2.7894 5.62322 2.74568 5.66225 2.70116 5.70052C2.6858 5.71376 2.60689 5.77204 2.66409 5.77857C2.69543 5.78215 2.7295 5.77356 2.76023 5.76893C2.7952 5.76368 2.82981 5.75774 2.8645 5.75115C2.93271 5.73824 3.00034 5.72309 3.06732 5.70594C3.18647 5.67539 3.30295 5.63836 3.4178 5.59685C3.46892 5.57836 3.52518 5.55973 3.56608 5.52543C3.60501 5.49286 3.63237 5.44942 3.66131 5.4097C3.72968 5.31557 3.7959 5.22007 3.85478 5.12069C3.88232 5.07422 3.90851 5.02685 3.93253 4.97875C3.94521 4.95333 3.9588 4.92746 3.96779 4.9007C3.97265 4.88617 3.97985 4.87013 3.95845 4.87388ZM4.29869 5.27921C4.28551 5.2777 4.25839 5.31958 4.25108 5.32773C4.22979 5.35125 4.20752 5.374 4.18417 5.39584C4.1382 5.43869 4.0885 5.47835 4.03711 5.51578C3.95052 5.57885 3.85644 5.62915 3.76437 5.68485C3.67119 5.74121 3.61762 5.84341 3.55282 5.92413C3.48153 6.0129 3.40672 6.09923 3.3289 6.1833C3.29114 6.22414 3.25261 6.26453 3.21227 6.30325C3.20121 6.31386 3.14458 6.36202 3.17882 6.36593C3.2334 6.37051 3.29214 6.34727 3.34337 6.33308C3.41515 6.31308 3.48571 6.29032 3.55492 6.26407C3.67514 6.21848 3.79157 6.16379 3.90089 6.09983C3.94782 6.0724 4.00019 6.04562 4.03259 6.00339C4.06957 5.95501 4.09355 5.89667 4.11908 5.84276C4.16952 5.73629 4.21441 5.62756 4.24927 5.51578C4.26547 5.46389 4.27902 5.41148 4.29025 5.35847C4.29282 5.34618 4.31176 5.2886 4.29869 5.27921ZM4.65581 5.60348C4.64408 5.61074 4.63914 5.63397 4.63411 5.64537C4.62361 5.66883 4.6117 5.69187 4.59885 5.71438C4.57019 5.76477 4.53659 5.81251 4.5 5.85843C4.43531 5.93943 4.36091 6.01358 4.28091 6.08235C4.24287 6.11503 4.20449 6.1448 4.17634 6.18541C4.14617 6.22876 4.12367 6.27638 4.09708 6.32163C4.04027 6.41822 3.97777 6.51213 3.90873 6.6019C3.87465 6.64625 3.83901 6.68975 3.80114 6.73148C3.79572 6.73746 3.72124 6.80709 3.75051 6.81044C3.77084 6.81273 3.79781 6.8008 3.81591 6.79477C3.84954 6.7836 3.88275 6.7717 3.91566 6.75891C3.98331 6.73248 4.04942 6.70237 4.11305 6.6688C4.22562 6.60947 4.33127 6.53913 4.42707 6.45935C4.47171 6.4222 4.50869 6.38633 4.53014 6.33399C4.54902 6.28795 4.56393 6.24024 4.57745 6.19265C4.60326 6.1017 4.62764 6.00573 4.64044 5.91479C4.6482 5.85999 4.65558 5.80555 4.65882 5.75024C4.6605 5.72181 4.66101 5.69345 4.66123 5.66496C4.6614 5.64831 4.66748 5.61828 4.65581 5.60348ZM5.03794 5.84517C5.02341 5.85987 5.0239 5.90669 5.01865 5.92624C5.01128 5.95384 5.0036 5.98123 4.99394 6.00821C4.97265 6.06731 4.9465 6.12506 4.91588 6.18059C4.88454 6.2374 4.8487 6.29189 4.8092 6.34423C4.77613 6.38808 4.73459 6.42862 4.70644 6.47532C4.67744 6.52331 4.66234 6.57837 4.64044 6.62932C4.61485 6.68887 4.58558 6.74724 4.55334 6.80411C4.52357 6.85657 4.4912 6.90783 4.4545 6.9566C4.43439 6.98342 4.41256 7.00932 4.39061 7.03496C4.38798 7.03797 4.35044 7.07671 4.36228 7.07805C4.38781 7.08085 4.4203 7.06142 4.44214 7.05153C4.46588 7.04075 4.48917 7.02946 4.51236 7.01778C4.57034 6.98845 4.62649 6.95587 4.67961 6.91984C4.76978 6.85867 4.85241 6.78818 4.92493 6.71009C4.95883 6.67361 4.9988 6.63458 5.01684 6.58894C5.03572 6.54134 5.04151 6.48875 5.04939 6.43886C5.06598 6.33468 5.07435 6.22795 5.07139 6.12243C5.06988 6.06964 5.06627 6.01708 5.06024 5.96451C5.05733 5.9396 5.05396 5.91458 5.04999 5.88977C5.04781 5.8762 5.04844 5.85534 5.03794 5.84517ZM5.48576 5.98049C5.47342 6.01814 5.48144 6.06826 5.47853 6.10736C5.47479 6.15836 5.46283 6.20789 5.4502 6.25744C5.42166 6.36939 5.37754 6.47649 5.3176 6.57749C5.28738 6.62843 5.26201 6.67693 5.24648 6.73329C5.22955 6.79452 5.21068 6.85501 5.18621 6.91411C5.16303 6.97003 5.13591 7.02456 5.10424 7.07685C5.08804 7.10361 5.07072 7.12987 5.0515 7.1549C5.03446 7.17713 5.00241 7.20107 4.99213 7.22632C5.01788 7.22409 5.04542 7.20553 5.06687 7.19408C5.0905 7.18151 5.11337 7.16783 5.13588 7.15369C5.18605 7.12219 5.23338 7.08757 5.27812 7.05003C5.35996 6.98148 5.43103 6.90299 5.49209 6.81858C5.52159 6.77774 5.55131 6.73578 5.56231 6.68718C5.57359 6.63747 5.57507 6.58512 5.57557 6.53439C5.57647 6.44406 5.57172 6.35444 5.55809 6.26467C5.54971 6.20942 5.53853 6.15448 5.52434 6.10013C5.51797 6.0756 5.51095 6.05139 5.50324 6.0272C5.49917 6.0144 5.49638 5.99065 5.48576 5.98049ZM5.90255 5.98892C5.89691 6.00976 5.90708 6.0362 5.90948 6.05703C5.91261 6.08441 5.91315 6.11218 5.9131 6.13961C5.91304 6.19094 5.91001 6.24224 5.90526 6.2933C5.89772 6.37419 5.88526 6.45218 5.85704 6.52927C5.83643 6.5858 5.80675 6.64084 5.79195 6.69894C5.77698 6.75748 5.77222 6.81752 5.75518 6.87584C5.72502 6.9793 5.67717 7.08311 5.59908 7.16394C5.59902 7.16456 5.5953 7.16692 5.59787 7.16575C5.70714 7.11519 5.80458 7.02264 5.87905 6.93611C5.92038 6.88801 5.95701 6.83681 5.98874 6.78302C6.01706 6.73503 6.05076 6.68013 6.05836 6.6251C6.07355 6.51522 6.04432 6.39277 6.01617 6.28607C6.00069 6.22736 5.98178 6.16941 5.95921 6.11248C5.95027 6.09008 5.9406 6.06776 5.93088 6.04558C5.92351 6.02877 5.91657 6.00278 5.90255 5.98892Z" fill="#D73B3F"/>
<path d="M4.65585 5.60402C4.64412 5.61129 4.63915 5.63458 4.63407 5.64598C4.62357 5.6695 4.61178 5.69246 4.59899 5.71497C4.57027 5.76536 4.53642 5.81318 4.49983 5.85904C4.43514 5.9401 4.36101 6.014 4.28096 6.08277C4.24643 6.11243 4.21202 6.14014 4.18482 6.17528C4.28498 6.25388 4.3895 6.32589 4.49804 6.38968C4.51078 6.37315 4.52167 6.35522 4.53011 6.33466C4.54899 6.28863 4.5639 6.24092 4.57742 6.19332C4.60329 6.10232 4.62753 6.00629 4.64032 5.91535C4.64803 5.86055 4.65563 5.80614 4.65887 5.75083C4.66055 5.7224 4.66105 5.69396 4.66133 5.66547C4.66144 5.64883 4.66753 5.61883 4.65585 5.60402ZM4.29012 5.35895C4.29274 5.34666 4.31179 5.28896 4.29872 5.27957C4.28559 5.27812 4.25833 5.32024 4.25101 5.32834C4.22973 5.35191 4.20744 5.37459 4.18403 5.39644C4.13806 5.43928 4.08851 5.47878 4.03711 5.51621C3.95058 5.57928 3.85651 5.62972 3.76445 5.68542C3.74596 5.69659 3.72936 5.70994 3.71356 5.72424C3.80646 5.83088 3.90561 5.93278 4.01041 6.0278C4.01846 6.02037 4.02605 6.01255 4.03265 6.004C4.06963 5.95557 4.09348 5.89714 4.11901 5.84323C4.16945 5.7367 4.21448 5.62816 4.24928 5.51637C4.26548 5.46442 4.27889 5.41197 4.29012 5.35895ZM5.06014 5.96496C5.05729 5.9401 5.05388 5.91518 5.04997 5.89038C5.04779 5.8768 5.04852 5.85597 5.03801 5.8458C5.02355 5.86049 5.02377 5.9073 5.01857 5.92686C5.01114 5.9544 5.00349 5.98183 4.99383 6.00881C4.97254 6.06791 4.94645 6.12551 4.91584 6.18103C4.8845 6.23785 4.84864 6.29254 4.80909 6.34488C4.77602 6.38873 4.73468 6.42923 4.70652 6.47594C4.70283 6.48202 4.69937 6.48823 4.69613 6.49448C4.79635 6.54174 4.89942 6.58168 5.00505 6.61325C5.00958 6.60548 5.01371 6.59761 5.0169 6.58939C5.03578 6.5418 5.04159 6.48934 5.04947 6.43946C5.06606 6.33522 5.07427 6.22863 5.07131 6.1231C5.06986 6.07031 5.06617 6.01752 5.06014 5.96496ZM6.01623 6.28656C6.00076 6.22785 5.9816 6.16975 5.95903 6.11283C5.95009 6.09048 5.94065 6.06819 5.93099 6.04601C5.92356 6.02914 5.91641 6.00322 5.90238 5.98937C5.89674 6.0102 5.90713 6.03685 5.90953 6.05769C5.91272 6.08501 5.91305 6.11266 5.913 6.14009C5.91294 6.19142 5.90981 6.24276 5.90507 6.29382C5.89758 6.37466 5.88507 6.45258 5.85691 6.52973C5.83853 6.5799 5.81334 6.62906 5.79753 6.68006C5.88333 6.669 5.97015 6.65185 6.05791 6.62822C6.05802 6.62738 6.05824 6.62654 6.05835 6.6257C6.07355 6.51582 6.04439 6.3932 6.01623 6.28656ZM5.55799 6.26533C5.54961 6.21008 5.53844 6.15511 5.52425 6.10076C5.51793 6.07623 5.51106 6.05182 5.5033 6.02763C5.49922 6.01484 5.49643 5.9911 5.48581 5.98093C5.47347 6.01858 5.48134 6.06875 5.47849 6.10791C5.4747 6.15891 5.46263 6.20835 5.45 6.2579C5.42146 6.36985 5.37749 6.47689 5.31755 6.57794C5.29873 6.60962 5.28219 6.64056 5.26839 6.67285C5.36398 6.68771 5.46134 6.69548 5.56033 6.69531C5.561 6.6928 5.56184 6.69034 5.56246 6.68777C5.57374 6.63811 5.57519 6.58571 5.57564 6.53498C5.57653 6.44465 5.57167 6.35505 5.55799 6.26533ZM3.93237 4.97942C3.94505 4.954 3.95874 4.92802 3.96768 4.90127C3.97254 4.8868 3.97969 4.8706 3.95829 4.87428C3.94237 4.87708 3.92299 4.89445 3.90975 4.90188C3.88673 4.91478 3.86344 4.92719 3.83992 4.9392C3.78618 4.96657 3.7311 4.99176 3.67518 5.01517C3.56814 5.06003 3.4567 5.09193 3.34776 5.13204C3.33073 5.13829 3.31464 5.14623 3.29916 5.15522C3.37659 5.2832 3.46279 5.41007 3.55703 5.53291C3.5601 5.53068 3.56323 5.52844 3.56613 5.52604C3.60501 5.49347 3.63244 5.45001 3.66132 5.41029C3.7297 5.31616 3.7959 5.22069 3.85478 5.12125C3.88232 5.07478 3.90841 5.02752 3.93237 4.97942ZM3.53976 4.58486C3.57736 4.54575 3.61339 4.50559 3.64982 4.46559C3.65993 4.45453 3.70423 4.4152 3.68819 4.40196C3.67624 4.39213 3.63468 4.4052 3.62155 4.40755C3.49804 4.42961 3.37441 4.45017 3.24984 4.46743C3.18671 4.4762 3.12347 4.48419 3.06012 4.49129C3.03331 4.4943 3.0075 4.49726 2.98264 4.5024C3.03325 4.641 3.09683 4.78479 3.17219 4.92948C3.18448 4.92238 3.19643 4.91411 3.20794 4.90417C3.23553 4.88015 3.26145 4.8544 3.28805 4.82948C3.37346 4.74926 3.45882 4.66888 3.53976 4.58486ZM3.37279 2.01543C3.37212 1.9503 3.35564 1.87633 3.31955 1.81885C3.31944 1.81863 3.31922 1.8184 3.31911 1.81818C3.30369 1.85142 3.28827 1.88667 3.27291 1.92399C3.3143 1.94862 3.34307 1.97706 3.37279 2.01543ZM3.23939 2.43212C3.27721 2.44619 3.31441 2.46385 3.34715 2.48625C3.37374 2.50446 3.39474 2.52993 3.42223 2.54664C3.41949 2.50826 3.39832 2.46535 3.38279 2.42971C3.36709 2.39374 3.34827 2.35905 3.32648 2.3257C3.28715 2.26559 3.24604 2.21162 3.18001 2.17509C3.15805 2.24073 3.13632 2.3105 3.11504 2.38396C3.12018 2.38692 3.12515 2.39005 3.1304 2.39279C3.16448 2.41022 3.20336 2.41871 3.23939 2.43212ZM3.34424 3.99014C3.39396 3.96204 3.44485 3.93511 3.49318 3.90506C3.53625 3.87819 3.50284 3.86964 3.46658 3.86478C3.33843 3.84758 3.21051 3.82909 3.0823 3.81233C3.01102 3.80305 2.9213 3.77965 2.84958 3.79171C2.84712 3.7921 2.84472 3.79272 2.84231 3.79322C2.83818 3.92489 2.85891 4.07874 2.90214 4.24577C2.94454 4.22314 2.98465 4.19728 3.02588 4.17303C3.13129 4.11103 3.23766 4.05047 3.34424 3.99014ZM3.16531 3.47028C3.22928 3.45335 3.29369 3.43754 3.35927 3.42654C3.38877 3.42162 3.41815 3.41799 3.44804 3.41581C3.46809 3.41436 3.49463 3.41441 3.47502 3.39307C3.4496 3.36548 3.40581 3.34347 3.37279 3.32403C3.32883 3.29816 3.28285 3.27515 3.23626 3.25342C3.18755 3.23068 3.13789 3.20973 3.08761 3.18996C3.04225 3.17202 2.99292 3.14834 2.94337 3.14264C2.94158 3.14247 2.93979 3.14247 2.93806 3.1423C2.91376 3.27286 2.89108 3.40939 2.87047 3.5515C2.90538 3.54737 2.9389 3.53625 2.97264 3.52564C3.03633 3.50569 3.10062 3.48737 3.16531 3.47028ZM3.0785 2.94271C3.1266 2.94231 3.17453 2.945 3.22252 2.94879C3.32084 2.95662 3.40413 2.9765 3.48943 3.02209C3.45586 2.92723 3.37625 2.84165 3.30073 2.77132C3.23302 2.70825 3.15297 2.62557 3.05465 2.60697C3.02828 2.71093 3.00286 2.8207 2.97868 2.93623C3.01108 2.94287 3.04286 2.94298 3.0785 2.94271Z" fill="#D73B3F"/>
<path d="M4.59583 5.29297C4.59544 5.29079 4.59521 5.28867 4.59471 5.28649C4.58577 5.24588 4.56348 5.2056 4.54142 5.16946C4.50656 5.11231 4.45896 5.05175 4.40137 5.01131C4.40455 5.03572 4.40813 5.05996 4.41153 5.08415C4.4703 5.15683 4.53181 5.22694 4.59583 5.29297Z" fill="#00BBB4"/>
<path d="M5.23614 5.5815C5.1781 5.50385 5.10709 5.43028 5.02246 5.37553C5.09983 5.47642 5.1462 5.59374 5.1786 5.71306C5.22938 5.73384 5.281 5.75082 5.33351 5.76367C5.31457 5.69909 5.28072 5.64116 5.23614 5.5815Z" fill="#00BBB4"/>
<path d="M6.39154 5.04649C6.30299 5.03766 6.20065 5.0309 6.11328 5.04839C6.20529 5.05202 6.29752 5.0766 6.38198 5.10978C6.46092 5.14084 6.51421 5.16687 6.58683 5.19922C6.61147 5.15833 6.63029 5.12252 6.64381 5.09481C6.56566 5.06431 6.47298 5.05459 6.39154 5.04649Z" fill="#00BBB4"/>
<path d="M5.51528 5.54712C5.44093 5.4831 5.35255 5.4274 5.26172 5.38433C5.34702 5.44081 5.41238 5.51382 5.45892 5.59946C5.49338 5.66292 5.52807 5.72739 5.56031 5.79236C5.61254 5.79398 5.6627 5.79236 5.71075 5.78772C5.67304 5.69337 5.59455 5.61533 5.51528 5.54712Z" fill="#00BBB4"/>
<path d="M5.83722 5.50365C5.74103 5.44427 5.63355 5.39282 5.52148 5.36377C5.56634 5.38422 5.61137 5.40304 5.65148 5.43081C5.69689 5.46231 5.73851 5.49874 5.77549 5.53829C5.83443 5.6013 5.88046 5.67392 5.93213 5.74219C5.98001 5.72705 6.02509 5.70884 6.06771 5.68839C6.00878 5.6137 5.91889 5.5541 5.83722 5.50365Z" fill="#00BBB4"/>
<path d="M6.08438 5.38245C5.98383 5.33352 5.87713 5.29586 5.76562 5.27441C5.86288 5.30899 5.9507 5.36614 6.02589 5.43144C6.09052 5.48764 6.14136 5.55395 6.19923 5.61523C6.24175 5.58702 6.28107 5.55669 6.31727 5.52518C6.2523 5.46574 6.1627 5.42055 6.08438 5.38245Z" fill="#00BBB4"/>
<path d="M6.26785 5.21941C6.17188 5.18701 6.05993 5.15338 5.95703 5.15037C6.05848 5.17791 6.15373 5.22874 6.23752 5.28712C6.30087 5.33125 6.35299 5.38516 6.40908 5.43555C6.44567 5.3965 6.47807 5.35723 6.50645 5.3193C6.43349 5.27555 6.34589 5.24572 6.26785 5.21941Z" fill="#00BBB4"/>
<path d="M4.93987 5.56957C4.92842 5.48147 4.86825 5.41047 4.80653 5.34399C4.77267 5.30752 4.72921 5.25662 4.67871 5.23746C4.69921 5.27132 4.721 5.2993 4.73513 5.33684C4.7501 5.37645 4.76217 5.41734 4.772 5.45874C4.82697 5.50499 4.88351 5.54762 4.94144 5.58594C4.94093 5.58046 4.9406 5.57499 4.93987 5.56957Z" fill="#00BBB4"/>
<path d="M3.75022 6.4671C3.76061 6.45425 3.78675 6.43146 3.78742 6.41442C3.78832 6.3895 3.74614 6.40889 3.73195 6.41453C3.70307 6.42604 3.67475 6.43861 3.6457 6.44978C3.58045 6.47492 3.5137 6.49671 3.4456 6.51486C3.31365 6.55011 3.17723 6.57151 3.03931 6.57659C3.00484 6.57787 2.96791 6.57469 2.93395 6.58028C2.93177 6.58061 2.92987 6.58139 2.9278 6.5819C3.05858 6.67949 3.19924 6.76932 3.34985 6.85004C3.36633 6.84216 3.38247 6.83166 3.39985 6.81887C3.45766 6.77636 3.51113 6.72865 3.56135 6.67893C3.6066 6.63407 3.64927 6.58715 3.69039 6.53916C3.71072 6.51542 3.73061 6.4914 3.75022 6.4671ZM4.55962 1.12826C4.49169 1.07726 4.42097 1.03167 4.34723 0.992624C4.3527 1.0248 4.35924 1.05647 4.3708 1.08826C4.38862 1.13731 4.40438 1.18636 4.41499 1.23708C4.44181 1.36501 4.43879 1.49779 4.41471 1.62544C4.45689 1.55248 4.49119 1.47517 4.518 1.39635C4.54577 1.31462 4.58174 1.21434 4.55973 1.12882C4.55968 1.12865 4.55962 1.12848 4.55962 1.12826ZM2.60592 5.46005C2.65391 5.4195 2.70161 5.37866 2.7496 5.3381C2.76306 5.32671 2.81865 5.28911 2.80122 5.27034C2.78261 5.2504 2.70446 5.27448 2.68201 5.27794C2.48626 5.30805 2.28353 5.3266 2.08421 5.31984C2.03679 5.31827 1.98841 5.31274 1.94104 5.31302C1.92869 5.31308 1.91774 5.31509 1.90763 5.31838C1.98171 5.47826 2.06835 5.63334 2.16773 5.78166C2.2113 5.78439 2.24108 5.76361 2.27236 5.7378C2.30666 5.70943 2.34107 5.68116 2.37543 5.65278C2.45269 5.58899 2.52944 5.52463 2.60592 5.46005ZM3.24164 5.94506C3.266 5.91668 3.27873 5.88623 3.2246 5.89897C3.12841 5.92165 3.035 5.95036 2.9373 5.96863C2.8339 5.98796 2.72893 6.00126 2.62335 6.00746C2.56983 6.01058 2.51632 6.01159 2.46263 6.01042C2.42129 6.00952 2.38275 6.005 2.34727 6.025C2.4538 6.15622 2.57179 6.28046 2.70122 6.39643C2.7363 6.39576 2.76273 6.38436 2.79256 6.36129C2.83345 6.32984 2.87311 6.29716 2.91194 6.26359C2.99266 6.19376 3.06936 6.12019 3.14394 6.045C3.17667 6.01204 3.21164 5.98008 3.24164 5.94506ZM4.8781 1.42646C4.82732 1.36892 4.77436 1.31384 4.71917 1.26227C4.7185 1.28211 4.71855 1.30211 4.71989 1.32261C4.72553 1.4069 4.71961 1.49377 4.69973 1.57595C4.69129 1.61103 4.68207 1.64538 4.66928 1.67929C4.65738 1.71091 4.63705 1.74259 4.62867 1.77493C4.69704 1.71901 4.75224 1.63818 4.79933 1.56712C4.82938 1.52193 4.861 1.47606 4.8781 1.42646ZM5.31886 2.06693C5.31863 2.06715 5.31835 2.06732 5.31813 2.06754C5.28327 2.10218 5.25635 2.14257 5.22059 2.17698C5.20048 2.19625 5.17948 2.21513 5.15708 2.23228C5.15311 2.23535 5.12278 2.25731 5.12786 2.25815C5.14741 2.2615 5.17294 2.25547 5.19255 2.25329C5.22009 2.25027 5.24746 2.24625 5.27467 2.2415C5.31098 2.23513 5.36288 2.23161 5.39567 2.21212C5.37126 2.16402 5.34561 2.11553 5.31886 2.06693ZM5.08848 1.69488C5.04932 1.6389 5.00842 1.58405 4.96586 1.53081C4.96396 1.54176 4.96211 1.55276 4.95994 1.56377C4.94653 1.63058 4.92452 1.6965 4.8948 1.75862C4.87793 1.79398 4.85916 1.82867 4.83748 1.8618C4.82329 1.88347 4.80073 1.90576 4.79207 1.9299C4.82033 1.91878 4.84827 1.89465 4.87223 1.87805C4.90737 1.8537 4.94094 1.82772 4.97351 1.80057C5.01228 1.76823 5.05636 1.7346 5.08848 1.69488ZM5.26188 1.96643C5.23311 1.91721 5.20322 1.86822 5.17205 1.81968C5.17166 1.82057 5.17121 1.82135 5.17082 1.82225C5.14535 1.88191 5.11088 1.93883 5.0711 1.99151C5.05306 2.01542 5.03379 2.03866 5.01284 2.0605C5.01166 2.06173 4.99049 2.08748 4.9934 2.08832C5.00848 2.0929 5.07926 2.05598 5.09602 2.04872C5.12847 2.03481 5.16009 2.0195 5.19115 2.00319C5.21378 1.9914 5.23942 1.98028 5.26188 1.96643ZM4.30153 6.78909C4.28092 6.79853 4.26148 6.81038 4.24182 6.82127C4.19249 6.84864 4.14087 6.87238 4.08797 6.89361C3.9863 6.93439 3.87893 6.96501 3.76877 6.98087C3.72894 6.98662 3.68749 6.9873 3.64732 6.99204C3.7667 7.04238 3.8915 7.08751 4.02171 7.12695C4.06557 7.09679 4.10668 7.065 4.14405 7.0283C4.17953 6.99344 4.21215 6.95624 4.24254 6.91769C4.25964 6.89607 4.276 6.87395 4.29187 6.8516C4.3036 6.83507 4.32276 6.81473 4.32868 6.79541C4.33544 6.77356 4.31729 6.78189 4.30153 6.78909ZM2.81412 1.42327C2.9087 1.44802 3.00221 1.47779 3.0912 1.51628C3.14444 1.53936 3.19595 1.56606 3.24544 1.59522C3.26773 1.60829 3.28918 1.62231 3.31052 1.63661C3.32315 1.64505 3.34454 1.66522 3.36057 1.66706C3.36018 1.6565 3.34907 1.64365 3.34253 1.63416C3.3251 1.60863 3.30683 1.58371 3.28773 1.55919C3.24678 1.50651 3.20265 1.45584 3.15667 1.40668C3.11316 1.36015 3.06746 1.31518 3.01959 1.27227C2.9759 1.23311 2.93054 1.18999 2.87797 1.16049C2.87356 1.15798 2.86864 1.15597 2.86401 1.15373C2.75982 1.21993 2.66162 1.29367 2.5695 1.37406C2.58296 1.3778 2.59665 1.3811 2.61061 1.38355C2.67971 1.39562 2.74636 1.40551 2.81412 1.42327ZM3.44213 1.28624C3.49101 1.32479 3.53688 1.36657 3.57866 1.41149C3.59805 1.43243 3.61654 1.45405 3.63425 1.47617C3.64503 1.48975 3.65492 1.5074 3.66894 1.51863C3.67039 1.48428 3.64212 1.43875 3.62916 1.40735C3.60743 1.35484 3.58308 1.30317 3.55604 1.25267C3.51085 1.16826 3.45811 1.08709 3.39767 1.01072C3.37314 0.979719 3.34292 0.954581 3.30957 0.933129C3.25717 0.951843 3.2041 0.973463 3.15036 0.998042C3.11148 1.01581 3.07327 1.03458 3.03579 1.05424C3.05875 1.06731 3.08254 1.07921 3.10863 1.09066C3.2284 1.14357 3.3413 1.20669 3.44213 1.28624ZM4.01144 0.993127C4.06585 1.0762 4.10813 1.16574 4.1364 1.25864C4.15093 1.30652 4.16176 1.35534 4.16836 1.40456C4.174 1.44662 4.16958 1.4907 4.17718 1.53226C4.17534 1.52003 4.18757 1.49791 4.19048 1.48506C4.19422 1.4688 4.19802 1.45254 4.20148 1.43623C4.21333 1.38104 4.22176 1.32506 4.22645 1.26887C4.23483 1.16803 4.24645 1.05016 4.194 0.95715C4.18556 0.942179 4.17657 0.927543 4.16729 0.913019C4.09372 0.886875 4.01752 0.867378 3.9387 0.855535C3.93792 0.855423 3.93719 0.855312 3.93647 0.8552C3.93982 0.863468 3.94323 0.87168 3.94652 0.879948C3.96306 0.920616 3.98708 0.955978 4.01144 0.993127ZM3.58414 0.973574C3.67196 1.04279 3.74905 1.12435 3.81217 1.21284C3.84513 1.25903 3.87446 1.30736 3.89926 1.35747C3.91949 1.39808 3.932 1.44109 3.95122 1.48187C3.95563 1.43405 3.94557 1.38193 3.93848 1.33451C3.92937 1.273 3.9163 1.21183 3.89954 1.15155C3.87049 1.0472 3.83837 0.937208 3.7519 0.858888C3.74687 0.854307 3.74156 0.849949 3.73637 0.84548C3.65497 0.848832 3.57068 0.860842 3.48386 0.881456C3.51397 0.915476 3.54727 0.944581 3.58414 0.973574ZM2.12293 3.88812C2.16812 3.86499 2.21376 3.84259 2.25996 3.82103C2.28476 3.80947 2.30973 3.79818 2.33442 3.78634C2.34833 3.77969 2.38694 3.76701 2.38979 3.74997C2.39448 3.72159 2.23801 3.7164 2.21784 3.71433C2.02489 3.69495 1.83199 3.67489 1.63893 3.65618C1.61575 3.65394 1.59452 3.65333 1.57418 3.65567C1.56843 3.83617 1.57558 4.01828 1.59619 4.19973C1.60552 4.19392 1.61496 4.1876 1.62496 4.18068C1.67854 4.14375 1.73334 4.10822 1.78914 4.07403C1.89724 4.00767 2.00913 3.94627 2.12293 3.88812ZM2.27348 4.68138C2.31381 4.65322 2.35481 4.62596 2.39509 4.59781C2.40626 4.58993 2.43939 4.5711 2.43386 4.55496C2.42855 4.53965 2.39621 4.54066 2.38325 4.54071C2.33096 4.54094 2.27862 4.54602 2.22639 4.54764C2.09768 4.5515 1.96858 4.5468 1.83998 4.53965C1.78602 4.53658 1.73205 4.533 1.67814 4.52893C1.66781 4.52814 1.65781 4.52731 1.64809 4.52658C1.68368 4.70043 1.73189 4.87237 1.79294 5.04047C1.81618 5.02806 1.83629 5.00913 1.8568 4.99248C1.90014 4.95717 1.94433 4.92271 1.98886 4.88863C2.08187 4.81746 2.177 4.74864 2.27348 4.68138ZM1.88205 3.21788C2.00712 3.16559 2.13611 3.12039 2.26739 3.08202C2.327 3.06464 2.38761 3.0509 2.44788 3.03543C2.46917 3.02995 2.54978 3.01464 2.50173 2.99113C2.45978 2.97057 2.40492 2.96521 2.35956 2.95292C2.30454 2.93806 2.24856 2.9256 2.19304 2.91247C2.07388 2.8842 1.95338 2.85711 1.83244 2.83627C1.78864 2.82873 1.74501 2.81432 1.70015 2.81946C1.69948 2.81952 1.69881 2.81968 1.69814 2.81979C1.65127 2.99196 1.61725 3.16939 1.59653 3.34982C1.63105 3.33832 1.66312 3.31949 1.69669 3.30256C1.75719 3.27217 1.81926 3.24419 1.88205 3.21788ZM2.13751 2.45886C2.2813 2.4306 2.42827 2.41278 2.57575 2.40847C2.60586 2.40764 2.63609 2.40713 2.66625 2.40741C2.68709 2.40764 2.71379 2.41255 2.7339 2.40736C2.75954 2.40071 2.7477 2.3906 2.72943 2.37965C2.70793 2.36674 2.68368 2.35652 2.66089 2.34585C2.55441 2.29597 2.44721 2.24753 2.33716 2.20463C2.27879 2.18184 2.21979 2.16039 2.16041 2.14C2.10784 2.12201 2.04924 2.09475 1.99221 2.09352C1.91154 2.23776 1.84216 2.38998 1.7844 2.54813C1.83149 2.54266 1.87763 2.52283 1.92176 2.51026C1.99265 2.49003 2.06483 2.47316 2.13751 2.45886ZM2.35398 1.86163C2.47721 1.86023 2.60112 1.86766 2.72306 1.88532C2.92518 1.91459 3.0402 1.97028 3.04361 1.95526C3.04858 1.9333 2.81937 1.77124 2.79585 1.75504C2.69832 1.6879 2.59603 1.62773 2.4914 1.57036C2.46101 1.55366 2.43269 1.54159 2.40224 1.53422C2.30197 1.63941 2.21046 1.75326 2.12784 1.87426C2.17097 1.87576 2.21611 1.86766 2.25823 1.86498C2.29007 1.86292 2.32202 1.86197 2.35398 1.86163Z" fill="#0088D1"/>
</svg>
