<svg width="316" height="316" viewBox="0 0 316 316" fill="none" xmlns="http://www.w3.org/2000/svg">
<path d="M216.707 21.5243C218.594 21.0786 220.508 21.3408 222.395 21.1835C222.867 21.1573 223.365 21.2883 223.785 21C226.327 21 228.844 21 231.386 21C231.465 21.1835 231.544 21.367 231.622 21.5767C230.914 21.9437 230.154 21.7078 229.42 21.6815C225.803 21.5767 222.186 22.1272 218.568 21.9437C217.913 21.8912 217.231 22.0485 216.707 21.5243Z" fill="#A09FA0"/>
<path d="M173.272 244.729C162.892 248.477 152.879 248.792 142.603 244.755C145.67 243.995 145.644 241.741 145.382 239.486C144.412 231.072 143.39 222.658 142.393 214.269C141.45 206.432 140.532 198.594 139.589 190.73C138.514 181.765 137.413 172.8 136.338 163.836C135.159 153.822 134.005 143.809 132.826 133.796C132.013 126.954 131.201 120.112 130.388 113.271C130.126 111.095 129.942 108.919 129.68 106.77C129.549 105.853 130.047 105.145 130.388 104.437C135.211 94.3713 140.06 84.3317 144.884 74.2659C149.052 65.5894 153.193 56.8867 157.335 48.184C157.413 48.0005 157.545 47.817 157.78 47.4238C158.567 49.0228 159.275 50.4383 159.956 51.8538C163.783 59.8488 167.584 67.8175 171.411 75.8125C176.077 85.5113 180.743 95.2101 185.383 104.935C185.697 105.617 185.855 106.272 185.776 107.085C184.203 119.955 182.709 132.878 181.189 145.775C180.009 155.972 178.829 166.142 177.624 176.339C175.841 191.202 174.006 206.065 172.224 220.927C171.464 227.245 170.73 233.588 169.996 239.906C169.838 241.19 169.969 242.448 170.703 243.575C171.228 244.362 172.119 244.519 173.272 244.729Z" fill="#FFB000"/>
<path d="M155.893 24.645C153.219 25.2741 150.703 25.9032 148.187 26.5061C140.611 28.3148 132.983 29.6779 125.25 30.5953C121.449 31.041 117.596 31.3293 113.743 31.3555C111.646 31.3817 110.65 32.1419 110.047 34.1603C109.182 37.1486 109.365 40.2155 109.68 43.2562C110.099 47.3716 110.964 51.4346 111.751 55.4977C112.747 60.6878 113.428 65.9304 114.188 71.1468C115.473 79.9019 116.731 88.6833 117.989 97.4384C119.457 107.714 120.925 117.989 122.393 128.291C123.415 135.447 124.464 142.63 125.486 149.786C127.242 162.132 128.972 174.505 130.703 186.851C132.013 196.052 133.324 205.252 134.608 214.453C135.342 219.722 136.129 224.991 136.705 230.286C137.046 233.405 136.391 236.446 135.054 239.303C134.268 240.981 133.009 241.112 131.777 239.722C130.1 237.809 129.235 235.476 128.343 233.143C125.565 225.698 124.49 217.861 122.839 210.128C121.318 202.998 119.929 195.842 118.487 188.712C116.862 180.586 115.237 172.46 113.585 164.334C112.222 157.571 110.781 150.834 109.418 144.097C107.268 133.455 105.119 122.76 102.943 112.065C100.636 100.741 98.3295 89.4172 96.0228 78.067C93.585 66.0091 91.1472 53.9511 88.7094 41.8931C88.4472 40.6087 88.2375 39.298 87.5298 38.1709C87.2152 37.699 86.9269 36.9913 86.5075 36.8602C84.9347 36.4408 84.9085 35.2088 84.725 34.003C84.227 30.805 83.7027 27.6333 83.2047 24.4353C83.126 23.9635 83.1784 23.4654 83.2309 22.9936C83.4144 21.7616 84.0173 21.0538 85.4065 21.1062C90.2822 21.2897 95.184 21.3159 100.06 21.5519C113.245 22.1285 126.404 22.7839 139.563 23.413C144.569 23.6489 149.602 23.9635 154.609 24.2518C154.976 24.3304 155.395 24.2256 155.893 24.645Z" fill="#FFB000"/>
<path d="M216.707 21.524C219.905 21.4454 223.13 21.3667 226.328 21.3405C228.084 21.3143 229.893 21.0522 231.623 21.5765C232.147 22.5725 232.278 23.6473 232.121 24.7482C231.57 28.287 230.993 31.8257 230.443 35.3645C230.364 35.8625 230.233 36.3081 229.683 36.4654C228.346 36.8586 227.796 37.9333 227.376 39.1129C226.328 42.0488 225.987 45.1419 225.358 48.1564C223.628 56.3086 222.029 64.4871 220.377 72.6655C217.887 84.8808 215.397 97.1222 212.933 109.337C210.836 119.692 208.739 130.02 206.615 140.374C203.889 153.821 201.163 167.294 198.411 180.768C196.654 189.366 194.924 197.937 193.168 206.535C191.91 212.721 190.835 218.96 189.393 225.12C188.345 229.603 187.061 234.059 184.754 238.122C184.518 238.541 184.256 238.934 183.967 239.328C182.499 241.32 180.953 241.136 179.983 238.856C179.406 237.519 179.223 236.077 178.856 234.688C177.991 231.437 178.882 228.266 179.302 225.094C180.612 215.395 181.975 205.723 183.338 196.05C184.518 187.662 185.75 179.3 186.929 170.912C188.633 158.906 190.285 146.874 191.989 134.869C193.247 125.983 194.584 117.07 195.842 108.184C196.943 100.399 197.965 92.6136 199.145 84.8546C200.613 75.0247 201.74 65.1162 203.601 55.365C204.518 50.568 205.514 45.771 205.803 40.8954C205.934 38.4838 205.934 36.0984 205.121 33.7655C204.518 32.0879 203.575 31.4063 201.792 31.3539C192.775 31.1966 183.889 29.9122 175.055 28.1821C170.258 27.2385 165.487 26.1899 160.769 24.9317C160.376 24.8269 159.956 24.6958 159.589 24.3812C163.312 24.1715 167.06 23.9094 170.782 23.7259C186.091 22.992 201.399 22.258 216.707 21.524Z" fill="#FFB000"/>
<path d="M244.571 36.2829C253.851 36.2567 261.688 36.545 269.526 37.4887C277.993 38.511 282.396 43.3342 282.423 51.8534C282.423 54.9727 281.846 58.0134 280.902 60.9755C277.652 71.1985 273.746 81.1857 269.604 91.0942C265.62 100.636 261.4 110.046 256.97 119.378C251.413 131.121 245.724 142.786 239.931 154.425C231.622 171.122 223.076 187.715 213.954 203.993C207.218 216.025 200.297 227.926 192.276 239.171C191.49 240.272 190.677 241.347 189.865 242.448C189.681 242.684 189.498 242.92 189.288 243.156C188.816 243.68 188.239 243.837 187.637 243.47C186.929 243.025 187.217 242.448 187.532 241.871C189.104 238.988 190.677 236.131 192.198 233.247C197.152 223.732 202.132 214.243 207.034 204.701C212.46 194.137 217.65 183.495 222.71 172.774C228.372 160.794 233.824 148.71 238.962 136.495C242.71 127.556 246.327 118.592 249.656 109.496C252.959 100.452 256 91.3039 258.516 81.9983C260.142 75.9431 261.557 69.8093 262.422 63.5706C263.471 56.2834 259.827 51.1194 252.514 49.5204C247.455 48.4195 242.448 48.9437 237.441 49.9923C235.266 50.4379 233.142 51.1194 230.993 51.6961C229.499 52.1155 229.21 51.8009 229.499 50.333C230.259 46.2176 231.045 42.1021 231.779 37.9867C231.936 37.1741 232.199 36.7809 233.09 36.7285C237.441 36.5712 241.714 36.3877 244.571 36.2829Z" fill="#FFB000"/>
<path d="M67.0836 36.2574C72.1427 36.2049 77.2018 36.5457 82.2871 36.7292C83.1521 36.7554 83.5191 37.0962 83.6764 37.935C84.4103 42.1815 85.2229 46.428 85.9831 50.6745C86.1666 51.723 85.721 52.0376 84.7249 51.7492C81.1599 50.7007 77.595 49.7046 73.8989 49.2328C69.6262 48.7085 65.3535 48.6037 61.1857 49.993C54.9994 52.0376 51.9587 57.0967 52.981 63.5189C54.6848 74.4497 57.5945 85.0921 61.0022 95.6035C64.5933 106.692 68.7088 117.57 73.1126 128.37C79.1415 143.259 85.721 157.964 92.615 172.512C97.9362 183.784 103.441 194.977 109.103 206.117C115.184 218.097 121.423 229.971 127.819 241.793C128.134 242.37 128.553 242.999 127.74 243.497C126.98 243.969 126.43 243.55 125.958 242.947C123.232 239.434 120.715 235.764 118.277 232.042C113.14 224.204 108.369 216.131 103.756 207.979C96.7829 195.685 90.1248 183.207 83.755 170.599C79.5347 162.394 75.3931 154.163 71.3301 145.932C65.3011 133.743 59.377 121.502 53.7412 109.103C49.2063 99.1423 44.8812 89.0765 40.923 78.8797C38.1707 71.7759 35.3921 64.646 33.6096 57.2277C32.8232 53.9249 32.7708 50.5697 33.6096 47.2406C34.9989 41.8145 38.5376 38.7476 43.9637 37.8301C51.6179 36.5195 59.3507 36.3622 67.0836 36.2574Z" fill="#FFB000"/>
<path d="M157.676 294.192C148.055 294.244 138.488 293.694 129.051 291.545C124.962 290.627 120.951 289.421 117.439 286.984C116.023 286.014 114.817 284.808 114.188 283.156C113.585 281.531 114.031 280.168 115.079 278.91C115.368 278.543 115.604 278.412 116.023 278.779C121.082 283.025 127.216 284.729 133.507 285.909C143.285 287.77 153.193 288.006 163.128 287.744C171.254 287.534 179.354 286.879 187.218 284.703C191.621 283.497 195.842 281.872 199.354 278.831C199.878 278.386 200.167 278.543 200.508 278.989C201.661 280.43 201.897 281.951 201.084 283.628C200.036 285.804 198.175 287.062 196.156 288.137C192.644 289.998 188.869 291.047 185.016 291.833C175.998 293.746 166.85 294.244 157.676 294.192Z" fill="#FFB000"/>
<path d="M158.068 281.897C149.759 282.107 141.476 281.635 133.323 279.957C129.496 279.171 125.774 278.123 122.393 276.104C121.134 275.344 120.06 274.427 119.221 273.221C118.094 271.622 118.198 269.656 119.43 268.424C119.797 268.057 120.033 267.952 120.505 268.319C125.669 272.539 131.908 274.033 138.278 274.977C151.201 276.864 164.124 276.838 177.047 275.003C182.342 274.269 187.506 272.985 192.198 270.285C193.194 269.708 194.111 269.079 194.95 268.293C195.396 267.873 195.632 267.978 195.999 268.371C197.335 269.761 197.309 271.963 195.841 273.745C194.295 275.632 192.224 276.759 190.022 277.625C182.237 280.691 174.032 281.425 165.775 281.871C163.232 282.028 160.663 281.897 158.068 281.897Z" fill="#FFB000"/>
<path d="M155.552 270.338C150.572 270.416 143.521 269.997 136.548 268.607C132.695 267.847 128.894 266.825 125.591 264.518C124.411 263.706 123.52 262.657 123.075 261.268C122.865 260.613 122.943 259.957 123.153 259.328C123.677 257.913 124.202 257.782 125.381 258.673C129.208 261.582 133.691 262.867 138.304 263.706C149.183 265.645 160.113 265.698 171.07 264.597C176.156 264.099 181.189 263.181 185.907 261.084C187.506 260.377 189.079 259.564 190.363 258.411C191.097 257.755 191.464 257.991 191.91 258.647C192.853 260.01 192.565 261.897 191.123 263.391C189.288 265.305 186.903 266.327 184.439 267.113C175.736 269.944 166.719 270.338 155.552 270.338Z" fill="#FFB000"/>
<path d="M155.71 259.143C149.786 259.039 142.603 258.672 135.631 256.706C133.429 256.077 131.332 255.264 129.523 253.822C128.317 252.879 127.348 251.751 127.583 250.048C127.793 248.527 128.58 248.186 129.785 249.104C132.774 251.384 136.286 252.485 139.904 253.167C150.31 255.133 160.795 255.185 171.307 253.875C175.396 253.377 179.38 252.485 183.103 250.677C184.203 250.152 185.278 249.55 186.169 248.711C186.72 248.213 187.061 248.344 187.428 248.868C188.266 250.021 188.057 251.175 187.375 252.302C186.536 253.639 185.252 254.478 183.863 255.133C179.433 257.256 174.662 257.99 169.813 258.514C165.54 259.039 161.267 259.17 155.71 259.143Z" fill="#FFB000"/>
<path d="M157.807 85.6407C169.262 85.6145 178.673 95.0511 178.699 106.585C178.725 118.066 169.262 127.66 157.912 127.66C146.221 127.66 136.627 118.328 136.627 106.952C136.627 94.9725 145.854 85.6669 157.807 85.6407Z" fill="#FDFDFE"/>
<path d="M168.082 98.3821C169.059 98.3534 170.322 98.3535 170.322 98.3535C170.322 98.3535 171.467 99.825 172.171 100.872C172.928 102.02 173.457 104.461 173.457 104.461C173.457 104.461 172.941 109.314 171.798 111.513C171.798 111.513 171.778 111.515 171.411 111.593C169.838 111.934 168.239 112.092 166.614 112.17C166.142 112.196 166.146 112.206 166.146 112.206C165.124 110.423 163.731 107.871 162.682 106.141C162.52 105.892 162.402 105.5 162.402 105.5C162.402 105.5 162.56 104.961 162.656 104.699C163.259 103.153 163.734 101.578 164.279 100.047C164.434 99.426 164.772 98.3688 164.772 98.3688C164.772 98.3688 165.899 98.3556 166.509 98.3821L168.082 98.3821Z" fill="#FFB000"/>
<path d="M171.673 114.999C171.622 115.712 171.631 116.667 171.631 116.667C171.631 116.667 169.515 119.091 168.344 120.111C167.277 121.027 165.608 121.864 165.608 121.864C165.608 121.864 163.562 120.747 162.551 119.586C162.21 119.193 162.394 118.983 162.63 118.721C163.888 117.227 164.963 115.602 165.88 113.872C166.008 113.628 166.283 113.185 166.283 113.185C166.283 113.185 166.832 113.179 167.139 113.164C168.187 113.112 169.165 113.012 170.258 112.876C170.918 112.845 171.6 112.822 171.6 112.822C171.6 112.822 171.697 113.515 171.7 114.108C171.669 114.635 171.672 114.763 171.673 114.999Z" fill="#FFB000"/>
<path d="M174.294 103.1C173.639 100.846 171.621 99.2729 171.385 96.8613C173.01 98.6438 173.98 100.715 174.294 103.1Z" fill="#FFB000"/>
<path d="M172.549 111.866L172.51 114.937C172.51 114.937 173.61 113.876 174.465 110.63C174.99 109.366 174.444 104.955 174.444 104.955C174.444 104.955 174.045 108.031 173.157 110.23C172.737 111.492 172.549 111.866 172.549 111.866Z" fill="#FFB000"/>
<path d="M153.874 106.167L161.131 106.002L164.98 112.765L161.021 118.867H154.369L149.97 112.875L153.874 106.167Z" fill="#FFB000"/>
<path d="M145.114 98.5977L150.117 98.7078L152.866 105.58L149.072 112.013L143.849 111.463C143.849 111.463 142.809 110.365 142.42 109.354C141.837 108.44 141.43 104.866 141.43 104.866L142.787 101.754L145.114 98.5977Z" fill="#FFB000"/>
<path d="M153.92 104.85H161.068L163.377 98.4725L157.659 94.1289L151.538 98.0291L151.402 98.1269L153.92 104.85Z" fill="#FFB000"/>
<path d="M145.155 97.2379L150.571 97.3205C150.571 97.3205 151.355 96.6149 153.444 95.1853C154.489 94.3057 156.811 93.1694 156.811 93.1694V89.5957C156.811 89.5957 153.809 89.6645 150 91.3843C146.714 93.0908 145.1 94.9838 145.1 94.9838L145.155 97.2379Z" fill="#FFB000"/>
<path d="M158.316 89.6226L158.425 93.2011L164.375 97.3996L170.151 97.4362L170.103 95.1028C170.103 95.1028 169.818 94.0623 165.15 91.2412C158.687 88.8635 158.316 89.6226 158.316 89.6226Z" fill="#FFB000"/>
<path d="M140.867 106.422C140.867 106.422 141.196 109.7 141.876 111.003C142.517 112.655 142.709 112.827 142.709 112.827L142.627 115.054C142.627 115.054 142.115 114.66 141.182 111.434C140.677 110.015 140.867 106.422 140.867 106.422Z" fill="#FFB000"/>
<path d="M140.703 103.908C140.703 103.908 141.501 101.773 142.512 100.218C143.25 98.9932 144.066 97.8048 144.066 97.8048L143.832 96.5996C143.832 96.5996 142.043 99.0622 141.751 100.209C140.39 103.494 140.703 103.908 140.703 103.908Z" fill="#FFB000"/>
<path d="M154.103 120.018L151.024 122.437C151.024 122.437 155.093 123.825 157.567 123.715C162.378 123.44 164.027 122.409 164.027 122.409C162.873 121.282 161.003 120.128 161.003 120.128C161.003 120.128 159.273 120.294 157.624 120.294C156.249 120.294 154.103 120.018 154.103 120.018Z" fill="#FFB000"/>
<path d="M144.158 112.725L144.055 116.754C144.055 116.754 145.472 118.56 146.657 119.474C148.757 121.262 149.657 121.522 149.657 121.522L153.507 119.196C153.507 119.196 152.023 117.849 150.973 116.197C150.215 115.205 148.804 113.192 148.804 113.192L144.158 112.725Z" fill="#FFB000"/>
</svg>
