<svg width="20" height="21" viewBox="0 0 20 21" fill="none" xmlns="http://www.w3.org/2000/svg">
<g clip-path="url(#clip0_3486_22138)">
<path d="M7.90382 7.99168C7.48957 10.0508 7.57432 9.6883 7.58059 13.4899C7.65199 12.2528 8.03569 11.0629 8.42324 9.64097C9.06807 7.27504 9.88564 5.51855 9.95097 5.51855C10.0161 5.51855 10.8337 7.27504 11.4785 9.64097C11.866 11.0629 12.2499 12.2528 12.3213 13.4899C12.3274 9.6883 12.4124 10.0508 11.9977 7.99168C11.3529 4.78998 10.0161 2.55088 9.95097 2.55088C9.88564 2.55088 8.54905 4.78998 7.90382 7.99168ZM9.81241 6.3082V6.30861C9.81221 6.30902 9.81201 6.30942 9.8116 6.30982C9.55816 6.88001 9.0355 8.45871 8.52599 10.4328C8.09759 12.0931 7.63682 13.4786 7.67505 14.9276H7.67546C7.71085 15.1192 7.76041 15.3362 7.82958 15.5516C8.06684 16.2911 8.36256 16.8413 8.76527 17.0096C9.03955 17.1239 9.82233 17.1855 9.95097 17.1855C10.0792 17.1855 10.862 17.1239 11.1365 17.0096C11.5392 16.8413 11.8351 16.2911 12.0723 15.5516C12.1415 15.3362 12.1909 15.1192 12.2265 14.9276H12.2269C12.2649 13.4786 11.8043 12.0931 11.3757 10.4328C10.8664 8.45871 10.3438 6.88001 10.0901 6.30982C10.0899 6.30942 10.0897 6.30881 10.0895 6.3082C10.0145 6.15974 9.96513 6.07984 9.95097 6.07984C9.93681 6.07984 9.88745 6.15974 9.81241 6.3082ZM8.09435 14.9984C8.09435 14.0718 8.39978 13.193 8.74363 12.1394C9.26002 10.5585 9.89878 9.38409 9.95097 9.38409C10.0032 9.38409 10.6417 10.5585 11.1583 12.1394C11.5022 13.193 11.8074 14.0718 11.8074 14.9984C11.8074 16.2333 11.1733 17.0921 10.1102 17.1694C11.1363 17.0828 11.7309 16.1635 11.7309 15.2092C11.7309 14.3042 11.3676 13.3827 11.0418 12.3516C10.545 10.7793 10.0307 9.55116 9.95097 9.55116C9.87107 9.55116 9.35691 10.7793 8.86014 12.3516C8.53428 13.3827 8.17081 14.3042 8.17081 15.2092C8.17081 16.1635 8.76548 17.0828 9.79158 17.1694C8.72846 17.0921 8.09435 16.2333 8.09435 14.9984ZM9.96897 17.1758C10.0038 17.1756 10.0381 17.1742 10.0719 17.172C10.0764 17.172 10.0806 17.1716 10.0845 17.1712C10.0895 17.1708 10.0944 17.1706 10.0994 17.1702C10.0537 17.1738 10.0072 17.1758 9.95987 17.176C9.9627 17.176 9.96593 17.1758 9.96897 17.1758ZM9.8023 17.1702C9.80736 17.1706 9.81241 17.1708 9.81747 17.1712C9.82131 17.1716 9.82556 17.172 9.82981 17.172C9.86379 17.1742 9.89797 17.1756 9.93297 17.1758C9.936 17.1758 9.93883 17.176 9.94207 17.176C9.89453 17.1758 9.84801 17.1738 9.8023 17.1702Z" fill="url(#paint0_linear_3486_22138)"/>
<path d="M14.0719 4.79382C13.8284 5.42996 13.7989 5.9336 13.457 7.04102C13.6207 6.56892 13.8037 6.10169 14.0046 5.65852C14.7485 4.01469 15.717 3.63646 16.1763 3.51247C16.1676 3.38018 16.1587 3.25012 16.1502 3.12188C16.1266 3.00436 16.0461 2.89008 15.9134 2.78126C15.5491 2.90302 14.6269 3.34417 14.0719 4.79382Z" fill="url(#paint1_linear_3486_22138)"/>
<path d="M13.5489 4.01851C13.056 5.52358 13.4306 6.7026 13.0684 8.29688C13.1814 7.88668 13.3105 7.46697 13.4547 7.0503L13.4561 7.04666C13.7994 5.93621 13.8285 5.43216 14.0724 4.79481C14.6274 3.34516 15.5496 2.90401 15.9139 2.78225C15.6833 2.59333 15.2967 2.42019 14.7852 2.27173C14.6141 2.3761 13.9302 2.85426 13.5489 4.01851Z" fill="url(#paint2_linear_3486_22138)"/>
<path d="M12.5671 2.84954C12.3525 3.94441 12.5877 4.85078 12.8074 6.45294C12.9081 7.1902 12.8701 8.39228 12.7194 9.78125C12.8082 9.32109 12.9247 8.81845 13.0673 8.29984L13.0677 8.29883C13.4308 6.70294 13.0556 5.52391 13.5487 4.01823C13.93 2.85398 14.6139 2.37582 14.785 2.27145C14.2827 2.12582 13.6602 2.00324 12.9474 1.91283C12.8992 1.98463 12.664 2.3554 12.5671 2.84954Z" fill="url(#paint3_linear_3486_22138)"/>
<path d="M3.75148 3.12188C3.74298 3.25012 3.73428 3.38018 3.72559 3.51247C4.18473 3.63646 5.15319 4.01469 5.89734 5.65852C6.09799 6.10169 6.28124 6.56892 6.44487 7.04102C6.10304 5.9336 6.07331 5.42996 5.82978 4.79382C5.27496 3.34417 4.35282 2.90302 3.98813 2.78126C3.85585 2.89008 3.77494 3.00436 3.75148 3.12188Z" fill="url(#paint4_linear_3486_22138)"/>
<path d="M3.98828 2.78225C4.35297 2.90401 5.27511 3.34516 5.82993 4.79481C6.07407 5.43216 6.10319 5.93621 6.44644 7.04666L6.44765 7.0503C6.59187 7.46697 6.72112 7.88668 6.83398 8.29688C6.47172 6.7026 6.84632 5.52358 6.3534 4.01851C5.97233 2.85426 5.28846 2.3761 5.11734 2.27173C4.6054 2.42019 4.21927 2.59333 3.98828 2.78225Z" fill="url(#paint5_linear_3486_22138)"/>
<path d="M5.11719 2.27145C5.28831 2.37582 5.97217 2.85398 6.35325 4.01823C6.84658 5.52391 6.47117 6.70294 6.83444 8.29883L6.83485 8.29984C6.97724 8.81845 7.09375 9.32109 7.18254 9.78125C7.03165 8.39228 6.99363 7.1902 7.09476 6.45294C7.31402 4.85078 7.54966 3.94441 7.33505 2.84954C7.23817 2.3554 7.00253 1.98463 6.95479 1.91283C6.24159 2.00324 5.61922 2.12582 5.11719 2.27145Z" fill="url(#paint6_linear_3486_22138)"/>
<path d="M6.95508 1.9132C7.00281 1.98501 7.23845 2.35577 7.33534 2.84991C7.54995 3.94479 7.31431 4.85115 7.09505 6.45331C6.99391 7.19058 7.03194 8.39386 7.18323 9.78385C7.26576 10.2143 7.32381 10.6075 7.35536 10.941C7.44396 11.8828 7.52891 13.2297 7.56916 13.8945C7.56916 13.7586 7.5728 13.6233 7.58089 13.4886C7.57887 12.3211 7.56957 11.5468 7.56957 10.974C7.56957 9.68231 7.6171 9.41815 7.90412 7.99155C8.54935 4.78986 9.88594 2.55096 9.95127 2.55096C10.0164 2.55096 11.3532 4.78986 11.998 7.99155C12.4127 10.0506 12.3277 9.68817 12.3214 13.4898C12.3293 13.6241 12.3332 13.7586 12.3332 13.8945C12.3532 13.562 12.3841 13.0592 12.422 12.5217C12.4592 11.9839 12.5025 11.4121 12.5472 10.941C12.5787 10.6075 12.6366 10.2143 12.7191 9.78385C12.8136 8.91733 12.8639 8.12303 12.8639 7.4691C12.8639 7.07447 12.8455 6.73082 12.8075 6.45331C12.5878 4.85115 12.3526 3.94479 12.5672 2.84991C12.6643 2.35577 12.8993 1.98501 12.9477 1.9132C12.068 1.80135 11.051 1.73824 9.95127 1.73824C8.85174 1.73824 7.83454 1.80135 6.95508 1.9132Z" fill="url(#paint7_linear_3486_22138)"/>
<mask id="mask0_3486_22138" style="mask-type:luminance" maskUnits="userSpaceOnUse" x="-33" y="-10" width="86" height="122">
<path d="M-32.4775 111.209H52.3794V-9.19589H-32.4775V111.209Z" fill="white"/>
</mask>
<g mask="url(#mask0_3486_22138)">
<mask id="mask1_3486_22138" style="mask-type:luminance" maskUnits="userSpaceOnUse" x="3" y="1" width="14" height="17">
<path d="M3.72559 1.73817H16.1768V17.1855H3.72559V1.73817Z" fill="white"/>
</mask>
<g mask="url(#mask1_3486_22138)">
<g opacity="0.600006">
<mask id="mask2_3486_22138" style="mask-type:luminance" maskUnits="userSpaceOnUse" x="3" y="1" width="14" height="17">
<path d="M6.95479 1.91333C6.24159 2.00374 5.61942 2.12611 5.11739 2.27195C4.60545 2.42041 4.21912 2.59355 3.98833 2.78247C3.85605 2.89129 3.77514 3.00518 3.75168 3.1229C3.74318 3.25134 3.73449 3.38139 3.72559 3.51368C4.18473 3.63767 5.15319 4.0155 5.89733 5.65973C6.09819 6.1027 6.28104 6.57014 6.44487 7.04183C6.44548 7.04345 6.44588 7.04527 6.44649 7.04709L6.4477 7.05052C6.59151 7.46638 6.72076 7.88609 6.83363 8.29548C6.83363 8.29649 6.83424 8.29791 6.83444 8.29933L6.83484 8.30013C6.97744 8.81875 7.09395 9.32138 7.18274 9.78134C7.18274 9.78215 7.18295 9.78316 7.18295 9.78397C7.26547 10.2146 7.32373 10.6076 7.35508 10.9411C7.44387 11.8827 7.52882 13.2298 7.56887 13.8947C7.57251 13.9199 7.57595 13.9432 7.57919 13.9646C7.57959 14.0029 7.57979 14.0397 7.57979 14.0749C7.58364 14.1453 7.58687 14.2011 7.5891 14.2389C7.59132 14.2769 7.59234 14.2976 7.59234 14.2976C7.59234 14.2976 7.63036 14.9305 7.8298 15.5518C8.06706 16.2911 8.36277 16.8415 8.76549 17.0094C9.03976 17.1239 9.82254 17.1855 9.95118 17.1855C10.0794 17.1855 10.8622 17.1239 11.1365 17.0094C11.5394 16.8415 11.8351 16.2911 12.0724 15.5518C12.2718 14.9305 12.3094 14.2976 12.3094 14.2976C12.3094 14.2976 12.3145 14.2157 12.3226 14.0749C12.3226 14.0445 12.3228 14.0126 12.3234 13.9798C12.3268 13.9539 12.3301 13.9256 12.3331 13.8947C12.3531 13.5623 12.3841 13.0593 12.4217 12.5219C12.4591 11.9842 12.5024 11.4122 12.5469 10.9411C12.5784 10.6076 12.6365 10.2146 12.719 9.78397L12.7196 9.78175C12.8082 9.32159 12.9247 8.81895 13.0673 8.30013L13.0677 8.29933C13.0679 8.29791 13.0683 8.29649 13.0685 8.29548C13.1814 7.88609 13.3106 7.46638 13.4545 7.05052L13.4559 7.04709C13.4563 7.04527 13.4569 7.04345 13.4575 7.04183C13.6211 6.57014 13.804 6.1027 14.0048 5.65973C14.7492 4.0155 15.7172 3.63767 16.1768 3.51368C16.1679 3.38139 16.1592 3.25134 16.1505 3.1229C16.1272 3.00518 16.0463 2.89129 15.9136 2.78247C15.6832 2.59355 15.2965 2.42041 14.785 2.27195C14.2827 2.12611 13.6606 2.00374 12.9474 1.91333C12.0679 1.80147 11.0507 1.73837 9.95118 1.73837C8.85166 1.73837 7.83425 1.80147 6.95479 1.91333Z" fill="white"/>
</mask>
<g mask="url(#mask2_3486_22138)">
<mask id="mask3_3486_22138" style="mask-type:luminance" maskUnits="userSpaceOnUse" x="3" y="1" width="14" height="17">
<mask id="mask4_3486_22138" style="mask-type:luminance" maskUnits="userSpaceOnUse" x="-6661" y="-6517" width="13257" height="13257">
<path d="M-6660.38 -6516.49H6595.23V6739.12H-6660.38V-6516.49Z" fill="white"/>
</mask>
<g mask="url(#mask4_3486_22138)">
<path d="M16.1778 17.1875H3.72656V1.74012H16.1778V17.1875Z" fill="url(#paint8_radial_3486_22138)"/>
</g>
</mask>
<g mask="url(#mask3_3486_22138)">
<path d="M6.95576 1.91528C6.24257 2.00569 5.62039 2.12807 5.11837 2.2739C4.60643 2.42237 4.22009 2.5955 3.98931 2.78442C3.85702 2.89324 3.77612 3.00713 3.75265 3.12485C3.74416 3.25329 3.73546 3.38335 3.72656 3.51563C4.18571 3.63962 5.15417 4.01745 5.89831 5.66169C6.09916 6.10465 6.28201 6.5721 6.44585 7.04378C6.44646 7.0454 6.44686 7.04722 6.44747 7.04904L6.44868 7.05248C6.59249 7.46834 6.72174 7.88804 6.83461 8.29743C6.83461 8.29844 6.83521 8.29986 6.83542 8.30128L6.83582 8.30209C6.97842 8.8207 7.09492 9.32334 7.18372 9.78329C7.18372 9.7841 7.18392 9.78511 7.18392 9.78592C7.26645 10.2165 7.3247 10.6096 7.35605 10.9431C7.44485 11.8847 7.5298 13.2318 7.56985 13.8966C7.57349 13.9219 7.57693 13.9452 7.58017 13.9666C7.58057 14.0048 7.58077 14.0416 7.58077 14.0768C7.58461 14.1472 7.58785 14.203 7.59008 14.2409C7.5923 14.2789 7.59331 14.2995 7.59331 14.2995C7.59331 14.2995 7.63134 14.9324 7.83078 15.5538C8.06804 16.2931 8.36375 16.8434 8.76646 17.0113C9.04074 17.1258 9.82352 17.1875 9.95216 17.1875C10.0804 17.1875 10.8632 17.1258 11.1374 17.0113C11.5404 16.8434 11.8361 16.2931 12.0733 15.5538C12.2728 14.9324 12.3104 14.2995 12.3104 14.2995C12.3104 14.2995 12.3155 14.2176 12.3235 14.0768C12.3235 14.0465 12.3237 14.0145 12.3244 13.9818C12.3278 13.9559 12.331 13.9276 12.3341 13.8966C12.3541 13.5643 12.385 13.0612 12.4227 12.5238C12.4601 11.9862 12.5034 11.4142 12.5479 10.9431C12.5794 10.6096 12.6375 10.2165 12.72 9.78592L12.7206 9.7837C12.8092 9.32354 12.9257 8.8209 13.0683 8.30209L13.0687 8.30128C13.0689 8.29986 13.0693 8.29844 13.0695 8.29743C13.1824 7.88804 13.3116 7.46834 13.4554 7.05248L13.4569 7.04904C13.4573 7.04722 13.4579 7.0454 13.4585 7.04378C13.6221 6.5721 13.805 6.10465 14.0058 5.66169C14.7501 4.01745 15.7182 3.63962 16.1778 3.51563C16.1689 3.38335 16.1602 3.25329 16.1515 3.12485C16.1282 3.00713 16.0473 2.89324 15.9146 2.78442C15.6842 2.5955 15.2975 2.42237 14.786 2.2739C14.2837 2.12807 13.6615 2.00569 12.9483 1.91528C12.0689 1.80343 11.0517 1.74032 9.95216 1.74032C8.85263 1.74032 7.83522 1.80343 6.95576 1.91528Z" fill="url(#paint9_radial_3486_22138)"/>
</g>
</g>
</g>
</g>
<mask id="mask5_3486_22138" style="mask-type:luminance" maskUnits="userSpaceOnUse" x="9" y="12" width="2" height="6">
<path d="M9.12305 12.9102H10.7784V17.1758H9.12305V12.9102Z" fill="white"/>
</mask>
<g mask="url(#mask5_3486_22138)">
<g opacity="0.199997">
<mask id="mask6_3486_22138" style="mask-type:luminance" maskUnits="userSpaceOnUse" x="9" y="12" width="2" height="6">
<path d="M9.12305 15.4994C9.12305 16.2182 9.32087 17.1758 9.95073 17.1758C10.5804 17.1758 10.7784 16.2182 10.7784 15.4994C10.7784 13.9953 9.99685 12.9102 9.95073 12.9102C9.90421 12.9102 9.12305 13.9953 9.12305 15.4994Z" fill="white"/>
</mask>
<g mask="url(#mask6_3486_22138)">
<mask id="mask7_3486_22138" style="mask-type:luminance" maskUnits="userSpaceOnUse" x="9" y="12" width="2" height="6">
<mask id="mask8_3486_22138" style="mask-type:luminance" maskUnits="userSpaceOnUse" x="-6661" y="-6517" width="13257" height="13257">
<path d="M-6660.38 -6516.49H6595.22V6739.12H-6660.38V-6516.49Z" fill="white"/>
</mask>
<g mask="url(#mask8_3486_22138)">
<path d="M10.7893 12.9118L10.7786 17.1816L9.1123 17.1774L9.12323 12.9075L10.7893 12.9118Z" fill="url(#paint10_radial_3486_22138)"/>
</g>
</mask>
<g mask="url(#mask7_3486_22138)">
<path d="M9.12305 15.4994C9.12305 16.2182 9.32087 17.1758 9.95073 17.1758C10.5804 17.1758 10.7784 16.2182 10.7784 15.4994C10.7784 13.9953 9.99685 12.9102 9.95073 12.9102C9.90421 12.9102 9.12305 13.9953 9.12305 15.4994Z" fill="url(#paint11_radial_3486_22138)"/>
</g>
</g>
</g>
</g>
</g>
<mask id="mask9_3486_22138" style="mask-type:luminance" maskUnits="userSpaceOnUse" x="9" y="12" width="2" height="6">
<path d="M9.12305 15.4992C9.12305 16.2182 9.32107 17.1758 9.95073 17.1758C10.5804 17.1758 10.7784 16.2182 10.7784 15.4992C10.7784 13.9953 9.99705 12.9102 9.95073 12.9102C9.90421 12.9102 9.12305 13.9953 9.12305 15.4992Z" fill="white"/>
</mask>
<g mask="url(#mask9_3486_22138)">
<mask id="mask10_3486_22138" style="mask-type:luminance" maskUnits="userSpaceOnUse" x="9" y="12" width="2" height="6">
<mask id="mask11_3486_22138" style="mask-type:luminance" maskUnits="userSpaceOnUse" x="-6661" y="-6517" width="13257" height="13257">
<path d="M-6660.38 -6516.49H6595.22V6739.12H-6660.38V-6516.49Z" fill="white"/>
</mask>
<g mask="url(#mask11_3486_22138)">
<path d="M10.7784 17.1758H9.12305V12.9102H10.7784V17.1758Z" fill="url(#paint12_linear_3486_22138)"/>
</g>
</mask>
<g mask="url(#mask10_3486_22138)">
<path d="M9.12305 15.4992C9.12305 16.2182 9.32107 17.1758 9.95073 17.1758C10.5804 17.1758 10.7784 16.2182 10.7784 15.4992C10.7784 13.9953 9.99705 12.9102 9.95073 12.9102C9.90421 12.9102 9.12305 13.9953 9.12305 15.4992Z" fill="url(#paint13_linear_3486_22138)"/>
</g>
</g>
<mask id="mask12_3486_22138" style="mask-type:luminance" maskUnits="userSpaceOnUse" x="-33" y="-10" width="86" height="122">
<path d="M-32.4775 111.209H52.3794V-9.19589H-32.4775V111.209Z" fill="white"/>
</mask>
<g mask="url(#mask12_3486_22138)">
<mask id="mask13_3486_22138" style="mask-type:luminance" maskUnits="userSpaceOnUse" x="8" y="9" width="4" height="9">
<path d="M8.1709 9.5509H11.7312V17.1758H8.1709V9.5509Z" fill="white"/>
</mask>
<g mask="url(#mask13_3486_22138)">
<g opacity="0.199997">
<mask id="mask14_3486_22138" style="mask-type:luminance" maskUnits="userSpaceOnUse" x="8" y="9" width="4" height="9">
<path d="M8.86023 12.3513C8.53437 13.3823 8.1709 14.304 8.1709 15.2089C8.1709 16.2116 8.82766 17.1758 9.95106 17.1758C11.0745 17.1758 11.7312 16.2116 11.7312 15.2089C11.7312 14.304 11.3677 13.3823 11.0419 12.3513C10.5449 10.7793 10.031 9.5509 9.95106 9.5509C9.87116 9.5509 9.357 10.7793 8.86023 12.3513ZM8.98705 16.3629C8.80076 16.0789 8.72309 15.6108 8.7326 15.0807C8.75404 13.8651 9.89766 12.8541 9.94924 12.8197C9.95227 12.822 9.95975 12.8276 9.97007 12.8367C9.97068 12.8371 9.97088 12.8373 9.97108 12.8375C10.1394 12.9814 11.1459 13.9409 11.1659 15.0807C11.1752 15.6034 11.1001 16.0657 10.9189 16.3509C10.7646 16.7925 10.4755 17.1758 9.95106 17.1758C9.43103 17.1758 9.1428 16.7996 8.98705 16.3629Z" fill="white"/>
</mask>
<g mask="url(#mask14_3486_22138)">
<mask id="mask15_3486_22138" style="mask-type:luminance" maskUnits="userSpaceOnUse" x="8" y="9" width="4" height="9">
<mask id="mask16_3486_22138" style="mask-type:luminance" maskUnits="userSpaceOnUse" x="-6661" y="-6517" width="13257" height="13257">
<path d="M-6660.38 -6516.49H6595.23V6739.12H-6660.38V-6516.49Z" fill="white"/>
</mask>
<g mask="url(#mask16_3486_22138)">
<path d="M11.7461 9.55184L11.7313 17.1836L8.15625 17.1767L8.17102 9.54496L11.7461 9.55184Z" fill="url(#paint14_radial_3486_22138)"/>
</g>
</mask>
<g mask="url(#mask15_3486_22138)">
<path d="M8.86023 12.3513C8.53437 13.3823 8.1709 14.304 8.1709 15.2089C8.1709 16.2116 8.82766 17.1758 9.95106 17.1758C11.0745 17.1758 11.7312 16.2116 11.7312 15.2089C11.7312 14.304 11.3677 13.3823 11.0419 12.3513C10.5449 10.7793 10.031 9.5509 9.95106 9.5509C9.87116 9.5509 9.357 10.7793 8.86023 12.3513ZM8.98705 16.3629C8.80076 16.0789 8.72309 15.6108 8.7326 15.0807C8.75404 13.8651 9.89766 12.8541 9.94924 12.8197C9.95227 12.822 9.95975 12.8276 9.97007 12.8367C9.97068 12.8371 9.97088 12.8373 9.97108 12.8375C10.1394 12.9814 11.1459 13.9409 11.1659 15.0807C11.1752 15.6034 11.1001 16.0657 10.9189 16.3509C10.7646 16.7925 10.4755 17.1758 9.95106 17.1758C9.43103 17.1758 9.1428 16.7996 8.98705 16.3629Z" fill="url(#paint15_radial_3486_22138)"/>
</g>
</g>
</g>
</g>
</g>
<path d="M2.66113 2.42886L2.69006 3.12305C2.69006 2.21203 5.95223 1.47376 9.95106 1.47376C13.9499 1.47376 17.2117 2.21203 17.2117 3.12305L17.2408 2.42886C17.2408 1.51461 13.9659 0.773105 9.95106 0.773105C5.93585 0.773105 2.66113 1.51461 2.66113 2.42886Z" fill="url(#paint16_linear_3486_22138)"/>
<mask id="mask17_3486_22138" style="mask-type:luminance" maskUnits="userSpaceOnUse" x="-33" y="-10" width="86" height="122">
<path d="M-32.4775 111.209H52.3794V-9.19589H-32.4775V111.209Z" fill="white"/>
</mask>
<g mask="url(#mask17_3486_22138)">
<mask id="mask18_3486_22138" style="mask-type:luminance" maskUnits="userSpaceOnUse" x="2" y="0" width="16" height="4">
<path d="M2.66113 0.773105H17.241V3.12305H2.66113V0.773105Z" fill="white"/>
</mask>
<g mask="url(#mask18_3486_22138)">
<g opacity="0.600006">
<mask id="mask19_3486_22138" style="mask-type:luminance" maskUnits="userSpaceOnUse" x="2" y="0" width="16" height="4">
<path d="M2.66113 2.42886L2.69006 3.12305C2.69006 2.21203 5.95223 1.47376 9.95106 1.47376C13.9499 1.47376 17.2121 2.21203 17.2121 3.12305L17.2408 2.42886C17.2408 1.51461 13.9659 0.773105 9.95106 0.773105C5.93605 0.773105 2.66113 1.51461 2.66113 2.42886Z" fill="white"/>
</mask>
<g mask="url(#mask19_3486_22138)">
<mask id="mask20_3486_22138" style="mask-type:luminance" maskUnits="userSpaceOnUse" x="2" y="0" width="16" height="4">
<mask id="mask21_3486_22138" style="mask-type:luminance" maskUnits="userSpaceOnUse" x="-6661" y="-6517" width="13257" height="13257">
<path d="M-6660.38 -6516.49H6595.23V6739.12H-6660.38V-6516.49Z" fill="white"/>
</mask>
<g mask="url(#mask21_3486_22138)">
<path d="M2.66211 0.775058H17.242V3.125H2.66211V0.775058Z" fill="url(#paint17_linear_3486_22138)"/>
</g>
</mask>
<g mask="url(#mask20_3486_22138)">
<path d="M2.66211 2.43082L2.69103 3.125C2.69103 2.21399 5.95321 1.47571 9.95204 1.47571C13.9509 1.47571 17.213 2.21399 17.213 3.125L17.2418 2.43082C17.2418 1.51657 13.9668 0.775058 9.95204 0.775058C5.93702 0.775058 2.66211 1.51657 2.66211 2.43082Z" fill="url(#paint18_linear_3486_22138)"/>
</g>
</g>
</g>
</g>
</g>
<path d="M2.68945 3.12305H3.75095C3.90387 2.3522 6.5289 1.73832 9.95046 1.73832C13.3716 1.73832 15.9968 2.3522 16.1498 3.12305H17.2111C17.2111 2.21203 13.9493 1.47376 9.95046 1.47376C5.95163 1.47376 2.68945 2.21203 2.68945 3.12305Z" fill="url(#paint19_linear_3486_22138)"/>
<path d="M2.68999 3.12358C2.57996 5.34792 2.98106 7.58379 3.62346 9.23551C4.39329 11.2145 5.44083 12.9722 6.37147 14.0636C7.21674 15.0552 7.7659 15.647 7.9172 15.8086C7.88726 15.7259 7.85813 15.6403 7.82961 15.5523C7.63018 14.931 7.59256 14.2981 7.59256 14.2981C7.59256 14.2981 7.5877 14.2161 7.57961 14.0754C7.57961 14.0578 7.57961 14.0396 7.57981 14.0218C7.04724 13.4898 4.78184 11.136 4.1271 8.95496C3.47216 6.77249 3.64207 4.77712 3.75149 3.12358H2.68999Z" fill="url(#paint20_radial_3486_22138)"/>
<path d="M16.1501 3.12358C16.2597 4.77712 16.4294 6.77249 15.7747 8.95496C15.1197 11.136 12.8545 13.4898 12.3218 14.0218C12.3222 14.0396 12.3222 14.0578 12.3222 14.0754C12.3141 14.2161 12.309 14.2981 12.309 14.2981C12.309 14.2981 12.2714 14.931 12.0722 15.5523C12.0436 15.6403 12.0141 15.7259 11.9844 15.8086C12.1359 15.647 12.6848 15.0552 13.5303 14.0636C14.4607 12.9722 15.5085 11.2145 16.2783 9.23551C16.9207 7.58379 17.3216 5.34792 17.2114 3.12358H16.1501Z" fill="url(#paint21_radial_3486_22138)"/>
<mask id="mask22_3486_22138" style="mask-type:luminance" maskUnits="userSpaceOnUse" x="2" y="3" width="6" height="13">
<path d="M2.68999 3.12358C2.57996 5.34792 2.98106 7.58379 3.62346 9.23551C4.39329 11.2145 5.44083 12.9722 6.37147 14.0636C7.21654 15.0549 7.7659 15.647 7.9172 15.8086C7.88726 15.7261 7.85813 15.6403 7.82961 15.5523C7.63018 14.931 7.59256 14.2981 7.59256 14.2981C7.59256 14.2981 7.5877 14.2161 7.57961 14.0754C7.57961 14.0578 7.57961 14.0396 7.57981 14.0218C7.04724 13.4898 4.78184 11.136 4.1271 8.95496C3.47216 6.77249 3.64207 4.77712 3.75149 3.12358H2.68999Z" fill="white"/>
</mask>
<g mask="url(#mask22_3486_22138)">
<mask id="mask23_3486_22138" style="mask-type:luminance" maskUnits="userSpaceOnUse" x="-3" y="0" width="17" height="19">
<mask id="mask24_3486_22138" style="mask-type:luminance" maskUnits="userSpaceOnUse" x="-6661" y="-6517" width="13257" height="13257">
<path d="M-6660.38 -6516.49H6595.23V6739.12H-6660.38V-6516.49Z" fill="white"/>
</mask>
<g mask="url(#mask24_3486_22138)">
<path d="M-2.9375 12.5942L3.93312 0.802587L13.4355 6.33947L6.56483 18.1309L-2.9375 12.5942Z" fill="url(#paint22_linear_3486_22138)"/>
</g>
</mask>
<g mask="url(#mask23_3486_22138)">
<path d="M2.68999 3.12358C2.57996 5.34792 2.98106 7.58379 3.62346 9.23551C4.39329 11.2145 5.44083 12.9722 6.37147 14.0636C7.21654 15.0549 7.7659 15.647 7.9172 15.8086C7.88726 15.7261 7.85813 15.6403 7.82961 15.5523C7.63018 14.931 7.59256 14.2981 7.59256 14.2981C7.59256 14.2981 7.5877 14.2161 7.57961 14.0754C7.57961 14.0578 7.57961 14.0396 7.57981 14.0218C7.04724 13.4898 4.78184 11.136 4.1271 8.95496C3.47216 6.77249 3.64207 4.77712 3.75149 3.12358H2.68999Z" fill="url(#paint23_linear_3486_22138)"/>
</g>
</g>
<path d="M9.95151 18.639H7.12381C7.05403 18.639 6.99638 18.7632 6.99638 18.7632L6.10478 20.5377H6.00466C5.96279 20.5377 5.95996 20.5731 5.95996 20.5731V20.7656H5.96198H9.95131H13.9422V20.5731C13.9422 20.5731 13.94 20.5377 13.898 20.5377H13.7978L12.9064 18.7632C12.9064 18.7632 12.8484 18.639 12.779 18.639H9.95151Z" fill="url(#paint24_linear_3486_22138)"/>
<mask id="mask25_3486_22138" style="mask-type:luminance" maskUnits="userSpaceOnUse" x="5" y="18" width="5" height="3">
<path d="M9.95151 18.639H7.12401C7.05443 18.639 6.99658 18.7632 6.99658 18.7632L6.10499 20.5377H6.00486C5.96299 20.5377 5.95996 20.5731 5.95996 20.5731V20.7656H9.95151H9.95171V18.639H9.95151Z" fill="white"/>
</mask>
<g mask="url(#mask25_3486_22138)">
<mask id="mask26_3486_22138" style="mask-type:luminance" maskUnits="userSpaceOnUse" x="5" y="17" width="6" height="6">
<mask id="mask27_3486_22138" style="mask-type:luminance" maskUnits="userSpaceOnUse" x="-6661" y="-6517" width="13257" height="13257">
<path d="M-6660.38 -6516.49H6595.23V6739.12H-6660.38V-6516.49Z" fill="white"/>
</mask>
<g mask="url(#mask27_3486_22138)">
<path d="M6.75128 17.05L10.7997 19.0628L9.16049 22.3594L5.1123 20.3466L6.75128 17.05Z" fill="url(#paint25_linear_3486_22138)"/>
</g>
</mask>
<g mask="url(#mask26_3486_22138)">
<path d="M9.95151 18.6409H7.12401C7.05443 18.6409 6.99658 18.7651 6.99658 18.7651L6.10499 20.5396H6.00486C5.96299 20.5396 5.95996 20.575 5.95996 20.575V20.7676H9.95151H9.95171V18.6409H9.95151Z" fill="url(#paint26_linear_3486_22138)"/>
</g>
</g>
<mask id="mask28_3486_22138" style="mask-type:luminance" maskUnits="userSpaceOnUse" x="9" y="18" width="5" height="3">
<path d="M9.95137 18.639L9.95117 20.7656H13.9421H13.9423V20.5731C13.9423 20.5731 13.9399 20.5377 13.8978 20.5377H13.7977L12.9061 18.7632C12.9061 18.7632 12.8478 18.639 12.7787 18.639H9.95137Z" fill="white"/>
</mask>
<g mask="url(#mask28_3486_22138)">
<mask id="mask29_3486_22138" style="mask-type:luminance" maskUnits="userSpaceOnUse" x="9" y="17" width="6" height="6">
<mask id="mask30_3486_22138" style="mask-type:luminance" maskUnits="userSpaceOnUse" x="-6661" y="-6517" width="13257" height="13257">
<path d="M-6660.38 -6516.49H6595.22V6739.12H-6660.38V-6516.49Z" fill="white"/>
</mask>
<g mask="url(#mask30_3486_22138)">
<path d="M13.1515 17.0485L9.10352 19.0611L10.7425 22.3574L14.7905 20.3449L13.1515 17.0485Z" fill="url(#paint27_linear_3486_22138)"/>
</g>
</mask>
<g mask="url(#mask29_3486_22138)">
<path d="M9.95137 18.6409L9.95117 20.7676H13.9421H13.9423V20.575C13.9423 20.575 13.9399 20.5396 13.8978 20.5396H13.7977L12.9061 18.7651C12.9061 18.7651 12.8478 18.6409 12.7787 18.6409H9.95137Z" fill="url(#paint28_linear_3486_22138)"/>
</g>
</g>
<path d="M11.1366 17.0086C10.8622 17.1231 10.0794 17.1848 9.95114 17.1848C9.8225 17.1848 9.03972 17.1231 8.76544 17.0086C8.73167 16.9948 8.69829 16.9776 8.66593 16.9582L8.09473 18.0195H11.8076L11.2366 16.9582C11.204 16.9776 11.1708 16.9948 11.1366 17.0086Z" fill="url(#paint29_linear_3486_22138)"/>
<path d="M7.72824 7.80192C7.57634 8.51755 7.51506 9.63588 7.58099 10.1543H7.5816C7.60911 9.47346 7.68981 9.05639 7.90402 7.99104C8.54925 4.78935 9.88583 2.55025 9.95117 2.55025C10.0163 2.55025 11.3531 4.78935 11.9979 7.99104C12.2125 9.05639 12.293 9.47346 12.3203 10.1543H12.3211C12.3871 9.63588 12.3258 8.51755 12.1741 7.80192C11.4738 4.49788 10.022 2.18758 9.95117 2.18758C9.88017 2.18758 8.42829 4.49788 7.72824 7.80192Z" fill="url(#paint30_linear_3486_22138)"/>
<path d="M8.42371 9.64031C7.9941 11.2168 7.56934 12.5075 7.56934 13.894C7.57298 13.9614 7.57662 14.022 7.58005 14.0742C7.58005 12.7544 8.01473 11.5034 8.44435 10.003C9.08918 7.75093 9.88611 6.07918 9.95144 6.07918C10.0166 6.07918 10.8137 7.75093 11.4585 10.003C11.8882 11.5034 12.3228 12.7542 12.3228 14.074C12.3261 14.0218 12.3295 13.9614 12.3333 13.894C12.3333 12.5075 11.9086 11.2168 11.479 9.64031C10.8341 7.27439 10.0166 5.5179 9.95144 5.5179C9.88611 5.5179 9.06854 7.27439 8.42371 9.64031Z" fill="url(#paint31_linear_3486_22138)"/>
<path d="M3.54077 3.12346C3.43296 4.74787 3.34417 6.65444 3.96452 8.72182C4.17488 9.42227 4.47363 9.99934 4.80272 10.4785C4.51853 9.9777 4.27945 9.46151 4.12714 8.95483C3.4724 6.77236 3.6421 4.77699 3.75153 3.12346H3.54077Z" fill="url(#paint32_linear_3486_22138)"/>
<path d="M2.69824 4.7664C2.79331 6.41772 3.1402 7.99217 3.62382 9.23551C4.39365 11.2145 5.44119 12.9722 6.37183 14.0636C7.21731 15.0552 7.76626 15.647 7.91776 15.8086C7.88782 15.7259 7.85849 15.6403 7.82998 15.5523C7.80995 15.4896 7.79134 15.4269 7.77476 15.3648C7.48976 15.0539 7.07936 14.5972 6.56398 14.0015C5.58561 12.8705 4.48002 11.0452 3.66266 8.98773C3.19218 7.80305 2.83983 6.32852 2.69824 4.7664Z" fill="url(#paint33_linear_3486_22138)"/>
<path d="M16.2393 8.98773C15.4217 11.0452 14.3163 12.8705 13.3382 14.0015C12.8228 14.5972 12.4124 15.0539 12.1274 15.3648C12.1104 15.4269 12.0922 15.4896 12.0722 15.5523C12.0436 15.6403 12.0141 15.7259 11.9844 15.8086C12.1359 15.647 12.6848 15.0552 13.5303 14.0636C14.4607 12.9722 15.5085 11.2145 16.2783 9.23551C16.7617 7.99217 17.1086 6.41772 17.2037 4.7664C17.0621 6.32852 16.7098 7.80305 16.2393 8.98773Z" fill="url(#paint34_linear_3486_22138)"/>
<path d="M3.72559 3.51247C4.18494 3.63646 5.15319 4.0147 5.89733 5.65852C6.09819 6.10169 6.28144 6.56892 6.44507 7.04102C6.42404 6.97366 6.40462 6.90874 6.38581 6.84543C6.38561 6.84381 6.385 6.84198 6.3844 6.84037C6.2507 6.42713 6.10304 6.01937 5.94163 5.62839C5.24664 3.94208 4.22943 3.5068 3.73651 3.34903C3.73307 3.40323 3.72943 3.45765 3.72559 3.51247Z" fill="url(#paint35_linear_3486_22138)"/>
<path d="M3.98828 2.78225C4.35277 2.90401 5.27491 3.34516 5.82993 4.79481C6.07387 5.43216 6.10319 5.93621 6.44644 7.04666L6.44765 7.0503C6.59187 7.46697 6.72071 7.88668 6.83398 8.29688C6.76117 7.97689 6.71849 7.67328 6.69219 7.3806C6.65032 7.25115 6.60704 7.1213 6.56234 6.99225L6.56052 6.98861C6.2017 5.82598 6.17095 5.29846 5.91569 4.63158C5.4347 3.3753 4.61086 2.88703 4.12542 2.68335C4.07506 2.71591 4.02954 2.74887 3.98828 2.78225Z" fill="url(#paint36_linear_3486_22138)"/>
<path d="M5.11719 2.27145C5.2879 2.37582 5.97197 2.85398 6.35325 4.01823C6.84658 5.52391 6.47117 6.70294 6.83424 8.29883L6.83485 8.29984C6.97724 8.81845 7.09375 9.32109 7.18254 9.78125C7.14472 9.43396 7.11377 9.09799 7.09071 8.77861C7.0446 8.5909 6.99524 8.40016 6.94205 8.2072L6.94164 8.20598C6.65139 6.58926 6.95459 5.25814 6.43051 3.65861C6.19042 2.92499 5.83767 2.44804 5.55186 2.15799C5.39854 2.19399 5.25331 2.23161 5.11719 2.27145Z" fill="url(#paint37_linear_3486_22138)"/>
<path d="M6.9541 1.9132C7.00204 1.98501 7.23748 2.35577 7.33437 2.84991C7.54897 3.94479 7.31353 4.85115 7.09407 6.45331C6.99314 7.19058 7.03117 8.39386 7.18226 9.78385C7.26479 10.2143 7.32304 10.6075 7.35439 10.941C7.44319 11.8828 7.52814 13.2297 7.56839 13.8945C7.53744 13.2293 7.53239 11.849 7.45613 10.9062C7.42923 10.5723 7.37644 10.1785 7.29937 9.74683H7.29897C7.16689 8.35543 7.14484 7.15154 7.25528 6.41508C7.49618 4.81615 7.74396 3.91302 7.54391 2.81552C7.45734 2.34282 7.24375 1.98076 7.18368 1.8859C7.10601 1.89439 7.02955 1.9035 6.9541 1.9132Z" fill="url(#paint38_linear_3486_22138)"/>
<path d="M13.9603 5.62839C13.7991 6.01937 13.6512 6.42713 13.5175 6.84037C13.5171 6.84198 13.5165 6.84381 13.5161 6.84543C13.4975 6.90874 13.4779 6.97366 13.457 7.04102C13.6207 6.56892 13.8037 6.10169 14.0046 5.65852C14.7489 4.0147 15.717 3.63646 16.1763 3.51247C16.1727 3.45765 16.169 3.40323 16.1656 3.34903C15.6725 3.5068 14.6553 3.94208 13.9603 5.62839Z" fill="url(#paint39_linear_3486_22138)"/>
<path d="M13.9865 4.63158C13.7312 5.29846 13.7006 5.82598 13.3416 6.98861L13.3398 6.99225C13.2953 7.1213 13.252 7.25115 13.2101 7.3806C13.1839 7.67328 13.141 7.97689 13.0684 8.29688C13.1812 7.88668 13.3105 7.46697 13.4545 7.0503L13.4559 7.04666C13.7992 5.93621 13.8283 5.43216 14.0724 4.79481C14.6274 3.34516 15.5494 2.90401 15.9139 2.78225C15.8728 2.74887 15.8273 2.71591 15.7769 2.68335C15.2913 2.88703 14.4676 3.3753 13.9865 4.63158Z" fill="url(#paint40_linear_3486_22138)"/>
<path d="M13.4718 3.65861C12.9475 5.25814 13.2507 6.58926 12.9606 8.20598L12.9602 8.2072C12.907 8.40016 12.8575 8.5909 12.8116 8.77861C12.7883 9.09799 12.7573 9.43396 12.7197 9.78125C12.8083 9.32109 12.9248 8.81845 13.0674 8.29984L13.0678 8.29883C13.4309 6.70294 13.0557 5.52391 13.549 4.01823C13.9301 2.85398 14.614 2.37582 14.7851 2.27145C14.6488 2.23161 14.5035 2.19399 14.3502 2.15799C14.0644 2.44804 13.7116 2.92499 13.4718 3.65861Z" fill="url(#paint41_linear_3486_22138)"/>
<path d="M12.3574 2.81552C12.1574 3.91302 12.405 4.81615 12.6459 6.41508C12.7565 7.15154 12.7345 8.35543 12.602 9.74683H12.6018C12.5249 10.1785 12.4719 10.5723 12.445 10.9062C12.369 11.849 12.3637 13.2293 12.3328 13.8945C12.3728 13.2297 12.4582 11.8828 12.5468 10.941C12.5783 10.6075 12.6364 10.2143 12.7187 9.78385H12.7191C12.8698 8.39386 12.9078 7.19058 12.8071 6.45331C12.5876 4.85115 12.3524 3.94479 12.5668 2.84991C12.6637 2.35577 12.8989 1.98501 12.947 1.9132C12.8716 1.9035 12.7951 1.89439 12.7177 1.8859C12.6576 1.98076 12.4436 2.34282 12.3574 2.81552Z" fill="url(#paint42_linear_3486_22138)"/>
<path d="M7.90406 7.99102C7.6405 9.29908 7.57881 9.62979 7.57031 10.6719C7.61279 10.0726 7.72707 9.38828 7.9441 8.31161C8.37635 6.16596 8.93501 4.58847 9.30435 3.71892C8.85208 4.68333 8.26773 6.18376 7.90406 7.99102Z" fill="url(#paint43_linear_3486_22138)"/>
<path d="M8.44319 10.0037C8.01378 11.5044 7.5791 12.755 7.5791 14.075C7.58719 14.2158 7.59185 14.2977 7.59185 14.2977C7.59185 14.2977 7.60782 14.5675 7.67457 14.9277C7.63655 13.4787 8.09711 12.093 8.52572 10.4329C9.03543 8.4576 9.55849 6.87789 9.81193 6.3083C9.54353 6.83905 8.94704 8.24461 8.44319 10.0037Z" fill="url(#paint44_linear_3486_22138)"/>
<path d="M10.5977 3.71892C10.9672 4.58847 11.5259 6.16596 11.9581 8.31161C12.1749 9.38828 12.2894 10.0726 12.3315 10.6719C12.3234 9.62979 12.2617 9.29908 11.9982 7.99102C11.6343 6.18376 11.0497 4.68333 10.5977 3.71892Z" fill="url(#paint45_linear_3486_22138)"/>
<path d="M10.0898 6.3083C10.3433 6.87789 10.8659 8.4576 11.3761 10.4329C11.8047 12.093 12.2652 13.4787 12.227 14.9277C12.2938 14.5675 12.3099 14.2977 12.3099 14.2977C12.3099 14.2977 12.3146 14.2158 12.3227 14.075C12.3227 12.755 11.888 11.5044 11.4584 10.0037C10.9545 8.24461 10.3581 6.83905 10.0898 6.3083Z" fill="url(#paint46_linear_3486_22138)"/>
<path d="M11.1369 17.0086C10.8622 17.1231 10.08 17.1848 9.95117 17.1848V18.0195H11.8078L11.2366 16.9582C11.204 16.9776 11.1708 16.9948 11.1369 17.0086Z" fill="url(#paint47_linear_3486_22138)"/>
<mask id="mask31_3486_22138" style="mask-type:luminance" maskUnits="userSpaceOnUse" x="11" y="3" width="7" height="13">
<path d="M16.1501 3.12358C16.2597 4.77712 16.4294 6.77249 15.7747 8.95496C15.1197 11.136 12.8545 13.4898 12.3218 14.0218C12.3222 14.0396 12.3222 14.0578 12.3222 14.0754C12.3141 14.2161 12.309 14.2981 12.309 14.2981C12.309 14.2981 12.2714 14.931 12.0722 15.5523C12.0436 15.6403 12.0141 15.7259 11.9844 15.8086C12.1359 15.647 12.6848 15.0552 13.5303 14.0636C14.4607 12.9722 15.5085 11.2145 16.2783 9.23551C16.9207 7.58379 17.3216 5.34792 17.2114 3.12358H16.1501Z" fill="white"/>
</mask>
<g mask="url(#mask31_3486_22138)">
<mask id="mask32_3486_22138" style="mask-type:luminance" maskUnits="userSpaceOnUse" x="6" y="0" width="17" height="19">
<mask id="mask33_3486_22138" style="mask-type:luminance" maskUnits="userSpaceOnUse" x="-6661" y="-6517" width="13257" height="13257">
<path d="M-6660.38 -6516.49H6595.22V6739.12H-6660.38V-6516.49Z" fill="white"/>
</mask>
<g mask="url(#mask33_3486_22138)">
<path d="M22.8398 12.5942L15.9691 0.802587L6.4668 6.33947L13.3374 18.1309L22.8398 12.5942Z" fill="url(#paint48_linear_3486_22138)"/>
</g>
</mask>
<g mask="url(#mask32_3486_22138)">
<path d="M16.1501 3.12358C16.2597 4.77712 16.4294 6.77249 15.7747 8.95496C15.1197 11.136 12.8545 13.4898 12.3218 14.0218C12.3222 14.0396 12.3222 14.0578 12.3222 14.0754C12.3141 14.2161 12.309 14.2981 12.309 14.2981C12.309 14.2981 12.2714 14.931 12.0722 15.5523C12.0436 15.6403 12.0141 15.7259 11.9844 15.8086C12.1359 15.647 12.6848 15.0552 13.5303 14.0636C14.4607 12.9722 15.5085 11.2145 16.2783 9.23551C16.9207 7.58379 17.3216 5.34792 17.2114 3.12358H16.1501Z" fill="url(#paint49_linear_3486_22138)"/>
</g>
</g>
<path d="M16.1506 3.12346C16.2598 4.77699 16.4299 6.77236 15.7752 8.95483C15.6227 9.46151 15.3838 9.9777 15.0996 10.4785C15.4287 9.99934 15.7274 9.42227 15.9376 8.72182C16.5582 6.65444 16.4692 4.74787 16.3616 3.12346H16.1506Z" fill="url(#paint50_linear_3486_22138)"/>
<mask id="mask34_3486_22138" style="mask-type:luminance" maskUnits="userSpaceOnUse" x="-33" y="-10" width="86" height="122">
<path d="M-32.4775 111.209H52.3794V-9.19589H-32.4775V111.209Z" fill="white"/>
</mask>
<g mask="url(#mask34_3486_22138)">
<mask id="mask35_3486_22138" style="mask-type:luminance" maskUnits="userSpaceOnUse" x="5" y="20" width="9" height="1">
<path d="M5.95996 20.5375H13.9425V20.7656H5.95996V20.5375Z" fill="white"/>
</mask>
<g mask="url(#mask35_3486_22138)">
<g opacity="0.399994">
<path d="M6.00466 20.5377C5.96279 20.5377 5.95996 20.5731 5.95996 20.5731V20.7656H13.9425V20.5731C13.9425 20.5731 13.94 20.5377 13.898 20.5377H6.00466Z" fill="url(#paint51_linear_3486_22138)"/>
</g>
</g>
<mask id="mask36_3486_22138" style="mask-type:luminance" maskUnits="userSpaceOnUse" x="8" y="16" width="2" height="3">
<path d="M8.09473 16.958H9.95134V18.0195H8.09473V16.958Z" fill="white"/>
</mask>
<g mask="url(#mask36_3486_22138)">
<g opacity="0.800003">
<path d="M8.09473 18.0195H9.95134V17.1848C9.8227 17.1848 9.03992 17.1231 8.76585 17.0086C8.73187 16.9946 8.69849 16.9776 8.66613 16.9582L8.09473 18.0195Z" fill="url(#paint52_linear_3486_22138)"/>
</g>
</g>
</g>
<path d="M8.744 12.1393C8.40015 13.1929 8.09473 14.0717 8.09473 14.9983C8.09473 16.2479 8.744 17.1122 9.83018 17.1719C8.78082 17.1051 8.17118 16.1749 8.17118 15.2091C8.17118 14.3041 8.53466 13.3826 8.86051 12.3514C9.35688 10.7792 9.87145 9.55144 9.95134 9.55144C10.0312 9.55144 10.5452 10.7792 11.0422 12.3514C11.368 13.3826 11.7315 14.3041 11.7315 15.2091C11.7315 16.1749 11.1219 17.1051 10.0723 17.1719C11.1587 17.1122 11.8078 16.2479 11.8078 14.9983C11.8078 14.0717 11.5025 13.1929 11.1587 12.1393C10.6421 10.5583 10.0035 9.38397 9.95134 9.38397C9.89916 9.38397 9.26039 10.5583 8.744 12.1393Z" fill="url(#paint53_linear_3486_22138)"/>
<path d="M8.74323 12.139C8.39917 13.1927 8.09375 14.0715 8.09375 14.9981C8.09375 16.2479 8.74323 17.1122 9.82921 17.1719C8.77984 17.1051 8.17041 16.1747 8.17041 15.2093C8.17041 14.3039 8.53368 13.3824 8.85953 12.3512C9.2493 11.1174 9.65 10.0957 9.84296 9.71325C9.84296 9.71325 9.03005 11.2608 8.74323 12.139Z" fill="url(#paint54_linear_3486_22138)"/>
<path d="M10.0586 9.71325C10.2516 10.0957 10.6522 11.1174 11.0422 12.3512C11.3679 13.3824 11.7313 14.3039 11.7313 15.2093C11.7313 16.1747 11.1217 17.1051 10.0723 17.1719C11.1585 17.1122 11.808 16.2479 11.808 14.9981C11.808 14.0715 11.5026 13.1927 11.1585 12.139C10.8715 11.2608 10.0586 9.71325 10.0586 9.71325Z" fill="url(#paint55_linear_3486_22138)"/>
<path d="M8.81934 15.3086C8.81934 15.8813 8.98681 17.1758 9.95143 17.1758C9.32157 17.1758 9.12375 16.2184 9.12375 15.4994C9.12375 13.9955 9.90491 12.9104 9.95143 12.9104C9.99775 12.9104 10.7787 13.9955 10.7787 15.4994C10.7787 16.2184 10.5813 17.1758 9.95143 17.1758C10.9156 17.1758 11.0835 15.8813 11.0835 15.3086C11.0835 14.0034 9.96619 12.8193 9.95143 12.8193C9.93666 12.8193 8.81934 14.0034 8.81934 15.3086Z" fill="url(#paint56_linear_3486_22138)"/>
<path d="M8.73222 15.0807C8.72271 15.611 8.80038 16.0789 8.98667 16.3633C8.85378 15.9901 8.81859 15.5724 8.81859 15.3087C8.81859 14.0253 9.8987 12.8588 9.94886 12.82C9.89728 12.8543 8.75366 13.8653 8.73222 15.0807Z" fill="url(#paint57_linear_3486_22138)"/>
<path d="M9.94922 12.82C9.99918 12.8588 11.0797 14.0253 11.0797 15.3087C11.0797 15.5724 11.0441 15.9901 10.9112 16.3633C11.0979 16.0789 11.1752 15.611 11.1661 15.0807C11.1442 13.8653 10.0008 12.8543 9.94922 12.82Z" fill="url(#paint58_linear_3486_22138)"/>
<mask id="mask37_3486_22138" style="mask-type:luminance" maskUnits="userSpaceOnUse" x="7" y="2" width="6" height="12">
<path d="M7.90382 7.992C7.48957 10.0511 7.57432 9.68861 7.58059 13.4902C7.65199 12.2532 8.03569 11.0632 8.42324 9.64128C9.06807 7.27536 9.88564 5.51887 9.95097 5.51887C10.0161 5.51887 10.8337 7.27536 11.4785 9.64128C11.866 11.0632 12.2499 12.2532 12.3213 13.4902C12.3274 9.68861 12.4124 10.0511 11.9977 7.992C11.3529 4.7903 10.0161 2.5512 9.95097 2.5512C9.88564 2.5512 8.54905 4.7903 7.90382 7.992Z" fill="white"/>
</mask>
<g mask="url(#mask37_3486_22138)">
<mask id="mask38_3486_22138" style="mask-type:luminance" maskUnits="userSpaceOnUse" x="7" y="2" width="6" height="12">
<mask id="mask39_3486_22138" style="mask-type:luminance" maskUnits="userSpaceOnUse" x="-6661" y="-6517" width="13257" height="13257">
<path d="M-6660.38 -6516.49H6595.23V6739.12H-6660.38V-6516.49Z" fill="white"/>
</mask>
<g mask="url(#mask39_3486_22138)">
<path d="M12.413 13.4902H7.49023V2.5512H12.413V13.4902Z" fill="url(#paint59_linear_3486_22138)"/>
</g>
</mask>
<g mask="url(#mask38_3486_22138)">
<path d="M7.90479 7.992C7.49055 10.0511 7.5753 9.68861 7.58157 13.4902C7.65297 12.2532 8.03667 11.0632 8.42422 9.64128C9.06904 7.27536 9.88661 5.51887 9.95194 5.51887C10.0171 5.51887 10.8346 7.27536 11.4795 9.64128C11.867 11.0632 12.2509 12.2532 12.3223 13.4902C12.3284 9.68861 12.4133 10.0511 11.9987 7.992C11.3539 4.7903 10.0171 2.5512 9.95194 2.5512C9.88661 2.5512 8.55003 4.7903 7.90479 7.992Z" fill="url(#paint60_linear_3486_22138)"/>
</g>
</g>
<mask id="mask40_3486_22138" style="mask-type:luminance" maskUnits="userSpaceOnUse" x="7" y="6" width="6" height="12">
<path d="M7.67285 6.07984H12.2289V17.1855H7.67285V6.07984Z" fill="white"/>
</mask>
<g mask="url(#mask40_3486_22138)">
<g opacity="0.050003">
<mask id="mask41_3486_22138" style="mask-type:luminance" maskUnits="userSpaceOnUse" x="7" y="6" width="6" height="12">
<path d="M9.81226 6.3084V6.30861C9.81206 6.30902 9.81186 6.30942 9.81145 6.30982C9.55801 6.88022 9.03515 8.45871 8.52584 10.4328C8.09744 12.0929 7.63667 13.4788 7.6751 14.9278H7.67531C7.7107 15.1192 7.76046 15.3362 7.82943 15.5516C8.06669 16.2911 8.36241 16.8415 8.76512 17.0094C9.0394 17.1239 9.82217 17.1855 9.95082 17.1855C10.0791 17.1855 10.8618 17.1239 11.1361 17.0094C11.539 16.8415 11.8349 16.2911 12.072 15.5516C12.1412 15.3362 12.1907 15.1192 12.2263 14.9278C12.2275 14.8771 12.2286 14.8265 12.2288 14.7759V14.7416C12.2251 13.3593 11.7858 12.0215 11.3756 10.4328C10.8663 8.45871 10.3436 6.88022 10.09 6.30982C10.0898 6.30942 10.0896 6.30881 10.0894 6.3084C10.0143 6.15974 9.96498 6.07984 9.95082 6.07984C9.93666 6.07984 9.8873 6.15974 9.81226 6.3084ZM9.82966 17.172C9.82541 17.172 9.82116 17.1716 9.81732 17.1712C8.73883 17.1063 8.094 16.2436 8.094 14.9984C8.094 14.0718 8.39962 13.193 8.74348 12.1394C9.25987 10.5582 9.89843 9.38409 9.95082 9.38409C10.003 9.38409 10.6416 10.5582 11.1579 12.1394C11.502 13.193 11.8072 14.0718 11.8072 14.9984C11.8072 16.2436 11.1628 17.1063 10.0843 17.1712C10.0803 17.1716 10.0762 17.172 10.0718 17.172C10.0321 17.1746 9.99167 17.176 9.95082 17.176C9.90976 17.176 9.8693 17.1746 9.82966 17.172Z" fill="white"/>
</mask>
<g mask="url(#mask41_3486_22138)">
<mask id="mask42_3486_22138" style="mask-type:luminance" maskUnits="userSpaceOnUse" x="7" y="6" width="6" height="12">
<mask id="mask43_3486_22138" style="mask-type:luminance" maskUnits="userSpaceOnUse" x="-6661" y="-6517" width="13257" height="13257">
<path d="M-6660.38 -6516.49H6595.23V6739.12H-6660.38V-6516.49Z" fill="white"/>
</mask>
<g mask="url(#mask43_3486_22138)">
<path d="M12.265 6.03535L12.3799 17.1874L7.63812 17.2363L7.52344 6.0841L12.265 6.03535Z" fill="url(#paint61_radial_3486_22138)"/>
</g>
</mask>
<g mask="url(#mask42_3486_22138)">
<path d="M9.81324 6.31036V6.31057C9.81303 6.31097 9.81283 6.31137 9.81243 6.31178C9.55899 6.88217 9.03612 8.46067 8.52681 10.4348C8.09841 12.0948 7.63765 13.4807 7.67608 14.9298H7.67628C7.71168 15.1211 7.76144 15.3382 7.83041 15.5536C8.06767 16.2931 8.36338 16.8434 8.7661 17.0113C9.04037 17.1258 9.82315 17.1875 9.95179 17.1875C10.08 17.1875 10.8628 17.1258 11.1371 17.0113C11.54 16.8434 11.8359 16.2931 12.073 15.5536C12.1421 15.3382 12.1917 15.1211 12.2273 14.9298C12.2285 14.879 12.2295 14.8285 12.2297 14.7779V14.7435C12.2261 13.3612 11.7868 12.0234 11.3766 10.4348C10.8673 8.46067 10.3446 6.88217 10.091 6.31178C10.0907 6.31137 10.0905 6.31076 10.0903 6.31036C10.0153 6.16169 9.96595 6.08179 9.95179 6.08179C9.93763 6.08179 9.88828 6.16169 9.81324 6.31036ZM9.83063 17.174C9.82638 17.174 9.82214 17.1735 9.8183 17.1731C8.7398 17.1082 8.09497 16.2455 8.09497 15.0004C8.09497 14.0738 8.4006 13.1949 8.74446 12.1413C9.26084 10.5602 9.89941 9.38604 9.95179 9.38604C10.004 9.38604 10.6425 10.5602 11.1589 12.1413C11.503 13.1949 11.8082 14.0738 11.8082 15.0004C11.8082 16.2455 11.1638 17.1082 10.0853 17.1731C10.0812 17.1735 10.0772 17.174 10.0727 17.174C10.0331 17.1766 9.99265 17.178 9.95179 17.178C9.91073 17.178 9.87028 17.1766 9.83063 17.174Z" fill="url(#paint62_radial_3486_22138)"/>
</g>
</g>
</g>
</g>
</g>
<defs>
<linearGradient id="paint0_linear_3486_22138" x1="9.95088" y1="-1.09424" x2="9.95088" y2="21.7113" gradientUnits="userSpaceOnUse">
<stop stop-color="#5F4389"/>
<stop offset="0.275032" stop-color="#5F4389"/>
<stop offset="0.346211" stop-color="#9F7FDF"/>
<stop offset="0.403928" stop-color="#9F7FDF"/>
<stop offset="0.483801" stop-color="#A89CDB"/>
<stop offset="0.484933" stop-color="#A89CDB"/>
<stop offset="0.569172" stop-color="#9F7FDF"/>
<stop offset="0.574772" stop-color="#9F7FDF"/>
<stop offset="0.659586" stop-color="#5F4389"/>
<stop offset="0.665224" stop-color="#5F4389"/>
<stop offset="0.88858" stop-color="#230037"/>
<stop offset="1" stop-color="#230037"/>
</linearGradient>
<linearGradient id="paint1_linear_3486_22138" x1="16.4408" y1="1.82122" x2="13.3762" y2="7.10967" gradientUnits="userSpaceOnUse">
<stop stop-color="#D9DADB"/>
<stop offset="0.059566" stop-color="#D9DADB"/>
<stop offset="0.279368" stop-color="#9F7FDF"/>
<stop offset="0.282225" stop-color="#9F7FDF"/>
<stop offset="1" stop-color="#230037"/>
</linearGradient>
<linearGradient id="paint2_linear_3486_22138" x1="15.5999" y1="0.831543" x2="12.6236" y2="9.63358" gradientUnits="userSpaceOnUse">
<stop stop-color="#D9DADB"/>
<stop offset="0.07707" stop-color="#D9DADB"/>
<stop offset="0.274275" stop-color="#5F4389"/>
<stop offset="0.276839" stop-color="#5F4389"/>
<stop offset="0.380681" stop-color="#5F4389"/>
<stop offset="0.553575" stop-color="#9F7FDF"/>
<stop offset="0.638147" stop-color="#5F4389"/>
<stop offset="0.652052" stop-color="#5F4389"/>
<stop offset="1" stop-color="#230037"/>
</linearGradient>
<linearGradient id="paint3_linear_3486_22138" x1="13.9307" y1="0.0989957" x2="12.8085" y2="10.5871" gradientUnits="userSpaceOnUse">
<stop stop-color="#D9DADB"/>
<stop offset="0.052111" stop-color="#D9DADB"/>
<stop offset="0.273955" stop-color="#5F4389"/>
<stop offset="0.276839" stop-color="#5F4389"/>
<stop offset="0.380681" stop-color="#5F4389"/>
<stop offset="0.553575" stop-color="#9F7FDF"/>
<stop offset="0.638147" stop-color="#5F4389"/>
<stop offset="0.652052" stop-color="#5F4389"/>
<stop offset="1" stop-color="#230037"/>
</linearGradient>
<linearGradient id="paint4_linear_3486_22138" x1="3.46096" y1="1.82122" x2="6.52554" y2="7.10967" gradientUnits="userSpaceOnUse">
<stop stop-color="#D9DADB"/>
<stop offset="0.059566" stop-color="#D9DADB"/>
<stop offset="0.279368" stop-color="#9F7FDF"/>
<stop offset="0.282225" stop-color="#9F7FDF"/>
<stop offset="1" stop-color="#230037"/>
</linearGradient>
<linearGradient id="paint5_linear_3486_22138" x1="4.3025" y1="0.831544" x2="7.27874" y2="9.63358" gradientUnits="userSpaceOnUse">
<stop stop-color="#D9DADB"/>
<stop offset="0.07707" stop-color="#D9DADB"/>
<stop offset="0.274275" stop-color="#5F4389"/>
<stop offset="0.276839" stop-color="#5F4389"/>
<stop offset="0.380681" stop-color="#5F4389"/>
<stop offset="0.553575" stop-color="#9F7FDF"/>
<stop offset="0.638147" stop-color="#5F4389"/>
<stop offset="0.652052" stop-color="#5F4389"/>
<stop offset="1" stop-color="#230037"/>
</linearGradient>
<linearGradient id="paint6_linear_3486_22138" x1="5.97129" y1="0.0989958" x2="7.09348" y2="10.5871" gradientUnits="userSpaceOnUse">
<stop stop-color="#D9DADB"/>
<stop offset="0.052111" stop-color="#D9DADB"/>
<stop offset="0.273955" stop-color="#5F4389"/>
<stop offset="0.276839" stop-color="#5F4389"/>
<stop offset="0.380681" stop-color="#5F4389"/>
<stop offset="0.553575" stop-color="#9F7FDF"/>
<stop offset="0.638147" stop-color="#5F4389"/>
<stop offset="0.652052" stop-color="#5F4389"/>
<stop offset="1" stop-color="#230037"/>
</linearGradient>
<linearGradient id="paint7_linear_3486_22138" x1="9.95126" y1="-0.775043" x2="9.95126" y2="15.3714" gradientUnits="userSpaceOnUse">
<stop stop-color="#D9DADB"/>
<stop offset="0.098353" stop-color="#D9DADB"/>
<stop offset="0.219143" stop-color="#5F4389"/>
<stop offset="0.220713" stop-color="#5F4389"/>
<stop offset="0.316515" stop-color="#5F4389"/>
<stop offset="0.422176" stop-color="#9A80D9"/>
<stop offset="0.498548" stop-color="#B7A5E3"/>
<stop offset="0.511105" stop-color="#B7A5E3"/>
<stop offset="0.582078" stop-color="#9A80D9"/>
<stop offset="0.593747" stop-color="#9A80D9"/>
<stop offset="0.781231" stop-color="#1F0035"/>
<stop offset="1" stop-color="#1F0035"/>
</linearGradient>
<radialGradient id="paint8_radial_3486_22138" cx="0" cy="0" r="1" gradientUnits="userSpaceOnUse" gradientTransform="translate(9.67294 12.6105) rotate(90) scale(18.518 26.1635)">
<stop stop-color="white" stop-opacity="0"/>
<stop offset="0.46" stop-color="white" stop-opacity="0"/>
<stop offset="0.568463" stop-color="white"/>
<stop offset="0.57" stop-color="white"/>
<stop offset="0.832546" stop-color="white"/>
<stop offset="0.85" stop-color="white"/>
<stop offset="0.99065" stop-color="white" stop-opacity="0"/>
<stop offset="1" stop-color="white" stop-opacity="0"/>
</radialGradient>
<radialGradient id="paint9_radial_3486_22138" cx="0" cy="0" r="1" gradientUnits="userSpaceOnUse" gradientTransform="translate(9.67294 12.6105) rotate(90) scale(18.518 26.1635)">
<stop stop-color="#BAA072"/>
<stop offset="0.46" stop-color="#BAA072"/>
<stop offset="0.568463" stop-color="#FFF2C8"/>
<stop offset="0.57" stop-color="#FFF2C8"/>
<stop offset="0.832546" stop-color="#FFF2C8"/>
<stop offset="0.85" stop-color="#FFF2C8"/>
<stop offset="0.99065" stop-color="#BAA072"/>
<stop offset="1" stop-color="#BAA072"/>
</radialGradient>
<radialGradient id="paint10_radial_3486_22138" cx="0" cy="0" r="1" gradientUnits="userSpaceOnUse" gradientTransform="translate(9.99147 13.4534) rotate(90.1451) scale(6.02032 6.02032)">
<stop stop-color="white" stop-opacity="0"/>
<stop offset="0.317485" stop-color="white" stop-opacity="0"/>
<stop offset="0.466276" stop-color="white"/>
<stop offset="0.468384" stop-color="white"/>
<stop offset="0.573178" stop-color="white" stop-opacity="0"/>
<stop offset="0.580145" stop-color="white" stop-opacity="0"/>
<stop offset="1" stop-color="white" stop-opacity="0"/>
</radialGradient>
<radialGradient id="paint11_radial_3486_22138" cx="0" cy="0" r="1" gradientUnits="userSpaceOnUse" gradientTransform="translate(9.99129 13.4518) rotate(90.1451) scale(6.02032 6.02033)">
<stop stop-color="white"/>
<stop offset="0.317485" stop-color="white"/>
<stop offset="0.466276" stop-color="white"/>
<stop offset="0.468384" stop-color="white"/>
<stop offset="0.573178" stop-color="white"/>
<stop offset="0.580145" stop-color="white"/>
<stop offset="1" stop-color="white"/>
</radialGradient>
<linearGradient id="paint12_linear_3486_22138" x1="9.95064" y1="13.1891" x2="9.95064" y2="23.5443" gradientUnits="userSpaceOnUse">
<stop stop-color="white" stop-opacity="0.500008"/>
<stop offset="0.076842" stop-color="white" stop-opacity="0.500008"/>
<stop offset="0.343334" stop-color="white" stop-opacity="0"/>
<stop offset="1" stop-color="white" stop-opacity="0"/>
</linearGradient>
<linearGradient id="paint13_linear_3486_22138" x1="9.95064" y1="13.1891" x2="9.95064" y2="23.5443" gradientUnits="userSpaceOnUse">
<stop stop-color="#B7A5E3"/>
<stop offset="0.076842" stop-color="#B7A5E3"/>
<stop offset="0.343334" stop-color="#5F4389"/>
<stop offset="1" stop-color="#5F4389"/>
</linearGradient>
<radialGradient id="paint14_radial_3486_22138" cx="0" cy="0" r="1" gradientUnits="userSpaceOnUse" gradientTransform="translate(9.99141 11.955) rotate(90.1107) scale(7.91707 7.91707)">
<stop stop-color="white" stop-opacity="0"/>
<stop offset="0.374559" stop-color="white" stop-opacity="0"/>
<stop offset="0.483397" stop-color="white"/>
<stop offset="0.484939" stop-color="white"/>
<stop offset="0.581286" stop-color="white" stop-opacity="0"/>
<stop offset="0.587691" stop-color="white" stop-opacity="0"/>
<stop offset="1" stop-color="white" stop-opacity="0"/>
</radialGradient>
<radialGradient id="paint15_radial_3486_22138" cx="0" cy="0" r="1" gradientUnits="userSpaceOnUse" gradientTransform="translate(9.9913 11.9541) rotate(90.1107) scale(7.91707 7.91707)">
<stop stop-color="white"/>
<stop offset="0.374559" stop-color="white"/>
<stop offset="0.483397" stop-color="white"/>
<stop offset="0.484939" stop-color="white"/>
<stop offset="0.581286" stop-color="#FFF2C8"/>
<stop offset="0.587691" stop-color="#FFF2C8"/>
<stop offset="1" stop-color="#FFF2C8"/>
</radialGradient>
<linearGradient id="paint16_linear_3486_22138" x1="2.66104" y1="1.9481" x2="17.2409" y2="1.9481" gradientUnits="userSpaceOnUse">
<stop stop-color="#B7A5E3"/>
<stop offset="0.05" stop-color="#B7A5E3"/>
<stop offset="0.0987967" stop-color="#B7A5E3"/>
<stop offset="0.16" stop-color="#351652"/>
<stop offset="0.386419" stop-color="#9A80D9"/>
<stop offset="0.4" stop-color="#9A80D9"/>
<stop offset="0.494341" stop-color="#B7BADE"/>
<stop offset="0.5" stop-color="#B7BADE"/>
<stop offset="0.594341" stop-color="#9A80D9"/>
<stop offset="0.6" stop-color="#9A80D9"/>
<stop offset="0.826419" stop-color="#351652"/>
<stop offset="0.84" stop-color="#351652"/>
<stop offset="0.901203" stop-color="#B7A5E3"/>
<stop offset="0.95" stop-color="#B7A5E3"/>
<stop offset="1" stop-color="#B7A5E3"/>
</linearGradient>
<linearGradient id="paint17_linear_3486_22138" x1="2.66202" y1="1.95005" x2="17.2419" y2="1.95005" gradientUnits="userSpaceOnUse">
<stop stop-color="white" stop-opacity="0"/>
<stop offset="0.18" stop-color="white" stop-opacity="0"/>
<stop offset="0.43" stop-color="white"/>
<stop offset="0.57" stop-color="white"/>
<stop offset="0.82" stop-color="white" stop-opacity="0"/>
<stop offset="1" stop-color="white" stop-opacity="0"/>
</linearGradient>
<linearGradient id="paint18_linear_3486_22138" x1="2.66202" y1="1.95005" x2="17.2419" y2="1.95005" gradientUnits="userSpaceOnUse">
<stop stop-color="#BAA072"/>
<stop offset="0.18" stop-color="#BAA072"/>
<stop offset="0.43" stop-color="#DEC285"/>
<stop offset="0.57" stop-color="#DEC285"/>
<stop offset="0.82" stop-color="#BAA072"/>
<stop offset="1" stop-color="#BAA072"/>
</linearGradient>
<linearGradient id="paint19_linear_3486_22138" x1="2.6894" y1="2.29841" x2="17.2113" y2="2.29841" gradientUnits="userSpaceOnUse">
<stop stop-color="#381A56"/>
<stop offset="0.17089" stop-color="#5F4389"/>
<stop offset="0.481377" stop-color="#8065B5"/>
<stop offset="0.5" stop-color="#8065B5"/>
<stop offset="0.808601" stop-color="#5F4389"/>
<stop offset="0.827111" stop-color="#5F4389"/>
<stop offset="1" stop-color="#381A56"/>
</linearGradient>
<radialGradient id="paint20_radial_3486_22138" cx="0" cy="0" r="1" gradientUnits="userSpaceOnUse" gradientTransform="translate(1.9056 -1.0386) rotate(75.742) scale(28.3079 31.1755)">
<stop stop-color="#D9DADB"/>
<stop offset="0.12" stop-color="#D9DADB"/>
<stop offset="0.319462" stop-color="#9A80D9"/>
<stop offset="0.35" stop-color="#9A80D9"/>
<stop offset="0.637415" stop-color="#230037"/>
<stop offset="0.9" stop-color="#230037"/>
<stop offset="1" stop-color="#230037"/>
</radialGradient>
<radialGradient id="paint21_radial_3486_22138" cx="0" cy="0" r="1" gradientUnits="userSpaceOnUse" gradientTransform="translate(17.996 -1.03859) rotate(104.258) scale(28.3079 31.1755)">
<stop stop-color="#D9DADB"/>
<stop offset="0.12" stop-color="#D9DADB"/>
<stop offset="0.319462" stop-color="#9A80D9"/>
<stop offset="0.35" stop-color="#9A80D9"/>
<stop offset="0.637415" stop-color="#230037"/>
<stop offset="0.9" stop-color="#230037"/>
<stop offset="1" stop-color="#230037"/>
</radialGradient>
<linearGradient id="paint22_linear_3486_22138" x1="6.1225" y1="8.06197" x2="7.74184" y2="5.28284" gradientUnits="userSpaceOnUse">
<stop stop-color="white" stop-opacity="0"/>
<stop offset="0.6" stop-color="white" stop-opacity="0"/>
<stop offset="0.756101" stop-color="white"/>
<stop offset="0.78" stop-color="white"/>
<stop offset="1" stop-color="white"/>
</linearGradient>
<linearGradient id="paint23_linear_3486_22138" x1="6.1221" y1="8.06133" x2="7.74144" y2="5.2822" gradientUnits="userSpaceOnUse">
<stop stop-color="#D9DADB"/>
<stop offset="0.6" stop-color="#D9DADB"/>
<stop offset="0.756101" stop-color="#5F4389"/>
<stop offset="0.78" stop-color="#5F4389"/>
<stop offset="1" stop-color="#5F4389"/>
</linearGradient>
<linearGradient id="paint24_linear_3486_22138" x1="5.96201" y1="19.6492" x2="13.9288" y2="19.7732" gradientUnits="userSpaceOnUse">
<stop stop-color="#1F0035"/>
<stop offset="0.15" stop-color="#1F0035"/>
<stop offset="0.159428" stop-color="#1F0035"/>
<stop offset="0.48" stop-color="#AF9BE0"/>
<stop offset="0.52" stop-color="#AF9BE0"/>
<stop offset="0.529428" stop-color="#AF9BE0"/>
<stop offset="0.85" stop-color="#1F0035"/>
<stop offset="1" stop-color="#1F0035"/>
</linearGradient>
<linearGradient id="paint25_linear_3486_22138" x1="5.77951" y1="18.6226" x2="9.6376" y2="20.5409" gradientUnits="userSpaceOnUse">
<stop stop-color="white"/>
<stop offset="0.100522" stop-color="white"/>
<stop offset="0.284643" stop-color="white"/>
<stop offset="0.28544" stop-color="white"/>
<stop offset="0.585555" stop-color="white" stop-opacity="0"/>
<stop offset="0.586855" stop-color="white" stop-opacity="0"/>
<stop offset="0.974246" stop-color="white" stop-opacity="0"/>
<stop offset="1" stop-color="white" stop-opacity="0"/>
</linearGradient>
<linearGradient id="paint26_linear_3486_22138" x1="5.77947" y1="18.6221" x2="9.63756" y2="20.5404" gradientUnits="userSpaceOnUse">
<stop stop-color="#FFF2C8"/>
<stop offset="0.100522" stop-color="#FFF2C8"/>
<stop offset="0.284643" stop-color="#DEC285"/>
<stop offset="0.28544" stop-color="#DEC285"/>
<stop offset="0.585555" stop-color="#FFF2C8"/>
<stop offset="0.586855" stop-color="#FFF2C8"/>
<stop offset="0.974246" stop-color="#FFF2C8"/>
<stop offset="1" stop-color="#FFF2C8"/>
</linearGradient>
<linearGradient id="paint27_linear_3486_22138" x1="14.1233" y1="18.6209" x2="10.2652" y2="20.5392" gradientUnits="userSpaceOnUse">
<stop stop-color="white"/>
<stop offset="0.100522" stop-color="white"/>
<stop offset="0.284643" stop-color="white"/>
<stop offset="0.28544" stop-color="white"/>
<stop offset="0.585555" stop-color="white" stop-opacity="0"/>
<stop offset="0.586855" stop-color="white" stop-opacity="0"/>
<stop offset="0.974246" stop-color="white" stop-opacity="0"/>
<stop offset="1" stop-color="white" stop-opacity="0"/>
</linearGradient>
<linearGradient id="paint28_linear_3486_22138" x1="14.1231" y1="18.6221" x2="10.265" y2="20.5404" gradientUnits="userSpaceOnUse">
<stop stop-color="#FFF2C8"/>
<stop offset="0.100522" stop-color="#FFF2C8"/>
<stop offset="0.284643" stop-color="#DEC285"/>
<stop offset="0.28544" stop-color="#DEC285"/>
<stop offset="0.585555" stop-color="#FFF2C8"/>
<stop offset="0.586855" stop-color="#FFF2C8"/>
<stop offset="0.974246" stop-color="#FFF2C8"/>
<stop offset="1" stop-color="#FFF2C8"/>
</linearGradient>
<linearGradient id="paint29_linear_3486_22138" x1="8.09453" y1="17.4888" x2="11.8075" y2="17.4888" gradientUnits="userSpaceOnUse">
<stop stop-color="#5F4389"/>
<stop offset="0.15" stop-color="#5F4389"/>
<stop offset="0.343276" stop-color="#9A80D9"/>
<stop offset="0.5" stop-color="#9A80D9"/>
<stop offset="0.828182" stop-color="#5F4389"/>
<stop offset="0.85" stop-color="#5F4389"/>
<stop offset="1" stop-color="#5F4389"/>
</linearGradient>
<linearGradient id="paint30_linear_3486_22138" x1="9.95108" y1="-2.79548" x2="9.95108" y2="14.7666" gradientUnits="userSpaceOnUse">
<stop stop-color="#5F4389"/>
<stop offset="0.17" stop-color="#5F4389"/>
<stop offset="0.995994" stop-color="#2D0E47"/>
<stop offset="1" stop-color="#2D0E47"/>
</linearGradient>
<linearGradient id="paint31_linear_3486_22138" x1="9.95135" y1="4.63109" x2="9.95135" y2="16.2191" gradientUnits="userSpaceOnUse">
<stop stop-color="#4C3071"/>
<stop offset="0.435085" stop-color="#4C3071"/>
<stop offset="0.982343" stop-color="#230037"/>
<stop offset="0.985654" stop-color="#230037"/>
<stop offset="0.999869" stop-color="#230037"/>
<stop offset="1" stop-color="#230037"/>
</linearGradient>
<linearGradient id="paint32_linear_3486_22138" x1="4.13333" y1="1.79522" x2="4.13333" y2="11.2593" gradientUnits="userSpaceOnUse">
<stop stop-color="#DEC285"/>
<stop offset="0.34" stop-color="#DEC285"/>
<stop offset="0.616407" stop-color="#FFF2C8"/>
<stop offset="0.62" stop-color="#FFF2C8"/>
<stop offset="0.799224" stop-color="#DEC285"/>
<stop offset="0.8" stop-color="#DEC285"/>
<stop offset="0.938203" stop-color="#BAA072"/>
<stop offset="0.94" stop-color="#BAA072"/>
<stop offset="0.960717" stop-color="#BAA072"/>
<stop offset="1" stop-color="#BAA072"/>
</linearGradient>
<linearGradient id="paint33_linear_3486_22138" x1="2.69829" y1="10.2875" x2="7.91764" y2="10.2875" gradientUnits="userSpaceOnUse">
<stop stop-color="#FFF2C8"/>
<stop offset="0.02" stop-color="#FFF2C8"/>
<stop offset="0.194586" stop-color="#D9DADB"/>
<stop offset="0.29" stop-color="#D9DADB"/>
<stop offset="0.438075" stop-color="#DEC285"/>
<stop offset="0.44" stop-color="#DEC285"/>
<stop offset="0.628935" stop-color="#BAA072"/>
<stop offset="0.66" stop-color="#BAA072"/>
<stop offset="1" stop-color="#FFF2C8"/>
</linearGradient>
<linearGradient id="paint34_linear_3486_22138" x1="17.2037" y1="10.2875" x2="11.9843" y2="10.2875" gradientUnits="userSpaceOnUse">
<stop stop-color="#FFF2C8"/>
<stop offset="0.02" stop-color="#FFF2C8"/>
<stop offset="0.194586" stop-color="#D9DADB"/>
<stop offset="0.29" stop-color="#D9DADB"/>
<stop offset="0.438075" stop-color="#DEC285"/>
<stop offset="0.44" stop-color="#DEC285"/>
<stop offset="0.628935" stop-color="#BAA072"/>
<stop offset="0.66" stop-color="#BAA072"/>
<stop offset="1" stop-color="#FFF2C8"/>
</linearGradient>
<linearGradient id="paint35_linear_3486_22138" x1="5.08526" y1="1.95637" x2="5.08526" y2="9.86181" gradientUnits="userSpaceOnUse">
<stop stop-color="#DEC285"/>
<stop offset="0.004448" stop-color="#DEC285"/>
<stop offset="0.153165" stop-color="#FFF2C8"/>
<stop offset="0.438152" stop-color="#FFF2C8"/>
<stop offset="0.6235" stop-color="#9F7FDF"/>
<stop offset="0.724797" stop-color="#9F7FDF"/>
<stop offset="0.81982" stop-color="#9F7FDF"/>
<stop offset="1" stop-color="#9F7FDF"/>
</linearGradient>
<linearGradient id="paint36_linear_3486_22138" x1="5.41124" y1="1.46921" x2="5.41124" y2="11.5887" gradientUnits="userSpaceOnUse">
<stop stop-color="#9F7FDF"/>
<stop offset="0.0246298" stop-color="#9F7FDF"/>
<stop offset="0.122698" stop-color="#DEC285"/>
<stop offset="0.185782" stop-color="#FFF2C8"/>
<stop offset="0.220258" stop-color="#FFF2C8"/>
<stop offset="0.528474" stop-color="#9F7FDF"/>
<stop offset="0.530188" stop-color="#9F7FDF"/>
<stop offset="0.692406" stop-color="#230037"/>
<stop offset="1" stop-color="#230037"/>
</linearGradient>
<linearGradient id="paint37_linear_3486_22138" x1="6.14979" y1="1.035" x2="6.14979" y2="16.4402" gradientUnits="userSpaceOnUse">
<stop stop-color="#9F7FDF"/>
<stop offset="0.0246298" stop-color="#9F7FDF"/>
<stop offset="0.122698" stop-color="#DEC285"/>
<stop offset="0.185782" stop-color="#FFF2C8"/>
<stop offset="0.220258" stop-color="#FFF2C8"/>
<stop offset="0.528474" stop-color="#9F7FDF"/>
<stop offset="0.530188" stop-color="#9F7FDF"/>
<stop offset="0.692406" stop-color="#230037"/>
<stop offset="1" stop-color="#230037"/>
</linearGradient>
<linearGradient id="paint38_linear_3486_22138" x1="7.28561" y1="1.06249" x2="7.28561" y2="21.547" gradientUnits="userSpaceOnUse">
<stop stop-color="#9F7FDF"/>
<stop offset="0.0240882" stop-color="#9F7FDF"/>
<stop offset="0.12" stop-color="#DEC285"/>
<stop offset="0.184661" stop-color="#FFF2C8"/>
<stop offset="0.22" stop-color="#FFF2C8"/>
<stop offset="0.432363" stop-color="#9F7FDF"/>
<stop offset="0.433544" stop-color="#9F7FDF"/>
<stop offset="0.53071" stop-color="#230037"/>
<stop offset="0.714955" stop-color="#230037"/>
<stop offset="1" stop-color="#230037"/>
</linearGradient>
<linearGradient id="paint39_linear_3486_22138" x1="14.8167" y1="1.95637" x2="14.8167" y2="9.86181" gradientUnits="userSpaceOnUse">
<stop stop-color="#DEC285"/>
<stop offset="0.004448" stop-color="#DEC285"/>
<stop offset="0.153165" stop-color="#FFF2C8"/>
<stop offset="0.438152" stop-color="#FFF2C8"/>
<stop offset="0.6235" stop-color="#9F7FDF"/>
<stop offset="0.724797" stop-color="#9F7FDF"/>
<stop offset="0.81982" stop-color="#9F7FDF"/>
<stop offset="1" stop-color="#9F7FDF"/>
</linearGradient>
<linearGradient id="paint40_linear_3486_22138" x1="14.4909" y1="1.46921" x2="14.4909" y2="11.5887" gradientUnits="userSpaceOnUse">
<stop stop-color="#9F7FDF"/>
<stop offset="0.0246298" stop-color="#9F7FDF"/>
<stop offset="0.122698" stop-color="#DEC285"/>
<stop offset="0.185782" stop-color="#FFF2C8"/>
<stop offset="0.220258" stop-color="#FFF2C8"/>
<stop offset="0.528474" stop-color="#9F7FDF"/>
<stop offset="0.530188" stop-color="#9F7FDF"/>
<stop offset="0.692406" stop-color="#230037"/>
<stop offset="1" stop-color="#230037"/>
</linearGradient>
<linearGradient id="paint41_linear_3486_22138" x1="13.7523" y1="1.035" x2="13.7523" y2="16.4402" gradientUnits="userSpaceOnUse">
<stop stop-color="#9F7FDF"/>
<stop offset="0.0246298" stop-color="#9F7FDF"/>
<stop offset="0.122698" stop-color="#DEC285"/>
<stop offset="0.185782" stop-color="#FFF2C8"/>
<stop offset="0.220258" stop-color="#FFF2C8"/>
<stop offset="0.528474" stop-color="#9F7FDF"/>
<stop offset="0.530188" stop-color="#9F7FDF"/>
<stop offset="0.692406" stop-color="#230037"/>
<stop offset="1" stop-color="#230037"/>
</linearGradient>
<linearGradient id="paint42_linear_3486_22138" x1="12.6156" y1="1.06249" x2="12.6156" y2="21.547" gradientUnits="userSpaceOnUse">
<stop stop-color="#9F7FDF"/>
<stop offset="0.0246298" stop-color="#9F7FDF"/>
<stop offset="0.122698" stop-color="#DEC285"/>
<stop offset="0.185782" stop-color="#FFF2C8"/>
<stop offset="0.220258" stop-color="#FFF2C8"/>
<stop offset="0.432365" stop-color="#9F7FDF"/>
<stop offset="0.433544" stop-color="#9F7FDF"/>
<stop offset="0.53071" stop-color="#230037"/>
<stop offset="0.714955" stop-color="#230037"/>
<stop offset="1" stop-color="#230037"/>
</linearGradient>
<linearGradient id="paint43_linear_3486_22138" x1="8.43734" y1="6.32328" x2="8.43734" y2="13.4561" gradientUnits="userSpaceOnUse">
<stop stop-color="#FFF2C8"/>
<stop offset="0.101977" stop-color="#FFF2C8"/>
<stop offset="0.508582" stop-color="#BAA072"/>
<stop offset="0.570833" stop-color="#BAA072"/>
<stop offset="0.68291" stop-color="#5F4389"/>
<stop offset="0.895427" stop-color="#5F4389"/>
<stop offset="1" stop-color="#5F4389"/>
</linearGradient>
<linearGradient id="paint44_linear_3486_22138" x1="8.69542" y1="7.62582" x2="8.69542" y2="17.8421" gradientUnits="userSpaceOnUse">
<stop stop-color="#FFF2C8"/>
<stop offset="0.101977" stop-color="#FFF2C8"/>
<stop offset="0.522155" stop-color="#BAA072"/>
<stop offset="0.586484" stop-color="#BAA072"/>
<stop offset="0.603792" stop-color="#BAA072"/>
<stop offset="0.895427" stop-color="#230037"/>
<stop offset="1" stop-color="#230037"/>
</linearGradient>
<linearGradient id="paint45_linear_3486_22138" x1="11.4647" y1="6.32328" x2="11.4647" y2="13.4561" gradientUnits="userSpaceOnUse">
<stop stop-color="#FFF2C8"/>
<stop offset="0.101977" stop-color="#FFF2C8"/>
<stop offset="0.508582" stop-color="#BAA072"/>
<stop offset="0.570833" stop-color="#BAA072"/>
<stop offset="0.68291" stop-color="#5F4389"/>
<stop offset="0.895427" stop-color="#5F4389"/>
<stop offset="1" stop-color="#5F4389"/>
</linearGradient>
<linearGradient id="paint46_linear_3486_22138" x1="11.2062" y1="7.62582" x2="11.2062" y2="17.8421" gradientUnits="userSpaceOnUse">
<stop stop-color="#FFF2C8"/>
<stop offset="0.101977" stop-color="#FFF2C8"/>
<stop offset="0.522155" stop-color="#BAA072"/>
<stop offset="0.586484" stop-color="#BAA072"/>
<stop offset="0.603792" stop-color="#BAA072"/>
<stop offset="0.895427" stop-color="#230037"/>
<stop offset="1" stop-color="#230037"/>
</linearGradient>
<linearGradient id="paint47_linear_3486_22138" x1="12.3369" y1="17.4888" x2="9.11085" y2="17.4888" gradientUnits="userSpaceOnUse">
<stop stop-color="#9A80D9"/>
<stop offset="0.937664" stop-color="#230037"/>
<stop offset="1" stop-color="#230037"/>
</linearGradient>
<linearGradient id="paint48_linear_3486_22138" x1="13.7798" y1="8.06196" x2="12.1604" y2="5.28284" gradientUnits="userSpaceOnUse">
<stop stop-color="white" stop-opacity="0"/>
<stop offset="0.6" stop-color="white" stop-opacity="0"/>
<stop offset="0.756101" stop-color="white"/>
<stop offset="0.78" stop-color="white"/>
<stop offset="1" stop-color="white"/>
</linearGradient>
<linearGradient id="paint49_linear_3486_22138" x1="13.7795" y1="8.06133" x2="12.1602" y2="5.2822" gradientUnits="userSpaceOnUse">
<stop stop-color="#D9DADB"/>
<stop offset="0.6" stop-color="#D9DADB"/>
<stop offset="0.756101" stop-color="#5F4389"/>
<stop offset="0.78" stop-color="#5F4389"/>
<stop offset="1" stop-color="#5F4389"/>
</linearGradient>
<linearGradient id="paint50_linear_3486_22138" x1="15.7688" y1="1.79522" x2="15.7688" y2="11.2593" gradientUnits="userSpaceOnUse">
<stop stop-color="#DEC285"/>
<stop offset="0.48" stop-color="#DEC285"/>
<stop offset="0.618203" stop-color="#FFF2C8"/>
<stop offset="0.62" stop-color="#FFF2C8"/>
<stop offset="0.799224" stop-color="#DEC285"/>
<stop offset="0.8" stop-color="#DEC285"/>
<stop offset="0.938203" stop-color="#BAA072"/>
<stop offset="0.94" stop-color="#BAA072"/>
<stop offset="0.960717" stop-color="#BAA072"/>
<stop offset="1" stop-color="#BAA072"/>
</linearGradient>
<linearGradient id="paint51_linear_3486_22138" x1="13.9425" y1="20.6516" x2="5.96006" y2="20.6516" gradientUnits="userSpaceOnUse">
<stop stop-color="#230037"/>
<stop offset="0.27348" stop-color="#9A80D9"/>
<stop offset="0.49524" stop-color="#9A80D9"/>
<stop offset="0.840483" stop-color="#9A80D9"/>
<stop offset="1" stop-color="#230037"/>
</linearGradient>
<linearGradient id="paint52_linear_3486_22138" x1="8.25982" y1="17.1377" x2="11.4953" y2="19.1071" gradientUnits="userSpaceOnUse">
<stop stop-color="#E8D19A"/>
<stop offset="0.079217" stop-color="#E8D19A"/>
<stop offset="0.0941689" stop-color="#E8D19A"/>
<stop offset="0.49524" stop-color="#9F7FDF"/>
<stop offset="0.834724" stop-color="#230037"/>
<stop offset="0.857293" stop-color="#230037"/>
<stop offset="1" stop-color="#230037"/>
</linearGradient>
<linearGradient id="paint53_linear_3486_22138" x1="9.95116" y1="9.51029" x2="9.95116" y2="17.2529" gradientUnits="userSpaceOnUse">
<stop stop-color="#4C3071"/>
<stop offset="0.435085" stop-color="#4C3071"/>
<stop offset="0.982343" stop-color="#230037"/>
<stop offset="0.985654" stop-color="#230037"/>
<stop offset="0.999869" stop-color="#230037"/>
<stop offset="1" stop-color="#230037"/>
</linearGradient>
<linearGradient id="paint54_linear_3486_22138" x1="8.9683" y1="9.83409" x2="8.9683" y2="17.2494" gradientUnits="userSpaceOnUse">
<stop stop-color="#FFF2C8"/>
<stop offset="0.101977" stop-color="#FFF2C8"/>
<stop offset="0.508582" stop-color="#DEC285"/>
<stop offset="0.570833" stop-color="#DEC285"/>
<stop offset="0.719017" stop-color="#5F4389"/>
<stop offset="1" stop-color="#5F4389"/>
</linearGradient>
<linearGradient id="paint55_linear_3486_22138" x1="10.9333" y1="9.83409" x2="10.9333" y2="17.2494" gradientUnits="userSpaceOnUse">
<stop stop-color="#FFF2C8"/>
<stop offset="0.101977" stop-color="#FFF2C8"/>
<stop offset="0.508582" stop-color="#DEC285"/>
<stop offset="0.570833" stop-color="#DEC285"/>
<stop offset="0.719017" stop-color="#5F4389"/>
<stop offset="1" stop-color="#5F4389"/>
</linearGradient>
<linearGradient id="paint56_linear_3486_22138" x1="9.95136" y1="12.9408" x2="9.95136" y2="17.8067" gradientUnits="userSpaceOnUse">
<stop stop-color="#230037"/>
<stop offset="0.016383" stop-color="#230037"/>
<stop offset="0.0713536" stop-color="#351752"/>
<stop offset="0.075008" stop-color="#351752"/>
<stop offset="0.596172" stop-color="#5F4389"/>
<stop offset="0.630819" stop-color="#5F4389"/>
<stop offset="0.821328" stop-color="#351752"/>
<stop offset="0.833993" stop-color="#351752"/>
<stop offset="0.970564" stop-color="#230037"/>
<stop offset="0.979643" stop-color="#230037"/>
<stop offset="0.998731" stop-color="#230037"/>
<stop offset="1" stop-color="#230037"/>
</linearGradient>
<linearGradient id="paint57_linear_3486_22138" x1="9.34013" y1="11.8004" x2="9.34013" y2="16.4397" gradientUnits="userSpaceOnUse">
<stop stop-color="#FFF2C8"/>
<stop offset="0.101977" stop-color="#FFF2C8"/>
<stop offset="0.508582" stop-color="#DEC285"/>
<stop offset="0.570833" stop-color="#DEC285"/>
<stop offset="0.719017" stop-color="#5F4389"/>
<stop offset="1" stop-color="#5F4389"/>
</linearGradient>
<linearGradient id="paint58_linear_3486_22138" x1="10.558" y1="11.8004" x2="10.558" y2="16.4397" gradientUnits="userSpaceOnUse">
<stop stop-color="#FFF2C8"/>
<stop offset="0.101977" stop-color="#FFF2C8"/>
<stop offset="0.508582" stop-color="#DEC285"/>
<stop offset="0.570833" stop-color="#DEC285"/>
<stop offset="0.719017" stop-color="#5F4389"/>
<stop offset="1" stop-color="#5F4389"/>
</linearGradient>
<linearGradient id="paint59_linear_3486_22138" x1="9.95154" y1="-1.03465" x2="9.95154" y2="16.0119" gradientUnits="userSpaceOnUse">
<stop stop-color="white" stop-opacity="0"/>
<stop offset="0.525482" stop-color="white" stop-opacity="0"/>
<stop offset="0.829113" stop-color="white"/>
<stop offset="0.849298" stop-color="white"/>
<stop offset="1" stop-color="white"/>
</linearGradient>
<linearGradient id="paint60_linear_3486_22138" x1="9.95185" y1="-1.03465" x2="9.95185" y2="16.0119" gradientUnits="userSpaceOnUse">
<stop stop-color="#A89CDB"/>
<stop offset="0.525482" stop-color="#A89CDB"/>
<stop offset="0.829113" stop-color="#230037"/>
<stop offset="0.849298" stop-color="#230037"/>
<stop offset="1" stop-color="#230037"/>
</linearGradient>
<radialGradient id="paint61_radial_3486_22138" cx="0" cy="0" r="1" gradientUnits="userSpaceOnUse" gradientTransform="translate(9.96175 9.90873) rotate(89.4103) scale(11.7247 9.86437)">
<stop stop-color="white" stop-opacity="0"/>
<stop offset="0.416835" stop-color="white" stop-opacity="0"/>
<stop offset="0.46098" stop-color="white"/>
<stop offset="0.461606" stop-color="white"/>
<stop offset="0.504484" stop-color="white" stop-opacity="0"/>
<stop offset="0.507334" stop-color="white" stop-opacity="0"/>
<stop offset="1" stop-color="white" stop-opacity="0"/>
</radialGradient>
<radialGradient id="paint62_radial_3486_22138" cx="0" cy="0" r="1" gradientUnits="userSpaceOnUse" gradientTransform="translate(9.96167 9.90764) rotate(89.4103) scale(11.7247 9.86437)">
<stop stop-color="white"/>
<stop offset="0.416835" stop-color="white"/>
<stop offset="0.46098" stop-color="white"/>
<stop offset="0.461606" stop-color="white"/>
<stop offset="0.504484" stop-color="white"/>
<stop offset="0.507334" stop-color="white"/>
<stop offset="1" stop-color="white"/>
</radialGradient>
<clipPath id="clip0_3486_22138">
<rect width="20" height="20" fill="white" transform="translate(0 0.773438)"/>
</clipPath>
</defs>
</svg>
