<svg width="150" height="150" viewBox="0 0 150 150" fill="none" xmlns="http://www.w3.org/2000/svg">
<path d="M76.3355 134L81.3678 130.011C81.6261 129.805 81.9064 129.628 82.1057 129.399C84.1348 127.49 84.0094 126.568 81.8105 124.872C80.1208 123.56 78.5787 122.063 76.5864 120.315H83.7954C85.9057 120.36 88.0013 120.507 90.1116 120.522C90.4436 120.522 90.8494 120.138 91.1077 119.821C94.1477 115.995 97.2836 112.234 100.147 108.282C102.515 104.994 104.574 101.47 106.64 98.2328L95.8596 87.7998L96.1768 87.2394H99.2242C103.312 87.2394 107.407 87.2394 111.502 87.1952C111.701 87.1442 111.887 87.0523 112.049 86.9254C112.21 86.7984 112.343 86.6392 112.439 86.4579C114.845 82.2503 117.226 78.0279 119.582 73.7908C120.076 72.8987 120.504 71.9623 121.176 70.6056C121.914 75.6415 122.519 80.1907 123.19 84.9538C126.452 83.7077 129.469 82.5649 132.48 81.4368C132.978 81.2883 133.486 81.175 134 81.0976V81.4368C132.775 83.6487 131.683 85.8607 130.311 87.962C128.702 90.3583 126.806 92.5629 125.109 94.9002C124.638 95.4757 124.353 96.1799 124.29 96.9204C124.29 99.818 124.474 102.716 124.577 105.613V107.545C121.67 106.277 118.999 105.149 116.372 103.947C116.008 103.757 115.603 103.658 115.192 103.658C114.781 103.658 114.376 103.757 114.011 103.947C109.934 105.71 105.818 107.382 101.667 108.961C100.737 109.322 100.383 109.698 100.405 110.723C100.464 113.724 100.405 116.717 100.405 119.873L115.708 118.221L115.974 118.693C112.439 121.149 109.067 123.855 105.341 125.978C101.422 128.172 97.3305 130.044 93.1073 131.574C90.0618 132.464 86.9576 133.139 83.8175 133.594C83.4265 133.693 83.0421 133.816 82.6665 133.963L76.3355 134ZM61.0912 131.383C58.5234 127.932 55.7785 124.614 53.2476 121.134C52.7845 120.582 52.1976 120.148 51.5347 119.866C50.8718 119.584 50.1516 119.463 49.4328 119.512C43.7656 118.958 38.1946 117.669 32.8603 115.678L46.4961 109.779L43.6184 102.959C43.2021 102.158 42.8588 101.322 42.5928 100.46C42.3119 99.2791 41.7529 98.1829 40.9623 97.2621C40.1717 96.3412 39.1723 95.6225 38.0475 95.1656C35.5978 93.9121 33.303 92.349 30.8017 90.8228L22.9876 102.177C21.9851 100.709 21.4689 98.963 21.5119 97.1858C21.9989 93.3444 21.9841 89.4366 22.3014 85.5657C22.3334 84.9738 22.2149 84.3834 21.9568 83.8496C21.6988 83.3159 21.3096 82.8561 20.8257 82.5132C19.313 81.105 17.8742 79.6451 16 77.8608C19.0622 76.8728 21.5635 75.9511 24.1166 75.2728C24.6244 75.1613 25.0948 74.9208 25.4826 74.5747C25.8703 74.2286 26.1622 73.7885 26.3302 73.2968C27.672 70.2037 29.1769 67.1839 30.8385 64.2499C31.7535 62.7016 32.0486 61.7504 30.6393 60.3422C29.1988 58.7095 27.8654 56.9855 26.6474 55.181L17.5274 63.697C18.2553 56.7361 20.5237 50.0242 24.1682 44.0475C27.6204 37.7421 32.3559 32.2291 38.0697 27.8634C36.9038 32.0735 35.8561 35.8412 34.7124 40.0217H43.1167L43.2495 40.5526C40.9509 42.6006 38.5471 44.5276 36.0479 46.3258C34.9393 46.9342 34.0422 47.8652 33.4755 48.9951C32.9088 50.125 32.6994 51.4004 32.8751 52.652C33.0817 55.3432 32.8308 58.0712 32.9415 60.7624C33.0817 64.2942 33.3547 67.8259 33.6056 71.3577C33.7089 72.8323 34.7492 72.8692 35.8192 72.7807C39.5577 72.4513 43.2938 72.1048 47.0274 71.7411C47.518 71.6951 47.9984 71.5733 48.4515 71.3798C52.7385 69.5439 56.9517 67.5162 61.3052 65.8868C63.7401 64.9799 63.1941 62.9375 63.5188 61.2859C64.3157 56.862 64.8986 52.3497 65.5331 47.8668C65.5731 47.4248 65.4668 46.9818 65.2306 46.606C63.0834 43.3102 60.951 40.007 58.6783 36.8218C58.3963 36.5545 58.0537 36.3592 57.6798 36.2527C57.306 36.1461 56.9119 36.1314 56.5311 36.2098C53.1001 37.161 49.7206 38.3038 46.319 39.3655C45.8791 39.5043 45.4034 39.4754 44.9835 39.2844C46.9905 37.0725 48.9754 34.7647 51.0266 32.5675C51.8973 31.6385 52.9746 30.9159 53.8158 29.9648C53.9973 29.7246 54.1249 29.4481 54.1899 29.1542C54.2548 28.8603 54.2556 28.5558 54.1921 28.2616C53.4542 25.9021 52.554 23.587 51.7202 21.2571C51.6169 20.9474 51.5505 20.623 51.3734 19.9815C54.2806 20.3428 56.996 20.6082 59.704 21.0211C61.7036 21.3234 63.6737 21.8395 65.666 22.164C66.2147 22.1741 66.7557 22.0339 67.2302 21.7584C72.8711 19.4516 78.7475 17.7678 84.7546 16.7373C85.6327 16.5456 86.4812 16.2507 87.3445 16H88.016L83.4634 20.0479L77.4202 25.2976L89.7352 30.4588L89.6024 31.0707C89.2187 31.115 88.8646 31.1887 88.4513 31.2182C83.4781 31.5721 78.5123 31.8818 73.5464 32.3094C72.8612 32.4551 72.2572 32.8558 71.8567 33.4301C69.2871 37.3432 67.4147 41.6713 66.3227 46.2226C66.2472 46.9382 66.4361 47.6567 66.8539 48.2428C69.1635 52.0252 71.5542 55.7561 73.8858 59.5311C74.3802 60.3422 74.845 60.4233 75.7748 60.1652C81.8474 58.4768 87.9422 56.8989 94.31 55.2031C92.4063 57.9238 90.6207 60.5044 88.8277 63.0407C87.0346 65.5771 85.1973 67.8923 83.4707 70.4139C83.337 70.6805 83.2674 70.9746 83.2674 71.2729C83.2674 71.5711 83.337 71.8652 83.4707 72.1318C84.5923 73.6876 85.8245 75.1475 87.0789 76.5557C89.6319 79.4608 92.244 82.3363 94.7823 85.2339C94.908 85.4679 95.007 85.7152 95.0774 85.9713L75.76 81.8792C72.9045 86.7823 69.953 91.6486 67.2598 96.6255C66.6346 98.2009 66.2659 99.8662 66.1677 101.558C65.6807 104.633 65.3118 107.729 64.8248 110.797C64.6759 111.391 64.7499 112.019 65.0326 112.562C65.3154 113.105 65.7874 113.527 66.3596 113.746C69.5324 115.434 72.6536 117.241 75.7895 118.996L75.8412 119.504L64.9797 120.662V132.82C64.6578 132.895 64.3288 132.934 63.9984 132.938C63.4221 132.943 62.8539 132.803 62.3459 132.531C61.838 132.26 61.4065 131.864 61.0912 131.383ZM47.4111 72.8913C46.2712 73.7989 45.1825 74.7687 44.1497 75.7963C41.7221 78.1705 39.3167 80.552 36.9555 82.9925C36.8105 83.1891 36.7114 83.4157 36.6655 83.6555C36.6195 83.8954 36.6278 84.1424 36.6898 84.3787C38.2836 88.456 39.9365 92.4891 41.5893 96.5517C41.68 96.8201 41.8374 97.0612 42.0468 97.2522C45.7361 100.032 49.3738 102.834 53.1148 105.525C53.4008 105.678 53.7201 105.758 54.0445 105.758C54.3689 105.758 54.6883 105.678 54.9742 105.525C58.7152 102.841 62.3529 100.061 66.0423 97.2596C66.2101 97.0806 66.3367 96.867 66.4132 96.6339C66.4897 96.4008 66.5142 96.1538 66.485 95.9103C66.1603 94.1407 65.6438 92.408 65.3413 90.6311C64.6772 86.6865 64.0943 82.7271 63.4892 78.7751L63.932 78.4285C63.5335 78.0525 63.1941 77.5216 62.7219 77.3447C58.2022 75.651 53.6615 74.014 49.1008 72.4341C48.9937 72.3987 48.8815 72.3812 48.7688 72.3825C48.2752 72.4113 47.8019 72.5887 47.4111 72.8913ZM114.048 56.6703C112.99 55.3641 112.004 54.0005 111.097 52.5856C110.892 52.1301 110.534 51.7606 110.085 51.5411C109.637 51.3216 109.125 51.2659 108.639 51.3838C105.009 51.981 101.394 52.6225 97.778 53.2492C96.9221 53.3967 96.0735 53.581 94.7232 53.8464C95.8227 52.4529 96.6491 51.369 97.505 50.3073C99.0324 48.4124 100.552 46.5175 102.131 44.6742C102.936 43.7452 102.559 43.1037 101.844 42.3959C98.3093 38.8789 94.8044 35.3398 91.2848 31.8154C90.9011 31.432 90.4657 31.0781 90.0525 30.7316L90.3919 29.9943L107.038 34.2707L110.787 26.0717C111.383 27.0045 111.927 27.9694 112.417 28.962C113.849 32.3537 115.155 35.7969 116.638 39.1665C116.963 39.9038 117.804 40.4125 118.453 40.9729C122.359 44.3645 126.272 47.7537 130.193 51.1405C130.412 51.3672 130.61 51.6141 130.783 51.8778H120.069C120.963 56.5774 121.255 61.3715 120.94 66.1448C118.628 62.9695 116.33 59.8015 114.048 56.6408V56.6703Z" fill="#4040D6"/>
</svg>
