<svg width="20" height="20" viewBox="0 0 20 20" fill="none" xmlns="http://www.w3.org/2000/svg">
<mask id="mask0_3486_21293" style="mask-type:luminance" maskUnits="userSpaceOnUse" x="2" y="0" width="16" height="20">
<path d="M9.08712 0.787109H10.9484C11.0626 7.15635 10.6578 13.3341 11.6302 19.1135H11.1274V19.0871C11.1274 19.0692 11.1359 19.0437 11.1274 19.0275C11.1189 19.0113 11.1274 19.0147 11.1274 19.0003C11.1274 18.9858 11.1274 18.9909 11.1274 18.9798C11.1261 18.9743 11.1236 18.9692 11.12 18.9648C11.1165 18.9604 11.112 18.9568 11.1069 18.9543C11.0822 18.9432 11.0779 18.962 11.0626 18.9288L11.0532 18.9134C11.0439 18.9049 11.0294 18.9134 11.0234 18.8973C10.9851 18.7926 11.0336 18.773 10.951 18.6011C10.943 18.5436 10.9313 18.4868 10.916 18.4308C10.9094 18.4153 10.8995 18.4014 10.887 18.39C10.876 18.3857 10.8743 18.39 10.8453 18.3857C10.8194 18.3846 10.7937 18.3809 10.7686 18.3747C10.7353 18.3636 10.6996 18.3747 10.6834 18.3534C10.6459 18.2768 10.6305 18.2861 10.5581 18.264C10.3433 18.1993 10.3553 18.1466 10.282 17.9559L10.2658 17.8708C10.2385 17.6069 10.2104 17.2409 10.2112 16.9728C10.2112 16.9524 10.2112 16.943 10.2027 16.9396C10.1942 16.9362 10.1729 16.9396 10.1499 16.9328C10.1584 16.8945 10.2027 16.8851 10.2018 16.8213C10.2005 16.814 10.2005 16.8065 10.2018 16.7992C10.3454 16.7671 10.4762 16.6934 10.5781 16.5875C10.68 16.4815 10.7483 16.3479 10.7746 16.2033C10.7746 16.2033 10.7746 16.1974 10.7805 16.1948C10.7865 16.1923 10.7873 16.1948 10.795 16.1948C10.8027 16.1948 10.795 16.1804 10.8308 16.1821H10.8521C10.8751 16.1897 10.8521 16.2195 10.8862 16.2229C10.9009 16.2234 10.9155 16.2257 10.9297 16.2297C10.9297 16.2502 10.9297 16.2578 10.9484 16.2621C10.9672 16.2663 10.9799 16.2621 10.9868 16.274C10.9887 16.2798 10.9909 16.2855 10.9936 16.291C10.996 16.2954 10.9994 16.299 11.0036 16.3017C11.0077 16.3044 11.0125 16.306 11.0174 16.3063C11.0566 16.3114 11.0601 16.3106 11.066 16.274C11.0814 16.1389 11.0848 16.0028 11.0762 15.8671C11.0762 15.8331 11.0422 15.8331 11.0157 15.8416C10.9893 15.8501 11.0157 15.8757 10.9833 15.8825H10.9748C10.9399 15.8825 10.9433 15.8825 10.9433 15.908C10.9386 15.9062 10.9335 15.9062 10.9288 15.908H10.8913C10.8615 15.908 10.8998 15.9506 10.8342 15.948C10.7967 15.948 10.8274 15.9327 10.7882 15.9216C10.7882 15.9216 10.7814 15.9216 10.7805 15.9216C10.7548 15.7716 10.684 15.633 10.5774 15.5243C10.4708 15.4155 10.3336 15.3418 10.184 15.313C10.184 15.313 10.184 15.2807 10.184 15.2696C10.184 15.2586 10.1234 15.2696 10.1465 15.2449L10.1584 15.2305C10.1639 15.22 10.1659 15.2081 10.1643 15.1964C10.1643 15.1879 10.1643 15.1913 10.1643 15.1854C10.1667 15.179 10.1667 15.1721 10.1643 15.1658L10.1601 15.1598C10.143 15.1317 10.1601 15.1488 10.126 15.1368C10.1168 15.1343 10.1072 15.1341 10.0979 15.1363C10.0886 15.1385 10.0801 15.1431 10.0732 15.1496C10.0707 15.152 10.0678 15.1538 10.0645 15.1549C10.0613 15.1559 10.0578 15.1562 10.0544 15.1556C10.0551 15.129 10.0577 15.1026 10.0621 15.0764C10.068 15.0194 10.0382 15.0296 10.0876 14.9598C10.0953 14.9487 10.1124 14.93 10.1286 14.9411C10.1447 14.9521 10.1499 14.9836 10.1567 14.999C10.166 15.0115 10.1779 15.0219 10.1916 15.0296C10.2146 15.0458 10.2053 15.0424 10.2411 15.0458C10.2768 15.0492 10.2803 15.0458 10.2896 15.0628C10.2932 15.0667 10.2964 15.071 10.299 15.0756C10.305 15.0849 10.3075 15.0977 10.3126 15.1062C10.3178 15.1147 10.328 15.1198 10.3339 15.1292H10.3433C10.3553 15.1292 10.3553 15.1249 10.3621 15.1198C10.363 15.0941 10.3564 15.0687 10.3433 15.0466V15.0398C10.3433 15.0347 10.3433 15.0339 10.3433 15.0296C10.3433 15.0253 10.3433 15.0296 10.3365 15.0296C10.3297 15.0296 10.3365 15.0296 10.328 15.0296C10.3195 15.0296 10.328 15.0253 10.3212 15.0228C10.3143 15.0202 10.3101 15.0228 10.3024 15.016C10.2947 15.0092 10.293 15.0083 10.2871 15.0049C10.2815 15.0012 10.2755 14.9984 10.2692 14.9964C10.253 14.9904 10.2598 14.9913 10.2521 14.987C10.2445 14.9828 10.2445 14.987 10.2334 14.987C10.1891 14.9726 10.2172 14.9224 10.2129 14.8892C10.2129 14.8747 10.2129 14.8568 10.2129 14.8406C10.2092 14.8261 10.2063 14.8113 10.2044 14.7964C10.2044 14.77 10.2044 14.77 10.2163 14.7564C10.2283 14.7428 10.2368 14.7462 10.2479 14.7564C10.2573 14.7647 10.2646 14.7753 10.2692 14.787C10.2913 14.8415 10.2922 14.9351 10.322 14.9453C10.3391 14.9504 10.3467 14.9317 10.3476 14.9181C10.3484 14.9045 10.3356 14.9062 10.3305 14.9036C10.3254 14.9011 10.3229 14.896 10.3169 14.8849C10.319 14.8623 10.319 14.8395 10.3169 14.8168C10.3109 14.776 10.2999 14.7683 10.2922 14.7317L10.2828 14.7036C10.2777 14.69 10.27 14.6585 10.2607 14.6525C10.2513 14.6466 10.2428 14.6338 10.2359 14.6236C10.2291 14.6134 10.218 14.5998 10.2249 14.5836C10.2317 14.5674 10.2419 14.5632 10.2479 14.5521C10.2507 14.5447 10.2507 14.5365 10.2479 14.5291C10.2479 14.5146 10.2479 14.5172 10.2393 14.5095C10.2308 14.5019 10.2393 14.4917 10.2112 14.4823C10.2048 14.4803 10.198 14.4803 10.1916 14.4823C10.1822 14.4866 10.1874 14.4883 10.1729 14.4925C10.1584 14.4968 10.1507 14.5053 10.155 14.5274C10.1563 14.535 10.1563 14.5428 10.155 14.5504C10.155 14.5572 10.155 14.5717 10.1422 14.57C10.1388 14.5678 10.135 14.566 10.1311 14.5649C10.1266 14.5645 10.122 14.5645 10.1175 14.5649C10.1013 14.5649 10.1175 14.5649 10.0936 14.5572L10.0536 14.5512C10.0382 14.5512 10.0467 14.5453 10.0323 14.5453C10.0178 14.5453 10.0254 14.5453 10.0075 14.5453C9.98964 14.5453 9.97004 14.5453 9.94788 14.5453C9.94788 14.5393 9.94788 14.5368 9.93851 14.5351C9.92913 14.5334 9.93851 14.5223 9.93851 14.5163C9.93851 14.5104 9.93851 14.5078 9.93339 14.4993C9.92828 14.4908 9.93339 14.4908 9.92743 14.4874C9.92146 14.484 9.91124 14.4968 9.91124 14.5078C9.90962 14.52 9.91187 14.5324 9.91768 14.5433C9.9235 14.5541 9.93257 14.5629 9.94362 14.5683C9.95064 14.5744 9.95918 14.5785 9.96834 14.5802C9.98063 14.5862 9.99347 14.591 10.0067 14.5947H10.0212C10.0467 14.6006 10.0604 14.5947 10.0723 14.6159C10.0842 14.6372 10.1004 14.6381 10.1021 14.6585C10.1012 14.6795 10.0978 14.7004 10.0919 14.7206C10.0875 14.7428 10.0858 14.7653 10.0868 14.7879C10.0868 14.8304 10.0868 14.8126 10.074 14.8483C10.0602 14.8724 10.0504 14.8985 10.045 14.9258C10.0439 14.9362 10.0416 14.9465 10.0382 14.9564C10.0299 14.9933 10.0248 15.0309 10.0229 15.0688C10.0184 15.097 10.0184 15.1257 10.0229 15.1539C10.0276 15.1691 10.0276 15.1854 10.0229 15.2007C10.0229 15.2092 10.0178 15.2066 10.0229 15.2169L10.0024 15.2398C9.9922 15.2569 10.0024 15.2518 9.98368 15.2645C9.96493 15.2773 9.96663 15.2807 9.96663 15.2909C9.96706 15.2983 9.96706 15.3057 9.96663 15.313C9.96663 15.319 9.96663 15.3241 9.95811 15.3258C9.80997 15.3531 9.67362 15.4247 9.56709 15.5311C9.46057 15.6375 9.38889 15.7737 9.36154 15.9216C9.3549 15.9225 9.34834 15.9239 9.34194 15.9259C9.32404 15.9335 9.34194 15.942 9.27888 15.942L9.27206 15.9318C9.27206 15.8952 9.25672 15.8986 9.23115 15.8952C9.20558 15.8918 9.21751 15.8952 9.21325 15.8952C9.20899 15.8952 9.22519 15.8569 9.16894 15.8569C9.1553 15.8569 9.15956 15.862 9.14934 15.8646C9.13229 15.8391 9.16212 15.8101 9.10331 15.8101C9.06667 15.8101 9.07349 15.8671 9.07178 15.9003C9.07178 16.0016 9.07178 16.1744 9.07178 16.2502C9.07178 16.2893 9.07178 16.2825 9.1178 16.2791C9.134 16.2791 9.1374 16.2655 9.1374 16.2485C9.1374 16.2314 9.14507 16.2391 9.18172 16.2348C9.20388 16.2348 9.20132 16.2221 9.20558 16.2025H9.25416C9.26268 16.1982 9.27035 16.177 9.27206 16.165C9.2902 16.1668 9.30846 16.1668 9.3266 16.165C9.3266 16.1863 9.34024 16.1872 9.35473 16.1872C9.37562 16.3353 9.44057 16.4737 9.54117 16.5845C9.64176 16.6953 9.77336 16.7733 9.91891 16.8085C9.91834 16.8099 9.91805 16.8113 9.91805 16.8128C9.91805 16.8142 9.91834 16.8157 9.91891 16.817C9.92828 16.9081 9.96237 16.9132 9.96493 16.9413C9.96493 16.9558 9.93595 16.949 9.91464 16.9473C9.89334 16.9456 9.89419 16.9524 9.89419 16.9754C9.87715 17.2418 9.88055 17.629 9.82857 17.8793L9.81152 17.9644C9.80881 17.9677 9.80678 17.9714 9.80556 17.9755C9.78769 18.0446 9.75074 18.1074 9.69891 18.1566C9.64708 18.2058 9.58245 18.2395 9.51239 18.2538C9.35728 18.2895 9.42717 18.3602 9.37007 18.3627C9.33683 18.3627 9.32319 18.3696 9.30615 18.3696C9.2891 18.3696 9.28484 18.3696 9.27547 18.3696C9.26609 18.3696 9.25501 18.3653 9.24564 18.3696C9.22473 18.376 9.20511 18.3861 9.18769 18.3993C9.15956 18.4206 9.1553 18.5696 9.12718 18.6028C9.12718 18.6028 9.12718 18.6028 9.12718 18.6087V18.6189C9.12718 18.63 9.12718 18.6249 9.11695 18.6351C9.06241 18.7032 9.07263 18.8054 9.06241 18.8854C9.05729 18.8973 9.06241 18.9041 9.04451 18.9066C9.02661 18.9092 9.0394 18.9024 9.03173 18.9066C9.02406 18.9109 9.0215 18.9271 9.01809 18.9322C9.01468 18.9373 8.97974 18.939 8.97718 18.9747C8.96611 18.9832 8.97207 19.0232 8.97037 19.0428V19.1279H8.30392C9.19791 15.8935 9.22433 6.2754 9.08712 0.801579V0.787109ZM12.8983 1.42293L14.0011 2.14982C11.5884 7.29084 12.0333 15.0824 14.3156 19.1339H12.6537C11.5339 16.4476 10.5095 7.47298 12.9017 1.42974L12.8983 1.42293ZM7.10312 1.42293L6.00032 2.15237C8.41215 7.29084 7.96814 15.0824 5.68926 19.1339H7.35112C8.47096 16.4476 9.49534 7.47298 7.10312 1.42974V1.42293ZM14.6164 2.75585L15.2556 3.57041C12.0998 8.64844 13.8043 17.1694 17.2925 19.1416C16.1845 19.1416 16.5382 19.1339 15.4303 19.1339C13.7361 16.6868 10.9655 9.96689 14.6164 2.7584V2.75585ZM5.38501 2.75585L4.74583 3.57041C7.90507 8.64844 6.20145 17.1694 2.70898 19.1416C3.81689 19.1416 3.46321 19.1339 4.57112 19.1339C6.26622 16.6868 9.03599 9.96689 5.38501 2.7584V2.75585Z" fill="white"/>
</mask>
<g mask="url(#mask0_3486_21293)">
<path fill-rule="evenodd" clip-rule="evenodd" d="M2.70898 0.787109H17.2925V19.1416H2.70898V0.787109Z" fill="#FED15E"/>
</g>
</svg>
