<svg width="151" height="150" viewBox="0 0 151 150" fill="none" xmlns="http://www.w3.org/2000/svg">
<path d="M104 19.5L90 11L73.5 98.5L54 20.5L51 30L67.5 94L57.5 123.5H94L84.5 93L104 19.5Z" fill="white"/>
<path d="M83 10L59 17L73.5 74.5L83 10Z" fill="white"/>
<path d="M96.5 129H56L52 139.5H99.5L96.5 129Z" fill="white"/>
<path d="M134 57.5L107.5 31.5L103.5 42.5L123 61.5V101L101 123L105 134L134 105.5V57.5Z" fill="#FF6900"/>
<path d="M47 42.5L44 31.5L17.5 57V104.5L46 134L50.5 122.5L28.5 101V61L47 42.5Z" fill="#FF6900"/>
</svg>
