<svg width="150" height="150" viewBox="0 0 150 150" fill="none" xmlns="http://www.w3.org/2000/svg">
<path fill-rule="evenodd" clip-rule="evenodd" d="M23.6154 60.7819H64.7466V5.7207H126.999L127 71.2112C127 100.301 103.778 124.027 75.3074 124.027C46.8362 124.027 23.6152 100.301 23.6152 71.2112L23.6154 60.782L23.6154 60.7819ZM76.4869 55.5738C67.6136 55.5738 60.3768 62.9683 60.3768 72.0341C60.3768 81.0994 67.6135 88.4936 76.4866 88.4936C85.3591 88.4936 92.596 81.0994 92.596 72.0341C92.596 62.9681 85.3591 55.574 76.4869 55.5738Z" fill="white"/>
<path fill-rule="evenodd" clip-rule="evenodd" d="M99.2884 78.1973C108.094 78.1973 115.276 85.6185 115.276 94.7176C115.276 103.816 108.094 111.238 99.2881 111.238C90.4824 111.237 83.3013 103.816 83.3013 94.7176C83.3013 85.6184 90.4825 78.1973 99.2884 78.1973Z" fill="#DC351B"/>
<path fill-rule="evenodd" clip-rule="evenodd" d="M88.9294 128.289C90.3832 128.289 91.743 128.732 92.8936 129.498L92.8938 128.482H95.7056V133.845H92.8938V133.781L92.8023 133.845C92.0531 132.439 90.5175 131.491 88.9287 131.491C86.5501 131.491 84.6105 133.615 84.6105 136.219C84.6105 138.823 86.5501 140.947 88.9287 140.947C90.8457 140.947 92.2692 139.979 92.8309 138.08H90.024V135.074H96.2734H96.2783V135.099C96.2734 136.834 96.3281 138.361 95.8379 139.772C94.9634 142.288 92.8329 144.154 88.9294 144.154C84.806 144.154 81.4435 140.591 81.4435 136.221C81.4435 131.853 84.8058 128.289 88.9294 128.289ZM23.6152 143.961V140.592C24.4858 141.011 25.4121 140.997 26.1851 140.643C27.2113 140.176 27.9685 139.111 27.9685 137.673V131.496H26.0929L26.096 128.484H32.9272L32.9241 131.496H31.1722L31.1756 137.673C31.1776 141.206 29.6856 143.172 27.4129 143.917C26.1764 144.321 24.8403 144.448 23.6152 143.961ZM105.348 144.265C101.787 144.264 99.1885 142.331 99.1913 137.669L99.1946 131.491H97.4425L97.4396 128.479H104.271L104.274 131.491H102.398V137.669C102.398 138.788 103.268 140.947 105.348 140.948C107.429 140.949 108.299 138.791 108.299 137.671L108.3 131.493H106.423L106.427 128.482H113.258L113.254 131.493H111.503L111.506 137.671C111.508 142.334 108.909 144.266 105.348 144.265ZM114.416 143.962V140.947H116.316V131.491L114.416 131.488V128.481H126.84V132.897H124.042L124.032 131.491H119.513V134.662H123.321V137.669H119.513V140.947H124.174L124.173 139.827L127 139.826V143.961L114.416 143.962ZM33.9219 140.483C34.4449 140.483 34.8991 140.67 35.2825 141.041C35.6639 141.41 35.854 141.861 35.854 142.383C35.854 142.902 35.6628 143.344 35.2863 143.706C34.9098 144.068 34.4531 144.253 33.9219 144.253C33.4024 144.253 32.9575 144.068 32.5893 143.706C32.2211 143.344 32.0335 142.902 32.0335 142.383C32.0335 141.852 32.2149 141.401 32.5811 141.033C32.9475 140.665 33.3941 140.483 33.9219 140.483ZM37.624 143.962V140.947H39.5489V131.493L37.624 131.491V128.481H44.7205V131.491L42.8203 131.493V140.947H47.2694L47.2674 139.442H50.0686V143.962H37.624ZM51.6218 143.962V140.947H53.5222V131.491L51.6218 131.488V128.481H64.0458V132.897H61.2481L61.2384 131.491H56.7194V134.662H60.5268V137.669H56.7194V140.947H61.3799L61.3783 139.827L64.2058 139.826V143.961L51.6218 143.962ZM76.1247 131.492L79.8751 140.948H81.1806V143.962H74.7609V140.948H76.2643L73.2139 132.925L70.343 140.948H71.6284V143.962H65.6451V140.948H66.7881L70.4291 131.492H69.6426V128.482H76.9303V131.492H76.1247Z" fill="white"/>
</svg>
