<svg width="20" height="21" viewBox="0 0 20 21" fill="none" xmlns="http://www.w3.org/2000/svg">
<g clip-path="url(#clip0_3486_22870)">
<path d="M16.4053 1.23438C15.228 2.29091 13.1542 3.25538 10.1204 3.25538C7.08668 3.25538 3.93216 2.28638 2.76092 1.23438L0.154297 1.66001L3.00996 6.71025L16.8959 6.58799L19.8466 1.65548L16.4053 1.23438Z" fill="#131428"/>
<path d="M18.7898 11.7269C18.791 14.0388 17.8738 16.2565 16.2398 17.8922C14.6059 19.5278 12.3891 20.4474 10.0772 20.4486C7.76523 20.4498 5.54751 19.5325 3.91187 17.8986C2.27623 16.2646 1.35667 14.0479 1.35547 11.7359V11.7269C1.35547 6.9121 5.25861 3.25195 10.0719 3.25195C14.8852 3.25195 18.7898 6.9121 18.7898 11.7269Z" fill="#131428"/>
<path d="M6.14163 11.7405L6.6865 10.7459C6.56676 10.1582 6.42287 9.56908 6.25483 8.97843C5.96504 7.99434 5.61286 6.98812 5.1983 5.95975C4.69962 4.7549 4.10136 3.59372 3.40973 2.48828L1.85059 2.63921C2.6425 3.78388 3.3575 4.97989 3.99083 6.21936L4.08742 6.41104C4.34401 6.91667 4.60211 7.45702 4.85115 8.02604L4.88435 8.10301C5.40082 9.27461 5.82178 10.486 6.14314 11.7254" fill="#C7FF00"/>
<path d="M7.90175 14.8434C7.69354 14.1764 7.39872 13.5395 7.02483 12.9492C6.78566 12.5949 6.50884 12.2674 6.19922 11.9727C6.59316 13.6239 6.7939 15.269 6.52976 16.8765C6.77126 17.1527 7.70554 17.598 7.91684 17.6749V17.6613C8.17823 16.7393 8.17142 15.7618 7.89722 14.8434" fill="#C7FF00"/>
<path d="M13.9316 11.7416L13.3867 10.7439C13.5065 10.1563 13.6503 9.56713 13.8184 8.97647C14.1082 7.99239 14.4604 6.98616 14.8749 5.9578C15.3736 4.75296 15.9719 3.59178 16.6635 2.48633L18.2226 2.63726C17.4307 3.78191 16.7157 4.97793 16.0824 6.21741L15.9858 6.40909C15.7292 6.91472 15.4711 7.45506 15.2221 8.02408L15.1889 8.10106C14.6724 9.27265 14.2514 10.4841 13.9301 11.7235" fill="#C7FF00"/>
<path d="M12.1719 14.8434C12.382 14.1761 12.6789 13.5392 13.0549 12.9492C13.294 12.5948 13.5708 12.2674 13.8805 11.9727C13.4865 13.6239 13.2858 15.269 13.5499 16.8765C13.3084 17.1527 12.3741 17.598 12.1628 17.6749V17.6613C11.9015 16.7393 11.9083 15.7618 12.1825 14.8434" fill="#C7FF00"/>
<path d="M10.036 4.45438C7.94962 4.45755 5.89752 3.92374 4.07715 2.9043C4.73972 4.14558 5.3323 5.42296 5.85213 6.73046C6.30126 7.90974 6.66298 9.12048 6.93432 10.3529L9.86545 5.00831L9.96507 4.84531L10.039 4.74719L10.113 4.84531L10.2126 5.00831L13.1422 10.3544C13.4136 9.12199 13.7753 7.91125 14.2244 6.73198C14.7437 5.4245 15.3358 4.14712 15.9979 2.90581C14.1765 3.92522 12.1233 4.45853 10.036 4.45438Z" fill="#C7FF00"/>
<path d="M16.2018 6.80736L15.577 8.16577C16.2761 9.2316 16.6481 10.4788 16.6471 11.7535C16.6419 13.1786 16.1772 14.5641 15.3221 15.7042C14.4669 16.8443 13.2669 17.6782 11.9002 18.0821C11.7399 17.4546 11.6498 16.8112 11.6316 16.1637C11.637 15.5131 11.7709 14.8699 12.0255 14.271C12.128 13.977 12.2531 13.6914 12.3998 13.4167C12.6056 13.032 12.8483 12.668 13.1243 12.33C13.328 12.0402 13.4835 11.8516 13.5484 11.7776L10.0573 5.40972V5.39764L10.0452 5.375L10.0332 5.39764V5.40972L6.54207 11.7776C6.60546 11.8531 6.76243 12.0402 6.96619 12.33C7.2422 12.668 7.48483 13.032 7.69067 13.4167C7.83736 13.6914 7.96251 13.977 8.06499 14.271C8.3196 14.8699 8.45347 15.5131 8.45893 16.1637C8.44071 16.8112 8.35061 17.4546 8.19026 18.0821C6.82355 17.6782 5.62354 16.8443 4.76841 15.7042C3.91327 14.5641 3.44861 13.1786 3.4434 11.7535C3.43931 10.4847 3.80487 9.24222 4.49541 8.17784L3.87055 6.81944C2.98591 7.93893 2.41965 9.27633 2.23143 10.6907C2.04321 12.1051 2.24 13.544 2.80107 14.8559C3.36213 16.1678 4.2667 17.304 5.41943 18.1449C6.57217 18.9857 7.93038 19.5001 9.35094 19.6337H9.39623L9.52301 19.6443L9.66489 19.6533H9.73281H9.85506H10.2188H10.3411H10.409L10.5509 19.6443L10.6777 19.6337H10.7229C12.1435 19.5001 13.5017 18.9857 14.6544 18.1449C15.8072 17.304 16.7117 16.1678 17.2728 14.8559C17.8339 13.544 18.0307 12.1051 17.8425 10.6907C17.6542 9.27633 17.088 7.93893 16.2033 6.81944M10.0151 14.0416C9.56727 14.0416 9.12955 13.9088 8.75724 13.6601C8.38493 13.4113 8.09474 13.0577 7.92338 12.644C7.75203 12.2303 7.70719 11.7751 7.79455 11.3359C7.88191 10.8967 8.09753 10.4933 8.41416 10.1767C8.73079 9.86009 9.1342 9.64446 9.57337 9.5571C10.0125 9.46974 10.4678 9.51458 10.8814 9.68594C11.2951 9.8573 11.6487 10.1475 11.8975 10.5198C12.1463 10.8921 12.2791 11.3298 12.2791 11.7776C12.2791 12.3781 12.0405 12.9539 11.6159 13.3785C11.1914 13.8031 10.6155 14.0416 10.0151 14.0416Z" fill="#C7FF00"/>
<path d="M10.0043 10.9492L9.16211 11.5605L9.4836 12.5506H10.5235L10.845 11.5605L10.0043 10.9492Z" fill="#C7FF00"/>
<path d="M8.35203 11.2981L8.25996 10.7773C8.10746 11.0473 8.02011 11.3491 8.00488 11.6588L8.35203 11.2981Z" fill="#C7FF00"/>
<path d="M8.97925 13.2423L8.60645 13.1895C8.76647 13.3464 8.95166 13.4755 9.15434 13.5713L8.97925 13.2423Z" fill="#C7FF00"/>
<path d="M10.5495 9.83719C10.3732 9.78738 10.1909 9.76199 10.0077 9.76172C9.82445 9.76199 9.64214 9.78738 9.46582 9.83719L10.0077 10.0923L10.5495 9.83719Z" fill="#C7FF00"/>
<path d="M8.43457 10.5161L8.54173 11.1666L9.02321 11.3176L9.82014 10.7365V10.2218L9.21641 9.91992C8.91262 10.0517 8.64612 10.2565 8.4406 10.5161" fill="#C7FF00"/>
<path d="M8.42536 11.5195L8.00879 11.9331C8.03966 12.2993 8.1713 12.6498 8.38914 12.9459L8.91137 13.0304L9.21324 12.6123L8.91137 11.675L8.42536 11.5195Z" fill="#C7FF00"/>
<path d="M10.7909 13.2348L10.489 12.8242H9.50792L9.20605 13.2348L9.43094 13.6876C9.61474 13.7417 9.80535 13.7691 9.99695 13.7691C10.1885 13.7691 10.3791 13.7417 10.5629 13.6876L10.7909 13.2348Z" fill="#C7FF00"/>
<path d="M11.6572 11.2981L11.7493 10.7773C11.9018 11.0473 11.9891 11.3491 12.0044 11.6588L11.6572 11.2981Z" fill="#C7FF00"/>
<path d="M11.0354 13.2423L11.4082 13.1895C11.2482 13.3465 11.063 13.4755 10.8604 13.5713L11.0354 13.2423Z" fill="#C7FF00"/>
<path d="M11.5736 10.5179L11.4664 11.1684L10.985 11.3193L10.1865 10.7443V10.2296L10.7903 9.92773C11.094 10.0595 11.3605 10.2643 11.5661 10.5239" fill="#C7FF00"/>
<path d="M11.5828 11.5195L11.9994 11.9331C11.9685 12.2993 11.8369 12.6498 11.619 12.9459L11.0968 13.0304L10.7949 12.6123L11.0968 11.675L11.5828 11.5195Z" fill="#C7FF00"/>
</g>
<defs>
<clipPath id="clip0_3486_22870">
<rect width="20" height="20" fill="white" transform="translate(0 0.773438)"/>
</clipPath>
</defs>
</svg>
