<svg width="20" height="21" viewBox="0 0 20 21" fill="none" xmlns="http://www.w3.org/2000/svg">
<path fill-rule="evenodd" clip-rule="evenodd" d="M18.5485 2.77427V1.72266H1.53976V2.77427L1.53923 8.70781C1.53562 11.0389 2.24292 13.3164 3.56598 15.2342L1.44922 17.3545L2.93403 18.8419L4.91742 16.8551C5.3931 17.3297 5.90921 17.7619 6.45998 18.1466C7.46308 18.8481 8.57213 19.3838 9.74474 19.7334L10.0442 19.8227L10.3438 19.7334C15.2008 18.2898 18.554 13.7849 18.5492 8.70995L18.5487 2.7742L18.5485 2.77427Z" fill="white"/>
<path fill-rule="evenodd" clip-rule="evenodd" d="M17.4995 2.7735H2.60016L2.59962 8.70426C2.59594 11.1182 3.43315 13.4595 4.96637 15.3234L17.4996 2.78488V2.77344L17.4995 2.7735Z" fill="url(#paint0_linear_3486_22950)"/>
<path fill-rule="evenodd" clip-rule="evenodd" d="M10.0393 18.7234C14.3533 17.4384 17.4992 13.4385 17.4992 8.70317C17.4992 8.66885 17.4987 3.0591 17.4987 2.77344L4.94922 15.3341C6.2704 16.946 8.04334 18.1266 10.0393 18.7234Z" fill="white"/>
<path fill-rule="evenodd" clip-rule="evenodd" d="M5.02826 13.6179L4.93992 13.7104L5.18323 13.9651L5.12714 14.0238L4.88383 13.769L4.79555 13.8615L4.75 13.8138L4.98271 13.5701L5.02826 13.6179ZM5.40675 13.5547L5.28057 13.2582L5.3612 13.1738L5.65 13.4763L5.59744 13.5313L5.37174 13.2949L5.37032 13.2964L5.50981 13.6231L5.47055 13.6641L5.15862 13.5181L5.15721 13.5195L5.38292 13.7559L5.33036 13.8109L5.04156 13.5085L5.1229 13.4233L5.40675 13.5547Z" fill="#001F5B"/>
<path fill-rule="evenodd" clip-rule="evenodd" d="M8.25065 8.68357L8.44129 9.26854L7.94228 8.90704L7.44334 9.26854L7.63384 8.68357L7.13496 8.32201H7.75185L7.94235 7.73683L8.13291 8.32201H8.74973L8.25079 8.68357H8.25065ZM5.37905 8.68357L5.87799 8.32201H5.26123L5.0706 7.73683L4.8801 8.32201H4.26315L4.76222 8.68357L4.57159 9.26854L5.07067 8.90704L5.56954 9.26854L5.37905 8.68357ZM6.69711 10.2269L6.50647 9.64187L6.31591 10.2269H5.69909L6.19803 10.5885L6.00753 11.1734L6.50654 10.8119L7.00541 11.1734L6.81492 10.5885L7.31386 10.2269H6.69711ZM4.83055 6.3927L4.26476 5.10781H4.24679V6.82267L4.24686 6.82528C4.24686 6.84855 4.22761 6.86767 4.20434 6.86767L4.20193 6.8676H3.69461L3.69213 6.86767C3.66866 6.86767 3.64941 6.84848 3.64941 6.82507L3.64948 6.82267V3.86752L3.64941 3.86505C3.64941 3.84178 3.66859 3.82265 3.69192 3.82265L3.69467 3.82272H4.22889C4.26013 3.81951 4.28984 3.83803 4.30057 3.86746L5.07295 5.60471H5.09112L5.84976 3.86746C5.86055 3.83797 5.89039 3.81944 5.92171 3.82272H6.447L6.44968 3.82265C6.47281 3.82265 6.49186 3.84164 6.49186 3.86478L6.49179 3.86752V6.82267L6.49186 6.82541C6.49186 6.84861 6.47268 6.86774 6.44941 6.86774L6.447 6.86767H5.93954L5.93726 6.86774C5.91393 6.86774 5.89475 6.84861 5.89475 6.82541L5.89482 6.82273V5.10788H5.87678L5.31105 6.39277C5.29878 6.42901 5.26371 6.45295 5.22543 6.45121H4.91571C4.87756 6.45281 4.84269 6.42894 4.83062 6.39277M6.94761 6.86767H8.93674L8.93916 6.86774C8.96256 6.86774 8.9818 6.84855 8.9818 6.82521L8.98173 6.82267V6.3257L8.9818 6.32329C8.9818 6.30002 8.96262 6.28089 8.93929 6.28089L8.93681 6.28096H7.58978L7.58636 6.28123C7.57329 6.28123 7.56256 6.27046 7.56256 6.25749L7.56283 6.25408V3.86759L7.56289 3.86491C7.56289 3.84178 7.54385 3.82279 7.52065 3.82279L7.51797 3.82285H6.94768L6.94507 3.82279C6.92187 3.82279 6.90276 3.84184 6.90276 3.86498L6.90282 3.86766V6.8228L6.90276 6.82541C6.90276 6.84868 6.92193 6.8678 6.94527 6.8678L6.94768 6.86774M10.6381 5.03606L10.4766 5.01373C10.1264 4.96458 10.0007 4.85264 10.0007 4.67798C10.0007 4.48526 10.1397 4.34664 10.4092 4.34664C10.6607 4.34664 10.885 4.42715 11.1186 4.57948C11.126 4.58429 11.1345 4.58683 11.1433 4.58683C11.1588 4.58683 11.1732 4.57888 11.1815 4.56577L11.4554 4.1584C11.4778 4.12704 11.4734 4.10932 11.4466 4.09133C11.1905 3.89427 10.8133 3.77344 10.4093 3.77344C9.74916 3.77344 9.32719 4.1451 9.32719 4.70479C9.32719 5.24208 9.67278 5.5331 10.2926 5.61822L10.4542 5.64049C10.8179 5.68977 10.9256 5.80184 10.9256 5.98099C10.9256 6.1957 10.7461 6.34368 10.4273 6.34368C10.104 6.34368 9.83029 6.19142 9.62812 6.03027C9.61968 6.02191 9.60828 6.01723 9.59641 6.01723C9.58246 6.01723 9.56932 6.02365 9.5608 6.03468L9.2195 6.42433C9.20046 6.44666 9.20241 6.4805 9.224 6.50049C9.46197 6.72892 9.9243 6.91682 10.4005 6.91682C11.1906 6.91682 11.5994 6.50939 11.5994 5.95872C11.5994 5.40785 11.267 5.12132 10.6383 5.03619" fill="white"/>
<path fill-rule="evenodd" clip-rule="evenodd" d="M17.8495 2.77372V2.42383H2.25061L2.25055 2.77372L2.25001 8.70509C2.24647 11.0531 3.01258 13.3387 4.43037 15.2098L4.49712 15.2963L2.44978 17.3448L2.94443 17.8397L4.94448 15.8385C5.5149 16.4858 6.16076 17.0624 6.86808 17.5561C7.80922 18.214 8.84987 18.7164 9.95018 19.0441L10.05 19.0738L10.1498 19.0441C11.2501 18.7164 12.2907 18.214 13.2319 17.5561C14.1624 16.9068 14.985 16.115 15.6696 15.2099C17.0875 13.3388 17.8536 11.0532 17.85 8.70516L17.8495 2.77379L17.8495 2.77372ZM4.98808 14.7874C3.66225 13.0379 2.94597 10.9006 2.94951 8.70509C2.94951 8.67511 2.94991 4.39198 2.95005 3.12369H16.6635L4.99584 14.7975L4.98808 14.7874ZM16.6111 11.969C16.2648 12.9824 15.7587 13.9339 15.112 14.7874C14.4716 15.6341 13.7021 16.3748 12.8316 16.9822C11.9805 17.5772 11.0421 18.0362 10.05 18.3431C9.058 18.0363 8.11961 17.5772 7.26842 16.9822C6.59481 16.5119 5.98092 15.9612 5.44032 15.3424L17.1502 3.62662C17.1503 5.26147 17.1506 8.67833 17.1506 8.70509C17.1519 9.81534 16.9696 10.9182 16.6112 11.969H16.6111Z" fill="url(#paint1_radial_3486_22950)"/>
<defs>
<linearGradient id="paint0_linear_3486_22950" x1="-6.83066" y1="9.52054" x2="17.8999" y2="9.52054" gradientUnits="userSpaceOnUse">
<stop stop-color="#E2231A"/>
<stop offset="0.16" stop-color="#DB231B"/>
<stop offset="0.39" stop-color="#C7231F"/>
<stop offset="0.67" stop-color="#A72325"/>
<stop offset="0.99" stop-color="#7B232E"/>
<stop offset="1" stop-color="#79232E"/>
</linearGradient>
<radialGradient id="paint1_radial_3486_22950" cx="0" cy="0" r="1" gradientUnits="userSpaceOnUse" gradientTransform="translate(5.53529 12.3422) scale(13.3854 13.3923)">
<stop stop-color="#009ADD"/>
<stop offset="1" stop-color="#001F5B"/>
</radialGradient>
</defs>
</svg>
