<svg width="20" height="21" viewBox="0 0 20 21" fill="none" xmlns="http://www.w3.org/2000/svg">
<g clip-path="url(#clip0_3486_23023)">
<path d="M18.6731 5.16366V16.3222L10.0001 20.3037L1.32715 16.3222V5.16366L10.0045 1.20117L18.6731 5.16366Z" fill="url(#paint0_radial_3486_23023)"/>
<path d="M10.0045 1.89062L18.0107 5.5728L18.0137 15.9899L10.0001 19.7328L1.9873 15.9899L1.99023 5.5728L10.0052 1.89062H10.0045Z" fill="url(#paint1_linear_3486_23023)"/>
<path fill-rule="evenodd" clip-rule="evenodd" d="M9.99987 19.2664C12.6706 18.162 15.342 17.0568 18.0134 15.9531V16.0168C16.4384 16.9383 12.6457 18.5455 9.99987 19.7502C7.3548 18.5455 3.5621 16.9383 1.98633 16.0168V15.9531C4.65995 17.051 7.32698 18.1664 9.99987 19.2664Z" fill="white"/>
<path d="M18.673 16.3228L10 20.3043V19.751C12.6451 18.5463 16.4378 16.939 18.0128 16.0176L18.673 16.322V16.3228Z" fill="url(#paint2_linear_3486_23023)"/>
<path d="M10.0001 20.3036L1.32715 16.322L1.98659 16.0176C3.56163 16.939 7.35432 18.5463 10.0001 19.751V20.3043V20.3036Z" fill="url(#paint3_linear_3486_23023)"/>
<path fill-rule="evenodd" clip-rule="evenodd" d="M7.81215 14.3457V14.8236H6.16538V15.3038H7.59184V15.748H6.16538V16.4836H5.61426V14.3464H7.81215V14.3457Z" fill="white"/>
<path fill-rule="evenodd" clip-rule="evenodd" d="M11.0651 14.3457V14.8236H9.41831V15.3038H10.8448V15.748H9.41831V16.4836H8.86719V14.3464H11.0651V14.3457Z" fill="white"/>
<path fill-rule="evenodd" clip-rule="evenodd" d="M14.318 14.3457V14.8236H12.6712V15.3038H14.0977V15.748H12.6712V16.4836H12.1201V14.3464H14.318V14.3457Z" fill="white"/>
<path d="M12.6523 6.58738C12.6538 6.3056 12.7958 6.19582 12.9671 6.19728C13.1083 6.19801 13.2686 6.2895 13.3586 6.45125C12.9751 6.61007 12.7709 7.1224 12.7709 7.1224C12.6816 6.90063 12.6523 6.72864 12.6531 6.58811" fill="url(#paint4_radial_3486_23023)"/>
<path d="M12.8419 6.17967C12.8793 6.16796 12.9173 6.16211 12.9547 6.16211C12.9905 6.16211 13.0264 6.16796 13.06 6.17821C13.1991 6.2192 13.3074 6.32679 13.3579 6.45121C13.2796 6.34216 13.1662 6.26384 13.0447 6.23896C12.9239 6.21481 12.7936 6.25506 12.7409 6.36265C12.6846 6.46804 12.6831 6.60344 12.6934 6.73226C12.7058 6.8618 12.7351 6.99208 12.7702 7.12236C12.7065 7.00379 12.6553 6.87644 12.6312 6.74104C12.6085 6.6071 12.6011 6.46072 12.6707 6.32459C12.7065 6.25872 12.7688 6.2031 12.8412 6.18041" fill="url(#paint5_radial_3486_23023)"/>
<path d="M12.7398 6.36401C12.6901 6.48551 12.6879 6.61286 12.7054 6.73875C12.7223 6.86463 12.756 6.99052 12.7691 7.12006C12.7245 6.99784 12.6842 6.87415 12.6659 6.74387C12.6571 6.67873 12.6542 6.61139 12.6659 6.54552C12.6762 6.47965 12.7011 6.41671 12.7398 6.36328" fill="#9C9A9B"/>
<path d="M5.41023 7.23912C5.41682 6.26277 5.74251 5.66115 6.29656 5.66407C6.42757 5.66481 6.57834 5.70579 6.73862 5.79728C6.51759 5.70579 6.13335 6.0754 6.1253 7.23326C6.11578 8.68315 6.63396 11.0516 8.47615 12.6837C6.29949 11.4614 5.40072 8.78854 5.41023 7.23838" fill="url(#paint6_radial_3486_23023)"/>
<path d="M6.50602 5.84177C6.55213 5.80664 6.60994 5.78249 6.66776 5.78322C6.69265 5.78322 6.71607 5.78761 6.73876 5.79786C6.65971 5.77078 6.57628 5.80371 6.51699 5.85568C6.45625 5.90837 6.41014 5.97498 6.37135 6.04524C6.29669 6.18723 6.25351 6.34532 6.22423 6.50267C6.16641 6.82032 6.1569 7.14601 6.17447 7.46951C6.19276 7.79301 6.22643 8.11578 6.28132 8.43488L6.3267 8.67348L6.35012 8.79278L6.37793 8.91062L6.43502 9.14702L6.50236 9.3805C6.68021 10.0033 6.94223 10.6006 7.26939 11.1597C7.31184 11.2285 7.34843 11.3017 7.39454 11.3683L7.52994 11.5703L7.59727 11.6713C7.62143 11.7043 7.64631 11.7357 7.6712 11.7679L7.81904 11.9612C7.86588 12.0278 7.92224 12.0863 7.9742 12.1485L8.13376 12.3337C8.18792 12.3945 8.24793 12.4501 8.30429 12.5086L8.47555 12.6835C8.35406 12.5752 8.22963 12.4684 8.1118 12.3549L7.94127 12.1785C7.88491 12.1185 7.82563 12.0622 7.77439 11.9978L7.6185 11.8082C7.59288 11.7767 7.5658 11.7453 7.54019 11.7131L7.46846 11.6135L7.32501 11.4137C7.27597 11.3478 7.23645 11.2761 7.19107 11.2073C6.84049 10.6518 6.57115 10.0458 6.38818 9.41416L6.32158 9.17703L6.26522 8.93697L6.23741 8.81693L6.21472 8.69617C6.20008 8.61566 6.18325 8.53442 6.17007 8.45391C6.12104 8.12895 6.0881 7.80179 6.08225 7.47317C6.07566 7.14528 6.09542 6.81373 6.16568 6.4917C6.20447 6.33141 6.25717 6.17259 6.34207 6.0306C6.38525 5.96034 6.43722 5.89374 6.50309 5.8425" fill="url(#paint7_radial_3486_23023)"/>
<path d="M6.29699 5.66412C6.11914 5.66704 5.94349 5.73657 5.82199 5.86612C5.69757 5.99201 5.6156 6.15229 5.55997 6.31916C5.50362 6.48604 5.47141 6.66096 5.45312 6.83588C5.43555 7.01154 5.42823 7.18866 5.43409 7.36505C5.44726 7.71782 5.49557 8.06986 5.57095 8.41532C5.64707 8.76077 5.7488 9.10038 5.87396 9.43119C6.12061 10.0936 6.4624 10.7223 6.89642 11.2814C7.11233 11.5617 7.35312 11.823 7.61807 12.0572C7.88155 12.2936 8.16846 12.5052 8.47585 12.6845C8.16406 12.5139 7.87057 12.3097 7.59977 12.0792C7.32897 11.8479 7.08305 11.5881 6.86129 11.3092C6.41629 10.7515 6.0723 10.1177 5.8198 9.45169C5.69464 9.11794 5.59437 8.77468 5.51899 8.4263C5.4458 8.07791 5.3953 7.72294 5.38944 7.36578C5.38578 7.1872 5.3953 7.00861 5.41579 6.83149C5.43701 6.65437 5.47141 6.47799 5.53216 6.30965C5.59291 6.14205 5.68147 5.9803 5.81101 5.85587C5.93763 5.72706 6.11841 5.66192 6.29553 5.66412" fill="#231F20"/>
<path d="M6.96773 6.16408C7.139 6.16481 7.27879 6.27679 7.27733 6.55857C7.2766 6.6991 7.24512 6.87036 7.1529 7.09139C7.1529 7.09139 6.95529 6.57687 6.57324 6.41292C6.66473 6.25264 6.82648 6.16262 6.967 6.16408H6.96773Z" fill="url(#paint8_radial_3486_23023)"/>
<path d="M6.8743 6.13842C6.9087 6.12817 6.94602 6.12305 6.98262 6.12305C7.02068 6.12305 7.05873 6.12963 7.09606 6.14134C7.16998 6.1655 7.23293 6.22332 7.26879 6.29138C7.33759 6.43044 7.32734 6.57756 7.30246 6.71222C7.27538 6.84763 7.22268 6.97498 7.15315 7.09135C7.18608 6.96034 7.21682 6.83079 7.22927 6.70125C7.23951 6.57316 7.23951 6.43849 7.18535 6.3353C7.13632 6.23064 7.01043 6.18892 6.89113 6.20941C6.77037 6.23137 6.65692 6.30675 6.57422 6.41288C6.62326 6.28626 6.7345 6.17867 6.8743 6.13769" fill="url(#paint9_radial_3486_23023)"/>
<path d="M10.2975 5.65749C10.8011 5.66042 11.1816 5.93488 11.2497 6.30742C11.3083 6.55992 11.227 6.73045 11.5988 6.80291L11.5981 6.91416C11.5966 7.14544 11.7269 7.27718 12.652 7.39355C12.783 7.41478 12.813 7.44478 12.8123 7.54579L12.8101 7.87807C12.349 7.66362 11.3727 7.53627 9.96377 7.52749C8.5556 7.51871 7.56827 7.63288 7.10425 7.84147H7.10352L7.10571 7.50919C7.10644 7.40819 7.13718 7.37891 7.27771 7.35915C8.20429 7.25449 8.33603 7.12421 8.3375 6.89293L8.33823 6.78169C8.71076 6.71362 8.63172 6.54235 8.69393 6.29058C8.76639 5.91878 9.15063 5.64944 9.65418 5.65237L10.2975 5.65676V5.65749Z" fill="url(#paint10_radial_3486_23023)"/>
<path d="M7.10327 7.84155C7.32211 7.73982 7.55997 7.68639 7.79638 7.64028C8.03351 7.5971 8.27358 7.56928 8.51364 7.54806C8.99449 7.50561 9.47681 7.49683 9.9584 7.49609C10.44 7.50268 10.9223 7.51732 11.4024 7.56562C11.6425 7.59051 11.8818 7.62125 12.119 7.66736C12.3546 7.71639 12.5918 7.77275 12.8091 7.87814C12.5866 7.78666 12.3495 7.73689 12.1131 7.6981C11.876 7.65858 11.6374 7.63296 11.398 7.61466C10.9187 7.5766 10.4385 7.56123 9.95767 7.55977C9.47755 7.55465 8.99669 7.56489 8.5173 7.59636C8.27797 7.61247 8.03863 7.63515 7.80077 7.67102C7.56363 7.70688 7.3265 7.75299 7.10254 7.84155" fill="#231F20"/>
<path d="M8.90788 6.64143C8.85226 6.62094 9.05719 6.36185 9.13331 6.10715C9.23065 5.78292 9.47803 5.85757 9.35434 6.1635C9.26286 6.39112 8.99791 6.6751 8.90788 6.64143Z" fill="#231F20"/>
<path d="M11.4198 6.81465C11.1768 6.83953 10.9338 6.85124 10.6908 6.85929C10.4478 6.86807 10.2048 6.86881 9.96258 6.86881C9.72032 6.86588 9.47733 6.86222 9.23507 6.85051C8.99208 6.83953 8.74983 6.82416 8.50684 6.79635C8.74983 6.77146 8.99282 6.75902 9.23581 6.7517C9.4788 6.74292 9.72179 6.74219 9.96331 6.74219C10.2063 6.74512 10.4486 6.74951 10.6916 6.76122C10.9345 6.7722 11.1775 6.78757 11.4198 6.81538V6.81465Z" fill="white"/>
<path d="M10.5176 7.27368L10.7855 7.26562L11.0533 7.26636C11.2319 7.26782 11.4105 7.27002 11.5891 7.2766C11.7677 7.28392 11.9462 7.2949 12.1241 7.3132C12.2127 7.32198 12.3019 7.33296 12.3905 7.34467C12.4783 7.35931 12.5662 7.37687 12.654 7.39444C12.5654 7.38273 12.4769 7.37175 12.3883 7.36297C12.3005 7.35126 12.2119 7.34028 12.1226 7.3315C11.9455 7.31393 11.7669 7.30222 11.5891 7.2949C11.4112 7.28758 11.2326 7.28539 11.0548 7.28392L10.7869 7.28319L10.519 7.27294L10.5176 7.27368Z" fill="white"/>
<path fill-rule="evenodd" clip-rule="evenodd" d="M13.201 5.83903C13.3627 5.74974 13.5142 5.71022 13.6445 5.71095C14.1978 5.71461 14.5162 6.32062 14.5103 7.29697C14.4993 9.00815 13.4359 11.5778 11.3946 12.773C10.8494 13.1016 10.2031 13.289 9.92206 13.2868C9.15723 13.2817 7.92764 11.7725 7.36847 9.7803C7.36847 9.7803 7.43873 9.79054 7.47899 9.79128C8.53585 9.79786 9.19748 8.77247 10.1226 8.74905C9.97183 8.65757 9.75153 8.6056 9.5305 8.60414C8.43338 8.59682 8.05645 9.26943 7.28943 9.50584C7.21111 9.14281 7.14305 8.77979 7.11523 8.42775C7.11743 8.09547 8.78908 7.94543 9.96598 7.95275C11.1341 7.96007 12.7933 8.13206 12.7911 8.4541C12.7904 8.5551 12.7896 8.66562 12.7794 8.76589C12.7589 8.75564 12.6886 8.74539 12.6286 8.74466C11.5718 8.73808 10.9065 10.0306 9.63004 9.9318C9.85034 10.1148 10.1936 10.1484 10.4154 10.1492C11.32 10.155 12.3783 9.14721 12.7582 8.93056C12.4859 10.4888 11.3771 12.4305 10.5068 13.049C12.9704 11.9072 13.785 8.93349 13.7953 7.28233C13.8026 6.12447 13.4227 5.74974 13.2002 5.83903H13.201ZM8.2548 10.6439C8.59806 11.3166 9.3907 11.7615 10.1731 11.8128C9.48658 11.5054 8.94937 10.8401 8.70126 10.1397C8.56 10.2033 8.35287 10.4039 8.2548 10.6439Z" fill="url(#paint11_radial_3486_23023)"/>
<path d="M10.5068 13.05L10.621 12.9534C10.6605 12.9227 10.6957 12.8875 10.7308 12.8524L10.8369 12.7478L10.9357 12.6365C11.0682 12.4894 11.1882 12.3313 11.3039 12.1696C11.533 11.8461 11.7394 11.5065 11.9223 11.1537C12.109 10.8038 12.2722 10.4415 12.4149 10.0719C12.4486 9.97899 12.4859 9.88677 12.5174 9.79235L12.6088 9.50911L12.6908 9.2222L12.7589 8.93164C12.7033 9.32613 12.5949 9.71258 12.461 10.0888C12.3271 10.4642 12.1617 10.8295 11.978 11.1837C11.7891 11.5357 11.582 11.8783 11.3427 12.1981C11.1026 12.5157 10.8355 12.8209 10.5076 13.05" fill="#231F20"/>
<path d="M11.3943 12.7729C11.8583 12.4838 12.2755 12.1274 12.64 11.7241C13.0045 11.3208 13.3206 10.8744 13.5827 10.3979C13.8491 9.92439 14.0621 9.42084 14.2223 8.90119L14.2824 8.70578L14.3314 8.50743C14.3475 8.44156 14.3658 8.37569 14.379 8.30909L14.4163 8.10855C14.4463 7.97534 14.4595 7.83994 14.4778 7.70454C14.488 7.63721 14.4917 7.56914 14.4953 7.50107L14.5092 7.29688C14.5136 7.8436 14.4192 8.38887 14.2684 8.9151C14.1162 9.44133 13.901 9.94927 13.6376 10.4287C13.3689 10.9059 13.0506 11.3574 12.6751 11.7571L12.5317 11.9042L12.4599 11.9781C12.4358 12.0015 12.4087 12.0235 12.3838 12.0462L12.2301 12.1823C12.1782 12.2269 12.1291 12.2752 12.0728 12.3148C11.9622 12.3953 11.8547 12.4802 11.7419 12.5578C11.7419 12.5578 11.6431 12.6214 11.5055 12.7071C11.4419 12.7466 11.3936 12.7729 11.3936 12.7729H11.3943Z" fill="#231F20"/>
<path d="M13.2012 5.83942C13.2246 5.83063 13.2502 5.82551 13.2758 5.82624C13.2963 5.82624 13.3161 5.82917 13.3359 5.83502C13.3571 5.84307 13.379 5.85186 13.3988 5.86357C13.4171 5.87674 13.4383 5.88845 13.4552 5.90382C13.5254 5.96457 13.5767 6.04361 13.6184 6.12486C13.7018 6.2888 13.7509 6.46738 13.7838 6.64743C13.8145 6.82748 13.8321 7.01045 13.8358 7.19269C13.8423 7.37567 13.8365 7.55864 13.8233 7.74015C13.7699 8.46839 13.6045 9.18711 13.3461 9.86998C13.0863 10.5521 12.7225 11.1991 12.2483 11.7561C12.0097 12.0335 11.7433 12.286 11.4512 12.5055C11.1577 12.7214 10.843 12.9088 10.5078 13.0486C11.1555 12.7207 11.7176 12.2486 12.1721 11.6931C12.3976 11.4135 12.5988 11.1149 12.7738 10.8009C12.9502 10.4884 13.1017 10.1613 13.2283 9.82533C13.3578 9.49012 13.4632 9.14466 13.5459 8.79482C13.6316 8.4457 13.6894 8.08927 13.726 7.7321C13.7443 7.55352 13.753 7.37347 13.7538 7.19343C13.7574 7.01338 13.7465 6.83406 13.723 6.65621C13.7003 6.47909 13.6616 6.30197 13.5891 6.13876C13.5525 6.05752 13.5071 5.97848 13.4427 5.917C13.4281 5.90016 13.4091 5.88845 13.3922 5.87381C13.3739 5.86137 13.3542 5.85113 13.3344 5.84234C13.2927 5.82697 13.2466 5.82478 13.2027 5.83795" fill="url(#paint12_radial_3486_23023)"/>
<path d="M7.28906 9.50718C7.40763 9.45888 7.52547 9.41057 7.63525 9.3447C7.7465 9.28396 7.85336 9.21443 7.95948 9.1427C8.171 9.00071 8.38764 8.85799 8.62478 8.75333C8.86264 8.65013 9.121 8.59451 9.37936 8.58646C9.63479 8.57328 9.9056 8.61061 10.123 8.7504C10.0095 8.69112 9.88584 8.65745 9.76068 8.64135C9.69774 8.63257 9.63479 8.62744 9.57185 8.62671C9.50891 8.62525 9.44523 8.63257 9.38229 8.63476C9.12979 8.65233 8.88021 8.70576 8.65039 8.81115C8.53329 8.85872 8.42204 8.9202 8.31226 8.98315C8.20247 9.04755 8.09562 9.11708 7.98583 9.18295C7.87605 9.24956 7.76553 9.31543 7.64989 9.37105C7.53498 9.42887 7.41275 9.47205 7.2898 9.50645" fill="#231F20"/>
<path d="M9.62891 9.93228C9.91581 9.9418 10.1932 9.87593 10.4545 9.76395C10.7165 9.65343 10.9588 9.49973 11.1952 9.33871C11.4352 9.18136 11.6709 9.01375 11.9358 8.89152C12.0683 8.83224 12.2059 8.78247 12.3494 8.75759C12.4211 8.74588 12.4936 8.73783 12.5653 8.73856C12.637 8.73709 12.7117 8.74075 12.779 8.76637C12.7095 8.74734 12.637 8.75027 12.566 8.75539C12.495 8.75978 12.424 8.77222 12.3552 8.78759C12.2162 8.81833 12.0837 8.87176 11.9563 8.93544C11.7024 9.06352 11.4674 9.22893 11.2303 9.39068C10.9902 9.54877 10.7443 9.70539 10.4728 9.80859C10.3374 9.85982 10.1961 9.89862 10.0527 9.91911C9.90849 9.93814 9.77163 9.94985 9.62891 9.93155" fill="#231F20"/>
<path d="M12.3611 9.13584C12.4884 9.06265 12.6172 8.98361 12.7578 8.93164C12.6465 9.03045 12.5426 9.13291 12.435 9.23465C12.3259 9.33418 12.2169 9.43372 12.1013 9.52667C12.053 9.5662 12.0039 9.60499 11.9541 9.64231C11.766 9.7843 11.5662 9.91458 11.3511 10.0222C11.2157 10.0902 11.0722 10.1473 10.9229 10.1898C10.7736 10.2315 10.617 10.2571 10.4574 10.2513C10.3008 10.2469 10.15 10.2161 10.0029 10.1685C9.86018 10.1166 9.72478 10.0514 9.62891 9.93434C9.76065 10.0046 9.89166 10.0295 10.0322 10.0449C10.1712 10.0624 10.3154 10.0617 10.4516 10.05C10.5862 10.0375 10.7202 10.0053 10.8504 9.95922C10.9815 9.91458 11.111 9.85896 11.2376 9.79601C11.4916 9.67013 11.7375 9.52082 11.9849 9.36712L12.3603 9.1373" fill="url(#paint13_radial_3486_23023)"/>
<path d="M11.9537 9.64258C11.7853 9.78896 11.5153 9.97486 11.3476 10.0678C11.1903 10.1542 11.0446 10.2259 10.836 10.2654C10.6253 10.3006 10.4101 10.2991 10.2008 10.2596C10.0961 10.2383 9.99364 10.2054 9.89922 10.1571C9.80627 10.1073 9.69575 10.0158 9.62988 9.93387C9.66794 9.96974 9.73235 10.0283 9.77553 10.0576C9.81944 10.0854 9.86555 10.1095 9.91166 10.13C10.0068 10.171 10.1071 10.1981 10.2088 10.2127C10.413 10.2413 10.6231 10.2442 10.8251 10.2047C11.0293 10.171 11.2613 10.0751 11.4106 9.99243C11.5745 9.90167 11.6624 9.86068 11.9529 9.64331" fill="white"/>
<path d="M9.39015 8.85173C9.56508 8.78147 9.75756 8.7317 9.94639 8.73243C10.0057 8.73316 10.0642 8.73829 10.1221 8.74926C9.88345 8.80855 9.67706 8.90955 9.47725 9.02958C9.27817 9.14888 9.08495 9.28501 8.87929 9.41236C8.67436 9.54044 8.45552 9.65974 8.21619 9.73806C7.97832 9.81491 7.60798 9.8354 7.36719 9.78124C7.60725 9.72854 7.93514 9.65974 8.1408 9.55362C8.34647 9.44896 8.54261 9.32307 8.74535 9.19719C8.94809 9.07203 9.15814 8.94541 9.38942 8.85173" fill="url(#paint14_radial_3486_23023)"/>
<path d="M10.0261 12.9146C10.3891 12.4264 10.7192 11.4764 10.6014 10.907C10.7705 10.8887 11.0764 10.8975 11.2213 10.9546C11.1737 11.5042 10.7185 12.2544 10.0254 12.9153L10.0261 12.9146Z" fill="#ED1C24"/>
<path d="M10.9886 11.4801C11.0793 11.3132 11.1576 11.1427 11.222 10.9531C11.2469 11.1522 11.2067 11.3571 11.1415 11.5474C11.0749 11.7377 10.9805 11.917 10.87 12.0832C10.7595 12.25 10.6314 12.4037 10.4909 12.5435C10.3489 12.6826 10.1967 12.8107 10.0254 12.9139C10.1352 12.747 10.2523 12.5918 10.3635 12.4359C10.4762 12.2801 10.5875 12.1242 10.6921 11.9661C10.7968 11.8072 10.8971 11.647 10.9878 11.4808" fill="url(#paint15_radial_3486_23023)"/>
<path d="M8.25464 10.6445C8.39224 10.7931 8.52764 10.9241 8.67255 11.042C8.81747 11.1598 8.97043 11.2637 9.12999 11.3574C9.28954 11.4504 9.45568 11.5331 9.62914 11.6077C9.8026 11.6824 9.98118 11.7468 10.1722 11.8141C9.97313 11.8558 9.76747 11.8456 9.56766 11.8046C9.36786 11.7629 9.17463 11.6875 8.99678 11.5836C8.81966 11.4796 8.65791 11.3457 8.5269 11.1876C8.39663 11.0288 8.29489 10.8443 8.25391 10.6453L8.25464 10.6445Z" fill="url(#paint16_radial_3486_23023)"/>
<path d="M9.97922 4.375C10.2493 4.66849 10.3474 5.03151 10.3459 5.30305C10.2251 5.32281 10.0839 5.31183 9.97337 5.27084C9.86285 5.31037 9.72233 5.31988 9.60156 5.29865C9.60303 5.02712 9.70622 4.66483 9.97922 4.375Z" fill="url(#paint17_radial_3486_23023)"/>
<path d="M9.97948 4.28125L10.0249 4.33175C10.1442 4.46422 10.2378 4.61939 10.2927 4.78699C10.3491 4.95386 10.371 5.13245 10.3447 5.30298C10.3183 5.13318 10.27 4.97289 10.202 4.82285C10.1427 4.69624 10.0666 4.5762 9.97801 4.47081C9.88945 4.57474 9.81041 4.69477 9.75039 4.81993C9.6794 4.9685 9.62963 5.12879 9.60108 5.29786C9.57693 5.12732 9.60109 4.94874 9.65964 4.7826C9.71746 4.61573 9.8126 4.46203 9.93263 4.33102L9.97948 4.28125Z" fill="url(#paint18_radial_3486_23023)"/>
<path d="M9.97264 5.34779C9.91408 5.36462 9.85187 5.36975 9.79332 5.36462C9.72598 5.35804 9.65865 5.33901 9.60156 5.29875C9.66817 5.27972 9.72818 5.26582 9.786 5.25045C9.84382 5.23581 9.89871 5.22044 9.94921 5.20214L9.9741 5.19336L9.99898 5.20214C10.0502 5.22117 10.1051 5.23727 10.1622 5.25264C10.22 5.26801 10.2786 5.28338 10.3452 5.30314C10.3166 5.32437 10.2852 5.33681 10.2522 5.34779C10.2193 5.35804 10.1863 5.36389 10.1519 5.36682C10.0927 5.37121 10.0305 5.36609 9.9719 5.34779" fill="#231F20"/>
<path d="M11.2835 7.10105C11.0632 7.11129 10.8429 7.11569 10.6226 7.11861C10.4023 7.12227 10.182 7.12008 9.9617 7.12081C9.74213 7.11715 9.52183 7.11642 9.30153 7.10983C9.08123 7.10398 8.86093 7.09739 8.64062 7.08421C8.86093 7.07397 9.08123 7.07031 9.30153 7.06665C9.52183 7.06372 9.74213 7.06519 9.9617 7.06445C10.182 7.06811 10.4023 7.06884 10.6226 7.07543C10.8429 7.08129 11.0632 7.08861 11.2835 7.10105Z" fill="#231F20"/>
</g>
<defs>
<radialGradient id="paint0_radial_3486_23023" cx="0" cy="0" r="1" gradientUnits="userSpaceOnUse" gradientTransform="translate(11.0394 10.7524) scale(25.309)">
<stop stop-color="white"/>
<stop offset="0.3" stop-color="white"/>
<stop offset="0.7" stop-color="#7B7979"/>
<stop offset="1" stop-color="#D3D2D2"/>
</radialGradient>
<linearGradient id="paint1_linear_3486_23023" x1="17.3484" y1="5.26248" x2="2.47621" y2="16.197" gradientUnits="userSpaceOnUse">
<stop stop-color="#0075BB"/>
<stop offset="0.2" stop-color="#0F5395"/>
<stop offset="0.3" stop-color="#184281"/>
<stop offset="0.4" stop-color="#21316F"/>
<stop offset="0.5" stop-color="#252966"/>
<stop offset="0.7" stop-color="#21255D"/>
<stop offset="0.8" stop-color="#1D2053"/>
<stop offset="1" stop-color="#161944"/>
</linearGradient>
<linearGradient id="paint2_linear_3486_23023" x1="14.6256" y1="20.3555" x2="14.5817" y2="16.3521" gradientUnits="userSpaceOnUse">
<stop stop-color="#DC0223"/>
<stop offset="0.2" stop-color="#DC0424"/>
<stop offset="0.4" stop-color="#DE0B2B"/>
<stop offset="0.6" stop-color="#D62B35"/>
<stop offset="0.8" stop-color="#E0BCB3"/>
<stop offset="1" stop-color="#ECECEC"/>
</linearGradient>
<linearGradient id="paint3_linear_3486_23023" x1="6.33333" y1="20.2963" x2="6.30405" y2="16.3001" gradientUnits="userSpaceOnUse">
<stop stop-color="#DB0021"/>
<stop offset="0.2" stop-color="#DE0B2B"/>
<stop offset="0.5" stop-color="#DC1931"/>
<stop offset="0.7" stop-color="#CD453B"/>
<stop offset="0.9" stop-color="#CC8F89"/>
<stop offset="1" stop-color="#D4D3D3"/>
</linearGradient>
<radialGradient id="paint4_radial_3486_23023" cx="0" cy="0" r="1" gradientUnits="userSpaceOnUse" gradientTransform="translate(13.008 6.26754) scale(0.753856 0.753854)">
<stop stop-color="#918F90"/>
<stop offset="0.3" stop-color="#918F90"/>
<stop offset="0.6" stop-color="#D3D2D2"/>
<stop offset="1" stop-color="#F4F4F4"/>
</radialGradient>
<radialGradient id="paint5_radial_3486_23023" cx="0" cy="0" r="1" gradientUnits="userSpaceOnUse" gradientTransform="translate(13.0008 6.64809) scale(0.446458)">
<stop stop-color="#918F90"/>
<stop offset="0.3" stop-color="#918F90"/>
<stop offset="0.6" stop-color="#D3D2D2"/>
<stop offset="1" stop-color="#F4F4F4"/>
</radialGradient>
<radialGradient id="paint6_radial_3486_23023" cx="0" cy="0" r="1" gradientUnits="userSpaceOnUse" gradientTransform="translate(6.9399 6.21592) scale(5.45264)">
<stop stop-color="#918F90"/>
<stop offset="0.1" stop-color="#9C9A9B"/>
<stop offset="0.3" stop-color="#9C9A9B"/>
<stop offset="0.5" stop-color="white"/>
<stop offset="0.8" stop-color="#F4F4F4"/>
<stop offset="1" stop-color="#9C9A9B"/>
</radialGradient>
<radialGradient id="paint7_radial_3486_23023" cx="0" cy="0" r="1" gradientUnits="userSpaceOnUse" gradientTransform="translate(7.29134 9.23046) scale(2.62019)">
<stop stop-color="#918F90"/>
<stop offset="0.3" stop-color="#918F90"/>
<stop offset="0.6" stop-color="#D3D2D2"/>
<stop offset="1" stop-color="#F4F4F4"/>
</radialGradient>
<radialGradient id="paint8_radial_3486_23023" cx="0" cy="0" r="1" gradientUnits="userSpaceOnUse" gradientTransform="translate(6.92528 6.23727) scale(0.761173)">
<stop stop-color="#918F90"/>
<stop offset="0.3" stop-color="#918F90"/>
<stop offset="0.6" stop-color="#D3D2D2"/>
<stop offset="1" stop-color="#F4F4F4"/>
</radialGradient>
<radialGradient id="paint9_radial_3486_23023" cx="0" cy="0" r="1" gradientUnits="userSpaceOnUse" gradientTransform="translate(6.92553 6.61049) scale(0.446457)">
<stop stop-color="#918F90"/>
<stop offset="0.3" stop-color="#918F90"/>
<stop offset="0.6" stop-color="#D3D2D2"/>
<stop offset="1" stop-color="#F4F4F4"/>
</radialGradient>
<radialGradient id="paint10_radial_3486_23023" cx="0" cy="0" r="1" gradientUnits="userSpaceOnUse" gradientTransform="translate(9.64832 6.83731) scale(3.72536)">
<stop stop-color="white"/>
<stop offset="0.3" stop-color="white"/>
<stop offset="0.6" stop-color="#7B7979"/>
<stop offset="0.7" stop-color="#D3D2D2"/>
<stop offset="1" stop-color="#D3D2D2"/>
</radialGradient>
<radialGradient id="paint11_radial_3486_23023" cx="0" cy="0" r="1" gradientUnits="userSpaceOnUse" gradientTransform="translate(9.91913 12.6266) scale(3.30818)">
<stop stop-color="#4F4C4D"/>
<stop offset="0.1" stop-color="#4F4C4D"/>
<stop offset="0.3" stop-color="#9C9A9B"/>
<stop offset="0.4" stop-color="#9C9A9B"/>
<stop offset="0.6" stop-color="#D3D2D2"/>
<stop offset="1" stop-color="#F4F4F4"/>
</radialGradient>
<radialGradient id="paint12_radial_3486_23023" cx="0" cy="0" r="1" gradientUnits="userSpaceOnUse" gradientTransform="translate(12.1663 9.43596) scale(2.84708)">
<stop stop-color="#918F90"/>
<stop offset="0.3" stop-color="#918F90"/>
<stop offset="0.6" stop-color="#D3D2D2"/>
<stop offset="1" stop-color="#F4F4F4"/>
</radialGradient>
<radialGradient id="paint13_radial_3486_23023" cx="0" cy="0" r="1" gradientUnits="userSpaceOnUse" gradientTransform="translate(11.1849 9.55375) scale(1.25154)">
<stop stop-color="#918F90"/>
<stop offset="0.3" stop-color="#918F90"/>
<stop offset="0.6" stop-color="#D3D2D2"/>
<stop offset="1" stop-color="#F4F4F4"/>
</radialGradient>
<radialGradient id="paint14_radial_3486_23023" cx="0" cy="0" r="1" gradientUnits="userSpaceOnUse" gradientTransform="translate(8.74828 9.26818) scale(1.06857)">
<stop stop-color="#918F90"/>
<stop offset="0.3" stop-color="#918F90"/>
<stop offset="0.6" stop-color="#D3D2D2"/>
<stop offset="1" stop-color="#F4F4F4"/>
</radialGradient>
<radialGradient id="paint15_radial_3486_23023" cx="0" cy="0" r="1" gradientUnits="userSpaceOnUse" gradientTransform="translate(10.6365 11.9675) scale(0.878277)">
<stop stop-color="#918F90"/>
<stop offset="0.3" stop-color="#918F90"/>
<stop offset="0.6" stop-color="#D3D2D2"/>
<stop offset="1" stop-color="#F4F4F4"/>
</radialGradient>
<radialGradient id="paint16_radial_3486_23023" cx="0" cy="0" r="1" gradientUnits="userSpaceOnUse" gradientTransform="translate(9.1578 11.2659) scale(0.878277)">
<stop stop-color="#918F90"/>
<stop offset="0.3" stop-color="#918F90"/>
<stop offset="0.6" stop-color="#D3D2D2"/>
<stop offset="1" stop-color="#F4F4F4"/>
</radialGradient>
<radialGradient id="paint17_radial_3486_23023" cx="0" cy="0" r="1" gradientUnits="userSpaceOnUse" gradientTransform="translate(9.97044 4.44453) scale(0.768493 0.768492)">
<stop stop-color="#918F90"/>
<stop offset="0.3" stop-color="#918F90"/>
<stop offset="0.6" stop-color="#D3D2D2"/>
<stop offset="1" stop-color="#F4F4F4"/>
</radialGradient>
<radialGradient id="paint18_radial_3486_23023" cx="0" cy="0" r="1" gradientUnits="userSpaceOnUse" gradientTransform="translate(9.97069 4.79577) scale(0.475733)">
<stop stop-color="#918F90"/>
<stop offset="0.3" stop-color="#918F90"/>
<stop offset="0.6" stop-color="#D3D2D2"/>
<stop offset="1" stop-color="#F4F4F4"/>
</radialGradient>
<clipPath id="clip0_3486_23023">
<rect width="20" height="20" fill="white" transform="translate(0 0.773438)"/>
</clipPath>
</defs>
</svg>
