<svg width="100" height="100" viewBox="0 0 100 100" fill="none" xmlns="http://www.w3.org/2000/svg">
<mask id="path-1-outside-1_8419_486" maskUnits="userSpaceOnUse" x="15" y="2" width="71" height="95" fill="black">
<rect fill="white" x="15" y="2" width="71" height="95"/>
<path d="M46.7412 94.9663C46.5994 94.8912 46.4494 94.8327 46.2941 94.792C45.4146 94.7108 44.5425 94.5642 43.6851 94.3535C41.325 93.5776 38.9932 92.7005 36.6389 91.8741C36.0728 91.6661 35.8861 91.3624 36.2087 90.7834C36.3884 90.4717 36.5291 90.1394 36.6275 89.7938C37.8018 86.1493 38.2704 82.3167 38.0084 78.4988C37.7991 76.5256 37.4764 74.5633 37.1652 72.6068C37.0407 71.831 36.7916 71.072 36.5652 70.1724C33.8225 75.2023 30.1157 79.6506 25.6535 83.2665C22.4286 75.4175 21.6574 66.7856 23.4406 58.495C22.6067 59.3357 21.5988 59.9863 20.4867 60.4018C19.3746 60.8173 18.1849 60.9878 17 60.9015C17.3735 58.8324 17.6056 56.7972 18.1319 54.8351C19.4264 50.2038 21.6691 45.8878 24.7197 42.157L20.6844 41.5105C23.055 36.1713 26.7133 31.4945 31.3358 27.8935C31.415 29.4621 31.4037 30.9801 31.5848 32.4756C31.692 34.1974 32.3684 35.8358 33.5091 37.1365C33.8998 37.6606 34.443 38.0531 35.0654 38.2609C34.5667 36.0161 34.3876 33.7129 34.5334 31.4186C34.5843 30.4655 34.7496 29.5217 35.0259 28.6075C35.2003 28.0436 35.5653 27.5567 36.0591 27.2289C36.553 26.9012 37.1455 26.7527 37.7368 26.8085C39.1134 27.0418 40.417 27.5883 41.5457 28.4052C41.6419 28.4783 41.823 28.4502 42.0098 28.4727C41.6966 27.4119 41.0987 26.4559 40.2801 25.7071C39.4615 24.9583 38.4532 24.445 37.3632 24.2223C37.6915 24.048 37.8613 23.9299 38.048 23.8568C41.332 22.4366 44.7691 21.3953 48.2919 20.7534C51.0239 20.3217 53.7892 20.1335 56.5549 20.1911C56.8075 20.196 57.0562 20.2535 57.285 20.3598C58.9463 21.0992 60.4402 22.1644 61.6769 23.4914C62.0293 23.9565 62.3525 24.4428 62.6446 24.9476C62.8963 23.6864 62.8104 22.3817 62.3957 21.1638C62.4446 21.1601 62.4938 21.1601 62.5428 21.1638C66.3321 22.1797 69.885 23.9214 73.0017 26.2912C73.0743 26.349 73.1346 26.4205 73.1792 26.5016C73.2239 26.5826 73.252 26.6716 73.262 26.7635C73.3989 28.7947 73.8731 30.7894 74.6656 32.6668C74.7448 32.8804 74.8467 33.0885 74.9316 33.3077C75.0165 33.527 75.0788 33.7295 75.1977 34.0892C72.3516 31.2202 69.1995 28.6677 65.7971 26.4767L64.7614 30.7046C62.2825 29.2485 59.962 27.8485 57.6133 26.5217C57.2006 26.2518 56.733 26.0756 56.2439 26.0056C55.7548 25.9356 55.2562 25.9737 54.7835 26.1169C53.2201 26.584 51.6823 27.1319 50.1766 27.7587C48.4632 28.4927 46.9402 29.6038 45.7224 31.0082C45.6402 31.1367 45.5737 31.2745 45.5243 31.4186L47.6637 32.1383L41.2287 36.6361L44.8622 36.9116L44.4943 38.958C45.264 38.6713 45.4621 39.1323 45.6263 39.7002C46.0399 40.76 46.7507 41.6798 47.6746 42.3504C48.5985 43.0211 49.6966 43.4144 50.8387 43.4839H58.915C60.0392 43.3977 61.1673 43.5909 62.1975 44.0461C62.3674 44.1305 62.707 43.9562 62.9163 43.8156C62.9729 43.7819 62.9163 43.3995 62.7918 43.2533C61.5515 41.4345 59.9748 39.8662 58.1453 38.632C57.9621 38.5056 57.7501 38.4263 57.5284 38.4014C55.6324 38.3115 53.7364 38.2889 51.8688 38.1484C50.5246 38.0569 49.2505 37.5182 48.2523 36.6192C47.4769 35.922 47.4996 35.8489 48.3202 35.2867C49.7119 34.1609 51.461 33.5631 53.2553 33.6C54.9238 33.7807 56.5109 34.4105 57.8453 35.4217C58.0397 35.5987 58.2815 35.7163 58.5415 35.7601C58.8015 35.804 59.0688 35.7724 59.3111 35.669C60.2846 35.2305 61.2242 34.7245 61.9202 34.3815C61.6882 35.0844 61.3995 36.0682 61.0374 37.0408C60.9488 37.2064 60.9282 37.3995 60.9799 37.5798C61.0316 37.7601 61.1516 37.9135 61.3146 38.0079C62.2724 38.8281 63.1796 39.7048 64.0313 40.6334C64.714 41.4851 65.3525 42.3708 65.9442 43.2871C68.9981 42.3192 72.2473 42.1259 75.3957 42.7249C72.7962 40.4277 70.5567 37.7577 68.7514 34.8033L72.1924 37.0521C72.3274 36.6704 72.5181 36.3105 72.7584 35.9839C73.0866 35.6859 73.579 35.2924 73.9243 35.3542C74.7901 35.506 75.1354 36.3156 75.3052 37.114C75.4467 37.7942 75.5995 38.5476 74.4789 38.9243L76.9691 41.9659L77.2295 41.904L77.7389 39.9531L77.9765 39.8688C79.3292 42.4438 80.8063 44.9681 81.9948 47.6162C83.261 50.352 84.1153 53.2579 84.5304 56.2406C84.6491 57.1177 84.8417 57.9779 85 58.8437V65.2867C84.9491 65.3654 84.8586 65.4329 84.8417 65.5172C84.5756 67.1702 84.3832 68.8343 84.0436 70.4759C83.755 71.8872 83.3022 73.2871 82.9117 74.7939C81.5194 72.3201 81.0949 71.9434 80.031 72.1345C79.7127 76.5836 78.3679 80.9003 76.1008 84.7503C73.8337 88.6003 70.7051 91.8804 66.9572 94.3366L65.7632 89.1923C64.9765 89.6814 64.3653 90.03 63.788 90.4291C60.8711 92.4308 57.5744 93.8216 54.0988 94.5165L51.7557 95L46.7412 94.9663ZM70.3361 70.8639C70.817 70.6266 71.2838 70.3619 71.734 70.0712C72.9921 69.0876 73.9245 67.7521 74.411 66.2369C74.8747 65.2985 75.1257 64.2704 75.1462 63.2252C75.1667 62.18 74.9563 61.1431 74.5299 60.1874C74.3722 59.8792 74.1352 59.618 73.8429 59.4303C73.5506 59.2427 73.2135 59.1353 72.8659 59.1192C72.3679 59.181 71.8641 59.2092 71.3661 59.2766C70.6924 59.2886 70.0245 59.4023 69.3853 59.614C68.6062 60.0309 67.8851 60.5469 67.2403 61.1489C65.9875 62.1361 64.5332 62.8402 62.9786 63.2121C62.5428 63.3358 62.09 63.4314 61.6656 63.5326C62.3843 65.0619 63.0748 66.4843 63.7257 67.9404C63.9011 68.3452 64.1331 68.5026 64.5406 68.4239C66.1497 68.1747 67.6558 67.4811 68.8872 66.4224C69.3343 66.0064 69.8267 65.6466 70.3021 65.2531C70.7636 67.0939 70.7753 69.0177 70.3361 70.8639ZM64.3822 46.5985C61.6259 48.0941 58.881 49.6065 56.1531 51.1581C56.0145 51.2158 55.8901 51.3025 55.7882 51.4122C55.6863 51.522 55.6094 51.6522 55.5627 51.7941C55.516 51.9359 55.5006 52.0861 55.5175 52.2345C55.5344 52.3828 55.5832 52.5257 55.6607 52.6537C56.006 53.3058 56.3512 53.9636 56.7078 54.6102C57.5567 56.1507 58.4056 57.6968 59.2772 59.2316C59.5602 59.732 59.9167 60.2042 60.5845 60.1031C61.005 60.0451 61.4211 59.9587 61.8297 59.8445C63.7312 59.2115 65.4997 58.2378 67.0478 56.9715C68.2237 55.9958 69.3406 54.952 70.3927 53.8455C70.4641 53.7475 70.5018 53.6292 70.5002 53.5082V51.2594H70.5341C70.5057 50.8682 70.5057 50.4755 70.5341 50.0843C70.5784 49.8375 70.5335 49.583 70.4071 49.3659C70.2807 49.1488 70.0811 48.9831 69.8436 48.8981C68.9033 48.4252 68.0282 47.8337 67.2403 47.1383C66.5781 46.4918 66.1593 46.1657 65.6329 46.1657C65.1869 46.2073 64.7577 46.3558 64.3822 46.5985ZM74.892 48.2122C74.3873 48.4687 73.9812 48.8825 73.7358 49.3903C73.4905 49.898 73.4195 50.4716 73.5337 51.0233C73.5847 51.3493 73.4149 51.6979 73.4375 52.024C73.4884 52.8786 73.1376 53.7781 73.7658 54.582C74.8977 56.0269 75.99 57.5056 77.1615 59.018C78.0284 57.0846 78.4286 54.9768 78.3303 52.8625C78.232 50.7483 77.638 48.6861 76.5955 46.8403C76.0627 47.3457 75.4934 47.8117 74.8921 48.2346L74.892 48.2122ZM30.9056 13.0679L37.3973 17.3013L36.0559 8.77252L45.3376 15.4291L47.9976 5.49473H48.2863L53.0347 13.6694C53.2554 14.0517 53.3346 14.1698 53.6798 13.7201C55.3381 11.5274 57.0756 9.38533 58.7452 7.22078C59.1923 6.65849 59.6055 6.0289 60.0469 5.4385C60.1937 5.28036 60.3527 5.13375 60.5223 5C60.6015 8.40712 60.6921 11.6622 60.777 15.1874L66.3856 9.00297C65.07 12.3507 64.3536 15.9012 64.2689 19.4941C59.453 18.0157 54.3763 17.5684 49.3736 18.1819C44.371 18.7953 39.5561 20.4554 35.2466 23.0528C34.5286 19.4554 33.0468 16.0514 30.8999 13.0678L30.9056 13.0679Z"/>
</mask>
<path d="M46.7412 94.9663C46.5994 94.8912 46.4494 94.8327 46.2941 94.792C45.4146 94.7108 44.5425 94.5642 43.6851 94.3535C41.325 93.5776 38.9932 92.7005 36.6389 91.8741C36.0728 91.6661 35.8861 91.3624 36.2087 90.7834C36.3884 90.4717 36.5291 90.1394 36.6275 89.7938C37.8018 86.1493 38.2704 82.3167 38.0084 78.4988C37.7991 76.5256 37.4764 74.5633 37.1652 72.6068C37.0407 71.831 36.7916 71.072 36.5652 70.1724C33.8225 75.2023 30.1157 79.6506 25.6535 83.2665C22.4286 75.4175 21.6574 66.7856 23.4406 58.495C22.6067 59.3357 21.5988 59.9863 20.4867 60.4018C19.3746 60.8173 18.1849 60.9878 17 60.9015C17.3735 58.8324 17.6056 56.7972 18.1319 54.8351C19.4264 50.2038 21.6691 45.8878 24.7197 42.157L20.6844 41.5105C23.055 36.1713 26.7133 31.4945 31.3358 27.8935C31.415 29.4621 31.4037 30.9801 31.5848 32.4756C31.692 34.1974 32.3684 35.8358 33.5091 37.1365C33.8998 37.6606 34.443 38.0531 35.0654 38.2609C34.5667 36.0161 34.3876 33.7129 34.5334 31.4186C34.5843 30.4655 34.7496 29.5217 35.0259 28.6075C35.2003 28.0436 35.5653 27.5567 36.0591 27.2289C36.553 26.9012 37.1455 26.7527 37.7368 26.8085C39.1134 27.0418 40.417 27.5883 41.5457 28.4052C41.6419 28.4783 41.823 28.4502 42.0098 28.4727C41.6966 27.4119 41.0987 26.4559 40.2801 25.7071C39.4615 24.9583 38.4532 24.445 37.3632 24.2223C37.6915 24.048 37.8613 23.9299 38.048 23.8568C41.332 22.4366 44.7691 21.3953 48.2919 20.7534C51.0239 20.3217 53.7892 20.1335 56.5549 20.1911C56.8075 20.196 57.0562 20.2535 57.285 20.3598C58.9463 21.0992 60.4402 22.1644 61.6769 23.4914C62.0293 23.9565 62.3525 24.4428 62.6446 24.9476C62.8963 23.6864 62.8104 22.3817 62.3957 21.1638C62.4446 21.1601 62.4938 21.1601 62.5428 21.1638C66.3321 22.1797 69.885 23.9214 73.0017 26.2912C73.0743 26.349 73.1346 26.4205 73.1792 26.5016C73.2239 26.5826 73.252 26.6716 73.262 26.7635C73.3989 28.7947 73.8731 30.7894 74.6656 32.6668C74.7448 32.8804 74.8467 33.0885 74.9316 33.3077C75.0165 33.527 75.0788 33.7295 75.1977 34.0892C72.3516 31.2202 69.1995 28.6677 65.7971 26.4767L64.7614 30.7046C62.2825 29.2485 59.962 27.8485 57.6133 26.5217C57.2006 26.2518 56.733 26.0756 56.2439 26.0056C55.7548 25.9356 55.2562 25.9737 54.7835 26.1169C53.2201 26.584 51.6823 27.1319 50.1766 27.7587C48.4632 28.4927 46.9402 29.6038 45.7224 31.0082C45.6402 31.1367 45.5737 31.2745 45.5243 31.4186L47.6637 32.1383L41.2287 36.6361L44.8622 36.9116L44.4943 38.958C45.264 38.6713 45.4621 39.1323 45.6263 39.7002C46.0399 40.76 46.7507 41.6798 47.6746 42.3504C48.5985 43.0211 49.6966 43.4144 50.8387 43.4839H58.915C60.0392 43.3977 61.1673 43.5909 62.1975 44.0461C62.3674 44.1305 62.707 43.9562 62.9163 43.8156C62.9729 43.7819 62.9163 43.3995 62.7918 43.2533C61.5515 41.4345 59.9748 39.8662 58.1453 38.632C57.9621 38.5056 57.7501 38.4263 57.5284 38.4014C55.6324 38.3115 53.7364 38.2889 51.8688 38.1484C50.5246 38.0569 49.2505 37.5182 48.2523 36.6192C47.4769 35.922 47.4996 35.8489 48.3202 35.2867C49.7119 34.1609 51.461 33.5631 53.2553 33.6C54.9238 33.7807 56.5109 34.4105 57.8453 35.4217C58.0397 35.5987 58.2815 35.7163 58.5415 35.7601C58.8015 35.804 59.0688 35.7724 59.3111 35.669C60.2846 35.2305 61.2242 34.7245 61.9202 34.3815C61.6882 35.0844 61.3995 36.0682 61.0374 37.0408C60.9488 37.2064 60.9282 37.3995 60.9799 37.5798C61.0316 37.7601 61.1516 37.9135 61.3146 38.0079C62.2724 38.8281 63.1796 39.7048 64.0313 40.6334C64.714 41.4851 65.3525 42.3708 65.9442 43.2871C68.9981 42.3192 72.2473 42.1259 75.3957 42.7249C72.7962 40.4277 70.5567 37.7577 68.7514 34.8033L72.1924 37.0521C72.3274 36.6704 72.5181 36.3105 72.7584 35.9839C73.0866 35.6859 73.579 35.2924 73.9243 35.3542C74.7901 35.506 75.1354 36.3156 75.3052 37.114C75.4467 37.7942 75.5995 38.5476 74.4789 38.9243L76.9691 41.9659L77.2295 41.904L77.7389 39.9531L77.9765 39.8688C79.3292 42.4438 80.8063 44.9681 81.9948 47.6162C83.261 50.352 84.1153 53.2579 84.5304 56.2406C84.6491 57.1177 84.8417 57.9779 85 58.8437V65.2867C84.9491 65.3654 84.8586 65.4329 84.8417 65.5172C84.5756 67.1702 84.3832 68.8343 84.0436 70.4759C83.755 71.8872 83.3022 73.2871 82.9117 74.7939C81.5194 72.3201 81.0949 71.9434 80.031 72.1345C79.7127 76.5836 78.3679 80.9003 76.1008 84.7503C73.8337 88.6003 70.7051 91.8804 66.9572 94.3366L65.7632 89.1923C64.9765 89.6814 64.3653 90.03 63.788 90.4291C60.8711 92.4308 57.5744 93.8216 54.0988 94.5165L51.7557 95L46.7412 94.9663ZM70.3361 70.8639C70.817 70.6266 71.2838 70.3619 71.734 70.0712C72.9921 69.0876 73.9245 67.7521 74.411 66.2369C74.8747 65.2985 75.1257 64.2704 75.1462 63.2252C75.1667 62.18 74.9563 61.1431 74.5299 60.1874C74.3722 59.8792 74.1352 59.618 73.8429 59.4303C73.5506 59.2427 73.2135 59.1353 72.8659 59.1192C72.3679 59.181 71.8641 59.2092 71.3661 59.2766C70.6924 59.2886 70.0245 59.4023 69.3853 59.614C68.6062 60.0309 67.8851 60.5469 67.2403 61.1489C65.9875 62.1361 64.5332 62.8402 62.9786 63.2121C62.5428 63.3358 62.09 63.4314 61.6656 63.5326C62.3843 65.0619 63.0748 66.4843 63.7257 67.9404C63.9011 68.3452 64.1331 68.5026 64.5406 68.4239C66.1497 68.1747 67.6558 67.4811 68.8872 66.4224C69.3343 66.0064 69.8267 65.6466 70.3021 65.2531C70.7636 67.0939 70.7753 69.0177 70.3361 70.8639ZM64.3822 46.5985C61.6259 48.0941 58.881 49.6065 56.1531 51.1581C56.0145 51.2158 55.8901 51.3025 55.7882 51.4122C55.6863 51.522 55.6094 51.6522 55.5627 51.7941C55.516 51.9359 55.5006 52.0861 55.5175 52.2345C55.5344 52.3828 55.5832 52.5257 55.6607 52.6537C56.006 53.3058 56.3512 53.9636 56.7078 54.6102C57.5567 56.1507 58.4056 57.6968 59.2772 59.2316C59.5602 59.732 59.9167 60.2042 60.5845 60.1031C61.005 60.0451 61.4211 59.9587 61.8297 59.8445C63.7312 59.2115 65.4997 58.2378 67.0478 56.9715C68.2237 55.9958 69.3406 54.952 70.3927 53.8455C70.4641 53.7475 70.5018 53.6292 70.5002 53.5082V51.2594H70.5341C70.5057 50.8682 70.5057 50.4755 70.5341 50.0843C70.5784 49.8375 70.5335 49.583 70.4071 49.3659C70.2807 49.1488 70.0811 48.9831 69.8436 48.8981C68.9033 48.4252 68.0282 47.8337 67.2403 47.1383C66.5781 46.4918 66.1593 46.1657 65.6329 46.1657C65.1869 46.2073 64.7577 46.3558 64.3822 46.5985ZM74.892 48.2122C74.3873 48.4687 73.9812 48.8825 73.7358 49.3903C73.4905 49.898 73.4195 50.4716 73.5337 51.0233C73.5847 51.3493 73.4149 51.6979 73.4375 52.024C73.4884 52.8786 73.1376 53.7781 73.7658 54.582C74.8977 56.0269 75.99 57.5056 77.1615 59.018C78.0284 57.0846 78.4286 54.9768 78.3303 52.8625C78.232 50.7483 77.638 48.6861 76.5955 46.8403C76.0627 47.3457 75.4934 47.8117 74.8921 48.2346L74.892 48.2122ZM30.9056 13.0679L37.3973 17.3013L36.0559 8.77252L45.3376 15.4291L47.9976 5.49473H48.2863L53.0347 13.6694C53.2554 14.0517 53.3346 14.1698 53.6798 13.7201C55.3381 11.5274 57.0756 9.38533 58.7452 7.22078C59.1923 6.65849 59.6055 6.0289 60.0469 5.4385C60.1937 5.28036 60.3527 5.13375 60.5223 5C60.6015 8.40712 60.6921 11.6622 60.777 15.1874L66.3856 9.00297C65.07 12.3507 64.3536 15.9012 64.2689 19.4941C59.453 18.0157 54.3763 17.5684 49.3736 18.1819C44.371 18.7953 39.5561 20.4554 35.2466 23.0528C34.5286 19.4554 33.0468 16.0514 30.8999 13.0678L30.9056 13.0679Z" fill="#3D195B"/>
<path d="M46.7412 94.9663C46.5994 94.8912 46.4494 94.8327 46.2941 94.792C45.4146 94.7108 44.5425 94.5642 43.6851 94.3535C41.325 93.5776 38.9932 92.7005 36.6389 91.8741C36.0728 91.6661 35.8861 91.3624 36.2087 90.7834C36.3884 90.4717 36.5291 90.1394 36.6275 89.7938C37.8018 86.1493 38.2704 82.3167 38.0084 78.4988C37.7991 76.5256 37.4764 74.5633 37.1652 72.6068C37.0407 71.831 36.7916 71.072 36.5652 70.1724C33.8225 75.2023 30.1157 79.6506 25.6535 83.2665C22.4286 75.4175 21.6574 66.7856 23.4406 58.495C22.6067 59.3357 21.5988 59.9863 20.4867 60.4018C19.3746 60.8173 18.1849 60.9878 17 60.9015C17.3735 58.8324 17.6056 56.7972 18.1319 54.8351C19.4264 50.2038 21.6691 45.8878 24.7197 42.157L20.6844 41.5105C23.055 36.1713 26.7133 31.4945 31.3358 27.8935C31.415 29.4621 31.4037 30.9801 31.5848 32.4756C31.692 34.1974 32.3684 35.8358 33.5091 37.1365C33.8998 37.6606 34.443 38.0531 35.0654 38.2609C34.5667 36.0161 34.3876 33.7129 34.5334 31.4186C34.5843 30.4655 34.7496 29.5217 35.0259 28.6075C35.2003 28.0436 35.5653 27.5567 36.0591 27.2289C36.553 26.9012 37.1455 26.7527 37.7368 26.8085C39.1134 27.0418 40.417 27.5883 41.5457 28.4052C41.6419 28.4783 41.823 28.4502 42.0098 28.4727C41.6966 27.4119 41.0987 26.4559 40.2801 25.7071C39.4615 24.9583 38.4532 24.445 37.3632 24.2223C37.6915 24.048 37.8613 23.9299 38.048 23.8568C41.332 22.4366 44.7691 21.3953 48.2919 20.7534C51.0239 20.3217 53.7892 20.1335 56.5549 20.1911C56.8075 20.196 57.0562 20.2535 57.285 20.3598C58.9463 21.0992 60.4402 22.1644 61.6769 23.4914C62.0293 23.9565 62.3525 24.4428 62.6446 24.9476C62.8963 23.6864 62.8104 22.3817 62.3957 21.1638C62.4446 21.1601 62.4938 21.1601 62.5428 21.1638C66.3321 22.1797 69.885 23.9214 73.0017 26.2912C73.0743 26.349 73.1346 26.4205 73.1792 26.5016C73.2239 26.5826 73.252 26.6716 73.262 26.7635C73.3989 28.7947 73.8731 30.7894 74.6656 32.6668C74.7448 32.8804 74.8467 33.0885 74.9316 33.3077C75.0165 33.527 75.0788 33.7295 75.1977 34.0892C72.3516 31.2202 69.1995 28.6677 65.7971 26.4767L64.7614 30.7046C62.2825 29.2485 59.962 27.8485 57.6133 26.5217C57.2006 26.2518 56.733 26.0756 56.2439 26.0056C55.7548 25.9356 55.2562 25.9737 54.7835 26.1169C53.2201 26.584 51.6823 27.1319 50.1766 27.7587C48.4632 28.4927 46.9402 29.6038 45.7224 31.0082C45.6402 31.1367 45.5737 31.2745 45.5243 31.4186L47.6637 32.1383L41.2287 36.6361L44.8622 36.9116L44.4943 38.958C45.264 38.6713 45.4621 39.1323 45.6263 39.7002C46.0399 40.76 46.7507 41.6798 47.6746 42.3504C48.5985 43.0211 49.6966 43.4144 50.8387 43.4839H58.915C60.0392 43.3977 61.1673 43.5909 62.1975 44.0461C62.3674 44.1305 62.707 43.9562 62.9163 43.8156C62.9729 43.7819 62.9163 43.3995 62.7918 43.2533C61.5515 41.4345 59.9748 39.8662 58.1453 38.632C57.9621 38.5056 57.7501 38.4263 57.5284 38.4014C55.6324 38.3115 53.7364 38.2889 51.8688 38.1484C50.5246 38.0569 49.2505 37.5182 48.2523 36.6192C47.4769 35.922 47.4996 35.8489 48.3202 35.2867C49.7119 34.1609 51.461 33.5631 53.2553 33.6C54.9238 33.7807 56.5109 34.4105 57.8453 35.4217C58.0397 35.5987 58.2815 35.7163 58.5415 35.7601C58.8015 35.804 59.0688 35.7724 59.3111 35.669C60.2846 35.2305 61.2242 34.7245 61.9202 34.3815C61.6882 35.0844 61.3995 36.0682 61.0374 37.0408C60.9488 37.2064 60.9282 37.3995 60.9799 37.5798C61.0316 37.7601 61.1516 37.9135 61.3146 38.0079C62.2724 38.8281 63.1796 39.7048 64.0313 40.6334C64.714 41.4851 65.3525 42.3708 65.9442 43.2871C68.9981 42.3192 72.2473 42.1259 75.3957 42.7249C72.7962 40.4277 70.5567 37.7577 68.7514 34.8033L72.1924 37.0521C72.3274 36.6704 72.5181 36.3105 72.7584 35.9839C73.0866 35.6859 73.579 35.2924 73.9243 35.3542C74.7901 35.506 75.1354 36.3156 75.3052 37.114C75.4467 37.7942 75.5995 38.5476 74.4789 38.9243L76.9691 41.9659L77.2295 41.904L77.7389 39.9531L77.9765 39.8688C79.3292 42.4438 80.8063 44.9681 81.9948 47.6162C83.261 50.352 84.1153 53.2579 84.5304 56.2406C84.6491 57.1177 84.8417 57.9779 85 58.8437V65.2867C84.9491 65.3654 84.8586 65.4329 84.8417 65.5172C84.5756 67.1702 84.3832 68.8343 84.0436 70.4759C83.755 71.8872 83.3022 73.2871 82.9117 74.7939C81.5194 72.3201 81.0949 71.9434 80.031 72.1345C79.7127 76.5836 78.3679 80.9003 76.1008 84.7503C73.8337 88.6003 70.7051 91.8804 66.9572 94.3366L65.7632 89.1923C64.9765 89.6814 64.3653 90.03 63.788 90.4291C60.8711 92.4308 57.5744 93.8216 54.0988 94.5165L51.7557 95L46.7412 94.9663ZM70.3361 70.8639C70.817 70.6266 71.2838 70.3619 71.734 70.0712C72.9921 69.0876 73.9245 67.7521 74.411 66.2369C74.8747 65.2985 75.1257 64.2704 75.1462 63.2252C75.1667 62.18 74.9563 61.1431 74.5299 60.1874C74.3722 59.8792 74.1352 59.618 73.8429 59.4303C73.5506 59.2427 73.2135 59.1353 72.8659 59.1192C72.3679 59.181 71.8641 59.2092 71.3661 59.2766C70.6924 59.2886 70.0245 59.4023 69.3853 59.614C68.6062 60.0309 67.8851 60.5469 67.2403 61.1489C65.9875 62.1361 64.5332 62.8402 62.9786 63.2121C62.5428 63.3358 62.09 63.4314 61.6656 63.5326C62.3843 65.0619 63.0748 66.4843 63.7257 67.9404C63.9011 68.3452 64.1331 68.5026 64.5406 68.4239C66.1497 68.1747 67.6558 67.4811 68.8872 66.4224C69.3343 66.0064 69.8267 65.6466 70.3021 65.2531C70.7636 67.0939 70.7753 69.0177 70.3361 70.8639ZM64.3822 46.5985C61.6259 48.0941 58.881 49.6065 56.1531 51.1581C56.0145 51.2158 55.8901 51.3025 55.7882 51.4122C55.6863 51.522 55.6094 51.6522 55.5627 51.7941C55.516 51.9359 55.5006 52.0861 55.5175 52.2345C55.5344 52.3828 55.5832 52.5257 55.6607 52.6537C56.006 53.3058 56.3512 53.9636 56.7078 54.6102C57.5567 56.1507 58.4056 57.6968 59.2772 59.2316C59.5602 59.732 59.9167 60.2042 60.5845 60.1031C61.005 60.0451 61.4211 59.9587 61.8297 59.8445C63.7312 59.2115 65.4997 58.2378 67.0478 56.9715C68.2237 55.9958 69.3406 54.952 70.3927 53.8455C70.4641 53.7475 70.5018 53.6292 70.5002 53.5082V51.2594H70.5341C70.5057 50.8682 70.5057 50.4755 70.5341 50.0843C70.5784 49.8375 70.5335 49.583 70.4071 49.3659C70.2807 49.1488 70.0811 48.9831 69.8436 48.8981C68.9033 48.4252 68.0282 47.8337 67.2403 47.1383C66.5781 46.4918 66.1593 46.1657 65.6329 46.1657C65.1869 46.2073 64.7577 46.3558 64.3822 46.5985ZM74.892 48.2122C74.3873 48.4687 73.9812 48.8825 73.7358 49.3903C73.4905 49.898 73.4195 50.4716 73.5337 51.0233C73.5847 51.3493 73.4149 51.6979 73.4375 52.024C73.4884 52.8786 73.1376 53.7781 73.7658 54.582C74.8977 56.0269 75.99 57.5056 77.1615 59.018C78.0284 57.0846 78.4286 54.9768 78.3303 52.8625C78.232 50.7483 77.638 48.6861 76.5955 46.8403C76.0627 47.3457 75.4934 47.8117 74.8921 48.2346L74.892 48.2122ZM30.9056 13.0679L37.3973 17.3013L36.0559 8.77252L45.3376 15.4291L47.9976 5.49473H48.2863L53.0347 13.6694C53.2554 14.0517 53.3346 14.1698 53.6798 13.7201C55.3381 11.5274 57.0756 9.38533 58.7452 7.22078C59.1923 6.65849 59.6055 6.0289 60.0469 5.4385C60.1937 5.28036 60.3527 5.13375 60.5223 5C60.6015 8.40712 60.6921 11.6622 60.777 15.1874L66.3856 9.00297C65.07 12.3507 64.3536 15.9012 64.2689 19.4941C59.453 18.0157 54.3763 17.5684 49.3736 18.1819C44.371 18.7953 39.5561 20.4554 35.2466 23.0528C34.5286 19.4554 33.0468 16.0514 30.8999 13.0678L30.9056 13.0679Z" stroke="white" stroke-width="2" mask="url(#path-1-outside-1_8419_486)"/>
</svg>
