<svg width="40" height="40" viewBox="0 0 40 40" fill="none" xmlns="http://www.w3.org/2000/svg">
<g clip-path="url(#clip0_3422_8918)">
<mask id="mask0_3422_8918" style="mask-type:luminance" maskUnits="userSpaceOnUse" x="0" y="0" width="87" height="40">
<path d="M86.6021 0H0V40H86.6021V0Z" fill="white"/>
</mask>
<g mask="url(#mask0_3422_8918)">
<path d="M6.62761 25.4923C5.68008 25.4923 4.91594 26.2565 4.91594 27.204C4.91594 28.1515 5.68518 28.9157 6.62761 28.9157C7.57005 28.9157 8.33928 28.1464 8.33928 27.204C8.33928 26.2616 7.57005 25.4923 6.62761 25.4923ZM2.50637 24.1576C1.60469 24.1576 0.871116 24.8912 0.871116 25.7929C0.871116 26.6946 1.60469 27.4281 2.50637 27.4281C3.40805 27.4281 4.14162 26.6946 4.14162 25.7929C4.14162 24.8912 3.40805 24.1576 2.50637 24.1576ZM1.95619 19.6034C0.87621 19.6034 0 20.4796 0 21.5596C0 22.6396 0.87621 23.5158 1.95619 23.5158C3.03617 23.5158 3.91238 22.6396 3.91238 21.5596C3.91238 20.4796 3.03617 19.6034 1.95619 19.6034ZM2.33316 14.6722C1.17168 14.6722 0.229241 15.6146 0.229241 16.7761C0.229241 17.9376 1.17168 18.88 2.33316 18.88C3.49465 18.88 4.43709 17.9376 4.43709 16.7761C4.43709 15.6146 3.49465 14.6722 2.33316 14.6722ZM4.12124 9.74096C2.87315 9.74096 1.8594 10.7547 1.8594 12.0028C1.8594 13.2509 2.87315 14.2646 4.12124 14.2646C5.36933 14.2646 6.38309 13.2509 6.38309 12.0028C6.38309 10.7547 5.36933 9.74096 4.12124 9.74096ZM9.80132 9.39455C8.35965 9.39455 7.19307 10.5611 7.19307 12.0028C7.19307 13.4444 8.35965 14.611 9.80132 14.611C11.243 14.611 12.4096 13.4444 12.4096 12.0028C12.4096 10.5611 11.243 9.39455 9.80132 9.39455ZM6.5461 20.6426C5.40499 20.6426 4.47784 21.5698 4.47784 22.7109C4.47784 23.852 5.40499 24.7791 6.5461 24.7791C7.68721 24.7791 8.61437 23.852 8.61437 22.7109C8.61437 21.5698 7.68721 20.6426 6.5461 20.6426ZM16.6786 38.6253C16.3627 38.6253 16.108 38.88 16.108 39.1958C16.108 39.5117 16.3627 39.7664 16.6786 39.7664C16.9944 39.7664 17.2491 39.5117 17.2491 39.1958C17.2491 38.88 16.9944 38.6253 16.6786 38.6253ZM14.7122 37.4383C14.2384 37.4383 13.8563 37.8204 13.8563 38.2942C13.8563 38.7679 14.2384 39.15 14.7122 39.15C15.1808 39.15 15.5629 38.7679 15.5629 38.2942C15.5629 37.8204 15.1808 37.4383 14.7122 37.4383ZM13.2858 34.9065C12.6796 34.9065 12.1854 35.4006 12.1854 36.0068C12.1854 36.6131 12.6796 37.1021 13.2858 37.1021C13.892 37.1021 14.3861 36.608 14.3861 36.0068C14.3861 35.4057 13.8971 34.9065 13.2858 34.9065ZM12.435 37.2549C12.0886 37.2549 11.8034 37.5351 11.8034 37.8866C11.8034 38.2381 12.0835 38.5183 12.435 38.5183C12.7866 38.5183 13.0667 38.2381 13.0667 37.8866C13.0667 37.5351 12.7866 37.2549 12.435 37.2549ZM8.70097 35.0695C8.32399 35.0695 8.01834 35.3752 8.01834 35.7521C8.01834 36.1291 8.32399 36.4348 8.70097 36.4348C9.07794 36.4348 9.3836 36.1291 9.3836 35.7521C9.3836 35.3752 9.07794 35.0695 8.70097 35.0695ZM10.7539 35.4057C10.2496 35.4057 9.84208 35.8133 9.84208 36.3176C9.84208 36.8219 10.2496 37.2295 10.7539 37.2295C11.2583 37.2295 11.6658 36.8219 11.6658 36.3176C11.6658 35.8133 11.2583 35.4057 10.7539 35.4057ZM8.99134 32.6396C8.44116 32.6396 7.99287 33.0878 7.99287 33.638C7.99287 34.1882 8.44116 34.6314 8.99134 34.6314C9.54152 34.6314 9.98472 34.1831 9.98472 33.638C9.98472 33.0929 9.54152 32.6396 8.99134 32.6396ZM6.60723 32.7465C6.09272 32.7465 5.68008 33.1592 5.68008 33.6737C5.68008 34.1831 6.09781 34.6008 6.60723 34.6008C7.11666 34.6008 7.53439 34.1882 7.53439 33.6737C7.53439 33.1592 7.12175 32.7465 6.60723 32.7465ZM4.98217 30.7088C4.41671 30.7088 3.95823 31.1673 3.95823 31.7277C3.95823 32.288 4.41671 32.7465 4.98217 32.7465C5.54763 32.7465 6.00102 32.288 6.00102 31.7277C6.00102 31.1622 5.54254 30.7088 4.98217 30.7088ZM3.62201 27.8866C2.90881 27.8866 2.32807 28.4674 2.32807 29.1806C2.32807 29.8938 2.90881 30.4745 3.62201 30.4745C4.3352 30.4745 4.91594 29.8988 4.91594 29.1806C4.91594 28.4623 4.3352 27.8866 3.62201 27.8866ZM7.44778 29.4607C6.7244 29.4607 6.13347 30.0517 6.13347 30.7751C6.13347 31.4984 6.71931 32.0894 7.44778 32.0894C8.17626 32.0894 8.7621 31.4984 8.7621 30.7751C8.7621 30.0517 8.17117 29.4607 7.44778 29.4607ZM11.8135 31.9009C11.0545 31.9009 10.4432 32.5173 10.4432 33.2712C10.4432 34.0252 11.0596 34.6416 11.8135 34.6416C12.5675 34.6416 13.1839 34.0252 13.1839 33.2712C13.1839 32.5173 12.5726 31.9009 11.8135 31.9009ZM10.7387 28.07C9.78095 28.07 9.00153 28.8443 9.00153 29.8072C9.00153 30.77 9.77585 31.5392 10.7387 31.5392C11.7015 31.5392 12.4758 30.7649 12.4758 29.8072C12.4758 28.8494 11.6964 28.07 10.7387 28.07ZM10.6673 23.3527C9.50586 23.3527 8.56852 24.2952 8.56852 25.4516C8.56852 26.608 9.51095 27.5555 10.6673 27.5555C11.8237 27.5555 12.7713 26.6131 12.7713 25.4516C12.7713 24.2901 11.8288 23.3527 10.6673 23.3527ZM7.57514 15.0033C6.20988 15.0033 5.09934 16.1138 5.09934 17.4791C5.09934 18.8443 6.20988 19.9549 7.57514 19.9549C8.9404 19.9549 10.0509 18.8443 10.0509 17.4791C10.0509 16.1138 8.9404 15.0033 7.57514 15.0033ZM12.3943 17.9834C10.9934 17.9834 9.85736 19.1194 9.85736 20.5203C9.85736 21.9213 10.9934 23.0522 12.3943 23.0522C13.7952 23.0522 14.9261 21.9162 14.9312 20.5203C14.9312 19.1194 13.7952 17.9834 12.3943 17.9834ZM15.2878 12.2371C13.7188 12.2371 12.4503 13.5107 12.4503 15.0746C12.4503 16.6385 13.7188 17.9121 15.2878 17.9121C16.8569 17.9121 18.1253 16.6436 18.1253 15.0746C18.1253 13.5056 16.8569 12.2371 15.2878 12.2371ZM20.3974 3.18976C19.4498 3.18976 18.6857 3.9539 18.6857 4.90143C18.6857 5.84895 19.4498 6.61309 20.3974 6.61309C21.3449 6.61309 22.109 5.84386 22.109 4.90143C22.109 3.9539 21.3398 3.18976 20.3974 3.18976ZM23.678 0.40321C22.7764 0.40321 22.0428 1.13678 22.0428 2.03846C22.0428 2.94014 22.7764 3.67371 23.678 3.67371C24.5797 3.67371 25.3133 2.94014 25.3133 2.03846C25.3133 1.13678 24.5797 0.40321 23.678 0.40321ZM27.6159 1.72262C26.5359 1.72262 25.6597 2.59883 25.6597 3.67881C25.6597 4.75879 26.5359 5.635 27.6159 5.635C28.6959 5.635 29.5721 4.75879 29.5721 3.67881C29.5721 2.59883 28.6959 1.72262 27.6159 1.72262ZM31.5741 4.29521C30.4126 4.29521 29.4702 5.23765 29.4702 6.39913C29.4702 7.56062 30.4126 8.50306 31.5741 8.50306C32.7356 8.50306 33.678 7.56062 33.678 6.39913C33.678 5.23765 32.7356 4.29521 31.5741 4.29521ZM34.8141 8.07514C33.566 8.07514 32.5522 9.08889 32.5522 10.337C32.5522 11.585 33.566 12.5988 34.8141 12.5988C36.0621 12.5988 37.0759 11.585 37.0759 10.337C37.0759 9.08889 36.0621 8.07514 34.8141 8.07514ZM31.9766 12.6446C30.5349 12.6446 29.3683 13.8112 29.3683 15.2529C29.3683 16.6946 30.5349 17.8612 31.9766 17.8612C33.4182 17.8612 34.5848 16.6946 34.5848 15.2529C34.5848 13.8112 33.4182 12.6446 31.9766 12.6446ZM24.3301 5.0084C23.189 5.0084 22.2618 5.93556 22.2618 7.07667C22.2618 8.21778 23.189 9.14493 24.3301 9.14493C25.4712 9.14493 26.3984 8.21778 26.3984 7.07667C26.3984 5.93556 25.4712 5.0084 24.3301 5.0084ZM4.98726 7.03591C4.67142 7.03591 4.41671 7.29063 4.41671 7.60647C4.41671 7.92231 4.67142 8.17702 4.98726 8.17702C5.30311 8.17702 5.55782 7.92231 5.55782 7.60647C5.55782 7.29063 5.30311 7.03591 4.98726 7.03591ZM6.75497 5.50255C6.2812 5.50255 5.89913 5.88461 5.89913 6.35838C5.89913 6.83214 6.2812 7.21421 6.75497 7.21421C7.22873 7.21421 7.6108 6.83214 7.6108 6.35838C7.6108 5.88461 7.22873 5.50255 6.75497 5.50255ZM9.44982 5.16633C8.84361 5.16633 8.34946 5.66047 8.34946 6.26668C8.34946 6.8729 8.83851 7.36704 9.44982 7.36704C10.0611 7.36704 10.5451 6.8729 10.5451 6.26668C10.5451 5.66047 10.056 5.16633 9.44982 5.16633ZM8.24758 3.95899C7.90117 3.95899 7.61589 4.23917 7.61589 4.58558C7.61589 4.93199 7.89608 5.21727 8.24758 5.21727C8.59908 5.21727 8.87927 4.93709 8.87927 4.58558C8.87927 4.23408 8.59908 3.95899 8.24758 3.95899ZM11.9613 1.74299C11.5843 1.74299 11.2787 2.04865 11.2787 2.42562C11.2787 2.8026 11.5843 3.10825 11.9613 3.10825C12.3383 3.10825 12.6439 2.8026 12.6439 2.42562C12.6439 2.04865 12.3383 1.74299 11.9613 1.74299ZM10.4483 3.00637C9.94396 3.00637 9.53642 3.41391 9.53642 3.91824C9.53642 4.42257 9.94396 4.83011 10.4483 4.83011C10.9526 4.83011 11.3602 4.42257 11.3602 3.91824C11.3602 3.41391 10.9526 3.00637 10.4483 3.00637ZM13.6526 2.74147C13.1024 2.74147 12.6541 3.18976 12.6541 3.73994C12.6541 4.29012 13.1024 4.73331 13.6526 4.73331C14.2028 4.73331 14.651 4.28502 14.651 3.73994C14.651 3.19485 14.2028 2.74147 13.6526 2.74147ZM14.8141 0.729242C14.2995 0.729242 13.8869 1.14187 13.8869 1.65639C13.8869 2.17091 14.2995 2.58354 14.8141 2.58354C15.3286 2.58354 15.7412 2.17091 15.7412 1.65639C15.7412 1.14187 15.3286 0.729242 14.8141 0.729242ZM17.3102 0.194346C16.7448 0.194346 16.2863 0.652828 16.2863 1.21319C16.2863 1.77356 16.7448 2.23204 17.3102 2.23204C17.8757 2.23204 18.3291 1.77356 18.3291 1.21319C18.3291 0.652828 17.8706 0.194346 17.3102 0.194346ZM20.1987 0.00585938C19.4855 0.00585938 18.9047 0.586603 18.9047 1.29979C18.9047 2.01299 19.4855 2.59373 20.1987 2.59373C20.9119 2.59373 21.4926 2.01299 21.4926 1.29979C21.4926 0.586603 20.9119 0.00585938 20.1987 0.00585938ZM16.9027 2.51222C16.1742 2.51222 15.5884 3.10316 15.5884 3.82654C15.5884 4.54992 16.1793 5.14085 16.9027 5.14085C17.6261 5.14085 18.217 4.54992 18.217 3.82654C18.217 3.10316 17.6312 2.51222 16.9027 2.51222ZM12.5573 4.98803C11.7983 4.98803 11.187 5.60443 11.187 6.35838C11.187 7.11233 11.7983 7.72873 12.5573 7.72873C13.3164 7.72873 13.9277 7.11233 13.9277 6.35838C13.9277 5.60443 13.3164 4.98803 12.5573 4.98803ZM16.0978 5.42613C15.1401 5.42613 14.3607 6.20046 14.3607 7.16327C14.3607 8.12608 15.1401 8.89531 16.0978 8.90041C17.0555 8.90041 17.8349 8.12099 17.8349 7.16327C17.8349 6.20555 17.0606 5.42613 16.0978 5.42613ZM19.9032 7.17346C18.7417 7.17346 17.7993 8.11589 17.7993 9.27229C17.7993 10.4286 18.7417 11.3711 19.8981 11.3711C21.0545 11.3711 22.002 10.4286 22.002 9.27229C22.002 8.11589 21.0596 7.17346 19.9032 7.17346ZM28.3546 8.1057C26.9842 8.1057 25.8788 9.21625 25.8788 10.5815C25.8788 11.9467 26.9893 13.0573 28.3546 13.0573C29.7198 13.0573 30.8304 11.9467 30.8304 10.5815C30.8304 9.21625 29.7198 8.1057 28.3546 8.1057ZM23.3113 10.7037C21.9103 10.7037 20.7743 11.8398 20.7743 13.2356C20.7743 14.6314 21.9103 15.7725 23.3113 15.7725C24.7122 15.7725 25.8431 14.6365 25.8431 13.2356C25.8431 11.8347 24.7071 10.7037 23.3113 10.7037ZM26.5767 15.6299C25.0076 15.6299 23.7392 16.9034 23.7392 18.4674C23.7392 20.0313 25.0076 21.3049 26.5767 21.3049C28.1457 21.3049 29.4142 20.0364 29.4142 18.4674C29.4142 16.8983 28.1457 15.6299 26.5767 15.6299ZM32.8324 26.2717C31.89 26.2717 31.1207 27.0359 31.1207 27.9834C31.1207 28.9309 31.8849 29.6951 32.8324 29.6951C33.7799 29.6951 34.5441 28.9309 34.5441 27.9834C34.5441 27.0359 33.7799 26.2717 32.8324 26.2717ZM33.6729 30.6222C32.7713 30.6222 32.0377 31.3558 32.0377 32.2575C32.0377 33.1592 32.7713 33.8927 33.6729 33.8927C34.5746 33.8927 35.3082 33.1592 35.3082 32.2575C35.3082 31.3558 34.5746 30.6222 33.6729 30.6222ZM30.2802 32.8943C29.2002 32.8943 28.324 33.7705 28.324 34.8505C28.324 35.9304 29.2002 36.8066 30.2802 36.8066C31.3602 36.8066 32.2364 35.9304 32.2364 34.8505C32.2364 33.7705 31.3602 32.8943 30.2802 32.8943ZM25.945 34.8148C24.7835 34.8148 23.8411 35.7572 23.8411 36.9187C23.8411 38.0802 24.7835 39.0226 25.945 39.0226C27.1065 39.0226 28.0489 38.0802 28.0489 36.9187C28.0489 35.7572 27.1065 34.8148 25.945 34.8148ZM20.917 35.4923C19.6689 35.4923 18.6551 36.5061 18.6551 37.7542C18.6551 39.0023 19.6689 40.016 20.917 40.016C22.1651 40.016 23.1788 39.0023 23.1788 37.7542C23.1788 36.5061 22.1651 35.4923 20.917 35.4923ZM18.0795 30.2249C16.6378 30.2249 15.4712 31.3915 15.4712 32.8331C15.4712 34.2748 16.6378 35.4414 18.0795 35.4414C19.5211 35.4414 20.6877 34.2748 20.6877 32.8331C20.6877 31.3915 19.5211 30.2249 18.0795 30.2249ZM28.9811 28.2279C27.84 28.2279 26.9129 29.1551 26.9129 30.2962C26.9129 31.4373 27.84 32.3645 28.9811 32.3645C30.1223 32.3645 31.0494 31.4373 31.0494 30.2962C31.0494 29.1551 30.1223 28.2279 28.9811 28.2279ZM38.1915 12.7109C37.8757 12.7109 37.621 12.9656 37.621 13.2814C37.621 13.5973 37.8757 13.852 38.1915 13.852C38.5074 13.852 38.7621 13.5973 38.7621 13.2814C38.7621 12.9656 38.5074 12.7109 38.1915 12.7109ZM38.3902 14.5805C37.9165 14.5805 37.5344 14.9625 37.5344 15.4363C37.5344 15.9101 37.9165 16.2921 38.3902 16.2921C38.864 16.2921 39.2461 15.9101 39.2461 15.4363C39.2461 14.9625 38.864 14.5805 38.3902 14.5805ZM37.1218 16.7149C36.5155 16.7149 36.0214 17.2091 36.0214 17.8153C36.0214 18.4215 36.5155 18.9157 37.1218 18.9157C37.728 18.9157 38.2221 18.4215 38.2221 17.8153C38.2221 17.2091 37.7331 16.7149 37.1218 16.7149ZM39.1747 16.9849C38.8283 16.9849 38.543 17.2651 38.543 17.6166C38.543 17.9681 38.8232 18.2483 39.1747 18.2483C39.5262 18.2483 39.8064 17.9681 39.8064 17.6166C39.8064 17.2651 39.5262 16.9849 39.1747 16.9849ZM39.2206 21.2335C38.8436 21.2335 38.538 21.5392 38.538 21.9162C38.538 22.2931 38.8436 22.5988 39.2206 22.5988C39.5976 22.5988 39.9032 22.2931 39.9032 21.9162C39.9032 21.5392 39.5976 21.2335 39.2206 21.2335ZM38.6551 18.9462C38.1508 18.9462 37.7432 19.3538 37.7432 19.8581C37.7432 20.3624 38.1508 20.77 38.6551 20.77C39.1594 20.77 39.567 20.3624 39.567 19.8581C39.567 19.3538 39.1594 18.9462 38.6551 18.9462ZM37.2134 21.7277C36.6633 21.7277 36.215 22.176 36.215 22.7211C36.215 23.2661 36.6633 23.7195 37.2134 23.7195C37.7636 23.7195 38.2119 23.2712 38.2119 22.7211C38.2119 22.1709 37.7636 21.7277 37.2134 21.7277ZM38.4361 23.8469C37.9215 23.8469 37.5089 24.2595 37.5089 24.774C37.5089 25.2886 37.9215 25.7012 38.4361 25.7012C38.9506 25.7012 39.3632 25.2886 39.3632 24.774C39.3632 24.2595 38.9506 23.8469 38.4361 23.8469ZM37.57 26.1342C37.0046 26.1342 36.5512 26.5927 36.5512 27.1531C36.5512 27.7134 37.0097 28.177 37.57 28.177C38.1304 28.177 38.5889 27.7185 38.5889 27.1531C38.5889 26.5876 38.1304 26.1342 37.57 26.1342ZM36.0367 28.3145C35.3235 28.3145 34.7427 28.8953 34.7427 29.6085C34.7427 30.3217 35.3235 30.9024 36.0367 30.9024C36.7499 30.9024 37.3306 30.3217 37.3306 29.6085C37.3306 28.8953 36.7499 28.3145 36.0367 28.3145ZM35.5069 24.1831C34.7784 24.1831 34.1926 24.7689 34.1926 25.4974C34.1926 26.2259 34.7835 26.8117 35.5069 26.8117C36.2303 26.8117 36.8212 26.2208 36.8212 25.4974C36.8212 24.774 36.2303 24.1831 35.5069 24.1831ZM35.4865 19.094C34.7275 19.094 34.1161 19.7104 34.1161 20.4643C34.1161 21.2183 34.7326 21.8347 35.4865 21.8347C36.2404 21.8347 36.8568 21.2183 36.8568 20.4643C36.8568 19.7104 36.2404 19.094 35.4865 19.094ZM33.0209 21.3966C32.0632 21.3966 31.2888 22.176 31.2888 23.1337C31.2888 24.0914 32.0632 24.8708 33.0209 24.8708C33.9786 24.8708 34.758 24.0965 34.758 23.1337C34.758 22.1709 33.9837 21.3966 33.0209 21.3966ZM29.2919 23.2661C28.1304 23.2661 27.1931 24.2086 27.1931 25.3701C27.1931 26.5316 28.1355 27.4689 29.2919 27.4689C30.4483 27.4689 31.3958 26.5265 31.3958 25.3701C31.3958 24.2137 30.4534 23.2661 29.2919 23.2661ZM23.9328 29.5575C22.5624 29.5575 21.457 30.6681 21.457 32.0333C21.457 33.3986 22.5675 34.5091 23.9328 34.5091C25.298 34.5091 26.4086 33.3986 26.4086 32.0333C26.4086 30.6681 25.298 29.5575 23.9328 29.5575ZM24.1518 23.8061C22.7509 23.8061 21.62 24.9422 21.62 26.3431C21.62 27.744 22.756 28.8749 24.1518 28.8749C25.5476 28.8749 26.6887 27.7389 26.6887 26.3431C26.6887 24.9472 25.5527 23.8061 24.1518 23.8061ZM20.8304 26.5519C20.8304 28.121 19.5619 29.3894 17.9929 29.3894C16.4238 29.3894 15.1554 28.121 15.1554 26.5519C15.1554 24.9829 16.4238 23.7144 17.9929 23.7144C19.5619 23.7144 20.8304 24.988 20.8304 26.5519Z" fill="#6B78C4"/>
</g>
</g>
<defs>
<clipPath id="clip0_3422_8918">
<rect width="40" height="40" fill="white"/>
</clipPath>
</defs>
</svg>
