<svg width="670" height="670" viewBox="0 0 670 670" fill="none" xmlns="http://www.w3.org/2000/svg">
<path d="M334.913 261.345C349.868 182.585 382.519 100.21 408.689 34.909L334.913 5L261.138 34.909C287.308 99.9612 319.959 182.585 334.913 261.345Z" fill="#F4D225"/>
<path d="M249.797 665.118C288.555 583.865 242.196 554.953 204.934 510.089C146.113 441.423 178.639 399.924 193.593 355.061C199.7 334.997 202.441 318.796 189.855 285.148C168.545 230.19 101 100.211 101 100.211L205.931 57.7148C256.029 167.88 284.691 242.652 293.539 282.656C309.74 354.064 243.442 405.034 294.786 467.593C322.202 500.244 352.236 548.846 322.202 607.667C307.372 638.823 249.797 665.118 249.797 665.118Z" fill="#2EA836"/>
<path d="M419.781 665.118C381.024 583.865 427.383 554.953 464.645 510.089C523.466 441.423 490.94 399.924 475.986 355.061C471.125 334.997 468.384 318.796 480.846 285.148C502.156 230.19 569.701 100.211 569.701 100.211L464.77 57.7148C414.672 167.88 386.009 242.652 377.161 282.656C360.96 354.064 427.259 405.034 375.915 467.593C348.498 500.244 318.465 548.846 348.498 607.667C362.331 638.823 419.781 665.118 419.781 665.118Z" fill="#D90F23"/>
</svg>
