<svg width="150" height="150" viewBox="0 0 150 150" fill="none" xmlns="http://www.w3.org/2000/svg">
<path d="M67.7301 22.4063V57.7523L67.5952 57.8868H41.2969V65.137C41.4655 73.9672 45.1015 82.3791 51.4233 88.5644C57.7451 94.7498 66.2481 98.2148 75.1046 98.2148C83.9611 98.2148 92.4641 94.7498 98.7859 88.5644C105.108 82.3791 108.744 73.9672 108.912 65.137V22.4063H67.7301Z" fill="white"/>
<path d="M89.827 69.3864C88.46 69.3864 87.1065 69.6548 85.8436 70.1765C84.5807 70.6981 83.4333 71.4627 82.4667 72.4266C81.5001 73.3905 80.7334 74.5348 80.2103 75.7941C79.6872 77.0535 79.418 78.4033 79.418 79.7664C79.418 81.1295 79.6872 82.4793 80.2103 83.7387C80.7334 84.9981 81.5001 86.1424 82.4667 87.1062C83.4333 88.0701 84.5807 88.8347 85.8436 89.3563C87.1065 89.878 88.46 90.1465 89.827 90.1465C92.5876 90.1465 95.2352 89.0529 97.1872 87.1062C99.1393 85.1596 100.236 82.5194 100.236 79.7664C100.236 77.0135 99.1393 74.3732 97.1872 72.4266C95.2352 70.48 92.5876 69.3864 89.827 69.3864Z" fill="#E60011"/>
<path d="M75.1014 54.7028C73.7344 54.7028 72.3809 54.9713 71.118 55.4929C69.8551 56.0145 68.7077 56.7791 67.7411 57.743C66.7745 58.7069 66.0078 59.8512 65.4847 61.1105C64.9616 62.3699 64.6924 63.7197 64.6924 65.0828C64.6924 66.446 64.9616 67.7957 65.4847 69.0551C66.0078 70.3145 66.7745 71.4588 67.7411 72.4226C68.7077 73.3865 69.8551 74.1511 71.118 74.6728C72.3809 75.1944 73.7344 75.4629 75.1014 75.4629C77.862 75.4629 80.5096 74.3693 82.4616 72.4226C84.4137 70.476 85.5104 67.8358 85.5104 65.0828C85.5104 62.3299 84.4137 59.6897 82.4616 57.743C80.5096 55.7964 77.862 54.7028 75.1014 54.7028Z" fill="black"/>
<path d="M56.8258 137.257C37.4914 121.387 24.8633 102.816 18.6473 80.9553C12.9463 60.8676 14.0497 40.2786 17.2128 29.8619C18.4143 25.9006 20.0082 22.2816 23.012 22.2816C25.6111 22.2816 25.8809 25.0081 25.2065 28.1257C23.7231 34.948 23.5391 41.3178 25.8809 47.3454C27.1927 50.7198 30.5643 55.757 34.1566 57.1752C34.7328 57.3953 34.8677 57.0774 34.8677 56.784V47.8711C34.8677 47.4921 34.7696 47.3698 34.3895 47.1986C30.7972 45.4625 29.4363 41.9536 29.6816 37.4788C29.9881 31.9892 31.8026 29.0549 32.3298 24.3601C33.1267 17.2933 29.9881 11.278 21.553 11.278C11.2298 11.278 5.40618 23.2842 3.78782 36.2562C1.56871 54.1554 4.57248 74.0963 13.0443 92.2278C22.1692 111.806 37.1117 128.111 55.845 138.932C57.0588 139.629 58.0273 138.247 56.8258 137.257Z" fill="white"/>
<path d="M93.3878 137.257C112.735 121.387 125.35 102.816 131.566 80.9553C137.267 60.8676 136.164 40.2786 133.001 29.8619C131.787 25.9006 130.218 22.2816 127.202 22.2816C124.603 22.2816 124.333 25.0081 125.007 28.1257C126.491 34.948 126.674 41.3178 124.333 47.3454C123.021 50.7198 119.649 55.757 116.057 57.1752C115.469 57.3953 115.346 57.0774 115.346 56.784V47.8711C115.346 47.4921 115.444 47.3698 115.812 47.1986C119.416 45.4625 120.765 41.9536 120.532 37.4788C120.226 31.9892 118.411 29.0549 117.884 24.3601C117.087 17.2933 120.226 11.278 128.661 11.278C138.984 11.278 144.807 23.2842 146.426 36.2562C148.645 54.1554 145.641 74.0963 137.169 92.2278C128.044 111.806 113.102 128.111 94.3686 138.932C93.1549 139.629 92.1863 138.247 93.3878 137.257Z" fill="white"/>
<path d="M105.083 90.2603H102.962V89.1721H108.393V90.2603H106.272V95.8477H105.083V90.2603Z" fill="white"/>
<path d="M109.856 89.1716H111.119L113.154 92.3382L115.19 89.1716H116.44V95.8594H115.263V91.0667L113.154 94.2088H113.105L111.021 91.0789V95.8594H109.856V89.1716Z" fill="white"/>
<path d="M69.3517 111.344V114.449H60.6592V112.884H61.8975V106.123H60.6592V104.558H69.2291V107.419H67.5495V106.123H63.6997V108.556H66.7771V110.036H63.6997V112.884H67.6721V111.344H69.3517Z" fill="white"/>
<path d="M79.6278 111.55V111.697C79.6033 113.641 78.3527 114.619 75.8516 114.619C75.116 114.619 74.4539 114.497 73.8777 114.252C73.4789 114.108 73.1213 113.868 72.8356 113.555V114.448H71.1927V110.927H72.8356C72.8356 111.624 73.1789 112.162 73.8532 112.565C74.3415 112.859 74.8922 113.034 75.4607 113.076C76.0293 113.119 76.5999 113.027 77.1267 112.81C77.329 112.71 77.498 112.555 77.6134 112.362C77.7287 112.169 77.7854 111.946 77.7765 111.722C77.7765 111.355 77.6171 111.061 77.2738 110.841C76.7691 110.559 76.2162 110.372 75.6432 110.291C74.6458 110.127 73.668 109.86 72.7252 109.496C71.6954 108.983 71.1682 108.2 71.1559 107.124V107.051C71.1434 106.723 71.2039 106.396 71.3332 106.093C71.4625 105.791 71.6574 105.521 71.9038 105.303C72.5291 104.716 73.4486 104.422 74.6624 104.422C75.1893 104.421 75.7137 104.495 76.2194 104.643C76.7355 104.759 77.2025 105.032 77.5558 105.425V104.569H79.1987V107.577H77.5558C77.519 107.247 77.3106 106.917 76.9183 106.587C76.3292 106.148 75.6052 105.927 74.8708 105.963C73.657 105.963 73.044 106.354 73.044 107.124C73.044 107.503 73.2769 107.797 73.7306 108.005C74.4032 108.263 75.1021 108.448 75.8148 108.555C76.7993 108.691 77.7483 109.015 78.6102 109.509C78.9432 109.731 79.2123 110.037 79.3907 110.395C79.5692 110.753 79.6509 111.151 79.6278 111.55Z" fill="white"/>
<path d="M89.9635 104.565V108.11H88.2102V106.13H86.3099V112.891H87.8547V114.443H82.9506V112.891H84.4954V106.13H82.595V108.11H80.8418V104.565H89.9635Z" fill="white"/>
<path d="M91.7926 114.445H89.9795V112.635H91.7926V114.445Z" fill="white"/>
<path d="M63.5136 126.533V128.086H58.585V126.533H60.1543V119.772H58.585V118.219H61.9565V126.533H63.5136Z" fill="white"/>
<path d="M92.7273 125.166V128.088H84.8685L84.7459 126.254C86.9037 124.909 88.3013 123.98 88.9634 123.43C89.9687 122.611 90.4714 121.853 90.4714 121.156C90.4714 120.031 89.8216 119.456 88.5343 119.456C88.0288 119.457 87.5425 119.65 87.1734 119.994C86.9188 120.25 86.7174 120.553 86.5807 120.887C86.4439 121.22 86.3745 121.578 86.3765 121.938L84.5742 121.559C84.7091 120.459 85.1505 119.578 85.9106 118.906C86.6968 118.234 87.7076 117.88 88.7427 117.916C89.6848 117.878 90.6072 118.192 91.3296 118.796C91.6647 119.074 91.9318 119.424 92.1103 119.82C92.2888 120.216 92.374 120.648 92.3595 121.082C92.368 121.857 92.113 122.611 91.6361 123.222C91.1099 123.867 90.4802 124.42 89.7726 124.86C88.8885 125.423 88.0017 125.981 87.1121 126.535H90.9863V125.166H92.7273Z" fill="white"/>
<path d="M82.5357 119.742C82.2013 119.23 81.7481 118.806 81.2145 118.506C80.681 118.206 80.0828 118.039 79.4707 118.018L78.9312 117.993C77.6194 117.993 76.614 118.397 75.9152 119.204C75.3944 119.764 75.0978 120.494 75.0815 121.258V121.38C75.0536 122.214 75.3526 123.025 75.9152 123.642C76.2705 124.029 76.7081 124.332 77.196 124.529C77.6839 124.725 78.2097 124.811 78.735 124.779C79.9488 124.779 80.8806 124.424 81.5304 123.703L81.5181 123.874C81.505 124.605 81.2746 125.316 80.8561 125.916C80.6261 126.232 80.3206 126.486 79.9674 126.655C79.6141 126.823 79.2243 126.901 78.8331 126.882H78.637C77.2883 126.735 76.4791 126.173 76.1849 125.182L74.873 126.173C75.1246 126.718 75.5028 127.196 75.9765 127.567C76.7645 128.074 77.6749 128.361 78.6124 128.398L79.017 128.41C80.427 128.41 81.5181 127.848 82.3028 126.711C83.021 125.616 83.3808 124.326 83.3326 123.018C83.3326 121.674 83.0629 120.573 82.5357 119.742ZM80.4637 122.713C79.9696 123.041 79.3903 123.22 78.7963 123.226C78.1343 123.226 77.6316 123.018 77.3006 122.59C77.0312 122.231 76.8928 121.792 76.9083 121.343C76.9083 120.793 77.1044 120.353 77.509 119.999C77.9038 119.65 78.416 119.462 78.9435 119.473L79.3113 119.485C80.476 119.632 81.1871 120.39 81.4323 121.784C81.199 122.174 80.8645 122.495 80.4637 122.713Z" fill="white"/>
<path d="M72.6344 119.742C72.2999 119.23 71.8467 118.806 71.3132 118.506C70.7796 118.206 70.1815 118.039 69.5693 118.018C69.3898 118.003 69.2099 117.995 69.0298 117.993C68.4685 117.959 67.9067 118.05 67.385 118.26C66.8633 118.469 66.3949 118.791 66.0138 119.204C65.4979 119.767 65.202 120.496 65.1801 121.258V121.38C65.1801 122.26 65.4498 123.018 66.0138 123.642C66.3702 124.028 66.808 124.33 67.2957 124.526C67.7833 124.723 68.3086 124.809 68.8337 124.779C70.0474 124.779 70.9792 124.424 71.629 123.703L71.6168 123.874C71.6036 124.605 71.3732 125.316 70.9547 125.916C70.7247 126.232 70.4192 126.486 70.066 126.655C69.7128 126.823 69.3229 126.901 68.9318 126.882H68.7478C67.3992 126.735 66.5778 126.173 66.2835 125.182L64.9717 126.173C65.2229 126.722 65.6061 127.201 66.0874 127.567C66.8709 128.074 67.7774 128.362 68.7111 128.398L69.1279 128.41C70.5256 128.41 71.629 127.848 72.4137 126.711C73.1224 125.612 73.4775 124.324 73.4313 123.018C73.4313 121.674 73.1616 120.573 72.6344 119.742ZM70.5624 122.713C70.072 123.04 69.4971 123.218 68.9072 123.226C68.2329 123.226 67.7302 123.018 67.3992 122.59C67.1298 122.231 66.9914 121.792 67.0069 121.343C67.0069 120.793 67.2031 120.353 67.6076 119.999C68.0024 119.65 68.5146 119.462 69.0421 119.473L69.4099 119.485C70.5869 119.632 71.2857 120.39 71.5309 121.784C71.2977 122.174 70.9631 122.495 70.5624 122.713Z" fill="white"/>
</svg>
