<svg width="20" height="20" viewBox="0 0 20 20" fill="none" xmlns="http://www.w3.org/2000/svg">
<g clip-path="url(#clip0_3488_25696)">
<mask id="mask0_3488_25696" style="mask-type:luminance" maskUnits="userSpaceOnUse" x="3" y="2" width="2" height="1">
<path d="M4.0367 2.57422C3.97024 2.63768 3.89006 2.71915 3.84375 2.76588C3.87591 2.73201 3.90978 2.69771 3.94366 2.66383C3.95952 2.64797 3.97539 2.63253 3.99168 2.61667C3.9964 2.61238 4.00068 2.60809 4.0054 2.6038C4.01569 2.59394 4.02598 2.58408 4.0367 2.57422Z" fill="white"/>
</mask>
<g mask="url(#mask0_3488_25696)">
<path d="M4.0367 2.57422C3.97024 2.63768 3.89006 2.71915 3.84375 2.76588C3.87591 2.73201 3.90978 2.69771 3.94366 2.66383C3.95952 2.64797 3.97539 2.63253 3.99168 2.61667C3.9964 2.61238 4.00068 2.60809 4.0054 2.6038C4.01569 2.59394 4.02598 2.58408 4.0367 2.57422Z" fill="url(#paint0_linear_3488_25696)"/>
</g>
<mask id="mask1_3488_25696" style="mask-type:luminance" maskUnits="userSpaceOnUse" x="3" y="0" width="13" height="6">
<path d="M11.7326 5.62948C11.7047 5.50599 11.6126 5.33191 11.3458 5.14668C11.3458 5.14668 10.833 4.74963 9.873 4.43448C8.91296 4.74963 8.39971 5.14668 8.39971 5.14668C8.13301 5.33234 8.04083 5.50642 8.01339 5.62991C7.8646 5.12738 7.36593 4.90013 6.9826 4.7745C6.57655 4.64115 5.74772 4.39975 5.42314 4.24753C4.22856 3.6884 3.88854 2.92689 3.80664 2.80426C3.80664 2.80426 3.81307 2.7974 3.82422 2.78625C3.82679 2.78325 3.8298 2.78025 3.8328 2.77725C3.83623 2.77339 3.84008 2.76996 3.84351 2.76567C3.87567 2.7318 3.90955 2.6975 3.94342 2.66362C3.95929 2.64776 3.97515 2.63232 3.99144 2.61646C3.99616 2.61217 4.00045 2.60788 4.00517 2.60359C4.01546 2.59373 4.02575 2.58387 4.03647 2.57401C4.04161 2.56929 4.04676 2.56415 4.05147 2.55986C4.05705 2.55471 4.06219 2.55 4.06734 2.54528C4.0742 2.53885 4.08106 2.53284 4.08706 2.52684C4.13508 2.48311 4.18397 2.44023 4.23327 2.39778C4.50426 2.17696 4.79369 1.97758 5.0904 1.79492C5.5672 1.50078 6.07102 1.24951 6.59541 1.05442C7.11895 0.858036 7.65964 0.706249 8.20977 0.608059C8.7586 0.512013 9.31558 0.464418 9.873 0.464847C10.43 0.464418 10.987 0.512013 11.5358 0.608059C12.0864 0.706249 12.6266 0.858036 13.1501 1.05442C13.6745 1.24951 14.1784 1.50078 14.6556 1.79492C14.9519 1.97758 15.2413 2.17696 15.5123 2.39778C15.5616 2.44023 15.6105 2.48311 15.6585 2.52684C15.6649 2.53284 15.6714 2.53885 15.6782 2.54528C15.6817 2.54828 15.6855 2.55128 15.6889 2.55471L15.6907 2.55686C15.6919 2.55771 15.6928 2.559 15.6941 2.55986C15.6992 2.56457 15.7044 2.56929 15.7091 2.57401C15.7108 2.57572 15.7125 2.57744 15.7142 2.57915C15.7151 2.57958 15.7155 2.58001 15.716 2.58087C15.7284 2.59202 15.7404 2.60359 15.7524 2.61517C15.7721 2.63361 15.791 2.65247 15.8099 2.67134C15.8189 2.68034 15.8279 2.68935 15.8364 2.69792C15.845 2.70693 15.854 2.7155 15.8626 2.72451C15.8639 2.72622 15.8652 2.72751 15.8665 2.7288C15.8806 2.74295 15.8943 2.75752 15.9076 2.77167C15.9098 2.77339 15.9115 2.77553 15.9132 2.77725C15.9162 2.78025 15.9188 2.78325 15.9218 2.78625C15.9325 2.7974 15.9389 2.80426 15.9389 2.80426C15.857 2.92689 15.5174 3.6884 14.3229 4.24753C13.9978 4.39975 13.169 4.64115 12.7634 4.7745C12.3801 4.90013 11.881 5.12738 11.7326 5.62948Z" fill="white"/>
</mask>
<g mask="url(#mask1_3488_25696)">
<path d="M11.7326 5.62948C11.7047 5.50599 11.6126 5.33191 11.3458 5.14668C11.3458 5.14668 10.833 4.74963 9.873 4.43448C8.91296 4.74963 8.39971 5.14668 8.39971 5.14668C8.13301 5.33234 8.04083 5.50642 8.01339 5.62991C7.8646 5.12738 7.36593 4.90013 6.9826 4.7745C6.57655 4.64115 5.74772 4.39975 5.42314 4.24753C4.22856 3.6884 3.88854 2.92689 3.80664 2.80426C3.80664 2.80426 3.81307 2.7974 3.82422 2.78625C3.82679 2.78325 3.8298 2.78025 3.8328 2.77725C3.83623 2.77339 3.84008 2.76996 3.84351 2.76567C3.87567 2.7318 3.90955 2.6975 3.94342 2.66362C3.95929 2.64776 3.97515 2.63232 3.99144 2.61646C3.99616 2.61217 4.00045 2.60788 4.00517 2.60359C4.01546 2.59373 4.02575 2.58387 4.03647 2.57401C4.04161 2.56929 4.04676 2.56415 4.05147 2.55986C4.05705 2.55471 4.06219 2.55 4.06734 2.54528C4.0742 2.53885 4.08106 2.53284 4.08706 2.52684C4.13508 2.48311 4.18397 2.44023 4.23327 2.39778C4.50426 2.17696 4.79369 1.97758 5.0904 1.79492C5.5672 1.50078 6.07102 1.24951 6.59541 1.05442C7.11895 0.858036 7.65964 0.706249 8.20977 0.608059C8.7586 0.512013 9.31558 0.464418 9.873 0.464847C10.43 0.464418 10.987 0.512013 11.5358 0.608059C12.0864 0.706249 12.6266 0.858036 13.1501 1.05442C13.6745 1.24951 14.1784 1.50078 14.6556 1.79492C14.9519 1.97758 15.2413 2.17696 15.5123 2.39778C15.5616 2.44023 15.6105 2.48311 15.6585 2.52684C15.6649 2.53284 15.6714 2.53885 15.6782 2.54528C15.6817 2.54828 15.6855 2.55128 15.6889 2.55471L15.6907 2.55686C15.6919 2.55771 15.6928 2.559 15.6941 2.55986C15.6992 2.56457 15.7044 2.56929 15.7091 2.57401C15.7108 2.57572 15.7125 2.57744 15.7142 2.57915C15.7151 2.57958 15.7155 2.58001 15.716 2.58087C15.7284 2.59202 15.7404 2.60359 15.7524 2.61517C15.7721 2.63361 15.791 2.65247 15.8099 2.67134C15.8189 2.68034 15.8279 2.68935 15.8364 2.69792C15.845 2.70693 15.854 2.7155 15.8626 2.72451C15.8639 2.72622 15.8652 2.72751 15.8665 2.7288C15.8806 2.74295 15.8943 2.75752 15.9076 2.77167C15.9098 2.77339 15.9115 2.77553 15.9132 2.77725C15.9162 2.78025 15.9188 2.78325 15.9218 2.78625C15.9325 2.7974 15.9389 2.80426 15.9389 2.80426C15.857 2.92689 15.5174 3.6884 14.3229 4.24753C13.9978 4.39975 13.169 4.64115 12.7634 4.7745C12.3801 4.90013 11.881 5.12738 11.7326 5.62948Z" fill="url(#paint1_radial_3488_25696)"/>
</g>
<mask id="mask2_3488_25696" style="mask-type:luminance" maskUnits="userSpaceOnUse" x="15" y="2" width="1" height="1">
<path d="M15.9131 2.77646C15.871 2.73358 15.7866 2.64783 15.7158 2.58008C15.7283 2.59123 15.7403 2.6028 15.7523 2.61438C15.7716 2.63282 15.7909 2.65168 15.8097 2.67055C15.8187 2.67955 15.8277 2.68856 15.8363 2.69713C15.8449 2.70614 15.8539 2.71514 15.8625 2.72372C15.8637 2.72543 15.865 2.72672 15.8663 2.72801C15.8805 2.74216 15.8942 2.75673 15.9075 2.77088C15.9096 2.7726 15.9113 2.77474 15.9131 2.77646Z" fill="white"/>
</mask>
<g mask="url(#mask2_3488_25696)">
<path d="M15.9131 2.77646C15.871 2.73358 15.7866 2.64783 15.7158 2.58008C15.7283 2.59123 15.7403 2.6028 15.7523 2.61438C15.7716 2.63282 15.7909 2.65168 15.8097 2.67055C15.8187 2.67955 15.8277 2.68856 15.8363 2.69713C15.8449 2.70614 15.8539 2.71514 15.8625 2.72372C15.8637 2.72543 15.865 2.72672 15.8663 2.72801C15.8805 2.74216 15.8942 2.75673 15.9075 2.77088C15.9096 2.7726 15.9113 2.77474 15.9131 2.77646Z" fill="url(#paint2_linear_3488_25696)"/>
</g>
<mask id="mask3_3488_25696" style="mask-type:luminance" maskUnits="userSpaceOnUse" x="3" y="2" width="6" height="7">
<path d="M8.54361 8.97848C8.5286 8.96433 8.5286 8.9639 8.54361 8.97848C8.51188 8.75766 8.17271 6.41996 8.03593 5.72233C7.92488 5.15463 7.38848 4.90723 6.98243 4.77388C6.57637 4.64053 5.74754 4.39912 5.42296 4.24691C4.22838 3.68778 3.88836 2.92627 3.80646 2.80364C3.77216 2.79807 3.71728 2.78906 3.71728 2.78906C3.71728 2.78906 3.68126 3.06048 3.72414 3.30059C3.76702 3.54028 3.8412 3.6895 3.8412 3.6895L4.61042 5.23053C4.61042 5.23053 4.87712 5.89899 4.95216 6.12882C5.02763 6.35821 5.04006 6.4534 5.04006 6.4534C5.07265 6.52672 5.11209 6.5949 5.1494 6.6635C5.28489 6.91091 5.6039 7.19047 5.60519 7.19133C6.18747 7.68271 7.03174 7.97814 7.77952 8.41935L8.54361 8.97848Z" fill="white"/>
</mask>
<g mask="url(#mask3_3488_25696)">
<path d="M8.54361 8.97848C8.5286 8.96433 8.5286 8.9639 8.54361 8.97848C8.51188 8.75766 8.17271 6.41996 8.03593 5.72233C7.92488 5.15463 7.38848 4.90723 6.98243 4.77388C6.57637 4.64053 5.74754 4.39912 5.42296 4.24691C4.22838 3.68778 3.88836 2.92627 3.80646 2.80364C3.77216 2.79807 3.71728 2.78906 3.71728 2.78906C3.71728 2.78906 3.68126 3.06048 3.72414 3.30059C3.76702 3.54028 3.8412 3.6895 3.8412 3.6895L4.61042 5.23053C4.61042 5.23053 4.87712 5.89899 4.95216 6.12882C5.02763 6.35821 5.04006 6.4534 5.04006 6.4534C5.07265 6.52672 5.11209 6.5949 5.1494 6.6635C5.28489 6.91091 5.6039 7.19047 5.60519 7.19133C6.18747 7.68271 7.03174 7.97814 7.77952 8.41935L8.54361 8.97848Z" fill="url(#paint3_linear_3488_25696)"/>
</g>
<mask id="mask4_3488_25696" style="mask-type:luminance" maskUnits="userSpaceOnUse" x="11" y="2" width="6" height="7">
<path d="M11.9653 8.41935C12.713 7.97814 13.5573 7.68271 14.14 7.19133C14.1409 7.19047 14.4599 6.91091 14.5954 6.6635C14.6331 6.5949 14.6721 6.52672 14.7047 6.4534C14.7047 6.4534 14.7176 6.35821 14.7926 6.12882C14.8677 5.89899 15.1344 5.23053 15.1344 5.23053L15.9036 3.6895C15.9036 3.6895 15.9782 3.54028 16.0206 3.30059C16.0635 3.06048 16.0279 2.78906 16.0279 2.78906C16.0279 2.78906 15.9726 2.79807 15.9383 2.80364C15.8564 2.92627 15.5168 3.68778 14.3222 4.24691C13.9972 4.39912 13.1684 4.64053 12.7628 4.77388C12.3567 4.90723 11.8203 5.15463 11.7093 5.72233C11.5725 6.41996 11.2333 8.75766 11.2012 8.97848C11.2166 8.96433 11.2166 8.9639 11.2012 8.97848L11.9653 8.41935Z" fill="white"/>
</mask>
<g mask="url(#mask4_3488_25696)">
<path d="M11.9653 8.41935C12.713 7.97814 13.5573 7.68271 14.14 7.19133C14.1409 7.19047 14.4599 6.91091 14.5954 6.6635C14.6331 6.5949 14.6721 6.52672 14.7047 6.4534C14.7047 6.4534 14.7176 6.35821 14.7926 6.12882C14.8677 5.89899 15.1344 5.23053 15.1344 5.23053L15.9036 3.6895C15.9036 3.6895 15.9782 3.54028 16.0206 3.30059C16.0635 3.06048 16.0279 2.78906 16.0279 2.78906C16.0279 2.78906 15.9726 2.79807 15.9383 2.80364C15.8564 2.92627 15.5168 3.68778 14.3222 4.24691C13.9972 4.39912 13.1684 4.64053 12.7628 4.77388C12.3567 4.90723 11.8203 5.15463 11.7093 5.72233C11.5725 6.41996 11.2333 8.75766 11.2012 8.97848C11.2166 8.96433 11.2166 8.9639 11.2012 8.97848L11.9653 8.41935Z" fill="url(#paint4_linear_3488_25696)"/>
</g>
<path d="M8.00903 18.2301H11.736C12.3684 18.2301 12.5048 18.4613 12.5048 18.4613C12.4816 18.1881 12.0846 17.6367 11.736 17.6367H8.00903C7.66087 17.6367 7.26382 18.1881 7.24023 18.4613C7.24023 18.4613 7.37659 18.2301 8.00903 18.2301Z" fill="white"/>
<path d="M12.2026 18.9082H7.54224C7.19407 18.9082 6.77344 19.4163 6.77344 20.1096C6.77344 20.1096 6.90979 19.5634 7.54224 19.5634H12.2026C12.8351 19.5634 12.9714 20.1096 12.9714 20.1096C12.9714 19.4163 12.5508 18.9082 12.2026 18.9082Z" fill="#141924"/>
<path d="M12.2021 18.8027H7.54174C7.19357 18.8027 6.77637 19.3108 6.77637 20.0042C6.77637 20.0042 6.90929 19.4579 7.54174 19.4579H12.2021C12.8346 19.4579 12.9675 20.0042 12.9675 20.0042C12.9675 19.3108 12.5503 18.8027 12.2021 18.8027Z" fill="white"/>
<path d="M9.64807 15.8698C9.64764 15.8706 9.60305 16.1013 9.57175 16.2227L9.55631 16.2754L9.53101 16.227C9.12582 15.45 8.57055 15.2914 8.03372 15.1379C7.51876 14.9904 7.03253 14.8514 6.79498 14.1474L6.76325 14.053C7.65468 14.9239 8.58856 14.3686 9.39595 15.5611C9.42725 15.6018 9.45812 15.6447 9.48771 15.6901C9.50872 15.2549 9.42811 14.9252 9.28018 14.6671C8.73949 13.7958 7.32795 13.8597 6.67278 13.0814C6.58359 12.985 6.51199 12.8731 6.46354 12.741C6.46268 12.7388 6.46182 12.7376 6.46139 12.7354C6.38764 12.5626 6.34219 12.3585 6.33233 12.1163C6.32933 12.0468 6.32933 11.9743 6.33233 11.8984C6.85673 13.1265 10.2205 12.7431 9.64807 15.8698Z" fill="white"/>
<path d="M9.30588 12.3949C9.30546 12.3975 9.19612 12.879 9.17939 12.9412C8.38958 10.7583 5.73845 12.2033 5.65612 9.81971C5.65655 9.82014 5.65569 9.80384 5.65484 9.79484C5.65912 9.80427 5.66341 9.81327 5.66813 9.82271C5.8971 10.2875 6.43178 10.4363 7.00678 10.5529C7.24346 10.5958 7.48486 10.6352 7.71083 10.6987C7.71211 10.6991 8.54094 10.9127 8.79392 11.3251C8.79478 11.3191 8.81965 11.0434 8.82308 10.9088C8.82179 10.5375 8.73947 10.2451 8.59926 10.0071C8.19492 9.39693 7.58434 9.15682 6.66804 8.7945C5.75174 8.43261 4.91391 7.99997 5.03997 6.40234C5.07256 6.47566 5.112 6.54384 5.14931 6.61245C5.2848 6.85985 5.60381 7.13941 5.6051 7.14027C6.83955 8.18177 9.25229 8.34342 9.42423 10.8775C9.46753 11.5121 9.41051 11.8465 9.30588 12.3949Z" fill="white"/>
<path d="M10.0966 15.8698C10.097 15.8706 10.1416 16.1013 10.1733 16.2227L10.1883 16.2754L10.2136 16.227C10.6188 15.45 11.1741 15.2914 11.7109 15.1379C12.2259 14.9904 12.7121 14.8514 12.9497 14.1474L12.9818 14.053C12.09 14.9239 11.1565 14.3686 10.3487 15.5611C10.3174 15.6018 10.2869 15.6447 10.2569 15.6901C10.2363 15.2549 10.3165 14.9252 10.4645 14.6671C11.0056 13.7958 12.4167 13.8597 13.0719 13.0814C13.1615 12.985 13.2331 12.8731 13.2811 12.741C13.282 12.7388 13.2828 12.7376 13.2832 12.7354C13.2837 12.7354 13.2837 12.735 13.2837 12.735C13.357 12.5622 13.4024 12.3585 13.4127 12.1163C13.4157 12.0468 13.4157 11.9743 13.4127 11.8984C12.8883 13.1265 9.52414 12.7431 10.0966 15.8698Z" fill="white"/>
<path d="M10.4384 12.3949C10.4389 12.3975 10.5486 12.879 10.5653 12.9412C11.3547 10.7583 14.0059 12.2033 14.0882 9.81971C14.0882 9.82014 14.0891 9.80384 14.0895 9.79484C14.0852 9.80427 14.0809 9.81327 14.0766 9.82271C13.8472 10.2875 13.313 10.4363 12.7375 10.5529C12.5009 10.5958 12.2595 10.6352 12.0335 10.6987C12.0326 10.6991 11.2034 10.9127 10.9508 11.3251C10.9495 11.3191 10.9247 11.0434 10.9212 10.9088C10.9225 10.5375 11.0053 10.2451 11.1455 10.0071C11.5494 9.39693 12.1604 9.15682 13.0767 8.7945C13.9926 8.43261 14.8304 7.99997 14.7043 6.40234C14.6722 6.47566 14.6327 6.54384 14.595 6.61245C14.4595 6.85985 14.1405 7.13941 14.1396 7.14027C12.9048 8.18177 10.4925 8.34342 10.3201 10.8775C10.2772 11.5121 10.3338 11.8465 10.4384 12.3949Z" fill="white"/>
</g>
<defs>
<linearGradient id="paint0_linear_3488_25696" x1="4.01215" y1="2.67023" x2="3.88803" y2="2.67023" gradientUnits="userSpaceOnUse">
<stop stop-color="#ACAAC2"/>
<stop offset="0.0106514" stop-color="#ACAAC2"/>
<stop offset="0.50838" stop-color="#EFEDF1"/>
<stop offset="0.701015" stop-color="#EFEDF1"/>
<stop offset="0.998916" stop-color="#8F8FAF"/>
<stop offset="0.999158" stop-color="#8F8FAF"/>
<stop offset="1" stop-color="#8F8FAF"/>
</linearGradient>
<radialGradient id="paint1_radial_3488_25696" cx="0" cy="0" r="1" gradientUnits="userSpaceOnUse" gradientTransform="translate(10.1367 2.92239) rotate(21.666) scale(7.19623)">
<stop stop-color="#D01439"/>
<stop offset="0.286453" stop-color="#D01439"/>
<stop offset="0.449721" stop-color="#9E1735"/>
<stop offset="0.551873" stop-color="#9E1735"/>
<stop offset="0.906728" stop-color="#36181C"/>
<stop offset="1" stop-color="#36181C"/>
</radialGradient>
<linearGradient id="paint2_linear_3488_25696" x1="15.8879" y1="2.67832" x2="15.7611" y2="2.67832" gradientUnits="userSpaceOnUse">
<stop stop-color="#ACAAC2"/>
<stop offset="0.0106514" stop-color="#ACAAC2"/>
<stop offset="0.50838" stop-color="#EFEDF1"/>
<stop offset="0.701015" stop-color="#EFEDF1"/>
<stop offset="0.998916" stop-color="#8F8FAF"/>
<stop offset="0.999158" stop-color="#8F8FAF"/>
<stop offset="1" stop-color="#8F8FAF"/>
</linearGradient>
<linearGradient id="paint3_linear_3488_25696" x1="2.88707" y1="1.4252" x2="7.87976" y2="7.74622" gradientUnits="userSpaceOnUse">
<stop stop-color="#D01439"/>
<stop offset="0.333842" stop-color="#D01439"/>
<stop offset="0.420244" stop-color="#D01439"/>
<stop offset="0.55386" stop-color="#9E1735"/>
<stop offset="0.647731" stop-color="#9E1735"/>
<stop offset="0.973819" stop-color="#36181C"/>
<stop offset="1" stop-color="#36181C"/>
</linearGradient>
<linearGradient id="paint4_linear_3488_25696" x1="16.858" y1="1.42497" x2="11.8652" y2="7.74618" gradientUnits="userSpaceOnUse">
<stop stop-color="#D01439"/>
<stop offset="0.333842" stop-color="#D01439"/>
<stop offset="0.420244" stop-color="#D01439"/>
<stop offset="0.55386" stop-color="#9E1735"/>
<stop offset="0.648054" stop-color="#9E1735"/>
<stop offset="0.975265" stop-color="#36181C"/>
<stop offset="1" stop-color="#36181C"/>
</linearGradient>
<clipPath id="clip0_3488_25696">
<rect width="20" height="20" fill="white"/>
</clipPath>
</defs>
</svg>
