<svg width="20" height="21" viewBox="0 0 20 21" fill="none" xmlns="http://www.w3.org/2000/svg">
<g clip-path="url(#clip0_3488_23787)">
<path d="M12.2515 20.4116C11.4789 20.6462 10.6768 20.7684 9.86964 20.7746C9.06249 20.7684 8.26038 20.6462 7.48776 20.4116H7.47559C7.51425 20.2822 7.55362 20.1536 7.59228 20.0242C7.63403 19.8865 7.72465 19.7689 7.84697 19.6938C7.96929 19.6187 8.11481 19.5912 8.25594 19.6167C8.78893 19.7108 9.32853 19.7622 9.86964 19.7705H9.9577C10.4713 19.7738 10.9844 19.738 11.4926 19.6634C11.6296 19.6425 11.7695 19.6711 11.8875 19.744C12.0054 19.8169 12.0938 19.9294 12.137 20.0616C12.172 20.1766 12.2114 20.2937 12.2515 20.4116Z" fill="#14895E"/>
<path d="M11.882 20.0248C10.537 15.7983 10.788 11.2226 12.5872 7.16992L11.0544 7.19723C9.66331 11.4445 9.7784 16.0442 11.3801 20.216L11.882 20.0248Z" fill="#14895E"/>
<path d="M13.3484 8.01367L14.5554 8.83089C13.9175 9.89155 13.4332 11.038 13.1171 12.2356C12.6172 14.1618 12.557 16.1765 12.941 18.1294L12.548 18.511C11.8163 16.5046 11.597 14.3462 11.9101 12.2327C12.1364 10.7519 12.6234 9.32322 13.3484 8.01367Z" fill="#EE7213"/>
<path d="M14.7445 10.7246C14.0631 11.5387 13.5956 12.5111 13.3847 13.5532C13.1739 14.5953 13.2264 15.6738 13.5375 16.6903L13.9986 16.3223C13.9406 15.8105 13.8625 14.4952 14.6336 13.1777C14.9345 12.6658 15.3261 12.2134 15.7891 11.843L14.7445 10.7246Z" fill="#59B13E"/>
<path d="M12.2623 20.4067H12.2501C11.4775 20.6412 10.6754 20.7634 9.86821 20.7696C9.06106 20.7634 8.25895 20.6412 7.48633 20.4067C7.52427 20.2888 7.56365 20.1716 7.60159 20.0538C7.64486 19.9217 7.73329 19.8092 7.85122 19.7364C7.96916 19.6635 8.10898 19.6349 8.24592 19.6556C8.75414 19.7302 9.26726 19.766 9.78087 19.7627H9.86821C10.4093 19.7544 10.9489 19.7029 11.4819 19.6088C11.623 19.5834 11.7686 19.6109 11.8909 19.686C12.0132 19.7611 12.1038 19.8787 12.1456 20.0164C12.1842 20.1486 12.2236 20.2773 12.2623 20.4067Z" fill="#14895E"/>
<path d="M7.8544 20.0248C8.56022 17.8015 8.83199 15.4623 8.65481 13.1356C8.49651 11.0754 7.98802 9.05774 7.15137 7.16992L8.68416 7.19723C9.28996 9.0488 9.61457 10.9814 9.64708 12.93C9.685 15.419 9.24756 17.8923 8.35842 20.216L7.8544 20.0248Z" fill="#14895E"/>
<path d="M6.38941 8.01367L5.18164 8.83089C5.81983 9.8914 6.30413 11.0378 6.61993 12.2356C7.11991 14.1618 7.18011 16.1765 6.79605 18.1294L7.18909 18.511C7.92076 16.5046 8.14006 14.3462 7.82698 12.2327C7.60054 10.752 7.11378 9.32342 6.38941 8.01367Z" fill="#EE7213"/>
<path d="M4.9918 10.7246C5.69931 11.5732 6.17606 12.5911 6.37568 13.6794C6.55633 14.6826 6.49571 15.7146 6.19885 16.6895L5.73708 16.3215C5.79507 15.8098 5.8731 14.4945 5.10277 13.177C4.80157 12.6655 4.41 12.2134 3.94727 11.843L4.9918 10.7246Z" fill="#59B13E"/>
<path d="M11 3.29016L10.9699 3.30094C10.9553 3.30622 10.9402 3.31031 10.9248 3.31316C10.9104 3.31627 10.8956 3.31627 10.8812 3.31316C10.8626 3.31152 10.845 3.30397 10.831 3.2916C10.8166 3.27535 10.8052 3.2566 10.7974 3.23625C10.7855 3.2049 10.7622 3.17922 10.7323 3.16438C10.6957 3.13824 10.6668 3.10275 10.6485 3.0616C10.6399 3.04539 10.6298 3.03 10.6184 3.01559C10.6009 2.99679 10.5879 2.97416 10.5805 2.94947C10.5702 2.90853 10.5509 2.87045 10.5239 2.83806C10.5055 2.81581 10.4895 2.79172 10.476 2.76619C10.476 2.75828 10.4559 2.72881 10.4394 2.70078C10.4065 2.64544 10.375 2.58937 10.3678 2.57284C10.3607 2.55631 10.3249 2.53619 10.2669 2.54266C10.2025 2.54271 10.1389 2.52822 10.0808 2.50025L10.0321 2.48012L9.9476 2.48659C9.86813 2.49234 9.86312 2.49234 9.85811 2.49666L9.8531 2.50169L9.83663 2.48875C9.81307 2.46739 9.7831 2.45449 9.75144 2.45209C9.73627 2.45215 9.72148 2.44737 9.7092 2.43844C9.69692 2.43161 9.68741 2.42069 9.68231 2.40756C9.67721 2.39443 9.67684 2.37993 9.68127 2.36656C9.68629 2.33134 9.68128 2.31697 9.66982 2.30547C9.65837 2.29397 9.66195 2.29972 9.64405 2.30547C9.59652 2.31172 9.54839 2.31172 9.50086 2.30547C9.46112 2.30083 9.42085 2.30475 9.38273 2.31697C9.35353 2.3245 9.32334 2.32741 9.29324 2.32559L9.21163 2.32991C9.19694 2.33544 9.18371 2.34429 9.17297 2.35578L9.1565 2.36944H9.14147C9.12489 2.36918 9.10845 2.36626 9.09278 2.36081C9.0862 2.35763 9.07898 2.35597 9.07167 2.35597C9.06435 2.35597 9.05713 2.35763 9.05055 2.36081C9.04041 2.36636 9.03082 2.37285 9.02191 2.38022C9.00334 2.39935 8.98182 2.41537 8.95819 2.42766C8.94317 2.43323 8.93002 2.44295 8.92025 2.45569C8.90637 2.47136 8.89632 2.49006 8.89089 2.51031C8.88374 2.53691 8.86297 2.55631 8.8193 2.57859C8.79555 2.58993 8.773 2.60366 8.75201 2.61956C8.71951 2.65484 8.68914 2.69204 8.66108 2.73097C8.64299 2.7491 8.62932 2.77119 8.62112 2.7955C8.61293 2.81981 8.61043 2.84569 8.61383 2.87113C8.61867 2.9134 8.61095 2.95616 8.59164 2.99403C8.58168 3.0095 8.57501 3.02688 8.57205 3.04506C8.5691 3.06324 8.56991 3.08184 8.57446 3.09969C8.5784 3.12747 8.5895 3.15373 8.60667 3.17588C8.63313 3.21477 8.65705 3.25534 8.67826 3.29735C8.68876 3.32156 8.70411 3.34333 8.72337 3.36131C8.75313 3.39136 8.78521 3.419 8.8193 3.44397C8.84254 3.45175 8.86766 3.45175 8.89089 3.44397L8.92812 3.43535C8.94999 3.43219 8.97229 3.43416 8.99327 3.4411C9.01602 3.45028 9.04107 3.45204 9.06486 3.44613C9.08446 3.4419 9.10363 3.43588 9.12214 3.42816L9.1565 3.41378H9.16867C9.1967 3.42047 9.22614 3.41769 9.25244 3.40588H9.26318L9.27463 3.4145C9.28537 3.42437 9.2952 3.43519 9.30398 3.44685C9.3319 3.48494 9.35052 3.49428 9.38918 3.48997C9.4071 3.48686 9.42553 3.49072 9.44072 3.50075C9.44815 3.50558 9.45469 3.51166 9.46005 3.51872C9.46654 3.52673 9.47052 3.53648 9.47151 3.54675C9.47427 3.57559 9.47009 3.60468 9.45934 3.63157C9.44835 3.65865 9.44512 3.68827 9.45003 3.7171C9.45423 3.74567 9.46939 3.77146 9.49227 3.78897C9.53012 3.82345 9.55868 3.86696 9.57532 3.91547C9.59437 3.98003 9.61014 4.04553 9.62257 4.11169C9.61553 4.14537 9.6011 4.17704 9.58033 4.20441C9.56345 4.22856 9.5549 4.25759 9.55599 4.28707C9.56151 4.35431 9.58638 4.41849 9.62758 4.47179C9.63975 4.49263 9.65264 4.51491 9.6555 4.52138C9.65837 4.52785 9.66552 4.56019 9.67483 4.60547C9.67913 4.65549 9.69778 4.70317 9.72853 4.74276C9.7597 4.7792 9.77982 4.82385 9.78652 4.87141C9.78702 4.8804 9.78846 4.88932 9.79081 4.89801C9.79508 4.91075 9.80251 4.92219 9.81241 4.93124C9.82231 4.9403 9.83434 4.94667 9.84737 4.94976C9.86418 4.9494 9.88094 4.94771 9.89748 4.94473C9.95046 4.93682 9.96908 4.9361 9.97337 4.94473C9.97767 4.95335 9.98769 4.95407 10.0636 4.93682C10.1015 4.92748 10.1502 4.91741 10.1724 4.9131C10.1922 4.91134 10.2116 4.90623 10.2297 4.89801C10.2807 4.87182 10.326 4.83565 10.3628 4.79163C10.3905 4.76448 10.412 4.73162 10.4258 4.69532C10.43 4.68154 10.437 4.66879 10.4463 4.65789C10.4557 4.647 10.4673 4.6382 10.4802 4.63207C10.5117 4.61266 10.5261 4.59685 10.5304 4.57744C10.5335 4.55961 10.5335 4.54137 10.5304 4.52354C10.5232 4.47466 10.5239 4.46747 10.5368 4.45166C10.5664 4.41614 10.604 4.38808 10.6463 4.36972C10.7008 4.33954 10.7086 4.33379 10.7179 4.32013C10.7272 4.30647 10.7416 4.25904 10.7351 4.17638C10.733 4.15402 10.7289 4.13189 10.7229 4.11025C10.701 4.04411 10.6944 3.9738 10.7036 3.90469C10.7108 3.87471 10.7262 3.84733 10.748 3.82563C10.7537 3.81988 10.7831 3.78897 10.8124 3.75375C10.8418 3.71853 10.8797 3.68188 10.8955 3.66822C10.9373 3.63465 10.9727 3.59374 11 3.54747C11.0258 3.48732 11.0471 3.42534 11.0637 3.36203C11.0702 3.33831 11.0702 3.33472 11.068 3.32538C11.0624 3.31258 11.0526 3.3021 11.0402 3.29569C11.0278 3.28928 11.0136 3.28733 11 3.29016Z" fill="#14895E"/>
<path d="M8.66699 2.71484C8.66699 2.71484 8.66699 2.71484 8.66699 2.71844C8.66699 2.71844 8.672 2.71484 8.66699 2.71484Z" fill="#14895E"/>
<path d="M11.0216 4.19701C11.0216 4.19054 11.0216 4.19054 11.0094 4.1927L10.9522 4.20563L10.8856 4.22001C10.8756 4.22001 10.867 4.22001 10.867 4.22001C10.867 4.22001 10.8627 4.22001 10.8505 4.24157C10.8333 4.27754 10.8089 4.30959 10.7789 4.33573C10.7686 4.34308 10.7565 4.34755 10.7438 4.34867C10.7319 4.35015 10.7206 4.35459 10.7109 4.3616C10.6957 4.37325 10.6845 4.38931 10.6787 4.4076C10.6761 4.4192 10.6761 4.43123 10.6787 4.44282C10.6825 4.47704 10.6733 4.51144 10.6529 4.53913C10.6425 4.5528 10.635 4.56845 10.6308 4.58513C10.6266 4.60182 10.6258 4.61918 10.6286 4.63617C10.6295 4.64676 10.6332 4.65692 10.6393 4.66563C10.6496 4.67956 10.6646 4.68926 10.6815 4.69295C10.6877 4.69464 10.6942 4.69481 10.7004 4.69343C10.7066 4.69205 10.7125 4.68917 10.7173 4.68504L10.7295 4.67785L10.8011 4.66707L10.8727 4.65701L10.882 4.64982C10.899 4.63251 10.9115 4.61129 10.9185 4.58801L10.95 4.51613C10.9758 4.46295 11.0166 4.36592 11.0316 4.32495C11.044 4.29751 11.0453 4.26634 11.0352 4.23798C11.028 4.21929 11.023 4.2006 11.0216 4.19701Z" fill="#14895E"/>
<path d="M13.5506 4.41712C13.59 3.02777 12.6915 1.66286 11.4172 1.09936C10.9384 0.878064 10.4164 0.766829 9.8894 0.773761H9.84859C9.32106 0.766614 8.7986 0.877854 8.31938 1.09936C7.0436 1.66286 6.14655 3.02777 6.18592 4.41712C6.18126 4.59256 6.18867 4.76811 6.20812 4.94252L6.54245 4.92384C6.54245 4.88143 6.5489 4.83974 6.55248 4.79949C6.59772 4.27459 6.77566 3.76996 7.06945 3.33339C7.36323 2.89682 7.76314 2.54275 8.23132 2.3047C8.73951 2.03564 9.29574 1.87026 9.86792 1.81811C10.4383 1.8713 10.9927 2.03664 11.4995 2.3047C11.9684 2.54213 12.3691 2.89585 12.6637 3.33232C12.9582 3.76879 13.1369 4.27356 13.1827 4.79877C13.1869 4.83902 13.1898 4.88071 13.1927 4.92312L13.527 4.94181C13.5469 4.76766 13.5548 4.59235 13.5506 4.41712Z" fill="#14895E"/>
<path d="M11.9466 6.69288C12.2854 6.69288 12.5601 6.4171 12.5601 6.07691C12.5601 5.73672 12.2854 5.46094 11.9466 5.46094C11.6077 5.46094 11.333 5.73672 11.333 6.07691C11.333 6.4171 11.6077 6.69288 11.9466 6.69288Z" fill="#14895E"/>
<path d="M13.7942 6.59452C14.0797 6.59452 14.3111 6.36218 14.3111 6.07558C14.3111 5.78898 14.0797 5.55664 13.7942 5.55664C13.5088 5.55664 13.2773 5.78898 13.2773 6.07558C13.2773 6.36218 13.5088 6.59452 13.7942 6.59452Z" fill="#14895E"/>
<path d="M9.89565 5.35352H9.86845H9.84053C9.65316 5.35944 9.47544 5.43833 9.345 5.57349C9.21455 5.70865 9.1416 5.88946 9.1416 6.07766C9.1416 6.26586 9.21455 6.44667 9.345 6.58183C9.47544 6.71698 9.65316 6.79587 9.84053 6.8018H9.86845H9.89565C10.083 6.79587 10.2607 6.71698 10.3912 6.58183C10.5216 6.44667 10.5946 6.26586 10.5946 6.07766C10.5946 5.88946 10.5216 5.70865 10.3912 5.57349C10.2607 5.43833 10.083 5.35944 9.89565 5.35352Z" fill="#14895E"/>
<path d="M7.78933 6.69288C8.12818 6.69288 8.40288 6.4171 8.40288 6.07691C8.40288 5.73672 8.12818 5.46094 7.78933 5.46094C7.45048 5.46094 7.17578 5.73672 7.17578 6.07691C7.17578 6.4171 7.45048 6.69288 7.78933 6.69288Z" fill="#14895E"/>
<path d="M5.97959 6.59413C6.26435 6.57379 6.47876 6.32555 6.4585 6.03967C6.43824 5.75379 6.19097 5.53853 5.90622 5.55887C5.62146 5.57921 5.40705 5.82745 5.42731 6.11333C5.44757 6.39921 5.69484 6.61447 5.97959 6.59413Z" fill="#14895E"/>
</g>
<defs>
<clipPath id="clip0_3488_23787">
<rect width="20" height="20" fill="white" transform="translate(0 0.773438)"/>
</clipPath>
</defs>
</svg>
