<svg width="20" height="21" viewBox="0 0 20 21" fill="none" xmlns="http://www.w3.org/2000/svg">
<path d="M8.11452 17.7425C7.28311 17.4908 5.59836 16.4867 5.04671 15.9141C4.62852 15.48 4.55951 15.3646 4.81482 15.5263C5.4125 15.9049 5.46726 15.7078 4.97907 14.9352C4.43356 14.0719 4.40644 13.8591 4.84191 13.8591C5.09285 13.8591 5.18543 13.7689 5.25374 13.4579C5.3629 12.9609 5.46918 12.9537 5.74898 13.4245C5.8692 13.6268 6.15166 13.9677 6.37666 14.1822L6.78576 14.5722L7.51623 13.8813C7.91799 13.5013 8.31178 13.1905 8.39132 13.1905C8.47085 13.1905 8.60447 13.3409 8.68825 13.5248C8.80707 13.7856 8.94019 13.8591 9.29324 13.8591C9.74345 13.8591 9.7454 13.8618 9.65426 14.3606C9.60385 14.6364 9.51086 15.0014 9.4476 15.1717C9.20086 15.8359 9.41621 16.0031 10.7927 16.2162L11.3835 16.3077L11.0629 16.5673C10.7516 16.8194 10.7497 16.8323 10.9973 17.0133C11.3848 17.2967 11.1518 17.3974 9.98616 17.4503C9.09552 17.4908 8.94762 17.5289 9.07704 17.6849C9.20326 17.837 9.16116 17.869 8.84746 17.8596C8.63618 17.8533 8.30636 17.8006 8.11452 17.7425Z" fill="#ED0038"/>
<path d="M12.3784 16.8599C12.7053 16.631 12.7696 16.3199 12.5085 16.2311C12.4165 16.1998 12.6121 16.0375 12.9431 15.8705C13.9219 15.3766 14.143 15.1144 14.0004 14.6169C13.7852 13.8665 13.8454 13.4948 14.1967 13.4066C14.382 13.3601 14.5841 13.1577 14.6825 12.9203C14.8481 12.5206 14.8569 12.5174 15.2009 12.7339C15.3934 12.855 15.6291 13.0522 15.7248 13.1722C15.8824 13.37 15.9234 13.3592 16.1639 13.0561C16.3099 12.8722 16.5488 12.4961 16.6949 12.2202C16.841 11.9444 16.993 11.7188 17.0326 11.7188C17.0722 11.7188 17.0674 11.7789 17.022 11.8525C16.9765 11.926 17.0109 11.9862 17.0984 11.9862C17.378 11.9862 17.1308 12.9261 16.5471 14.0827C16.1495 14.8705 15.7549 15.407 15.1354 16.0018C14.6626 16.4559 14.1973 16.7973 14.1014 16.7605C14.0055 16.7237 13.6023 16.7779 13.2054 16.8808C12.2412 17.1309 12.0002 17.1248 12.3784 16.8599Z" fill="#ED0038"/>
<path d="M9.93451 12.9221C9.82533 12.5781 9.39612 12.3492 9.06024 12.4558C8.73558 12.5588 8.72374 12.3408 8.99842 11.3174C9.24254 10.408 9.24285 10.3813 9.00953 10.3813C8.8339 10.3813 7.59651 9.89322 7.4821 9.77881C7.45416 9.75091 7.55751 9.55086 7.71172 9.3343C7.95121 8.99795 7.97059 8.87884 7.84457 8.51737C7.76344 8.28463 7.73816 8.05311 7.78839 8.00287C7.83862 7.95265 8.32701 7.88896 8.87371 7.86135L9.8677 7.81116L9.88105 7.39114C9.88836 7.16013 9.93718 6.82068 9.98948 6.6368C10.0697 6.3547 10.1526 6.30921 10.5197 6.34561C10.7591 6.36934 11.0978 6.29509 11.2726 6.18061C11.5734 5.98349 11.6055 5.99184 11.8779 6.33806C12.036 6.53914 12.2498 6.9054 12.3528 7.15198L12.5402 7.60029L13.4948 7.50442L14.4495 7.40855L14.3872 7.8327C14.3383 8.16591 14.3943 8.31134 14.6481 8.51101C15.0637 8.83793 14.9598 9.20069 14.3409 9.58318C13.8362 9.89508 13.7872 10.0769 14.0612 10.622C14.161 10.8206 14.2803 11.1806 14.3262 11.422C14.3988 11.804 14.3663 11.8774 14.0754 11.988C13.8916 12.0579 13.6831 12.2678 13.6121 12.4545C13.4845 12.7902 13.4775 12.7917 12.9834 12.5852C12.7086 12.4704 12.3033 12.2622 12.0828 12.1226L11.6817 11.8687L10.9833 12.5292C10.2112 13.2595 10.0596 13.3162 9.93454 12.9221H9.93451Z" fill="#ED0038"/>
<path d="M3.82179 12.4536C3.70613 12.2329 3.53519 11.7966 3.44192 11.484C3.26921 10.9052 3.13209 10.7833 2.99044 11.0828C2.85977 11.3591 3.0166 9.39473 3.15366 9.0386C3.2234 8.85735 3.35432 8.47762 3.44459 8.19476C3.63355 7.60263 5.44978 5.61542 5.45266 5.99766C5.45418 6.18994 5.51155 6.20665 5.79744 6.09796C5.98611 6.02622 6.16716 5.96753 6.19978 5.96753C6.23238 5.96753 6.07333 6.29667 5.8463 6.69894C5.46091 7.38182 5.42477 7.70606 5.73405 7.70606C5.80563 7.70606 6.07707 7.79501 6.33725 7.90372L6.81032 8.10138L6.57575 8.49848C6.37805 8.83315 6.36716 8.95258 6.50643 9.25826C6.70872 9.70223 6.5899 9.80225 5.72187 9.91873C4.71525 10.0538 4.73895 10.0264 4.82555 10.9538C4.86841 11.4127 4.94404 11.8939 4.99364 12.0232C5.06981 12.2217 5.01547 12.2526 4.64324 12.2221C4.2711 12.1917 4.18942 12.238 4.11737 12.5204L4.03208 12.8548L3.82179 12.4536Z" fill="#ED0038"/>
<path d="M17.1124 10.2777C17.103 10.078 17.0124 9.64375 16.911 9.31277C16.7349 8.73773 16.7021 8.70914 16.1724 8.66985C15.6648 8.6322 15.618 8.59726 15.618 8.25594C15.618 8.05091 15.4977 7.77423 15.3506 7.6411C15.2035 7.50798 15.0831 7.32216 15.0831 7.22819C15.0831 7.13422 15.2035 7.01913 15.3506 6.97244C15.7662 6.84052 15.6713 6.54615 15.004 5.89759C14.5942 5.4993 14.4637 5.30078 14.6117 5.30078C14.8678 5.30078 15.601 6.04066 16.1883 6.89176C16.8592 7.86406 17.5869 10.3582 17.2588 10.561C17.1877 10.6049 17.1218 10.4775 17.1124 10.2777Z" fill="#ED0038"/>
<path d="M9.28005 5.04688C8.79663 4.55181 8.7479 4.53293 8.28409 4.66099C8.01588 4.73505 7.67738 4.87902 7.53189 4.98093C7.19272 5.21849 7.0594 5.21536 7.0594 4.96983C7.0594 4.85019 6.981 4.80351 6.8588 4.8504C6.74847 4.89274 6.6582 4.89168 6.6582 4.84813C6.6582 4.80449 7.09451 4.55081 7.62777 4.2844C8.44971 3.87376 8.7734 3.78933 9.75377 3.72987C11.2267 3.64053 12.689 3.9589 13.0024 4.43716L13.209 4.75252L12.6583 4.55822C12.3554 4.45136 11.8787 4.36392 11.5988 4.36392H11.0901L11.2145 4.79767C11.2829 5.03624 11.3389 5.25356 11.3389 5.28062C11.3389 5.30769 11.1366 5.29188 10.8893 5.24548C10.5697 5.18553 10.391 5.21989 10.2711 5.36432C10.0151 5.67286 9.83486 5.61515 9.28005 5.04697V5.04688Z" fill="#ED0038"/>
</svg>
