<svg width="20" height="22" viewBox="0 0 20 22" fill="none" xmlns="http://www.w3.org/2000/svg">
<g clip-path="url(#clip0_3486_22923)">
<path d="M2.31491 0.00560335C3.44696 0.00195312 4.57901 0.00879729 5.71106 0.00195312C5.71106 2.4181 5.71106 4.83424 5.71106 7.25038C5.73707 8.06073 6.01768 8.87884 6.55838 9.49116C7.3213 10.4083 8.50536 10.897 9.67802 10.9786C9.67802 12.1084 9.67802 13.2383 9.67802 14.3683C9.69719 15.5793 9.30889 16.8126 8.51631 17.7388C7.94732 18.4096 7.12646 18.869 6.24857 18.9662C5.95289 18.8061 5.65539 18.6441 5.38162 18.4552C6.11852 18.4643 6.80889 18.0934 7.34685 17.6129C7.82139 17.1653 8.2138 16.615 8.42278 15.994C8.62681 15.4273 8.73372 14.8301 8.73898 14.2278C8.73898 13.339 8.73898 12.4483 8.73898 11.5622C8.23707 11.4513 7.73104 11.3309 7.26746 11.1027C6.27092 10.6674 5.40398 9.88174 4.98602 8.86697C4.95727 8.75017 4.83909 8.70956 4.74647 8.65526C3.95754 8.22225 3.32604 7.53054 2.9204 6.73388C2.52478 5.91209 2.31776 5.01229 2.31445 4.10024C2.31445 2.73506 2.31445 1.37018 2.31445 0.00560335M3.3119 0.469638C3.3087 1.98402 3.29958 3.49841 3.29775 5.0128C3.30825 5.67622 3.42278 6.34923 3.72073 6.94696C3.95389 7.44886 4.35086 7.8513 4.77019 8.20446C4.71403 7.90345 4.68441 7.59809 4.68167 7.2919C4.6835 5.01751 4.6835 2.74266 4.68167 0.467357C4.22493 0.470094 3.76864 0.467357 3.3119 0.469638Z" fill="#FE0036"/>
<path d="M14.2878 0.00436253C15.4176 0.00436253 16.5474 0.00801275 17.6776 0.00436253C17.6799 1.38643 17.6776 2.76804 17.6776 4.14965C17.6756 4.87856 17.5388 5.60081 17.2742 6.28001C17.0141 6.97831 16.5882 7.60293 16.0331 8.1001C15.7443 8.37067 15.4016 8.57052 15.0649 8.77174C14.9075 9.10391 14.7455 9.43699 14.5142 9.72992C14.0446 10.3527 13.3894 10.8209 12.6776 11.1307C12.2282 11.3488 11.7377 11.4556 11.2544 11.5705C11.2563 12.3988 11.2563 13.227 11.2544 14.055C11.2401 14.8649 11.4065 15.6678 11.7418 16.4053C12.0917 17.0906 12.6215 17.7057 13.3009 18.0839C13.7015 18.3121 14.1537 18.4672 14.6187 18.4567C14.3595 18.6264 14.0926 18.7837 13.8179 18.9285C13.7175 18.9896 13.5984 18.9449 13.4921 18.9285C12.8077 18.7913 12.1793 18.4542 11.6865 17.9598C10.9706 17.2412 10.5326 16.2716 10.3811 15.276C10.2899 14.7193 10.3355 14.1531 10.3227 13.5919V10.9769C11.2481 10.914 12.1652 10.5978 12.8971 10.021C13.3798 9.62361 13.7982 9.12764 14.0195 8.53448C14.1955 8.09608 14.2871 7.62843 14.2897 7.15606C14.2875 4.77186 14.2875 2.38781 14.2897 0.00390625M15.3145 0.46931C15.3145 2.71328 15.3145 4.95756 15.3145 7.20215C15.3234 7.54007 15.2928 7.87788 15.2232 8.20869C15.6047 7.88474 15.9725 7.52428 16.2106 7.08078C16.5939 6.38267 16.7126 5.57506 16.7057 4.78661C16.6966 3.3466 16.6838 1.90704 16.6834 0.467028C16.2257 0.470222 15.7694 0.467484 15.3127 0.469766L15.3145 0.46931Z" fill="#FE0036"/>
<path d="M6.39807 2.22304C8.71953 1.33585 11.2868 1.33715 13.6074 2.22669C13.6074 2.43597 13.6074 2.6454 13.6074 2.85499C11.3406 1.86988 8.66353 1.86213 6.39807 2.85499C6.39533 2.64282 6.3967 2.43293 6.39807 2.22304Z" fill="#FE0036"/>
<path d="M0.892053 7.41348C1.18522 6.78396 1.53996 6.18499 1.9511 5.62533C2.01427 5.90996 2.09845 6.18951 2.20297 6.46169C1.45666 7.67262 1.00242 9.04062 0.876171 10.4574C0.749924 11.8743 0.95514 13.301 1.47558 14.6248C1.99602 15.9486 2.81741 17.1332 3.87475 18.0847C4.93209 19.0362 6.19636 19.7286 7.56754 20.1071C8.83125 20.4533 10.1544 20.5249 11.4481 20.317C12.7418 20.1092 13.976 19.6267 15.0676 18.902C16.1592 18.1773 17.083 17.2273 17.7768 16.1158C18.4705 15.0043 18.9182 13.7571 19.0897 12.4581C19.3297 10.58 18.9852 8.62536 18.08 6.95857C17.9992 6.78199 17.866 6.62686 17.8062 6.44435C17.8901 6.17058 17.9887 5.90275 18.0517 5.62305C18.5254 6.27606 18.9246 6.98007 19.2417 7.72192C19.8977 9.30593 20.1357 11.032 19.9327 12.7344C19.7296 14.4369 19.0924 16.0585 18.0822 17.4438C17.0939 18.7885 15.7743 19.8959 14.2576 20.5981C12.4453 21.465 10.366 21.7415 8.38566 21.4194C6.62923 21.1314 4.98141 20.3801 3.61218 19.243C2.24295 18.1058 1.20189 16.624 0.596378 14.9503C-0.297489 12.5274 -0.176573 9.76103 0.892053 7.41348Z" fill="#FE0036"/>
<path d="M7.97917 3.52316C8.19819 3.47115 8.51257 3.49214 8.60201 3.73944C8.67775 4.01047 8.62528 4.29701 8.64033 4.57443H8.33051C8.32367 4.34629 8.3442 4.11815 8.32184 3.89001C8.28854 3.7367 8.01476 3.75313 8.00746 3.91419C7.99286 4.4777 8.00746 5.04257 8.00153 5.60698C8.00518 5.76805 7.97644 5.9387 8.05446 6.0879C8.15119 6.09201 8.28945 6.12303 8.32093 5.99664C8.34603 5.7539 8.32093 5.50843 8.33006 5.2666H8.64079C8.63486 5.5171 8.65174 5.76851 8.63303 6.01809C8.62254 6.16547 8.52854 6.31604 8.38116 6.35665C8.22962 6.38771 8.07314 6.38537 7.92259 6.3498C7.73506 6.28045 7.68487 6.06052 7.6876 5.88212C7.6876 5.24333 7.6876 4.60454 7.6876 3.96575C7.68441 3.77913 7.77247 3.55328 7.97917 3.52316Z" fill="white"/>
<path d="M9.28399 3.50883C9.41456 3.48816 9.5483 3.50395 9.67046 3.55446C9.82058 3.62655 9.87579 3.80541 9.87442 3.96146C9.87442 4.61667 9.87442 5.27204 9.87442 5.92756C9.884 6.11281 9.78317 6.33 9.58194 6.36102C9.39578 6.37927 9.16079 6.41213 9.02071 6.25745C8.9039 6.13243 8.91257 5.95037 8.91211 5.79159C8.91759 5.15873 8.90664 4.52542 8.91759 3.89256C8.91758 3.79398 8.95547 3.69917 9.02341 3.62775C9.09136 3.55632 9.18416 3.51375 9.28262 3.50883M9.31638 3.79765C9.21144 3.83416 9.22513 3.96602 9.22193 4.05499C9.22832 4.69378 9.21509 5.33257 9.22832 5.96817C9.23927 6.14429 9.54772 6.14657 9.55411 5.96817C9.56597 5.32938 9.55411 4.69287 9.55958 4.05499C9.55593 3.9715 9.57053 3.87248 9.49935 3.80952C9.44183 3.78546 9.37792 3.78129 9.31775 3.79765H9.31638Z" fill="white"/>
<path d="M10.1895 6.34842C10.1895 5.41092 10.1895 4.47357 10.1895 3.53638C10.4117 3.5455 10.6384 3.51493 10.8575 3.56375C10.9994 3.5925 11.0906 3.7344 11.097 3.87311C11.1148 4.14688 11.097 4.42064 11.1052 4.69441C11.1052 4.86278 11.118 5.06308 10.9811 5.18719C10.8506 5.304 10.6617 5.27115 10.5025 5.27845C10.492 5.6348 10.5025 5.99115 10.4979 6.34705C10.3948 6.34705 10.2921 6.34705 10.1895 6.34705M10.4979 3.83478C10.4979 4.2211 10.4979 4.60757 10.4979 4.99418C10.5951 4.97867 10.7502 5.02704 10.7867 4.90293C10.8095 4.66703 10.7867 4.42886 10.7968 4.1925C10.7908 4.08391 10.8141 3.96756 10.7676 3.86581C10.685 3.82246 10.586 3.84208 10.4979 3.83478Z" fill="white"/>
<path d="M11.5118 3.53711H12.0689C12.1552 4.47385 12.2296 5.4115 12.3044 6.34915H11.9777C11.9663 6.16664 11.9521 5.98413 11.9321 5.79888C11.8283 5.79888 11.7251 5.80025 11.6222 5.80298C11.6117 5.9855 11.5985 6.16801 11.5876 6.35052H11.2764C11.3544 5.41287 11.4251 4.47476 11.51 3.53757M11.6469 5.50504H11.9206C11.8522 4.91917 11.8435 4.32784 11.7696 3.74289C11.7463 4.32966 11.6925 4.91689 11.6496 5.50458L11.6469 5.50504Z" fill="white"/>
<path d="M9.23516 6.69531C9.37205 6.71585 9.57601 6.65379 9.65905 6.80026C9.72476 6.89562 9.66498 7.02292 9.57053 7.07402C9.45855 7.0897 9.3454 7.09535 9.23242 7.09091C9.23242 6.9595 9.23242 6.82809 9.23516 6.69714M9.33098 7.00512C9.42224 6.99737 9.58787 7.01699 9.58468 6.88056C9.55547 6.77014 9.41676 6.80482 9.33326 6.78246C9.33189 6.85501 9.33098 6.92893 9.33098 7.0033V7.00512Z" fill="white"/>
<path d="M9.85547 6.70935C9.98276 6.69514 10.1111 6.69346 10.2388 6.70433L10.2816 6.78327C10.1744 6.78737 10.0672 6.78738 9.95996 6.78738L9.95311 6.85217H10.2164C10.2228 6.86814 10.2365 6.89779 10.2429 6.91559C10.1485 6.92978 10.0531 6.93649 9.95768 6.93567L9.9554 7.00274L10.268 6.99954C10.268 7.02145 10.268 7.06525 10.268 7.08715C10.1302 7.08715 9.99327 7.08715 9.85729 7.08715L9.85547 6.70935Z" fill="white"/>
<path d="M10.4746 6.67969C10.6324 6.70296 10.5448 6.89186 10.5658 6.99908H10.8642V7.0876H10.4668C10.4673 6.95254 10.4668 6.81611 10.4746 6.67969Z" fill="white"/>
<path d="M8.60938 7.44798C8.80421 7.44798 9.00178 7.43019 9.19479 7.46441C9.37731 7.51004 9.391 7.73361 9.38187 7.88692C9.35906 8.12099 9.45579 8.41438 9.24498 8.58685C9.31023 8.91446 9.37639 9.24161 9.44575 9.56831C9.3367 9.56831 9.22856 9.56831 9.11996 9.56557C9.05973 9.20329 8.99403 8.84191 8.92649 8.481C8.88725 8.84283 8.92193 9.20739 8.91098 9.57059C8.8106 9.57059 8.71021 9.57059 8.61029 9.56694C8.61029 8.86062 8.61029 8.1543 8.61029 7.44798M8.91189 7.70578V8.41849C8.97441 8.40617 9.05152 8.41347 9.09121 8.35141C9.10673 8.14563 9.09395 7.94076 9.09623 7.7327C9.03418 7.72266 8.97212 7.71445 8.91098 7.70578H8.91189Z" fill="white"/>
<path d="M9.67322 7.44531C9.87673 7.44531 10.0802 7.44531 10.2837 7.44531V7.72273L9.96707 7.71817V8.27483C10.0483 8.27483 10.1304 8.27254 10.2126 8.27209C10.2103 8.36334 10.208 8.4514 10.2053 8.54084L9.96753 8.53445V9.29552C10.077 9.29308 10.187 9.29126 10.2974 9.29004C10.2997 9.38928 10.297 9.48857 10.2892 9.58754C10.0892 9.56016 9.88644 9.56016 9.68645 9.58754C9.65771 8.87346 9.68189 8.15893 9.67322 7.44531Z" fill="white"/>
<path d="M10.5166 7.44577H10.8182C10.8748 7.84182 10.9254 8.23969 10.9857 8.63528C11.0199 8.2365 11.0769 7.84045 11.1394 7.44531H11.4246C11.3334 7.92349 11.2512 8.4035 11.1618 8.88167C11.1162 9.10981 11.1372 9.33795 11.1344 9.56609H10.815C10.8127 9.35438 10.8324 9.14038 10.7899 8.93141C10.6968 8.43909 10.6129 7.94266 10.5166 7.44577Z" fill="white"/>
</g>
<defs>
<clipPath id="clip0_3486_22923">
<rect width="20" height="21.5459" fill="white"/>
</clipPath>
</defs>
</svg>
