<svg width="20" height="21" viewBox="0 0 20 21" fill="none" xmlns="http://www.w3.org/2000/svg">
<g clip-path="url(#clip0_3486_23717)">
<path d="M9.85322 18.5025C10.2222 18.4414 10.6152 18.5805 10.8654 18.857C11.0695 19.0775 11.1747 19.3778 11.1686 19.6764C11.1584 19.9495 11.0446 20.2175 10.8554 20.416C10.667 20.6161 10.4047 20.7434 10.1311 20.7671C9.82167 20.7977 9.50259 20.6942 9.27052 20.4872C8.98689 20.2396 8.83473 19.8443 8.898 19.4711C8.93973 19.1573 9.12074 18.8655 9.3818 18.6874C9.52226 18.5924 9.6846 18.5262 9.85322 18.5025Z" fill="url(#paint0_linear_3486_23717)"/>
<path d="M10.6996 19.9768C10.6348 20.0022 10.5861 20.065 10.5782 20.1345C10.5605 20.2482 10.6635 20.3584 10.7783 20.3517C10.894 20.35 10.9892 20.2295 10.9612 20.1176C10.9403 20.0039 10.8063 19.931 10.6996 19.9768Z" fill="white"/>
<path d="M10.0035 18.8378C9.89098 18.8734 9.86113 19.038 9.95188 19.1126C10.0323 19.1906 10.1817 19.1414 10.2041 19.0329C10.2413 18.9175 10.1185 18.792 10.0035 18.8378Z" fill="white"/>
<path d="M10.3456 18.8393C10.315 18.9156 10.2596 18.9801 10.219 19.0513C10.1812 19.1463 10.0736 19.1735 10.0027 19.2379C9.85904 19.1124 9.71859 18.9818 9.55692 18.88C9.4984 18.8444 9.43733 18.7986 9.36523 18.8071C9.3766 18.8308 9.38898 18.8563 9.40815 18.8749C9.49568 18.9665 9.57066 19.0683 9.63326 19.1786C9.69263 19.2837 9.74098 19.4008 9.73572 19.5246C9.72944 19.7095 9.65514 19.8842 9.56116 20.0386C9.54912 20.0624 9.52435 20.0878 9.54233 20.115C9.57847 20.1285 9.6107 20.1014 9.63818 20.081C9.78389 19.9674 9.8967 19.8198 10.0166 19.6807C10.1914 19.8639 10.3242 20.0912 10.3849 20.3372C10.383 20.3745 10.4302 20.3558 10.4334 20.3338C10.4886 20.2083 10.4857 20.0641 10.4509 19.9351C10.4132 19.7536 10.3188 19.5942 10.2177 19.4432C10.3133 19.2787 10.3988 19.1022 10.4273 18.9122C10.429 18.8715 10.435 18.824 10.41 18.7884C10.3734 18.768 10.3557 18.8122 10.3456 18.8393Z" fill="white"/>
<path d="M10.6996 19.9768C10.8063 19.931 10.9403 20.0039 10.9612 20.1176C10.9892 20.2295 10.894 20.35 10.7783 20.3517C10.6635 20.3584 10.5605 20.2482 10.5782 20.1345C10.5861 20.065 10.6348 20.0022 10.6996 19.9768Z" fill="white"/>
<path d="M10.026 13.373C9.67991 13.3731 9.26807 13.3911 8.92393 13.4272C8.78799 15.0104 8.51136 16.5847 8.05311 18.1087C7.97122 18.3774 7.88487 18.6428 7.7832 18.9049C8.10007 19.0851 8.41557 19.2702 8.73244 19.452C8.75551 19.1948 8.84835 18.9409 9.01791 18.7427C9.25996 18.4495 9.64341 18.2987 10.026 18.2987C10.4085 18.2987 10.792 18.4495 11.034 18.7427C11.2036 18.9409 11.2963 19.1948 11.3193 19.452C11.6362 19.2702 11.9518 19.0851 12.2687 18.9049C12.167 18.6428 12.0807 18.3774 11.9988 18.1087C11.5406 16.5847 11.2639 15.0104 11.128 13.4272C10.7838 13.3911 10.372 13.3731 10.026 13.373Z" fill="url(#paint1_linear_3486_23717)"/>
<path d="M11.4941 13.5508C11.6093 13.5708 11.7268 13.5831 11.8395 13.6143C11.8906 15.1623 12.1424 16.7082 12.639 18.1786C12.5937 18.3162 12.5359 18.4522 12.484 18.5882C12.2569 17.9902 12.0817 17.3725 11.9348 16.7498C11.6909 15.6996 11.5472 14.6271 11.4941 13.5508Z" fill="url(#paint2_linear_3486_23717)"/>
<path d="M8.55698 13.5508C8.4418 13.5708 8.32431 13.5831 8.21161 13.6143C8.16053 15.1623 7.90875 16.7082 7.41211 18.1786C7.45742 18.3162 7.51526 18.4522 7.56716 18.5882C7.79423 17.9902 7.96939 17.3725 8.11637 16.7498C8.36024 15.6996 8.50392 14.6271 8.55698 13.5508Z" fill="url(#paint3_linear_3486_23717)"/>
<path d="M14.9341 2.08984C13.1099 4.00038 12.0677 6.69654 11.6318 9.34964C11.7981 9.32445 11.964 9.29194 12.1295 9.2514C12.4287 7.27012 13.6956 4.74954 14.9341 3.57666V2.08984Z" fill="url(#paint4_linear_3486_23717)"/>
<path d="M5.06738 2.08984V3.57666C6.30587 4.74954 7.57279 7.27012 7.87203 9.2514C8.0375 9.29194 8.20343 9.32445 8.36967 9.34964C7.9338 6.69654 6.89159 4.00038 5.06738 2.08984Z" fill="url(#paint5_linear_3486_23717)"/>
<path d="M7.38194 0.773438L6.12207 1.92443C7.24755 4.09873 8.74545 6.64443 8.92302 9.41094C9.28426 9.43816 9.64405 9.44395 9.99958 9.44638C10.3551 9.44395 10.7149 9.43816 11.0761 9.41094C11.2537 6.64443 12.7516 4.09873 13.8771 1.92443L12.6172 0.773438H7.38194Z" fill="url(#paint6_linear_3486_23717)"/>
<path d="M0.202036 11.4562C0.390161 11.3419 0.620017 11.3554 0.831552 11.3544C1.08668 11.3585 1.343 11.3429 1.59729 11.3697C1.73333 11.3871 1.88685 11.4178 1.97439 11.5342C2.06005 11.656 2.05462 11.8128 2.05734 11.9551C1.895 11.9551 1.73282 11.9551 1.57048 11.9551C1.56506 11.9059 1.57048 11.847 1.52926 11.8112C1.47752 11.7675 1.40509 11.7666 1.3408 11.7642C1.15946 11.7642 0.977947 11.7625 0.796607 11.7642C0.712638 11.7661 0.617303 11.7792 0.560136 11.8475C0.496014 11.9285 0.503138 12.0385 0.501612 12.1361C0.505004 12.2457 0.489907 12.3615 0.533673 12.4652C0.569466 12.5471 0.666158 12.5695 0.747243 12.5715C0.945208 12.5736 1.14334 12.5715 1.34131 12.5715C1.40577 12.5683 1.47752 12.5698 1.53249 12.5317C1.58609 12.4884 1.58219 12.4133 1.58931 12.3514C1.75165 12.3514 1.91416 12.3514 2.07651 12.3514C2.07481 12.5047 2.09415 12.6764 1.99712 12.8075C1.89652 12.9405 1.71841 12.972 1.56166 12.9797C1.34623 12.9844 1.13062 12.9814 0.915013 12.9819C0.750975 12.9802 0.585411 12.9895 0.42324 12.9603C0.307888 12.9398 0.189822 12.8947 0.112977 12.8024C0.0371501 12.7149 0.0117048 12.597 0 12.4842V11.8558C0.0108567 11.7039 0.0649703 11.5391 0.202036 11.4562Z" fill="#B58427"/>
<path d="M13.4964 11.3692C13.6335 11.3487 13.7728 11.3553 13.911 11.3543C14.1366 11.3543 14.3622 11.3526 14.5878 11.3543C14.7529 11.3602 14.9327 11.378 15.0652 11.4871C15.1845 11.5862 15.2221 11.7492 15.2242 11.8976C15.2242 12.0839 15.2259 12.2701 15.2242 12.4564C15.2199 12.607 15.1741 12.7719 15.046 12.8639C14.9 12.9683 14.7122 12.9782 14.5388 12.9817C14.2386 12.98 13.9383 12.9851 13.6381 12.9794C13.4564 12.9712 13.2465 12.9375 13.1329 12.779C13.0074 12.6013 13.0435 12.3731 13.0379 12.1687C13.0437 11.9758 13.0111 11.767 13.1105 11.5913C13.1867 11.4516 13.3466 11.3882 13.4969 11.3685M13.7928 11.7658C13.712 11.7709 13.6216 11.7977 13.58 11.8734C13.5312 11.9631 13.5417 12.0691 13.5397 12.1677C13.5424 12.2683 13.531 12.3753 13.5743 12.4696C13.6128 12.5502 13.7098 12.5695 13.7909 12.5712C14.0119 12.5729 14.233 12.5712 14.454 12.5712C14.5358 12.5695 14.6345 12.5585 14.681 12.4815C14.7334 12.3865 14.7188 12.2734 14.7217 12.1692C14.7197 12.0666 14.7331 11.9536 14.6756 11.8625C14.6204 11.7789 14.5115 11.7641 14.4192 11.7633C14.2104 11.7633 14.0014 11.7602 13.7928 11.7653V11.7658Z" fill="#B58427"/>
<path d="M18.1031 11.4765C18.2286 11.374 18.4017 11.3627 18.5577 11.3549C18.8342 11.3532 19.1124 11.353 19.389 11.3549C19.5399 11.3628 19.7062 11.3745 19.8249 11.4775C19.9352 11.5784 19.9284 11.7401 19.9301 11.8768C19.7672 11.8768 19.6044 11.8768 19.4415 11.8768C19.4348 11.8334 19.4415 11.7793 19.4025 11.7489C19.355 11.7147 19.294 11.7152 19.238 11.7118C19.0565 11.7101 18.875 11.7118 18.6935 11.7118C18.6358 11.7135 18.573 11.7118 18.5238 11.7448C18.4678 11.7798 18.4644 11.8595 18.4933 11.9126C18.5323 11.9627 18.6035 11.9615 18.6595 11.9686C18.914 11.9828 19.1684 11.9667 19.4212 11.9805C19.5688 11.9908 19.7282 11.9961 19.8555 12.0794C19.964 12.1523 19.9844 12.2924 19.9996 12.4125V12.5664C19.9827 12.6828 19.9606 12.8191 19.8521 12.887C19.7147 12.9711 19.545 12.971 19.389 12.98C19.0887 12.9845 18.7901 12.9849 18.4899 12.98C18.344 12.9708 18.1744 12.9603 18.0692 12.8451C17.9742 12.7342 17.9861 12.5788 17.9844 12.4427C18.1472 12.4427 18.3084 12.4427 18.4712 12.4427C18.4797 12.4943 18.478 12.5571 18.5238 12.5935C18.5662 12.6261 18.6239 12.6236 18.6765 12.6254C18.88 12.6254 19.0836 12.6254 19.2872 12.6254C19.3398 12.6237 19.3957 12.6236 19.4415 12.5959C19.4958 12.5618 19.4992 12.4862 19.4823 12.4303C19.4602 12.375 19.3923 12.3679 19.3398 12.3599C19.0073 12.3275 18.6714 12.3672 18.3389 12.3216C18.2303 12.3043 18.1048 12.275 18.042 12.175C17.9793 12.0665 17.9895 11.9348 17.9878 11.8139C17.9895 11.6945 18.0047 11.5584 18.1031 11.477V11.4765Z" fill="#B58427"/>
<path d="M2.37012 11.3712C2.53348 11.3729 2.69666 11.3689 2.85985 11.3731C2.85816 11.5617 2.85985 11.7505 2.85985 11.9393C3.20235 11.9393 3.54484 11.9393 3.8875 11.9393C3.8875 11.75 3.8875 11.5606 3.8875 11.3712C4.05052 11.3712 4.21354 11.3712 4.37656 11.3712C4.37656 11.9027 4.37656 12.4342 4.37656 12.9658C4.21354 12.9658 4.05052 12.9658 3.88733 12.9658C3.88733 12.7645 3.88903 12.5633 3.88733 12.3619C3.54501 12.3636 3.20269 12.3619 2.86036 12.3636C2.86036 12.5646 2.86036 12.7655 2.86036 12.9665C2.69734 12.9665 2.53432 12.9665 2.37113 12.9665C2.37113 12.4349 2.37113 11.9034 2.37113 11.3719L2.37012 11.3712Z" fill="#B58427"/>
<path d="M5.41206 11.3713C5.62512 11.373 5.83835 11.3686 6.05142 11.3735C6.34064 11.9055 6.63462 12.4347 6.92521 12.966C6.74336 12.966 6.56168 12.966 6.37983 12.966C6.32996 12.8727 6.27822 12.7803 6.23004 12.6861C5.89942 12.6834 5.56863 12.6839 5.23801 12.6861C5.19323 12.7798 5.14336 12.8709 5.09891 12.9649C4.91588 12.9681 4.73284 12.9649 4.5498 12.9666C4.83581 12.4341 5.1247 11.9033 5.41206 11.3715M5.7286 11.7454C5.62733 11.9438 5.5247 12.1416 5.42292 12.3398C5.63021 12.3398 5.83751 12.3398 6.0448 12.3398C5.93895 12.1418 5.83632 11.9421 5.7286 11.7454Z" fill="#B58427"/>
<path d="M7.0957 11.3718C7.34676 11.3718 7.59782 11.3694 7.84888 11.3735C8.03039 11.715 8.21547 12.0547 8.39867 12.3955C8.5834 12.0544 8.7661 11.7122 8.95117 11.3713C9.20122 11.373 9.45126 11.3713 9.7013 11.3713C9.7013 11.9027 9.7013 12.4342 9.7013 12.9657C9.54252 12.9657 9.38358 12.9657 9.2248 12.9657C9.2248 12.5833 9.2248 12.2011 9.2248 11.8189C9.00953 12.2006 8.79681 12.5837 8.58239 12.9657C8.45991 12.9657 8.33743 12.9657 8.21496 12.9657C8.00207 12.5852 7.79087 12.2033 7.57509 11.8244C7.56882 12.2049 7.5734 12.5855 7.57238 12.9662C7.4136 12.9662 7.25482 12.9662 7.09587 12.9662C7.09587 12.4351 7.09587 11.9038 7.09587 11.3725L7.0957 11.3718Z" fill="#B58427"/>
<path d="M10.0303 11.3724C10.4808 11.3707 10.9314 11.3707 11.3818 11.3724C11.5417 11.3747 11.7209 11.4056 11.8299 11.5342C11.938 11.6631 11.9407 11.8412 11.9377 12.0009C11.9432 12.1486 11.9209 12.3077 11.824 12.4253C11.7463 12.5215 11.6204 12.5661 11.4995 12.5659C11.1733 12.5676 10.8472 12.5659 10.521 12.5659C10.521 12.6992 10.521 12.8326 10.521 12.9661C10.3573 12.9661 10.1938 12.9661 10.0303 12.9661C10.0303 12.4348 10.0303 11.9037 10.0303 11.3725M10.521 11.769C10.521 11.9018 10.521 12.0348 10.521 12.1676C10.7738 12.1676 11.0265 12.1676 11.2793 12.1676C11.3399 12.1713 11.4033 12.1379 11.423 12.0786C11.4418 12.0124 11.4401 11.9406 11.4276 11.8736C11.4092 11.801 11.3302 11.771 11.2625 11.7702C11.0153 11.7673 10.7682 11.7702 10.521 11.7685V11.769Z" fill="#B58427"/>
<path d="M12.2275 11.3716C12.3907 11.3716 12.5537 11.3716 12.7168 11.3716C12.7168 11.9029 12.7168 12.4344 12.7168 12.9657C12.5537 12.9657 12.3907 12.9657 12.2275 12.9657C12.2275 12.434 12.2275 11.9026 12.2275 11.3711V11.3716Z" fill="#B58427"/>
<path d="M15.5173 11.3714C15.7682 11.373 16.0191 11.3691 16.2698 11.373C16.3558 11.4607 16.4248 11.5663 16.5047 11.6607C16.7351 11.9503 16.9634 12.2416 17.1958 12.5301C17.1958 12.1439 17.1958 11.7578 17.1958 11.3715C17.3587 11.3715 17.5232 11.3698 17.6861 11.3732C17.6861 11.9043 17.6861 12.4355 17.6861 12.9666C17.4333 12.9666 17.1805 12.9666 16.9288 12.9666C16.6211 12.5819 16.3185 12.1931 16.009 11.8099C16.0063 12.1953 16.009 12.5805 16.0074 12.9659C15.8437 12.9659 15.6801 12.9659 15.5166 12.9659C15.5166 12.4343 15.5166 11.9028 15.5166 11.3713L15.5173 11.3714Z" fill="#B58427"/>
<path opacity="0.93" d="M10.4899 9.76494C10.5532 9.76325 10.6168 9.76325 10.6803 9.76494C10.6024 9.8428 10.5266 9.92338 10.4457 9.99802C10.3997 10.0087 10.3515 10.0012 10.3047 10.0026C10.3659 9.92304 10.4289 9.84484 10.4899 9.76528V9.76494Z" fill="white"/>
<path opacity="0.93" d="M5.93991 10.0362C6.13075 10.0265 6.32244 10.0345 6.51362 10.0318C6.61438 10.0301 6.73177 10.0516 6.79148 10.1419C6.86527 10.2547 6.84068 10.3965 6.84526 10.5237C6.84526 10.6409 6.85696 10.7755 6.77537 10.871C6.70276 10.9544 6.58317 10.9617 6.48037 10.9597C6.316 10.958 6.15162 10.9597 5.98724 10.958C5.89717 10.956 5.79725 10.9298 5.74399 10.8511C5.67902 10.7548 5.68885 10.6325 5.68767 10.5219C5.69106 10.4023 5.67325 10.2742 5.72906 10.1634C5.76841 10.0845 5.85544 10.0438 5.93991 10.0354M5.99488 10.176C5.94415 10.1789 5.88546 10.1975 5.8668 10.2499C5.8417 10.3208 5.85493 10.3979 5.85187 10.4715C5.85577 10.559 5.84102 10.6491 5.86426 10.7346C5.88309 10.7938 5.94958 10.8143 6.0059 10.8145C6.164 10.818 6.32227 10.8145 6.48054 10.8162C6.53703 10.8138 6.60404 10.8179 6.64661 10.7728C6.68224 10.7322 6.68122 10.6744 6.68241 10.6236C6.68072 10.5273 6.6841 10.4311 6.68241 10.3349C6.68072 10.2839 6.67019 10.2223 6.62049 10.1965C6.56129 10.1682 6.49343 10.175 6.42982 10.1736C6.28512 10.1756 6.14008 10.1705 5.99555 10.176L5.99488 10.176Z" fill="white"/>
<path opacity="0.93" d="M16.1325 10.0543C16.2704 10.0181 16.4143 10.0366 16.5551 10.0319C16.6755 10.0336 16.8106 10.0259 16.9132 10.1001C16.9871 10.1549 16.9871 10.2541 16.9854 10.3369C16.9334 10.3369 16.8815 10.3369 16.8297 10.3369C16.8236 10.2889 16.8387 10.2163 16.7807 10.1959C16.686 10.1683 16.5856 10.1767 16.4882 10.1747C16.3885 10.1769 16.2864 10.1669 16.189 10.1925C16.12 10.2108 16.1174 10.2963 16.1296 10.3535C16.1376 10.4022 16.1944 10.4096 16.2346 10.4144C16.41 10.4237 16.5861 10.4093 16.7615 10.4227C16.8575 10.4303 16.9685 10.4734 16.9973 10.5762C17.0126 10.6629 17.0177 10.7599 16.977 10.8407C16.9279 10.9301 16.8182 10.9525 16.7251 10.9576C16.5782 10.9618 16.4311 10.9593 16.2842 10.9594C16.1907 10.9572 16.0837 10.9467 16.018 10.8722C15.9603 10.8063 15.9685 10.7131 15.9692 10.6319C16.0209 10.6319 16.073 10.6319 16.1251 10.6319C16.1303 10.6885 16.1067 10.7756 16.1754 10.8012C16.2771 10.8285 16.3841 10.8127 16.4882 10.8168C16.5873 10.8129 16.6893 10.8281 16.7863 10.802C16.854 10.7822 16.8528 10.6989 16.846 10.6422C16.8443 10.59 16.7863 10.5725 16.7434 10.5725C16.5683 10.5664 16.3926 10.5774 16.2178 10.561C16.1364 10.5525 16.0413 10.5303 15.9994 10.4519C15.9609 10.375 15.9619 10.2833 15.9795 10.201C15.9961 10.1267 16.0606 10.0726 16.1325 10.0543Z" fill="white"/>
<path opacity="0.93" d="M2.9873 10.0418C3.332 10.0401 3.67687 10.0418 4.02174 10.0418C4.02174 10.0894 4.02174 10.1373 4.02174 10.1849C3.87653 10.1849 3.73116 10.1833 3.58595 10.1866C3.58781 10.4416 3.58595 10.6966 3.58764 10.9515C3.53268 10.9515 3.47789 10.9515 3.4231 10.9515C3.4231 10.6962 3.4231 10.4411 3.4231 10.1858C3.27806 10.1841 3.13302 10.1858 2.98815 10.1858C2.98815 10.1381 2.98815 10.0906 2.98815 10.0431L2.9873 10.0418Z" fill="white"/>
<path opacity="0.93" d="M4.31627 10.9516C4.31322 10.6481 4.31457 10.3445 4.31627 10.041C4.56258 10.0427 4.80889 10.0393 5.0552 10.0427C5.1446 10.0456 5.25316 10.0568 5.30592 10.1399C5.35189 10.2207 5.33968 10.3185 5.33917 10.4078C5.33917 10.4688 5.29846 10.5185 5.24994 10.5506C5.29201 10.5788 5.32628 10.623 5.3273 10.6758C5.33069 10.7676 5.3273 10.8595 5.32899 10.9515C5.27725 10.9515 5.22535 10.9515 5.17361 10.9515C5.17004 10.8602 5.18141 10.7677 5.16614 10.6773C5.15664 10.6269 5.10117 10.611 5.05656 10.6117C4.86436 10.6093 4.67183 10.6117 4.47963 10.61C4.47963 10.7236 4.47963 10.8371 4.47963 10.9508C4.42568 10.9508 4.37191 10.9508 4.31797 10.9525M4.47793 10.1845C4.47793 10.2792 4.47793 10.374 4.47793 10.4687C4.6647 10.467 4.85147 10.4707 5.03807 10.467C5.0859 10.4627 5.15342 10.4614 5.17021 10.4059C5.17819 10.3503 5.17903 10.2928 5.16852 10.2374C5.14969 10.1944 5.09506 10.1918 5.05503 10.1869C4.86266 10.1816 4.66996 10.1852 4.47742 10.1845L4.47793 10.1845Z" fill="white"/>
<path opacity="0.93" d="M7.21777 10.0412C7.4634 10.0412 7.70921 10.0412 7.95484 10.0412C8.02931 10.0429 8.11514 10.0475 8.16807 10.1075C8.22201 10.1703 8.22167 10.2583 8.22134 10.3365C8.21913 10.4084 8.21676 10.49 8.164 10.5453C8.10531 10.6035 8.01693 10.6095 7.93889 10.6112C7.75331 10.6112 7.5679 10.6112 7.38232 10.6112C7.38232 10.7241 7.38232 10.8373 7.38232 10.9503C7.32753 10.9503 7.27257 10.9503 7.21794 10.9503C7.21794 10.6471 7.21794 10.3442 7.21794 10.041M7.38232 10.1842C7.38232 10.2792 7.38232 10.3743 7.38232 10.4693C7.55094 10.4693 7.71955 10.4693 7.88834 10.4693C7.93228 10.4677 7.97876 10.471 8.01947 10.4509C8.05933 10.4278 8.05713 10.3762 8.05815 10.3365C8.05628 10.2936 8.06273 10.2437 8.0327 10.2088C8.00132 10.1855 7.96027 10.1861 7.92329 10.184C7.74296 10.184 7.56247 10.184 7.38215 10.184L7.38232 10.1842Z" fill="white"/>
<path opacity="0.93" d="M8.55014 10.0427C8.60442 10.0427 8.6587 10.0427 8.71299 10.041C8.7157 10.165 8.71299 10.289 8.71469 10.413C8.95795 10.413 9.2012 10.413 9.44463 10.413C9.44463 10.2894 9.44463 10.1657 9.44463 10.0419C9.49891 10.0419 9.5532 10.0419 9.60765 10.0419C9.60765 10.345 9.60765 10.648 9.60765 10.9511C9.5532 10.9511 9.49891 10.9511 9.44463 10.9511C9.44463 10.8193 9.44463 10.6873 9.44463 10.5555C9.2012 10.5533 8.95778 10.5555 8.71435 10.5538C8.71435 10.6856 8.71435 10.8174 8.71435 10.9492C8.65939 10.9509 8.6046 10.9509 8.5498 10.9509C8.5498 10.648 8.5498 10.3448 8.5498 10.0419L8.55014 10.0427Z" fill="white"/>
<path opacity="0.93" d="M10.0023 10.0432C10.2999 10.0432 10.5972 10.0432 10.8948 10.0432C10.8948 10.0903 10.8948 10.1375 10.8948 10.1848C10.652 10.1848 10.4093 10.1831 10.1665 10.1848C10.1665 10.2608 10.1665 10.3368 10.1665 10.4128C10.3996 10.4128 10.6327 10.4128 10.8659 10.4128C10.8659 10.4601 10.8659 10.5074 10.8659 10.5548C10.6325 10.5566 10.3989 10.5531 10.1655 10.5565C10.1655 10.6401 10.1655 10.7236 10.1655 10.8072C10.4098 10.8072 10.6541 10.8072 10.8983 10.8072C10.9 10.8545 10.9 10.9018 10.9002 10.9492C10.6005 10.9529 10.3007 10.9492 10.001 10.9509C10.001 10.6482 10.001 10.3456 10.001 10.043L10.0023 10.0432Z" fill="white"/>
<path opacity="0.93" d="M11.2451 10.0424C11.5425 10.0424 11.84 10.0424 12.1374 10.0424C12.1374 10.09 12.1374 10.1377 12.1374 10.1854C11.8941 10.1854 11.6511 10.1854 11.408 10.1854C11.408 10.261 11.408 10.3365 11.408 10.4122C11.641 10.4122 11.8743 10.4122 12.1075 10.4122C12.1075 10.46 12.1075 10.5078 12.1075 10.5559C11.8743 10.5579 11.641 10.5542 11.4078 10.5542C11.4078 10.6388 11.4061 10.7235 11.4095 10.8081C11.6536 10.8064 11.898 10.8064 12.1423 10.8081C12.1423 10.8554 12.1423 10.9029 12.1423 10.9504C11.8432 10.9504 11.5443 10.9504 11.2455 10.9504C11.2455 10.6473 11.2455 10.3442 11.2455 10.041L11.2451 10.0424Z" fill="white"/>
<path opacity="0.93" d="M13.2658 10.041C13.5085 10.041 13.7515 10.041 13.9944 10.041C14.0929 10.043 14.2035 10.0493 14.2799 10.1202C14.3557 10.1937 14.3688 10.3055 14.3749 10.4056C14.3786 10.5123 14.3805 10.6212 14.354 10.7255C14.3376 10.7911 14.3018 10.8546 14.2439 10.8921C14.1708 10.9408 14.08 10.9492 13.9945 10.9504C13.7516 10.9504 13.5085 10.9504 13.2656 10.9504C13.2656 10.6473 13.2656 10.3443 13.2656 10.0414M13.431 10.1842C13.4327 10.3922 13.4293 10.6 13.4327 10.8078C13.6259 10.8061 13.8191 10.8078 14.0125 10.8078C14.0724 10.8078 14.1442 10.7962 14.1757 10.7382C14.2168 10.6626 14.212 10.5732 14.214 10.4899C14.2113 10.4074 14.2158 10.3184 14.1727 10.2447C14.143 10.1957 14.0805 10.1854 14.0281 10.185C13.8293 10.185 13.6303 10.185 13.4314 10.185L13.431 10.1842Z" fill="white"/>
<path opacity="0.93" d="M14.7496 10.9296C14.7496 10.6334 14.7496 10.3372 14.7496 10.041C15.047 10.041 15.3444 10.041 15.6417 10.041C15.6417 10.0885 15.6417 10.1364 15.6417 10.184C15.3985 10.184 15.1554 10.184 14.9121 10.184C14.9121 10.2595 14.9121 10.3352 14.9121 10.4108C15.1461 10.4108 15.38 10.4091 15.6139 10.4125C15.6139 10.4602 15.6139 10.508 15.6122 10.556C15.3786 10.556 15.1449 10.556 14.9113 10.556C14.9113 10.64 14.9113 10.724 14.9113 10.8079C15.1559 10.8079 15.4005 10.8079 15.6451 10.8079C15.6451 10.8556 15.6451 10.9033 15.6451 10.9509C15.3659 10.9509 15.0867 10.9509 14.8076 10.9509C14.7886 10.9455 14.7434 10.9635 14.7484 10.9294L14.7496 10.9296Z" fill="white"/>
</g>
<defs>
<linearGradient id="paint0_linear_3486_23717" x1="10.8522" y1="18.8565" x2="9.14567" y2="20.5193" gradientUnits="userSpaceOnUse">
<stop stop-color="#E0CA96"/>
<stop offset="0.443146" stop-color="#C7A250"/>
<stop offset="1" stop-color="#B88728"/>
</linearGradient>
<linearGradient id="paint1_linear_3486_23717" x1="9.96303" y1="13.3154" x2="9.90187" y2="19.3179" gradientUnits="userSpaceOnUse">
<stop stop-color="#DBDCDC"/>
<stop offset="0.22678" stop-color="#D0D0D1"/>
<stop offset="0.443146" stop-color="#C7C6C9"/>
<stop offset="0.731987" stop-color="#B4B2B5"/>
<stop offset="1" stop-color="#A4A1A5"/>
</linearGradient>
<linearGradient id="paint2_linear_3486_23717" x1="10.0862" y1="13.4403" x2="10.0862" y2="18.4527" gradientUnits="userSpaceOnUse">
<stop stop-color="#EAD38E"/>
<stop offset="0.222222" stop-color="#EFDA92"/>
<stop offset="0.518519" stop-color="#EACE6E"/>
<stop offset="0.827161" stop-color="#E3C049"/>
<stop offset="1" stop-color="#DCB330" stop-opacity="0.603922"/>
</linearGradient>
<linearGradient id="paint3_linear_3486_23717" x1="10.0866" y1="13.4403" x2="10.0866" y2="18.4527" gradientUnits="userSpaceOnUse">
<stop stop-color="#EAD38E"/>
<stop offset="0.222222" stop-color="#EFDA92"/>
<stop offset="0.518519" stop-color="#EACE6E"/>
<stop offset="0.827161" stop-color="#E3C049"/>
<stop offset="1" stop-color="#DCB330" stop-opacity="0.603922"/>
</linearGradient>
<linearGradient id="paint4_linear_3486_23717" x1="10.2113" y1="2.17831" x2="10.2113" y2="9.23276" gradientUnits="userSpaceOnUse">
<stop stop-color="#E8D38C"/>
<stop offset="0.114879" stop-color="#EAD387"/>
<stop offset="0.273466" stop-color="#E3C772"/>
<stop offset="0.525185" stop-color="#D1AC50"/>
<stop offset="0.777797" stop-color="#C39A3A"/>
<stop offset="1" stop-color="#B58527" stop-opacity="0.94902"/>
</linearGradient>
<linearGradient id="paint5_linear_3486_23717" x1="10.2109" y1="2.17831" x2="10.2109" y2="9.23276" gradientUnits="userSpaceOnUse">
<stop stop-color="#E8D38C"/>
<stop offset="0.114879" stop-color="#EAD387"/>
<stop offset="0.273466" stop-color="#E3C772"/>
<stop offset="0.525185" stop-color="#D1AC50"/>
<stop offset="0.777797" stop-color="#C39A3A"/>
<stop offset="1" stop-color="#B58527" stop-opacity="0.94902"/>
</linearGradient>
<linearGradient id="paint6_linear_3486_23717" x1="10.21" y1="0.754938" x2="10.2719" y2="9.48018" gradientUnits="userSpaceOnUse">
<stop stop-color="#D6D6D7"/>
<stop offset="0.071019" stop-color="#DAD9DB"/>
<stop offset="0.141887" stop-color="#E3E1E4"/>
<stop offset="0.226939" stop-color="#C2BDC3"/>
<stop offset="0.38306" stop-color="#AEA6AF"/>
<stop offset="0.815662" stop-color="#BFBBC1"/>
<stop offset="1" stop-color="#C6C6C9"/>
</linearGradient>
<clipPath id="clip0_3486_23717">
<rect width="20" height="20" fill="white" transform="translate(0 0.773438)"/>
</clipPath>
</defs>
</svg>
