<svg width="20" height="21" viewBox="0 0 20 21" fill="none" xmlns="http://www.w3.org/2000/svg">
<path fill-rule="evenodd" clip-rule="evenodd" d="M6.33995 1.64844L1.02051 6.96838V14.4886L6.33995 19.807H13.8617L19.1811 14.4886V6.96838L13.8617 1.64844H6.33995Z" fill="url(#paint0_linear_3486_23178)"/>
<path fill-rule="evenodd" clip-rule="evenodd" d="M6.46059 1.93945L1.31152 7.08852V14.3687L6.46059 19.5187H13.7417L18.8898 14.3687V7.08852L13.7417 1.93945H6.46059Z" fill="url(#paint1_linear_3486_23178)"/>
<path d="M16.7529 7.90118L18.7808 7.06641L18.8716 7.09172L18.8262 7.17947L16.7994 8.01322L16.7529 7.90118Z" fill="#5F6A70"/>
<path d="M16.7847 13.4258L18.8073 14.2688L18.8543 14.3514L18.7599 14.3803L16.7393 13.5383L16.7847 13.4258Z" fill="#5F6A70"/>
<path d="M12.9164 17.3672L13.7511 19.3909L13.7257 19.4833L13.639 19.4353L12.8037 17.4136L12.9164 17.3672Z" fill="#5F6A70"/>
<path d="M7.40277 17.4048L6.56286 19.4285L6.47716 19.4744L6.4502 19.3774L7.29219 17.3594L7.40277 17.4048Z" fill="#5F6A70"/>
<path d="M10.2939 4.85094C10.2721 4.77969 10.1969 4.74046 10.1308 4.76111C10.0585 4.78693 10.0213 4.86075 10.0425 4.92735C10.0643 4.99807 10.139 5.03731 10.2092 5.01408C10.2779 4.99239 10.3145 4.9196 10.2939 4.85094ZM10.4044 5.22419C10.4004 5.22776 10.5097 5.15502 10.506 5.07758C10.5021 5.0244 10.4333 5.01046 10.4152 4.99962L10.4275 4.9769L10.4342 4.94953C10.4525 4.95469 10.5184 4.98463 10.552 4.94795C10.6 4.88652 10.5591 4.76003 10.5603 4.76519C10.5643 4.76717 10.5246 4.64129 10.4488 4.62218C10.4008 4.60878 10.3636 4.66814 10.3492 4.68517L10.3294 4.66816L10.3083 4.65474C10.3186 4.64082 10.3677 4.58351 10.3408 4.54067C10.299 4.47613 10.1638 4.47458 10.169 4.47458C10.1729 4.47458 10.0415 4.4722 9.99652 4.5355C9.96876 4.57834 10.0243 4.64133 10.0326 4.65733L10.012 4.67073L9.99453 4.68521C9.98026 4.66923 9.94296 4.60985 9.89286 4.61966C9.81802 4.64083 9.78239 4.76214 9.78703 4.76007C9.78703 4.75492 9.74055 4.87623 9.791 4.93715C9.81955 4.9738 9.89064 4.94797 9.90976 4.94384L9.91726 4.9676L9.92443 4.99084C9.905 4.99806 9.83097 5.01409 9.82891 5.06312C9.82375 5.1421 9.93265 5.22007 9.92491 5.21542C9.92491 5.21185 10.0266 5.29336 10.0973 5.266C10.1469 5.24843 10.1382 5.17359 10.1402 5.15501L10.1648 5.15699L10.187 5.15501C10.187 5.17361 10.1823 5.25362 10.2289 5.27066C10.3037 5.30164 10.4105 5.22265 10.4054 5.22419M10.4854 5.43895C10.4338 5.41571 10.3378 5.48748 10.2583 5.472C10.1881 5.45339 10.1591 5.36409 10.1591 5.36099C10.1631 5.36872 10.1357 5.46322 10.0776 5.472C9.9934 5.48647 9.89381 5.40849 9.84062 5.42656C9.79779 5.44151 9.75856 5.49315 9.74253 5.51483L9.68937 5.47612C9.70484 5.4534 9.74457 5.40488 9.74921 5.35945C9.75477 5.30163 9.64804 5.23401 9.63825 5.15244C9.62754 5.08533 9.70484 5.03834 9.72292 5.02906C9.70468 5.0373 9.60883 5.02747 9.58765 4.98001C9.5474 4.90516 9.58763 4.78849 9.55352 4.74048C9.52655 4.70641 9.4663 4.68524 9.43945 4.67853C9.43945 4.67655 9.45969 4.61451 9.45969 4.61451C9.48745 4.62225 9.54591 4.64445 9.58823 4.63259C9.64451 4.62228 9.67857 4.50509 9.75134 4.47463C9.81798 4.44314 9.88512 4.49838 9.89853 4.51076C9.89178 4.50354 9.85827 4.39666 9.9025 4.35485C9.95929 4.296 10.0858 4.30065 10.1198 4.25315C10.1444 4.2165 10.1432 4.15093 10.146 4.12305L10.2116 4.12463C10.2116 4.14994 10.2076 4.21447 10.2322 4.25319C10.2608 4.3012 10.3819 4.30068 10.4336 4.35901C10.4831 4.41425 10.451 4.49841 10.4439 4.51234C10.4502 4.50461 10.5419 4.4411 10.5946 4.47207C10.67 4.50769 10.7051 4.63107 10.7613 4.64604C10.8021 4.65842 10.8646 4.64089 10.8894 4.63212L10.9092 4.69408C10.883 4.69872 10.824 4.71732 10.7936 4.75293C10.7555 4.79423 10.7976 4.9078 10.7563 4.97749C10.7202 5.04099 10.6277 5.03893 10.6097 5.03841C10.6204 5.04158 10.699 5.09984 10.6918 5.15818C10.6795 5.23975 10.5761 5.31409 10.5792 5.37036C10.5792 5.41579 10.6181 5.46948 10.6334 5.4922C10.6334 5.49339 10.5792 5.52988 10.5792 5.52988C10.5633 5.5087 10.5276 5.45348 10.4868 5.43902M16.1242 10.8369C16.1242 10.76 16.0644 10.7006 15.9926 10.6996C15.9172 10.6996 15.8568 10.76 15.8568 10.8359C15.8528 10.9061 15.9141 10.967 15.9926 10.967C16.0633 10.967 16.1221 10.9071 16.1242 10.8369ZM16.1155 11.236C16.1099 11.236 16.2394 11.1973 16.2605 11.1219C16.2728 11.0703 16.2094 11.0305 16.1955 11.0181L16.2142 10.9995L16.228 10.9768C16.2447 10.9855 16.3018 11.0356 16.3442 11.0078C16.4118 10.9649 16.4103 10.8286 16.4118 10.8369C16.4118 10.8401 16.4118 10.7037 16.3468 10.6619C16.3044 10.6319 16.2471 10.681 16.2301 10.6913L16.2162 10.6691L16.1992 10.649C16.215 10.6361 16.2787 10.6004 16.2668 10.5514C16.2462 10.4724 16.1135 10.429 16.1192 10.429C16.1243 10.431 15.9978 10.3903 15.9333 10.4383C15.8944 10.4662 15.9277 10.5498 15.9293 10.5684L15.906 10.573L15.8849 10.5834C15.8762 10.5622 15.8564 10.4909 15.8065 10.4863C15.7285 10.4839 15.6552 10.5906 15.6588 10.5859C15.6628 10.5844 15.5803 10.6897 15.6077 10.7625C15.6252 10.8079 15.7017 10.8043 15.7192 10.8053V10.8332V10.8554C15.6998 10.8566 15.6232 10.8498 15.6036 10.8998C15.5762 10.9716 15.6567 11.0779 15.6526 11.0723C15.6478 11.0703 15.7259 11.1796 15.8049 11.1771C15.855 11.1759 15.871 11.0996 15.8772 11.0826L15.9014 11.0908L15.924 11.095C15.9188 11.1172 15.8883 11.193 15.9291 11.2235C15.9921 11.2741 16.1186 11.2338 16.115 11.2359M16.1273 11.463C16.0824 11.4274 15.9667 11.4666 15.8965 11.4274C15.8335 11.3871 15.8315 11.2963 15.8351 11.2865C15.8351 11.2999 15.7798 11.381 15.7189 11.3717C15.6338 11.3598 15.562 11.2534 15.5052 11.2545C15.4572 11.2545 15.4035 11.2921 15.3813 11.3087L15.3415 11.2545C15.3633 11.2374 15.4179 11.2018 15.436 11.1574C15.457 11.1068 15.3771 11.0046 15.3895 10.9241C15.4018 10.8554 15.4928 10.8332 15.5124 10.8311C15.4949 10.8331 15.4045 10.794 15.3962 10.7382C15.3788 10.6592 15.4572 10.555 15.4375 10.4961C15.4233 10.4543 15.3678 10.4156 15.3477 10.399L15.3874 10.3453C15.408 10.3624 15.4598 10.4011 15.5052 10.4047C15.564 10.4099 15.6316 10.3082 15.7127 10.3004C15.7865 10.2953 15.835 10.367 15.8438 10.3805C15.8399 10.3722 15.8399 10.2602 15.8949 10.2308C15.9698 10.19 16.0916 10.2343 16.1381 10.2003C16.1753 10.1714 16.1944 10.1105 16.2047 10.0821L16.2661 10.1032C16.2594 10.1275 16.2375 10.1879 16.2463 10.2344C16.2613 10.2922 16.3784 10.3268 16.411 10.3991C16.4403 10.4662 16.3864 10.54 16.3729 10.555C16.3801 10.5472 16.4886 10.5142 16.534 10.5581C16.5939 10.6191 16.5897 10.7476 16.6377 10.7781C16.6758 10.808 16.7426 10.8065 16.7699 10.808V10.8731C16.741 10.8731 16.6785 10.8727 16.6377 10.8963C16.5866 10.9257 16.5928 11.0491 16.5324 11.0997C16.4772 11.1518 16.39 11.124 16.3704 11.1131C16.3791 11.1219 16.438 11.204 16.4112 11.2582C16.3739 11.3356 16.2526 11.3728 16.2351 11.428C16.2232 11.4734 16.2438 11.5375 16.2526 11.5607L16.1875 11.5813C16.1788 11.5566 16.1592 11.4956 16.1273 11.463Z" fill="#5F6A70"/>
<path d="M10.1745 16.6927C10.1983 16.623 10.161 16.5446 10.0945 16.5224C10.0196 16.4986 9.94477 16.5358 9.91895 16.6081C9.89634 16.6772 9.93398 16.7526 10.0067 16.7763C10.0728 16.8032 10.1512 16.7614 10.1745 16.6927ZM10.0413 17.0711C10.0357 17.0711 10.1709 17.0731 10.2132 17.0061C10.2433 16.9627 10.1941 16.909 10.1842 16.8904L10.2088 16.876L10.2294 16.8594C10.2429 16.8754 10.281 16.9384 10.3301 16.925C10.4055 16.9038 10.4483 16.7763 10.4468 16.7846C10.4468 16.7861 10.4896 16.6576 10.4397 16.5972C10.4099 16.5559 10.339 16.5869 10.3204 16.5899L10.3133 16.5641L10.3034 16.5404C10.322 16.5321 10.3942 16.5171 10.3968 16.465C10.4039 16.3876 10.2915 16.306 10.2962 16.306C10.3009 16.3122 10.194 16.2301 10.117 16.2549C10.0701 16.2766 10.0763 16.3587 10.0747 16.3783L10.0493 16.3763H10.0255C10.0255 16.3546 10.0294 16.2818 9.98213 16.2622C9.90884 16.2353 9.80718 16.3174 9.81079 16.3159C9.81476 16.3123 9.70336 16.3825 9.70646 16.462C9.71122 16.511 9.78084 16.5306 9.80198 16.5384L9.79128 16.5642L9.78411 16.59C9.76349 16.5813 9.69479 16.5503 9.66124 16.5932C9.61114 16.651 9.65491 16.7801 9.65412 16.7739C9.65015 16.7687 9.68703 16.8983 9.76354 16.92C9.8126 16.9334 9.85182 16.8647 9.86419 16.8513L9.88361 16.8647L9.90346 16.8797C9.89275 16.8962 9.83945 16.9602 9.86816 17.0036C9.91255 17.0722 10.0459 17.0696 10.0413 17.0711ZM9.97913 17.2896C9.95335 17.2416 9.83047 17.2442 9.7768 17.1838C9.72516 17.1285 9.75457 17.0377 9.75933 17.0335C9.75377 17.0402 9.67725 17.1042 9.62304 17.0759C9.54558 17.0377 9.50945 16.9148 9.45373 16.8967C9.41085 16.8843 9.34941 16.9029 9.32359 16.9138L9.3018 16.8487C9.32639 16.84 9.39057 16.8203 9.42052 16.7863C9.45621 16.7455 9.41341 16.6231 9.4499 16.5493C9.48282 16.4879 9.57535 16.4925 9.59292 16.4977C9.57785 16.4905 9.50412 16.429 9.51134 16.3764C9.52364 16.2907 9.62904 16.2174 9.62904 16.1601C9.62507 16.1136 9.58877 16.0609 9.57327 16.0377L9.62696 15.9969C9.6452 16.0217 9.68018 16.0754 9.72146 16.0904C9.77671 16.1136 9.8712 16.0403 9.9512 16.0573C10.0235 16.0707 10.0456 16.1564 10.0513 16.1724C10.0474 16.1642 10.085 16.0583 10.1463 16.0475C10.231 16.0315 10.3327 16.1136 10.388 16.0929C10.4308 16.0785 10.469 16.0253 10.486 16.0021L10.5392 16.0434C10.5253 16.0661 10.486 16.1136 10.4803 16.1611C10.474 16.2179 10.5769 16.2876 10.5851 16.3702C10.5891 16.444 10.5154 16.4925 10.4994 16.5039C10.5093 16.4987 10.6233 16.5039 10.6497 16.5601C10.6894 16.634 10.6445 16.7579 10.6786 16.8048C10.7088 16.8399 10.771 16.8585 10.7979 16.8683L10.7757 16.9308C10.7495 16.9215 10.6894 16.8983 10.6446 16.9102C10.5878 16.9236 10.5537 17.0402 10.4804 17.0733C10.4112 17.1037 10.3363 17.048 10.3219 17.0366C10.3291 17.0418 10.3596 17.1399 10.3167 17.1858C10.2563 17.2462 10.1293 17.2431 10.0958 17.2896C10.07 17.3288 10.0704 17.397 10.0688 17.4249H10.0028C10.0028 17.3959 10.0029 17.3298 9.97913 17.2896ZM4.21713 10.8406C4.29248 10.8406 4.35701 10.7813 4.35753 10.7079C4.35753 10.6315 4.29814 10.5727 4.21969 10.5727C4.14636 10.5703 4.0885 10.6295 4.08747 10.7064C4.08747 10.7776 4.14585 10.8406 4.21713 10.8406ZM4.27488 11.0982C4.3157 11.0688 4.28681 10.9903 4.28007 10.9718L4.30543 10.9645L4.32882 10.9558C4.33556 10.9733 4.35103 11.0502 4.40057 11.0518C4.48009 11.059 4.55857 10.9485 4.55342 10.9521C4.54945 10.9557 4.63394 10.852 4.60503 10.7777C4.58956 10.7291 4.51109 10.7364 4.49043 10.7348L4.4944 10.708V10.6821C4.51185 10.6806 4.58732 10.6894 4.60798 10.6419C4.63694 10.5681 4.55633 10.4617 4.55787 10.4658C4.56184 10.47 4.49182 10.3605 4.41389 10.3621C4.36173 10.3667 4.34415 10.438 4.33487 10.4565L4.31144 10.4478L4.28883 10.4395C4.29279 10.422 4.32774 10.3445 4.28491 10.3115C4.22244 10.2599 4.09437 10.3007 4.09952 10.3001C4.10508 10.299 3.97307 10.3435 3.94982 10.4158C3.93753 10.4659 4.00146 10.5082 4.01693 10.519L4.00027 10.5392L3.98439 10.5609C3.96734 10.5511 3.91111 10.5015 3.86931 10.5263C3.80169 10.5691 3.80119 10.7065 3.80274 10.7008C3.80274 10.6931 3.79876 10.833 3.86519 10.8763C3.90906 10.9021 3.9643 10.8551 3.98183 10.8428L3.99611 10.8691L4.01354 10.8892C3.99926 10.9006 3.93358 10.9398 3.94595 10.9899C3.96657 11.0648 4.09464 11.1071 4.09052 11.1066C4.08576 11.103 4.21127 11.1484 4.2758 11.0983M4.00996 11.4509L3.94697 11.4287C3.95688 11.4039 3.97669 11.3404 3.96638 11.2971C3.94933 11.2387 3.8301 11.2016 3.79243 11.1252C3.76546 11.0689 3.82849 10.9879 3.83527 10.9832C3.81822 10.9889 3.73047 11.0157 3.67526 10.9667C3.61537 10.9109 3.62153 10.7855 3.57093 10.7571C3.53325 10.7338 3.47027 10.7338 3.44238 10.7328V10.6672C3.47094 10.6672 3.53272 10.6676 3.57349 10.643C3.62049 10.613 3.61897 10.4834 3.68093 10.423C3.72531 10.3791 3.83215 10.4143 3.84147 10.4184C3.82997 10.406 3.77644 10.3322 3.80579 10.2671C3.84029 10.1912 3.95904 10.1608 3.97403 10.1035C3.98276 10.0586 3.96258 9.99765 3.95346 9.97287L4.01848 9.95117C4.028 9.97854 4.04745 10.0441 4.082 10.0684C4.12951 10.104 4.25131 10.0627 4.32616 10.1035C4.37986 10.136 4.37779 10.249 4.37418 10.2552C4.38291 10.2403 4.43302 10.1711 4.50636 10.1788C4.5879 10.1876 4.65399 10.2904 4.71285 10.2862C4.75727 10.2834 4.80885 10.2439 4.8321 10.2289L4.87136 10.2847C4.85034 10.2991 4.79497 10.3384 4.77792 10.3802C4.75928 10.4365 4.83419 10.5397 4.81975 10.6228C4.80746 10.675 4.71647 10.7126 4.69842 10.7126C4.71746 10.7154 4.80733 10.7385 4.8182 10.8076C4.83129 10.8892 4.74849 10.9888 4.76916 11.042C4.78581 11.0828 4.83934 11.1236 4.86052 11.1391L4.82169 11.1927C4.7963 11.1757 4.7468 11.1323 4.70036 11.1323C4.64202 11.1304 4.56715 11.2372 4.48196 11.2459C4.42052 11.2552 4.37043 11.1747 4.36683 11.1644C4.37079 11.1716 4.3708 11.2661 4.30282 11.3007C4.23159 11.3404 4.11854 11.2995 4.07464 11.3352C4.03894 11.3621 4.01835 11.4271 4.00855 11.4509" fill="#5F6A70"/>
<path d="M15.2162 5.69336C16.4563 6.98811 17.2208 8.73871 17.2208 10.6731C17.2208 14.6498 13.9974 17.8706 10.0217 17.8706C8.08736 17.8706 6.33316 17.1087 5.04102 15.8691C6.35124 17.2326 8.19476 18.0869 10.2365 18.0869C14.2111 18.0869 17.434 14.8635 17.434 10.8899C17.434 8.84403 16.5827 7.00411 15.2162 5.69336Z" fill="#5F6A70"/>
<path d="M10.2367 15.6454C12.8639 15.6454 14.9919 13.5149 14.9919 10.8897C14.9919 9.51755 14.4147 8.28681 13.4911 7.41797C14.2882 8.26926 14.7781 9.41223 14.7781 10.6729C14.7781 13.3006 12.6486 15.4307 10.0219 15.4307C8.76174 15.4307 7.61879 14.9402 6.76855 14.1426C7.63481 15.0652 8.86812 15.6454 10.2367 15.6454Z" fill="white"/>
<path d="M10.2366 3.69092C12.1684 3.69092 13.9237 4.45289 15.2164 5.69396C13.9066 4.32796 12.0631 3.47461 10.0218 3.47461C6.0462 3.47461 2.82324 6.70065 2.82324 10.6737C2.82324 12.7196 3.67454 14.5595 5.04105 15.8697C3.80102 14.576 3.03855 12.8208 3.03855 10.89C3.03855 6.91179 6.25994 3.69092 10.2366 3.69092Z" fill="white"/>
<path d="M10.2367 6.13232C11.4937 6.13232 12.6378 6.61863 13.4911 7.41779C12.6218 6.49473 11.3884 5.91602 10.0219 5.91602C7.39422 5.91602 5.26367 8.04657 5.26367 10.6727C5.26367 12.0429 5.84238 13.2762 6.76857 14.1424C5.96783 13.2917 5.47893 12.1466 5.47893 10.889C5.47893 8.25875 7.60847 6.13232 10.2367 6.13232Z" fill="#5F6A70"/>
<path d="M8.87807 7.93294L8.88519 7.93757L8.89153 7.92933C8.89153 7.92933 8.92883 7.86325 8.93903 7.80749C8.93903 7.80234 8.93903 7.79667 8.93903 7.79044C8.93903 7.72642 8.88686 7.70371 8.8848 7.70371L8.72271 7.62265L8.71874 7.62226L8.70484 7.61041L8.70087 7.63262V7.63983V7.65065C8.70087 7.67802 8.70607 7.74978 8.76647 7.79056L8.77282 7.79469C8.80256 7.81015 8.83577 7.81483 8.85798 7.81483H8.87463C8.87463 7.82101 8.86908 7.83499 8.86234 7.85924C8.85718 7.87058 8.85444 7.88144 8.85444 7.89021C8.85444 7.91964 8.87347 7.93099 8.87546 7.93306M9.36382 7.8076V7.80039L9.37297 7.78591H9.3476L9.16948 7.77354H9.16237C9.14809 7.77235 9.09473 7.78076 9.06994 7.83911C9.05209 7.88299 9.05053 7.93873 9.05053 7.96093V7.96506V7.97485H9.06123H9.0652C9.07392 7.97485 9.10446 7.96506 9.11167 7.91962C9.11564 7.89741 9.11999 7.88298 9.12237 7.87523C9.13824 7.88605 9.17503 7.90723 9.21683 7.90723H9.2208H9.22715C9.31182 7.90259 9.35571 7.8236 9.36087 7.81276L9.36484 7.8076M8.83881 8.56494C8.89402 8.56494 8.94358 8.52983 8.96115 8.46943C8.979 8.41264 8.97268 8.33676 9.03498 8.29236C9.09126 8.24745 9.14908 8.24331 9.18933 8.19375L9.20323 8.17516L9.17626 8.17979C9.17626 8.17979 9.16038 8.18257 9.1231 8.18753C9.10962 8.18872 9.09019 8.1907 9.06786 8.1907C9.0393 8.1907 9.00897 8.18752 8.98676 8.17729C8.96455 8.16904 8.95029 8.15509 8.9491 8.13083C8.9491 8.12207 8.9491 8.11846 8.95307 8.1112C8.95307 8.10141 8.96217 8.0962 8.97248 8.08795C8.98597 8.08636 9.00105 8.08636 9.01533 8.08636C9.05182 8.08438 9.06287 8.05488 9.06287 8.03991C9.06287 8.03579 9.0589 8.02857 9.0589 8.02857L9.05493 8.01774L9.04341 8.02052C9.04341 8.02052 9.03548 8.02515 9.02477 8.02876C9.01128 8.03194 8.99424 8.0365 8.97418 8.0365C8.96228 8.0365 8.94997 8.03611 8.93767 8.03186C8.9103 8.02516 8.89017 8.01017 8.87521 7.99831C8.86292 7.98645 8.85696 7.97764 8.85696 7.97764L8.84786 7.96372L8.83953 7.97764C8.83953 7.97764 8.83077 7.99105 8.83077 8.00604C8.83077 8.01636 8.83078 8.02516 8.84069 8.03599C8.84823 8.04475 8.86093 8.05356 8.86926 8.05923C8.88116 8.06696 8.89027 8.07783 8.89027 8.08659C8.89027 8.08818 8.89027 8.09536 8.8863 8.09639C8.87559 8.13097 8.85735 8.13562 8.83058 8.13562C8.79329 8.13681 8.75158 8.11598 8.74333 8.11031C8.7235 8.09896 8.71119 8.08655 8.70203 8.07778C8.69529 8.0716 8.69172 8.06696 8.69172 8.06696L8.67942 8.04217L8.67429 8.07057V8.07374C8.67429 8.08663 8.67944 8.12227 8.72537 8.18783C8.74203 8.20746 8.74599 8.22447 8.74599 8.24255C8.74599 8.30657 8.67422 8.3711 8.67216 8.43201V8.4332C8.67613 8.50186 8.731 8.54265 8.79141 8.55711C8.80569 8.56028 8.81917 8.56535 8.83222 8.56535M9.62725 8.09196C9.62725 8.09196 9.60822 8.10798 9.55598 8.09553C9.50438 8.08054 9.45271 8.05371 9.45271 8.05371C9.47254 8.42283 9.34073 8.50078 9.34073 8.50078C9.34073 8.50078 9.31297 8.45173 9.29425 8.42953C9.1941 8.32577 9.24575 8.67372 8.97161 8.84512C8.97161 8.84512 8.9267 8.80537 8.8895 8.79917C8.83996 8.79247 8.77025 8.88074 8.77025 8.88074C8.70052 8.82808 8.75442 8.72277 8.75442 8.72277C8.75442 8.72277 8.69914 8.73411 8.67594 8.76923C8.66166 8.79247 8.65415 8.79917 8.65415 8.79917C8.65415 8.79917 8.65812 8.79247 8.65812 8.7171C8.65812 8.65669 8.63353 8.6283 8.58792 8.6283C8.55896 8.6283 8.5244 8.64793 8.5244 8.64793C8.5244 8.64793 8.52837 8.57875 8.47792 8.47498C8.43354 8.36399 8.38704 8.27055 8.42214 8.12239C8.42214 8.12239 8.30346 8.20448 8.25182 8.00934C8.25182 8.00934 8.39326 8.07798 8.41595 7.94531C8.41595 7.94531 8.28228 7.97165 8.26058 7.77754C8.26058 7.76929 8.36023 7.95461 8.42476 7.56897C8.42991 7.538 8.45214 7.47811 8.50271 7.46366C8.50271 7.27316 8.64105 7.17146 8.64311 7.17146C8.72057 7.19625 8.72571 7.28141 8.72571 7.28141C8.72571 7.28141 8.77223 7.27677 8.78821 7.22256C8.82391 7.10279 8.92862 7.1126 8.92862 7.1126C8.89133 7.19159 8.9627 7.24528 8.9627 7.24528C8.9627 7.24528 9.06543 7.18024 9.13254 7.16166C9.19604 7.14048 9.2657 7.15848 9.28069 7.16443C9.23988 7.19643 9.22289 7.24548 9.24264 7.28162C9.26683 7.32292 9.33196 7.32911 9.38876 7.29914C9.42088 7.27796 9.44245 7.25165 9.45121 7.22274C9.49405 7.34303 9.4409 7.40446 9.4409 7.40446C9.54929 7.45247 9.58387 7.35336 9.58387 7.35336C9.58387 7.35336 9.63812 7.48655 9.60929 7.58774C9.59223 7.64504 9.5463 7.67394 9.5463 7.67394C9.5463 7.67394 9.65263 7.67711 9.62217 7.80971C9.57521 8.03634 9.62928 8.0921 9.62928 8.0921M8.76662 8.32803C8.78328 8.29551 8.79718 8.25627 8.78647 8.22064C8.7825 8.20775 8.77259 8.17935 8.75553 8.16077C8.81542 8.19123 8.86858 8.18297 8.90058 8.17056C8.92636 8.22476 9.01671 8.23354 9.06268 8.22786C9.04523 8.24281 8.94704 8.24801 8.92896 8.38894C8.92896 8.41218 8.91505 8.54948 8.78492 8.50818C8.6672 8.46843 8.75194 8.35797 8.76662 8.32803ZM10.5416 9.2299C10.5364 9.2397 10.5312 9.24953 10.5301 9.25984C10.5185 9.30218 10.5408 9.34038 10.5408 9.34038C10.515 9.32646 10.4664 9.30063 10.4664 9.23249C10.4664 9.22218 10.4704 9.20667 10.4736 9.19636C10.4776 9.18656 10.4791 9.18188 10.4823 9.17724C10.4879 9.16744 10.4966 9.1576 10.5085 9.1576C10.5295 9.15443 10.5503 9.1674 10.5534 9.1891C10.5574 9.2025 10.5494 9.21491 10.5411 9.22987M10.3026 9.00169C10.251 9.00288 10.2241 9.03679 10.2241 9.03679C10.2297 9.00891 10.2364 8.95574 10.3026 8.93303C10.3212 8.92787 10.3429 8.92426 10.3599 8.92946C10.3702 8.93065 10.3801 8.93874 10.3856 8.94909C10.3959 8.96718 10.3896 8.99194 10.3702 9.00278C10.3579 9.01052 10.3456 9.00691 10.3284 9.00278C10.3184 9.00278 10.3105 9.00169 10.3026 9.00169ZM10.5183 8.72902C10.5128 8.72438 10.4878 8.73366 10.4822 8.72902C10.4378 8.69701 10.3924 8.71252 10.3924 8.71252C10.4122 8.69289 10.4502 8.65263 10.5163 8.67173C10.531 8.67689 10.5484 8.68256 10.5591 8.69394C10.5631 8.69394 10.5632 8.69553 10.5655 8.69711C10.5739 8.70691 10.4824 8.61451 10.3956 8.71258C10.47 8.70846 10.5185 8.75595 10.4969 8.75337C10.4826 8.75218 10.5294 8.74246 10.5183 8.72902ZM11.9219 9.01458C11.8646 9.02438 11.5099 9.02644 11.4934 9.27684C11.4263 9.24122 11.4159 9.16738 11.4201 9.15603C11.1599 9.17098 11.1501 9.30059 11.1501 9.30059C11.1501 9.30059 11.1031 9.26754 11.1298 9.15965C11.1413 9.11318 11.0235 9.27374 10.993 9.16738C10.9166 9.18337 10.9243 9.28302 10.9243 9.28302C10.9243 9.28302 10.8711 9.26755 10.8711 9.18235C10.8711 9.18235 10.8751 9.1266 10.8309 9.17462C10.8083 9.19786 10.8023 9.22986 10.802 9.22986C10.7571 9.19786 10.7483 9.1266 10.7483 9.1266C10.736 9.18236 10.6307 9.30218 10.5301 9.25984C10.5301 9.24953 10.5364 9.2397 10.5416 9.2299C10.5507 9.21491 10.557 9.20251 10.5534 9.1891C10.5494 9.1674 10.5296 9.15451 10.5085 9.1576C10.4966 9.1576 10.4879 9.16744 10.4823 9.17724C10.4783 9.18188 10.4756 9.18652 10.4736 9.19636C10.4333 9.09208 10.5348 9.04661 10.506 9.05643C10.3867 9.10805 10.3145 9.06262 10.3031 9.00171C10.3107 9.00171 10.319 9.00289 10.3289 9.00289C10.3459 9.00702 10.3582 9.01063 10.3707 9.00289C10.3901 8.99206 10.3965 8.96727 10.3862 8.9492C10.3807 8.93889 10.3707 8.9306 10.3604 8.92957C10.3433 8.92441 10.3216 8.92798 10.3032 8.93314C10.3131 8.88306 10.3501 8.85054 10.4668 8.83247C10.451 8.79272 10.4581 8.75607 10.4799 8.73387C10.4799 8.73268 10.4839 8.72922 10.4839 8.72922C10.4894 8.73386 10.4953 8.73748 10.4997 8.74006C10.5104 8.75346 10.5215 8.76433 10.5358 8.76485C10.5568 8.76762 10.5776 8.74937 10.5791 8.72922C10.5791 8.71943 10.5752 8.70702 10.5668 8.69722C10.5629 8.69563 10.5629 8.69405 10.5605 8.69405C10.5903 8.68735 10.6256 8.68838 10.6601 8.69564C10.7871 8.71939 10.8579 8.82831 10.8579 8.82831C10.8579 8.82831 10.9023 8.82831 10.9983 8.83656C11.0788 8.84326 11.1423 8.86135 11.1423 8.86135C10.8418 8.74261 10.9209 8.55212 10.9209 8.55212C10.9209 8.55212 11.2162 8.83657 12.0375 8.86135C12.0375 8.86135 12.0912 8.98783 11.9229 9.01468M12.4066 9.38173C12.4019 9.3849 12.3987 9.39152 12.3959 9.39513C12.363 9.43953 12.3808 9.48651 12.3808 9.48651C12.3602 9.4695 12.3209 9.43591 12.3343 9.3688C12.3343 9.36841 12.3343 9.36602 12.3343 9.36468C12.3399 9.3471 12.3478 9.33164 12.3589 9.3208C12.3661 9.31203 12.3772 9.30739 12.3883 9.30739C12.4093 9.30937 12.4248 9.32651 12.4248 9.34715C12.4248 9.36266 12.4161 9.3709 12.4054 9.38173M12.1601 9.28311C12.1561 9.28311 12.153 9.28509 12.1498 9.28509C12.0961 9.30679 12.0863 9.35736 12.0863 9.35736C12.0776 9.33154 12.0605 9.28199 12.1073 9.2345C12.1121 9.22728 12.1192 9.22367 12.1244 9.21903C12.1351 9.2113 12.145 9.20563 12.1557 9.2025C12.1657 9.20051 12.178 9.2025 12.1867 9.20662C12.2037 9.22209 12.2101 9.24327 12.1954 9.26392C12.1887 9.27372 12.1755 9.27891 12.1597 9.28303M12.1189 9.06157C12.1118 9.05693 12.1066 9.05694 12.1006 9.05694C12.0475 9.05654 12.017 9.09254 12.017 9.09254C12.0226 9.06879 12.0293 9.01459 12.094 8.99343C12.0979 8.99184 12.1031 8.99144 12.1095 8.99026C12.1233 8.98561 12.1364 8.98561 12.1492 8.99026C12.1579 8.99184 12.1678 8.99748 12.1738 9.00886C12.1825 9.02484 12.1778 9.0517 12.1579 9.05996C12.1464 9.06873 12.1348 9.06411 12.1189 9.06157ZM13.1485 8.70172C13.1485 8.70172 13.1414 8.68724 13.1263 8.68415C13.112 8.68217 13.1033 8.68693 13.1033 8.68693C13.1472 8.72926 13.099 8.80515 13.099 8.80515C13.0756 8.7463 13.0308 8.7685 13.0308 8.7685C13.0308 8.7685 13.0479 8.80051 13.0562 8.83717C13.0649 8.90066 13.0185 8.93319 13.0185 8.93319C13.0185 8.93319 13.0185 8.86815 12.9679 8.88208C12.9401 8.88827 12.8838 8.93423 12.908 9.07774C12.908 9.07774 12.8683 9.07155 12.8404 9.0478C12.8118 9.01991 12.7976 8.97965 12.7976 8.97965C12.7976 8.97965 12.7817 9.18202 12.655 9.15982C12.6896 9.12162 12.6709 9.06895 12.6709 9.06895C12.6709 9.06895 12.6208 9.08649 12.5997 9.10974C12.5898 9.12212 12.5779 9.14638 12.5727 9.19182C12.5589 9.32811 12.5103 9.38077 12.4452 9.39523C12.4353 9.398 12.4151 9.398 12.3936 9.39523C12.3975 9.39166 12.3999 9.38492 12.4043 9.38183C12.415 9.371 12.4229 9.3627 12.4237 9.34723C12.4237 9.32657 12.4082 9.30955 12.3872 9.30748C12.3757 9.30748 12.365 9.31213 12.3579 9.3209C12.3464 9.33172 12.3388 9.34723 12.3333 9.36477C12.3293 9.36279 12.3285 9.35962 12.3262 9.35601C12.3103 9.32916 12.3261 9.29509 12.3309 9.28631C12.3269 9.28988 12.3159 9.29765 12.27 9.31832C12.2096 9.34053 12.1714 9.3211 12.1492 9.28529C12.1531 9.28529 12.1565 9.28303 12.1597 9.28303C12.1755 9.27891 12.1887 9.27372 12.1954 9.26392C12.2097 9.24326 12.2037 9.22211 12.1867 9.20662C12.178 9.2025 12.1657 9.20051 12.1557 9.2025C12.145 9.20563 12.1351 9.2113 12.1244 9.21903C12.1244 9.20249 12.1242 9.15993 12.1655 9.12173C12.1655 9.11554 12.1695 9.1145 12.1584 9.1145C12.1397 9.10883 12.1098 9.0959 12.101 9.0572C12.1066 9.0572 12.1118 9.05693 12.1189 9.06157C12.1348 9.06411 12.1464 9.06873 12.1579 9.05996C12.1781 9.05171 12.1825 9.02487 12.1738 9.00886C12.1674 8.99752 12.1579 8.9918 12.1492 8.99026C12.1364 8.98561 12.1233 8.98561 12.1095 8.99026C12.1828 8.8741 12.39 8.96008 12.39 8.96008C12.394 8.96008 12.4289 8.95028 12.4587 8.91568C12.5036 8.86147 12.5031 8.79798 12.3988 8.79282C12.183 8.77576 11.3528 8.76854 10.9192 8.41595C10.9192 8.41595 10.5929 8.35814 10.1046 8.81089C9.38285 9.48046 8.96211 9.35605 8.7396 9.32817C8.63275 9.31476 8.55425 9.33745 8.49075 9.39941C8.45148 9.31216 8.55219 9.24247 8.55219 9.24247C8.48302 9.23474 8.37618 9.22748 8.32764 9.31475C8.29194 9.28222 8.29791 9.21924 8.29791 9.21924C8.29791 9.21924 8.20494 9.29306 8.1301 9.25589C8.1301 9.25589 8.189 9.2151 8.15949 9.18464C8.1353 9.16346 8.08562 9.1547 8.02315 9.27911C8.02315 9.27911 7.98867 9.24969 7.9974 9.19807C8.00374 9.16348 8.01681 9.14644 8.01681 9.14644C8.01681 9.14644 7.96264 9.19445 7.88415 9.1836C7.88415 9.1836 7.95487 9.14593 7.92342 9.11082C7.87955 9.06436 7.71486 9.05712 7.60591 9.12164C7.56783 9.14024 7.49079 9.2347 7.38906 9.16759C7.40651 9.16719 7.42277 9.15985 7.43142 9.14641C7.4457 9.12677 7.44214 9.0984 7.42271 9.08601C7.412 9.0757 7.39812 9.07415 7.38543 9.0757C7.37115 9.07768 7.35609 9.08652 7.34054 9.09378C7.3338 9.04835 7.36909 9.01893 7.403 8.99828C7.32451 8.9955 7.16759 8.99208 7.16862 8.88315C7.16862 8.88315 7.16858 8.88197 7.17254 8.87645C7.17968 8.87645 7.18685 8.88109 7.19598 8.88315C7.21303 8.89088 7.2281 8.89604 7.244 8.89088C7.2674 8.88212 7.28009 8.85579 7.27097 8.83255C7.26582 8.82121 7.25709 8.80931 7.244 8.80519C7.22814 8.79797 7.20673 8.79538 7.18876 8.79796C7.21573 8.72465 7.37308 8.7484 7.39061 8.75047C7.37157 8.71949 7.36439 8.68232 7.40445 8.64102C7.40961 8.6534 7.41317 8.66323 7.42547 8.672C7.44569 8.68282 7.47198 8.67715 7.48332 8.65653C7.49006 8.64467 7.49007 8.63123 7.48729 8.62453C7.48729 8.61267 7.48054 8.60077 7.4734 8.59355C7.50314 8.58221 7.54104 8.58221 7.60712 8.67202C7.68716 8.76959 7.66749 8.80521 8.002 8.83464C8.25393 8.83662 8.34327 8.78044 8.34327 8.78044C8.34327 8.78044 8.26841 8.78044 8.25187 8.73759C8.25187 8.73759 8.27883 8.74035 8.2968 8.71949C8.31187 8.70192 8.30671 8.67562 8.27816 8.65652C8.21981 8.61832 8.17905 8.75821 8.17905 8.75821C8.10627 8.7195 8.13054 8.63587 8.13054 8.63587C8.13054 8.63587 8.10439 8.64927 8.07171 8.65911C7.9891 8.67977 7.94729 8.63122 7.94729 8.63122C7.94729 8.63122 8.05259 8.62452 8.04538 8.57185C8.04538 8.57185 7.89771 8.63587 7.78674 8.55016C7.78674 8.55016 7.92456 8.53624 7.89049 8.48976C7.86987 8.46549 7.82596 8.50059 7.68555 8.48619C7.59108 8.47433 7.57042 8.42114 7.57042 8.42114C7.65716 8.42991 7.68347 8.40825 7.68192 8.38035C7.68192 8.34886 7.6303 8.36227 7.57299 8.35041C7.4914 8.33181 7.44498 8.28847 7.26119 8.36593C7.22145 8.38346 7.15791 8.38555 7.11662 8.32617C7.12218 8.32617 7.12737 8.32205 7.1357 8.32205C7.15275 8.31888 7.16781 8.31887 7.17753 8.30709C7.1926 8.29004 7.1918 8.26166 7.17356 8.24824C7.16483 8.23793 7.15016 8.23536 7.14064 8.23587C7.12477 8.23785 7.10772 8.24567 7.09261 8.25653C7.09261 8.17342 7.20673 8.14864 7.2289 8.13624C7.2289 8.13624 7.08436 8.02009 7.15405 7.92046C7.16476 7.93593 7.17466 7.94834 7.18973 7.94988C7.21392 7.9571 7.23879 7.94473 7.24497 7.91736C7.24894 7.90344 7.24497 7.89103 7.23665 7.88123C7.23268 7.87607 7.2311 7.87298 7.22793 7.86731C7.29298 7.80588 7.40453 7.90344 7.45664 7.95713C7.45664 7.95713 7.42805 7.83685 7.49547 7.80019C7.49547 7.80138 7.49947 7.80337 7.50027 7.80587C7.50542 7.82447 7.50898 7.83685 7.52365 7.84562C7.54388 7.85645 7.56963 7.8518 7.58098 7.83062C7.58891 7.81825 7.58891 7.80583 7.58495 7.79655C7.58098 7.79139 7.58098 7.78676 7.58098 7.78676C7.69611 7.81825 7.67698 7.92304 7.68575 8.02939C7.69368 8.13729 8.04407 8.25448 8.33059 8.31075C8.33773 8.39025 8.38062 8.45788 8.40902 8.53635C8.45912 8.65096 8.44829 8.76453 8.44829 8.76453C8.44829 8.76453 8.51955 8.71755 8.55156 8.71961C8.5821 8.71961 8.56149 8.76866 8.57577 8.83577C8.58925 8.89875 8.64752 8.93748 8.64752 8.93748L8.66775 8.89876C8.66775 8.89876 8.69235 8.9793 8.77001 9.03144C8.77001 9.03144 8.8402 8.89773 8.88974 8.90754C8.92504 8.91476 8.92949 9.00098 8.92949 9.00098C9.29291 8.82236 9.26609 8.47854 9.3048 8.6644C9.3048 8.6644 9.54847 8.53068 9.54073 8.18324C9.80813 8.2581 10.2088 7.88073 11.1034 7.87608C11.4406 7.8749 11.9113 8.04283 12.1467 8.12646C12.3796 8.20803 12.5303 8.20648 12.5778 8.12646C12.6232 8.05522 12.6032 7.94474 12.265 7.89466C12.0172 7.86008 11.7332 7.84768 11.5644 7.8322C11.4462 7.82446 11.2568 7.80844 11.1571 7.69178C11.0978 7.62312 11.0688 7.52503 11.0801 7.43417C11.1043 7.24574 11.2087 7.16314 11.2113 7.15695C11.2113 7.15695 11.1962 7.18482 11.1974 7.20082C11.1974 7.20082 11.2775 7.12751 11.373 7.12751C11.373 7.12751 11.3006 7.15076 11.2821 7.20082C11.2821 7.20082 11.327 7.1683 11.3951 7.14817C11.469 7.12751 11.4984 7.12751 11.4984 7.12751C11.4984 7.12751 11.4984 6.97056 11.6801 6.9845C12.0952 7.00981 12.0807 6.83789 12.0807 6.83789C12.0807 6.83789 12.154 6.87711 12.1313 6.95456C12.0952 7.08982 11.9207 7.07227 11.9207 7.07227C11.9207 7.07227 12.0105 7.14093 12.1148 7.09809C12.2289 7.05008 12.2593 6.92359 12.2593 6.92359C12.2593 6.92359 12.3786 7.25864 12.0188 7.34434C11.8938 7.37428 11.7968 7.32835 11.7968 7.32835C11.7968 7.32835 11.8087 7.41353 11.9382 7.40114C11.9883 7.39797 12.0363 7.38254 12.0828 7.36449C12.1256 7.34696 12.1932 7.30306 12.3001 7.32319C12.3001 7.32319 12.2516 7.34695 12.1875 7.39754C12.1065 7.46413 12.0363 7.50284 11.9207 7.53021C11.7121 7.57563 11.4937 7.46 11.5035 7.28292C11.5035 7.28292 11.2888 7.28861 11.2614 7.4502C11.2432 7.54571 11.3032 7.64533 11.5356 7.67424C11.7994 7.71399 12.487 7.66136 12.803 7.92721C12.917 8.02014 12.8866 8.12286 12.8866 8.12286C12.8866 8.12286 12.8695 8.06195 12.8391 8.0382C12.8097 8.01084 12.7941 8.01239 12.7941 8.01239C12.7941 8.01239 12.8752 8.05575 12.8752 8.1781C12.8752 8.26018 12.7988 8.31542 12.7988 8.31542C12.7988 8.31542 12.8277 8.25915 12.8222 8.21837C12.8158 8.18172 12.796 8.16828 12.796 8.16828C12.796 8.16828 12.7912 8.48991 12.2018 8.37479C11.9835 8.33297 11.8409 8.26122 11.8409 8.26122C11.8148 8.24575 11.8695 8.48836 12.5307 8.55392C12.6293 8.56578 12.7274 8.55511 12.8136 8.54722C12.9225 8.53639 13.016 8.52295 13.0722 8.55C13.1739 8.60111 13.1523 8.70229 13.1523 8.70229M10.5441 9.23041C10.539 9.2402 10.5338 9.25004 10.5326 9.26035C10.5211 9.30269 10.5434 9.34089 10.5434 9.34089C10.5176 9.32697 10.469 9.30114 10.469 9.233C10.469 9.22269 10.473 9.20718 10.4762 9.19687C10.4801 9.18707 10.4817 9.18238 10.4849 9.17774C10.4904 9.16795 10.4992 9.15811 10.5111 9.15811C10.5321 9.15494 10.5529 9.16791 10.556 9.18961C10.56 9.20301 10.552 9.21543 10.5437 9.2304M10.3052 9.00221C10.2536 9.0034 10.2267 9.03731 10.2267 9.03731C10.2323 9.00943 10.239 8.95626 10.3052 8.93355C10.3239 8.92839 10.3455 8.92478 10.3625 8.92998C10.3728 8.93117 10.3827 8.93926 10.3883 8.94961C10.3986 8.9677 10.3923 8.99245 10.3728 9.00329C10.3606 9.01102 10.3482 9.00742 10.331 9.00329C10.3211 9.00329 10.3127 9.00221 10.3052 9.00221ZM10.537 8.76515C10.558 8.76792 10.5789 8.74963 10.5804 8.72953C10.5804 8.71973 10.5764 8.70732 10.5681 8.69752C10.5641 8.69594 10.5641 8.69435 10.5618 8.69435C10.5511 8.68301 10.5332 8.6773 10.5189 8.67214C10.4528 8.65303 10.4146 8.69332 10.395 8.71292C10.395 8.71292 10.4404 8.69746 10.4848 8.72947C10.4903 8.73411 10.4963 8.73771 10.5007 8.74029C10.5114 8.75369 10.5227 8.76463 10.537 8.76515ZM7.42532 9.08619C7.41461 9.07588 7.40073 9.07433 7.38804 9.07588C7.37376 9.07786 7.3587 9.0867 7.34311 9.09396C7.33914 9.0986 7.33597 9.10118 7.33081 9.10844C7.27195 9.158 7.28799 9.22253 7.29513 9.25247C7.29513 9.25247 7.31336 9.18484 7.38959 9.16781H7.39356C7.41101 9.16741 7.42727 9.16007 7.43587 9.14662C7.45015 9.12699 7.44659 9.09862 7.42716 9.08623M7.24696 8.89108C7.27036 8.88231 7.28305 8.85598 7.27393 8.83275C7.26877 8.8214 7.26005 8.80951 7.24696 8.80538C7.23109 8.79816 7.20969 8.79559 7.19176 8.79817C7.18661 8.79936 7.18304 8.79935 7.18145 8.79935C7.10352 8.81276 7.08492 8.87008 7.07203 8.90467C7.07203 8.90467 7.11332 8.86802 7.17579 8.87678C7.18293 8.87678 7.19005 8.88142 7.19917 8.88349C7.21623 8.89122 7.23109 8.89623 7.24696 8.89108ZM7.4289 8.67234C7.44913 8.68316 7.47533 8.67748 7.48671 8.65682C7.49345 8.64496 7.49346 8.63152 7.49068 8.62482C7.49068 8.61296 7.48397 8.60106 7.47683 8.59384C7.47168 8.5825 7.46255 8.5773 7.45621 8.57111C7.40044 8.52207 7.3457 8.54324 7.31837 8.55513C7.31837 8.55513 7.38133 8.56596 7.40663 8.63153C7.40663 8.63566 7.40659 8.63617 7.41055 8.64133C7.41571 8.6537 7.41932 8.66355 7.43161 8.67231M7.52815 7.84579C7.54838 7.85662 7.57405 7.85198 7.58543 7.83084C7.59297 7.81847 7.59297 7.80605 7.5894 7.79677C7.58543 7.79161 7.58543 7.78698 7.58543 7.78698C7.5775 7.76838 7.56639 7.75652 7.55449 7.74465C7.4977 7.6956 7.44347 7.71779 7.41559 7.72866C7.41559 7.72866 7.4729 7.74 7.50027 7.80041C7.50027 7.8016 7.50427 7.80359 7.50506 7.80609C7.51022 7.82469 7.51348 7.83701 7.52815 7.84579ZM7.18257 8.30737C7.19764 8.29031 7.19724 8.26194 7.1786 8.24852C7.16987 8.23821 7.15519 8.23562 7.14567 8.23614C7.12981 8.23812 7.11276 8.24593 7.09769 8.2568C7.09333 8.25839 7.09333 8.26038 7.08937 8.26145C7.03051 8.30739 7.04238 8.36469 7.04753 8.39567C7.04753 8.39567 7.06303 8.34198 7.12137 8.32649C7.12692 8.32649 7.13207 8.32237 7.1404 8.32237C7.15745 8.31919 7.17289 8.31915 7.18257 8.30737ZM7.15879 7.92075V7.91955C7.11235 7.8545 7.04318 7.86432 7.04318 7.86432C7.07015 7.84778 7.11801 7.80856 7.18925 7.84004C7.20511 7.84777 7.22022 7.85658 7.23268 7.86741C7.23664 7.87308 7.23941 7.87617 7.24139 7.88133C7.24972 7.89112 7.25329 7.90355 7.24972 7.91747C7.24337 7.94483 7.21875 7.95721 7.19448 7.94998C7.1794 7.94839 7.1699 7.93626 7.15879 7.92075ZM8.91041 12.6448C8.90645 12.6444 8.88935 12.6324 8.88935 12.6029C8.88935 12.5947 8.89333 12.5838 8.89492 12.5709C8.90523 12.5482 8.90799 12.5322 8.90799 12.527H8.89293C8.87033 12.527 8.8377 12.5259 8.80724 12.5054L8.80327 12.5026C8.73925 12.4639 8.73307 12.3895 8.73307 12.3637V12.3539V12.3467L8.73781 12.3219L8.75011 12.3327L8.75529 12.3343L8.91685 12.4138C8.92082 12.4142 8.97108 12.4386 8.97108 12.5026C8.97108 12.5083 8.97107 12.5124 8.96711 12.5196C8.96076 12.5769 8.92068 12.6399 8.92068 12.6409L8.91511 12.6482L8.90838 12.6446L8.91041 12.6448ZM9.39723 12.5178L9.39326 12.526C9.3881 12.5332 9.34523 12.6153 9.259 12.6189L9.25348 12.6205H9.24951C9.20668 12.6189 9.16948 12.6004 9.15501 12.5885C9.15025 12.5947 9.1471 12.6081 9.14353 12.6339C9.1356 12.6794 9.10463 12.6876 9.09599 12.6876H9.08727L9.0833 12.6789V12.6706C9.0833 12.653 9.08729 12.5958 9.10315 12.5519C9.12655 12.4941 9.18058 12.4873 9.19553 12.4873H9.20105L9.38072 12.5008H9.4041L9.39694 12.5126L9.39302 12.5178M8.80138 13.0402C8.81645 13.0067 8.8303 12.9669 8.82118 12.9318C8.81722 12.921 8.80451 12.8931 8.78865 12.8735C8.84905 12.9003 8.90223 12.8967 8.93423 12.8827C8.96001 12.9369 9.05093 12.9442 9.09531 12.938C9.07945 12.9555 8.97969 12.9592 8.96367 13.098C8.9597 13.1249 8.94819 13.2622 8.81862 13.2193C8.69987 13.1837 8.78552 13.0707 8.80138 13.0402ZM8.86761 13.2746C8.85452 13.2746 8.84148 13.2734 8.82791 13.2674C8.76544 13.255 8.70865 13.2132 8.70658 13.1455V13.1443C8.71055 13.0803 8.78353 13.0179 8.7825 12.9554C8.7825 12.9368 8.77614 12.9187 8.76226 12.8986C8.71582 12.8351 8.7106 12.799 8.7106 12.785V12.7822L8.71578 12.7575L8.72808 12.7786C8.72808 12.7786 8.72808 12.7822 8.74038 12.791C8.74752 12.7988 8.75861 12.8127 8.77804 12.8215C8.78518 12.8261 8.83016 12.8493 8.86732 12.8483C8.89271 12.8483 8.91175 12.8401 8.9231 12.8091C8.9231 12.805 8.9231 12.8008 8.9231 12.7988C8.9231 12.7905 8.91475 12.7812 8.90126 12.7678C8.89254 12.7637 8.88222 12.7575 8.8727 12.7466C8.86595 12.7363 8.86398 12.7254 8.86398 12.7213C8.86398 12.7001 8.8719 12.6888 8.8727 12.6883L8.87986 12.6764L8.88819 12.6888C8.88819 12.6884 8.89613 12.7002 8.91041 12.7105C8.92271 12.7234 8.94411 12.7363 8.96977 12.743C8.98325 12.7458 8.99557 12.7466 9.00627 12.7466C9.02571 12.7466 9.04394 12.7438 9.0558 12.7389C9.06889 12.7361 9.07406 12.7332 9.07406 12.7332L9.0863 12.7275L9.09028 12.7389C9.09028 12.7404 9.09028 12.7456 9.09028 12.7512C9.09424 12.7678 9.08155 12.7956 9.04331 12.7987C9.03102 12.7987 9.01359 12.7987 9.00308 12.8007C8.98999 12.8054 8.98445 12.8136 8.97969 12.8224C8.97969 12.8296 8.97969 12.8348 8.97969 12.84C8.97969 12.8653 8.99357 12.8787 9.01697 12.8916C9.04037 12.8983 9.07065 12.9004 9.09802 12.9004C9.12063 12.9004 9.1419 12.8988 9.15273 12.8984C9.19081 12.8964 9.20744 12.8927 9.20744 12.8927L9.23484 12.887L9.21659 12.9072C9.17931 12.9552 9.12208 12.9588 9.06481 13.0011C9.0044 13.0497 9.00803 13.1261 8.99098 13.186C8.97233 13.2433 8.92338 13.2742 8.86916 13.2742L8.86761 13.2746ZM13.1789 13.4491C13.1983 13.5229 13.1324 13.558 13.1324 13.558C13.1324 13.558 13.1447 13.4991 13.1118 13.5074C13.071 13.5239 13.136 13.6917 13.0317 13.7495C13.0317 13.7495 13.0504 13.6917 13.0044 13.6932C12.973 13.696 12.975 13.7557 12.9455 13.8012C12.8954 13.8858 12.8542 13.8719 12.8542 13.8719C12.8542 13.8719 12.8768 13.8208 12.8478 13.797C12.8221 13.7738 12.7601 13.7994 12.7637 13.8832C12.7637 13.8832 12.7367 13.8832 12.7136 13.859C12.6902 13.8368 12.6902 13.8115 12.6902 13.8115C12.6902 13.8115 12.651 13.7939 12.6324 13.9163C12.6189 14.0128 12.5456 14.1243 12.462 14.1217C12.462 14.1213 12.4659 14.1182 12.4659 14.1182C12.4774 14.1047 12.4846 14.0887 12.4818 14.0774C12.4779 14.0531 12.4584 14.0418 12.4353 14.0438C12.4266 14.0454 12.4159 14.0505 12.4107 14.0593C12.4036 14.0712 12.3989 14.0857 12.3957 14.0991C12.3874 14.0888 12.3814 14.08 12.3782 14.066C12.3659 14.032 12.3873 13.9902 12.3988 13.9711C12.3925 13.9772 12.3754 13.9912 12.3431 14.0025C12.309 14.0103 12.276 14.0025 12.2522 13.9783C12.2522 13.9771 12.2562 13.9771 12.2562 13.9771C12.2721 13.9709 12.2852 13.9657 12.2939 13.9518C12.3026 13.9347 12.2939 13.9115 12.2757 13.9007C12.2654 13.8945 12.2547 13.8945 12.2443 13.8979C12.2368 13.9007 12.2277 13.9041 12.2209 13.9113C12.2209 13.9051 12.2169 13.9005 12.2209 13.8979C12.2249 13.8442 12.2455 13.8303 12.286 13.8091C12.2571 13.8045 12.2323 13.79 12.2199 13.7652H12.2239C12.2409 13.7693 12.2552 13.7714 12.2677 13.7636C12.286 13.7554 12.2911 13.7275 12.2792 13.7105C12.2729 13.6986 12.2638 13.6929 12.2531 13.6913C12.2431 13.6901 12.2308 13.6901 12.2166 13.6913C12.2166 13.6901 12.2166 13.6878 12.2166 13.6867C12.2579 13.5721 12.5831 13.7357 12.5996 13.6227C12.6309 13.3966 11.9032 13.4962 11.4298 13.3677C10.9827 13.2463 10.9275 13.1333 10.9275 13.1333C10.2755 13.2081 10.213 13.7295 9.61781 13.9593C9.2275 14.109 8.97347 14.0775 8.75355 14.0414C8.60232 14.0125 8.61472 14.1307 8.48257 14.0858C8.53004 14.077 8.54711 14.0295 8.5151 14.0078C8.46037 13.9727 8.44539 14.0646 8.3318 14.0625C8.41338 13.9908 8.34729 13.9397 8.34729 13.9397C8.34729 13.9397 8.27753 14.1043 8.14022 14.0625C8.14022 14.0625 8.18669 14.045 8.20529 13.9939C8.21679 13.9655 8.20926 13.9459 8.20926 13.9459C8.20926 13.9459 8.09203 14.0646 7.96452 14.0166C7.96452 14.0166 7.99191 14.0099 8.00897 13.9939C8.03118 13.9768 8.0387 13.9515 8.02799 13.9396C8.01451 13.9164 7.98517 13.9428 7.95368 13.9556C7.91996 13.969 7.86642 13.9835 7.83235 13.9556C7.83235 13.9556 7.97019 13.9133 7.86842 13.8663C7.81372 13.8364 7.72135 13.8276 7.6124 13.888C7.57313 13.9113 7.43791 13.9871 7.38267 13.9288C7.38663 13.9284 7.39178 13.9247 7.39337 13.9247C7.40923 13.9159 7.42192 13.9118 7.43065 13.8994C7.44016 13.8787 7.4346 13.855 7.41477 13.8441C7.40445 13.839 7.39217 13.839 7.38107 13.8437C7.36917 13.8473 7.35923 13.8546 7.34694 13.8634C7.34019 13.8179 7.37553 13.7875 7.40944 13.7653C7.33975 13.7649 7.24989 13.7555 7.2318 13.6744C7.23736 13.6744 7.24255 13.6772 7.24889 13.6785C7.26793 13.6832 7.28299 13.6904 7.29687 13.6805C7.32027 13.6728 7.32941 13.6439 7.3191 13.6227C7.31275 13.6103 7.30164 13.5989 7.29053 13.5979C7.27665 13.5933 7.25758 13.5922 7.24144 13.5947C7.25572 13.5503 7.30753 13.5256 7.36896 13.5395C7.38324 13.5431 7.40427 13.5478 7.42164 13.5514C7.40816 13.5317 7.36126 13.493 7.38756 13.4481C7.39152 13.4485 7.3931 13.4522 7.39826 13.4559C7.41253 13.4693 7.42282 13.4791 7.43955 13.4791C7.46494 13.4791 7.4855 13.46 7.4855 13.4362C7.4855 13.4192 7.47874 13.4089 7.46962 13.3991C7.46565 13.3963 7.46013 13.3919 7.45616 13.3898C7.499 13.3738 7.5713 13.3866 7.66217 13.4729C7.73237 13.5344 7.7902 13.5911 8.07723 13.6154C8.21454 13.6231 8.36216 13.6108 8.48087 13.5576C8.38901 13.4729 8.35962 13.5664 8.23933 13.5085C8.23933 13.5085 8.27344 13.5024 8.28784 13.4827C8.29815 13.4662 8.3017 13.4326 8.26997 13.4192C8.19458 13.3882 8.16879 13.4977 8.16879 13.4977C8.11147 13.4192 8.15847 13.3516 8.15847 13.3516C8.15847 13.3516 8.10995 13.3314 8.05264 13.3444C7.97054 13.3666 7.96539 13.4192 7.96539 13.4192C7.9205 13.3795 7.93845 13.3268 7.95193 13.3072C7.95193 13.3072 7.87809 13.2731 7.83525 13.3635C7.83525 13.3635 7.7888 13.2804 7.86261 13.2437C7.8991 13.2251 7.89117 13.1967 7.89117 13.1967C7.88721 13.1967 7.82303 13.2463 7.69964 13.2463C7.60465 13.2463 7.55917 13.1859 7.56437 13.1869C7.66967 13.2081 7.67689 13.1291 7.67689 13.1291C7.67689 13.1291 7.51839 13.0852 7.28661 13.1513C7.18853 13.1797 7.15446 13.1513 7.13483 13.1131C7.13879 13.1119 7.14041 13.1119 7.14398 13.1119C7.16143 13.1084 7.17611 13.1068 7.18479 13.0949C7.20264 13.0763 7.19867 13.0505 7.18082 13.035C7.1721 13.0262 7.16097 13.0236 7.14867 13.0252C7.13797 13.0264 7.1253 13.0298 7.11459 13.036C7.11459 12.9684 7.21784 12.9095 7.29319 12.9157C7.29319 12.9157 7.09652 12.8089 7.15744 12.7103C7.16259 12.713 7.1709 12.7211 7.17685 12.7232C7.19113 12.736 7.2038 12.7464 7.2197 12.7464C7.24429 12.7464 7.26618 12.7252 7.26618 12.702C7.26618 12.6881 7.2598 12.6762 7.24909 12.6664C7.24076 12.6592 7.23087 12.654 7.21699 12.6468C7.28564 12.5998 7.40336 12.6782 7.4596 12.7242C7.4596 12.7242 7.44414 12.6457 7.49213 12.6075C7.4961 12.6091 7.49926 12.6147 7.50283 12.6183C7.51156 12.6349 7.51712 12.6478 7.53338 12.654C7.55361 12.6617 7.57931 12.6524 7.58756 12.6297C7.59391 12.6173 7.59152 12.6075 7.58359 12.5941C7.57962 12.5879 7.57486 12.5807 7.57129 12.5755C7.63221 12.5782 7.66062 12.6235 7.68541 12.7231C7.74268 12.9683 8.19854 13.0618 8.33688 13.07C8.39007 13.2249 8.34681 13.3266 8.34681 13.3266C8.44854 13.3426 8.49806 13.3343 8.49806 13.3343C8.49806 13.3343 8.53457 13.513 8.64471 13.5615C8.64471 13.5615 8.66017 13.5047 8.66136 13.5197C8.68992 13.6446 8.81213 13.705 8.81213 13.705C8.81213 13.705 8.888 13.6782 8.96701 13.6105C9.04649 13.5393 9.00109 13.6384 9.00109 13.6384C9.00109 13.6384 9.17817 13.6028 9.29585 13.3922C9.33666 13.3168 9.33237 13.3168 9.34494 13.4237C9.52667 13.277 9.5943 13.1026 9.58343 13.021C9.79356 13.1026 10.5028 12.6023 11.2008 12.5791C11.6422 12.5646 11.8265 12.6926 12.0454 12.7696C12.2627 12.846 12.3928 12.8847 12.4372 12.8124C12.4801 12.7427 12.4702 12.5977 12.1574 12.5543C11.9241 12.5244 11.6216 12.512 11.4636 12.5016C11.3568 12.4955 11.0294 12.4702 11.0351 12.1692C11.0391 11.99 11.1544 11.9312 11.1544 11.9312L11.1369 11.9926C11.1369 11.9926 11.1886 11.9389 11.2355 11.9157C11.2902 11.8919 11.3517 11.8858 11.3517 11.8858C11.3517 11.8858 11.4147 11.6989 11.5696 11.7004C11.6935 11.7032 11.7657 11.6891 11.8158 11.6395C11.8922 11.5652 11.9831 11.6096 11.9831 11.6096C11.9831 11.6096 11.9242 11.6245 11.8798 11.7128C11.8282 11.815 11.7353 11.815 11.7353 11.815C11.7353 11.815 11.7802 11.8734 11.8994 11.7923C12.076 11.703 12.1674 11.8599 12.1674 11.8599C12.1674 11.8599 12.0972 11.8315 12.028 11.8615C11.9692 11.8868 11.9547 11.9534 11.903 11.9839C11.822 12.0303 11.7585 12.0221 11.7585 12.0221C11.7585 12.0221 11.7692 12.0675 11.903 12.0417C12.0652 12.0071 12.1168 12.098 12.1168 12.098C12.1168 12.098 12.0642 12.0799 12.0135 12.0928C11.9645 12.1031 11.919 12.1424 11.8622 12.1692C11.6495 12.2626 11.267 12.0205 11.2345 12.1894C11.2242 12.2467 11.2702 12.3215 11.4772 12.3499C11.7229 12.383 11.8561 12.3654 12.2066 12.4098C12.3274 12.4258 12.49 12.4898 12.5778 12.5719C12.8209 12.8089 12.6159 12.9586 12.6159 12.9586C12.6159 12.9586 12.6516 12.8848 12.6199 12.846C12.6199 12.846 12.6274 12.9446 12.512 13.0019C12.3008 13.1067 11.8011 12.8847 11.8011 12.8847C11.8011 12.8847 11.703 13.1718 12.497 13.2461C12.8253 13.2771 12.9895 13.2162 13.116 13.2627C13.214 13.2988 13.2063 13.4325 13.2063 13.4325C13.2063 13.4325 13.1537 13.3442 13.1821 13.4485M10.5936 14.0019C10.5897 14.0047 10.5872 14.0076 10.5849 14.0081C10.544 14.0525 10.5544 14.1041 10.5544 14.1041C10.5349 14.085 10.5001 14.0411 10.5246 13.9766C10.5285 13.9689 10.5302 13.9601 10.5361 13.9513C10.5424 13.9446 10.5496 13.9374 10.5567 13.9301C10.5655 13.9244 10.5773 13.9198 10.5888 13.9244C10.6098 13.9286 10.6245 13.9456 10.621 13.9678C10.617 13.9843 10.6063 13.9921 10.5936 14.0019ZM10.3988 13.7995C10.3949 13.7995 10.3925 13.8007 10.3889 13.8007C10.3285 13.8105 10.3089 13.8585 10.3089 13.8585C10.3049 13.8312 10.299 13.7775 10.3559 13.7393C10.3622 13.7357 10.369 13.7321 10.3729 13.7284C10.3852 13.7233 10.3975 13.7197 10.4106 13.7197C10.4209 13.7197 10.434 13.7232 10.4396 13.7321C10.4566 13.748 10.4566 13.7733 10.4396 13.7873C10.4296 13.7991 10.417 13.799 10.3988 13.7995ZM10.4927 13.5317C10.4872 13.5255 10.4832 13.5235 10.4797 13.5225C10.4296 13.4899 10.3826 13.5085 10.3826 13.5085C10.4016 13.4863 10.4352 13.444 10.5024 13.4569C10.5087 13.4601 10.5174 13.4601 10.5246 13.4652C10.5361 13.4671 10.5472 13.4739 10.5544 13.4827C10.5615 13.4884 10.5674 13.4993 10.5674 13.5096C10.5674 13.5318 10.5508 13.5514 10.5298 13.5514C10.5139 13.5514 10.503 13.5395 10.4927 13.5317ZM11.94 13.6964C11.8827 13.7098 11.5301 13.7403 11.5322 13.9922C11.4661 13.9592 11.4537 13.8854 11.4553 13.8746C11.3789 13.8694 11.3469 13.9076 11.3092 13.9458C11.2524 14.0036 11.2168 14.0077 11.2168 14.0077C11.2168 14.0077 11.2505 13.9076 11.183 13.9076C11.1325 13.9076 11.0943 14.0098 11.0943 14.0098C11.0943 14.0098 11.0292 13.9747 11.0447 13.9112C10.9714 13.8818 10.9239 13.9871 10.9239 13.9871C10.9239 13.9871 10.8733 13.9195 10.9287 13.8663C10.9287 13.8663 10.8466 13.8343 10.7645 13.936C10.7242 13.9871 10.6736 14.0387 10.6133 14.0191C10.603 14.0163 10.594 14.0122 10.5849 14.0081C10.5888 14.0077 10.5904 14.0045 10.5936 14.0019C10.6059 13.9921 10.6176 13.9846 10.6204 13.968C10.6244 13.9458 10.6097 13.9288 10.5883 13.9246C10.5768 13.92 10.5649 13.9246 10.5561 13.9303C10.549 13.9375 10.5419 13.9448 10.5355 13.9515C10.5113 13.8901 10.57 13.8219 10.57 13.8219C10.57 13.8219 10.5613 13.8276 10.5293 13.8353C10.4617 13.8586 10.4126 13.84 10.3883 13.8007C10.3923 13.8007 10.3954 13.7996 10.3982 13.7996C10.4165 13.7992 10.4291 13.7992 10.439 13.7872C10.456 13.7733 10.456 13.7479 10.439 13.7319C10.4334 13.7232 10.4203 13.7196 10.41 13.7196C10.3973 13.7196 10.3847 13.7231 10.3724 13.7283C10.3763 13.6731 10.4081 13.6457 10.5169 13.6225C10.4935 13.608 10.4596 13.5724 10.4793 13.5223C10.4832 13.5235 10.4864 13.5255 10.4923 13.5316C10.5026 13.5394 10.5135 13.5514 10.5298 13.5514C10.5508 13.5514 10.5674 13.5318 10.5674 13.5096C10.5674 13.4993 10.5619 13.4884 10.5544 13.4827C10.5472 13.474 10.5357 13.4672 10.5246 13.4652C10.5599 13.4419 10.5998 13.4521 10.6256 13.4638C10.7025 13.4897 10.811 13.5882 10.811 13.5882C10.811 13.5882 10.9142 13.5702 11.0092 13.5769C11.0908 13.5773 11.2358 13.6027 11.2358 13.6027C10.8538 13.4386 10.9024 13.2666 10.9024 13.2666C10.9024 13.2666 11.1961 13.5454 12.0897 13.5614C12.0897 13.5614 12.0858 13.6686 11.94 13.6964ZM9.69019 12.3673C9.72945 12.2734 9.68225 12.0979 9.68225 12.0979C9.68225 12.0979 9.60274 12.2218 9.53666 12.1546C9.4742 12.0932 9.54063 11.9936 9.54063 11.9936C9.46524 11.9672 9.40075 12.071 9.30834 12.0204C9.24226 11.9858 9.32059 11.8671 9.32059 11.8671C9.32059 11.8671 9.23333 11.8643 9.16726 11.8965C9.09963 11.9296 9.07125 11.9554 9.02477 11.9554C8.9623 11.9542 8.98299 11.848 8.98299 11.848C8.98299 11.848 8.91073 11.8476 8.86631 11.9249C8.82089 12.0013 8.7718 12.0204 8.7718 12.0204C8.75236 11.9859 8.70778 11.9858 8.67371 11.9776C8.63643 11.9673 8.6097 11.9507 8.6097 11.9507C8.6097 11.9507 8.53847 12.0819 8.57242 12.1949C8.51821 12.2083 8.50481 12.2662 8.49656 12.2956C8.43564 12.5165 8.34531 12.4185 8.34531 12.4246C8.36236 12.6182 8.47488 12.6146 8.46354 12.659C8.45124 12.7215 8.34787 12.6384 8.34787 12.6384C8.34787 12.7757 8.40982 12.7819 8.43667 12.864C8.45888 12.9362 8.41327 12.9822 8.45095 13.0921C8.48744 13.2078 8.45889 13.247 8.45889 13.247C8.53631 13.2482 8.58637 13.1933 8.58637 13.1933C8.5705 13.3379 8.64006 13.404 8.64006 13.404C8.64006 13.404 8.68086 13.3172 8.69942 13.3735C8.74693 13.533 8.82539 13.5883 8.82539 13.5883C8.82539 13.5883 8.89716 13.5879 9.02312 13.454C9.11038 13.3632 9.07115 13.4835 9.07115 13.4835C9.07115 13.4835 9.13361 13.4858 9.25803 13.2542C9.30035 13.1784 9.36952 13.1329 9.39379 13.2558C9.53991 13.101 9.48777 12.9311 9.48777 12.8702C9.48777 12.8175 9.51552 12.8134 9.5171 12.8346C9.53138 12.9796 9.68385 12.9327 9.68385 12.9327C9.68385 12.9327 9.62293 12.8702 9.68385 12.6467C9.71518 12.5362 9.65451 12.4293 9.65451 12.4293C9.65451 12.4293 9.68226 12.3844 9.69019 12.3673ZM8.90964 10.2688C8.90567 10.2668 8.88863 10.2564 8.88863 10.2275C8.88863 10.2162 8.89256 10.2063 8.89414 10.1934C8.90446 10.1718 8.90727 10.1589 8.90727 10.1501H8.89216C8.86955 10.1501 8.83692 10.1469 8.80646 10.1279L8.80249 10.1251C8.73848 10.0864 8.73229 10.0146 8.73229 9.9852V9.97695V9.96973L8.73709 9.94752L8.74938 9.95577L8.75451 9.95735L8.91608 10.0379C8.92004 10.0379 8.9703 10.0606 8.9703 10.1251C8.9703 10.1313 8.9703 10.137 8.96633 10.1427C8.95999 10.2015 8.91985 10.2619 8.91985 10.264L8.91433 10.2712L8.90756 10.2688H8.90964ZM9.39645 10.1418L9.39248 10.148C9.38733 10.1588 9.3445 10.2394 9.25828 10.243H9.25271H9.24874C9.20586 10.243 9.16872 10.2203 9.15428 10.2105C9.14952 10.2187 9.14633 10.2337 9.14276 10.2569C9.13522 10.3019 9.10392 10.3106 9.09531 10.3106H9.08655L9.08258 10.3008V10.2941C9.08258 10.275 9.08656 10.2193 9.10243 10.1744C9.12583 10.116 9.1799 10.1098 9.19485 10.1098C9.19882 10.1098 9.20037 10.1118 9.20037 10.1118L9.38004 10.1216H9.40347L9.39631 10.1371L9.39234 10.1418M8.80075 10.6632C8.81582 10.6312 8.82973 10.5883 8.82021 10.5563C8.81625 10.5418 8.80354 10.5155 8.78768 10.4954C8.84808 10.5259 8.90126 10.5207 8.93326 10.5073C8.95904 10.5589 9.04996 10.5697 9.09434 10.5625C9.07848 10.578 8.97868 10.5821 8.9627 10.721C8.95873 10.7489 8.94721 10.8867 8.8176 10.8433C8.69889 10.8056 8.78489 10.6916 8.80075 10.6632ZM8.86664 10.8975C8.85356 10.8975 8.84046 10.8975 8.8269 10.8929C8.76443 10.8779 8.70763 10.8377 8.70557 10.7685V10.7669C8.70953 10.7049 8.78246 10.643 8.78143 10.5779C8.78143 10.5588 8.77508 10.5418 8.7612 10.5227C8.71471 10.4592 8.70959 10.421 8.70959 10.4091V10.4029L8.71472 10.3792L8.72701 10.3988C8.72701 10.3988 8.72702 10.4055 8.73931 10.4154C8.74645 10.4236 8.75759 10.435 8.77703 10.4443C8.78417 10.4494 8.82914 10.4737 8.86631 10.4716C8.89169 10.4716 8.9107 10.4634 8.92208 10.4309C8.92208 10.4309 8.92208 10.4262 8.92208 10.4247C8.92208 10.4113 8.91378 10.403 8.90029 10.3921C8.89157 10.386 8.88125 10.3793 8.87173 10.371C8.86499 10.3586 8.86301 10.3488 8.86301 10.3436C8.86301 10.325 8.87093 10.3131 8.87173 10.3111L8.87885 10.3008L8.88717 10.3131C8.88717 10.3111 8.89512 10.3219 8.9094 10.3338C8.92169 10.3472 8.94309 10.3586 8.96875 10.3674C8.98224 10.3701 8.99455 10.3709 9.00526 10.3709C9.02509 10.3709 9.04294 10.3681 9.05484 10.3637C9.06792 10.3585 9.07309 10.356 9.07309 10.356L9.08539 10.3503L9.08936 10.3637C9.08936 10.3637 9.08936 10.3699 9.08936 10.3771C9.09332 10.3921 9.08062 10.4179 9.04234 10.421C9.03005 10.4238 9.01257 10.4238 9.00206 10.4261C8.98897 10.4308 8.98344 10.4365 8.97868 10.4458C8.97868 10.452 8.97868 10.4592 8.97868 10.4628C8.97868 10.4907 8.99256 10.5036 9.01596 10.5139C9.03936 10.5227 9.06964 10.5279 9.097 10.5279C9.11961 10.5279 9.14089 10.5247 9.15171 10.5227C9.18979 10.5207 9.20647 10.5155 9.20647 10.5155L9.23383 10.5098L9.21557 10.5305C9.17829 10.5785 9.1211 10.5821 9.06379 10.625C9.00339 10.6709 9.00702 10.7489 8.99001 10.8093C8.97137 10.8635 8.92236 10.8975 8.86815 10.8975H8.86664ZM13.1778 11.0731C13.1973 11.1469 13.1314 11.1804 13.1314 11.1804C13.1314 11.1804 13.1437 11.1231 13.1107 11.1293C13.0699 11.1479 13.1349 11.3157 13.0307 11.3715C13.0307 11.3715 13.0494 11.3157 13.0033 11.3172C12.972 11.32 12.974 11.3823 12.9445 11.4226C12.8944 11.5098 12.8531 11.4943 12.8531 11.4943C12.8531 11.4943 12.8757 11.4448 12.8467 11.4195C12.8209 11.3983 12.759 11.4226 12.7626 11.5083C12.7626 11.5083 12.7356 11.5041 12.7125 11.483C12.6891 11.4613 12.6891 11.4349 12.6891 11.4349C12.6891 11.4349 12.6499 11.4163 12.6313 11.5397C12.6178 11.6368 12.5446 11.7473 12.461 11.7442C12.461 11.743 12.4649 11.7422 12.4649 11.7395C12.4756 11.7251 12.4832 11.7137 12.4804 11.6987C12.4764 11.6765 12.457 11.6636 12.4339 11.6683C12.4252 11.6699 12.4141 11.6734 12.4093 11.6828C12.4022 11.6905 12.3974 11.7055 12.3942 11.721C12.3859 11.7127 12.38 11.7029 12.3768 11.689C12.3645 11.6538 12.3863 11.6136 12.3974 11.5945C12.3911 11.6022 12.374 11.6146 12.3417 11.6244C12.3075 11.6363 12.2745 11.6244 12.2508 11.6022L12.2548 11.6006C12.2706 11.5944 12.2837 11.5898 12.2924 11.5758C12.3011 11.5578 12.2924 11.5345 12.2746 11.5237C12.2643 11.517 12.2536 11.517 12.2433 11.5221C12.2357 11.5237 12.2266 11.5273 12.2198 11.5345C12.2198 11.5293 12.2159 11.5247 12.2198 11.5206C12.2238 11.4679 12.2445 11.4524 12.2849 11.4323C12.256 11.4287 12.2312 11.4127 12.2188 11.3874C12.2228 11.3874 12.2228 11.3874 12.2228 11.3886C12.2399 11.3937 12.2541 11.3958 12.2667 11.387C12.2846 11.3761 12.2897 11.3514 12.2782 11.3348C12.2718 11.3235 12.2627 11.3173 12.252 11.3157C12.2421 11.3141 12.2298 11.3157 12.2155 11.3157C12.2155 11.3157 12.2155 11.3125 12.2155 11.3085C12.2568 11.1944 12.5821 11.3601 12.5986 11.2465C12.6299 11.0194 11.9021 11.1185 11.4287 10.991C10.9817 10.8708 10.9264 10.7551 10.9264 10.7551C10.2744 10.8279 10.212 11.354 9.61674 11.5827C9.22647 11.7313 8.97245 11.6988 8.75253 11.6632C8.60126 11.6369 8.61365 11.752 8.4815 11.7086C8.52902 11.6988 8.54599 11.6539 8.51399 11.6338C8.45925 11.5951 8.44433 11.688 8.33074 11.6854C8.41232 11.6147 8.34618 11.562 8.34618 11.562C8.34618 11.562 8.2765 11.7251 8.13916 11.6854C8.13916 11.6854 8.18566 11.6699 8.20423 11.6157C8.21573 11.5899 8.2082 11.5749 8.2082 11.5749C8.2082 11.5749 8.09102 11.688 7.9635 11.6389C7.9635 11.6389 7.99089 11.6361 8.0079 11.6214C8.03011 11.6007 8.03764 11.5759 8.02693 11.562C8.01344 11.5429 7.98405 11.5652 7.95256 11.579C7.91885 11.5925 7.86535 11.6059 7.83128 11.579C7.83128 11.579 7.96908 11.5388 7.86735 11.4903C7.81262 11.4613 7.72019 11.451 7.61128 11.5109C7.57202 11.5347 7.4368 11.6095 7.38155 11.5527C7.38552 11.5496 7.39106 11.5481 7.39225 11.546C7.40812 11.5388 7.42081 11.5357 7.42953 11.5223C7.43865 11.5026 7.43348 11.4794 7.41365 11.4681C7.40334 11.4624 7.39106 11.4624 7.37995 11.4645C7.36806 11.4681 7.35817 11.4784 7.34587 11.4882C7.33913 11.4423 7.37442 11.4103 7.40833 11.3886C7.33864 11.387 7.24878 11.3783 7.23074 11.3014C7.23629 11.3014 7.24143 11.3018 7.24778 11.3049C7.26682 11.3085 7.28194 11.3142 7.29586 11.3053C7.31926 11.293 7.32834 11.2692 7.31803 11.2465C7.31169 11.2346 7.30057 11.2238 7.28947 11.2212C7.27558 11.2165 7.25657 11.2165 7.24047 11.2176C7.25475 11.1727 7.30656 11.1495 7.368 11.166C7.38227 11.1692 7.4033 11.1711 7.42067 11.1737C7.40719 11.1551 7.36024 11.1138 7.38654 11.071C7.39051 11.073 7.39208 11.0767 7.39724 11.0777C7.41152 11.0916 7.42184 11.102 7.43854 11.102C7.46392 11.102 7.48448 11.0839 7.48448 11.0596C7.48448 11.0436 7.47773 11.0323 7.4686 11.0235C7.46464 11.0178 7.45946 11.0163 7.4551 11.0127C7.49793 10.9972 7.57024 11.0065 7.6611 11.0963C7.7313 11.1588 7.78909 11.2156 8.07612 11.2388C8.21343 11.2465 8.36111 11.2352 8.47985 11.1804C8.38796 11.0963 8.35856 11.1902 8.23826 11.1319C8.23826 11.1319 8.27234 11.1284 8.28677 11.1051C8.29709 11.0917 8.30065 11.0555 8.26852 11.0411C8.19316 11.0106 8.16738 11.1195 8.16738 11.1195C8.11007 11.0411 8.15707 10.975 8.15707 10.975C8.15707 10.975 8.1085 10.9538 8.05119 10.9683C7.96912 10.9905 7.96399 11.0411 7.96399 11.0411C7.91905 11.0024 7.937 10.9492 7.95048 10.9311C7.95048 10.9311 7.87668 10.895 7.83385 10.9869C7.83385 10.9869 7.78735 10.9037 7.8612 10.8681C7.89769 10.8485 7.88977 10.8175 7.88977 10.8175C7.8858 10.8203 7.82163 10.8707 7.69824 10.8707C7.60325 10.8707 7.55786 10.8093 7.56301 10.8093C7.66832 10.8299 7.67558 10.753 7.67558 10.753C7.67558 10.753 7.51708 10.7096 7.28525 10.7762C7.18717 10.8041 7.1531 10.7762 7.13347 10.736C7.13744 10.7356 7.139 10.7356 7.14296 10.7356C7.16041 10.7315 7.17508 10.7314 7.18373 10.7175C7.20197 10.702 7.19765 10.6741 7.17981 10.6622C7.17108 10.6499 7.15995 10.6473 7.14766 10.6494C7.13695 10.6498 7.12423 10.6566 7.11353 10.6622C7.11353 10.592 7.21678 10.5332 7.29218 10.5389C7.29218 10.5389 7.09545 10.431 7.15637 10.3339C7.16153 10.3359 7.16988 10.3437 7.17622 10.3473C7.1905 10.3587 7.20321 10.3711 7.21907 10.3721C7.24366 10.3721 7.26555 10.3489 7.26555 10.3251C7.26555 10.3112 7.25917 10.3009 7.24846 10.29C7.24013 10.2838 7.23064 10.2756 7.21636 10.2714C7.28501 10.2214 7.40274 10.3009 7.45902 10.3478C7.45902 10.3478 7.44351 10.2688 7.4915 10.2306C7.49547 10.2338 7.49868 10.2363 7.50225 10.243C7.51098 10.258 7.51649 10.273 7.53275 10.2766C7.55298 10.2864 7.57873 10.275 7.58698 10.2544C7.59332 10.2394 7.59094 10.2306 7.58301 10.2187C7.57904 10.2105 7.57428 10.2064 7.57071 10.2001C7.63163 10.2053 7.66004 10.2518 7.68483 10.3473C7.74214 10.592 8.19797 10.6854 8.33635 10.6926C8.3895 10.8486 8.34628 10.9492 8.34628 10.9492C8.44797 10.9657 8.49753 10.958 8.49753 10.958C8.49753 10.958 8.53403 11.134 8.64413 11.1882C8.64413 11.1882 8.65959 11.1284 8.66078 11.1438C8.68934 11.2693 8.8115 11.3287 8.8115 11.3287C8.8115 11.3287 8.88741 11.3049 8.96638 11.2347C9.0459 11.166 9.00051 11.2636 9.00051 11.2636C9.00051 11.2636 9.1776 11.227 9.29531 11.0163C9.33609 10.9415 9.33178 10.9415 9.34431 11.0473C9.52604 10.9012 9.59368 10.7241 9.58285 10.6446C9.79294 10.7241 10.5023 10.2275 11.2003 10.2053C11.6417 10.1893 11.8259 10.3158 12.0448 10.3943C12.2622 10.4676 12.3923 10.5099 12.4367 10.435C12.4795 10.3674 12.4696 10.2203 12.1569 10.1748C11.9235 10.147 11.621 10.1372 11.463 10.1217C11.3562 10.1181 11.0288 10.0922 11.0345 9.79281C11.0385 9.61316 11.1538 9.5569 11.1538 9.5569L11.1363 9.61524C11.1363 9.61524 11.1879 9.56463 11.2349 9.53985C11.2897 9.51403 11.3511 9.50837 11.3511 9.50837C11.3511 9.50837 11.4141 9.32303 11.5689 9.3251C11.6928 9.32787 11.7651 9.31272 11.8152 9.26418C11.8916 9.18984 11.9824 9.23423 11.9824 9.23423C11.9824 9.23423 11.9236 9.24871 11.8792 9.33697C11.8276 9.43919 11.7347 9.43919 11.7347 9.43919C11.7347 9.43919 11.7796 9.49546 11.8988 9.41595C12.0754 9.32767 12.1667 9.48254 12.1667 9.48254C12.1667 9.48254 12.0966 9.45517 12.0274 9.48373C11.9685 9.50852 11.9541 9.57562 11.9024 9.60866C11.8214 9.65564 11.7579 9.64841 11.7579 9.64841C11.7579 9.64841 11.7686 9.69384 11.9024 9.66547C12.0645 9.63191 12.1162 9.71967 12.1162 9.71967C12.1162 9.71967 12.0635 9.70214 12.0129 9.7161C11.9639 9.72847 11.9184 9.76876 11.8617 9.79302C11.649 9.88543 11.2664 9.64331 11.2339 9.81472C11.2236 9.87151 11.2696 9.94533 11.4765 9.97476C11.7223 10.0093 11.8554 9.98816 12.2059 10.0336C12.3268 10.0496 12.4894 10.1147 12.5771 10.1962C12.8203 10.4311 12.6153 10.5824 12.6153 10.5824C12.6153 10.5824 12.651 10.5075 12.6192 10.4678C12.6192 10.4678 12.6271 10.5705 12.5113 10.6257C12.3001 10.7316 11.8005 10.5101 11.8005 10.5101C11.8005 10.5101 11.7024 10.7951 12.4963 10.871C12.8247 10.9014 12.9889 10.8415 13.1153 10.887C13.2134 10.9221 13.2057 11.0558 13.2057 11.0558C13.2057 11.0558 13.153 10.9685 13.1815 11.0733M12.4675 11.7398C12.4675 11.7426 12.4675 11.7433 12.4636 11.7444C12.433 11.8022 12.4636 11.8482 12.4636 11.8482C12.4366 11.8343 12.3913 11.8105 12.3938 11.7361C12.3938 11.7315 12.3978 11.7253 12.3978 11.7212C12.4018 11.7057 12.4057 11.6907 12.4129 11.683C12.418 11.6737 12.4287 11.6701 12.4375 11.6685C12.4609 11.6638 12.4813 11.6767 12.4839 11.6989C12.4879 11.7139 12.4792 11.7253 12.4685 11.7397M12.2573 11.6009C12.2573 11.6009 12.2573 11.6024 12.2533 11.6024C12.1945 11.6293 12.1888 11.6856 12.1888 11.6856C12.1785 11.6603 12.1563 11.6097 12.1979 11.558C12.2047 11.5483 12.2118 11.5389 12.2213 11.5348C12.2281 11.5276 12.2368 11.524 12.2447 11.5224C12.255 11.5173 12.2657 11.5173 12.2761 11.524C12.2951 11.5348 12.303 11.5581 12.2939 11.5762C12.2852 11.5901 12.2721 11.5948 12.2562 11.6009M12.2233 11.3888C12.2233 11.3876 12.2194 11.3876 12.2194 11.3876C12.1553 11.3824 12.1213 11.4289 12.1213 11.4289C12.1252 11.3994 12.1312 11.3468 12.1946 11.321C12.2013 11.3182 12.2084 11.3173 12.2155 11.3157C12.2298 11.3157 12.2425 11.3141 12.252 11.3157C12.2627 11.3173 12.2722 11.3234 12.2782 11.3348C12.2901 11.3513 12.285 11.3761 12.2667 11.387C12.2541 11.3958 12.2399 11.3937 12.2228 11.3886M7.24778 11.3049C7.24143 11.3018 7.23629 11.3014 7.23074 11.3014C7.16415 11.2895 7.12698 11.336 7.12698 11.336C7.13373 11.303 7.14604 11.241 7.22406 11.223C7.2308 11.2202 7.23531 11.2176 7.24047 11.2176C7.25657 11.2165 7.27558 11.2165 7.28947 11.2212C7.30018 11.2239 7.31169 11.2346 7.31803 11.2465C7.32834 11.2692 7.31807 11.2929 7.29586 11.3053C7.28194 11.3142 7.26682 11.3085 7.24778 11.3049ZM7.39782 11.078C7.39266 11.0768 7.39104 11.0734 7.38707 11.0713C7.32877 11.0326 7.2715 11.0558 7.2715 11.0558C7.29332 11.0305 7.33088 10.9825 7.41036 10.9938C7.42464 10.9974 7.4409 11.0026 7.45577 11.013C7.46014 11.0165 7.46566 11.0181 7.46923 11.0238C7.47835 11.0325 7.48511 11.0439 7.48511 11.0599C7.48511 11.0842 7.46447 11.1022 7.43917 11.1022C7.42251 11.1022 7.41214 11.092 7.39782 11.078ZM7.39274 11.5462C7.39274 11.5482 7.38561 11.5498 7.38204 11.5529C7.32782 11.5793 7.32316 11.634 7.32316 11.634C7.31087 11.6061 7.28905 11.557 7.33386 11.5013C7.33783 11.4956 7.3423 11.4903 7.34587 11.4882C7.35817 11.4784 7.36806 11.4681 7.37995 11.4645C7.39066 11.4625 7.40334 11.4625 7.41365 11.4681C7.43269 11.4794 7.43905 11.5026 7.42953 11.5223C7.42081 11.5357 7.409 11.539 7.39274 11.5462ZM7.50307 10.2432C7.49911 10.2365 7.49634 10.2339 7.49238 10.2308C7.45668 10.1807 7.40048 10.1823 7.40048 10.1823C7.42904 10.1658 7.47839 10.1373 7.54137 10.1735C7.55367 10.1812 7.56358 10.1895 7.57231 10.2003C7.57628 10.2065 7.58183 10.2107 7.58461 10.219C7.59135 10.2308 7.59373 10.2396 7.58858 10.2546C7.58025 10.2752 7.55446 10.2866 7.53435 10.2768C7.51849 10.2732 7.51253 10.2582 7.5038 10.2432M7.17758 10.3475C7.17123 10.3439 7.16328 10.3362 7.15773 10.3341C7.10454 10.3021 7.05451 10.3253 7.05451 10.3253C7.07354 10.2985 7.11334 10.251 7.18973 10.2623C7.19846 10.2665 7.2088 10.269 7.21752 10.2716C7.2314 10.2758 7.24129 10.284 7.24962 10.2902C7.26033 10.3011 7.26666 10.3114 7.26666 10.3253C7.26666 10.3491 7.24486 10.3723 7.22023 10.3723C7.20437 10.3711 7.19186 10.3589 7.17758 10.3475ZM7.14369 10.7357C7.13972 10.7357 7.13812 10.7357 7.13415 10.7361C7.07014 10.7506 7.05059 10.8069 7.05059 10.8069C7.04543 10.7764 7.03468 10.7196 7.09184 10.6732C7.09739 10.669 7.10572 10.6634 7.11444 10.6623C7.12515 10.6567 7.13787 10.65 7.14858 10.6494C7.16087 10.6475 7.17195 10.6498 7.18068 10.6623C7.19813 10.6742 7.2025 10.7021 7.18465 10.7176C7.17592 10.7315 7.1611 10.7316 7.14369 10.7357ZM10.5934 11.6257C10.5895 11.6284 10.5871 11.6308 10.5847 11.6339C10.5439 11.6747 10.5542 11.7284 10.5542 11.7284C10.5347 11.7057 10.5 11.6685 10.5244 11.6024C10.5284 11.5926 10.53 11.5859 10.5359 11.5761C10.5423 11.5678 10.5494 11.5606 10.5565 11.557C10.5653 11.5482 10.5772 11.5446 10.5887 11.5461C10.6097 11.5508 10.6244 11.5704 10.6208 11.5926C10.6169 11.6071 10.6061 11.6159 10.5934 11.6257ZM10.3987 11.4228H10.3888C10.3284 11.4336 10.3088 11.4832 10.3088 11.4832C10.3048 11.4548 10.2989 11.4006 10.3558 11.3618C10.3621 11.3583 10.3688 11.3546 10.3728 11.352C10.3851 11.3474 10.3974 11.3433 10.4105 11.3433C10.4208 11.3421 10.4339 11.3474 10.4394 11.3546C10.4565 11.3706 10.4565 11.3959 10.4394 11.4104C10.4295 11.4228 10.4169 11.4228 10.3987 11.4228ZM10.4926 11.1533C10.4871 11.1505 10.4831 11.1481 10.4796 11.144C10.4295 11.1125 10.3825 11.1321 10.3825 11.1321C10.4015 11.1099 10.4352 11.0666 10.5023 11.0795C10.5086 11.0823 10.5173 11.0841 10.5245 11.0877C10.536 11.0918 10.5471 11.0965 10.5542 11.1053C10.5613 11.1115 10.5673 11.1249 10.5673 11.1332C10.5673 11.1559 10.5506 11.174 10.5296 11.174C10.5138 11.174 10.5029 11.1662 10.4926 11.1533ZM11.9399 11.3211C11.8826 11.3309 11.53 11.3639 11.5321 11.6159C11.466 11.5828 11.4536 11.5111 11.4551 11.4971C11.3787 11.4939 11.3467 11.5343 11.309 11.5694C11.2522 11.6282 11.2166 11.6339 11.2166 11.6339C11.2166 11.6339 11.2504 11.5333 11.1829 11.5333C11.1324 11.5333 11.0942 11.6365 11.0942 11.6365C11.0942 11.6365 11.0291 11.5998 11.0446 11.5348C10.9713 11.5043 10.9238 11.6097 10.9238 11.6097C10.9238 11.6097 10.8732 11.5446 10.9286 11.4904C10.9286 11.4904 10.8465 11.4584 10.7644 11.558C10.7241 11.6097 10.6735 11.6603 10.6131 11.6427C10.6028 11.6391 10.5938 11.637 10.5847 11.6339C10.5887 11.6307 10.5903 11.6282 10.5934 11.6257C10.6057 11.6159 10.6175 11.6071 10.6203 11.5926C10.6243 11.5704 10.6096 11.5508 10.5881 11.5462C10.5766 11.5446 10.5648 11.5482 10.556 11.557C10.5489 11.5606 10.5418 11.5678 10.5354 11.5761C10.5112 11.5131 10.5699 11.446 10.5699 11.446C10.5699 11.446 10.5612 11.4512 10.5291 11.4615C10.4615 11.4832 10.4125 11.4635 10.3882 11.4228H10.3982C10.4164 11.4228 10.4291 11.4228 10.4389 11.4104C10.456 11.3959 10.456 11.3707 10.4389 11.3547C10.4334 11.3474 10.4203 11.3423 10.41 11.3433C10.3973 11.3433 10.3846 11.3474 10.3723 11.3521C10.3762 11.2979 10.408 11.271 10.5168 11.2468C10.4934 11.2339 10.4599 11.1946 10.4796 11.144C10.4835 11.1481 10.4867 11.1507 10.4926 11.1533C10.5029 11.1662 10.5134 11.174 10.5296 11.174C10.5506 11.174 10.5673 11.1559 10.5673 11.1332C10.5673 11.1249 10.5617 11.1115 10.5542 11.1053C10.5471 11.0965 10.5356 11.0919 10.5245 11.0877C10.5598 11.0645 10.5998 11.0769 10.6256 11.0877C10.7025 11.1125 10.8109 11.2132 10.8109 11.2132C10.8109 11.2132 10.9141 11.1946 11.0091 11.2008C11.0907 11.2036 11.2358 11.2272 11.2358 11.2272C10.8537 11.0635 10.9023 10.8931 10.9023 10.8931C10.9023 10.8931 11.196 11.1714 12.0897 11.1884C12.0897 11.1884 12.0856 11.2927 11.9399 11.3211ZM9.69009 9.99171C9.72936 9.89518 9.68215 9.71966 9.68215 9.71966C9.68215 9.71966 9.60268 9.84458 9.53657 9.77798C9.4741 9.71603 9.54054 9.61899 9.54054 9.61899C9.46518 9.59523 9.40065 9.69487 9.30824 9.64686C9.24216 9.61022 9.32054 9.48941 9.32054 9.48941C9.32054 9.48941 9.23328 9.48941 9.16721 9.51832C9.09958 9.55342 9.07116 9.58079 9.02467 9.57821C8.9622 9.57623 8.98289 9.47237 8.98289 9.47237C8.98289 9.47237 8.91063 9.47119 8.86621 9.54982C8.8208 9.62364 8.77175 9.64429 8.77175 9.64429C8.75232 9.61228 8.70773 9.61228 8.67366 9.60144C8.63638 9.59164 8.60966 9.57355 8.60966 9.57355C8.60966 9.57355 8.53838 9.70829 8.57233 9.8167C8.51811 9.83217 8.50471 9.89001 8.49646 9.92047C8.43554 10.1394 8.34521 10.0444 8.34521 10.048C8.36227 10.2431 8.47478 10.2364 8.46344 10.2855C8.45115 10.3464 8.34778 10.2617 8.34778 10.2617C8.34778 10.397 8.40972 10.4078 8.43657 10.4878C8.45878 10.5601 8.41317 10.6081 8.45085 10.717C8.48734 10.828 8.45879 10.8719 8.45879 10.8719C8.53625 10.8739 8.58632 10.8177 8.58632 10.8177C8.57046 10.9617 8.64001 11.0304 8.64001 11.0304C8.64001 11.0304 8.68077 10.9442 8.69937 11.001C8.74684 11.1574 8.82535 11.2131 8.82535 11.2131C8.82535 11.2131 8.89711 11.2104 9.02307 11.0779C9.11033 10.985 9.0711 11.1053 9.0711 11.1053C9.0711 11.1053 9.13357 11.1099 9.25799 10.8781C9.3003 10.8017 9.36947 10.7589 9.39374 10.8793C9.53982 10.7234 9.48772 10.5566 9.48772 10.4952C9.48772 10.4415 9.51547 10.4369 9.51706 10.4596C9.53133 10.6047 9.6838 10.5566 9.6838 10.5566C9.6838 10.5566 9.62288 10.4926 9.6838 10.2706C9.71513 10.1591 9.65446 10.0559 9.65446 10.0559C9.65446 10.0559 9.68216 10.0113 9.69009 9.99171Z" fill="#5F6A70"/>
<path d="M9.2779 7.80104C9.2779 7.83356 9.25173 7.85886 9.21801 7.85886C9.18509 7.85886 9.16016 7.83355 9.16016 7.80104C9.16016 7.76748 9.18478 7.74219 9.21801 7.74219C9.25173 7.74219 9.2779 7.76749 9.2779 7.80104Z" fill="#5F6A70"/>
<path d="M8.88222 7.70114C8.88222 7.73315 8.85763 7.75896 8.82543 7.75896C8.79132 7.75896 8.7666 7.73314 8.7666 7.70114C8.7666 7.6681 8.7912 7.63867 8.82543 7.63867C8.85755 7.63867 8.88222 7.6681 8.88222 7.70114Z" fill="#5F6A70"/>
<path d="M9.28563 10.1301C9.28563 10.1631 9.26145 10.1879 9.22782 10.1879C9.19728 10.1879 9.16895 10.1631 9.16895 10.1301C9.16895 10.0991 9.19752 10.0723 9.22782 10.0723C9.26153 10.0723 9.28563 10.0991 9.28563 10.1301Z" fill="#5F6A70"/>
<path d="M8.91258 10.0363C8.91258 10.0683 8.88558 10.0973 8.85317 10.0973C8.82184 10.0973 8.7959 10.0683 8.7959 10.0363C8.7959 10.0043 8.82168 9.97852 8.85317 9.97852C8.8857 9.97852 8.91258 10.0043 8.91258 10.0363Z" fill="#5F6A70"/>
<path d="M9.28474 12.5012C9.28474 12.5332 9.25774 12.5611 9.22688 12.5611C9.19396 12.5611 9.16699 12.5332 9.16699 12.5012C9.16699 12.4692 9.19396 12.4434 9.22688 12.4434C9.25782 12.4434 9.28474 12.4692 9.28474 12.5012Z" fill="#5F6A70"/>
<path d="M8.91071 12.4094C8.91071 12.4393 8.88371 12.4703 8.85131 12.4703C8.81998 12.4703 8.79297 12.4393 8.79297 12.4094C8.79297 12.3784 8.81994 12.3516 8.85131 12.3516C8.88383 12.3516 8.91071 12.3784 8.91071 12.4094Z" fill="#5F6A70"/>
<path d="M1.33594 7.10547L3.49182 8.00891Z" fill="#5F6A70"/>
<path d="M6.48047 1.97461L7.3839 4.12323Z" fill="#5F6A70"/>
<path fill-rule="evenodd" clip-rule="evenodd" d="M17.3357 10.7978C17.3357 14.7744 14.1113 17.9989 10.1367 17.9989C6.15842 17.9989 2.93652 14.7744 2.93652 10.7978C2.93652 6.82008 6.15842 3.59766 10.1367 3.59766C14.1113 3.59766 17.3357 6.82008 17.3357 10.7978Z" stroke="#5F6A70" stroke-width="0.0223321" stroke-miterlimit="10"/>
<path d="M3.46932 13.5274L1.41104 14.3942L1.33105 14.3746L1.37385 14.3111L3.43833 13.4453L3.46932 13.5274Z" fill="#5F6A70"/>
<path d="M8.63312 16.6587C8.62677 16.6442 8.62241 16.6277 8.61845 16.6122M6.34031 15.3572C6.31691 15.3743 6.28864 15.3856 6.25767 15.3856C6.17608 15.3868 6.11051 15.3221 6.10845 15.2421C6.10845 15.16 6.17196 15.0934 6.252 15.0934C6.33303 15.0922 6.39805 15.1564 6.40015 15.2349C6.40412 15.2581 6.39619 15.2761 6.39183 15.2999L6.27205 15.6287C6.85234 16.1775 7.7367 16.589 8.4992 16.7619L8.68971 16.5311C8.72581 16.4857 8.79034 16.4233 8.84658 16.4217C8.92765 16.4201 8.9953 16.4842 8.99633 16.5657C8.99633 16.6478 8.93439 16.7149 8.85181 16.7149C8.77022 16.7149 8.70414 16.652 8.70259 16.5704L8.70656 16.5105M6.08298 15.0789C6.1238 15.0345 6.18468 15.0051 6.25128 15.0041C6.38034 14.9995 6.48566 15.0826 6.4872 15.2106C6.4872 15.2421 6.48721 15.2937 6.4765 15.3205L6.37841 15.6081C6.93182 16.1073 7.81151 16.4991 8.4718 16.6731L8.66386 16.4264C8.70515 16.3711 8.77017 16.3345 8.84605 16.3308M6.02063 15.2421V15.2328C6.01666 15.3613 6.11353 15.463 6.24053 15.4728C6.26314 15.4748 6.28446 15.4729 6.30405 15.4682L6.34133 15.4548M9.08459 16.5632C9.08856 16.6938 8.98337 16.7986 8.85379 16.8037C8.75519 16.8049 8.66951 16.7433 8.63389 16.6587M6.47142 15.334L6.57517 15.2277C7.03565 15.6035 7.90349 16.1321 8.603 16.3102L8.61448 16.4873M8.70177 16.3835L8.68749 16.2338C7.97508 16.0671 7.06544 15.5214 6.60393 15.1342L6.57179 15.1079L6.49844 15.1833L6.48774 15.1946M6.38965 15.3092L6.34012 15.3588M8.63433 16.6587C8.66725 16.7382 8.74376 16.795 8.83462 16.8012C8.89709 16.8058 8.95751 16.7836 9.00601 16.7433C9.05198 16.7026 9.07987 16.6442 9.08348 16.5802C9.08348 16.5766 9.08348 16.574 9.08348 16.5704C9.08744 16.445 8.99002 16.3417 8.86406 16.3309C8.82329 16.3293 8.78246 16.3381 8.74684 16.3541" stroke="#5F6A70" stroke-width="0.0385339" stroke-miterlimit="10"/>
<path d="M4.25178 12.0106C4.2375 12.007 4.22201 12.0018 4.20888 11.9961C4.12373 11.9543 4.06744 11.8693 4.07259 11.7712C4.07934 11.6401 4.19027 11.542 4.31985 11.5492M4.35757 11.9274L4.29821 11.9286C4.21615 11.9251 4.15366 11.8564 4.15727 11.7753C4.16282 11.6943 4.23213 11.6313 4.31268 11.6364C4.39423 11.6384 4.4567 11.7087 4.45154 11.7887C4.44757 11.846 4.38341 11.908 4.33641 11.9457L4.0969 12.1258C4.20632 12.8455 4.58885 13.7242 5.15003 14.4412L5.48143 14.3318C5.50602 14.3261 5.5233 14.3261 5.5465 14.3261C5.62551 14.3307 5.68795 14.3984 5.68434 14.4789C5.68037 14.5589 5.61052 14.6204 5.53052 14.6168C5.451 14.6116 5.38696 14.545 5.39215 14.4634C5.39612 14.4335 5.40563 14.4046 5.42348 14.3813M5.67543 14.6611C5.63307 14.6942 5.58098 14.7076 5.52573 14.7076M4.54019 11.7923C4.53622 11.8693 4.49834 11.9359 4.44055 11.9741L4.18603 12.1579C4.27479 12.8305 4.70434 13.6736 5.17104 14.3354L5.46376 14.2476C5.49232 14.2378 5.54376 14.2378 5.57216 14.242C5.7038 14.2461 5.77868 14.3576 5.77352 14.4861C5.77352 14.499 5.76873 14.5135 5.76636 14.528M5.32452 14.3782L5.31062 14.4154C5.30666 14.4376 5.30505 14.4546 5.30505 14.4789C5.30902 14.6069 5.41449 14.7097 5.54771 14.7076M4.37892 12.0205L4.55495 12.0407C4.65978 12.703 5.12951 13.6411 5.56059 14.1527L5.45117 14.2507M5.59003 14.243L5.60194 14.2311L5.67993 14.1604L5.65452 14.1295C5.24461 13.5941 4.72579 12.6587 4.6344 11.9545L4.48417 11.937M5.42067 14.3835L5.47281 14.3344M4.51569 11.8915C4.53393 11.8575 4.54464 11.8156 4.54266 11.7754C4.5375 11.6499 4.43529 11.5503 4.30881 11.5493H4.3001C4.23763 11.552 4.17927 11.5751 4.13747 11.622C4.0936 11.6695 4.07035 11.7289 4.07293 11.7888C4.0769 11.8807 4.13025 11.9602 4.20922 11.9963" stroke="#5F6A70" stroke-width="0.0385339" stroke-miterlimit="10"/>
<path fill-rule="evenodd" clip-rule="evenodd" d="M6.14698 14.9082C6.15531 14.7451 6.0365 14.6067 5.8744 14.6C5.71436 14.5917 5.56879 14.7167 5.56106 14.8788C5.55154 15.0429 5.67668 15.1777 5.83775 15.189C5.99937 15.1942 6.13821 15.0703 6.14698 14.9082Z" stroke="#5F6A70" stroke-width="0.0385339" stroke-miterlimit="10"/>
<path d="M6.21523 15.0005C6.22395 14.9746 6.22952 14.9427 6.23111 14.9132C6.24102 14.7062 6.08143 14.5286 5.87337 14.5157C5.80007 14.5141 5.70716 14.5317 5.6416 14.573" stroke="#5F6A70" stroke-width="0.0385339" stroke-miterlimit="10"/>
<path d="M5.52603 14.707C5.49747 14.7561 5.48063 14.8129 5.47805 14.8748C5.46734 15.0818 5.62669 15.2574 5.83424 15.2692C5.94831 15.2754 6.07119 15.2186 6.14449 15.1438" stroke="#5F6A70" stroke-width="0.0385339" stroke-miterlimit="10"/>
<path d="M11.4877 16.6704C11.4837 16.6843 11.479 16.6998 11.4742 16.7148M11.403 16.5687L11.4069 16.6275C11.4069 16.7081 11.3372 16.7736 11.2562 16.7721C11.1741 16.7709 11.1106 16.706 11.1106 16.6213C11.1146 16.5392 11.1792 16.4768 11.2613 16.4768C11.3176 16.4795 11.3842 16.5413 11.4183 16.5893L11.6087 16.8206C12.3733 16.644 13.2556 16.2336 13.8369 15.6869L13.7171 15.3575C13.71 15.3328 13.7088 15.3157 13.7088 15.293C13.7088 15.2114 13.7759 15.149 13.8559 15.15C13.937 15.1532 13.9995 15.2182 13.9985 15.2971C13.9985 15.3777 13.9308 15.4438 13.8513 15.4391C13.8192 15.4391 13.7919 15.4293 13.7677 15.4138M11.2639 16.3885C11.3398 16.3917 11.4058 16.4277 11.4456 16.483L11.6376 16.7302C12.2974 16.5568 13.1792 16.1624 13.731 15.6642L13.6324 15.3766C13.6237 15.3462 13.6209 15.2971 13.6217 15.2662C13.6257 15.1376 13.7286 15.0566 13.8582 15.0586C13.9263 15.059 13.9862 15.0912 14.028 15.1366M14.0889 15.2992V15.2858C14.0931 15.4159 13.9958 15.5217 13.8704 15.5273C13.8472 15.5315 13.8253 15.5274 13.8059 15.5232L13.7678 15.5108M11.4762 16.7147C11.4397 16.7994 11.3543 16.8572 11.2542 16.8567C11.1262 16.8555 11.0219 16.7462 11.0245 16.6192M11.4951 16.5444L11.5082 16.3662C12.2077 16.1892 13.0735 15.661 13.5335 15.2826L13.6388 15.3895M13.6229 15.2501L13.6106 15.2403L13.5383 15.1655L13.507 15.1918C13.046 15.5795 12.1353 16.1247 11.4224 16.2899L11.4081 16.4406M13.7694 15.4148L13.7194 15.3648M11.3611 16.4127C11.3266 16.3931 11.2852 16.3843 11.246 16.3885C11.1206 16.3962 11.0225 16.5026 11.025 16.6275C11.025 16.6316 11.025 16.6352 11.025 16.6373C11.029 16.7003 11.058 16.7586 11.1056 16.7994C11.152 16.8407 11.213 16.8598 11.2754 16.8567C11.3648 16.852 11.4427 16.7947 11.4757 16.7147" stroke="#5F6A70" stroke-width="0.0385339" stroke-miterlimit="10"/>
<path d="M15.8545 12.0638C15.8699 12.0622 15.885 12.0586 15.8985 12.0504C15.9821 12.0117 16.0384 11.9249 16.0344 11.8268C16.0283 11.6967 15.9178 11.5976 15.7877 11.6038M14.6832 14.4375C14.7018 14.4587 14.7137 14.4881 14.7145 14.5186C14.7185 14.5986 14.6562 14.6683 14.5756 14.6719C14.4967 14.676 14.428 14.6135 14.4239 14.5346C14.4191 14.4535 14.4817 14.3843 14.5607 14.3823C14.5829 14.3803 14.601 14.3823 14.6268 14.3864L14.9576 14.4953C15.5178 13.7819 15.9003 12.8985 16.0087 12.1794L15.7698 11.9998C15.7238 11.9652 15.6572 11.9006 15.6541 11.8449C15.6501 11.7644 15.7119 11.6952 15.794 11.689C15.875 11.6843 15.9447 11.7483 15.9499 11.8315C15.9538 11.911 15.891 11.9817 15.809 11.9838H15.7496M14.5808 14.7627C14.525 14.7663 14.4734 14.7467 14.4316 14.7173M14.3397 14.5826C14.3397 14.5655 14.3334 14.5542 14.3334 14.5392C14.327 14.4081 14.4031 14.3027 14.5332 14.295C14.5625 14.2938 14.6163 14.2938 14.6427 14.3027L14.9348 14.3931C15.4026 13.7302 15.8341 12.8851 15.9203 12.2125L15.6648 12.0292C15.6075 11.9905 15.5693 11.9249 15.5657 11.849M14.5601 14.7627C14.6896 14.7668 14.7991 14.6636 14.8027 14.5345C14.8027 14.5123 14.7987 14.4901 14.7943 14.471L14.7813 14.4328M14.6564 14.3074L14.5449 14.2103C14.978 13.6936 15.4457 12.7561 15.5515 12.0958L15.7281 12.0767M15.6212 11.9925L15.4725 12.0106C15.3812 12.7132 14.8608 13.6497 14.4525 14.1856L14.4271 14.215L14.5019 14.2842L14.5158 14.295M14.633 14.3921L14.6836 14.4401M15.8972 12.0503C15.9768 12.0147 16.0309 11.9363 16.0345 11.8454C16.0345 11.7819 16.0128 11.7225 15.9701 11.6766C15.9267 11.6343 15.8688 11.6059 15.8053 11.6038H15.7934C15.6706 11.605 15.5684 11.704 15.5642 11.8315C15.5603 11.8722 15.573 11.911 15.59 11.9461" stroke="#5F6A70" stroke-width="0.0385339" stroke-miterlimit="10"/>
<path fill-rule="evenodd" clip-rule="evenodd" d="M13.9594 14.9638C13.9514 14.8037 14.0693 14.6654 14.2304 14.6566C14.3935 14.6489 14.537 14.7733 14.5448 14.9354C14.5535 15.0985 14.4302 15.2348 14.2676 15.2425C14.1055 15.2497 13.9682 15.1284 13.9594 14.9638Z" stroke="#5F6A70" stroke-width="0.0385339" stroke-miterlimit="10"/>
<path d="M13.8924 15.0575C13.8836 15.0292 13.8781 14.9987 13.8765 14.9693C13.8658 14.7617 14.0272 14.5826 14.2342 14.5713C14.3075 14.5656 14.4 14.5857 14.465 14.6265" stroke="#5F6A70" stroke-width="0.0385339" stroke-miterlimit="10"/>
<path d="M14.5793 14.7637C14.6099 14.8127 14.6268 14.869 14.6284 14.933C14.6391 15.138 14.4797 15.3161 14.2711 15.3279C14.158 15.3326 14.0362 15.2763 13.9629 15.2004" stroke="#5F6A70" stroke-width="0.0385339" stroke-miterlimit="10"/>
<path d="M11.5671 4.79499C11.5718 4.80994 11.577 4.82494 11.579 4.83939M13.8571 6.09851C13.8797 6.08042 13.9093 6.06909 13.9418 6.06806C14.0218 6.06687 14.0869 6.13309 14.0895 6.21208C14.0934 6.2921 14.026 6.35766 13.946 6.35869C13.8649 6.35988 13.7994 6.29882 13.7983 6.21622C13.7983 6.19195 13.7983 6.17751 13.8071 6.15427L13.9253 5.82386C13.3455 5.27612 12.4627 4.86726 11.6981 4.68967L11.5071 4.92302C11.473 4.96845 11.4075 5.0304 11.3507 5.03092C11.2702 5.03092 11.2026 4.96844 11.201 4.88791C11.201 4.80841 11.265 4.73871 11.345 4.7382C11.4282 4.73621 11.4947 4.80067 11.4963 4.8812L11.4923 4.94005M14.116 6.37368C14.0746 6.42014 14.0147 6.44853 13.9461 6.4506C13.817 6.451 13.7143 6.37109 13.7107 6.24203C13.7107 6.21208 13.7107 6.16098 13.7214 6.13413L13.8215 5.84348C13.2671 5.34736 12.3874 4.95193 11.7271 4.78054L11.5351 5.02833C11.4938 5.08563 11.4277 5.12125 11.3528 5.12229M14.1783 6.20847V6.22086C14.1822 6.09592 14.0838 5.98853 13.9584 5.98079C13.9358 5.97801 13.9155 5.9808 13.8944 5.98544L13.8571 5.99781M11.1133 4.89202C11.1133 4.7609 11.215 4.65507 11.3435 4.65042C11.4421 4.64883 11.5279 4.71186 11.5661 4.79498C11.5296 4.71547 11.4544 4.65662 11.3631 4.65146C11.3021 4.64868 11.2433 4.66903 11.1947 4.71186C11.1467 4.75419 11.1194 4.80943 11.1147 4.8719C11.1147 4.87428 11.1147 4.8786 11.1147 4.88066C11.1108 5.00714 11.2071 5.11194 11.3352 5.12226C11.3759 5.12544 11.4152 5.11556 11.4508 5.09902M13.7265 6.11707L13.6232 6.22599C13.1617 5.84706 12.2949 5.31894 11.597 5.14342L11.5847 4.96841M11.4963 5.06753L11.5099 5.22086C12.2228 5.38554 13.1324 5.93121 13.597 6.31943L13.6272 6.34422L13.6994 6.27092L13.711 6.25854M13.809 6.14444L13.858 6.09592" stroke="#5F6A70" stroke-width="0.0385339" stroke-miterlimit="10"/>
<path d="M15.9481 9.44081C15.9616 9.4424 15.9775 9.45062 15.989 9.4568C16.0746 9.49603 16.1315 9.58129 16.1253 9.68299C16.1185 9.8105 16.0086 9.91064 15.8801 9.9029M15.8413 9.52288L15.9007 9.52089C15.9822 9.52605 16.0452 9.59575 16.0411 9.67783C16.0355 9.75733 15.9657 9.82238 15.8857 9.81567C15.8036 9.8125 15.7422 9.74392 15.7468 9.66235C15.7468 9.60711 15.8155 9.54154 15.8609 9.51057L16.1015 9.32678C15.991 8.60713 15.6095 7.7259 15.0483 7.01192L14.7169 7.12085C14.6916 7.126 14.6756 7.12755 14.6524 7.126C14.5713 7.12243 14.512 7.05477 14.5146 6.97268C14.5185 6.89163 14.5884 6.8302 14.6674 6.8364C14.7469 6.83996 14.8104 6.90918 14.8057 6.98714C14.8017 7.02172 14.7934 7.04754 14.7736 7.07077M14.5222 6.79097C14.565 6.75999 14.6166 6.74296 14.6719 6.74657M15.6569 9.65614C15.6608 9.58128 15.7003 9.51676 15.7575 9.47752L16.011 9.29477C15.9238 8.62313 15.4938 7.77906 15.0266 7.11568L14.7344 7.20448C14.707 7.2117 14.6554 7.2117 14.6254 7.20964C14.4959 7.20449 14.4189 7.10019 14.4241 6.96752C14.428 6.95411 14.428 6.9386 14.432 6.92622M14.8719 7.0749L14.8877 7.03411C14.8929 7.01916 14.8968 6.99488 14.8949 6.97267C14.8893 6.84567 14.7823 6.74192 14.6523 6.74656M15.8225 9.43105L15.6445 9.41141C15.5386 8.7501 15.0709 7.81415 14.6399 7.29893L14.7483 7.19878M14.6114 7.2096L14.5991 7.22044L14.5217 7.29168L14.5455 7.32368C14.9554 7.85594 15.4747 8.79189 15.5656 9.49606L15.7163 9.51363M14.7778 7.06919L14.7272 7.11616M15.6833 9.56268C15.6663 9.59468 15.6571 9.63443 15.6571 9.67779C15.6611 9.80324 15.7645 9.90288 15.891 9.90288H15.9009C15.9634 9.90288 16.0212 9.87345 16.0656 9.82906C16.1064 9.78466 16.1301 9.72374 16.127 9.66075C16.1231 9.57144 16.0692 9.49349 15.9907 9.45684" stroke="#5F6A70" stroke-width="0.0385339" stroke-miterlimit="10"/>
<path fill-rule="evenodd" clip-rule="evenodd" d="M14.0523 6.54333C14.0424 6.70543 14.1613 6.84638 14.3234 6.85257C14.4844 6.8603 14.629 6.73693 14.6388 6.57431C14.6459 6.41324 14.5211 6.27384 14.359 6.26817C14.1979 6.25786 14.0596 6.38381 14.0523 6.54333Z" stroke="#5F6A70" stroke-width="0.0385339" stroke-miterlimit="10"/>
<path d="M13.9831 6.45117C13.9744 6.47957 13.9696 6.51001 13.9672 6.54047C13.9573 6.748 14.118 6.92818 14.3256 6.93593C14.3994 6.94057 14.4913 6.92716 14.5563 6.88224" stroke="#5F6A70" stroke-width="0.0385339" stroke-miterlimit="10"/>
<path d="M14.6727 6.7473C14.7013 6.69929 14.7176 6.64044 14.7212 6.57694C14.7335 6.37044 14.571 6.1913 14.3625 6.18407C14.2504 6.17788 14.1255 6.2326 14.0537 6.30901" stroke="#5F6A70" stroke-width="0.0385339" stroke-miterlimit="10"/>
<path d="M8.60314 4.77529C8.6071 4.76081 8.6099 4.74793 8.61664 4.73245C8.65234 4.64779 8.73704 4.58637 8.83722 4.58792C8.96628 4.59204 9.07051 4.69839 9.06691 4.82848M8.68941 4.87854L8.68544 4.82072C8.68941 4.73864 8.75512 4.67152 8.83722 4.67617C8.91671 4.67736 8.98176 4.74328 8.98073 4.82485C8.98073 4.9059 8.91206 4.9694 8.83151 4.96889C8.77527 4.96889 8.70868 4.90436 8.67358 4.86151L8.48258 4.62559C7.72008 4.80524 6.83779 5.21358 6.25548 5.76442L6.37477 6.08967C6.3827 6.11446 6.38465 6.13303 6.38465 6.15626C6.38068 6.2337 6.31653 6.29875 6.2365 6.29875C6.15598 6.29716 6.09196 6.23112 6.09299 6.14801C6.09696 6.0685 6.1596 6.00396 6.24114 6.00448C6.27089 6.00765 6.30052 6.01892 6.32582 6.03442M8.82861 5.0582C8.75372 5.0582 8.68763 5.02103 8.64685 4.96889L8.45484 4.71541C7.79403 4.89197 6.91433 5.28277 6.36141 5.77992L6.45901 6.07057C6.46853 6.09845 6.4713 6.148 6.46971 6.17949C6.46971 6.30958 6.36436 6.38909 6.23427 6.38806C6.16665 6.38687 6.1073 6.35708 6.06549 6.31113M6.00299 6.14647V6.15884C5.99835 6.03133 6.09755 5.92553 6.22197 5.91676C6.2447 5.91676 6.26708 5.91677 6.28651 5.92089L6.32456 5.93687M8.59674 4.90337L8.58445 5.08148C7.88596 5.25803 7.01809 5.78563 6.5571 6.1625L6.45543 6.05718M6.4685 6.19451L6.48162 6.20791L6.55492 6.2807L6.58625 6.25849C7.04827 5.87027 7.95896 5.32046 8.67189 5.15836L8.68539 5.00659M6.32301 6.03444L6.37206 6.08038M8.73236 5.03704C8.76686 5.05251 8.80825 5.06132 8.8485 5.05823C8.97292 5.04946 9.071 4.94568 9.06739 4.81817C9.06739 4.815 9.06739 4.81199 9.06739 4.80941C9.06342 4.74694 9.03605 4.68964 8.98838 4.64782C8.94193 4.60549 8.88205 4.58638 8.82062 4.59C8.72872 4.59413 8.65133 4.65402 8.61829 4.73249" stroke="#5F6A70" stroke-width="0.0385339" stroke-miterlimit="10"/>
<path d="M4.23583 9.37926C4.22151 9.38287 4.20726 9.38648 4.19298 9.3937C4.10727 9.43448 4.0528 9.51764 4.05795 9.62088C4.06517 9.7484 4.1746 9.84699 4.30366 9.8408M5.40821 7.0102C5.39076 6.98799 5.37965 6.95856 5.37727 6.92811C5.37251 6.84809 5.43512 6.77788 5.51516 6.77427C5.59361 6.77014 5.66484 6.83002 5.66694 6.91159C5.6721 6.99005 5.61065 7.05924 5.52959 7.06647C5.50737 7.06647 5.49033 7.06527 5.46713 7.05821L5.13364 6.95135C4.57247 7.66687 4.19094 8.54553 4.08255 9.26518L4.32206 9.44793C4.36803 9.47994 4.43363 9.54498 4.43724 9.60022C4.4412 9.68385 4.37837 9.75096 4.29833 9.75509C4.21627 9.75826 4.14606 9.69572 4.14142 9.61725C4.13745 9.53517 4.20127 9.466 4.28028 9.45929H4.34172M5.51153 6.686C5.56674 6.68243 5.61891 6.70047 5.65968 6.72936M5.75157 6.86205C5.75554 6.87652 5.75672 6.89147 5.75791 6.9085C5.76505 7.03447 5.68824 7.14288 5.55815 7.14805C5.52721 7.15122 5.47608 7.15122 5.44975 7.14186L5.15543 7.05565C4.68877 7.71592 4.25721 8.56154 4.17202 9.23317L4.42547 9.41386C4.48382 9.45568 4.52201 9.51763 4.52618 9.59507M5.53128 6.68601C5.40016 6.67982 5.2933 6.78152 5.28969 6.91161C5.28969 6.93176 5.28971 6.956 5.29487 6.97459L5.31075 7.01279M5.43464 7.13823L5.54614 7.2389C5.113 7.75308 4.64423 8.68698 4.53944 9.34829L4.36239 9.36948M4.46924 9.45465L4.61996 9.43554C4.71031 8.73241 5.23018 7.79542 5.6406 7.26162L5.66399 7.23012L5.5871 7.16249L5.57321 7.14651M5.45808 7.05772L5.40748 7.00454M4.19381 9.39374C4.11532 9.43091 4.06064 9.51093 4.05853 9.60024C4.05457 9.66218 4.07797 9.72414 4.11997 9.76957C4.16543 9.81345 4.22221 9.83926 4.28468 9.84081C4.28865 9.84359 4.28983 9.84081 4.29538 9.84081C4.42032 9.84041 4.52357 9.74117 4.52666 9.61469C4.53063 9.57442 4.5199 9.53519 4.50047 9.5006" stroke="#5F6A70" stroke-width="0.0385339" stroke-miterlimit="10"/>
<path fill-rule="evenodd" clip-rule="evenodd" d="M6.13068 6.48079C6.1406 6.64186 6.02122 6.78124 5.85912 6.79156C5.69805 6.79878 5.55245 6.67231 5.54626 6.51176C5.53833 6.35069 5.66189 6.21234 5.8245 6.20356C5.98557 6.19479 6.12291 6.31972 6.13068 6.48079Z" stroke="#5F6A70" stroke-width="0.0385339" stroke-miterlimit="10"/>
<path d="M6.19908 6.38867C6.20899 6.41707 6.21337 6.44856 6.21496 6.47851C6.22487 6.68707 6.06523 6.86259 5.85717 6.87498C5.78387 6.87696 5.69148 6.86157 5.62695 6.81716" stroke="#5F6A70" stroke-width="0.0385339" stroke-miterlimit="10"/>
<path d="M5.51144 6.68598C5.4809 6.63435 5.46602 6.57705 5.46138 6.51664C5.45146 6.30911 5.61008 6.13255 5.81965 6.12171C5.93221 6.11449 6.05508 6.17179 6.12786 6.24664" stroke="#5F6A70" stroke-width="0.0385339" stroke-miterlimit="10"/>
<path d="M12.7568 4.08082L13.6582 2.06331L13.7222 1.99414L13.7302 2.05971L12.8113 4.10147L12.7568 4.08082Z" fill="#5F6A70"/>
<defs>
<linearGradient id="paint0_linear_3486_23178" x1="3.68028" y1="4.30785" x2="16.5212" y2="17.1488" gradientUnits="userSpaceOnUse">
<stop stop-color="#CCD7DD"/>
<stop offset="0.519119" stop-color="#E9E9EA"/>
<stop offset="0.824173" stop-color="#4D555B"/>
<stop offset="1"/>
</linearGradient>
<linearGradient id="paint1_linear_3486_23178" x1="3.88609" y1="4.51371" x2="16.3167" y2="16.9443" gradientUnits="userSpaceOnUse">
<stop stop-color="white"/>
<stop offset="0.505493" stop-color="white"/>
<stop offset="1" stop-color="#ADB7BD"/>
</linearGradient>
</defs>
</svg>
