<svg width="20" height="20" viewBox="0 0 20 20" fill="none" xmlns="http://www.w3.org/2000/svg">
<path d="M9.74387 19.574C8.58586 19.574 5.89244 19.4838 5.89244 18.6466C5.89244 18.5895 5.90526 18.5311 5.92981 18.478C6.98413 16.0186 6.98413 16.0168 6.98518 16.0151C7.03657 15.9009 7.14127 15.8323 7.23432 15.7884C7.86406 14.1148 8.16887 12.4864 8.16887 10.8117C8.16887 8.03052 7.38616 5.37146 5.90304 3.1183L5.85605 3.10187L5.77477 3.02014L5.71387 2.86916V2.83815C5.71387 2.73807 5.76409 2.64687 5.85285 2.58807L6.27409 2.33394L6.44093 2.32642C6.56281 2.32642 6.66545 2.38954 6.7168 2.49108L6.72214 2.50251L6.72966 2.52668C6.94665 1.26386 8.03733 0.300781 9.34718 0.300781C10.3554 0.300781 11.2826 0.88736 11.7285 1.80093L11.9979 1.91225L12.0226 1.93244L12.1262 1.79292L12.3593 1.98691C12.3882 2.00495 12.6085 2.12984 12.6085 2.12984L12.6641 2.16439L12.6833 2.19217C12.7645 2.31108 12.8127 2.38187 12.8415 2.42732L12.9463 2.47529L12.9849 2.59198C12.9955 2.62168 12.9998 2.65236 12.9998 2.68315C12.9998 2.70413 12.9998 2.73913 12.941 2.90168L12.9035 3.00134L12.7935 3.00695L12.755 3.07492C12.5368 3.45947 12.1711 4.10003 11.6686 5.45894C11.12 6.94191 10.9019 8.75507 10.8827 9.85728C10.9168 12.9006 12.0268 15.2635 12.3069 15.8131C12.4064 15.8686 12.4727 15.9359 12.509 16.0177C12.6823 16.4236 13.5462 18.44 13.5676 18.5016C13.5975 18.586 13.5965 18.6422 13.5922 18.6687C13.5944 19.4838 10.9009 19.574 9.74387 19.574ZM8.06834 5.34307C8.53992 6.5965 8.86071 7.92022 9.00187 9.20281C9.05417 9.68067 9.07988 10.2069 9.07988 10.8116C9.07988 12.3733 8.80503 14.0117 8.28327 15.5668C8.44263 15.5498 8.61481 15.536 8.79766 15.5252C9.02007 13.8079 9.13984 11.5372 9.14518 8.94488C9.14518 8.92601 9.13443 8.23984 9.12169 7.79939C9.12169 7.79939 9.08526 6.5039 9.08526 5.83225V5.72022C9.04684 5.71401 9.00932 5.7074 8.97406 5.70074C8.663 5.64811 8.62236 5.62762 8.5977 5.61533C8.56139 5.59713 8.52714 5.56901 8.49714 5.53364C8.34853 5.48251 8.20526 5.41905 8.06834 5.34307Z" fill="white"/>
<path d="M13.3023 18.5961H13.3033L13.3002 18.5905L13.2991 18.5873L12.2491 16.123H12.2479C12.2405 16.1062 12.2234 16.0893 12.2009 16.0736C12.2083 16.0876 12.2106 16.1009 12.2106 16.1125C12.2106 16.1283 12.2063 16.1403 12.202 16.1482C12.1913 16.1673 12.172 16.1766 12.1485 16.1811C12.1464 16.2133 12.1281 16.2427 12.0961 16.261C12.0705 16.2757 11.9657 16.3204 11.7839 16.3952L11.7765 16.3975C11.7465 16.409 11.7004 16.406 11.569 16.3913L11.5059 16.3856L11.4951 16.4068C11.4716 16.4432 11.4321 16.4462 11.4192 16.4471L11.1829 16.4723C10.767 16.5175 10.5521 16.5317 10.5286 16.5317C10.5286 16.5317 10.5103 16.5308 10.4933 16.5223C10.4644 16.5143 10.4344 16.5008 10.4089 16.4918C10.3724 16.4793 10.3232 16.455 10.3051 16.4506C10.2709 16.4423 10.2228 16.4104 10.2153 16.3524C10.2142 16.3444 10.1907 16.1229 10.1544 15.7787C10.1383 15.7783 10.1222 15.7778 10.1062 15.7773C10.1404 16.197 10.165 16.4644 10.165 16.4653C10.165 16.487 10.1575 16.5068 10.1426 16.5223C10.1105 16.5551 10.0613 16.5519 10.0453 16.551C9.97687 16.5466 9.07435 16.5352 8.98559 16.5352C8.96743 16.5361 8.92356 16.5361 8.9033 16.5091C8.88191 16.4826 8.88398 16.4462 8.88398 16.4462C8.92029 16.2345 8.95247 16.0146 8.98349 15.7911C8.58029 15.8106 8.22217 15.8447 7.93563 15.8894C7.92059 15.9317 7.90567 15.9744 7.88958 16.0168C8.11522 16.0403 8.50119 16.0977 8.50119 16.1806C8.50119 16.226 8.00078 16.2519 7.7998 16.2584H7.79762L7.79657 16.2603L7.40311 16.2678C7.35071 16.2678 7.31969 16.2301 7.31762 16.1939L7.32191 16.1655C7.34007 16.1194 7.35721 16.0736 7.37431 16.0275C7.30582 16.0579 7.25988 16.0898 7.24484 16.1229H7.24383L6.18845 18.5851C6.18104 18.6029 6.17676 18.6201 6.17676 18.6382C6.17676 18.9936 7.77315 19.2818 9.74375 19.2818C11.7133 19.2818 13.3109 18.9936 13.3109 18.6382C13.3109 18.624 13.3076 18.6099 13.3023 18.5961Z" fill="#CD8B2A"/>
<path d="M8.71955 9.2337C8.59654 8.11107 8.3453 7.02043 8.0009 5.99569C7.83842 5.51095 7.65339 5.04174 7.45241 4.59001C7.20752 4.29317 7.03106 3.93817 6.94233 3.54885C6.77985 3.24723 6.61192 2.95554 6.43557 2.67731L6.43128 2.67753C6.44519 2.66468 6.4623 2.65016 6.46553 2.64874L6.4697 2.6361L6.4623 2.61689L6.44839 2.60938L6.35963 2.61355C6.35963 2.61355 6.01963 2.81791 6.00993 2.82411C6.00034 2.83024 5.99707 2.83471 5.99707 2.8378L6.01316 2.86024L6.01745 2.86389L6.02921 2.86881C6.03339 2.86881 6.06012 2.86892 6.08049 2.86892V2.86911C7.56256 5.08377 8.45327 7.82945 8.45327 10.8113C8.45327 12.7494 8.04478 14.5315 7.38075 16.1971C7.38075 16.1971 7.38297 16.2114 7.4032 16.2114L7.41711 16.2109C7.48342 16.21 7.75177 16.2047 7.75177 16.2047C8.37839 14.6156 8.79651 12.7494 8.79651 10.8113C8.79651 10.3696 8.7826 9.92915 8.74512 9.49389C8.73771 9.40682 8.72914 9.32009 8.71955 9.2337Z" fill="#808285"/>
<path d="M6.35963 2.61328C6.35963 2.61328 6.01951 2.81764 6.00993 2.82385C6.00034 2.82997 5.99707 2.83445 5.99707 2.83753L6.01316 2.85997L6.01745 2.86362C6.10399 2.81163 6.36068 2.6599 6.37027 2.6564C6.36598 2.6414 6.36598 2.62471 6.35963 2.61328Z" fill="#FEEAA7"/>
<path d="M9.31752 3.8008C9.35917 4.51621 9.37515 4.92873 9.37097 5.55065C9.35917 6.87001 9.43079 8.20742 9.42861 8.94546C9.42327 11.5469 9.30349 14.3632 8.94639 16.4654C8.94428 16.4831 8.97635 16.479 8.98815 16.479C9.06616 16.479 9.97609 16.4904 10.0478 16.4949C10.0799 16.4971 10.1013 16.4909 10.1001 16.471C9.93015 14.5074 9.71304 11.4934 9.82218 8.94542C9.93015 6.39787 10.0136 5.22038 10.3814 3.36523C9.95582 3.36531 9.58691 3.59129 9.31752 3.8008Z" fill="#A7A9AC"/>
<path d="M10.4134 3.01172C10.037 3.01172 9.80175 3.15198 9.64032 3.23871C9.48641 3.32063 9.3869 3.36905 9.26818 3.48506C9.26818 3.50209 9.24897 3.63443 9.25115 3.76063C9.25115 3.76063 9.27998 3.79431 9.28957 3.79912C9.29604 3.80225 9.30671 3.80631 9.31743 3.808V3.80085C9.58686 3.59138 9.95574 3.36537 10.3813 3.36537L10.3802 3.36762C10.4134 3.346 10.4198 3.30965 10.4198 3.30965L10.4134 3.01172Z" fill="#FECF06"/>
<path d="M9.26818 3.48558C9.26818 3.50261 9.24897 3.63494 9.25115 3.76114C9.27998 3.62043 9.33562 3.4881 9.42856 3.35742C9.3751 3.39201 9.3228 3.43182 9.26818 3.48558Z" fill="#808285"/>
<path d="M10.3705 3.01255C10.3523 3.06582 10.2518 3.08743 10.1962 3.11029C10.1791 3.10322 10.1673 3.0533 10.163 3.03375C10.1491 3.03642 10.1363 3.03909 10.1234 3.04172C10.0914 3.05499 10.0518 3.07273 10.0422 3.08209C10.024 3.09702 10.055 3.211 10.055 3.23709C10.055 3.26352 10.07 3.33138 9.98233 3.3636C9.66586 3.48044 9.45304 3.59724 9.25098 3.75172V3.76059L9.26695 3.77834C9.73526 3.42563 10.132 3.333 10.4197 3.30961L10.4133 3.01172C10.3982 3.01172 10.3844 3.01213 10.3705 3.01255Z" fill="#FEEAA7"/>
<path d="M10.4903 16.4488C10.1375 14.14 10.0658 11.6113 10.0616 10.2919C10.0573 9.19278 10.1759 6.85503 10.4625 5.40233C10.533 5.04425 10.6399 4.50331 10.9843 3.24124C10.9843 3.24124 10.9426 3.21003 10.8891 3.16992V3.17022C10.8132 3.37316 10.6678 3.84109 10.5288 4.31733C10.2155 5.44744 10.1706 6.15496 10.0872 6.90154C10.053 7.16158 10.038 7.63113 10.0744 8.33146C10.0465 8.35331 9.97062 8.43176 9.90547 8.53387C9.899 8.66827 9.89366 8.80549 9.88731 8.94819C9.87979 9.14579 9.87332 9.34992 9.86799 9.55842C9.86693 9.60545 9.86588 9.65218 9.86475 9.70007C9.86058 9.93158 9.8584 10.1687 9.8584 10.4135C9.8584 11.0444 9.88941 12.043 9.93641 13.0532C9.96637 13.4151 10.0017 13.7998 10.037 14.1753L10.0359 14.1714L10.037 14.1838L10.038 14.1921C10.0626 14.4329 10.3 16.2385 10.3129 16.3306C10.3235 16.4 10.3353 16.4077 10.4262 16.4504L10.4251 16.4519C10.4679 16.4673 10.5075 16.4816 10.5161 16.4799C10.4989 16.475 10.4924 16.4642 10.4903 16.4488Z" fill="#808285"/>
<path d="M11.9721 2.80474C11.9592 2.79486 11.9432 2.78395 11.9261 2.77508C11.8822 2.75166 11.7443 2.65332 11.7069 2.63301C11.663 2.63204 11.6202 2.63467 11.5765 2.63948C11.2984 2.67061 10.9884 2.81004 10.6611 2.99504C10.6761 3.01238 10.9841 3.24204 10.9841 3.24204C11.2994 3.06501 11.7197 2.91707 11.9154 2.90298C11.9518 2.89944 11.9667 2.89053 11.9838 2.89053C11.9988 2.86125 12.0073 2.83249 12.0073 2.83249C12.0073 2.83249 11.9934 2.81978 11.9721 2.80474Z" fill="white"/>
<path d="M11.9267 2.77508C11.8829 2.75166 11.745 2.65332 11.7076 2.63301C11.6637 2.63204 11.6209 2.63467 11.5771 2.63956C11.7151 2.68102 11.9032 2.79373 11.9728 2.80474C11.9599 2.79486 11.9438 2.78395 11.9267 2.77508Z" fill="#FECF06"/>
<path d="M10.9844 3.24158C11.2997 3.06455 11.72 2.91662 11.9157 2.90252C11.952 2.89899 11.967 2.89008 11.9841 2.89008C11.9991 2.86079 12.0076 2.83203 12.0076 2.83203C11.7264 2.87602 11.1309 3.08109 10.9844 3.24158Z" fill="#CD8B2A"/>
<path d="M10.4904 16.4489C10.4937 16.4698 10.5033 16.4831 10.5407 16.4831C10.5781 16.4831 11.3907 16.3922 11.4142 16.391C11.4432 16.3887 11.4528 16.3798 11.4378 16.3387C11.1822 15.5503 10.793 14.1657 10.5482 12.6814C10.4423 12.0458 10.3568 10.855 10.3653 10.3163C10.392 8.47362 10.4851 6.77648 10.9277 5.44043C11.3704 4.10524 11.4987 3.7355 11.9157 2.90234C11.7201 2.91644 11.2998 3.06437 10.9844 3.2414C10.64 4.50347 10.5331 5.04437 10.4626 5.40249C10.176 6.8552 10.0573 9.19295 10.0616 10.292C10.066 11.6114 10.1376 14.1401 10.4904 16.4489Z" fill="#A7A9AC"/>
<path d="M10.5292 4.31836C10.4917 4.36028 10.4009 4.60986 10.2971 4.88584C10.2768 4.99159 10.2555 5.10227 10.233 5.2205C10.0961 5.9584 9.97955 6.84727 9.91113 8.30373C9.95813 7.93592 10.0437 7.23907 10.0875 6.90257C10.1709 6.15599 10.2159 5.44843 10.5292 4.31836Z" fill="#A7A9AC"/>
<path d="M12.7164 2.68053C12.6352 2.64035 12.3861 2.53305 12.3487 2.51598C12.2364 2.48723 12.03 2.56546 11.9316 2.60271C11.9177 2.60538 11.8975 2.61959 11.8975 2.61959L11.8996 2.66335L11.9765 2.70162C12.0418 2.72354 12.2011 2.80343 12.2631 2.83324C12.2642 2.83422 12.2813 2.8214 12.3058 2.81207C12.3701 2.78768 12.4962 2.74629 12.6223 2.73098C12.6758 2.72997 12.7014 2.72708 12.7014 2.72708L12.7164 2.68053Z" fill="#FEEAA7"/>
<path d="M11.9766 2.70312C12.0418 2.72504 12.2011 2.80493 12.2632 2.83474C12.2642 2.83572 12.2813 2.8229 12.3059 2.81357C12.3701 2.78918 12.4962 2.74779 12.6223 2.73248C12.6758 2.73147 12.7015 2.72854 12.7015 2.72854L12.7164 2.68207C12.5572 2.65553 12.3048 2.77797 12.2909 2.79023C12.276 2.80267 12.2642 2.8047 12.2556 2.79248C12.247 2.78012 11.9712 2.65015 11.8975 2.62109L11.8996 2.66485L11.9766 2.70312Z" fill="#CD8B2A"/>
<path d="M11.729 16.3184C10.8244 14.0334 10.5207 11.8591 10.4982 10.1459C10.4544 6.68337 12.2614 2.8357 12.2636 2.83499C12.2315 2.81946 12.1737 2.7907 12.1161 2.76367C12.1534 2.80356 12.2037 2.8607 12.2037 2.8607C12.2037 2.8607 12.1545 2.96694 12.13 3.01679C12.1053 3.06525 10.911 5.44521 10.5773 7.48739C10.4833 8.32792 10.4447 9.26619 10.4298 10.3183C10.4298 10.3403 10.4287 10.3641 10.4287 10.3891C10.4287 10.9375 10.5089 12.0511 10.6116 12.6721C10.8864 14.3339 11.3237 15.7775 11.498 16.3166L11.5012 16.3286C11.6027 16.3386 11.7386 16.3581 11.7567 16.3468C11.7439 16.3454 11.7321 16.3311 11.729 16.3184Z" fill="#A7A9AC"/>
<path d="M12.291 2.79032L12.3027 2.78348C12.2214 2.73735 12.0386 2.64855 11.9338 2.60352L11.9316 2.60431C11.9177 2.60697 11.8975 2.62118 11.8975 2.62118C11.9712 2.65024 12.247 2.78021 12.2556 2.79258C12.2642 2.80479 12.276 2.80276 12.291 2.79032Z" fill="white"/>
<path d="M11.4502 14.6859C11.0215 13.5461 10.6258 12.0637 10.598 10.1477C10.582 9.02923 10.7915 7.01268 11.4022 5.36088C12.0138 3.709 12.4307 3.09096 12.6221 2.73242C12.496 2.74772 12.3698 2.78911 12.3056 2.81351C12.2811 2.8228 12.264 2.83565 12.2629 2.83468C12.2608 2.83565 10.4538 6.68317 10.4975 10.1455C10.503 10.548 10.5242 10.9769 10.565 11.4257V11.4253C10.5318 11.304 10.5061 11.2404 10.4965 11.2791C10.4783 11.3452 10.4933 11.59 10.5126 11.8652C10.5403 12.1646 10.5746 12.4496 10.6109 12.6718C10.704 13.2349 10.8162 13.7715 10.9295 14.2579C10.9135 14.0546 10.8782 13.6872 10.8536 13.3854V13.3837C11.0462 14.3203 11.3284 15.3084 11.7283 16.3181C11.7315 16.3304 11.7423 16.3442 11.7551 16.346L11.7604 16.3446C11.8085 16.3248 12.0298 16.2336 12.0641 16.2143C12.0855 16.2015 12.0908 16.1848 12.0833 16.1684C11.8961 15.7478 11.6673 15.2641 11.4502 14.6859Z" fill="#808285"/>
<path d="M10.5994 9.85547C10.5973 9.9578 10.5973 10.056 10.5983 10.1471C10.6261 12.0631 11.0218 13.5455 11.4505 14.6853C11.6623 15.2474 11.8836 15.7202 12.0676 16.1319C12.0911 16.1315 12.12 16.1288 12.1285 16.1288C12.1392 16.1288 12.1552 16.1288 12.1424 16.1079C12.1306 16.089 10.64 13.4579 10.5994 9.85547Z" fill="#A7A9AC"/>
<path d="M12.3636 2.45467L12.3701 2.45644L12.4535 2.49283C12.4962 2.51151 12.5487 2.53486 12.5988 2.557L12.5968 2.55519C12.5604 2.53264 12.4662 2.46666 12.3508 2.4091C12.3123 2.38493 12.1947 2.28982 12.185 2.2788C12.1755 2.2676 12.1648 2.22831 12.1744 2.20117C12.1744 2.20117 12.1616 2.217 12.1562 2.2267C12.1626 2.30095 12.2269 2.37245 12.2995 2.44719C12.322 2.4476 12.3444 2.44963 12.3636 2.45467Z" fill="#FECF06"/>
<path d="M12.2995 2.44622C12.2428 2.38817 12.1915 2.33204 12.1691 2.27539L12.1648 2.28062C12.1509 2.3002 12.0985 2.39407 12.0439 2.49468C12.1358 2.46468 12.2246 2.44456 12.2995 2.44622Z" fill="#A7A9AC"/>
<path fill-rule="evenodd" clip-rule="evenodd" d="M12.3638 2.45495L12.3703 2.45672L12.4515 2.49259C12.4023 2.46067 12.3564 2.43292 12.3435 2.42578C12.3393 2.42886 12.3317 2.43815 12.3242 2.44864C12.3382 2.44992 12.3521 2.45161 12.3638 2.45495Z" fill="#CD8B2A"/>
<path d="M12.145 2.46588C12.2005 2.45242 12.2529 2.44494 12.3 2.44622C12.2433 2.38817 12.1921 2.33204 12.1696 2.27539L12.1653 2.28062C12.1546 2.29396 12.1278 2.34235 12.0947 2.40325C12.1182 2.41791 12.1429 2.43693 12.1503 2.44419L12.145 2.46588Z" fill="#808285"/>
<path d="M11.9014 2.76036L11.9259 2.77476L11.9323 2.77829C11.9505 2.74645 11.9665 2.72024 11.9761 2.7028C11.9761 2.7028 11.959 2.69573 11.9408 2.6875C11.9227 2.72111 11.9088 2.7469 11.9014 2.76036Z" fill="#A7A9AC"/>
<path d="M12.1853 2.2788C12.1949 2.28982 12.3126 2.38497 12.351 2.4091C12.4665 2.46666 12.5606 2.53264 12.597 2.55519L12.6087 2.56542C12.5424 2.48309 12.4655 2.37523 12.4655 2.37523C12.3126 2.28339 12.2163 2.24027 12.1746 2.20117C12.1651 2.22835 12.1757 2.2676 12.1853 2.2788Z" fill="#A7A9AC"/>
<path d="M11.7456 2.40869C11.7766 2.34185 11.8065 2.28079 11.8354 2.23207L11.8193 2.21963C11.8139 2.21482 11.7434 2.18831 11.6738 2.16211C11.7017 2.2426 11.7252 2.32452 11.7456 2.40869Z" fill="white"/>
<path d="M11.7049 2.24821C11.7146 2.24821 11.7209 2.24358 11.7252 2.23689C11.7305 2.22896 11.7273 2.21343 11.7134 2.20546C11.7091 2.20276 11.6985 2.19836 11.6846 2.19336C11.691 2.21171 11.6985 2.22934 11.7049 2.24821Z" fill="#808285"/>
<path d="M11.7848 2.61423C11.8447 2.48017 11.9099 2.31855 11.9141 2.30028L11.9067 2.29066C11.8917 2.27761 11.8681 2.25697 11.835 2.23047C11.8071 2.27919 11.7762 2.34024 11.7451 2.40709C11.7612 2.47521 11.7741 2.54404 11.7848 2.61423Z" fill="#A7A9AC"/>
<path d="M11.9263 2.30805C11.9327 2.31234 11.9595 2.3143 11.9701 2.31031C11.9798 2.30633 11.9883 2.28956 11.9883 2.28102C11.9348 2.22693 11.8504 2.15851 11.8504 2.15851L11.8461 2.15625C11.8247 2.17166 11.7991 2.19527 11.8044 2.21121L11.8194 2.21869C11.8889 2.27309 11.9263 2.30805 11.9263 2.30805Z" fill="#CD8B2A"/>
<path d="M11.6406 2.07031C11.6524 2.10001 11.6631 2.13005 11.6737 2.16065C11.7251 2.18012 11.7786 2.1999 11.8042 2.21073C11.7989 2.19475 11.8245 2.17114 11.8459 2.15576C11.7636 2.124 11.693 2.09287 11.6406 2.07031Z" fill="#FEEAA7"/>
<path d="M11.5254 2.04695C11.4388 1.90647 11.2997 1.72241 11.2462 1.70609C11.1992 1.6918 11.1297 1.69861 11.0752 1.70835C11.0698 1.68887 11.0613 1.6703 11.0517 1.65304C11.1362 1.63489 11.2655 1.62515 11.2997 1.70376C11.3254 1.71101 11.3853 1.78429 11.4441 1.87259C11.3275 1.64752 11.1768 1.44459 10.9992 1.26838C10.9789 1.25241 10.9607 1.24086 10.9533 1.23726C10.9437 1.23207 10.9329 1.23861 10.9243 1.24789L10.9233 1.23124C10.9222 1.21917 10.9298 1.21391 10.9404 1.21229C10.5203 0.822593 9.96205 0.583984 9.34724 0.583984C8.03634 0.583984 6.97461 1.66011 6.97461 2.98827C6.97461 3.14101 6.98953 3.28977 7.01626 3.43425C7.04093 3.46466 7.07935 3.4812 7.17134 3.46718C7.17134 3.18413 7.19483 2.97489 7.2248 2.87244C7.23972 2.88579 7.25581 2.8947 7.27502 2.89861C7.21946 3.02154 7.19483 3.19203 7.19483 3.45598C7.21521 3.48853 7.23649 3.53804 7.25788 3.60342C7.28461 3.68432 7.5295 4.14387 7.67702 4.25756C7.70491 4.29568 7.75615 4.2615 7.79145 4.30323C7.76367 4.30162 7.72837 4.29977 7.71551 4.29977C7.69412 4.29977 7.67269 4.3271 7.67814 4.35414C7.68348 4.38128 7.72085 4.54759 7.74224 4.64045C7.7551 4.69053 7.77649 4.74962 7.80427 4.8109C8.06626 5.03759 8.37525 5.20932 8.71743 5.30444C8.77412 5.29827 8.89277 5.30135 8.99329 5.3035C9.28412 5.25357 9.20713 5.21241 9.19536 5.18921C9.12374 5.05523 9.0992 4.85162 9.09491 4.79846C9.09062 4.74553 9.07987 4.74 9.06171 4.7306C8.77093 4.58688 8.47363 4.35045 8.43728 4.32045C8.40093 4.29004 8.35814 4.24669 8.32713 4.23331C8.31115 4.23331 8.28754 4.26004 8.27792 4.28677L8.26935 4.30105C8.25972 4.36714 8.22017 4.48677 8.03303 4.47624C8.06093 4.4741 8.09296 4.46669 8.13032 4.45207C8.25544 4.40414 8.2522 4.26068 8.24799 4.23763C8.24371 4.21421 8.22442 4.15985 8.24799 4.1365C8.27149 4.11274 8.2789 4.04639 8.24371 3.94947C8.22983 3.91 8.23619 3.87154 8.27472 3.8403C8.3142 3.80887 8.40408 3.75083 8.3998 3.68053C8.39551 3.61041 8.37623 3.46256 8.34517 3.40395C8.31416 3.34568 8.28209 3.3068 8.31416 3.26782C8.34517 3.2288 8.4072 3.16647 8.4072 3.09598C8.4072 3.0765 8.41577 3.04605 8.43822 3.03425C8.46179 3.02248 8.66814 2.84692 8.72265 2.65222C8.73874 2.59598 8.75585 2.58023 8.7516 2.56966C8.75589 2.57989 8.76119 2.5962 8.74615 2.62526C8.73123 2.65466 8.73551 2.69128 8.71408 2.72575C8.69164 2.75996 8.6863 2.87831 8.45002 3.05571C8.43927 3.06417 8.43393 3.08233 8.43081 3.09898C8.466 3.17598 8.53983 3.25263 8.56551 3.28763C8.60186 3.33673 8.61468 3.32613 8.64247 3.32613C8.66818 3.32613 9.21668 3.33692 9.34814 3.33523C9.41769 3.28541 9.48829 3.24605 9.57378 3.20053L9.59517 3.18944C9.67747 3.05023 9.78983 2.83658 9.8604 2.69786C9.80476 2.64143 9.77269 2.52327 9.76735 2.4997C9.75878 2.46233 9.73311 2.39921 9.70634 2.36756C9.68066 2.33594 9.65183 2.24707 9.64653 2.23489C9.64006 2.2235 9.59408 2.2235 9.57164 2.20665C9.5492 2.18921 9.5492 2.15492 9.53416 2.11481C9.52029 2.07485 9.44228 2.02616 9.39412 2.02004C9.34495 2.01425 9.2754 2.05169 9.22412 2.04872C9.17273 2.04605 9.10645 1.95974 9.08296 1.95387C9.06051 1.94823 8.96217 1.98007 8.94502 1.98007C8.92788 1.98007 8.82743 1.85929 8.80499 1.84192C8.78359 1.8262 8.77713 1.86526 8.77826 1.89365C8.76968 1.88244 8.76217 1.87387 8.75788 1.87109C8.74397 1.86402 8.72153 1.80383 8.75893 1.78395C8.79525 1.76406 8.8028 1.79101 8.81991 1.82041C8.83705 1.85019 8.8669 1.86323 8.88517 1.8771C8.90333 1.89101 8.91502 1.93353 8.94709 1.93485C8.97927 1.93601 9.00055 1.91098 9.04871 1.91098C9.13641 1.91098 9.17277 2.01075 9.22623 2.01075C9.28186 2.01075 9.27863 1.98466 9.35457 1.98466C9.42946 1.98466 9.51288 2.01992 9.54807 2.06861C9.58126 2.11639 9.56739 2.15053 9.60581 2.1685C9.64333 2.18594 9.66577 2.18827 9.67859 2.22568C9.69145 2.26421 9.69457 2.29913 9.71171 2.3241C9.7278 2.34902 9.76623 2.38556 9.78333 2.42673C9.80577 2.48244 9.7919 2.5088 9.82186 2.55417C9.856 2.60955 9.8913 2.69402 9.91698 2.69402C9.94476 2.69402 9.98758 2.6412 10.011 2.62579C10.0218 2.64579 10.0249 2.66684 10.0239 2.69804C10.0228 2.72951 10.0122 2.80139 10.0357 2.80586C10.0486 2.80831 10.0753 2.81444 10.0988 2.80425C10.0688 2.86135 10.0239 2.84583 9.99935 2.80425C9.98326 2.77545 9.9822 2.7312 9.98758 2.69752C9.95762 2.72455 9.92983 2.73068 9.90529 2.72455C9.84965 2.83609 9.75555 3.0103 9.67431 3.14692C9.83472 3.06094 10.0688 2.94635 10.4142 2.94635H10.4773L10.4848 3.31335L10.4837 3.3191C10.4827 3.32477 10.4741 3.36466 10.441 3.39876C10.3854 3.68301 10.3362 3.95147 10.2923 4.21192C10.3105 4.21011 10.3266 4.20752 10.3341 4.20173C10.3608 4.18229 10.4592 3.74932 10.4912 3.70553L10.4934 3.70338C10.5596 3.44835 10.6185 3.25429 10.673 3.08534C10.6249 3.0588 10.6024 3.04601 10.5981 3.04L10.5628 2.97553L10.6249 2.94064C10.5949 2.85737 10.5886 2.76259 10.5875 2.74045C10.5863 2.70451 10.5671 2.66703 10.5596 2.63695C10.5522 2.60677 10.5768 2.59173 10.5906 2.58492C10.5746 2.59177 10.6003 2.63353 10.6014 2.65195C10.6035 2.67011 10.6216 2.69184 10.6216 2.73214C10.6216 2.80643 10.6345 2.87019 10.6538 2.92459C10.6901 2.90429 10.7254 2.88523 10.7607 2.86662L10.7521 2.83959C10.7232 2.71492 10.7595 2.6747 10.7863 2.66034L10.7713 2.67898C10.751 2.69887 10.7693 2.81947 10.7724 2.84274L10.7756 2.85872C10.8419 2.82353 10.904 2.79398 10.9648 2.76526C10.906 2.64752 10.8366 2.55278 10.7671 2.53857C10.6826 2.52094 10.611 2.55365 10.5895 2.4988C10.4655 2.49207 10.1212 2.48553 10.0143 2.50586C10.0143 2.48992 10.0132 2.47462 10.0132 2.45974C10.1811 2.4544 10.5863 2.45647 10.6109 2.45647C10.6152 2.42308 10.5928 2.34699 10.5746 2.31515C10.5831 2.29906 10.5895 2.28049 10.5991 2.27895C10.6195 2.27526 10.6387 2.34598 10.6387 2.37748C10.6366 2.4088 10.6548 2.49034 10.6922 2.49154C10.7285 2.49259 10.7414 2.45571 10.7671 2.45571C10.8066 2.45571 10.8985 2.61489 10.9242 2.62733C10.9317 2.63105 10.9403 2.62624 10.952 2.61429C10.9734 2.65868 10.9948 2.70335 11.013 2.74274C11.2248 2.64778 11.4076 2.59259 11.569 2.57451C11.6086 2.57 11.6449 2.56917 11.6802 2.56917C11.6494 2.38703 11.5959 2.21274 11.5254 2.04695Z" fill="#FECF06"/>
<path d="M8.42103 3.16797C8.41467 3.18729 8.40287 3.20974 8.38155 3.22838C8.34197 3.26237 8.31836 3.29184 8.33227 3.33113C8.3473 3.37015 8.44242 3.58489 8.41569 3.69756C8.38896 3.81007 8.25749 3.86865 8.25749 3.90545C8.25749 3.9421 8.29591 4.02485 8.29057 4.0638C8.28629 4.10338 8.24994 4.15477 8.25204 4.17647C8.25317 4.18654 8.25851 4.19925 8.26279 4.21304C8.29163 4.20579 8.29911 4.21744 8.32054 4.2153C8.32054 4.19489 8.3911 3.91789 8.43385 3.78139C8.47667 3.64417 8.55787 3.43131 8.56437 3.4109C8.57073 3.39101 8.5814 3.37113 8.56749 3.35124C8.55685 3.33519 8.47238 3.23086 8.42103 3.16797Z" fill="#CD8B2A"/>
<path d="M10.1215 2.5379C10.0915 2.53437 10.0478 2.54369 10.0156 2.54505C10.0167 2.55941 10.0167 2.5732 10.0167 2.58696C10.0371 2.55734 10.1013 2.59757 10.1258 2.67185C10.1664 2.60516 10.1931 2.54636 10.1215 2.5379Z" fill="#CD8B2A"/>
<path d="M9.76826 2.50586C9.67845 2.60635 9.54363 2.81969 9.50627 2.85624C9.45815 2.90488 9.39935 2.71146 9.35653 2.71146C9.31382 2.71146 9.22183 2.90492 9.1192 2.96447C9.04006 3.01026 8.74818 2.96804 8.60066 2.91894C8.56536 2.95936 8.51724 3.00466 8.44987 3.05567C8.43912 3.06413 8.43378 3.08229 8.43066 3.09894C8.46585 3.17593 8.53969 3.25259 8.56536 3.28759C8.60172 3.33669 8.61454 3.32608 8.64232 3.32608C8.66803 3.32608 9.21653 3.33687 9.34799 3.33518C9.41754 3.28537 9.48815 3.24601 9.57363 3.20048L9.59503 3.18939C9.67732 3.05018 9.78969 2.83654 9.86025 2.69781C9.80781 2.64488 9.77683 2.53838 9.76826 2.50586Z" fill="#CD8B2A"/>
<path d="M9.11914 4.7445C9.12561 4.76683 9.15978 4.9439 9.17478 5.00807C9.18865 5.07224 9.23888 5.19111 9.25925 5.20875C9.26354 5.21303 9.2838 5.21326 9.30625 5.21119C9.30519 5.01303 9.30196 4.82927 9.29557 4.64062C9.24749 4.66371 9.13846 4.72604 9.11914 4.7445Z" fill="#CD8B2A"/>
<path d="M9.20476 3.48471L9.20694 3.45625L9.22409 3.4399C9.24536 3.41911 9.26574 3.40226 9.286 3.38482C9.12145 3.36493 8.69687 3.36644 8.65521 3.36805C8.60281 3.36993 8.59852 3.39196 8.59424 3.40584C8.591 3.4199 8.49262 3.73809 8.46811 3.8082C8.44348 3.87869 8.36754 4.18042 8.36224 4.19858C8.35589 4.21678 8.35589 4.23272 8.37405 4.2367C8.38363 4.23892 8.54081 4.37354 8.70769 4.48805C8.86912 4.59873 9.03807 4.69046 9.05728 4.70129C9.09581 4.72343 9.1054 4.71147 9.11503 4.70516C9.12566 4.69926 9.26371 4.62892 9.2936 4.60632C9.28503 4.37753 9.27333 4.13918 9.25724 3.85463C9.24766 3.84941 9.23375 3.83828 9.20273 3.8029L9.18769 3.78546V3.73873C9.18769 3.64835 9.19627 3.5608 9.20168 3.51181L9.20476 3.48471Z" fill="#CD8B2A"/>
<path d="M9.1954 5.18984C9.12378 5.05585 9.09923 4.85224 9.09495 4.79908C9.09066 4.74615 9.07991 4.74063 9.06175 4.73123C8.77096 4.58751 8.47367 4.35108 8.43732 4.32108C8.40096 4.29066 8.35818 4.24732 8.32717 4.23393C8.31119 4.23393 8.28758 4.26066 8.27796 4.28739L8.26938 4.30168C8.25976 4.36777 8.22021 4.48739 8.03307 4.47687C8.06096 4.47472 8.09299 4.46732 8.13036 4.45269C8.25547 4.40476 8.25224 4.2613 8.24803 4.23826C8.24374 4.21484 8.22446 4.16048 8.24803 4.13713C8.27153 4.11337 8.27893 4.04702 8.24374 3.9501C8.22987 3.91063 8.23623 3.87217 8.27476 3.84093C8.31423 3.8095 8.40412 3.75145 8.39983 3.68115C8.39555 3.61104 8.37626 3.46318 8.34521 3.40457C8.3142 3.3463 8.28213 3.30743 8.3142 3.26845C8.34521 3.22942 8.40724 3.16709 8.40724 3.0966C8.40724 3.07713 8.41581 3.04668 8.43826 3.03487C8.45006 3.02893 8.50987 2.9807 8.5719 2.90927C8.54517 2.89878 8.52596 2.88818 8.51739 2.87848L7.11141 2.18164C7.02265 2.43423 6.97461 2.70525 6.97461 2.98886C6.97461 3.1416 6.98953 3.29048 7.01626 3.43514C7.04093 3.46517 7.07935 3.48175 7.17134 3.46777C7.17134 3.18472 7.19483 2.97548 7.2248 2.87303C7.23972 2.88638 7.25581 2.89529 7.27502 2.8992C7.21946 3.02213 7.19483 3.19262 7.19483 3.45657C7.21521 3.48912 7.23649 3.53863 7.25788 3.60401C7.28461 3.68491 7.5295 4.14446 7.67702 4.25814C7.70491 4.29623 7.75615 4.26209 7.79145 4.30382C7.76367 4.3022 7.72837 4.30036 7.71551 4.30036C7.69412 4.30036 7.67269 4.32769 7.67814 4.35472C7.68348 4.38187 7.72085 4.54818 7.74224 4.64104C7.75405 4.69014 7.77544 4.74863 7.80322 4.80905C8.06626 5.03732 8.37848 5.20942 8.72171 5.30431C8.78156 5.29942 8.896 5.30194 8.99333 5.30412C9.2842 5.2542 9.2072 5.21303 9.1954 5.18984Z" fill="#CD8B2A"/>
<path d="M7.64285 4.2662C7.46105 4.06947 7.2162 3.68015 7.20439 3.51097L7.19699 3.50391L7.19052 3.50432C7.15421 3.50699 7.07398 3.50699 7.05906 3.50699C7.05154 3.50699 7.0483 3.54879 7.05684 3.61767C7.17556 4.05812 7.41293 4.44808 7.73473 4.74917C7.66853 4.56921 7.61718 4.36135 7.62466 4.33342C7.63206 4.30364 7.66413 4.2883 7.64285 4.2662Z" fill="#CD8B2A"/>
<path d="M9.9998 2.80399C9.98371 2.7752 9.98266 2.73095 9.98803 2.69727C9.97412 2.7102 9.96025 2.71817 9.94638 2.72249C9.95172 2.76817 9.85645 2.94546 9.76562 3.10061C9.83089 3.06896 9.90461 3.03693 9.99126 3.01009C10.0051 2.94633 10.0233 2.88279 10.0383 2.83727C10.0233 2.83223 10.0094 2.82133 9.9998 2.80399Z" fill="#CD8B2A"/>
<path d="M11.3 1.70379C11.3267 1.71127 11.392 1.79153 11.4529 1.88589C11.3716 1.72518 11.2712 1.57601 11.1567 1.43841C11.1589 1.44823 11.1599 1.45766 11.1632 1.46311C11.1546 1.4783 11.1514 1.48747 11.1567 1.50544C11.1632 1.5233 11.1599 1.56308 11.1418 1.57492C11.1236 1.58725 11.0873 1.5298 11.0755 1.50255C11.0734 1.52052 11.0605 1.52999 11.0563 1.53796C11.0508 1.54582 11.0081 1.493 10.9653 1.4477C10.9247 1.40341 10.8808 1.38537 10.8734 1.40341C10.8681 1.42074 10.9194 1.45605 10.9183 1.47849C10.9161 1.50105 10.9461 1.55259 10.9867 1.5898C11.0145 1.60379 11.0349 1.62687 11.0508 1.6536L11.052 1.65308C11.1364 1.63492 11.2658 1.62522 11.3 1.70379Z" fill="#CD8B2A"/>
<path d="M11.5318 2.05801C11.4452 1.91617 11.3009 1.72432 11.2462 1.70741C11.1993 1.69312 11.1297 1.69992 11.0752 1.70966C11.0784 1.72376 11.0817 1.73842 11.0827 1.75252C11.1009 1.78282 11.1094 1.82034 11.1137 1.85485C11.2195 1.99985 11.2719 2.37895 11.2901 2.63748C11.3906 2.60647 11.4826 2.58571 11.5692 2.57598C11.6099 2.57147 11.6472 2.57064 11.6837 2.57045C11.6527 2.3915 11.5992 2.22064 11.5318 2.05801Z" fill="#CD8B2A"/>
<path d="M10.2874 4.24805C10.234 4.57342 10.187 4.88767 10.1484 5.20053L10.1709 5.20023C10.2382 4.84169 10.2982 4.54286 10.3548 4.28899C10.3537 4.26072 10.3249 4.25154 10.2874 4.24805Z" fill="#CD8B2A"/>
<path d="M10.2939 4.21327C10.311 4.21166 10.327 4.20857 10.3346 4.20327C10.3613 4.18384 10.4597 3.75087 10.4917 3.70707L10.4939 3.70493C10.5132 3.63004 10.5324 3.56132 10.5505 3.49609C10.4981 3.535 10.4468 3.57651 10.4009 3.61331C10.3613 3.82045 10.326 4.01824 10.2939 4.21327Z" fill="#CD8B2A"/>
<path d="M11.1625 1.46318C11.1592 1.45634 11.156 1.44555 11.1549 1.4325C11.1111 1.38055 11.0651 1.33138 11.017 1.28322V1.28352C10.987 1.25608 10.9625 1.24217 10.9529 1.23735C10.9433 1.23217 10.9325 1.23871 10.9239 1.24799L10.9229 1.23134C10.9218 1.2189 10.9304 1.21326 10.941 1.21217C10.5819 0.881188 10.1252 0.658181 9.6163 0.599609C9.55961 0.61288 9.51145 0.627542 9.49976 0.637579C9.411 0.633745 9.23882 0.613444 9.19821 0.67788C9.08167 0.689873 8.84318 0.778519 8.83148 0.766414C8.82073 0.755399 8.87742 0.679685 8.86885 0.633745C7.83491 0.847918 7.04577 1.74303 6.97949 2.83732C7.00622 2.87506 7.02438 2.91514 7.05863 2.91119C7.09276 2.90724 7.13987 2.8669 7.17618 2.80468C7.2072 2.86671 7.2425 2.9019 7.3013 2.9019C7.29273 2.97224 7.29596 3.11138 7.30882 3.15506C7.33231 3.23299 7.42212 3.34585 7.44145 3.4242C7.46066 3.50164 7.44145 3.68096 7.45637 3.74732C7.47246 3.81311 7.62855 4.08555 7.67554 4.15592C7.7216 4.22615 7.8157 4.33115 7.87017 4.39405C7.92468 4.45604 7.97919 4.51029 8.12998 4.4522C8.25509 4.40427 8.25186 4.26081 8.24765 4.23777C8.24336 4.21435 8.22408 4.15999 8.24765 4.13664C8.27115 4.11288 8.27855 4.04653 8.24336 3.94961C8.22949 3.91014 8.23585 3.87168 8.27438 3.84044C8.31385 3.80901 8.40374 3.75096 8.39945 3.68066C8.39517 3.61055 8.37588 3.46269 8.34483 3.40408C8.31382 3.34581 8.28175 3.30694 8.31382 3.26796C8.34483 3.22893 8.40686 3.1666 8.40686 3.09611C8.40686 3.07664 8.41543 3.04619 8.43788 3.03438C8.46145 3.02262 8.6678 2.84705 8.72231 2.65235C8.7384 2.59611 8.75551 2.58036 8.75126 2.5698C8.74803 2.5592 8.72765 2.52468 8.64746 2.52468C8.56727 2.52468 8.50314 2.59544 8.46254 2.59544C8.44645 2.59544 8.43047 2.5698 8.42727 2.55217C8.42299 2.53442 8.39408 2.42228 8.30115 2.3619C8.27859 2.27006 8.22303 2.07698 8.2081 2.03905C8.19306 2.00115 8.18878 1.951 8.20487 1.91254C8.22096 1.87123 8.23912 1.84123 8.26472 1.91841C8.28081 1.96826 8.31284 2.06878 8.34284 2.09089C8.34919 2.15559 8.36205 2.2072 8.41122 2.23405C8.41445 2.29446 8.43261 2.32882 8.46791 2.34803C8.46897 2.39145 8.484 2.4728 8.5128 2.49762C8.54276 2.52243 8.76299 2.48258 8.91167 2.34803C8.94803 2.34183 8.96724 2.33852 9.02927 2.28435C9.09235 2.22938 9.17148 2.16499 9.18641 2.15194C9.20145 2.13908 9.20998 2.0851 9.17784 2.0816C9.14682 2.07803 9.08596 2.0851 9.06987 2.03442C9.05919 2.00277 9.05378 1.97051 9.02171 1.96942C8.979 1.96784 8.95758 2.03593 8.88701 2.02739C8.85818 2.02412 8.84314 1.97299 8.82175 1.9519C8.80043 1.93066 8.77152 1.87844 8.75761 1.87126C8.7437 1.8642 8.72126 1.80401 8.75867 1.78412C8.79498 1.76423 8.80254 1.79119 8.81964 1.82059C8.83679 1.85036 8.86664 1.86341 8.88491 1.87728C8.90306 1.89119 8.91476 1.93371 8.94682 1.93502C8.979 1.93619 9.00028 1.91115 9.04844 1.91115C9.13615 1.91115 9.1725 2.01093 9.22596 2.01093C9.2816 2.01093 9.27836 1.98483 9.3543 1.98483C9.42919 1.98483 9.51261 2.0201 9.5478 2.06878C9.581 2.11656 9.56712 2.1507 9.60554 2.16867C9.64306 2.18611 9.66551 2.18844 9.67833 2.22585C9.69118 2.26438 9.6943 2.29931 9.71145 2.32427C9.72754 2.3492 9.76596 2.38574 9.78306 2.4269C9.80551 2.48262 9.79164 2.50897 9.8216 2.55435C9.85573 2.60972 9.89103 2.6942 9.91671 2.6942C9.94449 2.6942 9.98731 2.64138 10.0108 2.62596C10.0215 2.64596 10.0247 2.66702 10.0236 2.69822C10.0226 2.72968 10.0119 2.80156 10.0354 2.80604C10.0589 2.81044 10.137 2.82923 10.1348 2.72292C10.1328 2.61675 10.0408 2.54953 10.0161 2.58577C10.0151 2.49841 10.0108 2.39081 10.0098 2.37427C10.0718 2.30604 10.1391 2.24134 10.1851 2.18938C10.2311 2.13773 10.2878 2.07453 10.3242 2.05551C10.3648 2.06213 10.5005 2.17284 10.5038 2.22168C10.507 2.27149 10.5209 2.32686 10.5316 2.33393C10.5711 2.36002 10.5786 2.2825 10.5989 2.27916C10.6193 2.27547 10.6385 2.34619 10.6385 2.37769C10.6364 2.40901 10.6546 2.49055 10.692 2.49175C10.7283 2.4928 10.7412 2.45593 10.7669 2.45593C10.8064 2.45593 10.8983 2.6151 10.924 2.62754C10.9487 2.64021 10.9882 2.56668 11.0405 2.44461C11.0652 2.38792 11.0342 2.33495 11.016 2.31702C10.9978 2.29927 10.8642 2.20141 10.8674 2.16262C10.8705 2.12337 10.9015 2.08619 10.9336 2.08619C10.9657 2.08619 11.016 2.08551 11.0278 2.07709C11.0545 2.05803 11.0384 2.00521 11.0608 1.99262C11.0822 1.98108 11.1004 1.96641 11.11 1.94427C11.1196 1.92171 11.1207 1.81735 11.0822 1.75123C11.078 1.68837 11.0437 1.62029 10.986 1.5898C10.9453 1.55258 10.9154 1.50104 10.9176 1.47848C10.9186 1.45604 10.8673 1.42074 10.8727 1.40341C10.8801 1.38536 10.924 1.40341 10.9646 1.44769C11.0074 1.49303 11.0502 1.54585 11.0555 1.53796C11.0598 1.53002 11.0727 1.52051 11.0747 1.50254C11.0865 1.5298 11.1229 1.58724 11.141 1.57491C11.1592 1.56307 11.1624 1.52326 11.156 1.50544C11.1507 1.48758 11.1539 1.47837 11.1625 1.46318Z" fill="#A7A9AC"/>
<path d="M8.59561 4.1458C8.56888 4.13854 8.49828 4.00144 8.57094 3.96565C8.58053 3.93689 8.55809 3.81298 8.5838 3.80493C8.60948 3.79738 8.65764 3.74881 8.67038 3.73039C8.68437 3.712 8.73782 3.6967 8.78053 3.70956C8.80948 3.66595 8.84256 3.64508 8.86606 3.67888C8.8885 3.71204 8.85215 3.77223 8.84579 3.79738C8.83504 3.83618 8.77301 3.93422 8.75809 3.97595C8.74316 4.01659 8.7067 4.1223 8.69395 4.13268C8.66609 4.1458 8.62444 4.15347 8.59561 4.1458Z" fill="#A7A9AC"/>
<path d="M8.99399 1.2315C8.98542 1.20545 8.93519 1.18864 8.9117 1.20191C8.88813 1.21518 8.86888 1.25781 8.84215 1.27086C8.81542 1.28413 8.79298 1.29462 8.79621 1.32093C8.79933 1.34699 8.86565 1.39706 8.86888 1.43635C8.87211 1.47605 8.81542 1.49274 8.82181 1.51217C8.82933 1.53255 8.91809 1.56195 8.94805 1.54533C8.97801 1.5292 8.97365 1.40966 8.97801 1.39372C8.9876 1.35372 8.90847 1.33063 8.90523 1.30432C8.90196 1.27763 8.99722 1.24169 8.99399 1.2315Z" fill="#FECF06"/>
<path d="M7.59346 1.5671C7.63083 1.55485 7.68 1.54812 7.68963 1.56808C7.69922 1.58797 7.62978 1.69285 7.64369 1.70962C7.65651 1.72612 7.68963 1.73263 7.70245 1.73958C7.71531 1.74624 7.7388 1.7662 7.75914 1.7662C7.77835 1.7662 7.8479 1.69966 7.89707 1.70297C7.9473 1.70631 7.97403 1.73955 8.00294 1.74285C8.03279 1.7462 8.19538 1.75131 8.2317 1.7812C8.25196 1.75928 8.33113 1.68225 8.34613 1.66594C8.36106 1.64966 8.36963 1.60658 8.35147 1.60992C8.33331 1.61364 8.30542 1.64966 8.2841 1.62425C8.26166 1.59902 8.22312 1.56936 8.20391 1.57109C8.18354 1.57282 8.14722 1.56759 8.14504 1.5512C8.14294 1.53485 8.17929 1.45785 8.18891 1.43917C8.14828 1.4356 8.10985 1.43394 8.10444 1.45406C8.0991 1.47428 8.04463 1.58041 8.02538 1.58225C8.00824 1.58398 8.00177 1.53267 8.01034 1.50654C8.01891 1.48067 8.00824 1.43951 8.00824 1.42237C8.00824 1.40519 8.01459 1.35346 8.02109 1.33398C8.02745 1.31451 8.00395 1.32725 7.9932 1.3253C7.98256 1.32304 7.96335 1.34894 7.96335 1.36195C7.96335 1.37511 7.9526 1.41797 7.96335 1.42026C7.97399 1.42237 7.97621 1.45917 7.96764 1.46763C7.95906 1.4765 7.94831 1.53071 7.92376 1.54793C7.90027 1.56492 7.84034 1.58225 7.82538 1.56714C7.80929 1.55222 7.80076 1.5415 7.805 1.52846C7.80929 1.51511 7.87027 1.47876 7.88094 1.46763C7.8917 1.45691 7.88741 1.40966 7.87884 1.39673C7.87027 1.38391 7.87027 1.30797 7.87027 1.29492C7.78361 1.33173 7.63177 1.42049 7.56128 1.53263C7.5464 1.5562 7.56245 1.57737 7.59346 1.5671Z" fill="#FECF06"/>
<path d="M8.23711 1.41094C8.25425 1.39868 8.28527 1.36647 8.29707 1.35064C8.30876 1.33451 8.36011 1.23932 8.37831 1.23771C8.40181 1.23587 8.42647 1.27399 8.4585 1.27399C8.49053 1.27399 8.55583 1.20053 8.57605 1.2032C8.61241 1.20707 8.5344 1.26207 8.55049 1.30229C8.56542 1.3391 8.62316 1.35462 8.61887 1.38707C8.61666 1.4088 8.50545 1.40011 8.41786 1.40305C8.36545 1.40493 8.3238 1.42226 8.30876 1.43256C8.27564 1.4553 8.20933 1.43113 8.23711 1.41094Z" fill="#FECF06"/>
<path d="M9.20751 3.46215V3.45625L9.22465 3.4399C9.24604 3.41911 9.26631 3.40226 9.28668 3.38482C9.12202 3.36493 8.69743 3.36644 8.65578 3.36805C8.60337 3.36993 8.59909 3.39196 8.5948 3.40591L8.59375 3.41208C8.60867 3.42666 8.64086 3.43636 8.6707 3.44185C8.70819 3.44892 8.90063 3.45869 8.9851 3.46234C9.03108 3.46411 9.12409 3.46298 9.20751 3.46215Z" fill="#FECF06"/>
<path d="M8.42171 3.16797C8.41753 3.18022 8.41001 3.19402 8.40039 3.20729C8.45272 3.28748 8.53832 3.39184 8.56821 3.38707L8.57355 3.38398C8.57573 3.37297 8.57573 3.36184 8.56821 3.35124C8.55753 3.33519 8.47306 3.23086 8.42171 3.16797Z" fill="#FECF06"/>
<path d="M10.5902 2.49854C10.4875 2.49301 10.2353 2.48794 10.0908 2.49771L10.0962 2.51222C10.1037 2.5211 10.2759 2.54192 10.3389 2.54192C10.402 2.54192 10.5549 2.55565 10.5849 2.54192C10.5945 2.53704 10.603 2.52794 10.6051 2.51854L10.5902 2.49854Z" fill="#FEEAA7"/>
<path d="M8.64823 2.52539C8.60124 2.52539 8.5606 2.54964 8.5253 2.56986C8.55308 2.62062 8.58188 2.71731 8.57553 2.77588C8.56594 2.86483 8.50068 2.96073 8.45898 3.02084C8.51673 2.97434 8.6771 2.82099 8.72304 2.65302C8.73913 2.59678 8.75624 2.58107 8.75199 2.57047C8.7488 2.5599 8.72842 2.52539 8.64823 2.52539Z" fill="white"/>
<path d="M8.39999 3.6753C8.39781 3.6506 8.39458 3.61827 8.39029 3.58398C8.32838 3.60034 8.25349 3.64951 8.21495 3.69293C8.1615 3.75353 7.95947 3.97782 7.97334 3.99872C7.98826 4.01955 8.14762 3.86015 8.16578 3.84207C8.18292 3.82432 8.27165 3.73222 8.30695 3.73575C8.32292 3.73722 8.36469 3.70846 8.39999 3.6753Z" fill="white"/>
<path d="M10.5316 2.33506C10.5209 2.32799 10.507 2.27262 10.5038 2.22277C10.5006 2.17397 10.3648 2.06326 10.3242 2.05664C10.2878 2.07563 10.2312 2.13886 10.1851 2.19051C10.1392 2.24247 10.0718 2.30717 10.0098 2.3754C10.0098 2.38104 10.0108 2.39784 10.0119 2.42081C10.0889 2.3413 10.2696 2.13585 10.2867 2.11856C10.306 2.10014 10.322 2.08939 10.3487 2.11104C10.3754 2.13235 10.461 2.2151 10.4642 2.24784C10.4664 2.27991 10.4771 2.34672 10.4984 2.35766C10.5177 2.36683 10.5658 2.35314 10.5915 2.28502C10.5765 2.30202 10.5658 2.35781 10.5316 2.33506Z" fill="#59595B"/>
<path d="M10.9335 2.08633C10.9015 2.08633 10.8705 2.12351 10.8673 2.16276C10.8652 2.17911 10.8876 2.20509 10.9165 2.23133C10.9068 2.18769 10.909 2.14051 10.9347 2.1287C10.94 2.12599 11.0255 2.09874 11.0383 2.06445L11.0277 2.07727C11.0159 2.08566 10.9657 2.08633 10.9335 2.08633Z" fill="#59595B"/>
<path d="M11.0488 1.31494C11.0392 1.30415 11.0274 1.29445 11.0168 1.2837C10.9878 1.25678 10.9633 1.24287 10.9537 1.2381C10.944 1.23314 10.9333 1.23923 10.9258 1.24863C10.9301 1.28423 10.9451 1.34261 10.9686 1.37287C10.9953 1.40776 11.0498 1.48081 11.0638 1.47682C11.0756 1.47317 11.0681 1.38156 11.0488 1.31494Z" fill="#CD8B2A"/>
<path d="M8.9117 1.20191C8.88813 1.21518 8.86888 1.25781 8.84215 1.27086C8.81542 1.28413 8.79298 1.29462 8.79621 1.32093L8.80256 1.33597C8.83151 1.32849 8.85925 1.30522 8.88275 1.27781C8.91377 1.25176 8.93192 1.22883 8.97681 1.24575C8.98756 1.23943 8.99497 1.23443 8.99395 1.2315C8.98542 1.20545 8.93519 1.18864 8.9117 1.20191Z" fill="#59595B"/>
<path d="M8.57675 1.2032C8.55648 1.20049 8.49122 1.27399 8.45919 1.27399C8.42716 1.27399 8.4025 1.23587 8.379 1.23771C8.36084 1.23933 8.30945 1.33451 8.29765 1.35064C8.28596 1.36647 8.25494 1.39861 8.2378 1.41094L8.23145 1.42312C8.25389 1.42688 8.28272 1.38955 8.3031 1.38647C8.33088 1.38252 8.35227 1.36004 8.36186 1.32301C8.37043 1.28568 8.40351 1.26692 8.42494 1.28245C8.44532 1.29711 8.46983 1.32403 8.55329 1.27188C8.56611 1.23857 8.60453 1.20587 8.57675 1.2032Z" fill="#59595B"/>
<path d="M8.88458 3.69807L8.8686 3.68359C8.88563 3.71769 8.85251 3.77397 8.84616 3.79803C8.8354 3.83683 8.77337 3.93487 8.75845 3.9766C8.74352 4.01724 8.70706 4.12295 8.69431 4.13333C8.66642 4.14649 8.62476 4.15416 8.59597 4.14649L8.59375 4.14517C8.60232 4.156 8.60984 4.16322 8.61514 4.16495C8.64398 4.17258 8.68458 4.16495 8.71247 4.15228C8.72522 4.14201 8.76164 4.0357 8.77661 3.99506C8.7927 3.95337 8.85473 3.85562 8.86431 3.81641C8.87172 3.79149 8.90815 3.73164 8.88458 3.69807Z" fill="#59595B"/>
<path d="M8.20557 1.91286C8.19271 1.9435 8.19271 1.98143 8.20129 2.01508C8.21738 1.95019 8.23982 1.9185 8.25903 1.90301C8.23659 1.84643 8.2205 1.87489 8.20557 1.91286Z" fill="#59595B"/>
<path d="M7.05955 2.91123L7.03711 2.90683C7.05839 2.92717 7.10015 2.93285 7.13327 2.90469C7.15467 2.88724 7.18034 2.8616 7.20177 2.84521C7.1932 2.83326 7.18463 2.8198 7.17715 2.80469C7.14079 2.86694 7.09369 2.90724 7.05955 2.91123Z" fill="#59595B"/>
<path d="M8.90531 1.30273C8.90426 1.34559 8.92464 1.36029 8.96306 1.38649L8.97591 1.40202L8.97813 1.39217C8.98768 1.35213 8.90855 1.32905 8.90531 1.30273Z" fill="#59595B"/>
<path d="M8.86668 1.42578L8.86886 1.43571C8.87209 1.47541 8.8154 1.4921 8.82179 1.51153C8.82397 1.5165 8.83036 1.52191 8.83995 1.52729L8.84852 1.51198C8.88277 1.47935 8.87315 1.44375 8.86668 1.42578Z" fill="#59595B"/>
<path d="M8.07276 1.57797C8.08558 1.55898 8.11558 1.48786 8.12622 1.47255C8.13156 1.46278 8.15724 1.4597 8.18073 1.45703L8.1893 1.4397C8.14866 1.43613 8.11024 1.43447 8.10483 1.45459C8.09949 1.47481 8.04502 1.58094 8.02577 1.58278L8.02148 1.58173V1.58237C8.0246 1.5859 8.05889 1.59665 8.07276 1.57797Z" fill="#59595B"/>
<path d="M8.35195 1.6095C8.3338 1.61322 8.3059 1.64924 8.28459 1.62383C8.26214 1.5986 8.22361 1.56894 8.2044 1.57067C8.18402 1.5724 8.14771 1.56717 8.14553 1.55078C8.14447 1.59774 8.1894 1.60435 8.21609 1.60435C8.24282 1.60435 8.27812 1.61781 8.28564 1.62608C8.29523 1.63657 8.31771 1.67078 8.3562 1.64864C8.36376 1.63003 8.36586 1.60706 8.35195 1.6095Z" fill="#59595B"/>
<path d="M7.92557 1.57574C7.95659 1.56096 7.99824 1.47927 7.99824 1.45758C7.99824 1.44187 7.99189 1.41995 7.98008 1.40442C7.97373 1.37747 7.98125 1.35596 7.98542 1.34796C7.99189 1.33672 7.99944 1.34006 8.01967 1.33976L8.02189 1.33326C8.02824 1.31378 8.00474 1.32653 7.99399 1.32457C7.98335 1.32232 7.96414 1.34822 7.96414 1.36123C7.96414 1.37439 7.95339 1.41724 7.96414 1.41954C7.97478 1.42164 7.977 1.45845 7.96843 1.4669C7.95986 1.47578 7.9491 1.52999 7.92456 1.54721C7.90106 1.5642 7.84113 1.58153 7.82617 1.56649C7.84433 1.58258 7.90207 1.58728 7.92557 1.57574Z" fill="#59595B"/>
<path d="M7.83935 1.4006C7.85221 1.39673 7.8639 1.38838 7.8736 1.37823C7.87037 1.35075 7.87037 1.305 7.87037 1.29492C7.78371 1.33173 7.63187 1.42049 7.5613 1.53263C7.54638 1.55628 7.56243 1.5774 7.59345 1.56714C7.60732 1.56225 7.6233 1.55883 7.63834 1.5568C7.7057 1.48774 7.80187 1.41237 7.83935 1.4006Z" fill="#59595B"/>
<path d="M7.69894 1.65069C7.71608 1.60941 7.70428 1.57949 7.69037 1.56836C7.69995 1.58825 7.63052 1.69313 7.64443 1.7099C7.64977 1.71795 7.66052 1.72317 7.67116 1.72765C7.6701 1.70328 7.6883 1.67926 7.69894 1.65069Z" fill="#59595B"/>
<path d="M10.965 1.4477C10.9243 1.40341 10.8805 1.38537 10.873 1.40341C10.8976 1.40781 10.9061 1.42597 10.92 1.44277C10.965 1.4848 11.01 1.53214 11.0196 1.54409C11.0323 1.55875 11.0559 1.53683 11.0559 1.53792C11.0506 1.54586 11.0077 1.49304 10.965 1.4477Z" fill="#59595B"/>
<path d="M9.18986 2.08594C9.20802 2.09977 9.2005 2.1409 9.18663 2.15191C9.1717 2.16496 9.09256 2.22936 9.02948 2.28432C8.96745 2.33849 8.94824 2.3418 8.91181 2.34801C8.7814 2.46594 8.59426 2.51143 8.53223 2.50379C8.54298 2.51143 8.56753 2.52511 8.59215 2.52285C8.64561 2.51827 8.74294 2.48349 8.78459 2.46432C8.83599 2.44158 8.91396 2.38082 8.93745 2.37379L8.97065 2.3644C8.99948 2.34556 9.03696 2.3091 9.06151 2.29056C9.0829 2.2741 9.15674 2.2168 9.19309 2.18793C9.21335 2.1718 9.2176 2.15729 9.21659 2.13853C9.21553 2.12316 9.19738 2.09034 9.18986 2.08594Z" fill="#59595B"/>
<path d="M8.43328 2.49227C8.43005 2.45953 8.35309 2.3675 8.32531 2.35547C8.30817 2.32855 8.29106 2.2675 8.28366 2.22047C8.27719 2.17427 8.24618 2.06539 8.23121 2.03366C8.21618 2.00197 8.21084 1.95667 8.22046 1.92257L8.21306 1.89648L8.20554 1.9134C8.18945 1.95186 8.19373 2.00201 8.20877 2.03991C8.22369 2.07788 8.27926 2.27096 8.30182 2.36276C8.39475 2.4231 8.42366 2.53524 8.42794 2.55303C8.43118 2.57066 8.44715 2.5963 8.46321 2.5963C8.47388 2.5963 8.48776 2.59066 8.50279 2.58284C8.44403 2.56923 8.43651 2.52013 8.43328 2.49227Z" fill="#59595B"/>
<path d="M11.142 1.57627C11.1238 1.58861 11.0875 1.53116 11.0757 1.50391L11.0693 1.52045C11.0896 1.56312 11.1185 1.59808 11.1313 1.5924C11.1473 1.58533 11.1506 1.57466 11.1538 1.56413V1.5621L11.142 1.57627Z" fill="#59595B"/>
<path d="M10.8578 2.78887C10.8514 2.63575 10.8161 2.64463 10.8032 2.64463C10.7904 2.64463 10.7904 2.65921 10.7712 2.67918C10.7509 2.69906 10.7691 2.81966 10.7722 2.84294L10.7754 2.85835C10.8044 2.84316 10.8311 2.82955 10.8589 2.81557L10.8578 2.78887Z" fill="#A7A9AC"/>
<path d="M10.6821 2.6328C10.6585 2.57505 10.6073 2.57877 10.5912 2.58607C10.5752 2.59291 10.6009 2.63468 10.6019 2.6531C10.604 2.67126 10.6222 2.69299 10.6222 2.73329C10.6222 2.80757 10.635 2.87133 10.6543 2.92573C10.6907 2.90543 10.7259 2.88596 10.7612 2.86738C10.7441 2.8125 10.7184 2.77757 10.7003 2.75317C10.7003 2.73855 10.7056 2.69129 10.6821 2.6328Z" fill="#A7A9AC"/>
<path d="M12.1456 16.259C12.0943 16.2844 12.0258 16.3086 11.9425 16.3313C11.8976 16.35 11.8473 16.3712 11.7842 16.3972L11.7768 16.3996C11.7522 16.4088 11.7148 16.4083 11.6238 16.399C11.579 16.4064 11.533 16.414 11.4838 16.4213C11.4614 16.4447 11.4304 16.4482 11.4196 16.4487L11.1833 16.4738C10.7674 16.519 10.5525 16.5337 10.5289 16.5337C10.5289 16.5337 10.5107 16.5327 10.4937 16.5244C10.4808 16.5208 10.469 16.5159 10.4562 16.5111C10.3546 16.5155 10.2509 16.5194 10.144 16.522L10.1429 16.5238C10.1108 16.5566 10.0616 16.5539 10.0456 16.5526C9.97719 16.5482 9.07468 16.5368 8.98592 16.5368C8.96776 16.5376 8.92389 16.5376 8.90362 16.5107L8.90039 16.5043C8.15723 16.4644 7.57768 16.3734 7.34776 16.2591C7.28468 16.2265 7.24513 16.1923 7.23874 16.1583C7.23768 16.1622 7.23445 16.1967 7.24832 16.2179C7.27934 16.265 7.36276 16.3114 7.48787 16.3557C7.48035 16.3646 7.47295 16.3751 7.46543 16.3911C7.45156 16.425 6.58005 18.8537 6.56719 18.8797C6.56084 18.8934 6.55761 18.9116 6.56084 18.9306C6.85268 19.035 7.29648 19.1226 7.83968 19.1842L8.31761 16.5411C8.31761 16.5411 8.88001 16.5867 9.09501 16.5893C9.30031 16.5991 9.51727 16.6048 9.74723 16.6048C11.1319 16.6048 12.1167 16.4096 12.2451 16.2178C12.259 16.1967 12.2557 16.1621 12.2547 16.1582C12.2482 16.1923 12.2086 16.2264 12.1456 16.259Z" fill="#FEEAA7"/>
</svg>
