<svg width="20" height="21" viewBox="0 0 20 21" fill="none" xmlns="http://www.w3.org/2000/svg">
<g clip-path="url(#clip0_3486_23319)">
<path d="M17.169 4.70412C17.2362 6.29832 15.135 10.464 14.2066 12.1193C13.4981 13.3775 13.1255 14.0433 12.8262 14.5564C12.8384 14.5686 12.8506 14.5869 12.8689 14.5991C14.7807 12.0399 18.7143 6.56707 18.6166 4.70412C18.5494 3.45808 17.5599 3.29927 16.8208 3.15879C16.0879 3.0183 14.8052 3.06717 13.4431 3.48251L13.8401 3.71462C16.1001 3.171 17.1201 3.56192 17.169 4.70412Z" fill="#002F87"/>
<path d="M13.113 3.55593C12.4656 3.71474 11.922 3.92852 11.4578 4.17895C9.55816 5.22953 9.16113 7.01308 9.16113 7.01308H11.0241C11.0241 7.01308 10.1079 6.06022 10.4866 5.63266C10.8042 5.2784 11.9647 5.99304 12.1663 6.09687C11.7876 5.11959 12.4045 4.10565 13.6383 3.71474L13.3573 3.52539C13.2779 3.54371 13.1924 3.53761 13.113 3.55593Z" fill="#34A348"/>
<path d="M10.2359 4.53251C10.6512 3.85452 11.2498 3.44528 12.221 3.50636C12.7951 3.54301 13.0639 3.73847 13.3021 3.9889C13.5648 4.2943 13.6136 4.70964 13.6258 5.2838C13.6625 6.91464 13.1433 9.8526 12.0622 12.9311C11.9583 13.2242 11.8728 13.4747 11.7873 13.6946C11.824 13.719 12.1966 14.0366 12.1966 14.0366C12.1966 14.0366 12.2882 13.9755 13.0089 12.7478C14.3038 10.6589 15.5865 6.85356 15.5315 5.28991C15.501 4.50197 14.9757 3.97668 14.2122 3.64074C13.2838 3.22539 10.4863 3.1582 9.89994 3.1582C9.61897 3.1582 9.0326 3.17653 9.00816 3.17653C9.00816 3.17653 9.93658 4.24543 9.45405 4.56305C8.97152 4.88067 7.8965 4.04998 7.8965 4.04998L7.87207 5.75412C9.30135 5.74801 9.83886 5.14942 10.2359 4.53251Z" fill="#F2BA1C"/>
<path d="M6.60184 4.4357C6.97443 3.61723 7.51193 3.31793 8.05555 3.23242C8.05555 3.23242 7.87231 3.25075 7.59134 3.27518C6.73621 3.34237 5.26418 3.5989 4.71445 4.64948C4.61062 4.83883 4.54343 5.04651 4.53121 5.29083C4.48235 6.68957 5.37412 9.70083 6.52854 11.9852C6.79118 12.5105 7.32258 12.7243 7.40199 12.7426C7.54858 12.7732 7.70128 12.8037 7.8662 12.8281C6.97443 10.4704 6.40027 7.0194 6.44303 5.29083C6.44914 4.96099 6.51022 4.67392 6.60184 4.4357Z" fill="#34A348"/>
<path d="M5.93594 12.235C4.6838 10.0728 2.86971 6.20637 2.93079 4.75877C2.99187 3.415 4.17683 3.38446 5.16022 3.45776C5.16022 3.45776 4.29899 2.99355 3.32782 3.12793C2.38107 3.2562 1.51984 3.50663 1.45265 4.75266C1.39157 5.89486 3.23619 9.07104 4.81817 11.2638C5.27628 11.8991 5.69162 12.1251 5.93594 12.235Z" fill="#002F87"/>
<path d="M6.99902 14.2695C7.6648 15.0269 8.26949 16.1569 10.3768 16.3524C11.7938 16.4806 12.9971 16.2852 14.2737 17.7389C12.9482 15.5644 11.354 15.2712 10.0958 15.2285C8.16566 15.1674 7.70145 14.7582 6.99902 14.2695Z" fill="#34A348"/>
<path d="M5.5752 12.3574C6.27151 13.0965 7.51144 14.5624 9.33774 14.7029C10.5838 14.8006 12.1535 14.7273 13.3935 16.0467C11.8787 13.7012 10.7609 13.4752 8.85521 13.3836C7.27934 13.2981 6.30205 12.8583 5.5752 12.3574Z" fill="#F2BA1C"/>
<path d="M11.7874 1.6865C11.2255 1.46661 10.0894 1.49104 10.0894 1.49104C10.0894 1.49104 8.94721 1.46661 8.39138 1.6865C7.82944 1.90639 7.74393 2.26676 7.70117 2.87146C7.70117 2.87146 7.85998 1.99801 10.0772 1.99801C12.2944 1.99801 12.4777 2.87146 12.4777 2.87146C12.441 2.26065 12.3494 1.90028 11.7874 1.6865Z" fill="#002F87"/>
<path d="M7.1145 18.6064C6.9618 18.1422 7.25498 17.4581 7.77416 16.7618C7.92686 16.5602 8.27502 16.1387 8.27502 16.1387C8.27502 16.1387 8.00627 15.8578 7.87189 15.7051C7.13893 16.2243 6.39986 16.8412 5.90511 17.4703C5.447 18.0628 5.18436 18.7347 5.37982 19.2172C5.80127 20.2556 9.58825 20.0235 9.58825 20.0235C9.58825 20.0235 7.48709 19.7486 7.1145 18.6064Z" fill="#002F87"/>
<path d="M12.9659 17.2988C13.0392 17.7142 13.0576 18.3189 12.9598 18.6059C12.63 19.5771 11.0725 19.9253 10.6082 20.0047C10.5899 20.0047 10.596 20.0291 10.6082 20.0352C11.2801 20.0658 14.3097 20.1452 14.6884 19.2229C14.719 19.1435 14.7373 19.0579 14.7495 18.9724C14.7617 18.5998 14.1937 17.7264 12.9659 17.2988Z" fill="#002F87"/>
</g>
<defs>
<clipPath id="clip0_3486_23319">
<rect width="20" height="20" fill="white" transform="translate(0 0.773438)"/>
</clipPath>
</defs>
</svg>
