<svg width="20" height="21" viewBox="0 0 20 21" fill="none" xmlns="http://www.w3.org/2000/svg">
<g clip-path="url(#clip0_3486_21252)">
<path d="M12.5766 12.0072C13.899 9.55331 14.6351 6.86088 13.1901 5.01367C13.2582 5.47718 13.2719 5.87252 13.2719 5.87252C14.9827 8.40136 11.7109 13.1932 11.7109 13.1932C12.0313 12.7842 12.3176 12.3889 12.5766 12.0072Z" fill="white"/>
<path d="M13.6326 10.0996C15.3026 6.30977 13.3464 4.46938 13.0328 4.20354C13.0669 4.36032 13.0942 4.50346 13.1214 4.6466C13.1419 4.7284 13.1555 4.81019 13.1691 4.89199C14.7096 6.7392 13.9598 9.38391 12.951 11.4152C12.9987 11.3334 13.0737 11.2175 13.0737 11.2175C16.2365 6.24161 12.8965 3.67188 12.8965 3.67188C12.9374 3.77412 12.9715 3.94453 13.0055 4.0604C13.3532 4.3944 15.4594 6.37794 13.6326 10.0996Z" fill="white"/>
<path d="M6.87802 5.01367C5.43297 6.86088 6.16913 9.54649 7.49148 12.0072C7.74369 12.3889 8.02997 12.7842 8.35715 13.2C8.35715 13.2 5.08534 8.40818 6.79622 5.87934C6.78941 5.87934 6.80304 5.47718 6.87802 5.01367Z" fill="white"/>
<path d="M7.10984 11.4152C6.10103 9.3771 5.35124 6.7392 6.89172 4.89199C6.90535 4.81019 6.91898 4.7284 6.93943 4.6466C6.9667 4.50346 6.99396 4.36032 7.02804 4.20354C6.70768 4.46938 4.75141 6.30977 6.42821 10.0996C4.60145 6.37794 6.71449 4.3944 7.06212 4.0604C7.0962 3.94453 7.13029 3.7673 7.17118 3.67188C7.17118 3.67188 3.83121 6.24161 6.99396 11.2175C6.99396 11.2175 7.06212 11.3334 7.10984 11.4152Z" fill="white"/>
<path d="M8.8142 13.443C7.49185 11.9093 7.41005 8.06495 7.41005 8.06495C7.78495 13.5793 9.65942 14.0565 10.0207 14.0565C10.3819 14.0565 12.2564 13.5793 12.6313 8.06495C12.6313 8.06495 12.5495 11.9093 11.2272 13.443C12.2632 12.3388 12.9926 9.85082 12.9926 6.96072C12.9926 4.75906 12.57 2.76871 11.9088 1.4668H11.2612C11.8747 2.57103 12.2837 4.42506 12.2837 6.49039C12.2837 8.19446 12.0383 9.73494 11.6293 10.846L11.752 10.6551C11.3703 12.0457 10.675 12.8295 10.0139 12.8295C9.35951 12.8227 8.66425 12.0457 8.27572 10.6551L8.39841 10.846C7.98943 9.73494 7.74405 8.19446 7.74405 6.49039C7.74405 4.42506 8.15303 2.57103 8.76649 1.4668H8.11894C7.45776 2.76871 7.03516 4.75224 7.03516 6.96072C7.04879 9.85082 7.77813 12.3388 8.8142 13.443Z" fill="white"/>
<path d="M10.014 12.7779H10.0208C10.6684 12.7711 11.3295 11.8781 11.5954 10.9375C11.2137 11.9327 10.6615 12.5461 10.014 12.553C9.36645 12.553 8.81433 11.9327 8.43262 10.9375C8.70527 11.8781 9.37326 12.7643 10.014 12.7779Z" fill="white"/>
<path d="M13.858 18.1895C12.9719 17.7124 12.3857 17.5829 11.6973 17.5352C12.6106 17.7396 14.1034 18.2236 14.7919 19.3347C14.4851 18.7485 14.2875 18.5031 13.858 18.1895Z" fill="white"/>
<path d="M8.69128 17.0254C7.49843 17.3321 6.2715 17.7547 4.92188 20.045C4.92188 20.045 5.26269 19.5951 5.93068 19.0975C6.80998 17.8024 8.01646 17.2503 8.69128 17.0254Z" fill="white"/>
<path d="M10.2722 16.4719C10.7152 16.3765 11.6082 16.0356 10.1768 14.8496C10.5653 15.2381 10.7357 15.5926 10.6948 15.8993C10.6607 16.1924 10.4426 16.3765 10.2722 16.4719Z" fill="white"/>
<path d="M14.8596 19.4786L14.8187 19.3968C14.1302 18.2926 12.5284 17.7609 11.6832 17.5701L11.3219 17.4746C11.281 17.4678 11.9013 17.5019 11.8604 17.4951C11.1992 17.3724 10.3063 17.2088 9.75419 16.8748C9.51562 16.7316 9.3793 16.5272 9.35885 16.275C9.35885 16.2477 9.35203 16.2204 9.35203 16.1863C9.35203 15.8387 9.55652 15.3957 9.97232 14.9322C9.97913 14.939 9.98595 14.9526 9.99276 14.9594C9.48836 15.5661 9.09983 16.4045 9.78828 16.8203C10.9061 17.4951 12.358 17.277 13.7553 18.0745C12.2762 16.9225 10.3063 17.1065 9.87689 16.2818C9.6315 15.8046 9.76783 15.3548 10.0132 14.9935C10.02 15.0071 10.0337 15.0276 10.0405 15.0344C10.2995 15.4502 10.429 15.9614 10.0882 16.4658C10.095 16.4726 10.1086 16.4794 10.1155 16.4931C10.3472 16.3908 11.1583 15.941 10.1564 14.9117L10.1155 14.8708C10.1155 14.8708 10.1155 14.8708 10.1086 14.864C10.1904 14.7617 10.2722 14.6731 10.354 14.5845C10.2654 14.6595 10.1768 14.7481 10.095 14.8435C10.0882 14.8367 10.0814 14.8299 10.0746 14.8231C10.2927 14.5982 10.5653 14.3732 10.8857 14.1551C10.5517 14.38 10.2722 14.5913 10.0337 14.789C9.80872 14.5777 9.51562 14.346 9.1271 14.0938C9.1271 14.0938 9.5906 14.4141 9.93142 14.8776C7.68205 16.8271 9.84962 17.5632 11.7036 17.9381C13.9121 18.388 15.0777 20.0035 15.0777 20.0035C14.9959 19.7581 14.9686 19.6831 14.8596 19.4786Z" fill="white"/>
<path d="M9.15521 16.9355C9.1484 16.9287 9.14158 16.9218 9.13477 16.9082C9.08024 16.9218 9.01889 16.9355 8.96436 16.9491C8.16685 17.1945 6.90584 17.8829 6.08789 18.9735C6.37417 18.7759 6.70817 18.5714 7.08988 18.3873C8.09188 17.249 8.93028 16.99 9.15521 16.9355Z" fill="white"/>
<path d="M7.23242 18.334C7.58005 18.1773 7.95495 18.0409 8.37756 17.9387C8.94331 17.8024 9.50224 17.7001 9.9862 17.4888C9.66583 17.3525 9.39318 17.1889 9.20914 16.998C9.07282 17.0185 8.24805 17.223 7.23242 18.334Z" fill="white"/>
<path d="M10.8448 16.8546C11.0834 16.5819 11.1652 16.2548 11.022 15.873C11.022 15.8867 11.0289 15.9071 11.0289 15.9208C11.0289 16.3775 10.4495 16.5138 10.1973 16.5547C10.3609 16.6774 10.5858 16.7728 10.8448 16.8546Z" fill="white"/>
</g>
<defs>
<clipPath id="clip0_3486_21252">
<rect width="20" height="20" fill="white" transform="translate(0 0.773438)"/>
</clipPath>
</defs>
</svg>
