<svg width="20" height="21" viewBox="0 0 20 21" fill="none" xmlns="http://www.w3.org/2000/svg">
<path fill-rule="evenodd" clip-rule="evenodd" d="M10.7656 1.24621L9.40579 1.72557H9.82646L8.62315 2.16581L9.25904 2.26364L8.05574 2.52778L8.62315 2.67452L7.75246 2.95823L8.35901 3.08541L7.54702 3.51586L8.05574 3.56478L7.29266 3.98544C7.22092 4.02784 7.1107 4.33372 7.24375 5.2181C7.06766 5.1007 6.54916 3.01693 7.83073 2.06798C9.1123 1.11903 10.0221 1.07012 10.7656 1.24621ZM11.1276 1.33424C11.0852 1.34076 11.0161 1.36359 11.0787 1.40272C11.0975 1.41446 11.1574 1.43577 11.24 1.46518L11.24 1.46519L11.24 1.46519C11.5018 1.55832 11.9916 1.7326 12.1255 1.94078C12.2624 2.08753 12.2233 2.21474 12.2037 2.26364C12.1842 2.31254 12.1646 2.42015 12.2037 2.46906C12.2429 2.51798 12.2624 2.65494 12.2331 2.70385C12.2037 2.75277 12.1352 2.87017 12.2037 2.92886C12.2242 2.94641 12.2455 2.96046 12.2652 2.97337C12.3111 3.00363 12.3475 3.0276 12.3407 3.07561C12.3329 3.13039 12.2983 3.13757 12.282 3.13431C12.3863 3.17018 12.6264 3.30453 12.7516 3.55497C12.8064 3.66454 12.8201 3.88107 12.8201 3.97564C12.8559 4.06369 12.9257 4.24565 12.9179 4.26913C12.9864 4.26913 13.0646 3.7702 13.0451 3.40823L13.0447 3.40192C13.0253 3.04184 13.0049 2.6641 12.8201 2.55711C12.7359 2.50841 12.6518 2.48375 12.5786 2.46228C12.49 2.4363 12.4173 2.415 12.3798 2.36145C12.3854 2.29471 12.4036 2.23428 12.4183 2.18558L12.4183 2.18558C12.4294 2.14862 12.4385 2.11841 12.4385 2.09731C12.4385 2.04839 12.1939 1.5299 11.1276 1.33424ZM10.5504 2.82125C10.4017 2.31254 10.5276 1.71577 10.6091 1.48098C9.46449 2.42015 8.7112 5.0322 8.7112 5.267C8.89708 5.22786 9.41558 4.84633 9.83624 4.51371C10.1812 4.24098 10.4143 4.25106 10.7027 4.26354C10.7661 4.26628 10.8321 4.26913 10.9026 4.26913C10.9163 3.89214 10.8292 3.64481 10.7118 3.3118C10.6617 3.16953 10.606 3.01161 10.5504 2.82125ZM11.8026 3.40823L12.0765 4.48436C11.9918 4.53327 11.8046 4.63306 11.7341 4.64088L11.7059 4.64427C11.6298 4.65376 11.5657 4.66175 11.5483 4.59197C11.5326 4.52936 11.5744 4.45501 11.5972 4.42566C11.4896 4.46479 11.2509 4.57632 11.1569 4.70937C11.1261 4.75311 11.0905 4.81174 11.0515 4.87583C10.9424 5.0554 10.8074 5.2778 10.6776 5.33548C10.5015 5.41374 10.1591 5.492 10.0613 5.45287C10.0143 5.40591 10.0939 5.342 10.1395 5.31591C10.133 5.2833 10.0965 5.22786 10.0026 5.267C9.88516 5.31591 9.66993 5.492 9.59167 5.62897C9.51341 5.76593 9.31775 6.03007 9.26883 6.03985C9.2297 6.04768 8.26118 5.62571 7.78182 5.41374C7.77204 5.38113 7.77204 5.31982 7.8503 5.33548L7.86001 5.33743C7.97799 5.36121 8.46694 5.45977 8.79925 5.36483C9.14165 5.267 10.2667 4.86589 10.4721 4.70937C10.6776 4.55284 11.7733 3.48649 11.8026 3.40823ZM12.6342 4.59197C12.6407 4.60501 12.6635 4.63893 12.7027 4.67023C12.7418 4.70154 12.7059 4.76154 12.6831 4.78763C12.6537 4.82024 12.5892 4.88742 12.5657 4.89524C12.5561 4.89844 12.5392 4.94758 12.5164 5.01401C12.4715 5.14445 12.4037 5.34155 12.3234 5.38835C12.4177 5.34059 12.4718 5.2623 12.4874 5.22786C12.5853 5.43983 12.7379 6.01442 12.5657 6.61705C12.3505 7.37034 11.7928 7.98666 11.0885 8.20189C10.9591 8.24143 10.8075 8.28031 10.6427 8.3226C9.91053 8.51047 8.91642 8.76555 8.43728 9.44433C8.31988 9.63021 8.26118 10.09 8.49598 10.6574V11.0585C8.40793 11.0357 8.23184 10.9431 8.23184 10.7552C8.23184 10.5674 8.28401 10.5139 8.3101 10.5107C8.27423 10.4389 8.20249 10.2622 8.20249 10.1291V9.27802C8.1764 9.24541 8.12422 9.13323 8.12422 8.9454C8.12422 8.77193 8.29509 8.48634 8.38436 8.33714C8.41592 8.28439 8.43728 8.24869 8.43728 8.24102C8.43728 8.2274 8.45414 8.19903 8.4722 8.16862C8.49307 8.13351 8.51554 8.09568 8.51554 8.07471C8.51554 8.04341 8.54163 8.17254 8.55467 8.24102C8.57098 7.97036 8.60946 7.41925 8.63294 7.38012C8.63554 7.37579 8.63898 7.36908 8.6434 7.36046C8.68892 7.27174 8.83823 6.98075 9.23948 6.99858L9.82646 7.20403L9.61124 7.08663C9.85907 7.01489 10.39 6.87532 10.5308 6.89097C10.6454 6.9037 10.8428 6.99925 10.9775 7.06446L10.9775 7.06446C11.0499 7.09949 11.1041 7.12576 11.1178 7.12576C11.1277 7.12576 11.1464 7.12827 11.1696 7.13138C11.238 7.14056 11.3454 7.15499 11.382 7.12576C11.3272 7.18837 11.2287 7.26925 11.1863 7.30186C11.5124 7.1812 12.1705 6.72857 12.1939 5.88332C11.8887 5.79723 11.7733 5.63223 11.7537 5.56049C11.7081 5.58005 11.607 5.61136 11.5678 5.58005C11.5189 5.54092 11.6265 5.41374 11.6657 5.37461C11.6657 5.3433 11.6852 5.26373 11.695 5.22786C11.77 5.11699 11.9298 4.89524 11.9689 4.89524C12.0276 4.85611 12.282 4.60175 12.3113 4.54306C12.4287 4.54306 12.5976 4.54306 12.6342 4.59197ZM7.52746 5.5507C7.5405 5.59636 7.56464 5.71897 7.55681 5.84419C7.60572 5.84419 7.66442 5.81484 7.69377 5.77571C7.72508 5.8305 7.75247 5.90941 7.76225 5.94202L7.62529 6.29421C7.59268 6.24856 7.52746 6.14942 7.52746 6.11812C7.45898 6.08877 7.38072 6.0105 7.36115 5.94202C7.34158 5.87354 7.41985 5.56049 7.52746 5.5507ZM7.69377 6.4116L7.80138 6.02029C8.04596 6.19638 8.3101 7.70296 8.00683 8.29972C8.13205 7.42317 7.8503 6.67575 7.69377 6.4116ZM8.49598 12.2618C8.43076 11.9162 8.43728 11.1231 8.98513 10.7161C9.12182 10.6146 9.30645 10.4904 9.5195 10.3472C10.3738 9.77273 11.685 8.89109 12.1939 7.92797C12.3348 8.47581 12.22 9.03018 12.145 9.23889C12.145 9.2878 12.1646 9.36411 12.2429 9.27802C12.3407 9.17041 12.5755 8.98453 12.5168 9.23889C12.4581 9.49324 12.1157 10.1389 11.9494 10.2857C11.9024 10.4031 12.0081 10.3607 12.0668 10.3248C12.1581 10.2987 12.3016 10.2935 12.145 10.4813C11.9494 10.7161 11.6461 11.0683 10.296 11.1759C9.04058 11.276 8.81726 11.6806 8.5561 12.1538C8.53643 12.1895 8.51654 12.2255 8.49598 12.2618ZM9.82646 12.4477C9.60732 12.0642 10.0156 11.6618 10.2471 11.5085C8.84816 11.9586 8.3688 13.1716 8.43728 13.2793C8.44625 13.2934 8.45673 13.3121 8.469 13.3342L8.46903 13.3342L8.46906 13.3343L8.46908 13.3343L8.46909 13.3343C8.55056 13.4805 8.71109 13.7684 9.03404 13.7684C9.01839 13.518 9.07969 13.4945 9.1123 13.514C9.12535 13.6217 9.16318 13.8467 9.21013 13.8858C9.25709 13.9249 9.69928 13.9021 9.91451 13.8858L9.82646 13.514L10.1493 13.7684C10.27 13.7064 10.5113 13.5317 10.5113 13.3282L10.4998 13.3167C10.3978 13.2151 10.0896 12.9081 9.82646 12.4477ZM8.63294 14.3065C9.12535 14.2706 10.4154 14.0443 11.6363 13.426C11.8222 13.3282 12.0863 13.5532 11.8907 13.7195C11.695 13.8858 10.3939 14.7663 8.43728 15.0402C8.16335 15.0793 8.15357 14.9195 8.18292 14.8348C8.19923 14.6587 8.31206 14.3065 8.63294 14.3065ZM11.9396 14.0423C11.8535 13.9562 11.7015 14.0065 11.6363 14.0423C11.2254 14.3652 9.82646 14.8934 9.6308 14.9521C9.54075 14.9792 9.25382 15.0435 8.95792 15.1098L8.95786 15.1098C8.61087 15.1876 8.25156 15.2682 8.18292 15.2946C8.05574 15.3435 7.91878 15.8033 7.909 15.9402C7.89921 16.0772 7.95791 16.2729 8.3101 16.1652C10.6165 15.4869 11.7518 14.5397 11.8871 14.4269L11.8907 14.4239C12.0081 14.326 12.0472 14.1499 11.9396 14.0423ZM7.66442 17.4272H8.2514C8.3101 17.2544 8.49011 16.9322 8.74055 17.0261C9.05361 17.1435 8.95578 17.4077 8.86773 17.574C8.77968 17.7403 7.61551 18.973 7.28289 19.1393C7.68986 19.1393 8.75686 19.1458 9.23948 19.149L9.32753 18.6403H8.46663C8.59054 18.5425 8.85403 18.3331 8.91664 18.2784C8.92219 18.2735 8.9303 18.2667 8.94058 18.2581C9.07525 18.1456 9.58258 17.7217 9.59167 17.2218C9.60145 16.6837 9.12209 16.4685 8.76012 16.5174L8.73816 16.5204C8.38161 16.5682 7.98075 16.622 7.66442 17.4272ZM12.2722 15.7935L11.1667 16.674C11.4896 16.5468 12.4776 16.674 12.507 17.4272C12.5363 18.1805 12.0961 18.8458 11.4798 19.0708C10.8635 19.2958 10.0026 19.2371 9.6308 18.6403C9.25905 18.0436 9.95364 17.0261 10.0515 16.899C10.1493 16.7718 11.0689 15.862 11.1961 15.7446C11.2978 15.6507 11.8124 15.0402 12.057 14.7467L12.2722 15.7935ZM7.09701 19.9806L11.3428 19.5697L12.7809 19.0708L13.1135 20.3817H6.91113L7.09701 19.9806ZM10.6477 18.4842C10.9986 18.6868 11.4583 18.5476 11.6744 18.1732C11.8906 17.7989 11.7813 17.3312 11.4303 17.1286C11.0794 16.926 10.6197 17.0652 10.4036 17.4395C10.1875 17.8138 10.2968 18.2815 10.6477 18.4842Z" fill="#00B0E7"/>
</svg>
