<svg width="536" height="500" viewBox="0 0 536 500" fill="none" xmlns="http://www.w3.org/2000/svg">
<path d="M135.261 86.7308C83.346 112.452 94.5057 121.674 91.5925 130.413C88.6801 139.153 82.37 143.998 82.37 143.998C64.8914 160.979 80.9094 167.293 80.9094 167.293C106.15 186.704 116.824 219.711 116.824 219.711C164.877 323.067 232.809 373.539 232.809 373.539C189.615 331.312 129.929 223.098 130.896 223.59C131.865 224.07 113.92 183.3 95.4652 168.74C77.028 154.183 87.2274 159.041 94.5066 148.84C101.785 138.663 97.4015 127.015 97.4015 127.015C94.0221 104.208 130.897 96.9302 151.764 86.2454C172.63 75.5615 179.433 78.9671 179.433 78.9671C177.974 88.1905 162.932 89.6432 176.521 130.411C190.1 171.172 186.703 193.496 186.703 193.496C193.505 247.849 233.787 355.09 233.787 355.09C253.677 406.055 275.511 398.777 275.511 398.777C300.752 395.859 331.81 290.07 331.81 290.07C357.534 212.421 356.557 202.222 354.136 189.126C351.698 176.017 358.017 156.119 358.017 156.119C380.829 95.9577 354.136 77.0221 354.136 77.0221C357.04 81.876 370.154 108.08 355.104 136.23C340.063 164.37 342 192.532 341.516 203.198C341.032 213.877 332.777 259.008 332.777 259.008C304.148 379.85 281.831 387.609 281.831 387.609C245.431 411.877 198.848 203.682 195.451 181.848C192.045 160.005 177.973 124.582 177.973 124.582C168.274 94.4972 181.854 78.4791 181.854 78.4791C181.854 78.4791 183.628 72.6797 175.211 72.6797C169.009 72.6806 157.285 75.8313 135.261 86.7308Z" fill="white"/>
<path d="M367.232 85.2736C391.01 85.2736 454.095 95.9584 446.824 124.098C439.547 152.247 458.477 141.079 451.684 153.708C444.88 166.32 433.236 169.229 416.734 207.08C400.234 244.932 345.397 341.508 318.22 369.171C291.044 396.823 297.838 398.778 297.838 398.778C298.321 404.599 320.165 398.778 320.165 398.778C325.016 396.348 326.96 398.778 326.96 398.778C367.232 438.565 339.58 446.332 339.58 446.332C225.531 475.943 195.925 441.963 195.925 441.963C200.29 472.062 309.965 473.997 341.515 459.432C373.057 444.885 360.93 428.37 349.278 400.704C343.982 388.134 327.21 391.315 314.788 394.502C299.891 398.329 291.196 402.147 315.791 378.878C360.93 336.172 417.22 239.109 425.466 213.868C433.721 188.651 451.684 173.116 451.684 173.116C474 147.876 452.642 145.447 456.039 136.707C459.436 127.977 459.92 119.247 459.92 119.247C456.944 89.0232 414.647 84.2539 388.24 84.2539C376.041 84.2565 367.232 85.2736 367.232 85.2736Z" fill="white"/>
<path d="M219.992 73.4557C219.992 73.4557 280.063 88.4933 353.364 60.625C426.668 32.7715 335.977 38.0777 335.977 38.0777L268.735 46.9152C268.735 46.9152 354.496 36.742 366.202 45.15C366.202 45.15 382.461 59.3024 268.735 73.4557C268.735 73.4557 238.887 75.2305 219.992 73.4557Z" fill="#089748"/>
<path d="M250.978 32.3231C250.978 32.3231 142.164 26.5787 162.95 51.3391C183.727 76.1135 306.138 64.1698 318.606 57.5366C318.606 57.5366 213.575 74.7821 176.547 49.1295C176.547 49.1295 155.771 34.538 250.978 32.3231Z" fill="#E3313D"/>
<path d="M229.189 392.795C228.669 390.567 211.72 366.099 209.308 324.226C208.18 303.638 211.774 279.414 221.552 256.477C230.847 233.459 247.07 211.651 264.487 194.441C282.351 176.681 301.89 163.071 318.258 150.817C326.46 144.723 334.078 138.749 340.684 133.187C346.186 128.415 351.547 122.512 355.507 117.251C364.032 106.539 365.43 97.4463 364.903 98.4721C365.297 99.758 365.601 99.8209 365.43 99.6105C366.658 98.9024 367.635 97.2882 369.374 97.764C370.997 98.2704 372.422 101.125 372.763 104.849C369.312 114.01 361.308 124.326 352.614 132.802C344.448 140.783 332.679 148.917 321.762 156.765C299.479 172.357 274.302 189.375 254.17 212.562C233.438 235.587 217.841 264.96 212.822 297.368C207.578 329.685 213.96 364.033 229.189 392.795Z" fill="#E3313D"/>
<path d="M223.399 344.924C223.282 343.162 217.357 321.883 222.825 291.623C225.55 276.654 231.178 259.804 240.358 243.723C249.634 227.612 261.896 212.46 275.682 199.342C303.494 173.259 334.847 154.727 352.389 137.814C370.27 120.447 374.843 106.084 374.591 106.569C374.816 113.111 373.015 120.869 370.369 128.367C343.363 160.962 299.426 178.61 267.489 213.083C234.835 245.915 214.041 295.8 223.399 344.924Z" fill="#E3313D"/>
<path d="M231.627 308.097C231.815 306.708 232.155 290.766 240.016 269.527C247.778 248.307 264.736 223.425 286.42 203.974C307.976 184.353 332.175 168.87 348.543 155.295C365.304 142.24 373.049 130.302 373.166 130.467C370.897 136.643 368.092 142.792 364.757 148.788C337.338 172.898 305.555 189.306 279.983 214.35C254.348 238.744 235.006 271.593 231.627 308.097Z" fill="#E3313D"/>
<path d="M244.013 288.43C244.344 287.421 246.468 275.819 254.052 260.656C261.34 245.437 274.74 227.264 291.242 212.13C307.581 196.875 326.387 184.016 340.135 173.543C353.976 163.163 362.768 155.526 362.857 155.379C359.567 160.3 356.808 164.512 353.5 169.092C330.025 186.661 305.959 201.136 286.383 220.178C266.717 239.132 251.085 262.096 244.013 288.43Z" fill="#E3313D"/>
<path d="M256.58 275.453C256.67 273.777 269.658 242.539 295.867 219.101C321.07 196.106 352.684 175.382 352.208 174.732L344.403 185.313C325.391 198.669 307.348 210.818 292.209 225.348C276.899 240.105 264.602 256.508 256.58 275.453Z" fill="#E3313D"/>
<path d="M266.287 269.186C266.619 267.863 277.779 245.111 297.578 226.449C316.409 208.101 340.897 191.774 340.718 191.484C338.675 194.227 336.586 196.988 334.605 199.694C305.232 219.731 280.718 241.171 266.287 269.186Z" fill="#E3313D"/>
<path d="M311.148 392.796C311.677 390.568 328.627 366.1 331.029 324.227C332.158 303.639 328.573 279.415 318.785 256.477C309.509 233.469 293.275 211.652 275.86 194.442C257.996 176.681 238.447 163.071 222.09 150.818C213.888 144.723 206.26 138.749 199.664 133.187C194.16 128.415 188.801 122.513 184.848 117.251C176.315 106.539 174.908 97.4468 175.445 98.4726C175.06 99.7586 174.746 99.8214 174.907 99.611C173.697 98.903 172.703 97.2801 170.972 97.7646C169.349 98.271 167.925 101.126 167.585 104.85C171.044 114.01 179.04 124.327 187.734 132.811C195.899 140.784 207.668 148.927 218.577 156.765C240.868 172.357 266.047 189.374 286.179 212.561C306.901 235.597 322.506 264.96 327.517 297.368C332.768 329.686 326.377 364.034 311.148 392.796Z" fill="#089748"/>
<path d="M316.948 344.924C317.065 343.162 322.98 321.883 317.512 291.623C314.796 276.654 309.159 259.804 299.98 243.723C290.712 227.612 278.45 212.468 264.673 199.342C236.842 173.259 205.489 154.727 187.948 137.822C170.075 120.448 165.504 106.085 165.746 106.569C165.53 113.111 167.324 120.869 169.977 128.367C196.983 160.962 240.93 178.61 272.857 213.083C305.51 245.915 326.304 295.8 316.948 344.924Z" fill="#089748"/>
<path d="M308.72 308.097C308.513 306.717 308.19 290.775 300.33 269.527C292.567 248.307 275.6 223.425 253.927 203.974C232.369 184.363 208.169 168.878 191.802 155.295C175.033 142.24 167.297 130.302 167.181 130.467C169.448 136.652 172.254 142.792 175.589 148.796C202.998 172.898 234.79 189.319 260.354 214.35C285.988 238.744 305.34 271.593 308.72 308.097Z" fill="#089748"/>
<path d="M296.324 288.43C296.001 287.421 293.876 275.819 286.294 260.666C279.006 245.438 265.606 227.264 249.105 212.13C232.765 196.875 213.959 184.016 200.21 173.543C186.38 163.173 177.577 155.526 177.488 155.379C180.778 160.3 183.53 164.512 186.846 169.092C210.312 186.661 234.378 201.136 253.963 220.187C273.629 239.132 289.26 262.105 296.324 288.43Z" fill="#089748"/>
<path d="M283.765 275.453C283.667 273.777 270.68 242.549 244.48 219.101C219.275 196.106 187.661 175.382 188.136 174.732L195.952 185.313C214.955 198.669 232.998 210.818 248.127 225.348C263.437 240.105 275.744 256.508 283.765 275.453Z" fill="#089748"/>
<path d="M274.059 269.188C273.718 267.865 262.568 245.113 242.759 226.451C223.935 208.103 199.449 191.776 199.619 191.494C201.671 194.228 203.751 196.989 205.741 199.7C235.104 219.733 259.619 241.177 274.059 269.188Z" fill="#089748"/>
</svg>
