<?xml version="1.0" standalone="no"?><!DOCTYPE svg PUBLIC "-//W3C//DTD SVG 1.1//EN" "http://www.w3.org/Graphics/SVG/1.1/DTD/svg11.dtd"><svg t="1731575964632" class="icon" viewBox="0 0 1029 1024" version="1.1" xmlns="http://www.w3.org/2000/svg" p-id="4321" width="150.732421875" height="150" xmlns:xlink="http://www.w3.org/1999/xlink"><path d="M333.2568 977.92a189.44 46.08 0 1 0 378.88 0 189.44 46.08 0 1 0-378.88 0Z" fill="#000000" opacity=".101" p-id="4322"></path><path d="M351.8808 324.896c23.36 111.84 36.336 171.36 38.96 178.528 2.624 7.168 14.912 33.312 36.88 78.416 9.92 106.656 13.376 164.752 10.4 174.304-4.496 14.32-12.08 59.616-20.112 73.28-4.64 14.16-23.744 56.032-57.328 125.6 29.44 34.448 84.08 50.544 163.904 48.288 79.84-2.24 134.08-14.72 162.736-37.392l-64.352-128.4-23.568-39.104-7.328-85.28c20.592-26.496 30.896-52.048 30.896-76.64 0-36.912 0.32-118.176 12.128-142.24 11.792-24.096 20.272-51.52 26.432-65.248 6.16-13.744 7.52-27.072 7.52-40.032 0-12.96 10.4-40.272 18.272-64.08 5.248-15.888 8.736-37.216 10.464-64 19.136-38.24 19.136-68.288 0-90.16-4.544 2.128-8.032 3.824-10.464 5.056C658.3448 72.256 597.9448 20.48 506.1048 20.48 368.3448 20.48 327.8168 159.008 336.1368 216.8c-9.776-2.432-12.992 11.072-12.992 18.192 0 7.12-1.344 19.536 4.32 30.384 2.656 5.056 1.728 19.76 8.672 37.28 1.968 4.944 7.2 12.352 15.728 22.24z" fill="#FFD500" p-id="4323"></path><path d="M336.4248 195.824a175.44 175.344 0 1 0 350.88 0 175.44 175.344 0 1 0-350.88 0Z" fill="#FFD500" p-id="4324"></path><path d="M331.1448 174.88c77.408 110.24 190.56 137.776 339.472 82.672-24.752 96.336-150.528 141.072-223.68 119.888-81.424-22.992-120-90.512-115.776-202.56z" fill="#E78000" opacity=".308" p-id="4325"></path><path d="M345.4168 174.88c4.048-1.76 9.488-2.624 16.288-2.624 6.816 0 11.52-1.52 14.112-4.576 5.28 11.248 8.848 18.912 10.72 22.96 2.784 6.096 1.12 24.208 6.144 28.272 5.008 4.08 5.76 12.832 5.76 20.768 0 7.92-0.704 17.392 5.872 21.2 6.592 3.84 9.184 7.856 9.184 12.976 0 5.12 5.712 5.04 8.416 8.128 2.72 3.088 2.24 9.92 4.88 9.92 2.624 0 12.768-0.272 12.768-4.064s7.712-1.008 7.712-13.984c0-12.96-3.952-14.08 0-16.576 3.968-2.496 6.864-7.728 6.864-17.6 0-9.888 0.592-14.816 2.96-14.816 2.352 0 7.04-15.68 4.704-20.688-2.352-4.976-7.072-7.456-4.704-13.536 2.352-6.064-2.96-8.4-2.96-12.08v-8.912c0-1.968 11.68-8 11.68-14.624 0-6.624 5.84-2.112 10.832-5.6 4.992-3.488 1.6-4.224 7.072-9.488 5.488-5.28 15.984-19.504 12.048-19.504s-9.2 4.16-12.048 4.16c-2.864 0-5.28 7.136-9.376 3.568-4.08-3.568-3.92-4.912-3.92-7.728 0-2.8-0.608-11.776-4.624-7.296-2.848-8.48-5.76-12.32-8.704-12.32-2.96 0 1.024-8.88-2.96-8.88-4 0-2.96-0.336 0-6.176 2.96-5.824 0.32-16 2.96-10.912 2.624 5.088 0.688 17.088 4.704 17.088 4 0 8.64 3.968 8.64 8.864 0 4.912 6.88 12.336 10.08 12.336s7.52-6.288 12.416-6.288c4.912 0 15.68-1.568 15.68-6.048s-4.192-2.88-4.192-5.872 8.352-9.168 2.176-9.168h-13.664c-1.888-7.28-1.888-10.912 0-10.912 2.832 0 7.28 5.568 11.488 5.568 4.208 0 9.088 11.52 16.96 11.52 7.872 0 6.432 8.624 7.152 14.912 0.72 6.288 5.664 9.584 10.272 6.288 4.608-3.296 9.36-1.04 9.36 3.136 0 4.16-5.12 8.288 0 11.888 5.12 3.6 6.08 11.536 6.08 16.4 0 4.864 5.84 13.984 8.512 8.352 2.672-5.616 3.744-9.28 3.744-12.976 0-3.712-0.176-8.208 3.952-11.776 4.128-3.568 10.832-6.144 10.832-11.888 0-5.76 4.144-13.104 7.824-9.424 3.68 3.68 4.304 16.912 6.512 21.312 2.208 4.4 9.6 5.536 9.6 5.536s6.688 18.08 6.688 21.328c0 3.248 8.272 10.384 8.272 10.384s3.12-1.488 3.12-6.992-7.424-15.28-7.424-21.104 1.488-2.24 1.488-5.824c0-3.568 5.92 1.424 5.92-6.896l6.112-0.752c3.2-2.96 4-5.488 2.4-7.568-2.4-3.136-11.616-4.048-11.616-6.72 0-2.704-12.24-11.632-8.272-14.624 3.968-2.992 11.088-3.648 8.272 0-1.888 2.416-1.888 4.384 0 5.872 0.56 5.44 1.6 7.456 3.12 6.048 2.272-2.112 6.08-0.16 6.08-6.048 0-5.872 2.608-10.656 4.672-12.848 2.08-2.192 2.88 6.976 2.88 6.976s5.088 7.888 5.088 14.608c0 6.72-3.184 6.752 2.4 10.896 5.584 4.16 6.528 4.4 6.528 7.728 0 3.328 2.704 11.536 2.704 16.4 0 4.864 2.688 6.24 0 8.352-1.808 1.408-7.376 4.128-16.736 8.128-1.92 3.28-2.864 7.024-2.864 11.216 0 6.304-4.928 2.464 0 10.432 4.944 7.952 10.368 10.224 10.368 7.952 0-2.256-4.8-8.4-2.4-12.08 2.4-3.68 6.24-3.696 8.928-6.304 2.704-2.608-5.84 15.408-2.912 18.4 2.912 2.976 3.52 3.584 5.6 0 2.096-3.6 6.88-3.76 6.88-3.76s2.448-2.032 2.448-8.336-2.944-6.928 0-8.912c2.944-1.968 6.48 5.216 8.432 5.216s4.752-7.808 4.752-13.824-13.376-57.584-25.2-69.104c-11.808-11.52-15.456-9.552-21.552-21.056-6.096-11.504-24-7.28-33.76-11.84-9.776-4.56-16.88-9.984-29.12-16.88-12.256-6.88-19.04-10.256-23.36-8.576-4.352 1.68-28.208-14.992-32.384-8.928-4.16 6.064-12.192 14-15.008 11.472-2.832-2.544-9.088 5.6-15.248 2.8-6.176-2.8-10.08-5.6-10.08-2.8s-4.64 6.032-4.64 6.032-1.6 12.352 4.64 10.016c6.208-2.336 16.48 4.128 13.28 6.864-3.2 2.72-8.672 9.104-13.28 7.008-4.64-2.08-9.824-5.76-19.28-3.92-9.456 1.84-13.84 3.088-13.84 0s-10.528 0.4-10.528-3.088 0.128 7.008-11.168 7.008c-11.312 0-15.744-2.848-11.312-7.008 4.448-4.16 17.6-5.92 17.6-10.016 0-4.112-17.728 5.68-23.488 5.68-5.76 0-20.832 9.216-24.96 20.144-1.712 4.576-17.328 20.368-24.288 45.6C346.4408 130.32 345.1768 148.48 345.4168 174.848z" fill="#F9A700" p-id="4326"></path><path d="M529.8488 188.224c1.2-14.656 4.16-19.552 8.864-14.656 0.416 13.28 3.04 22.816 7.104 29.6 4.032 6.784 6.944 12.272 6.944 20.992s5.872 32.352 9.488 43.872c3.632 11.536 8.048 30.56 20.64 30.56s30.56-7.536 42.192-7.536c11.632 0 35.184-22.784 37.968-30.416 2.768-7.648 15.392-82.88 18.928-82.88 3.52 0 10.144-8.384 16.064-4.192 5.92 4.176 13.28 27.152 9.6 50.592-2.448 15.632-6.208 27.488-11.28 35.552-2.016 13.44-3.04 23.888-3.04 31.344 0 11.184-20.8 70.08-20.8 74.88 0 4.768-4.736 12.688-4.736 29.92 0 17.264-14.944 47.328-22.368 50.24a122.24 122.24 0 0 1-20.32-14.992c-4.896 8.72-11.84 12.384-20.896 11.008-13.568-2.08-21.312-11.28-21.312-24.752v-21.488h-10.368c-2.704-13.6-5.088-21.488-7.152-23.648-3.12-3.248-3.12-31.808-3.12-36.256s-7.44-15.424-7.44-18.112c0-1.792 0.944-4.768 2.816-8.96l-13.92-21.76c0-19.344-1.68-35.104-4.992-47.296-4.96-18.256-1.04-21.712-4.96-29.184-2.608-4.992-3.904-12.48-3.904-22.432z" fill="#FFF046" p-id="4327"></path><path d="M579.5288 298.736V304h-7.616l7.616 26.224c0 12.656-1.28 21.216-3.808 25.632-2.544 4.432-3.808 8.144-3.808 11.12 11.36 1.76 18.4 3.984 21.056 6.656 4 4.016 27.344 17.04 41.696 10.528 1.888-3.568 4.08-8.032 6.56-13.424l3.648 15.568h7.52c1.072-10.496 3.472-19.664 7.2-27.488 3.744-7.824 5.072-15.264 3.952-22.32 3.632-4.8 7.136-10.432 10.496-16.928a57.888 57.888 0 0 0 6.432-26.48c0-4.8 3.52-20.384 10.528-46.768 9.344-10.352 14.016-19.344 14.016-26.976 0-11.456 2.016-49.936-11.264-47.488-13.28 2.464-15.312 27.824-17.52 37.648-2.192 9.84-16.64 50.32-16.64 55.456 0 5.12-19.12 19.2-24.928 23.664-5.824 4.464-21.232-0.8-38.208 4.464-11.328 3.504-16.96 5.392-16.928 5.664z" fill="#FFA800" p-id="4328"></path><path d="M617.4808 296.544c12.352-7.536 20.896-7.536 25.616 0 4.72 7.52 8.064 16.752 10.032 27.648h7.12c5.808-17.888 10.048-30.288 12.704-37.2 3.968-10.368 10.56-26.464 10.56-41.824s6.256-24.672 10.832-24.672c3.056 0 1.6-12.96-4.352-38.832l-3.2-3.376c2.816-5.968 6.576-7.856 11.28-5.696 7.04 3.264 7.04 34.688 7.04 44.912 0 10.24-6.496 22.992-14.048 29.376-2.8 11.92-10.08 37.84-10.08 42.272 0 4.416-1.328 30.848-17.264 47.52-1.44 14.704-2.752 17.44-8.464 36.096-1.6 5.76-2.32 10.24-2.128 13.52h-8l-3.728-17.152-6.448 15.024h-7.216c14.064-25.072 21.104-41.344 21.104-48.8 0-5.136-0.08-17.248-10.048-27.632-2.976-3.104-10.08-6.832-21.312-11.2z" fill="#F58900" p-id="4329"></path><path d="M606.9688 295.088c2.016 7.776 10.08 11.648 24.16 11.648 8.032 2.288 9.04 6.72 3.056 13.328-1.456 14.256 4.656 19.552 18.352 15.84-3.2-14.944-2.624-25.664-13.68-34.032-7.36-5.584-18-7.84-31.888-6.784z" fill="#FFF046" p-id="4330"></path><path d="M326.5368 224.608c18.32 63.04 48.992 94.576 92 94.576 42.992 0 77.008-18.56 102.048-55.68 12.96 38.976 18.48 75.104 16.608 108.416 2.288 34.784 0.64 63.04-4.928 84.72 9.952-12.544 14.928-38.192 14.928-76.912 1.056-18.416-2.976-27.68-2.976-44.112 0-16.432-7.36-38.624-9.648-51.408-2.304-12.784-2.24-27.072-4.224-35.408-2-8.32-14.672-22.352-14.672-34.864-1.728 23.984-0.4 32.4-5.712 40.992-5.312 8.576-18.176 49.248-89.216 54.016-43.264-1.52-74.672-29.632-94.224-84.336z" fill="#FD9300" p-id="4331"></path><path d="M338.1208 225.728c-0.976-7.36-3.264-9.808-6.848-7.36-5.392 3.68 8.048 39.328 16.128 50.896 8.064 11.568 33.36 43.168 88.288 43.168 20.272-0.864 38.816-10.224 55.6-28.08-22.544 15.664-48.16 21.248-76.832 16.752-28.672-4.48-54.128-29.6-76.336-75.376z" fill="#FFEF4E" p-id="4332"></path><path d="M566.4248 421.472c3.952 43.728 2.624 76.736-4 99.008-9.92 33.44-35.248 89.6-40.96 99.12-5.696 9.536-30.192 84.96-43.904 97.6 0.048-25.856 1.28-52 3.76-78.416-32.512-30.656-50.192-49.904-53.072-57.728 3.216 46.4 6.848 103.792 10.896 172.16-9.28 34.784-18.848 64.96-28.672 90.496-14.72 38.304-38.288 86.528-49.792 111.312 17.28 18.752 47.2 41.872 116.88 46.816 1.504-37.376 10.032-50.528 10.032-64.064 0-13.536-0.56-9.072 8.384-15.472 5.968-4.256 18.704-8.08 38.208-11.472l17.04-61.456v-12.608l11.2-20.96c-10.176-22.4-15.264-35.136-15.264-38.208 9.872-10.752 17.424-18.88 22.672-24.4-12.4 1.12-18.608-1.696-18.608-8.48 9.84-5.008 19.92-13.072 30.24-24.192l-3.04-3.328 22.048-29.68c-4.032-6.912-6.048-12.048-6.048-15.408 0-5.056 5.312-3.008 13.392-12.112 5.392-6.08 10.96-30 16.688-71.776-7.792 41.888-15.808 62.832-24.032 62.832-8.24 0-10.24-33.312-6.048-99.936 1.184-13.68-2.448-21.088-10.88-22.24-4.896-0.96-2.224-6.864 8.032-17.696 3.28-8.048 0.592-16.704-8.032-25.968 5.28-10.384 5.056-18.016 5.056-24.8 3.04-4.96 5.072-15.616 0-22.128-3.36-4.32-10.768-9.936-22.176-16.816z" fill="#FD9300" p-id="4333"></path><path d="M347.5608 305.392c27.552 54.128 51.728 91.072 72.528 110.848 31.2 29.68 31.68 38.736 38.112 49.168 6.416 10.432 21.424 33.216 27.6 44.032 4.128 7.2 12.128 14.24 24 21.072-11.872-14.8-17.808-23.728-17.808-26.768 0-4.576 2.432-15.136-6.192-23.168-0.832-17.728-11.808-38.464-11.808-49.008 0-10.544-1.376-25.792 11.808-25.792s32.192 47.76 37.728 67.424c3.68 13.104 5.52 29.968 5.52 50.608 8.896-10.48 10.192-24.88 3.904-43.232-9.44-27.504-3.904-37.264-3.904-45.68 0-8.432-2.512 0.816-9.28-18.656-4.528-12.96-3.264-32.368 3.76-58.192-35.12 6-51.616 8.992-49.536 8.992 3.152 0-7.952 4.24-11.872-8.992-2.624-8.832-8.16-10.32-16.624-4.448-13.28-9.6-26.368-12.88-39.28-9.872-19.36 4.512-22.08-5.696-26.688-11.296-4.64-5.6-18.4-3.76-18.4-9.872 0-4.096-4.528-9.808-13.568-17.168z" fill="#EA8500" p-id="4334"></path><path d="M417.6728 338.144c11.104 2.464 18.816 4.704 23.168 6.752 6.512 3.072 8.448-1.792 27.136 10 18.704 11.776 17.36-11.792 23.488-16.752 4.08-3.296 9.872-8.352 17.344-15.152-14.832 4.88-24.864 12.176-30.096 21.904-4.304 5.712-26.64 3.936-15.472-6.752a169.072 169.072 0 0 1 27.04-20.64l13.76-15.632c-16.192 4.016-28.208 9.232-36.064 15.632-11.76 9.616-12.992 3.968-18 15.68-5.216 5.488-15.984 7.136-32.32 4.96z" fill="#EA8500" p-id="4335"></path><path d="M389.6248 396.848c21.536 70.144 49.6 114.704 84.128 133.664-1.824-13.328-11.52-15.44-17.376-29.84-5.856-14.4 4.992-12.432-12.64-31.52-17.664-19.072-17.248-28.16-26.72-39.536-6.32-7.6-15.44-18.512-27.392-32.768z" fill="#FFAB00" p-id="4336"></path><path d="M501.8008 741.552c46.784-49.568 73.28-77.6 79.488-84.096 6.192-6.496 6.192-20.672 0-42.528-6.736 15.056-15.568 31.296-26.496 48.704-10.928 17.392-28.592 43.36-52.992 77.92zM452.7288 808.384c42.432-16.8 71.088-34.512 85.952-53.12 14.864-18.592 34.128-41.216 57.76-67.84l-9.136-9.184c-28.112 32.064-50.048 55.728-65.84 70.992-15.776 15.264-38.688 34.976-68.736 59.152zM473.7528 829.488c32.432-7.744 51.248-16.64 56.448-26.688 5.2-10.048 15.408-23.088 30.624-39.088 2.144-6.08-1.76-6.08-11.76 0-9.984 6.08-21.76 16.288-35.36 30.608h16.48c-12.288 5.584-21.856 10.512-28.704 14.784-6.864 4.272-16.096 11.072-27.728 20.384z" fill="#FFDA48" p-id="4337"></path><path d="M372.0888 417.952c36.016 72.448 58.288 111.632 66.8 117.52 8.512 5.904 38.832 23.232 90.96 52.016l-52.608 129.44 3.744-78.448c-37.104-35.92-55.648-56.736-55.648-62.464 0-5.712-12.48-31.328-37.44-76.848l-15.808-81.216z" fill="#FFAB00" p-id="4338"></path><path d="M416.2168 830.352c22.832 11.552 54.544 17.328 95.12 17.328 40.576 0 76.432-7.232 107.584-21.712l12.592 27.472c-24.88 16.864-64.288 25.28-118.224 25.28-53.92 0-90.48-6.032-109.648-18.128l12.576-30.24z" fill="#007F00" p-id="4339"></path><path d="M529.8488 878.72v24.64h8.48v-6.624h13.472v-7.584h-12.16v-4.688h18.24v-5.728zM567.6408 877.264l4.272 24.832 7.808-1.44-4.352-24.72zM587.3048 874.752l8.896 23.168 7.088-1.648-3.36-7.264 12.304-3.744-2.272-5.664-12.608 4.032-1.152-4.896 16.032-5.28-2.272-5.664zM630.1688 858.768l15.36 22.976-5.504 1.072-3.584-4.592-8.704 1.728v7.568l-6.752 1.488v-24.72l9.184-5.52z m-2.016 7.04v8.752l6.72-1.6-6.72-7.136zM490.5048 914.64l11.68 21.312 8.704-15.712 9.552 14.112 11.968-23.392-9.216 0.8-3.84 10.032-8.096-11.36-8.336 13.088-5.6-9.472zM538.7448 911.584c8.32-3.296 13.248-1.216 14.832 6.24 1.6 7.44 0.288 12.688-3.872 15.744-7.52 3.328-12.592 1.408-15.248-5.76-2.64-7.152-1.216-12.576 4.288-16.224z m3.984 5.76c-2.208 0.464-4.256 1.84-3.296 6.304 0.944 4.464 2.72 5.024 5.584 4.416 2.848-0.608 3.728-3.712 3.184-6.288-0.56-2.56-3.264-4.912-5.472-4.432zM556.8728 908.688c5.952-5.12 13.92-5.968 23.904-2.512 2.08 7.504 1.872 11.6-0.64 12.304l7.12 11.008-9.616 1.008-3.344-8.048-6.176 0.64 0.928 8.784-9.632 1.008z m7.344 2.784l0.64 6.096c7.12 0.672 10.496-0.8 10.112-4.432-0.496-2.672-4.08-3.232-10.752-1.664zM585.9288 903.36l3.728 24.624 13.808-2.64-2.368-7.68-6.4 1.536-2.976-16.992zM601.4488 903.552c9.04-5.536 15.12-4.672 18.208 2.608 3.968 11.568 0.32 17.952-10.976 19.168z m7.088 4.976l3.056 7.408c3.456-0.784 4.816-2.832 4.112-6.192-0.704-3.344-3.104-3.744-7.168-1.216zM631.4968 892.336c-10.912 0.912-13.792 6.688-8.656 17.312 4.8 8.704 10.96 8.704 18.512 0l-3.6-4.768c-5.312 5.28-8.864 5.28-10.672 0-1.808-5.28 0.24-7.536 6.176-6.8l-1.76-5.744zM634.1368 889.728c4.224 14.24 8.88 19.664 13.968 16.256 5.104-3.392 4.352-10.72-2.256-21.968l-2.8 1.76c4.624 9.504 5.92 14.4 3.92 14.672-2 0.288-4.608-4.016-7.824-12.928l-5.008 2.208zM438.2168 874.56l-4.96 19.744c10.656 3.296 18.784 5.376 24.368 6.24 5.584 0.88 14.08 1.392 25.472 1.552l1.824-20.864a129.6 129.6 0 0 1-20.688-1.36 687.376 687.376 0 0 1-26.016-5.312zM397.3368 883.52l-11.84 22.128c20.848 8.032 38.688 13.088 53.52 15.168 1.952-4.208 4.32-10.352 7.12-18.4-11.936-2.112-20.704-4.096-26.272-5.936-5.568-1.84-13.072-6.16-22.528-12.96zM409.9608 863.696l-10.304 15.568c10.896 8.4 18.976 11.904 24.224 10.496 2.432-4.08 5.328-10.048 8.688-17.904-6.032-0.272-10.352-0.88-12.96-1.824-2.624-0.944-5.84-3.04-9.648-6.336z" fill="#F46B00" p-id="4340"></path><path d="M386.0728 901.92c28.208 27.84 80.368 39.968 156.496 36.416 66.144-5.216 103.2-18.976 111.2-41.28l17.792 38.32c-16.448 24.272-66.336 37.008-149.648 38.24-83.296 1.232-133.248-10.528-149.824-35.28 0.96-8.048 2.144-14.24 3.568-18.624 1.424-4.368 4.896-10.304 10.416-17.792z" fill="#007F00" p-id="4341"></path></svg>