<svg width="150" height="150" viewBox="0 0 150 150" fill="none" xmlns="http://www.w3.org/2000/svg">
<path d="M106.744 30.9863L103.511 41.682C115.693 50.3532 123.623 64.35 123.623 80.1201C123.623 97.3529 114.16 112.478 100.021 120.838L103.753 130.986C122.097 121.042 134.507 101.991 134.507 80.1201C134.507 59.4598 123.434 41.3147 106.744 30.9863ZM25.672 80.1201C25.672 64.35 33.6028 50.3532 45.7841 41.682L42.5519 30.9863C25.8617 41.3147 14.7886 59.4598 14.7886 80.1201C14.7886 101.991 27.1985 121.042 45.5422 130.986L49.2741 120.838C35.1354 112.478 25.672 97.3529 25.672 80.1201Z" fill="#00BE14"/>
<path d="M102.576 17.2987C100.586 21.7872 89.3378 47.1555 86.9629 75.3518L86.925 74.5011C86.6227 67.9033 85.3911 41.0024 91.5106 12.6758L91.6134 12.7023C93.4262 13.173 98.3298 14.4485 102.817 16.7533C102.766 16.8708 102.686 17.0516 102.578 17.2957L102.576 17.2987Z" fill="white"/>
<path d="M61.1385 64.1417C61.1385 64.1417 65.228 78.8984 67.2548 91.5141H70.8332C70.8332 91.5141 63.7686 47.8963 46.479 16.5384C48.3852 15.6047 52.2582 13.7747 58.3193 12.3429L74.4073 91.5141H77.9941L61.7618 11.6336C61.7618 11.6336 66.8219 10.6085 73.1971 10.5625C72.9534 19.6767 73.7367 59.7072 81.5997 91.5141H85.2132C85.2132 91.5141 76.3286 59.3852 76.6948 10.5813C80.2077 10.6303 85.5691 11.2064 88.1707 11.7873L88.1179 12.033C87.1491 16.4791 76.1449 67.0053 91.4289 122.879H57.6609C57.6609 122.879 66.5103 96.8395 61.1385 64.1417ZM51.9114 139.436L56.0111 128.287H93.0914L97.1832 139.436H51.9114Z" fill="white"/>
</svg>
