<svg width="20" height="21" viewBox="0 0 20 21" fill="none" xmlns="http://www.w3.org/2000/svg">
<path d="M10.0744 1.96949C10.1572 1.90156 10.2283 1.79367 10.3466 1.78568C10.4335 1.77369 10.5203 1.80566 10.5795 1.87359C10.6426 1.94552 10.7531 1.99347 10.7452 2.10136C10.7215 2.21325 10.682 2.33713 10.7294 2.44902C10.7807 2.64483 10.9859 2.74473 11.0253 2.94453C11.049 3.11636 10.9543 3.29618 10.8083 3.38409C10.7452 3.42805 10.6663 3.44004 10.611 3.49598C10.6268 3.5759 10.6347 3.65982 10.6307 3.73974C10.9504 3.75972 11.2739 3.84364 11.5383 4.03145C11.6685 4.11537 11.7553 4.25124 11.779 4.40309C11.2305 4.25124 10.6584 4.1873 10.0902 4.21927C9.71531 4.23525 9.34046 4.29519 8.98139 4.40309C8.98928 4.24324 9.09582 4.11537 9.21814 4.03145C9.48646 3.84764 9.80607 3.76372 10.1217 3.74374C10.1336 3.65183 10.1336 3.55992 10.1217 3.46801C9.9205 3.41606 9.73505 3.24823 9.72715 3.02845C9.71926 2.89658 9.79423 2.78069 9.8771 2.69278C9.99152 2.5729 10.0862 2.39707 10.031 2.22524C10.0191 2.13733 9.98758 2.02544 10.0744 1.96949ZM7.92786 5.17832C8.57497 4.85464 9.29311 4.69879 10.0113 4.64685C10.3624 4.63885 10.7215 4.62287 11.0687 4.68281C10.757 4.81868 10.4413 4.97852 10.2243 5.25424C10.1178 5.37413 10.0625 5.54596 9.91261 5.62188C9.3089 5.65785 8.71308 5.80969 8.14488 6.01749C8.06202 5.74975 7.98705 5.48202 7.86867 5.23027L7.92786 5.17832ZM5.44199 6.39711C5.49329 6.16934 5.58009 5.94956 5.71031 5.75375C5.79711 5.95755 5.89181 6.15735 5.98651 6.35715C5.98651 6.44906 5.94706 6.54097 5.93916 6.63288C5.84052 7.26026 5.97468 7.89963 6.32191 8.42711C6.5192 8.7348 6.82697 8.95858 7.17815 9.05448C7.20183 9.22232 7.21366 9.39415 7.20577 9.56198L7.12291 9.57797C7.00848 9.56998 6.898 9.53801 6.79935 9.47807C6.6652 9.40214 6.5192 9.3382 6.39293 9.2423C6.27456 9.15838 6.1838 9.0385 6.05359 8.97057L6.03386 8.95858C6.02992 8.94659 6.02597 8.92262 6.02597 8.91063C5.81684 8.65888 5.65901 8.36716 5.55247 8.05547C5.54064 8.01951 5.5288 7.98754 5.51696 7.95158C5.35518 7.45207 5.33151 6.9126 5.44199 6.39711ZM8.3619 6.42908C8.8354 6.25326 9.32862 6.12139 9.83369 6.09341C9.68769 6.88463 9.84553 7.68384 9.95601 8.46707C10.0625 9.17437 10.2007 9.87767 10.2875 10.585C9.83764 10.581 9.3957 10.6529 8.95772 10.7368C8.99718 10.561 8.95772 10.3812 8.93799 10.2053C8.87091 9.78976 8.74464 9.37417 8.49606 9.03051C8.53552 8.70683 8.51973 8.38315 8.52368 8.05947C8.49606 7.53199 8.44081 6.99652 8.28693 6.48902C8.27509 6.44507 8.33822 6.44906 8.3619 6.42908ZM14.5963 7.36416C14.762 7.77175 14.8094 8.2273 14.691 8.65488C14.5332 9.23031 14.1465 9.75379 13.6138 10.0295C13.6217 9.83371 13.5546 9.61393 13.6572 9.43411C14.1386 9.04649 14.4187 8.36716 14.2372 7.75577C14.3359 7.60792 14.4858 7.50801 14.5963 7.36416ZM9.60878 11.0965C9.77845 11.0725 9.97179 11.0805 10.1099 11.1924C10.2007 11.2643 10.2204 11.3922 10.2164 11.5001C10.2164 12.1674 10.2164 12.8387 10.2164 13.5061C10.2164 13.558 10.2085 13.61 10.2007 13.6579C10.0941 13.6579 9.98363 13.6619 9.8771 13.6739C9.75477 13.7019 9.62851 13.7019 9.50619 13.7339C9.18658 13.2064 9.08004 12.583 9.02874 11.9756C9.0248 11.7638 9.00112 11.532 9.1195 11.3442C9.22998 11.1844 9.42727 11.1244 9.60878 11.0965ZM9.50224 14.625C9.76661 14.613 10.027 14.577 10.2914 14.577C10.2638 14.8408 10.2164 15.1005 10.177 15.3602C9.98363 15.3562 9.78634 15.3642 9.593 15.3842C9.593 15.1365 9.60089 14.8887 9.593 14.641L9.52592 14.637L9.50224 14.625ZM9.43911 15.8757L9.50224 15.8558C9.58905 15.8518 9.6798 15.8478 9.76661 15.8438C9.8692 15.8398 9.97179 15.8438 10.0744 15.8518C9.94417 16.4512 9.77056 17.0426 9.56143 17.618C9.41543 17.626 9.27338 17.638 9.12739 17.65C9.32468 17.0746 9.46278 16.4831 9.53775 15.8797L9.43911 15.8757ZM8.94193 18.1695C9.07609 18.1575 9.21025 18.1415 9.34046 18.1255C9.20236 18.4492 9.0248 18.7569 8.86302 19.0646L8.96561 19.0686C8.81961 19.0846 8.66967 19.0926 8.52368 19.1125C8.66573 18.8008 8.81961 18.4931 8.94193 18.1695Z" fill="#E30613"/>
<path d="M11.0731 4.68359C11.4046 4.69159 11.736 4.77151 12.0556 4.86342C11.9451 4.95532 11.8307 5.04324 11.7479 5.15912C11.665 5.27501 11.5506 5.36692 11.4756 5.49479C11.4361 5.57072 11.3848 5.63865 11.3178 5.69459C11.231 5.67062 11.1441 5.65863 11.0534 5.65463C10.9429 5.61467 10.8245 5.63865 10.7101 5.61867C10.4891 5.5867 10.2642 5.5867 10.0433 5.61867C9.99985 5.61867 9.95645 5.62266 9.91699 5.62266C10.0669 5.54674 10.1222 5.37491 10.2287 5.25503C10.4418 4.9793 10.7614 4.81946 11.0731 4.68359Z" fill="#B71A23"/>
<path d="M12.0552 4.85938C12.2525 4.91532 12.4458 4.98325 12.6352 5.06317C12.6747 5.08315 12.726 5.09115 12.7496 5.1351C12.7062 5.29494 12.576 5.39884 12.5011 5.5427C12.43 5.67457 12.3274 5.78646 12.2604 5.92232L12.2367 5.93032C11.9368 5.83841 11.6369 5.73451 11.3252 5.69455C11.3923 5.6386 11.4436 5.57067 11.483 5.49475C11.5541 5.37087 11.6685 5.27896 11.7553 5.15908C11.8303 5.0392 11.9447 4.95128 12.0552 4.85938Z" fill="#CD101B"/>
<path d="M12.7461 5.13939L12.754 5.10742C12.9355 5.22331 13.1328 5.31522 13.3064 5.44709C13.1249 5.57096 13.0657 5.80673 13.0184 6.01053C12.9987 6.11443 12.9197 6.19435 12.8527 6.27427C12.6711 6.1424 12.4699 6.03051 12.2608 5.94659L12.2568 5.92661C12.3279 5.79474 12.4265 5.67886 12.4975 5.54699C12.5725 5.40313 12.7067 5.29923 12.7461 5.13939Z" fill="#E00714"/>
<path d="M5.94336 5.49442C6.19984 5.3146 6.50367 5.22269 6.81539 5.22669C7.04424 5.24267 7.26916 5.30661 7.47039 5.4185C7.57298 5.70222 7.68741 5.98594 7.75449 6.28164C7.72293 6.39753 7.64006 6.48544 7.56904 6.57735C7.48223 6.68924 7.42304 6.81312 7.34018 6.92501C7.24548 7.05288 7.11527 7.15278 7.03241 7.28865C6.97322 7.38855 6.90614 7.48445 6.83512 7.57237C6.54707 6.88105 6.24719 6.18574 5.94336 5.49442Z" fill="#C91A21"/>
<path d="M13.018 6.00876C13.0693 5.80496 13.1246 5.56919 13.31 5.44531C13.5389 5.62114 13.748 5.83693 13.8467 6.11665C13.6415 6.38838 13.5152 6.70806 13.4008 7.02775C13.097 7.93885 12.9707 8.90589 13.0299 9.86494C13.0733 10.4084 13.1877 10.9639 13.4758 11.4314C13.4047 11.4114 13.3495 11.3635 13.2903 11.3235C13.1167 11.2156 12.9391 11.1237 12.7497 11.0438C12.7221 10.9918 12.6984 10.9399 12.6866 10.8799C12.6471 10.5762 12.5643 10.2765 12.5288 9.97283C12.5248 9.93687 12.5485 9.9049 12.5603 9.87293C12.5682 9.9049 12.584 9.96484 12.5919 9.99681C12.5564 9.78502 12.584 9.56923 12.5603 9.35744C12.5524 9.23356 12.5564 9.10569 12.5722 8.98181C12.5761 8.41837 12.655 7.85493 12.801 7.31147C12.8168 7.25552 12.8326 7.19958 12.8484 7.14763C12.8681 7.0797 12.8839 7.01176 12.9076 6.94383C12.9628 6.78399 13.0141 6.62415 13.0693 6.4683C13.0023 6.40037 12.9352 6.33243 12.8602 6.27649C12.9194 6.19257 12.9983 6.11665 13.018 6.00876Z" fill="#EA0210"/>
<path d="M9.83424 6.06899C10.0157 6.06499 10.1973 6.057 10.3788 6.04102C10.6668 6.06899 10.9588 6.057 11.2429 6.12893C11.1955 6.14891 11.1521 6.17688 11.1127 6.21285C11.0338 6.39666 11.018 6.60446 10.9785 6.80026C10.9193 7.072 10.8444 7.34772 10.872 7.62345C10.8957 7.9791 10.8641 8.33874 10.8957 8.69439C10.9036 8.83425 10.8878 8.97411 10.9036 9.11398C10.9391 9.40569 10.9114 9.70139 10.9627 9.99311C10.9983 10.1809 10.9864 10.3767 11.0338 10.5645C11.0219 10.5805 10.9983 10.6085 10.9904 10.6205C10.7615 10.5805 10.5248 10.5805 10.2959 10.5845C10.2091 9.87322 10.071 9.17392 9.96445 8.46662C9.85397 7.68339 9.69613 6.88019 9.84213 6.09296L9.83424 6.06899Z" fill="#B81923"/>
<path d="M11.1083 6.21282C11.1477 6.18085 11.1912 6.15288 11.2385 6.12891C11.349 6.12891 11.4555 6.18085 11.566 6.17686L11.5778 6.21682C11.5108 6.56847 11.3569 6.90014 11.3411 7.26378C11.3332 7.59546 11.2819 7.92713 11.2937 8.2588C11.2582 8.95811 11.3529 9.65342 11.4003 10.3527C11.4082 10.4606 11.4318 10.5645 11.4674 10.6644C11.3016 10.6724 11.1438 10.6085 10.982 10.6245C10.9939 10.6125 11.0175 10.5845 11.0254 10.5685C10.9781 10.3807 10.9899 10.1849 10.9544 9.99708C10.9071 9.70537 10.9307 9.40966 10.8952 9.11795C10.8794 8.97809 10.8952 8.83823 10.8873 8.69836C10.8558 8.34272 10.8873 7.98307 10.8636 7.62742C10.8321 7.3477 10.911 7.07197 10.9702 6.80424C11.0175 6.60444 11.0294 6.40064 11.1083 6.21282Z" fill="#C8121D"/>
<path d="M11.5858 6.22183C11.649 6.18587 11.7239 6.2498 11.795 6.25779C12.0238 6.32573 12.2487 6.41764 12.4579 6.53752C12.3553 6.63342 12.3671 6.78527 12.3 6.90116C12.2014 7.07698 12.1935 7.28877 12.1501 7.48458C12.0633 7.82824 12.0791 8.18789 12.0357 8.53954C12.0001 8.7793 12.0593 9.01507 12.0278 9.25483C11.9883 9.69839 12.087 10.134 12.1422 10.5695C12.158 10.6614 12.1777 10.7533 12.2014 10.8413C12.0909 10.8053 11.9765 10.7773 11.862 10.7533C11.7397 10.7134 11.6135 10.6934 11.4832 10.6894C11.4832 10.6814 11.4754 10.6694 11.4754 10.6614C11.4398 10.5615 11.4201 10.4536 11.4083 10.3497C11.3609 9.65443 11.2662 8.95912 11.3017 8.25582C11.2899 7.92415 11.3412 7.59247 11.3491 7.2608C11.3609 6.90515 11.5188 6.56949 11.5858 6.22183Z" fill="#D70B17"/>
<path d="M7.75466 6.28587L7.76256 6.25391C7.94012 6.90926 8.07033 7.58459 8.07822 8.26791C8.09006 9.07112 7.97168 9.9023 7.60472 10.6256C7.26144 11.2729 6.67745 11.7285 6.12109 12.176C6.12899 12.1481 6.14082 12.1241 6.16055 12.1001C6.44071 11.7844 6.69718 11.4408 6.8708 11.0492C7.06415 10.5936 7.17857 10.1101 7.21014 9.61458L7.11939 9.57862L7.20225 9.56263C7.21014 9.3948 7.1983 9.22297 7.17463 9.05514L7.20225 9.01517C7.14701 8.51967 7.00496 8.04014 6.83529 7.5766C6.90631 7.48469 6.97339 7.38878 7.03258 7.29288C7.11939 7.15701 7.24565 7.05711 7.34035 6.92924C7.42321 6.81735 7.48635 6.68948 7.56921 6.58158C7.64024 6.48568 7.72704 6.39776 7.75466 6.28587Z" fill="#C01B21"/>
<path d="M12.2959 6.90075C12.3591 6.78486 12.3512 6.63301 12.4538 6.53711C12.4893 6.57307 12.584 6.59305 12.5524 6.66099C12.4341 7.24441 12.3788 7.83982 12.3867 8.43923C12.4104 8.88679 12.4656 9.33434 12.5485 9.77391C12.5524 9.80588 12.5722 9.84184 12.5564 9.8778C12.5406 9.90977 12.5209 9.94174 12.5248 9.97771C12.5603 10.2814 12.6432 10.5811 12.6826 10.8848C12.6984 10.9408 12.7221 10.9967 12.7497 11.0486C12.5682 10.9727 12.3867 10.9048 12.2012 10.8488C12.1815 10.7569 12.1578 10.669 12.1421 10.5771C12.0868 10.1415 11.9882 9.70597 12.0276 9.26241C12.0592 9.02265 12 8.78289 12.0355 8.54712C12.0789 8.19547 12.0671 7.83582 12.15 7.49216C12.1934 7.28837 12.1973 7.08057 12.2959 6.90075Z" fill="#E40512"/>
<path d="M13.3972 8.39089C13.5037 7.79149 13.634 7.18409 13.9102 6.64062C14.2179 6.79247 14.4507 7.06021 14.5967 7.36791C14.4863 7.50777 14.3324 7.60767 14.2377 7.75952C13.8747 8.25103 13.6813 8.85443 13.6261 9.46183L13.6537 9.43786C13.5511 9.61768 13.6182 9.83746 13.6103 10.0333C13.5314 10.0772 13.4446 10.1092 13.3538 10.1252C13.3104 9.89341 13.3143 9.66164 13.3143 9.42587C13.3065 9.07821 13.3538 8.73455 13.3972 8.39089Z" fill="#AE1D22"/>
<path d="M6.0498 8.97461C6.18002 9.04254 6.27077 9.16242 6.38914 9.24634C6.51541 9.34225 6.66141 9.40219 6.79556 9.48211C6.75216 9.57002 6.764 9.66992 6.74427 9.76183C6.72059 9.9936 6.67719 10.2254 6.618 10.4492C6.52725 10.7648 6.42466 11.0845 6.26288 11.3722C6.36152 10.565 6.23131 9.75384 6.0498 8.97461Z" fill="#C11B21"/>
<path d="M8.49608 9.03516C8.74072 9.37882 8.86699 9.7944 8.93801 10.21C8.95774 10.3858 8.9972 10.5656 8.95774 10.7415C8.95774 10.7495 8.9538 10.7614 8.9538 10.7694C8.80385 10.7694 8.66575 10.8414 8.51975 10.8574C8.50792 10.6456 8.46846 10.4378 8.40927 10.234C8.38954 10.182 8.35403 10.1381 8.30273 10.1141C8.39349 9.75444 8.45662 9.3948 8.49608 9.03516Z" fill="#B51A25"/>
<path d="M8.2914 10.1016L8.30718 10.1096C8.35453 10.1335 8.39399 10.1775 8.41372 10.2294C8.4729 10.4332 8.51236 10.641 8.5242 10.8528V10.8688C8.26377 10.9367 8.01124 11.0207 7.7666 11.1325C8.00335 10.8288 8.18486 10.4772 8.2914 10.1016Z" fill="#C01521"/>
<path d="M10.7773 11.105C11.0023 11.0571 11.2351 11.085 11.4442 11.1809C11.6139 11.2688 11.7204 11.4487 11.7164 11.6405C11.7243 11.8563 11.7086 12.0681 11.7007 12.2838C11.6296 12.7833 11.4994 13.2868 11.2587 13.7344L11.1877 13.7144C11.2272 13.5985 11.1285 13.4986 11.1364 13.3828C11.1483 13.2509 11.097 13.127 11.093 12.9991C11.0457 12.4277 10.9036 11.8643 10.8563 11.2928C10.8444 11.2249 10.805 11.1649 10.7773 11.105Z" fill="#C2141F"/>
<path d="M10.5281 11.4011C10.5242 11.2532 10.6544 11.1573 10.7767 11.1094C10.8083 11.1693 10.8477 11.2293 10.8517 11.3012C10.899 11.8726 11.0411 12.4321 11.0884 13.0075C11.0963 13.1354 11.1476 13.2592 11.1318 13.3911C11.1239 13.507 11.2226 13.6069 11.1831 13.7228L11.2541 13.7428C11.0095 13.7228 10.7688 13.6668 10.5242 13.6748C10.5281 12.9116 10.5281 12.1563 10.5281 11.4011ZM8.95766 14.7338C9.14706 14.6978 9.33252 14.6419 9.52981 14.6419L9.59689 14.6459C9.60478 14.8936 9.59689 15.1414 9.59689 15.3891C9.46667 15.4011 9.33646 15.4211 9.2102 15.4491C9.1155 15.4731 9.01685 15.485 8.91821 15.485L8.89453 15.4491C8.9261 15.3252 8.95767 15.2013 8.94977 15.0735C8.94188 14.9935 8.95372 14.9136 8.98529 14.8377C8.97739 14.8097 8.96556 14.7777 8.95766 14.7498C8.95372 14.7458 8.95766 14.7378 8.95766 14.7338Z" fill="#B51A24"/>
<path d="M7.95996 11.5528C8.09412 11.4808 8.24406 11.4489 8.394 11.4568C8.51632 11.4449 8.67415 11.4928 8.70178 11.6327C8.69783 11.8405 8.73334 12.0443 8.74123 12.2521C8.78464 12.7875 8.93458 13.311 9.17528 13.7905L9.15555 13.8305C9.04112 13.8625 8.93063 13.9064 8.8241 13.9664C8.59918 13.8265 8.42162 13.6227 8.2559 13.4189C8.24406 13.3949 8.20855 13.3749 8.21249 13.343C8.26773 13.2071 8.22433 13.0633 8.2046 12.9274C8.16909 12.7636 8.21249 12.5917 8.15725 12.4319C8.07044 12.1442 8.1099 11.8205 7.95996 11.5528Z" fill="#C21420"/>
<path d="M12.0676 11.5728C12.0952 11.5129 12.1663 11.4929 12.2176 11.4609C12.2333 11.5329 12.2412 11.6208 12.3123 11.6647L12.2333 11.6767C12.5806 11.6328 12.2097 11.7207 12.3399 11.7566C12.3241 11.8366 12.3912 11.9005 12.3912 11.9804C12.407 12.1922 12.5056 12.384 12.5293 12.5918C12.5569 12.7836 12.6121 12.9674 12.6556 13.1513C12.4662 13.467 12.2176 13.7427 11.9256 13.9625C11.8111 13.9105 11.6967 13.8626 11.5744 13.8226C11.5389 13.7946 11.5862 13.7467 11.5941 13.7187C11.6296 13.6508 11.6612 13.5828 11.6928 13.5149C11.9058 12.9954 11.9966 12.436 12.0242 11.8765C12.0361 11.7766 12.0084 11.6647 12.0676 11.5728ZM7.06432 18.6458C7.23794 18.5579 7.41945 18.49 7.60884 18.434C7.59306 18.5979 7.52204 18.7537 7.48652 18.9136C7.44707 19.0454 7.44312 19.1853 7.41155 19.3172L7.40366 19.3451C7.3642 19.3491 7.32475 19.3531 7.28923 19.3611C7.15507 19.4131 7.02092 19.461 6.88281 19.505C6.93805 19.2213 7.01697 18.9455 7.06432 18.6618V18.6458Z" fill="#D50C18"/>
<path d="M12.2169 11.4602C12.4221 11.4523 12.647 11.4483 12.8167 11.5881C12.9903 11.712 13.0298 11.9478 13.0179 12.1476C12.9627 12.5032 12.8404 12.8469 12.6588 13.1546C12.6115 12.9707 12.5602 12.7829 12.5326 12.5951C12.505 12.3873 12.4103 12.1915 12.3945 11.9837C12.3945 11.9038 12.3274 11.8399 12.3432 11.7599C12.209 11.72 12.5839 11.6361 12.2366 11.68L12.3156 11.668C12.2445 11.6161 12.2366 11.5322 12.2169 11.4602ZM7.06762 12.2994C7.15443 12.2075 7.3162 12.1076 7.42274 12.2275L7.41485 12.2515C7.34382 12.3913 7.4109 12.5432 7.43458 12.687C7.50955 13.0027 7.51744 13.3264 7.5569 13.6461C7.56085 13.73 7.5569 13.8099 7.53717 13.8898C7.26491 13.694 7.01238 13.4423 6.90978 13.1106C6.82692 12.8389 6.86638 12.5112 7.06762 12.2994ZM6.82692 18.781C6.90189 18.733 6.97686 18.6931 7.05973 18.6611C7.01238 18.9448 6.93346 19.2206 6.87822 19.5043L6.87427 19.5163C6.72433 19.5682 6.60201 19.6721 6.45996 19.7361C6.50731 19.5243 6.54282 19.3085 6.59412 19.0967C6.62174 18.9608 6.72828 18.8649 6.82692 18.781Z" fill="#E30512"/>
<path d="M7.76246 11.8125C7.80192 11.7086 7.87294 11.6167 7.9637 11.5527C8.10969 11.8205 8.07418 12.1441 8.15704 12.4319C8.21228 12.5917 8.17283 12.7635 8.20439 12.9274C8.22412 13.0632 8.26753 13.2111 8.21228 13.343C8.0071 13.0832 7.88478 12.7675 7.79008 12.4558C7.723 12.248 7.69933 12.0243 7.76246 11.8125Z" fill="#CE0E1B"/>
<path d="M13.9967 11.9871L14.0046 11.9512C14.3991 12.4787 14.7385 13.0661 14.8726 13.7214C15.066 14.5926 14.8924 15.5116 14.5175 16.3029C14.3991 16.123 14.2689 15.9512 14.1506 15.7674C13.9178 15.7594 13.685 15.7674 13.4521 15.7594C13.827 15.3558 14.1387 14.8763 14.2847 14.3328C14.5136 13.5576 14.3952 12.6904 13.9967 11.9871ZM15.3698 14.153C15.3974 14.193 15.4172 14.2409 15.433 14.2849C15.6342 14.9043 15.7999 15.5436 15.7841 16.199C15.792 16.8543 15.5632 17.4817 15.3027 18.0731C15.1765 17.8893 15.0699 17.6935 14.9516 17.5017C14.7345 17.5017 14.5136 17.4737 14.2966 17.4617C14.7148 17.0022 15.0305 16.4547 15.2199 15.8593C15.3895 15.3079 15.4408 14.7244 15.3698 14.153Z" fill="#A01E22"/>
<path d="M13.338 12.22C13.4169 12.1161 13.5589 12.1881 13.6339 12.26C13.8036 12.3958 13.8588 12.6196 13.8864 12.8314C13.8706 13.0991 13.7641 13.3549 13.5865 13.5587C13.4129 13.7545 13.2038 13.9183 12.9749 14.0422C12.9434 13.8384 12.8605 13.6466 12.8447 13.4428C13.0302 13.1631 13.1643 12.8514 13.2511 12.5277C13.2788 12.4238 13.2906 12.3159 13.338 12.22Z" fill="#EA0310"/>
<path d="M7.43153 12.6914C7.40786 12.5476 7.34472 12.3957 7.4118 12.2559C7.45521 12.3278 7.4631 12.4117 7.48283 12.4916C7.58936 12.9072 7.77482 13.2948 8.03524 13.6345C8.01946 13.8143 8.05892 13.9941 8.03919 14.174C7.85768 14.11 7.6959 13.9981 7.53412 13.8942C7.55385 13.8143 7.5578 13.7304 7.55385 13.6505C7.51439 13.3308 7.5065 13.0071 7.43153 12.6914Z" fill="#D80A17"/>
<path d="M5.55274 12.6788C5.57642 12.6548 5.60404 12.6389 5.6356 12.6309C5.15027 13.2782 4.94114 14.1094 4.99243 14.9166C5.00822 15.0405 5.02006 15.1644 5.02795 15.2882C5.08713 15.6399 5.17394 15.9835 5.28443 16.3192C5.17394 16.4631 5.10292 16.6349 4.96876 16.7588C4.77936 16.9226 4.6965 17.1744 4.52288 17.3502C4.42029 17.0025 4.35321 16.6429 4.31375 16.2792C4.29797 16.1194 4.30981 15.9596 4.28613 15.7997C4.30192 15.4641 4.3177 15.1324 4.38872 14.8007L4.40451 14.7767C4.56629 13.9775 4.99638 13.2582 5.55274 12.6788Z" fill="#B91C22"/>
<path d="M5.49726 14.0257C5.54066 13.8059 5.61958 13.5942 5.73006 13.4023C5.67087 13.9978 5.87606 14.5852 6.1641 15.0967C6.36928 15.4683 6.64944 15.792 6.95721 16.0837C6.74019 16.0837 6.52317 16.1037 6.30615 16.0997C6.17594 16.2515 6.06151 16.4194 5.93524 16.5752H5.88789C5.67482 16.1157 5.53277 15.6241 5.46964 15.1206C5.42623 14.753 5.43412 14.3854 5.49726 14.0257Z" fill="#B61C22"/>
<path d="M12.202 14.1488C12.4467 13.941 12.6637 13.7012 12.8452 13.4375C12.8649 13.6413 12.9438 13.8331 12.9754 14.0369C12.7702 14.1528 12.5532 14.2647 12.3283 14.3206C12.2888 14.2647 12.2494 14.2047 12.202 14.1488ZM12.3677 16.0589C12.6597 16.1308 12.9438 16.2387 13.2121 16.3706C13.2398 16.3866 13.2792 16.4066 13.2792 16.4465C13.3187 17.0339 13.3542 17.6653 13.6817 18.1728C13.5909 18.1528 13.5199 18.0929 13.4371 18.0569C13.0464 17.8851 12.6282 17.8092 12.2099 17.7372C12.1468 17.7213 12.0836 17.7053 12.0205 17.6973C12.0876 17.4975 12.1389 17.2897 12.2296 17.0979C12.2454 16.934 12.3086 16.7822 12.3441 16.6223C12.3677 16.4385 12.3401 16.2467 12.3677 16.0589Z" fill="#DB0916"/>
<path d="M8.0351 13.6309C8.17715 13.8187 8.34682 13.9865 8.53227 14.1304C8.5007 14.1943 8.46519 14.2542 8.42968 14.3182C8.33103 14.3302 8.24817 14.2622 8.15347 14.2383C8.11007 14.2223 8.07061 14.2023 8.0351 14.1743C8.05877 13.9905 8.01931 13.8147 8.0351 13.6309Z" fill="#CC0F1C"/>
<path d="M10.2961 14.576C10.5131 14.576 10.7419 14.5561 10.955 14.608C10.9945 14.8078 10.9511 15.0116 10.9353 15.2114C10.9274 15.2674 10.9787 15.3033 11.0063 15.3433C10.9747 15.3553 10.9392 15.3633 10.9077 15.3753C10.667 15.3513 10.4223 15.3673 10.1816 15.3633C10.2211 15.0995 10.2684 14.8438 10.2961 14.576Z" fill="#B01D26"/>
<path d="M10.9546 14.6094C11.1322 14.6134 11.3058 14.6334 11.4755 14.6733C11.4557 14.8332 11.4163 14.989 11.4242 15.1488C11.4242 15.2408 11.4518 15.3407 11.4005 15.4206C11.2348 15.3966 11.069 15.3966 10.9033 15.3766C10.9349 15.3646 10.9665 15.3526 11.002 15.3446C10.9743 15.3047 10.923 15.2687 10.9309 15.2128C10.9467 15.013 10.9901 14.8132 10.9546 14.6094Z" fill="#B91922"/>
<path d="M11.4757 14.6738C11.7203 14.7058 11.9531 14.7937 12.1859 14.8736V14.8896C12.1978 15.1174 12.2609 15.3492 12.2017 15.5769C12.0676 15.541 11.9295 15.525 11.7953 15.493C11.6651 15.4531 11.5349 15.4331 11.4007 15.4211C11.452 15.3372 11.4244 15.2373 11.4244 15.1494C11.4165 14.9895 11.456 14.8337 11.4757 14.6738ZM8.02309 16.1604C8.248 16.0804 8.48081 16.0205 8.71756 15.9805C8.71756 16.1963 8.65442 16.4001 8.64259 16.6159C8.63864 16.7997 8.55578 16.9676 8.53999 17.1514C8.52421 17.3352 8.52027 17.555 8.36243 17.6669C8.39795 17.6988 8.4374 17.7268 8.47292 17.7508C8.20065 17.7907 7.93234 17.8467 7.66797 17.9226C7.75872 17.483 7.93234 17.0635 7.96391 16.6119C7.97574 16.4601 8.00336 16.3122 8.02309 16.1604Z" fill="#C5131E"/>
<path d="M8.54363 14.8919C8.6699 14.82 8.80801 14.772 8.95005 14.748C8.95795 14.776 8.96978 14.808 8.97767 14.836C8.94611 14.9079 8.93427 14.9918 8.94216 15.0717C8.954 15.1996 8.92243 15.3235 8.88692 15.4474L8.91454 15.4833L8.93033 15.5033C8.79222 15.5153 8.65412 15.5393 8.51996 15.5752C8.47656 15.3515 8.54758 15.1197 8.54363 14.8919Z" fill="#BF1520"/>
<path d="M8.02255 15.2802C8.15671 15.1044 8.33822 14.9685 8.54735 14.8926C8.54735 15.1204 8.48027 15.3521 8.52367 15.5799C8.31849 15.6199 8.1212 15.6958 7.91602 15.7357C7.96731 15.5879 7.92391 15.4121 8.02255 15.2802Z" fill="#CA101C"/>
<path d="M12.1855 14.8887C12.3947 14.9646 12.5762 15.0965 12.7103 15.2723C12.8129 15.4042 12.7695 15.58 12.7932 15.7358C12.5959 15.6799 12.4026 15.6199 12.2013 15.576C12.2605 15.3482 12.1974 15.1164 12.1855 14.8887Z" fill="#D30C18"/>
<path d="M9.59763 15.3878C9.79097 15.3678 9.98432 15.3558 10.1816 15.3638C10.4223 15.3678 10.6669 15.3558 10.9076 15.3758C11.0734 15.3958 11.2391 15.3958 11.4048 15.4198C11.539 15.4278 11.6692 15.4517 11.7994 15.4917C11.5745 15.4797 11.3496 15.4358 11.1207 15.4118C10.9629 15.4118 10.805 15.3998 10.6512 15.3758C10.2684 15.3638 9.88962 15.3798 9.51082 15.4238C9.41218 15.4438 9.30958 15.4517 9.21094 15.4477C9.3372 15.4198 9.46742 15.3998 9.59763 15.3878Z" fill="#6D0A10"/>
<path d="M9.76745 15.844C10.0871 15.828 10.4027 15.804 10.7223 15.824C10.8525 15.852 10.9867 15.836 11.1169 15.844C11.3418 15.8759 11.5667 15.8919 11.7917 15.9279L11.7601 15.9359C11.6654 15.9359 11.5707 15.9199 11.4799 15.9519C11.4326 16.0198 11.405 16.0997 11.4089 16.1836C11.3971 16.4354 11.326 16.6792 11.2471 16.9149C11.2116 17.0388 11.113 17.1307 11.0735 17.2546C11.0341 17.3785 10.9867 17.4904 10.9433 17.6062C10.4816 17.6142 10.02 17.5982 9.55832 17.6182C9.76745 17.0428 9.94106 16.4514 10.0713 15.852C9.97263 15.844 9.87004 15.84 9.76745 15.844ZM8.10626 18.2936C8.30749 18.2496 8.50873 18.1977 8.71391 18.1857C8.78888 18.1817 8.8678 18.1737 8.94277 18.1697C8.82045 18.4934 8.66656 18.8011 8.52451 19.1127L8.52057 19.1247C8.34695 19.1327 8.17334 19.1847 7.99972 19.1847C7.97999 19.1527 7.94053 19.1247 7.95237 19.0808C7.98788 18.897 8.03918 18.7171 8.10626 18.5413C8.13388 18.4654 8.11415 18.3775 8.10626 18.2936Z" fill="#B31B25"/>
<path d="M9.20272 15.8885C9.28164 15.8765 9.36056 15.8725 9.43947 15.8765H9.54207C9.4671 16.4799 9.32899 17.0753 9.1317 17.6467L9.11986 17.6747C8.90284 17.6787 8.68977 17.7227 8.47669 17.7466C8.43724 17.7187 8.40172 17.6907 8.36621 17.6627C8.52799 17.5468 8.52799 17.3231 8.54377 17.1472C8.55956 16.9674 8.64242 16.7956 8.64636 16.6118C8.65426 16.4 8.72133 16.1922 8.72133 15.9764C8.87917 15.9284 9.04489 15.9245 9.20272 15.8885Z" fill="#B41B24"/>
<path d="M11.4838 15.9525C11.5746 15.9246 11.6693 15.9405 11.764 15.9365C11.9692 15.9605 12.1704 16.0045 12.3716 16.0564C12.344 16.2442 12.3716 16.4321 12.3519 16.6199C12.3124 16.7797 12.2533 16.9316 12.2375 17.0954C12.1428 17.2872 12.0954 17.495 12.0283 17.6948C11.6732 17.6469 11.3141 17.6309 10.9551 17.6029C10.9985 17.487 11.0419 17.3671 11.0853 17.2512C11.1287 17.1354 11.2234 17.0355 11.2589 16.9116C11.3378 16.6758 11.4049 16.4321 11.4207 16.1803C11.4088 16.1004 11.4325 16.0205 11.4838 15.9525Z" fill="#C7121D"/>
<path d="M7.45122 16.4399C7.60906 16.292 7.83002 16.2401 8.02337 16.1602C7.99969 16.312 7.97602 16.4599 7.96418 16.6117C7.93261 17.0633 7.75505 17.4828 7.66824 17.9224C7.4749 17.9744 7.29339 18.0543 7.11977 18.1542L7.05664 18.1622C7.21053 17.9704 7.28155 17.7306 7.34074 17.4948C7.41176 17.1472 7.44728 16.7915 7.45122 16.4399Z" fill="#D60B17"/>
<path d="M5.28795 16.3146L5.2919 16.3066C5.54443 17.002 5.91534 17.6573 6.4204 18.1968C6.14814 18.1888 5.87588 18.2207 5.60362 18.2287C5.43789 18.4365 5.29584 18.6683 5.11433 18.8641C4.87364 18.3766 4.66056 17.8691 4.52246 17.3416C4.70002 17.1658 4.78289 16.918 4.97228 16.7502C5.10644 16.6303 5.17747 16.4545 5.28795 16.3146Z" fill="#B21C22"/>
<path d="M9.12805 17.6494C9.2701 17.6414 9.41609 17.6254 9.56209 17.6175C10.0237 17.5975 10.4854 17.6135 10.9471 17.6055C11.3061 17.6374 11.6652 17.6534 12.0203 17.6974C12.0835 17.7054 12.1466 17.7214 12.2097 17.7373C12.0243 17.7453 11.8428 17.6854 11.6573 17.6894C11.4916 17.6494 11.3219 17.6614 11.1523 17.6494C10.7301 17.5935 10.3 17.6254 9.87381 17.6175C9.62127 17.6574 9.36874 17.6414 9.11621 17.6774L9.12805 17.6494Z" fill="#64080D"/>
<path d="M9.50694 18.0808C9.73185 18.0928 9.95282 18.0488 10.1777 18.0488C10.4066 18.0568 10.6394 18.0368 10.8682 18.0688C11.0537 18.1008 11.247 18.0608 11.4325 18.1088C11.7008 18.1248 11.9652 18.1607 12.2296 18.2007L12.269 18.2287C12.1191 18.2167 11.9691 18.1887 11.8152 18.1727C11.4443 18.1248 11.0734 18.0968 10.7025 18.0888C10.5092 18.0648 10.3119 18.0608 10.1185 18.0808C9.86206 18.1088 9.60164 18.0848 9.34516 18.1327C9.211 18.1487 9.08079 18.1647 8.94663 18.1767C8.87166 18.1847 8.79274 18.1887 8.71777 18.1927C8.77301 18.1487 8.84009 18.1607 8.90717 18.1527C9.10052 18.1248 9.3057 18.1088 9.50694 18.0808Z" fill="#72090F"/>
<path d="M9.34072 18.1253C9.5972 18.0813 9.85763 18.1013 10.1141 18.0733C10.3075 18.0534 10.5047 18.0574 10.6981 18.0813C10.4258 18.3291 10.2759 18.6847 10.0036 18.9325C10.0115 19.0164 10.1299 18.9884 10.1891 19.0084C9.92865 19.0324 9.66428 19.0084 9.4078 19.0444C9.26181 19.0604 9.11581 19.0604 8.96587 19.0724L8.86328 19.0684C9.02506 18.7567 9.20262 18.449 9.34072 18.1253Z" fill="#B61A24"/>
<path d="M10.6983 18.082C11.0692 18.09 11.4441 18.118 11.8111 18.1659C11.7676 18.2698 11.6611 18.3138 11.5704 18.3618C11.4204 18.4297 11.3415 18.5855 11.2152 18.6774C11.1008 18.7853 10.943 18.8333 10.8483 18.9612C10.9824 18.9931 11.1245 18.9851 11.2586 19.0211C10.9035 19.0291 10.5484 18.9971 10.1933 19.0051C10.1301 18.9851 10.0157 19.0171 10.0078 18.9292C10.2801 18.6854 10.43 18.3338 10.6983 18.082Z" fill="#CA111C"/>
<path d="M11.8114 18.1699C11.9613 18.1859 12.1113 18.2139 12.2651 18.2259C12.6518 18.2858 13.0346 18.3857 13.4015 18.5256C13.2713 18.6494 13.2595 18.8413 13.1569 18.9811C13.0938 19.065 13.0385 19.1529 12.9912 19.2449C12.6045 19.1689 12.2178 19.113 11.8272 19.077C11.6378 19.0451 11.4444 19.069 11.259 19.0251C11.1248 18.9851 10.9828 18.9971 10.8525 18.9651C10.9472 18.8373 11.1051 18.7893 11.2195 18.6814C11.3497 18.5855 11.4286 18.4337 11.5746 18.3657C11.6614 18.3178 11.768 18.2738 11.8114 18.1699Z" fill="#DD0814"/>
<path d="M7.60846 18.4288C7.77419 18.3809 7.93991 18.3289 8.10564 18.293C8.11353 18.3769 8.13326 18.4608 8.10564 18.5447C8.03856 18.7205 7.98726 18.9004 7.95175 19.0842C7.93991 19.1241 7.97937 19.1561 7.9991 19.1881L8.01488 19.2081C7.80575 19.2121 7.61241 19.304 7.40723 19.32C7.43879 19.1881 7.44274 19.0482 7.4822 18.9164C7.52166 18.7565 7.59268 18.6047 7.60452 18.4368L7.60846 18.4288Z" fill="#C4131E"/>
<path d="M13.157 18.9809C13.2635 18.8411 13.2753 18.6493 13.4016 18.5254C13.5989 18.6093 13.8001 18.6972 13.9698 18.8291C14.0685 18.909 14.1355 19.0209 14.1592 19.1488C14.1947 19.3446 14.2421 19.5444 14.2658 19.7402C13.887 19.4725 13.4332 19.3446 12.9873 19.2447C13.0347 19.1528 13.0899 19.0649 13.157 18.9809Z" fill="#EB020F"/>
</svg>
