<svg width="20" height="20" viewBox="0 0 20 20" fill="none" xmlns="http://www.w3.org/2000/svg">
<path d="M3.14732 2.94757V18.3997C3.14726 18.4117 3.14384 18.4234 3.13744 18.4336C3.13104 18.4438 3.12191 18.452 3.1111 18.4572C3.10029 18.4625 3.08822 18.4646 3.07627 18.4633C3.06431 18.4621 3.05295 18.4575 3.04346 18.4501L2.512 18.013C2.48421 17.9911 2.46176 17.9632 2.44632 17.9313C2.43088 17.8994 2.42286 17.8645 2.42286 17.8291V3.51226C2.42246 3.44796 2.44413 3.38548 2.48424 3.33524C2.64105 3.14541 2.83954 2.99433 3.06428 2.89375C3.07326 2.88977 3.08309 2.88808 3.09288 2.88885C3.10268 2.88963 3.11213 2.89283 3.12037 2.89817C3.12862 2.90352 3.1354 2.91083 3.1401 2.91946C3.14481 2.92808 3.14729 2.93775 3.14732 2.94757Z" fill="white"/>
<path d="M17.5995 15.3457C17.5995 15.3457 16.8748 15.3972 15.7099 15.7733C14.4164 16.19 13.3711 16.1286 12.4635 15.6261C11.9169 15.3234 10.7245 14.7532 9.39917 15.3461C7.9185 16.0073 7.33658 16.7832 5.54414 17.1495C4.39711 17.383 3.50488 17.0921 3.50488 17.0921V2.98967C3.50488 2.98967 4.31974 2.94405 5.1344 2.41258C6.36573 1.60992 7.40196 1.43563 8.44219 1.59016H8.44388C9.50282 1.74699 10.1936 2.43823 11.2778 2.83999C12.35 3.23775 13.2683 3.2882 14.0344 3.07356C14.8005 2.85891 15.646 2.36402 15.646 2.36402C15.646 2.36402 15.6628 3.08764 15.8647 4.00384C15.9597 4.43544 16.1607 4.99466 16.3211 5.69642V5.69747C16.4527 6.25638 16.5243 6.82773 16.5349 7.40182C16.5452 7.93522 16.5151 8.46863 16.4449 8.99749C16.3684 9.53691 16.3271 10.0807 16.3213 10.6255C16.3131 11.176 16.3562 11.726 16.45 12.2685C16.5407 12.7847 16.6912 13.2886 16.8984 13.77C17.257 14.6004 17.5995 15.3457 17.5995 15.3457Z" fill="white"/>
<path d="M8.67646 4.68179V4.73308L8.59047 4.76987C7.80652 4.8054 6.8365 5.28053 5.89739 5.73968C5.71218 5.82986 5.52213 5.92279 5.33712 6.01003L5.25787 6.00688L5.24609 5.95748C5.51624 5.53091 5.77168 5.09552 6.02101 4.67169C6.28717 4.22243 6.53944 3.79587 6.79593 3.39705L6.88002 3.33398L6.96706 3.34702C7.57106 3.74631 8.14264 4.19261 8.67646 4.68179Z" fill="#D32C20"/>
<path d="M14.6104 6.36219C14.3942 6.40863 14.1736 6.43189 13.9524 6.43156C13.3427 6.43156 12.6746 6.27115 11.9144 5.94466L11.8135 5.86057L11.8194 5.80528C12.2075 5.45987 12.4993 5.18467 12.8011 4.8422L12.8745 4.81445L12.9666 4.8565C13.4644 5.36232 14.0245 5.81852 14.6768 6.25497L14.6878 6.30752L14.6104 6.36219Z" fill="#D32C20"/>
<path d="M15.7515 7.81049C15.7534 8.02913 15.6762 8.25198 15.5257 8.46074C15.3619 8.70777 15.0998 8.85493 14.8235 8.85493C14.7189 8.85665 14.6153 8.83349 14.5213 8.78737C14.4274 8.74124 14.3457 8.67347 14.283 8.58961C14.1694 8.44059 14.0989 8.26322 14.0791 8.07686L14.1138 8.04217L14.1485 8.00664C14.2099 8.00853 14.2681 8.00958 14.3265 8.00958C14.7881 8.01196 15.246 7.92789 15.6767 7.76172L15.7151 7.78548L15.7515 7.81049Z" fill="#183E79"/>
<path d="M16.536 7.40216L16.4142 7.51779C16.2223 7.62774 15.9906 7.71688 15.7522 7.81085L15.7154 7.7871L15.677 7.76208C15.6601 7.50581 15.5235 7.28317 15.2918 7.13264C15.1911 7.06959 15.0743 7.03696 14.9554 7.03867C14.709 7.03867 14.4824 7.16229 14.3329 7.3782C14.2063 7.56318 14.1415 7.78354 14.1479 8.00763L14.1132 8.04316L14.0794 8.07743C13.8803 8.06941 13.6818 8.05089 13.4846 8.02193L13.3955 7.97231L13.3974 7.91891C13.8341 7.47637 14.231 6.96782 14.6109 6.36193L14.6882 6.30664L14.7801 6.32241C15.3324 6.68653 15.8985 7.02206 16.504 7.34288L16.536 7.40216Z" fill="#138DC5"/>
<path d="M14.97 9.59691L14.8781 9.65536C14.5573 9.73146 14.2634 9.77204 13.9853 9.77204H13.9842C13.3884 9.77204 12.8361 9.60679 12.1087 9.21492L12.0078 9.11989L12.0185 9.06629C12.459 8.74463 12.8876 8.42403 13.3192 7.9983L13.3953 7.97266L13.4845 8.02206C13.9991 8.62396 14.486 9.11779 14.9681 9.54141L14.97 9.59691Z" fill="#183E79"/>
<path d="M13.3967 7.92014L13.3948 7.97353L13.3187 7.99918C13.1199 7.96364 12.9233 7.9164 12.7301 7.8577L12.6895 7.80619L12.6449 7.75384C12.6144 7.57662 12.5322 7.38068 12.4113 7.20051C12.1639 6.83134 11.8612 6.60177 11.6226 6.60177C11.546 6.60083 11.4718 6.6279 11.4138 6.67787C11.3038 6.771 11.2643 6.96211 11.3049 7.2064L11.2723 7.23015L11.2395 7.25601C11.0436 7.15804 10.8556 7.05713 10.6883 6.95811L10.5645 6.84522L10.5724 6.79287C11.0118 6.46911 11.3831 6.19097 11.7464 5.87121L11.8137 5.86133L11.9146 5.94542C12.4261 6.69784 12.9132 7.34515 13.3967 7.92014Z" fill="#F4C51D"/>
<path d="M7.01464 6.87118L7.02957 6.91764L6.91562 7.03348C6.6831 7.18064 6.45311 7.31372 6.22984 7.43292L6.1941 7.41189L6.15752 7.38898C6.16152 7.1346 6.06145 6.94371 5.87539 6.85352C5.80958 6.82104 5.73707 6.80447 5.66369 6.80516C5.40342 6.80516 4.98758 7.02486 4.64721 7.5168C4.53025 7.68569 4.45614 7.8805 4.4313 8.08443L4.38926 8.13299L4.35015 8.18219C4.09388 8.24862 3.86515 8.30412 3.58806 8.3407L3.50586 8.314L3.53361 8.23769C4.17797 7.63495 4.66109 6.88463 5.1648 6.08995L5.25878 6.00586L5.33804 6.00901C5.82493 6.28042 6.37427 6.5634 7.01464 6.87118Z" fill="#D32C20"/>
<path d="M12.5053 8.37607C12.4483 8.41363 12.3813 8.43299 12.3131 8.43158C12.0419 8.43158 11.6976 8.1793 11.456 7.80298C11.351 7.63494 11.2775 7.44913 11.2393 7.25469L11.2721 7.22883L11.3046 7.20508C11.6343 7.36759 12.1245 7.58917 12.6447 7.75168L12.6892 7.80403L12.7298 7.85554C12.7418 8.08805 12.6636 8.27222 12.5053 8.37607Z" fill="#183E79"/>
<path d="M5.36263 9.70526L5.35254 9.65564C5.84953 8.95094 6.21575 8.28787 6.5393 7.703C6.67007 7.46628 6.79368 7.24049 6.91541 7.03278L7.02935 6.91694L7.10546 6.91211C7.96741 7.32879 8.52285 7.65738 9.00491 8.04043V8.08983L8.89412 8.14428C8.08052 8.28682 7.28374 8.73293 6.57609 9.12922C6.17833 9.35186 5.80118 9.56272 5.44483 9.71009L5.36263 9.70526Z" fill="#183E79"/>
<path d="M9.01997 11.6321L9.02397 11.6845L8.922 11.7459C8.35438 11.8964 7.80062 12.22 7.2166 12.5595C6.65549 12.8851 6.07545 13.2196 5.45064 13.4185L5.36256 13.4086L5.35352 13.3603C6.01974 12.4893 6.51547 11.5924 6.9866 10.7225L7.09172 10.6037L7.16593 10.5957C7.81601 10.8804 8.43693 11.2275 9.01997 11.6321Z" fill="#119144"/>
<path d="M9.64215 10.6094C9.45988 10.7936 9.17964 10.9038 8.89373 10.9038C8.65532 10.9038 8.43857 10.8306 8.26639 10.691C8.09821 10.5565 8.00108 10.3416 7.99414 10.0952L8.03072 10.0378L8.0713 9.98041C8.52161 9.78742 8.96499 9.68945 9.39072 9.68945C9.5375 9.68956 9.68405 9.70109 9.82905 9.72393L9.87467 9.76955L9.91672 9.81601C9.934 9.96042 9.91827 10.1069 9.87071 10.2443C9.82315 10.3817 9.745 10.5066 9.64215 10.6094Z" fill="white"/>
<path d="M5.36263 13.4076L5.26656 13.474C5.02048 13.544 4.77069 13.6001 4.51834 13.6422C4.30378 13.6783 4.08671 13.6975 3.86914 13.6996C3.75757 13.7006 3.64606 13.6936 3.5355 13.6786L3.50586 13.6365V11.8613L3.58407 11.895C4.09451 12.4716 4.69148 12.9655 5.35359 13.3588L5.36263 13.4076Z" fill="#119144"/>
<path d="M10.7158 10.0428L10.7078 10.098L10.6405 10.1041C10.4208 9.99125 10.1763 9.87036 9.91691 9.81697L9.87486 9.7705L9.82924 9.72488C9.80076 9.56721 9.73828 9.41763 9.64613 9.28655C9.5038 9.09145 9.29988 8.9836 9.07219 8.9836C8.82664 8.9836 8.57142 9.10827 8.37233 9.32607C8.19826 9.51528 8.0923 9.74654 8.07149 9.98137L8.03091 10.0388L7.9937 10.0966C7.74142 10.2143 7.46013 10.3934 7.16623 10.5963L7.09201 10.6043L7.0752 10.5568C7.59426 9.60421 8.17492 8.83518 8.89455 8.14625L9.00534 8.0918L9.09658 8.1185C9.68334 8.60392 10.1873 9.20246 10.7158 10.0428Z" fill="#D32C20"/>
<path d="M12.7958 11.1171C12.8017 11.3875 12.7166 11.612 12.5682 11.7121C12.5193 11.7447 12.4616 11.7616 12.4029 11.7607C12.1555 11.7607 11.8199 11.4815 11.5677 11.0659C11.456 10.8855 11.3791 10.6858 11.3408 10.4772L11.3736 10.4534L11.4073 10.4297C11.809 10.6416 12.2436 10.8573 12.7157 11.0137L12.7578 11.0661L12.7958 11.1171Z" fill="#138DC5"/>
<path d="M10.8082 10.1908C11.3127 10.9975 11.7494 11.6931 12.1976 12.3436L12.1898 12.3949L12.1245 12.397C11.5436 12.0654 10.7725 11.6309 9.81841 11.6309C9.5814 11.6315 9.34501 11.6553 9.11266 11.7022L9.02353 11.6843L9.01953 11.6319C9.46796 11.1291 9.99943 10.6291 10.6408 10.1038L10.7081 10.0977L10.8082 10.1908Z" fill="#119144"/>
<path d="M16.4501 12.268L16.4314 12.3195C16.0283 12.5263 15.5948 12.6966 15.2248 12.7935L15.1407 12.7778L15.1309 12.7244C15.5499 12.0806 15.9214 11.407 16.2424 10.7091L16.3216 10.625C16.3134 11.1755 16.3564 11.7255 16.4501 12.268Z" fill="#119144"/>
<path d="M6.36174 14.9711L6.39916 14.9938C6.40715 15.2263 6.33189 15.4807 6.18052 15.7321C5.96188 16.0944 5.65304 16.2943 5.31058 16.2943C5.1266 16.2932 4.94724 16.2366 4.79593 16.132C4.59389 15.9945 4.45745 15.7618 4.42676 15.5036L4.45934 15.4649L4.49298 15.4262C5.1265 15.3792 5.74621 15.2176 6.322 14.9492L6.36174 14.9711Z" fill="white"/>
<path d="M9.87499 9.76953C10.167 9.82209 10.439 9.95559 10.7084 10.0971C10.0037 10.6702 9.45831 11.1939 9.02376 11.6837C8.41848 11.2588 7.77148 10.8966 7.09277 10.6029C7.41043 10.3792 7.73609 10.1694 8.03104 10.0378C8.02305 10.2901 8.11324 10.5213 8.28942 10.6624C8.69327 10.9859 9.30484 10.8978 9.61662 10.5842C9.72177 10.479 9.80013 10.3501 9.84509 10.2083C9.89006 10.0666 9.90031 9.91609 9.87499 9.76953Z" fill="#F4C51D"/>
<path d="M9.00586 8.0898V8.04039C9.50159 7.58104 10.0095 7.20808 10.4964 6.8488L10.5656 6.84375L10.6894 6.95664C11.018 7.42378 11.3308 7.93738 11.6594 8.47789C11.7761 8.66983 11.897 8.86787 12.0195 9.06654L12.0088 9.12015L11.9405 9.12309C11.8543 9.07453 11.7633 9.02302 11.6701 8.96857C11.01 8.58469 10.1886 8.10662 9.32163 8.10662C9.24637 8.10662 9.17215 8.1104 9.09794 8.11734L9.00586 8.0898Z" fill="#183E79"/>
<path d="M11.2727 7.22956C11.2289 6.99116 11.2537 6.76348 11.3893 6.64974C11.6704 6.41218 12.1188 6.69725 12.4424 7.17911C12.5809 7.38598 12.6682 7.60777 12.6898 7.8056C12.2 7.65676 11.7001 7.44148 11.2727 7.22956Z" fill="white"/>
<path d="M13.0832 14.2815L13.1253 14.3349C13.1343 14.5635 13.0572 14.7615 12.9224 14.8496C12.8717 14.8818 12.8123 14.8977 12.7523 14.8952C12.5097 14.8952 12.1395 14.703 11.903 14.336C11.7684 14.127 11.6705 13.8974 11.627 13.6843L11.6606 13.6584L11.6932 13.6309C11.9337 13.7288 12.1435 13.8276 12.3464 13.9252C12.5831 14.037 12.8076 14.143 13.0372 14.226L13.0832 14.2815Z" fill="white"/>
<path d="M15.1307 12.7249L15.1405 12.7783L15.0623 12.8317C14.7505 12.9028 14.4319 12.9397 14.1121 12.9416C13.4822 12.9411 12.8619 12.7879 12.3041 12.4953L12.1914 12.3942L12.1992 12.3429C12.6527 12.0122 13.0435 11.6451 13.4316 11.265L13.5098 11.2402L13.5939 11.2848C14.0508 11.8207 14.5662 12.3038 15.1307 12.7249Z" fill="#119144"/>
<path d="M15.7601 10.9477C15.7653 11.1903 15.7011 11.4293 15.5751 11.6366C15.4237 11.8862 15.187 12.0306 14.9248 12.0306C14.7598 12.0302 14.6 11.9729 14.4724 11.8683C14.389 11.801 14.3208 11.7166 14.2725 11.6209C14.2242 11.5251 14.1969 11.4202 14.1924 11.3131L14.2279 11.2754L14.2647 11.2368C14.7367 11.212 15.2 11.1012 15.6819 10.9004L15.7216 10.9233L15.7601 10.9477Z" fill="white"/>
<path d="M7.09285 10.6021L6.98773 10.7209C6.73545 10.896 6.5042 11.0506 6.27609 11.1733L6.23951 11.1523L6.20188 11.1313C6.19305 10.9145 6.10496 10.7552 5.93972 10.6564C5.84168 10.5974 5.72931 10.5666 5.61491 10.5672C5.325 10.5672 5.00229 10.7543 4.7292 11.0819C4.57365 11.2674 4.47567 11.4943 4.44728 11.7347L4.40523 11.7792L4.36655 11.8228C4.10726 11.8624 3.84582 11.8866 3.58365 11.8951L3.50586 11.8608L3.53866 11.7826C4.27804 11.1193 4.78176 10.4581 5.26256 9.78223L5.36263 9.70508L5.44568 9.70991C5.97263 10.022 6.51689 10.3039 7.07582 10.5542L7.09285 10.6021Z" fill="#183E79"/>
<path d="M5.36263 9.70703L5.26256 9.78419C4.65289 10.0154 4.12247 10.1325 3.68309 10.1325C3.63452 10.1325 3.58596 10.1307 3.5395 10.1277L3.50586 10.089V8.31445L3.58806 8.34115C4.05225 8.78558 4.68947 9.26155 5.35275 9.65742L5.36263 9.70703Z" fill="#183E79"/>
<path d="M13.8562 14.3804L13.8591 14.4319L13.783 14.4586C13.5596 14.4451 13.3387 14.4036 13.1256 14.335L13.0836 14.2816L13.038 14.2261C13.0142 14.0825 12.948 13.8836 12.7769 13.6658C12.5046 13.3175 12.2046 13.1106 11.9731 13.1106C11.8987 13.1089 11.8264 13.135 11.7703 13.184C11.6841 13.2582 11.6563 13.4205 11.6939 13.6313L11.6614 13.6589L11.6277 13.6847C11.4209 13.6006 11.2407 13.5376 11.0368 13.4745L10.9316 13.4081L10.9327 13.3557C11.3445 12.9727 11.7473 12.6687 12.1253 12.3966L12.1907 12.3945L12.3034 12.4957C12.8277 13.2432 13.3365 13.8609 13.8562 14.3804Z" fill="#183E79"/>
<path d="M12.8752 4.81515L12.8672 4.75208C13.2036 4.3621 13.5916 3.86427 13.9549 3.12783L14.035 3.07422L14.1212 3.08893C14.5646 3.39293 15.2565 3.74318 15.8216 3.94921L15.8662 4.0045L15.7751 4.12139C15.5959 4.25611 15.4047 4.37405 15.2039 4.47374L15.1633 4.45271L15.1213 4.43169C15.0708 4.1832 14.9111 3.98432 14.667 3.86953C14.5817 3.82846 14.4883 3.80692 14.3937 3.80646C14.1235 3.80646 13.8633 3.98747 13.7317 4.26666C13.6519 4.43167 13.6227 4.61655 13.6476 4.79813L13.6169 4.83576L13.5866 4.87465C13.5212 4.87759 13.455 4.87843 13.3875 4.87843C13.2511 4.87843 13.1075 4.86855 12.967 4.85741L12.8752 4.81515Z" fill="#D32C20"/>
<path d="M16.3208 10.625L16.2415 10.7091C16.0803 10.7972 15.918 10.8773 15.7595 10.9464L15.721 10.9218L15.6813 10.8989C15.6645 10.7238 15.5993 10.5783 15.4944 10.4862C15.3895 10.3926 15.2538 10.3409 15.1132 10.3408C14.8855 10.3408 14.6507 10.4715 14.4689 10.6982C14.3456 10.8509 14.274 11.0387 14.2641 11.2347L14.2273 11.2734L14.1918 11.311C14.1472 11.3129 14.1018 11.3139 14.0572 11.3139C13.9013 11.3125 13.7457 11.3023 13.5909 11.2832L13.5068 11.2387L13.5087 11.1842C13.9957 10.7028 14.4526 10.1918 14.8767 9.65415L14.9686 9.5957L15.0459 9.61441C15.4403 9.95318 15.8545 10.2682 16.2863 10.5577L16.3208 10.625Z" fill="#183E79"/>
<path d="M5.25878 6.00573L5.16459 6.08982C4.50446 6.39066 3.92044 6.56579 3.5395 6.57567L3.50586 6.53909V4.76367L3.58701 4.78743C4.03838 5.19423 4.61042 5.59703 5.2468 5.95632L5.25878 6.00573Z" fill="#D32C20"/>
<path d="M4.3125 4.57666L4.35013 4.52389L4.38987 4.47028C4.80444 4.31303 5.15196 4.11709 5.48833 3.92704C5.66955 3.82508 5.85561 3.72017 6.0486 3.62305L6.08728 3.64596L6.12576 3.66699C6.14068 3.92137 6.06542 4.21359 5.91699 4.47659C5.65862 4.93195 5.27558 5.21409 4.91734 5.21409C4.77523 5.21484 4.63682 5.16889 4.52336 5.08332C4.39071 4.9864 4.31523 4.80329 4.3125 4.57666Z" fill="white"/>
<path d="M6.19415 7.41138L6.22989 7.4324C6.21791 7.66218 6.13192 7.91594 5.97951 8.17074C5.69338 8.64797 5.31139 8.93199 4.95904 8.93199C4.82847 8.93252 4.70129 8.89045 4.59681 8.81216C4.43135 8.69043 4.34137 8.45686 4.3502 8.18146L4.38994 8.13311L4.43198 8.08454C4.9952 7.90837 5.56724 7.70444 6.1582 7.38867L6.19415 7.41138Z" fill="#183E79"/>
<path d="M8.15123 7.1338C8.06292 7.05554 7.99182 6.95981 7.94242 6.85266C7.89302 6.74551 7.86641 6.62927 7.86426 6.5113L7.90294 6.4579L7.94499 6.40345C8.51032 6.21152 9.12202 6.20415 9.69181 6.38242L9.73869 6.43666L9.78074 6.49006C9.79545 6.74655 9.71136 6.98789 9.54612 7.16281C9.39559 7.32216 9.15803 7.41214 8.89187 7.41214C8.61903 7.41434 8.35509 7.31515 8.15123 7.1338Z" fill="#183E79"/>
<path d="M10.9321 13.3547L10.931 13.407L10.8619 13.4238C10.6382 13.3675 10.3783 13.3379 10.0859 13.3288L10.0453 13.2903L10.0033 13.2529C9.97553 13.0578 9.88639 12.8718 9.7449 12.746C9.60342 12.6203 9.44007 12.5531 9.26978 12.5531C8.96305 12.5531 8.64434 12.7709 8.4156 13.135C8.29304 13.3311 8.20096 13.5538 8.18435 13.7468L8.14482 13.8098L8.10908 13.8729C7.83578 14.0274 7.5835 14.2332 7.33312 14.4163L7.26584 14.4262L7.24902 14.3768C7.68547 13.5058 8.11897 12.6685 8.92163 11.743L9.0236 11.6816L9.11274 11.6995C9.78079 12.1795 10.3913 12.7349 10.9321 13.3547Z" fill="#D32C20"/>
<path d="M8.7687 4.76885L8.67578 4.73311V4.68181C9.1528 4.19975 9.74061 3.78916 10.1613 3.51376L10.2336 3.50977L10.3732 3.63359C10.7701 4.17095 11.1164 4.71145 11.4244 5.19436C11.5658 5.41615 11.6977 5.62597 11.8192 5.80614L11.8133 5.86143L11.746 5.87131C11.5301 5.77334 11.3094 5.66465 11.0943 5.55869C10.3396 5.18448 9.55666 4.79555 8.7687 4.76885Z" fill="#D32C20"/>
<path d="M12.1091 9.21612C12.4692 9.793 12.9424 10.5116 13.5105 11.1866L13.5086 11.2411L13.4304 11.2659C13.2156 11.2314 13.0036 11.1817 12.7959 11.1173L12.7572 11.0668L12.7152 11.0144C12.6941 10.8305 12.6352 10.6529 12.5419 10.4929C12.2638 10.0177 11.952 9.8485 11.7689 9.8485C11.7217 9.84914 11.6751 9.85917 11.6317 9.87801C11.5884 9.89685 11.5493 9.92412 11.5166 9.95824C11.4176 10.0554 11.3781 10.2217 11.4058 10.4304L11.3722 10.4542L11.3394 10.4779C11.2425 10.4275 11.1475 10.3751 11.0535 10.3245C10.9684 10.2791 10.8872 10.2334 10.8061 10.191L10.707 10.0978L10.715 10.0425C11.097 9.73371 11.4523 9.47723 11.7967 9.22684C11.8452 9.19236 11.8909 9.15852 11.9384 9.12404L12.0067 9.12109L12.1091 9.21612Z" fill="#D32C20"/>
<path d="M16.2069 14.0445C16.2723 14.2964 16.2365 14.564 16.107 14.7898C15.9824 15.0057 15.7286 15.1402 15.4469 15.1402C15.2728 15.1414 15.1026 15.0885 14.9598 14.9889C14.766 14.8522 14.6432 14.6632 14.6045 14.4454L14.6362 14.4034L14.6688 14.3613C15.2083 14.2909 15.7002 14.1406 16.114 13.998L16.1615 14.0208L16.2069 14.0445Z" fill="white"/>
<path d="M16.322 5.69691V5.69796L16.298 5.75535C15.8309 6.03034 15.2765 6.19684 14.7807 6.32298L14.6887 6.30721L14.6777 6.25466C15.037 5.66874 15.3974 4.96908 15.7754 4.1208L15.8664 4.00391C15.9616 4.43593 16.1616 4.99515 16.322 5.69691Z" fill="#D32C20"/>
<path d="M16.4454 8.9978L16.3979 9.06696C15.9704 9.30108 15.5175 9.4854 15.048 9.6163L14.9709 9.59759L14.9688 9.54209C15.3814 9.01462 15.8427 8.37025 16.4149 7.51797L16.5367 7.40234C16.5465 7.9357 16.516 8.46904 16.4454 8.9978Z" fill="#183E79"/>
<path d="M10.5724 6.79291L10.5644 6.84526L10.4953 6.8503C10.235 6.69683 10.029 6.577 9.78047 6.49186L9.73884 6.43804L9.69238 6.38359C9.65846 6.20207 9.57484 6.03351 9.45082 5.89669C9.25299 5.67405 9.01144 5.55128 8.77093 5.55128C8.55607 5.55128 8.3532 5.64525 8.19489 5.82942C8.05582 5.99162 7.96892 6.19202 7.94556 6.4044L7.90351 6.45885L7.86483 6.51225C7.59952 6.60833 7.37982 6.74098 7.10568 6.91316L7.02958 6.918L7.01465 6.87154C7.53035 6.0264 8.04689 5.33852 8.59139 4.76921L8.67654 4.73242L8.76946 4.76816C9.43517 5.38253 10.039 6.06069 10.5724 6.79291Z" fill="#138DC5"/>
<path d="M12.7567 11.0666C13.002 11.145 13.2533 11.2033 13.5081 11.2409C13.0626 11.6763 12.6627 12.0535 12.1897 12.3949C11.7117 11.707 11.2384 10.947 10.708 10.0977C10.9237 10.2106 11.1455 10.3323 11.3732 10.454C11.4097 10.6643 11.4863 10.8655 11.5988 11.0469C11.8828 11.514 12.3016 11.8447 12.5469 11.6813C12.6955 11.5823 12.7746 11.3439 12.7567 11.0666Z" fill="#183E79"/>
<path d="M13.8958 5.37495C13.739 5.2478 13.6297 5.0713 13.5859 4.87418L13.6156 4.8355L13.6463 4.79787C14.1788 4.76822 14.6745 4.6444 15.1211 4.43164L15.1631 4.45266L15.2037 4.47369C15.2267 4.6501 15.2036 4.82947 15.1364 4.99422C14.985 5.37727 14.7288 5.59612 14.4317 5.59612C14.2551 5.59654 14.0749 5.52149 13.8958 5.37495Z" fill="#119144"/>
<path d="M15.5183 10.4597C15.6409 10.5678 15.7075 10.7349 15.7212 10.9222C15.1876 11.1478 14.6927 11.2538 14.2285 11.2746C14.2294 11.0565 14.3045 10.8453 14.4415 10.6756C14.76 10.2777 15.2114 10.1906 15.5183 10.4597Z" fill="#138DC5"/>
<path d="M16.8979 13.771L16.8396 13.8254C16.704 13.8675 16.5743 13.9164 16.4131 13.974C16.3466 13.9968 16.2775 14.0216 16.2071 14.0462L16.1616 14.0224L16.1141 13.9997C16.0574 13.8327 15.9416 13.6922 15.7885 13.6047C15.667 13.5327 15.5288 13.4938 15.3876 13.492C15.1563 13.492 14.9461 13.6078 14.8105 13.8086C14.7037 13.9728 14.6539 14.1677 14.669 14.363L14.6364 14.405L14.6047 14.4471C14.43 14.4647 14.2546 14.4726 14.0791 14.4708C14.037 14.4708 13.992 14.4698 13.9494 14.4689L13.8594 14.4321L13.8564 14.3806C14.2994 13.8981 14.7026 13.3804 15.0619 12.8327L15.1401 12.7793L15.2242 12.7951C15.7276 13.1565 16.2689 13.4619 16.8386 13.7058L16.8979 13.771Z" fill="#138DC5"/>
<path d="M9.39998 15.3464C7.91931 16.0075 7.33739 16.7835 5.54495 17.1497L5.53906 17.1003C6.3041 16.2609 6.69913 15.4958 7.07902 14.7218C7.10782 14.6644 7.13557 14.607 7.16311 14.5496L7.26507 14.4279L7.33235 14.418C7.69268 14.5862 8.05492 14.707 8.40453 14.8595C8.75415 15.0119 9.07728 15.1523 9.38443 15.2948L9.39998 15.3464Z" fill="#F4C51D"/>
<path d="M7.90332 6.45815C7.91493 6.217 8.00692 5.98668 8.16464 5.8039C8.53171 5.37839 9.08504 5.42674 9.47901 5.87012C9.62209 6.02779 9.71292 6.22583 9.73907 6.43712C9.13949 6.2435 8.54369 6.23656 7.90332 6.45815Z" fill="#F4C51D"/>
<path d="M10.086 13.3305C10.0998 13.6021 10.0143 13.8695 9.84548 14.0827C9.58605 14.4174 9.27028 14.6024 8.95367 14.6024C8.82395 14.6016 8.69597 14.5725 8.57861 14.5173C8.30048 14.3886 8.1243 14.162 8.10938 13.8758L8.14511 13.8128L8.18464 13.7497C8.8023 13.4171 9.40903 13.2578 10.0038 13.2559L10.0458 13.2933L10.086 13.3305Z" fill="#F4C51D"/>
<path d="M15.7093 15.7724C14.4157 16.1891 13.3705 16.1277 12.4629 15.6253L12.4768 15.5689C12.9271 15.2809 13.3408 14.9216 13.7823 14.4564L13.8584 14.4297L13.9488 14.4661C14.7563 15.2471 15.559 15.6539 15.7026 15.7241L15.7093 15.7724Z" fill="#F4C51D"/>
<path d="M14.6377 14.4028C14.6113 14.1868 14.6621 13.9684 14.7811 13.7862C14.9999 13.4597 15.4097 13.3447 15.8085 13.5705C15.98 13.6696 16.1069 13.8308 16.1629 14.0209C15.7246 14.1735 15.2099 14.3337 14.6377 14.4028Z" fill="#F4C51D"/>
<path d="M6.20106 11.1309L6.2387 11.1519L6.27528 11.1729C6.27528 11.441 6.16259 11.7597 5.9675 12.0517C5.73897 12.3941 5.41921 12.5901 5.09062 12.5901C4.91041 12.5919 4.7355 12.5291 4.59762 12.4131C4.44436 12.2852 4.36216 12.0714 4.36636 11.8221L4.40505 11.7786L4.44709 11.734C5.05962 11.6256 5.65143 11.4221 6.20106 11.1309Z" fill="#F4C51D"/>
<path d="M5.36284 9.70628C4.58183 9.24209 3.92948 8.72912 3.50586 8.3137C3.82773 8.27502 4.07202 8.21658 4.38989 8.13353C4.36886 8.40557 4.44329 8.65512 4.61841 8.78378C4.99956 9.06486 5.55584 8.80481 5.94771 8.15308C6.10602 7.88819 6.18632 7.63171 6.1941 7.41202C6.4653 7.26653 6.74239 7.10318 7.02957 6.91797C6.58219 7.65252 6.12199 8.63536 5.36284 9.70628Z" fill="#119144"/>
<path d="M7.26531 14.4287L7.16335 14.5504C6.92133 14.7192 6.6658 14.8677 6.39936 14.9944L6.36173 14.9717L6.32221 14.9507C6.30119 14.7072 6.17505 14.5113 5.97575 14.4123C5.85891 14.3542 5.73009 14.3244 5.59964 14.3252C5.24435 14.3252 4.87707 14.53 4.66432 14.8458C4.54568 15.0161 4.48555 15.2203 4.49298 15.4277L4.45934 15.4664L4.42675 15.5051C4.31281 15.512 4.2079 15.4901 4.1051 15.4901C3.93507 15.4884 3.76526 15.4778 3.59633 15.4584C4.18272 16.0743 4.83378 16.6252 5.53825 17.1016L5.54414 17.151C4.39711 17.3845 3.50488 17.0936 3.50488 17.0936V15.4126L3.53158 15.3432C4.28485 14.7226 4.77069 14.115 5.26558 13.4746L5.36166 13.4082L5.44974 13.4177C5.94652 13.7078 6.50385 14.0313 7.24807 14.3788L7.26531 14.4287Z" fill="#119144"/>
<path d="M5.54414 17.1501C4.39711 17.3837 3.50488 17.0927 3.50488 17.0927V15.4121L3.59591 15.4575C4.1823 16.0734 4.83336 16.6243 5.53783 17.1007L5.54414 17.1501Z" fill="#F4C51D"/>
<path d="M8.03125 10.037C8.03924 9.79061 8.14015 9.5232 8.34513 9.29951C8.74688 8.86117 9.34373 8.80777 9.67632 9.26293C9.79195 9.42123 9.84745 9.6035 9.8752 9.76875C9.30904 9.66678 8.69643 9.741 8.03125 10.037Z" fill="#183E79"/>
<path d="M10.2436 3.45734L10.2345 3.50864L10.1624 3.51263C9.93187 3.39583 9.69051 3.30169 9.44176 3.23155L9.39487 3.17836L9.34442 3.1258C9.29551 2.94955 9.20869 2.7861 9.09004 2.64689C8.89599 2.42152 8.65759 2.29328 8.43684 2.29328C8.26866 2.29328 8.11414 2.3635 7.97559 2.50204C7.83705 2.64059 7.75969 2.85355 7.76284 3.08102L7.7271 3.12559L7.69262 3.17016C7.46389 3.21221 7.2402 3.26813 6.96711 3.3455L6.87986 3.33246L6.86914 3.28201C7.39956 2.47135 7.88561 1.92117 8.35065 1.6054L8.44336 1.58984H8.44546L8.5716 1.64198C9.0543 2.03301 9.64337 2.67128 10.2436 3.45734Z" fill="#119144"/>
<path d="M12.4777 15.5702L12.4638 15.6266C11.9172 15.3238 10.7248 14.7537 9.39948 15.3465L9.38477 15.2961C9.78298 14.6036 10.2805 13.9733 10.8614 13.425L10.9308 13.4082L11.0359 13.4746C11.5888 14.1261 12.0968 14.817 12.4777 15.5702Z" fill="#F4C51D"/>
<path d="M16.536 7.40234C15.954 8.27123 15.4474 8.99191 14.9702 9.59759C14.4235 9.12057 13.9112 8.58112 13.3955 7.97334C13.6336 8.00973 13.8735 8.03318 14.1141 8.04355C14.1275 8.23429 14.1963 8.41696 14.3121 8.56913C14.601 8.95113 15.1989 8.88785 15.4968 8.44047C15.6542 8.22267 15.7234 7.99688 15.7154 7.78875C15.962 7.68931 16.2648 7.57305 16.536 7.40234Z" fill="#119144"/>
<path d="M17.5996 15.3452C17.5996 15.3452 16.8749 15.3967 15.71 15.7728L15.7041 15.7253C16.1435 15.2534 16.6007 14.4862 16.8394 13.824L16.8978 13.7695C17.2571 14.5999 17.5996 15.3452 17.5996 15.3452Z" fill="#F4C51D"/>
<path d="M6.3623 14.9712C5.7643 15.2524 5.11919 15.4199 4.45991 15.465C4.44255 15.2375 4.5041 15.011 4.63419 14.8236C4.92515 14.3922 5.52095 14.1426 5.99292 14.3773C6.21072 14.4851 6.34632 14.6991 6.3623 14.9712Z" fill="#183E79"/>
<path d="M6.23829 11.1526C5.66551 11.4601 5.04636 11.6721 4.40527 11.7801C4.42582 11.5142 4.5287 11.2612 4.6996 11.0565C5.08853 10.5914 5.57858 10.3974 5.95658 10.624C6.1521 10.7407 6.2343 10.9329 6.23829 11.1526Z" fill="#D32C20"/>
<path d="M6.36229 14.9712C6.68066 14.82 6.98344 14.638 7.26629 14.4277C6.83573 15.2897 6.43482 16.1807 5.54512 17.1496C4.80229 16.6486 4.11823 16.0656 3.50586 15.4116C3.85253 15.457 4.14686 15.4858 4.45989 15.465C4.48092 15.7293 4.61526 15.9639 4.81729 16.1014C5.20033 16.3617 5.77448 16.335 6.14953 15.7135C6.31078 15.4463 6.37532 15.1898 6.36229 14.9712Z" fill="#D32C20"/>
<path d="M8.72995 4.0668C8.48735 4.0668 8.22897 3.97073 8.0221 3.80443C7.92745 3.72631 7.84942 3.63 7.79262 3.5212C7.73582 3.4124 7.7014 3.29332 7.69141 3.171L7.72609 3.12643L7.76183 3.08207C8.0036 3.0393 8.24856 3.01708 8.49407 3.01564C8.78119 3.01479 9.06715 3.05204 9.34446 3.12643L9.39492 3.17899L9.44138 3.23239C9.47691 3.47983 9.41363 3.70058 9.25932 3.85993C9.12666 3.99553 8.94355 4.0668 8.72995 4.0668Z" fill="#D32C20"/>
<path d="M10.0448 13.2905C9.39647 13.2768 8.76703 13.4658 8.14453 13.8102C8.14937 13.6014 8.2385 13.35 8.38504 13.1164C8.74117 12.5473 9.31532 12.3188 9.76963 12.7195C9.93887 12.8687 10.0251 13.0847 10.0448 13.2905Z" fill="white"/>
<path d="M12.5733 10.4748C12.6792 10.6556 12.7419 10.8585 12.7564 11.0676C12.2636 10.9093 11.8064 10.6837 11.3729 10.455C11.3411 10.2404 11.3729 10.0493 11.4917 9.93341C11.8371 9.59599 12.3112 10.0257 12.5733 10.4748Z" fill="#F4C51D"/>
<path d="M16.898 13.7695C16.6457 14.511 16.1449 15.3156 15.7104 15.7728C15.7104 15.7728 14.7839 15.3463 13.8604 14.4307C14.1199 14.4446 14.3803 14.4353 14.6382 14.403C14.6639 14.6039 14.7658 14.8049 14.9836 14.9584C15.344 15.2107 15.8754 15.1196 16.0768 14.7713C16.1412 14.6586 16.182 14.5339 16.1969 14.405C16.2117 14.276 16.2002 14.1454 16.163 14.021C16.4517 13.9201 16.6842 13.8309 16.898 13.7695Z" fill="#D32C20"/>
<path d="M5.25879 6.00622C6.41507 5.46403 7.69749 4.73452 8.67738 4.73242C8.08452 5.33915 7.55011 6.05983 7.02958 6.91884C6.53868 6.68233 5.89327 6.36172 5.25879 6.00622Z" fill="white"/>
<path d="M13.0836 14.2813C13.3342 14.3688 13.5962 14.4194 13.8614 14.4316C13.4151 14.9088 12.9707 15.3087 12.4649 15.6272C12.1392 14.9755 11.6195 14.2031 10.9316 13.4082C11.1798 13.4776 11.4237 13.5612 11.6622 13.6586C11.7017 13.8636 11.7978 14.099 11.9355 14.3158C12.2166 14.7503 12.7094 14.9465 12.9026 14.8187C13.0291 14.7356 13.1092 14.5336 13.0836 14.2813Z" fill="#138DC5"/>
<path d="M14.97 9.59811C14.519 10.177 14.0307 10.7258 13.5082 11.2411C12.9293 10.558 12.4472 9.83252 12.0078 9.12109C13.0777 9.71794 13.8526 9.88802 14.97 9.59811Z" fill="white"/>
<path d="M16.8986 13.7691C16.2754 13.5094 15.6852 13.1765 15.1406 12.7774C15.5891 12.6695 16.0722 12.4656 16.4502 12.2676C16.5409 12.7838 16.6914 13.2876 16.8986 13.7691Z" fill="#CED1D2"/>
<path d="M16.5364 7.40162C15.9024 7.06806 15.2856 6.7027 14.6885 6.30694C15.2012 6.17912 15.8178 6.00505 16.3216 5.69727C16.4535 6.25614 16.5255 6.82749 16.5364 7.40162Z" fill="#CED1D2"/>
<path d="M6.23867 11.1529C6.51576 11.0057 6.79684 10.8114 7.09285 10.6035C6.56327 11.5813 6.06145 12.5009 5.36284 13.4084C4.66442 12.9967 4.0373 12.4745 3.50586 11.8622C3.83151 11.8491 4.09787 11.8315 4.40565 11.78C4.38989 12.0253 4.4601 12.2511 4.62135 12.3867C4.96677 12.6766 5.54974 12.6133 5.93678 12.0323C6.11884 11.7596 6.24267 11.4329 6.23867 11.1529Z" fill="#D32C20"/>
<path d="M3.58722 4.78764L3.50586 4.76389L3.53571 4.68274C3.98708 4.22969 4.59676 3.29814 5.03909 2.50914L5.13516 2.41222L5.20937 2.40234C5.78737 2.64566 6.34249 2.94011 6.86811 3.28217L6.87904 3.33262L6.79495 3.39569C6.56541 3.46953 6.34172 3.56046 6.12578 3.66773L6.0873 3.64671L6.04862 3.62379C6.0276 3.44173 5.9557 3.30718 5.8428 3.24538C5.76059 3.20047 5.66822 3.17745 5.57455 3.17852C5.24301 3.17852 4.88372 3.41398 4.63523 3.79324C4.49479 4.00789 4.4086 4.2465 4.38989 4.47103L4.35015 4.52401L4.31252 4.57636C4.084 4.66003 3.87608 4.73424 3.58722 4.78764Z" fill="#183E79"/>
<path d="M9.73891 6.4375C10.0299 6.53147 10.2754 6.66876 10.5653 6.8443C10.0528 7.22146 9.52615 7.60639 9.00646 8.09035C8.45229 7.64697 7.8218 7.29756 7.03027 6.91746C7.34562 6.71375 7.60421 6.56217 7.90421 6.45831C7.89866 6.57991 7.92031 6.70121 7.96759 6.81338C8.01487 6.92554 8.08659 7.02574 8.17751 7.10667C8.57527 7.47184 9.22468 7.44998 9.51859 7.13926C9.68656 6.96056 9.76792 6.70218 9.73891 6.4375Z" fill="#D32C20"/>
<path d="M14.6878 6.30786C14.2463 7.02433 13.8206 7.54697 13.3951 7.97353C12.8724 7.35587 12.3529 6.66021 11.8135 5.86133C12.8428 6.32174 13.8128 6.52545 14.6878 6.30786Z" fill="white"/>
<path d="M16.4453 8.99805C16.3688 9.53747 16.3275 10.0813 16.3217 10.6261C15.8496 10.3129 15.3983 9.96944 14.9707 9.59784C15.4114 9.48305 15.9756 9.26925 16.4453 8.99805Z" fill="#CED1D2"/>
<path d="M12.6895 7.80583C12.9203 7.87897 13.1562 7.93518 13.3952 7.97402C12.943 8.42728 12.4887 8.7708 12.0077 9.12126C11.5048 8.3106 11.0524 7.52181 10.5645 6.8457C10.7566 6.96259 11.0001 7.09609 11.2723 7.23064C11.3084 7.42685 11.3816 7.61436 11.488 7.78313C11.7859 8.24732 12.2392 8.50969 12.4856 8.34634C12.6529 8.23555 12.7143 8.03541 12.6895 7.80583Z" fill="#D32C20"/>
<path d="M10.9103 3.969C10.8005 3.89878 10.4591 3.68792 10.374 3.63263L10.2344 3.5088L10.2432 3.45751C10.3254 3.4039 10.4114 3.3465 10.4917 3.29121C10.7183 3.13669 10.9332 2.97734 11.1895 2.84384L11.2786 2.83984L11.3963 2.91006C11.7155 3.25631 12.0159 3.64188 12.2663 3.98582C12.4782 4.27573 12.6781 4.54903 12.8671 4.75296L12.8751 4.81603L12.8017 4.84378C12.6335 4.82108 12.4782 4.7538 12.294 4.69136L12.2436 4.63397L12.1872 4.57363C12.1277 4.37959 12.0159 4.16473 11.8694 3.95891C11.6635 3.67194 11.3616 3.36606 11.131 3.36606C11.1022 3.36566 11.0736 3.37104 11.047 3.38188C11.0203 3.39271 10.996 3.40877 10.9757 3.42913C10.9004 3.50334 10.8996 3.68561 10.9727 3.92002L10.941 3.94377L10.9103 3.969Z" fill="#D32C20"/>
<path d="M16.3207 10.625C15.9826 11.3717 15.5878 12.0914 15.1398 12.7778C14.5092 12.3153 13.976 11.792 13.5078 11.2397C13.7461 11.273 13.9869 11.2846 14.2272 11.2744C14.2272 11.3825 14.2512 11.4892 14.2976 11.5867C14.344 11.6843 14.4116 11.7703 14.4955 11.8385C14.7835 12.0771 15.2733 12.0621 15.5427 11.6158C15.6704 11.4077 15.7325 11.166 15.7209 10.9221C15.9262 10.8342 16.1264 10.735 16.3207 10.625Z" fill="#D32C20"/>
<path d="M5.25878 6.00586C4.72121 6.8552 4.20762 7.67174 3.50586 8.31316V6.53838C3.95029 6.53754 4.63208 6.29997 5.25878 6.00586Z" fill="#CED1D2"/>
<path d="M5.36263 13.4082C4.85681 14.0664 4.33712 14.7365 3.50586 15.4126V13.6369C3.96795 13.7151 4.63607 13.625 5.36263 13.4082Z" fill="#CED1D2"/>
<path d="M5.36263 9.70703C4.8688 10.4037 4.32934 11.1366 3.50586 11.8628V10.089C3.93663 10.1237 4.53915 10.0316 5.36263 9.70703Z" fill="#CED1D2"/>
<path d="M12.0475 5.22547C11.7942 5.22547 11.4368 4.86807 11.1952 4.51278C11.0596 4.3139 10.964 4.13184 10.9102 3.96954L10.9409 3.94368L10.9726 3.91992C11.3775 4.17346 11.7742 4.41397 12.1871 4.57332L12.2435 4.63366L12.2939 4.69106C12.3296 4.87606 12.3097 5.02554 12.2355 5.12855C12.2145 5.15894 12.1864 5.18369 12.1537 5.20059C12.1209 5.2175 12.0844 5.22605 12.0475 5.22547Z" fill="#D32C20"/>
<path d="M12.8067 13.6421C12.9808 13.8639 13.064 14.0876 13.0838 14.2816C12.6324 14.1271 12.2219 13.8857 11.6616 13.6589C11.6181 13.4352 11.6406 13.2462 11.7457 13.1543C11.9763 12.9533 12.4018 13.1236 12.8067 13.6421Z" fill="#D32C20"/>
<path d="M15.7149 7.78621C15.1311 8.01747 14.6055 8.06645 14.1135 8.04354C14.098 7.8002 14.1646 7.5587 14.3027 7.35776C14.566 6.9766 15.0283 6.91921 15.3104 7.10232C15.562 7.26567 15.705 7.51207 15.7149 7.78621Z" fill="#D32C20"/>
<path d="M5.3623 13.4075C6.70044 13.0097 7.83359 11.9497 9.02329 11.6836C8.13843 12.6811 7.68706 13.5851 7.26554 14.428C6.62013 14.1271 5.96883 13.7678 5.3623 13.4075Z" fill="white"/>
<path d="M7.09231 10.6039C6.56273 10.3726 5.94906 10.0545 5.3623 9.70722C6.41347 9.29054 7.6694 8.27764 9.00542 8.0918C8.34635 8.70757 7.69799 9.48248 7.09231 10.6039Z" fill="white"/>
<path d="M15.1399 12.7786C14.7568 13.3635 14.3273 13.9296 13.8602 14.4315C13.2524 13.8287 12.7081 13.1438 12.1895 12.3945C13.1939 12.9657 14.2235 13.0004 15.1399 12.7786Z" fill="white"/>
<path d="M8.67676 4.73243C9.75378 4.72949 10.8098 5.41253 11.8134 5.86075C11.4115 6.21815 10.9935 6.52887 10.5642 6.84464C10.008 6.07862 9.37564 5.37094 8.67676 4.73243Z" fill="#CED1D2"/>
<path d="M9.00586 8.0916C10.1481 7.93435 11.2259 8.68551 12.008 9.12174C11.5991 9.41964 11.1715 9.72153 10.7083 10.0985C10.1462 9.19826 9.62247 8.58649 9.00586 8.0916Z" fill="#CED1D2"/>
<path d="M12.1897 12.3948C11.7968 12.678 11.3652 13.0007 10.9307 13.4083C10.3675 12.7582 9.72699 12.1793 9.02344 11.6844C10.4595 11.3626 11.4354 11.9683 12.1897 12.3948Z" fill="white"/>
<path d="M6.08676 3.64721C5.51472 3.93018 5.02761 4.27664 4.34961 4.52472C4.35676 4.29346 4.44085 4.02331 4.60399 3.77377C4.95739 3.23452 5.50799 3.01861 5.86013 3.21266C5.99468 3.28687 6.07078 3.44728 6.08676 3.64721Z" fill="#F4C51D"/>
<path d="M6.19386 7.41116C5.56737 7.74753 4.97641 7.98026 4.38965 8.13268C4.40837 7.90376 4.48649 7.68369 4.61628 7.4942C4.90913 7.07163 5.46646 6.61122 5.89113 6.81914C6.09989 6.92027 6.20374 7.13702 6.19386 7.41116Z" fill="white"/>
<path d="M7.72612 3.12599C7.71225 2.87665 7.79445 2.63026 7.94876 2.47574C8.33874 2.08681 8.80798 2.26299 9.11765 2.6229C9.25458 2.78244 9.34985 2.97341 9.39495 3.17876C8.86537 3.02613 8.33874 3.01814 7.72612 3.12599Z" fill="#183E79"/>
<path d="M10.0449 13.291C10.3201 13.2961 10.6357 13.3249 10.9306 13.4069C10.3243 13.9713 9.80794 14.6252 9.39949 15.3458C8.75512 15.0439 8.00585 14.7719 7.26562 14.4273C7.56752 14.2017 7.85554 13.9711 8.14461 13.8107C8.13767 14.1334 8.32562 14.3573 8.59387 14.4818C9.03915 14.6867 9.48064 14.4917 9.81512 14.0582C9.9854 13.8393 10.0727 13.571 10.0449 13.291Z" fill="#183E79"/>
<path d="M11.8986 3.93525C12.0639 4.16651 12.1885 4.41437 12.243 4.63217C11.7908 4.46777 11.36 4.20561 10.9395 3.94219C10.8645 3.70673 10.8525 3.49482 10.9486 3.40084C11.1939 3.16139 11.6154 3.54044 11.8986 3.93525Z" fill="#F4C51D"/>
<path d="M15.1626 4.45177C14.6791 4.68744 14.1535 4.80917 13.6157 4.83482C13.5813 4.6362 13.61 4.43177 13.698 4.25037C13.879 3.86922 14.2948 3.65247 14.6827 3.83558C14.9589 3.96571 15.1183 4.1934 15.1626 4.45177Z" fill="white"/>
<path d="M12.8751 4.81531C12.5387 5.20235 12.2139 5.50529 11.8141 5.86143C11.4121 5.26773 10.8827 4.36205 10.2344 3.50977C10.4928 3.64936 10.6698 3.77319 10.941 3.94327C11.0005 4.12743 11.1092 4.31937 11.226 4.48987C11.5399 4.95007 12.015 5.36885 12.2049 5.10543C12.2852 4.99359 12.2911 4.8254 12.2436 4.63241C12.4563 4.71145 12.6554 4.7926 12.8751 4.81531Z" fill="#183E79"/>
<path d="M9.39489 3.17972C9.65705 3.25498 9.96399 3.36283 10.2341 3.51021C9.68481 3.86865 9.12853 4.27041 8.67632 4.73355C8.1173 4.21804 7.51642 3.74985 6.87988 3.33382C7.18977 3.24384 7.45403 3.17447 7.72712 3.12695C7.73176 3.25153 7.76273 3.37372 7.81799 3.48547C7.87325 3.59722 7.95154 3.696 8.04772 3.77531C8.415 4.07216 8.94163 4.13271 9.2326 3.83376C9.40667 3.65359 9.44241 3.41413 9.39489 3.17972Z" fill="#F4C51D"/>
<path d="M15.8656 4.00391C15.4499 4.94827 15.0639 5.69943 14.6883 6.30721C14.022 5.86467 13.4193 5.37778 12.875 4.81456C13.1212 4.84085 13.369 4.84788 13.6163 4.83559C13.6535 5.03657 13.7612 5.21767 13.9201 5.34624C14.4036 5.74211 14.8714 5.56509 15.102 4.98107C15.1703 4.81372 15.1913 4.63081 15.1628 4.45233C15.4134 4.33018 15.6492 4.17972 15.8656 4.00391Z" fill="#F4C51D"/>
<path d="M6.88009 3.33398C6.35661 4.13981 5.84091 5.09195 5.25983 6.0073C4.55912 5.61438 3.95323 5.17709 3.50586 4.76525C3.85274 4.70785 4.08 4.6246 4.35015 4.52537C4.34132 4.75789 4.4086 4.95383 4.54525 5.05579C4.95289 5.35768 5.52893 5.08837 5.88527 4.45999C6.04063 4.1848 6.10707 3.88795 6.0873 3.64744C6.34166 3.51946 6.60699 3.41455 6.88009 3.33398Z" fill="#119144"/>
<path d="M8.44256 1.59016C7.88881 1.93683 7.36744 2.58203 6.8797 3.33298C6.2839 2.94763 5.69293 2.63816 5.13477 2.41258C6.3661 1.60992 7.40233 1.43563 8.44256 1.59016Z" fill="#CED1D2"/>
<path d="M15.8661 4.00331C15.2337 3.77962 14.4735 3.38669 14.0352 3.07303C14.8012 2.85733 15.6468 2.36328 15.6468 2.36328C15.6468 2.36328 15.6642 3.0869 15.8661 4.00331Z" fill="#CED1D2"/>
<path d="M14.0349 3.07341C13.6775 3.8128 13.2974 4.32745 12.8748 4.81435C12.4275 4.35184 11.9277 3.50691 11.2783 2.83984C12.3503 3.2376 13.2688 3.28806 14.0349 3.07341Z" fill="#CED1D2"/>
<path d="M5.13495 2.41211C4.71323 3.17841 4.01651 4.28171 3.50586 4.76377V2.9892C3.50586 2.9892 4.3203 2.94358 5.13495 2.41211Z" fill="#CED1D2"/>
<path d="M11.2778 2.83968C10.8878 3.0312 10.572 3.28789 10.2336 3.50864C9.65669 2.74865 8.99656 2.00842 8.44238 1.58984H8.44385C9.5028 1.74668 10.1936 2.43792 11.2778 2.83968Z" fill="#CED1D2"/>
</svg>
