<svg width="10" height="11" viewBox="0 0 10 11" fill="none" xmlns="http://www.w3.org/2000/svg">
<path fill-rule="evenodd" clip-rule="evenodd" d="M3.79955 1.88087C3.78473 1.79196 3.74176 1.60524 3.68841 1.56967C3.62172 1.52521 3.77732 1.36961 3.84401 1.4363C3.91069 1.50299 4.08854 1.92536 4.11077 2.03651C4.133 2.14765 4.51088 3.01457 4.5998 3.05903C4.68871 3.10348 4.77763 3.348 4.73317 3.52583C4.6976 3.66809 5.10365 3.91113 5.31112 4.01486L4.88877 8.32723C4.87395 8.4606 4.8532 8.73179 4.88877 8.74957C4.93323 8.7718 5.11106 8.97186 5.11106 9.083C5.11106 9.14167 5.07389 9.28086 5.0388 9.41229C5.00742 9.52984 4.97769 9.6412 4.97769 9.68318C4.97769 9.77209 4.82208 9.94992 4.68871 9.94992C4.55534 9.94992 4.48865 9.77209 4.51088 9.72763C4.5166 9.7162 4.50614 9.72535 4.48555 9.74338C4.4261 9.79541 4.28223 9.92133 4.19968 9.83878C4.17663 9.75808 4.18944 9.61761 4.20092 9.49175C4.21158 9.37493 4.22108 9.2707 4.19968 9.2386C4.15522 9.17192 4.11077 8.99409 4.11077 8.94963C4.11077 8.93355 4.06718 8.83611 4.01257 8.71404C3.91615 8.49849 3.78537 8.20616 3.79957 8.1494C3.81154 8.10148 3.70087 7.71788 3.59974 7.36735C3.5132 7.06743 3.43366 6.79172 3.44391 6.77122C3.46614 6.72676 3.5773 5.83761 3.5773 5.7487C3.5773 5.70424 3.54395 5.6709 3.51339 5.64033C3.48282 5.60977 3.45504 5.58198 3.46615 5.54864C3.48838 5.48195 3.64398 4.14823 3.5773 4.08155C3.51061 4.01486 3.08827 3.5036 3.08827 3.1924C3.05203 3.02332 3.04861 2.76894 3.04591 2.56829C3.04364 2.39964 3.04188 2.26895 3.02158 2.25879C2.97712 2.23657 2.95489 2.05874 3.02158 1.99205C3.08827 1.92536 3.08827 1.6141 3.08827 1.56967C3.08827 1.53413 3.14753 1.46595 3.17716 1.4363L3.22162 1.61416L3.28831 1.4363L3.33276 1.61416L3.46615 1.50302L3.33276 1.88087C3.37723 1.88829 3.46615 1.91203 3.46615 1.94759C3.46615 1.96373 3.42806 1.98574 3.38166 2.01253C3.30026 2.05954 3.1933 2.12132 3.22162 2.19211C3.23214 2.21841 3.24266 2.29451 3.25701 2.3983C3.3033 2.73311 3.38944 3.35615 3.64396 3.52583C3.91071 3.70366 3.9774 3.68884 3.9774 3.6592C3.96999 3.59992 3.95961 3.47248 3.9774 3.43691C3.99962 3.39246 4.26637 3.1924 4.2886 3.1924C4.31083 3.1924 4.02187 2.32548 3.91071 2.25879C3.79955 2.19211 3.59952 1.9253 3.64396 1.88087C3.68386 1.84099 3.72376 1.85477 3.77975 1.87412C3.78614 1.87632 3.79273 1.8786 3.79955 1.88087ZM4.28858 8.26054C4.3034 8.41614 4.38638 8.75401 4.59978 8.86071C4.59978 8.71015 4.55151 8.58977 4.51155 8.49012C4.47482 8.39851 4.44511 8.32442 4.46641 8.26054C4.50197 8.15384 4.17003 7.50476 3.99961 7.19356L3.77732 7.59368L4.28858 8.26054Z" fill="#009F3E"/>
<path fill-rule="evenodd" clip-rule="evenodd" d="M5.66624 2.4363L5.46618 2.32515L5.59955 2.23624H5.31058V2.08064L5.55509 1.94727L5.88852 2.08064C6.02931 2.1251 6.32421 2.23624 6.37755 2.32515C6.4309 2.41407 6.62207 2.4363 6.71098 2.4363L7.08887 2.85864L6.37755 3.43659C6.28864 3.58478 6.08858 3.90784 5.99967 4.01453C5.97126 4.04863 5.93123 4.09288 5.88737 4.14137C5.75967 4.28257 5.59955 4.45961 5.59955 4.52579C5.59955 4.57344 5.6187 4.71685 5.63648 4.84996C5.65187 4.96523 5.66624 5.07279 5.66624 5.10374C5.66624 5.17042 5.66624 5.63723 5.59955 5.88174C5.5462 6.07735 5.57732 6.25963 5.59955 6.32632C5.70328 6.34114 5.92853 6.38856 5.99967 6.45969C6.02476 6.48478 6.0534 6.52405 6.08508 6.56748C6.16564 6.67793 6.26587 6.81535 6.37755 6.81535C6.53316 6.81535 6.73321 6.79312 6.73321 6.77089C6.73321 6.74866 6.84436 6.74866 6.86659 6.81535C6.8777 6.84869 6.90549 6.94316 6.93327 7.03763C6.96106 7.13211 6.98884 7.22658 6.99996 7.25992C7.00551 7.27659 7.02219 7.30299 7.04303 7.33598C7.10554 7.43497 7.20557 7.59335 7.15556 7.72672C7.09573 7.88627 7.05379 7.88478 6.99764 7.88279C6.99121 7.88256 6.98459 7.88232 6.97773 7.88232C6.9314 7.88232 6.8636 7.72136 6.81908 7.61565C6.79952 7.56922 6.78445 7.53345 6.77767 7.52666C6.7764 7.52539 6.77329 7.52199 6.76846 7.51671C6.68913 7.4299 6.14434 6.83375 5.59955 6.77089C5.69349 7.01512 5.72391 7.02118 5.77134 7.03062C5.78003 7.03235 5.78928 7.03419 5.79961 7.03763C5.86629 7.05986 6.04412 7.25992 6.13304 7.45998C6.22195 7.66004 6.57761 8.12684 6.62207 8.12684C6.6338 8.12684 6.6548 8.12375 6.68019 8.12001C6.75106 8.10957 6.85608 8.09411 6.88881 8.12684C6.93327 8.1713 6.93327 8.34913 6.86659 8.43804V9.03822C6.7999 9.11972 6.63096 9.28273 6.4887 9.28273C6.37189 9.28273 6.40853 9.2156 6.44744 9.14432C6.46776 9.10709 6.4887 9.06873 6.4887 9.03822C6.4887 9.01945 6.48969 8.99277 6.49083 8.96193C6.49511 8.84662 6.50154 8.67317 6.46647 8.6381C6.45493 8.62656 6.40744 8.54462 6.34033 8.42883C6.14892 8.09856 5.7979 7.4929 5.66624 7.45998C5.52397 7.42441 4.866 6.12626 4.5548 5.48163L4.7104 5.10374C4.7845 4.77031 4.93269 4.08566 4.93269 4.01453C4.75486 4.01453 3.97686 3.90339 3.75457 3.79225H3.08771C3.06548 3.82188 3.00769 3.88116 2.95434 3.88116C2.93355 3.88116 2.90412 3.88548 2.87278 3.89008C2.8036 3.90024 2.72512 3.91176 2.70982 3.88116C2.70241 3.86634 2.68759 3.84905 2.67277 3.83176C2.64314 3.79719 2.6135 3.76261 2.64314 3.74779C2.654 3.74236 2.68077 3.72366 2.71634 3.69883C2.82637 3.62202 3.02051 3.48647 3.08771 3.50327C3.02103 3.39213 3.08772 3.3699 3.13218 3.39213C3.17663 3.41436 3.39892 3.50327 3.48784 3.50327C3.5134 3.50327 3.60327 3.51246 3.721 3.5245C4.01276 3.55432 4.47561 3.60163 4.5548 3.56996C4.66596 3.5255 4.97716 3.45882 5.04384 3.45882C5.08385 3.45882 5.14787 3.36279 5.20229 3.28116C5.23857 3.22675 5.27058 3.17873 5.28836 3.16984C5.30723 3.16041 5.36614 3.16299 5.4277 3.16568C5.51119 3.16934 5.59955 3.1732 5.59955 3.14761C5.59955 3.12539 5.57732 3.10871 5.5551 3.09204C5.53287 3.07537 5.51065 3.0587 5.51065 3.03647C5.51065 2.99201 5.53285 2.4363 5.66624 2.4363ZM6.3331 2.70307L6.46647 2.81422L6.22196 2.99205C6.22936 2.89572 6.26197 2.70307 6.3331 2.70307Z" fill="#E32025"/>
<path fill-rule="evenodd" clip-rule="evenodd" d="M4.60043 5.06088C4.77085 5.04606 5.10725 5.09645 5.08946 5.41654C5.07168 5.73663 4.94868 5.84627 4.88941 5.86108C5.00055 5.97964 5.23173 6.23008 5.26729 6.28343C5.31175 6.35011 5.42289 6.83915 5.42289 6.90583C5.42289 6.93345 5.47247 7.01828 5.53056 7.11767C5.61271 7.25822 5.71187 7.42788 5.71187 7.50601C5.71187 7.55649 5.72779 7.67069 5.74638 7.80398C5.7769 8.02279 5.8146 8.29306 5.80078 8.41738C5.783 8.57743 5.91192 8.92864 5.97861 9.08424C6.06012 9.0546 6.24536 9.01311 6.33427 9.08424C6.44541 9.17316 6.6677 9.2843 6.73439 9.2843C6.7711 9.2843 6.88191 9.31125 6.98153 9.33547C7.06287 9.35525 7.13675 9.37322 7.15673 9.37322C7.20119 9.37322 7.62353 9.63996 7.71245 9.79556C7.80136 9.95116 7.82359 10.1068 7.66799 10.1068H7.22342C7.20119 10.0178 7.13895 9.83113 7.06782 9.79556C6.9789 9.7511 6.71216 9.61773 6.57879 9.63996C6.44541 9.66219 6.02307 9.61773 5.8897 9.5955C5.75632 9.57327 5.62295 9.52882 5.51181 9.41767C5.44373 9.34959 5.25886 9.00625 5.11562 8.74021C5.02503 8.57194 4.95109 8.43461 4.93386 8.41738C4.89019 8.40646 4.77814 8.38884 4.63393 8.36616C4.19095 8.2965 3.44454 8.17911 3.44454 8.06172C3.44454 8.11117 3.44545 8.16244 3.44635 8.21313C3.4499 8.41312 3.45328 8.6042 3.40008 8.63967C3.39412 8.64365 3.38797 8.64762 3.38173 8.65166C3.3182 8.69279 3.24448 8.74051 3.24448 8.86196V9.41767C3.26671 9.43249 3.31117 9.47547 3.31117 9.52882V9.72887H2.91105C2.874 9.78815 2.77768 9.9067 2.68877 9.9067H2.33311C2.27383 9.87707 2.17306 9.79556 2.24419 9.70665C2.27925 9.66283 2.37649 9.58446 2.48281 9.49879C2.64616 9.36715 2.83092 9.21825 2.84439 9.15093C2.86217 9.06201 2.86662 8.77304 2.86662 8.63967C2.81475 8.6619 2.69323 8.70636 2.6221 8.70636C2.53319 8.70636 2.24417 8.59521 2.33311 8.37293C2.38637 8.2398 2.51138 8.08276 2.61742 7.94955C2.68844 7.86032 2.75095 7.78179 2.7777 7.72829C2.84439 7.59492 3.37783 6.86137 3.44454 6.79469C3.50214 6.73711 3.60944 6.39779 3.65198 6.26327C3.65871 6.242 3.66381 6.22585 3.66685 6.21674C3.68908 6.15006 4.02251 5.7944 4.24479 5.86108C4.17811 5.59434 4.31146 5.06088 4.60043 5.06088ZM4.02252 6.59464L4.15589 6.92807L3.60017 7.2615C3.6965 7.03921 3.91582 6.59464 4.02252 6.59464ZM3.95583 7.52824L4.51155 7.5727L4.33372 7.30596L3.95583 7.52824Z" fill="white"/>
</svg>
