<svg width="2500" height="2500" viewBox="0 0 2500 2500" fill="none" xmlns="http://www.w3.org/2000/svg">
<path d="M2134.5 1917C2148.1 1879.8 2140.17 1327.83 2134.5 1056.5L361 1043V1889C365.167 1919.33 399 2000 501 2080C628.5 2180 739 2143.5 884.5 2143.5C1000.9 2143.5 1168.33 2296.83 1237.5 2373.5C1237.5 2373.5 1538 2134 1574 2143.5C1610 2153 1731 2143.5 1797.5 2143.5C2057.5 2153.5 2117.5 1963.5 2134.5 1917Z" fill="white"/>
<path d="M365.423 1890.46C365.423 2015.94 601.058 2176.95 812.491 2145.26C1035.38 2109.75 1302.85 2439.37 1225.16 2379.78C1351.27 2265.69 1474.81 2146.52 1670.95 2132.57C2027.59 2184.55 2134.59 2015.94 2134.59 1879.02L2134.6 205.662C1822.54 413.581 1499.03 414.839 1225.18 113.123C939.867 413.568 654.545 392.012 365.423 205.662V1890.45" stroke="#0E4C7D" stroke-width="32.9432" stroke-miterlimit="2.613" stroke-linecap="round" stroke-linejoin="round"/>
<path fill-rule="evenodd" clip-rule="evenodd" d="M365.423 205.662C654.545 392.012 939.867 413.568 1225.18 113.123C1499.03 414.839 1822.54 413.581 2134.6 205.662V1081.64H365.423V205.662Z" fill="#0E4C7D"/>
<path fill-rule="evenodd" clip-rule="evenodd" d="M462.23 976.428L406.174 934.588L477.508 930.788L501.71 864.862L525.911 930.788L595.961 934.588L539.919 976.428L561.578 1042.34L501.71 1004.31L444.396 1042.34L462.23 976.428ZM462.23 762.181L406.174 720.353L477.508 716.553L501.71 650.628L525.911 716.553L595.961 720.353L539.919 762.181L561.578 828.106L501.71 790.079L444.396 828.106L462.23 762.181ZM462.23 547.946L406.174 506.106L477.508 502.306L501.71 436.38L525.911 502.306L595.961 506.106L539.919 547.946L561.578 613.859L501.71 575.831L444.396 613.859L462.23 547.946ZM677.476 976.428L621.434 934.588L692.767 930.788L716.969 864.862L741.17 930.788L811.22 934.588L755.178 976.428L776.824 1042.34L716.969 1004.31L659.642 1042.34L677.476 976.428ZM677.476 762.181L621.434 720.353L692.767 716.553L716.969 650.628L741.17 716.553L811.22 720.353L755.178 762.181L776.824 828.106L716.969 790.079L659.642 828.106L677.476 762.181ZM677.476 547.946L621.434 506.106L692.767 502.306L716.969 436.38L741.17 502.306L811.22 506.106L755.178 547.946L776.824 613.859L716.969 575.831L659.642 613.859L677.476 547.946ZM892.735 976.428L836.693 934.588L908.013 930.788L932.215 864.862L956.417 930.788L1026.47 934.588L971.695 976.428L992.083 1042.34L932.215 1004.31L874.902 1042.34L892.735 976.428ZM892.735 762.181L836.693 720.353L908.013 716.553L932.215 650.628L956.417 716.553L1026.47 720.353L971.695 762.181L992.083 828.106L932.215 790.079L874.902 828.106L892.735 762.181ZM892.735 547.946L836.693 506.106L908.013 502.306L932.215 436.38L956.417 502.306L1026.47 506.106L971.695 547.946L992.083 613.859L932.215 575.831L874.902 613.859L892.735 547.946ZM1186.95 348.912L1129.64 308.343L1200.96 304.543L1226.45 237.359L1249.36 304.543L1318.16 308.343L1263.39 348.912L1285.02 416.109L1226.45 378.068L1167.85 416.109L1186.95 348.912ZM1107.98 976.428L1051.94 934.588L1123.27 930.788L1147.47 864.862L1171.68 930.788L1241.73 934.588L1186.95 976.428L1207.33 1042.34L1147.47 1004.31L1090.15 1042.34L1107.98 976.428ZM1107.98 762.181L1051.94 720.353L1123.27 716.553L1147.47 650.628L1171.68 716.553L1241.73 720.353L1186.95 762.181L1207.33 828.106L1147.47 790.079L1090.15 828.106L1107.98 762.181ZM1107.98 547.946L1051.94 506.106L1123.27 502.306L1147.47 436.38L1171.68 502.306L1241.73 506.106L1186.95 547.946L1207.33 613.859L1147.47 575.831L1090.15 613.859L1107.98 547.946ZM1321.96 976.428L1265.91 934.588L1337.25 930.788L1361.45 864.862L1385.64 930.788L1455.7 934.588L1400.94 976.428L1421.3 1042.34L1361.45 1004.31L1304.15 1042.34L1321.96 976.428ZM1321.96 762.181L1265.91 720.353L1337.25 716.553L1361.45 650.628L1385.64 716.553L1455.7 720.353L1400.94 762.181L1421.3 828.106L1361.45 790.079L1304.15 828.106L1321.96 762.181ZM1321.96 547.946L1265.91 506.106L1337.25 502.306L1361.45 436.38L1385.64 502.306L1455.7 506.106L1400.94 547.946L1421.3 613.859L1361.45 575.831L1304.15 613.859L1321.96 547.946ZM1537.22 976.428L1481.19 934.588L1552.49 930.788L1576.71 864.862L1600.91 930.788L1670.95 934.588L1616.18 976.428L1636.58 1042.34L1576.71 1004.31L1519.38 1042.34L1537.22 976.428ZM1537.22 762.181L1481.19 720.353L1552.49 716.553L1576.71 650.628L1600.91 716.553L1670.95 720.353L1616.18 762.181L1636.58 828.106L1576.71 790.079L1519.38 828.106L1537.22 762.181ZM1537.22 547.946L1481.19 506.106L1552.49 502.306L1576.71 436.38L1600.91 502.306L1670.95 506.106L1616.18 547.946L1636.58 613.859L1576.71 575.831L1519.38 613.859L1537.22 547.946ZM1752.46 976.428L1696.43 934.588L1767.77 930.788L1791.95 864.862L1816.14 930.788L1886.22 934.588L1831.45 976.428L1851.81 1042.34L1791.95 1004.31L1734.63 1042.34L1752.46 976.428ZM1752.46 762.181L1696.43 720.353L1767.77 716.553L1791.95 650.628L1816.14 716.553L1886.22 720.353L1831.45 762.181L1851.81 828.106L1791.95 790.079L1734.63 828.106L1752.46 762.181ZM1752.46 547.946L1696.43 506.106L1767.77 502.306L1791.95 436.38L1816.14 502.306L1886.22 506.106L1831.45 547.946L1851.81 613.859L1791.95 575.831L1734.63 613.859L1752.46 547.946ZM1967.73 976.428L1911.68 934.588L1983.01 930.788L2007.23 864.862L2031.42 930.788L2101.45 934.588L2046.69 976.428L2067.08 1042.34L2007.23 1004.31L1949.9 1042.34L1967.73 976.428ZM1967.73 762.181L1911.68 720.353L1983.01 716.553L2007.23 650.628L2031.42 716.553L2101.45 720.353L2046.69 762.181L2067.08 828.106L2007.23 790.079L1949.9 828.106L1967.73 762.181ZM1967.73 547.946L1911.68 506.106L1983.01 502.306L2007.23 436.38L2031.42 502.306L2101.45 506.106L2046.69 547.946L2067.08 613.859L2007.23 575.831L1949.9 613.859L1967.73 547.946Z" fill="white"/>
<path fill-rule="evenodd" clip-rule="evenodd" d="M1218.79 592.304C1053.22 669.643 951.319 806.551 993.354 896.562C1035.39 986.559 1206.06 995.443 1371.63 918.117C1537.23 840.779 1639.11 703.87 1597.08 615.144C1555.05 525.12 1384.37 514.978 1218.79 592.304Z" fill="white"/>
<path d="M976.792 919.374L1593.26 592.303" stroke="#0E4C7D" stroke-width="32.9432" stroke-miterlimit="2.613" stroke-linecap="round" stroke-linejoin="round"/>
<path fill-rule="evenodd" clip-rule="evenodd" d="M543.744 1877.75V1326.3C543.744 1193.19 483.876 1266.72 483.876 1209.68V1157.71H666.01L879.999 1592.52L881.27 1275.59C881.27 1227.42 797.213 1231.23 797.213 1216.02V1165.31L1026.48 1157.71V1209.68C1026.48 1242.63 1011.2 1212.21 1009.93 1297.14L998.464 2017.2C1009.93 2088.18 932.241 2098.34 890.193 2014.67L666.023 1531.68L659.655 1877.76C658.384 1956.37 641.835 1956.37 683.857 1965.23V2014.67C620.175 2014.67 545.028 2014.67 494.083 1928.47V1877.76C518.259 1827.04 528.453 1914.51 543.744 1877.75ZM1155.11 1375.75C1155.11 1212.22 1085.06 1231.23 1085.06 1209.68V1158.96H1496.46L1575.42 1307.27C1575.42 1354.19 1539.76 1352.93 1507.92 1312.35C1468.45 1224.89 1421.3 1260.36 1455.71 1259.1L1301.59 1254.03V1496.18C1320.7 1499.98 1417.49 1515.21 1423.87 1506.31C1476.08 1418.84 1446.8 1421.37 1521.94 1406.17V1699C1425.14 1672.37 1472.29 1601.4 1437.89 1610.26C1423.89 1612.79 1320.71 1610.26 1301.61 1610.26V1877.74C1301.61 1967.73 1290.13 2046.34 1325.8 2046.34C1327.07 2103.38 1329.62 2159.17 1332.18 2216.22C1257.02 2175.66 1223.9 2127.48 1107.99 2097.06V2048.87C1107.99 2019.72 1155.13 2086.9 1155.13 1856.18V1375.75H1155.11ZM1634.01 1814.38V1302.23C1634.01 1245.19 1569.06 1257.85 1569.06 1207.15V1155.18H1836.53V1207.15C1836.53 1251.5 1763.93 1200.82 1763.93 1289.56V1879.02C1763.93 1917.07 1761.37 1955.09 1800.86 1955.09C1862.02 1955.09 1943.51 1936.06 1947.33 1781.41C1695.16 1787.74 1833.98 1513.91 1952.43 1600.11C1983 1622.93 2030.14 1640.69 2040.33 1678.72C2140.94 2031.16 1896.39 2088.17 1556.32 2075.51C1537.22 1971.56 1634.01 1999.44 1634.01 1814.38Z" fill="#CC2229"/>
</svg>
