<svg width="150" height="150" viewBox="0 0 150 150" fill="none" xmlns="http://www.w3.org/2000/svg">
<path d="M106.103 88.4144C98.7179 88.4144 92.7531 82.4475 92.7531 74.9177C92.7531 67.5301 98.7179 61.421 106.103 61.421C113.488 61.421 119.453 67.388 119.453 74.9177C119.453 82.4475 113.488 88.4144 106.103 88.4144ZM106.245 44.2305C89.3446 44.2305 75.7106 58.0113 75.7106 75.0598C75.7106 92.1083 89.3446 105.889 106.245 105.889C123.145 105.889 136.779 92.1083 136.779 75.0598C136.637 58.0113 123.003 44.2305 106.245 44.2305ZM48.7268 45.6512H38.9274L13.2217 104.61H32.2524L43.8981 74.0653L55.4017 104.61H74.4324L48.7268 45.6512Z" fill="#1991D0"/>
</svg>
