<?xml version="1.0" encoding="UTF-8"?>
<svg id="katman_1" data-name="katman 1" xmlns="http://www.w3.org/2000/svg" version="1.1" xmlns:xlink="http://www.w3.org/1999/xlink" viewBox="0 0 139 250">
  <defs>
    <style>
      .cls-1 {
        fill: #000;
      }

      .cls-1, .cls-2, .cls-3, .cls-4, .cls-5, .cls-6, .cls-7 {
        stroke-width: 0px;
      }

      .cls-2 {
        fill: #ce241e;
      }

      .cls-8 {
        clip-path: url(#clippath-2);
      }

      .cls-9 {
        clip-path: url(#clippath-6);
      }

      .cls-3 {
        fill: none;
      }

      .cls-10 {
        clip-path: url(#clippath-7);
      }

      .cls-11 {
        clip-path: url(#clippath-1);
      }

      .cls-12 {
        clip-path: url(#clippath-4);
      }

      .cls-4 {
        fill: url(#Adsız_degrade);
      }

      .cls-5 {
        fill: #aacaeb;
      }

      .cls-13 {
        clip-path: url(#clippath-9);
      }

      .cls-14 {
        clip-path: url(#clippath);
      }

      .cls-15 {
        clip-path: url(#clippath-3);
      }

      .cls-16 {
        clip-path: url(#clippath-8);
      }

      .cls-6 {
        fill: #fff;
      }

      .cls-17 {
        clip-path: url(#clippath-5);
      }

      .cls-7 {
        fill: url(#Adsız_degrade_2);
      }

      .cls-18 {
        clip-path: url(#clippath-10);
      }
    </style>
    <clipPath id="clippath">
      <rect class="cls-3" x="4.96" y="5" width="129.08" height="240"/>
    </clipPath>
    <clipPath id="clippath-1">
      <rect class="cls-3" x="6.72" y="6.76" width="125.56" height="236.48"/>
    </clipPath>
    <clipPath id="clippath-2">
      <rect class="cls-3" x="6.72" y="6.76" width="125.56" height="236.48"/>
    </clipPath>
    <clipPath id="clippath-3">
      <rect class="cls-3" x="4.96" y="5" width="129.08" height="240"/>
    </clipPath>
    <clipPath id="clippath-4">
      <path class="cls-3" d="M14,177.92l.03,29.35c0,15.83,12.83,28.66,28.65,28.66h53.62c15.83,0,28.66-12.83,28.66-28.66v-89.66c-36.73,9.51-110.97,32.83-110.97,60.31h0Z"/>
    </clipPath>
    <radialGradient id="Adsız_degrade" data-name="Adsız degrade" cx="-474.55" cy="-3.58" fx="-474.55" fy="-3.58" r="1" gradientTransform="translate(61595.27 528.53) scale(129.77)" gradientUnits="userSpaceOnUse">
      <stop offset="0" stop-color="#c8dbf2"/>
      <stop offset=".04" stop-color="#c8dbf2"/>
      <stop offset=".27" stop-color="#c5daf2"/>
      <stop offset=".42" stop-color="#bdd7f0"/>
      <stop offset=".53" stop-color="#afd2ee"/>
      <stop offset=".64" stop-color="#9acbeb"/>
      <stop offset=".73" stop-color="#80c2e7"/>
      <stop offset=".82" stop-color="#60b6e2"/>
      <stop offset=".9" stop-color="#39a9dc"/>
      <stop offset=".98" stop-color="#0e9ad5"/>
      <stop offset="1" stop-color="#0095d3"/>
    </radialGradient>
    <clipPath id="clippath-5">
      <rect class="cls-3" x="4.96" y="5" width="129.08" height="240"/>
    </clipPath>
    <clipPath id="clippath-6">
      <rect class="cls-3" x="4.96" y="5" width="129.08" height="240"/>
    </clipPath>
    <clipPath id="clippath-7">
      <path class="cls-3" d="M43.38,122.86c.16.15,2.21-.03,2.71-.38.52-.32-1.49-.96-1.82-.98,0,0-1.03,1.22-.88,1.36M42.41,119.7s.27.07.58.05l-.25-.72c-.22.3-.4.6-.33.66M70.1,90.98c-.14.26.14.96-.12,1.25-.14.15-.31.13-.47.11-.18-.02-.36-.04-.48.12-.25.31.03,1.14.03,1.54,0,.43.17,2.53-.55,4.48-.15.42-2.02,3.04-3.73,5.25-1.7,2.22-3.42,3.1-3.62,3.68-.2.57.2,2.92-.45,4.92-.08.25.06,3.96-2.27,5.45-.47.3-.53,1.02-1.39,1.17-1.43.24-4.15.72-4.15.72,0,0,.35,1.2-1.24,2.1-.13.08-.32.18-.57.28,10.54-2.47,21.83-4.59,33.84-6.42-.15-.2-.27-.41-.37-.59l-13.56-24.53s-.76.23-.91.49M57.33,45.9c-.39.11-.65,2.08-.36,2.51,1.74,2.58,2.47,5.54,2.47,5.54,0,0,2.7,3.71,2.69,4-.02.3-.38.5-.37.71,0,.2.39,1.19.79,2.52.77,2.56-.34,4.75-.56,4.86-.09.05-.27.07-.46.09l.64,1.2c.51-.45,1.61-1.48,1.85-1.92.31-.58,1.93-2.41,1.93-2.41,0,0,.22-2.56-.07-3.06-.28-.52-2.63-3.68-3.41-5.69-.78-2.01-1.2-4.92-1.07-6.12l-1.68-.9s-1.84-1.31-2.33-1.31c-.03,0-.04,0-.06,0M42.69,14.07c-15.82,0-28.65,12.83-28.65,28.66l-.02,90.81c8.35-3.44,17.58-6.46,27.58-9.12-.02,0-.06-.02-.09-.04-.36-.15-.47-.79-.36-1.19.1-.41,1.27-2.36,1.3-2.42-.38.02-1.3.06-1.62.02-.4-.05-.48-.41-.37-.7.11-.3.54-.91.41-.93-.12,0-.69-.26-.94-.8-.26-.54-.46-2.36-.23-3.37.23-1.02,1.89-1.11,2.31-1.08.43.02,5.43-1,5.86-1.1,0,0,.01,0,.01-.01,1.83-1.26,4.22-5.02,4.22-5.02,0,0-1.03-3.14-1.26-4.35-.22-1.2-.46-5.14-.3-5.48.16-.35-.38-2.18-.47-3.86-.09-1.67.57-2.9.98-3.82.42-.93,1.78-1.99,2.13-2.26.34-.28.27-1.89.55-2.22.19-.22.52-.64.68-.76.15-.12.01-1.4.65-2.93.52-1.26,3.94-8.71,5.11-11.26l-1.39-2.54c-.54-.04-1.21-.14-1.81-.43-.58-.27-1.58-.99-2.15-1.39-.56-.4-.53-.78-.54-.97-.01-.18-.88-.25-1.47-.73-.3-.24-.98-1.55-1.15-1.63-.88-.4-.79-2.64-.73-2.8.07-.15,0-2.71,0-2.71,0,0-.83-1.06-1.01-1.35-.54-.83-.88-3.45-.88-3.45,0,0-1.72-.61-2.17-1.67-.15-.35-2.18-4.34-2.61-6.87-.1-.68-.46-2.29-.6-2.6-.15-.33-.05-1.45.07-1.77.12-.32.38-.78.51-.97.14-.2,0-1.03-.03-1.22,0-.18,4.92-6.87,6.17-7.95,1.33-1.14,5.22-3.2,7.29-3.59.5-.1,8.44-.59,8.44-.59l.03-1.26s.18,0,.18-.29c-.01-.29,0-1.8-.01-1.92,0-.13.16-.04.16-.04l-.02-.33c-.04-.93.19-2.1.25-2.31.06-.22.35-.46.46-.72.11-.25.16-.4.69-1.94.4-1.18,1.25-2.11,2-2.75h-27.14,0ZM78.34,14.07c.36.35.76.78,1.14,1.31,1.12,1.56,1.2,3.38,1.27,3.51.05.15.29.16.39.18.11,0,.18.24.31.79.14.54,0,1.79,0,2.64,0,.85-.18,2.01-.18,2.01l-.17.06s-.02.2.03.9c.06.71,0,2-.07,2.26-.06.26-.17.64-.11.84.04.2.15.3.39.64.26.33,1.42,1.62,1.91,2.26.5.64,2.16,2.41,3.1,3.47.94,1.06,2.28,2.73,3.13,4.17.85,1.44,1.31,3.05,1.31,3.05.31,1.67,3.04,12.05,3.61,15.52.57,3.48.57,6.26.24,8.3-.23,1.36-1.04,3.75-1.04,3.75-.47.88-.07.79-.29,1.53-.18.58,1.66,4.26-2.94,7.73-5.8,4.38-12.89,8.24-14.33,9.21l-1.91-3.62h-2.8l12.81,24.14c1.21,2.26,1.34,2.57,2.89,2.57,1.31,0,3.06-.77,5.08-2.01,1.95-1.21,4.02-3.94,4.2-4.21.18-.27.63-.12.78,0,.14.12.16.65.1,1.45-.05.8-.44,2.73-1.23,4.21-.56,1.07-1.73,2.44-3.68,3.84,10.42-1.46,21.34-2.71,32.7-3.8V42.73c-.01-15.83-12.85-28.66-28.67-28.66h-17.97Z"/>
    </clipPath>
    <radialGradient id="Adsız_degrade_2" data-name="Adsız degrade 2" cx="-474.06" cy="-3.56" fx="-474.06" fy="-3.56" r="1" gradientTransform="translate(50363.71 421.9) scale(106.21)" gradientUnits="userSpaceOnUse">
      <stop offset="0" stop-color="#00549e"/>
      <stop offset=".42" stop-color="#003f7d"/>
      <stop offset=".81" stop-color="#002d62"/>
      <stop offset="1" stop-color="#002d62"/>
    </radialGradient>
    <clipPath id="clippath-8">
      <rect class="cls-3" x="4.96" y="5" width="129.08" height="240"/>
    </clipPath>
    <clipPath id="clippath-9">
      <rect class="cls-3" x="4.96" y="5" width="129.08" height="240"/>
    </clipPath>
    <clipPath id="clippath-10">
      <rect class="cls-3" x="4.96" y="5" width="129.08" height="240"/>
    </clipPath>
  </defs>
  <g class="cls-14">
    <g class="cls-11">
      <g class="cls-8">
        <path class="cls-6" d="M96.31,6.76h-53.61C22.86,6.76,6.72,22.9,6.72,42.73v164.54c0,19.83,16.14,35.97,35.97,35.97h53.61c19.84,0,35.97-16.14,35.97-35.97V42.73c0-19.83-16.13-35.97-35.97-35.97"/>
      </g>
    </g>
  </g>
  <g class="cls-15">
    <path class="cls-6" d="M42.69,5C21.89,5,4.96,21.92,4.96,42.73v164.54c0,20.81,16.93,37.73,37.73,37.73h53.62c20.81,0,37.73-16.93,37.73-37.73V42.73c0-20.8-16.93-37.73-37.73-37.73h-53.62Z"/>
  </g>
  <g class="cls-12">
    <path class="cls-4" d="M14,117.61h110.98v118.32H14v-118.32Z"/>
  </g>
  <g class="cls-17">
    <path class="cls-2" d="M128.22,238.76c-.1-.11-.25-.21-.42-.27.34-.04.61-.17.79-.37.2-.19.3-.43.3-.7,0-.21-.06-.4-.15-.57-.11-.17-.26-.31-.45-.39-.2-.09-.46-.13-.75-.13h-1.89v3.83h.81v-1.56h.21c.17,0,.3.02.41.07.1.05.21.14.32.27.11.14.23.34.39.62l.32.61h1.01l-.47-.76c-.18-.3-.32-.51-.43-.64M127.11,237.98h-.65v-1.04h.73c.27,0,.49.05.63.13.13.09.2.2.2.35,0,.23-.08.37-.24.44-.16.07-.38.11-.68.11M127.1,234.11c-2.41,0-4.35,1.88-4.35,4.17s1.94,4.17,4.35,4.17,4.33-1.87,4.33-4.17-1.94-4.17-4.33-4.17M127.1,241.48c-1.85,0-3.35-1.43-3.35-3.2s1.49-3.19,3.35-3.19,3.34,1.43,3.34,3.19-1.49,3.2-3.34,3.2"/>
  </g>
  <g class="cls-9">
    <path class="cls-1" d="M69.49,121.5c-3.66,0-6.62.77-6.62,1.72v3.43c0,.95,2.96,1.72,6.62,1.72s6.61-.76,6.61-1.72v-3.43c0-.95-2.96-1.72-6.61-1.72"/>
  </g>
  <g class="cls-10">
    <path class="cls-7" d="M14.01,14.07h110.96v119.47H14.01V14.07Z"/>
  </g>
  <g class="cls-16">
    <path class="cls-5" d="M106.65,220.86c5.07,0,10.12-.14,15.08-.39.18-.33.34-.66.5-1.01-5.12.28-10.35.42-15.59.42-2.98,0-5.93-.11-8.87-.31.21-2.03.46-4.06.74-6.12l-.97-.13c-.28,2.07-.53,4.13-.75,6.17-21.11-1.61-40.75-8.17-55.6-15.97,6.9-13.09,17.01-27.18,29.29-40.4.72-.76,1.44-1.52,2.15-2.27,9.03,4.27,21.36,7.94,35.17,9.9-1.76,5.03-3.33,10.12-4.71,15.26l.94.26c1.42-5.29,3.01-10.43,4.75-15.37,5.22.7,10.64,1.16,16.16,1.32v-.98c-5.37-.15-10.68-.6-15.81-1.31,4.48-12.53,9.88-23.74,15.82-32.76v-1.74c-6.33,9.32-12.09,21.11-16.81,34.36-13.53-1.94-25.81-5.53-34.8-9.68,12.14-12.6,25.06-23.1,37.32-30.44,3.24,2.46,9.36,4.17,14.29,5.22v-1.01c-6.25-1.35-10.87-2.99-13.38-4.75,4.58-2.69,9.07-4.95,13.38-6.7v-1.04c-4.56,1.82-9.33,4.21-14.2,7.1-.88-.79-1.36-1.59-1.36-2.38,0-2.47,4.24-5.2,11.12-7.32-2.44.65-5.02,1.36-7.69,2.11-2.85,1.64-4.4,3.43-4.4,5.21,0,1.05.54,2.02,1.46,2.9-12.33,7.43-25.31,18.01-37.47,30.68-8.76-4.2-14.17-8.91-14.17-13.06,0-4.42,3.7-8.21,10.99-11.28-2.41.94-4.8,1.91-7.16,2.91-3.18,2.46-4.8,5.26-4.8,8.37,0,4.41,5.47,9.4,14.44,13.8-.65.68-1.3,1.35-1.95,2.05-12.33,13.27-22.48,27.44-29.43,40.61-16-8.55-26.2-18.5-26.35-25.01v3.89c3.01,6.62,12.62,14.85,25.92,21.95-5.59,10.77-9,20.85-9.67,29.18.32.15.63.29.96.43.58-8.29,3.96-18.36,9.57-29.16.33.18.66.35,1,.52,16.79,8.61,36.34,14.09,54.95,15.56-.54,5.31-.85,10.49-.91,15.49h.49c.16,0,.32-.01.48-.01.07-4.96.37-10.12.9-15.4,3.02.22,6.01.34,8.96.34"/>
  </g>
  <g class="cls-13">
    <path class="cls-6" d="M35.13,211.6c0,1.92-1.57,3.5-3.5,3.5h-1.58c-1.92,0-3.49-1.58-3.49-3.5v-22.95c0-1.93,1.58-3.5,3.49-3.5h1.58c1.92,0,3.5,1.57,3.5,3.5v22.95ZM51.21,211.6c0,1.92-1.57,3.5-3.5,3.5h-1.57c-1.92,0-3.5-1.58-3.5-3.5v-22.95c0-1.93,1.58-3.5,3.5-3.5h1.57c1.93,0,3.5,1.57,3.5,3.5v22.95ZM83.83,211.6c0,1.92-1.57,3.5-3.5,3.5h-1.57c-1.93,0-3.5-1.58-3.5-3.5v-7.98h-7.98v7.98c0,1.92-1.58,3.5-3.5,3.5h-1.57c-1.93,0-3.5-1.58-3.5-3.5v-22.95c0-1.93,1.57-3.5,3.5-3.5h1.57c1.92,0,3.5,1.57,3.5,3.5v7.98h7.98v-7.98c0-1.93,1.57-3.5,3.5-3.5h1.57c1.93,0,3.5,1.57,3.5,3.5v22.95ZM108.93,196.63c1.93,0,3.5,1.58,3.5,3.49s-1.57,3.5-3.5,3.5h-9.02v7.98c0,1.92-1.58,3.5-3.5,3.5h-1.57c-1.93,0-3.5-1.58-3.5-3.5v-22.95c0-1.93,1.57-3.5,3.5-3.5h14.09c1.93,0,3.5,1.57,3.5,3.5s-1.57,3.49-3.5,3.49h-9.02v4.48h9.02Z"/>
  </g>
  <g class="cls-18">
    <path class="cls-2" d="M96.31,6.76h-53.61C22.86,6.76,6.72,22.9,6.72,42.73v164.54c0,19.84,16.14,35.97,35.97,35.97h53.61c19.84,0,35.97-16.14,35.97-35.97V42.73c0-19.83-16.13-35.97-35.97-35.97M128.75,207.27c0,17.89-14.56,32.45-32.45,32.45h-53.61c-17.9,0-32.45-14.56-32.45-32.45V42.73c0-17.9,14.55-32.45,32.45-32.45h53.61c17.89,0,32.45,14.55,32.45,32.45v164.54h0Z"/>
  </g>
</svg>