<svg width="20" height="21" viewBox="0 0 20 21" fill="none" xmlns="http://www.w3.org/2000/svg">
<g clip-path="url(#clip0_3486_23671)">
<path d="M9.97033 10.7023L10.3854 10.0153L11.021 9.0625H12.0827L10.0769 12.065H9.0409L8.92702 10.429L8.5119 11.1122L7.88004 12.065H6.81836L8.82416 9.0625H9.86012L9.97033 10.7023Z" fill="white"/>
<path d="M13.2254 10.429C13.3591 10.4345 13.4921 10.405 13.6112 10.3436C13.7303 10.2821 13.8315 10.1906 13.905 10.0781C14.0923 9.79743 13.7617 9.7605 13.5376 9.7605H13.2254L12.7809 10.429H13.2254ZM10.5693 12.065L12.5751 9.0625H14.2025C15.1724 9.0625 15.3781 9.45766 14.9667 10.0744C14.7348 10.4166 14.4196 10.6934 14.0511 10.8783C13.6826 11.0632 13.2731 11.1501 12.8617 11.1307H12.3033L11.6788 12.065H10.5693Z" fill="white"/>
<path d="M16.5061 9.76419L16.1718 10.2628H16.631C16.7376 10.2673 16.8438 10.2458 16.9404 10.2002C17.037 10.1545 17.1211 10.086 17.1857 10.0006C17.34 9.76789 17.1306 9.76419 16.8955 9.76419H16.5061ZM15.8154 10.8094L15.4481 11.3633H15.933C16.0572 11.3781 16.1832 11.3608 16.2989 11.313C16.4146 11.2652 16.5163 11.1884 16.5942 11.09C16.7706 10.8278 16.5244 10.8094 16.1718 10.8094H15.8154ZM13.8721 12.065L15.8779 9.0625H17.4906C18.251 9.0625 18.7506 9.2213 18.3502 9.80113C18.1239 10.0971 17.8198 10.3235 17.4722 10.4548C17.7808 10.5397 17.7918 10.8241 17.5751 11.1417C17.1269 11.8139 16.3922 12.0465 15.5179 12.0465L13.8721 12.065Z" fill="white"/>
<path d="M6.88503 12.5517L6.95483 12.4299L7.06871 12.2637H7.25239L6.9034 12.7881H6.72339L6.70135 12.5037L6.63155 12.6219L6.52134 12.7881H6.33398L6.68298 12.2637H6.86666L6.88503 12.5517Z" fill="white"/>
<path d="M7.36541 12.252H7.53439L7.46093 12.3591H7.29193L7.36541 12.252ZM6.99805 12.7875L7.25153 12.4181H7.42051L7.16703 12.7875H6.99805Z" fill="white"/>
<path d="M7.69985 12.5959C7.74026 12.5368 7.72924 12.5073 7.69985 12.5073C7.67408 12.5113 7.64951 12.521 7.62791 12.5357C7.60631 12.5503 7.58823 12.5697 7.57495 12.5922C7.53821 12.6439 7.54189 12.6809 7.57495 12.6809C7.60202 12.6779 7.62805 12.6687 7.65099 12.654C7.67394 12.6393 7.69317 12.6194 7.70719 12.5959M7.67781 12.4076L7.64107 12.463C7.69227 12.4217 7.75547 12.3983 7.82108 12.3965C7.94965 12.3965 7.94965 12.4888 7.87986 12.5959C7.84393 12.6546 7.79444 12.7037 7.7356 12.7391C7.67677 12.7744 7.61032 12.795 7.54189 12.799C7.49413 12.799 7.47208 12.799 7.46473 12.751L7.35453 12.9172H7.18555L7.52719 12.4076H7.67781Z" fill="white"/>
<path d="M8.2477 12.5959C8.28811 12.5368 8.27709 12.5073 8.2477 12.5073C8.22193 12.5113 8.19736 12.521 8.17576 12.5357C8.15416 12.5503 8.13608 12.5697 8.1228 12.5922C8.08607 12.6439 8.08974 12.6809 8.1228 12.6809C8.14987 12.6779 8.1759 12.6687 8.19885 12.654C8.22179 12.6393 8.24103 12.6194 8.25506 12.5959M8.22566 12.4076L8.18892 12.463C8.23999 12.4214 8.30328 12.3981 8.36894 12.3965C8.49752 12.3965 8.49752 12.4888 8.42772 12.5959C8.39214 12.6541 8.34323 12.7029 8.28508 12.7383C8.22693 12.7736 8.16121 12.7944 8.09342 12.799C8.04566 12.799 8.02361 12.799 8.01626 12.751L7.90606 12.9172H7.7334L8.07504 12.4076H8.22566Z" fill="white"/>
<path d="M8.6481 12.592C8.60034 12.6622 8.60769 12.6954 8.6481 12.6954C8.68851 12.6954 8.74362 12.6622 8.79137 12.592C8.83913 12.5218 8.82811 12.4923 8.79137 12.496C8.76233 12.5001 8.73464 12.511 8.71043 12.5276C8.68622 12.5443 8.66615 12.5663 8.65177 12.592M8.83545 12.3963C8.98607 12.3963 9.02648 12.4738 8.94934 12.592C8.90854 12.6528 8.85394 12.7029 8.79006 12.7382C8.72618 12.7735 8.65485 12.793 8.58197 12.7951C8.44605 12.7951 8.3836 12.7287 8.46809 12.5994C8.5087 12.5382 8.56317 12.4875 8.62703 12.4516C8.69089 12.4156 8.76232 12.3954 8.83545 12.3926" fill="white"/>
<path d="M9.15895 12.3958H9.31323L9.27283 12.4549C9.32794 12.4126 9.39457 12.3881 9.46385 12.3848C9.57773 12.3848 9.58875 12.4439 9.51895 12.5473L9.36467 12.7762H9.20303L9.33895 12.5768C9.36466 12.5399 9.37569 12.5066 9.33895 12.5066C9.31428 12.5079 9.29041 12.5158 9.26975 12.5294C9.2491 12.5431 9.23241 12.562 9.22139 12.5842L9.09282 12.7799H8.92383L9.15895 12.3958Z" fill="white"/>
<path d="M10.1875 12.5037C10.2108 12.5043 10.2338 12.4988 10.2544 12.4878C10.275 12.4768 10.2924 12.4607 10.305 12.4409C10.3381 12.3929 10.2793 12.3855 10.2389 12.3855H10.1838L10.1067 12.5037H10.1875ZM9.72461 12.7881L10.0736 12.2637H10.3565C10.5255 12.2637 10.5622 12.3338 10.4887 12.4409C10.4484 12.5008 10.3934 12.5493 10.3291 12.5816C10.2648 12.614 10.1932 12.6291 10.1214 12.6256H10.0258L9.91563 12.7881H9.72461Z" fill="white"/>
<path d="M10.5655 12.3958H10.7198L10.6684 12.4734C10.7179 12.4196 10.7866 12.3877 10.8594 12.3848H10.8814L10.7823 12.5362H10.7492C10.7119 12.5362 10.6754 12.5465 10.6437 12.5661C10.6119 12.5856 10.5861 12.6136 10.5692 12.647L10.481 12.7799H10.3047L10.5655 12.3958Z" fill="white"/>
<path d="M10.9588 12.592C10.9111 12.6622 10.9184 12.6954 10.9588 12.6954C10.9992 12.6954 11.0544 12.6622 11.1021 12.592C11.1499 12.5218 11.1388 12.4923 11.1021 12.496C11.0731 12.5001 11.0454 12.511 11.0212 12.5276C10.9969 12.5443 10.9769 12.5663 10.9625 12.592M11.1682 12.3963C11.3189 12.3963 11.3593 12.4738 11.2784 12.592C11.2376 12.6528 11.183 12.7029 11.1192 12.7382C11.0553 12.7735 10.984 12.793 10.9111 12.7951C10.7752 12.7951 10.7127 12.7287 10.7972 12.5994C10.8378 12.5382 10.8923 12.4875 10.9561 12.4516C11.02 12.4156 11.0914 12.3954 11.1646 12.3926" fill="white"/>
<path d="M11.7335 12.3962L11.6747 12.4848H11.6049L11.4102 12.7766H11.2412L11.4359 12.4848H11.3808L11.4396 12.3962H11.4984C11.5231 12.346 11.5622 12.3045 11.6107 12.2768C11.6591 12.2492 11.7147 12.2367 11.7702 12.2411H11.8437L11.7812 12.3371C11.7261 12.3371 11.7078 12.3371 11.671 12.3962H11.7335Z" fill="white"/>
<path d="M11.9988 12.5553C12.0208 12.522 11.9988 12.4888 11.9694 12.4888C11.9448 12.4888 11.9205 12.4948 11.8987 12.5064C11.8769 12.518 11.8583 12.5348 11.8445 12.5553H11.9988ZM11.7931 12.6329C11.7637 12.6772 11.7931 12.7067 11.8261 12.7067C11.8572 12.7054 11.8869 12.6937 11.9106 12.6735H12.0723C11.9861 12.7556 11.8714 12.8007 11.7527 12.799C11.6167 12.799 11.5543 12.7289 11.6425 12.5996C11.6845 12.5401 11.7394 12.4909 11.803 12.4557C11.8666 12.4205 11.9373 12.4003 12.0098 12.3965C12.1678 12.3965 12.1972 12.4925 12.1053 12.6329H11.7931Z" fill="white"/>
<path d="M12.3066 12.6693C12.3066 12.6693 12.3066 12.6951 12.3066 12.7025C12.3172 12.7068 12.329 12.7068 12.3396 12.7025C12.3542 12.7039 12.3689 12.7015 12.3824 12.6957C12.3959 12.6899 12.4077 12.6808 12.4168 12.6693C12.4572 12.6102 12.1633 12.6693 12.2625 12.5105C12.2981 12.4697 12.3423 12.4372 12.3918 12.4155C12.4413 12.3938 12.495 12.3834 12.549 12.3849C12.6409 12.3849 12.7401 12.4034 12.6813 12.5031H12.5086C12.5086 12.5031 12.5086 12.4809 12.5086 12.4772C12.5041 12.475 12.499 12.4738 12.4939 12.4738C12.4888 12.4738 12.4838 12.475 12.4792 12.4772C12.4669 12.4756 12.4544 12.4771 12.4429 12.4816C12.4313 12.4861 12.4211 12.4935 12.4131 12.5031C12.3764 12.5548 12.6739 12.5031 12.5784 12.6619C12.5401 12.7087 12.4909 12.7454 12.4352 12.7686C12.3794 12.7917 12.3189 12.8008 12.2588 12.7948C12.1596 12.7948 12.0715 12.769 12.1302 12.6656L12.3066 12.6693Z" fill="white"/>
<path d="M12.8068 12.6693C12.8068 12.6693 12.8068 12.6951 12.8068 12.7025C12.8174 12.7068 12.8292 12.7068 12.8398 12.7025C12.8544 12.7039 12.8691 12.7015 12.8826 12.6957C12.896 12.6899 12.9079 12.6808 12.917 12.6693C12.9574 12.6102 12.6635 12.6693 12.7627 12.5105C12.7983 12.4697 12.8425 12.4372 12.892 12.4155C12.9415 12.3938 12.9952 12.3834 13.0492 12.3849C13.1411 12.3849 13.2402 12.4034 13.1815 12.5031H13.0272C13.0272 12.5031 13.0272 12.4809 13.0272 12.4772C13.0226 12.475 13.0176 12.4738 13.0125 12.4738C13.0074 12.4738 13.0023 12.475 12.9978 12.4772C12.9855 12.4756 12.973 12.4771 12.9614 12.4816C12.9498 12.4861 12.9396 12.4935 12.9317 12.5031C12.8949 12.5548 13.1888 12.5031 13.097 12.6619C13.0587 12.7087 13.0094 12.7454 12.9537 12.7686C12.898 12.7917 12.8374 12.8008 12.7774 12.7948C12.6782 12.7948 12.59 12.769 12.6488 12.6656L12.8068 12.6693Z" fill="white"/>
<path d="M13.4455 12.252H13.6108L13.5373 12.3591H13.3683L13.4455 12.252ZM13.0781 12.7875L13.3316 12.4181H13.5006L13.2471 12.7875H13.0781Z" fill="white"/>
<path d="M13.6364 12.592C13.5886 12.6622 13.596 12.6954 13.6364 12.6954C13.6768 12.6954 13.7319 12.6622 13.7796 12.592C13.8274 12.5218 13.8164 12.4923 13.7796 12.496C13.7506 12.5001 13.7229 12.511 13.6987 12.5276C13.6745 12.5443 13.6544 12.5663 13.64 12.592M13.8458 12.3963C13.9964 12.3963 14.0368 12.4738 13.956 12.592C13.9152 12.6528 13.8606 12.7029 13.7967 12.7382C13.7328 12.7735 13.6615 12.793 13.5886 12.7951C13.4527 12.7951 13.3902 12.7287 13.4784 12.5994C13.519 12.5382 13.5735 12.4875 13.6373 12.4516C13.7012 12.4156 13.7726 12.3954 13.8458 12.3926" fill="white"/>
<path d="M14.1468 12.3958H14.3011L14.2606 12.4549C14.3158 12.4126 14.3824 12.3881 14.4517 12.3848C14.5656 12.3848 14.5766 12.4439 14.5068 12.5473L14.3525 12.7762H14.1835L14.3194 12.5768C14.3451 12.5399 14.3562 12.5066 14.3194 12.5066C14.2947 12.5079 14.2709 12.5158 14.2502 12.5294C14.2296 12.5431 14.2129 12.562 14.2019 12.5842L14.0733 12.7799H13.9043L14.1468 12.3958Z" fill="white"/>
<path d="M14.8342 12.6182C14.7644 12.644 14.6983 12.6182 14.6652 12.681C14.6321 12.7437 14.6652 12.7142 14.6983 12.7142C14.727 12.712 14.7546 12.7024 14.7784 12.6862C14.8023 12.67 14.8215 12.6478 14.8342 12.6219M14.7387 12.7918L14.757 12.7511C14.6978 12.7854 14.6307 12.8032 14.5623 12.8028C14.4815 12.8028 14.4338 12.7659 14.4852 12.6883C14.5991 12.5148 14.8526 12.5923 14.9003 12.5222C14.9481 12.452 14.9003 12.4889 14.8673 12.4889C14.8513 12.488 14.8353 12.4909 14.8207 12.4973C14.806 12.5037 14.793 12.5135 14.7828 12.5258H14.6174C14.6562 12.4797 14.7055 12.4438 14.7613 12.4212C14.817 12.3987 14.8773 12.3902 14.9371 12.3966C15.1391 12.3966 15.106 12.4631 15.0473 12.5554L14.9297 12.7327C14.9297 12.7548 14.9077 12.7659 14.9297 12.7807L14.7387 12.7918Z" fill="white"/>
<path d="M14.9961 12.7881L15.3451 12.2637H15.5141L15.1651 12.7881H14.9961Z" fill="white"/>
<path d="M16.0061 12.397L15.9473 12.4857H16.0281C16.0464 12.4866 16.0647 12.483 16.0813 12.4753C16.0979 12.4676 16.1124 12.4559 16.1236 12.4414C16.1494 12.4007 16.1236 12.4007 16.0722 12.4007L16.0061 12.397ZM15.8849 12.578L15.8187 12.674H15.9032C15.9253 12.6773 15.9478 12.6746 15.9685 12.6662C15.9892 12.6577 16.0072 12.6439 16.0208 12.626C16.0502 12.5817 16.0208 12.578 15.9473 12.578H15.8849ZM15.5469 12.7959L15.9142 12.2715H16.1824C16.3147 12.2715 16.4028 12.301 16.333 12.4044C16.2934 12.4565 16.2399 12.4962 16.1787 12.5189C16.2338 12.5189 16.2338 12.5817 16.1787 12.6371C16.137 12.6939 16.081 12.7385 16.0164 12.7664C15.9519 12.7943 15.8811 12.8045 15.8114 12.7959H15.5469Z" fill="white"/>
<path d="M16.5503 12.6182C16.4768 12.644 16.4143 12.6182 16.3813 12.681C16.3482 12.7437 16.3813 12.7142 16.4143 12.7142C16.4437 12.7127 16.472 12.7033 16.4966 12.6871C16.5211 12.6708 16.5409 12.6483 16.5539 12.6219M16.4584 12.7918L16.4768 12.7511C16.4176 12.7854 16.3504 12.8032 16.2821 12.8028C16.2013 12.8028 16.1535 12.7659 16.2049 12.6883C16.3188 12.5148 16.5723 12.5923 16.6201 12.5222C16.6678 12.452 16.6201 12.4889 16.587 12.4889C16.571 12.488 16.5551 12.4909 16.5404 12.4973C16.5257 12.5037 16.5128 12.5135 16.5025 12.5258H16.3372C16.3759 12.4797 16.4253 12.4438 16.481 12.4212C16.5367 12.3987 16.5971 12.3902 16.6568 12.3966C16.8588 12.3966 16.8258 12.4631 16.767 12.5554L16.6494 12.7327C16.6494 12.7548 16.6274 12.7659 16.6494 12.7807L16.4584 12.7918Z" fill="white"/>
<path d="M16.9171 12.6693C16.9171 12.6693 16.9171 12.6951 16.9171 12.7025C16.9223 12.7049 16.9279 12.7061 16.9336 12.7061C16.9393 12.7061 16.945 12.7049 16.9502 12.7025C16.9648 12.7039 16.9795 12.7015 16.9929 12.6957C17.0064 12.6899 17.0182 12.6808 17.0273 12.6693C17.0677 12.6102 16.7738 12.6693 16.873 12.5105C16.9087 12.4697 16.9528 12.4372 17.0023 12.4155C17.0519 12.3938 17.1056 12.3834 17.1596 12.3849C17.2514 12.3849 17.3506 12.4034 17.2918 12.5031H17.1375C17.1375 12.5031 17.1375 12.4809 17.1375 12.4772C17.133 12.475 17.1279 12.4738 17.1228 12.4738C17.1177 12.4738 17.1127 12.475 17.1081 12.4772C17.0958 12.4756 17.0833 12.4771 17.0718 12.4816C17.0602 12.4861 17.05 12.4935 17.042 12.5031C17.0053 12.5548 17.3028 12.5031 17.2073 12.6619C17.169 12.7087 17.1198 12.7454 17.0641 12.7686C17.0083 12.7917 16.9478 12.8008 16.8877 12.7948C16.7885 12.7948 16.7004 12.769 16.7591 12.6656L16.9171 12.6693Z" fill="white"/>
<path d="M17.6707 12.5553C17.6927 12.522 17.6707 12.4888 17.6413 12.4888C17.6167 12.4888 17.5924 12.4948 17.5706 12.5064C17.5488 12.518 17.5302 12.5348 17.5164 12.5553H17.6707ZM17.465 12.6329C17.4356 12.6772 17.465 12.7067 17.498 12.7067C17.5291 12.7054 17.5588 12.6937 17.5825 12.6735H17.7442C17.6582 12.7559 17.5434 12.8011 17.4246 12.799C17.2886 12.799 17.2262 12.7289 17.3143 12.5996C17.3565 12.5403 17.4115 12.4912 17.4751 12.4561C17.5386 12.4209 17.6092 12.4006 17.6817 12.3965C17.8397 12.3965 17.8691 12.4925 17.7772 12.6329H17.465Z" fill="white"/>
<path d="M18.1845 12.6C18.2102 12.5593 18.2249 12.5113 18.1845 12.5113C18.158 12.5148 18.1327 12.5242 18.1105 12.539C18.0882 12.5537 18.0695 12.5733 18.0559 12.5963C18.0265 12.6369 18.0118 12.6886 18.0559 12.6886C18.0833 12.6853 18.1095 12.6755 18.1325 12.6601C18.1555 12.6447 18.1745 12.6241 18.1881 12.6M18.1514 12.4449C18.1983 12.4138 18.2532 12.3971 18.3094 12.3968C18.4196 12.3968 18.4379 12.4818 18.3608 12.5963C18.3268 12.655 18.2787 12.7044 18.221 12.7398C18.1633 12.7753 18.0977 12.7958 18.0302 12.7994C17.9604 12.7994 17.9383 12.7699 17.942 12.7366L17.9053 12.792H17.751L18.1183 12.2676H18.2873L18.1514 12.4449Z" fill="white"/>
<path d="M18.6916 12.6182C18.6218 12.644 18.5557 12.6182 18.5226 12.681C18.4896 12.7437 18.5226 12.7142 18.5557 12.7142C18.5844 12.712 18.612 12.7024 18.6358 12.6862C18.6597 12.67 18.6789 12.6478 18.6916 12.6219M18.5961 12.7918L18.6145 12.7511C18.5553 12.7854 18.4881 12.8032 18.4198 12.8028C18.3389 12.8028 18.2912 12.7659 18.3426 12.6883C18.4565 12.5148 18.71 12.5923 18.7577 12.5222C18.8055 12.452 18.7577 12.4889 18.7247 12.4889C18.7087 12.4877 18.6926 12.4905 18.6779 12.4969C18.6632 12.5033 18.6502 12.5133 18.6402 12.5258H18.4749C18.5136 12.4797 18.563 12.4438 18.6187 12.4212C18.6744 12.3987 18.7347 12.3902 18.7945 12.3966C18.9965 12.3966 18.9635 12.4631 18.9047 12.5554L18.7871 12.7327C18.7871 12.7548 18.7651 12.7659 18.7871 12.7807L18.5961 12.7918Z" fill="white"/>
<path d="M18.8535 12.7881L19.2025 12.2637H19.3715L19.0225 12.7881H18.8535Z" fill="white"/>
<path d="M19.125 12.7881L19.474 12.2637H19.643L19.294 12.7881H19.125Z" fill="white"/>
<path d="M4.25391 14.8461C4.14211 15.0889 3.97916 15.3044 3.77634 15.4776C3.55592 15.3742 3.48612 15.1083 3.62204 14.8018C3.76402 14.5065 4.00639 14.272 4.30534 14.1407C4.34351 14.2559 4.35861 14.3775 4.34978 14.4985C4.34096 14.6196 4.30837 14.7377 4.25391 14.8461ZM1.8036 15.7213C2.18216 15.5367 2.48951 15.2317 2.67792 14.8535C2.76527 14.717 2.80344 14.5546 2.78606 14.3933C2.76868 14.232 2.6968 14.0816 2.58241 13.9671C2.86426 13.7954 3.18603 13.7012 3.51551 13.6938C3.63991 13.6877 3.7642 13.7082 3.88011 13.754C3.99602 13.7999 4.1009 13.87 4.18779 13.9597C3.81774 14.1384 3.51497 14.4325 3.32448 14.7981C3.23223 14.9387 3.19368 15.1081 3.21596 15.2751C3.23824 15.4421 3.31984 15.5953 3.44571 15.7066C3.15761 15.8874 2.82643 15.9869 2.4869 15.9946C2.35677 16.0018 2.2267 15.9793 2.10645 15.9288C1.9862 15.8783 1.8789 15.8011 1.79258 15.7029M1.7485 14.8276C1.86497 14.5743 2.03704 14.3508 2.25178 14.1739C2.45016 14.2884 2.50894 14.5432 2.38036 14.835C2.23665 15.1338 1.98994 15.37 1.68605 15.4998C1.62222 15.2745 1.64449 15.0335 1.7485 14.8239M3.45306 13.2617C2.04239 13.2617 0.54355 14.4435 0.110063 15.9245C-0.323424 17.4054 0.477424 18.6168 1.87707 18.6278C3.27672 18.6389 4.78658 17.446 5.22007 15.9651C5.65356 14.4841 4.85271 13.2728 3.45306 13.2617Z" fill="#DA2128"/>
<path d="M2.46191 12.7878L5.72777 2.91602H12.0354L5.37143 12.7878H4.34281L8.61523 5.45689C8.66797 5.37158 8.69835 5.27423 8.70354 5.17392C8.70873 5.07362 8.68855 4.97362 8.6449 4.88327C8.60124 4.79292 8.53554 4.71516 8.45391 4.65725C8.37227 4.59933 8.27737 4.56315 8.17807 4.55208C7.87807 4.46723 7.55757 4.49546 7.27682 4.63148C6.99607 4.7675 6.77441 5.00194 6.65352 5.29071L3.47951 12.7988L2.46191 12.7878Z" fill="#0051DE"/>
<path d="M18.1771 12.0527C18.4469 12.0527 18.6657 11.8328 18.6657 11.5615C18.6657 11.2902 18.4469 11.0703 18.1771 11.0703C17.9072 11.0703 17.6885 11.2902 17.6885 11.5615C17.6885 11.8328 17.9072 12.0527 18.1771 12.0527Z" stroke="white" stroke-width="0.0525"/>
<path d="M18.3868 11.5288C18.4106 11.4982 18.4235 11.4605 18.4235 11.4217C18.4272 11.3982 18.4258 11.3742 18.4195 11.3512C18.4132 11.3283 18.402 11.307 18.3868 11.2888C18.3417 11.2509 18.2836 11.2323 18.2251 11.2371H17.9863V11.8723H18.0671V11.599H18.2031L18.361 11.8686H18.4676L18.2876 11.5916C18.333 11.5831 18.3743 11.5597 18.4051 11.5251M18.3206 11.3405C18.3308 11.3499 18.339 11.3613 18.3447 11.374C18.3503 11.3867 18.3534 11.4004 18.3537 11.4143C18.354 11.4298 18.3508 11.4451 18.3445 11.4591C18.3381 11.4732 18.3287 11.4856 18.317 11.4956C18.3033 11.5085 18.2871 11.5185 18.2694 11.5249C18.2517 11.5312 18.2328 11.5338 18.2141 11.5325H18.0635V11.3146H18.2288C18.2618 11.3141 18.2941 11.3245 18.3206 11.3442" fill="white"/>
</g>
<defs>
<clipPath id="clip0_3486_23671">
<rect width="20" height="20" fill="white" transform="translate(0 0.773438)"/>
</clipPath>
</defs>
</svg>
