<svg width="20" height="21" viewBox="0 0 20 21" fill="none" xmlns="http://www.w3.org/2000/svg">
<path d="M10.0729 15.0137L9.84189 15.0056C8.26277 14.9507 6.95231 14.8362 5.71795 14.6455L5.65006 14.635L5.59898 14.5893L2.20606 11.5552L2.06152 11.4259L2.16353 11.2611C2.17271 11.2463 2.18217 11.2318 2.19174 11.2174C2.19905 11.2063 2.20634 11.1952 2.21325 11.184C4.28983 7.87089 7.0463 6.0468 9.97574 6.0468C10.0167 6.0468 10.0578 6.04724 10.0987 6.048L10.3212 6.05193L10.326 6.27428C10.3661 8.15461 10.2914 10.029 10.2045 11.9436L10.1811 12.4535C10.146 13.2171 10.1097 14.0066 10.0813 14.783L10.0729 15.0137Z" fill="white"/>
<path d="M9.97623 6.27729C10.0157 6.27729 10.0556 6.27762 10.095 6.27834C10.1352 8.16317 10.0592 10.0477 9.9736 11.9322C9.93053 12.8794 9.88507 13.8262 9.85044 14.7736C8.47754 14.7258 7.10866 14.6253 5.7538 14.416L2.36088 11.3819C2.37708 11.3558 2.3946 11.3307 2.41067 11.3046C4.51131 7.95318 7.24338 6.27729 9.97623 6.27729ZM9.97623 5.81471C8.49878 5.81471 7.06123 6.26282 5.70358 7.14662C4.3215 8.04627 3.08155 9.36265 2.01822 11.0591L2.01727 11.0606L2.01633 11.0622C2.01045 11.0717 2.00425 11.081 1.9981 11.0904C1.98771 11.1061 1.97737 11.122 1.96736 11.1381L1.7627 11.4678L2.05204 11.7265L5.44496 14.7607L5.54729 14.8522L5.68303 14.8732C6.92714 15.0654 8.24623 15.1806 9.83433 15.2359L10.2964 15.252L10.3132 14.7904C10.3412 14.0211 10.3772 13.238 10.412 12.4806C10.4201 12.3049 10.4282 12.129 10.4362 11.9532C10.5233 10.0346 10.5982 8.15618 10.5579 6.26852L10.5484 5.82377L10.1032 5.81582C10.061 5.8151 10.0184 5.81471 9.97623 5.81471Z" fill="white"/>
<path d="M12.7373 15.0449C11.883 15.0449 10.871 15.0402 9.84218 15.0047L9.61035 14.9967L9.61874 14.7651C9.64718 13.9892 9.68344 13.2012 9.71835 12.4391L9.74204 11.9216C9.82871 10.0165 9.90309 8.15154 9.86324 6.28319L9.85815 6.04205L10.0995 6.04699L10.1107 6.04728C10.1523 6.04809 10.1932 6.049 10.2344 6.05058C13.107 6.15771 15.8008 8.02515 17.819 11.3088L17.8205 11.3112L17.8219 11.3137L17.8344 11.3349L17.8474 11.3569L17.9423 11.5193L17.8024 11.6452L17.7618 11.6817L14.0464 14.9843L13.9808 15.0426L13.893 15.0428L13.7866 15.0431C13.4369 15.044 13.0873 15.0449 12.7373 15.0449Z" fill="white"/>
<path d="M10.0953 6.27938C10.1392 6.28025 10.1824 6.28111 10.2258 6.28274C12.9095 6.38287 15.5741 8.09877 17.6221 11.431C17.6308 11.4458 17.6394 11.4601 17.6479 11.4745L17.6073 11.511L13.893 14.8126C13.5075 14.8136 13.1219 14.8148 12.7359 14.8148C11.7743 14.8148 10.8113 14.8077 9.85073 14.7746C9.88535 13.8273 9.93082 12.8804 9.97388 11.9333C10.0595 10.0488 10.1355 8.16422 10.0953 6.27938ZM9.62206 5.80776L9.63227 6.28925C9.67198 8.14855 9.5977 10.0101 9.51132 11.9123C9.50336 12.0875 9.49531 12.2626 9.48725 12.4378C9.45234 13.1977 9.41627 13.9835 9.38798 14.7578L9.37109 15.2209L9.83475 15.2369C10.8672 15.2726 11.8807 15.2773 12.7359 15.2773C13.0874 15.2773 13.4386 15.2764 13.7896 15.2755L13.8942 15.2752L14.0697 15.2747L14.2008 15.1582L17.9151 11.8566L17.9575 11.8185L18.2376 11.5669L18.048 11.2418C18.0429 11.233 18.0377 11.2243 18.0325 11.2155L18.0219 11.1975L18.0194 11.1932L18.0167 11.189C15.9567 7.83723 13.196 5.93064 10.243 5.8205C10.1969 5.81873 10.151 5.81777 10.104 5.81691L9.62206 5.80776Z" fill="white"/>
<path d="M10.0319 18.5527L9.87792 18.415L5.5989 14.5882L5.01758 14.0681L5.78871 14.1873C8.14945 14.5518 10.5239 14.5823 12.7535 14.5823C13.1058 14.5823 13.4583 14.5813 13.8101 14.5804L13.8917 14.5802L14.5026 14.5786L14.0462 14.9843L10.1863 18.4156L10.0319 18.5527Z" fill="white"/>
<path d="M5.75393 14.4164C8.06157 14.7727 10.4095 14.8141 12.7502 14.8141C13.1312 14.8141 13.5123 14.813 13.8928 14.812L10.0329 18.2433L5.75393 14.4164ZM4.28223 13.7211L5.44509 14.7611L9.7241 18.5879L10.032 18.8633L10.3408 18.5888L14.2007 15.1575L15.1134 14.3461L13.8916 14.3494L13.8134 14.3496C13.4593 14.3505 13.1047 14.3515 12.7502 14.3515C10.5313 14.3515 8.16881 14.3212 5.82465 13.9592L4.28223 13.7211Z" fill="white"/>
<path d="M3.92676 7.97461V3.69805L4.09924 3.65268C4.44694 3.56127 4.7987 3.47714 5.14498 3.40274L5.42516 3.34261V6.37436C5.98501 6.26177 6.55458 6.16849 7.12453 6.09615V3.05951L7.32864 3.03526C7.81849 2.97691 8.32368 2.93346 8.83022 2.90619L8.99212 2.89747L9.05572 3.04643C9.27652 3.56395 9.51079 4.1142 9.74847 4.67695C9.96956 4.08311 10.1719 3.54077 10.3645 3.02774L10.4221 2.87443L10.586 2.87774C11.1048 2.88818 11.6294 2.91635 12.1453 2.96134L12.3566 2.97979V2.98376L12.4714 2.9954C13.3342 3.0825 14.2022 3.21934 15.0508 3.40235C16.0479 3.61718 16.257 4.21476 16.257 4.67815V5.0254C16.257 5.40049 16.1183 5.59716 15.9512 5.70036C16.16 5.90781 16.2623 6.16868 16.2627 6.4926V6.83923C16.2623 7.56665 15.8272 7.7193 15.4621 7.7193C15.318 7.7193 15.1523 7.69783 14.9248 7.64959C14.0996 7.47395 13.2585 7.34229 12.4249 7.2583L12.283 7.24403L12.105 7.2285C11.7642 7.19885 11.4221 7.17676 11.0884 7.16291L10.8665 7.15372V5.63961C10.6963 6.07919 10.5222 6.53261 10.3462 6.99269L10.2893 7.14174L10.1296 7.1414H10.0844C9.82698 7.1414 9.57376 7.14562 9.33181 7.15391L9.1701 7.15951L9.10933 7.00965C8.90474 6.50549 8.71684 6.04421 8.53944 5.61067V7.19238L8.32565 7.20877C6.94138 7.31474 5.55893 7.54677 4.21705 7.89862L3.92676 7.97461ZM13.7373 6.2349C14.0811 6.28848 14.4238 6.3496 14.7649 6.4182V6.06156C14.751 6.05408 14.7183 6.04033 14.6493 6.02644C14.3465 5.9658 14.0424 5.91128 13.7373 5.86292V6.2349ZM13.7373 4.69717C14.0803 4.75088 14.425 4.81264 14.7647 4.88143H14.7649V4.56322C14.7582 4.55531 14.7328 4.53562 14.6781 4.5245C14.3657 4.46146 14.052 4.40479 13.7373 4.35452V4.69717Z" fill="#231F20"/>
<path d="M10.5814 3.10991C11.0968 3.12028 11.6117 3.14791 12.1253 3.19275V5.24263C11.7835 5.21029 11.4408 5.18346 11.0981 5.16262V5.1676V4.40056C11.0017 4.6506 10.9048 4.90046 10.8081 5.15175C10.8075 5.15175 10.8069 5.1517 10.8064 5.1517C10.8069 5.15021 10.8075 5.14882 10.8081 5.14734C10.4838 5.13153 10.1581 5.12108 9.83372 5.11706C10.0827 4.44411 10.3317 3.77466 10.5814 3.10991ZM8.84285 3.13808C9.12183 3.79215 9.40243 4.4514 9.68179 5.11529C9.62486 5.1149 9.56799 5.11471 9.51106 5.11471C9.20475 5.11471 8.89853 5.12017 8.59299 5.13148L8.59467 5.13555C8.59414 5.13555 8.59357 5.1356 8.59299 5.13565C8.49842 4.90386 8.40274 4.67255 8.30807 4.44153V5.14384C7.9902 5.15879 7.67277 5.18073 7.35615 5.20953V5.21384V3.26586C7.85045 3.20703 8.34649 3.16482 8.84285 3.13808ZM12.4482 3.22643C13.3064 3.3131 14.159 3.4476 15.0022 3.6293C15.6102 3.76039 16.0256 4.06217 16.0256 4.67911V5.02636C16.0256 5.50968 15.7763 5.58385 15.4421 5.58385C15.4292 5.58385 15.4162 5.58375 15.4031 5.58356V5.62217C15.5044 5.66721 15.5902 5.71656 15.6637 5.76998C14.6072 5.55922 13.5315 5.38919 12.4482 5.27492V5.2823V3.22643ZM14.8584 5.12765C14.9442 5.12765 14.9965 5.09061 14.9965 4.96269V4.55953C14.9965 4.43343 14.8904 4.33263 14.7243 4.2989C14.3195 4.21711 13.9136 4.14621 13.5059 4.08574V4.89691C13.9117 4.95685 14.316 5.02756 14.7189 5.10906C14.7713 5.11965 14.8185 5.12765 14.8584 5.12765ZM5.1938 3.62983V5.51764C4.84697 5.5861 4.50186 5.66352 4.15837 5.75187V5.76279V3.87724C4.50202 3.78688 4.84731 3.70428 5.1938 3.62983ZM9.68179 5.11529H9.68352C9.71023 5.17776 9.73661 5.24091 9.76313 5.30333C9.786 5.24091 9.8095 5.1791 9.83224 5.11701C9.83271 5.11701 9.83319 5.11701 9.83372 5.11706L9.83224 5.12104C10.1572 5.12516 10.4822 5.1356 10.8064 5.1517C10.5809 5.7351 10.3556 6.32147 10.1301 6.91115C10.1132 6.91115 10.0963 6.9111 10.0794 6.9111C9.82749 6.9111 9.57532 6.91508 9.32402 6.92375C9.08054 6.32368 8.83744 5.72729 8.59467 5.13555C8.89537 5.1242 9.19674 5.11874 9.49821 5.11874C9.55998 5.11874 9.62175 5.11893 9.68352 5.11941C9.68294 5.11802 9.68237 5.11668 9.68179 5.11529ZM8.30807 5.14384V6.97909C6.9067 7.08633 5.51785 7.31949 4.15837 7.67575V5.76279C4.50186 5.6755 4.84697 5.59674 5.1938 5.52827V5.51764V6.65962C5.90932 6.50645 6.63097 6.38735 7.35615 6.30164V5.21384C7.67277 5.1848 7.99054 5.16262 8.30807 5.14734V5.14384ZM11.0981 5.1676C11.4408 5.18816 11.7835 5.2147 12.1253 5.24752V5.24263V6.99902C11.7835 6.96926 11.4408 6.94703 11.0981 6.93285V5.1676ZM12.4482 5.2823C13.5375 5.39772 14.6191 5.5699 15.6813 5.78306C15.6755 5.77865 15.6696 5.77429 15.6637 5.76998C15.6696 5.77113 15.6754 5.77233 15.6813 5.77348C15.938 5.96641 16.031 6.2073 16.0313 6.49376V6.84024C16.0311 7.34315 15.8005 7.48895 15.4623 7.48895C15.316 7.48895 15.1496 7.46169 14.973 7.42422C14.1376 7.24647 13.2946 7.11448 12.4482 7.0291V5.2823ZM14.8349 6.66053C14.9456 6.66053 14.9965 6.60294 14.9965 6.45629V6.06108C14.9965 5.90734 14.8904 5.83978 14.695 5.80064C14.3005 5.72163 13.904 5.65291 13.5059 5.59453V6.43473C13.9158 6.49494 14.3239 6.56612 14.73 6.64817C14.7696 6.65617 14.8045 6.66053 14.8349 6.66053ZM10.263 2.64078L10.1478 2.9474C10.0168 3.29647 9.88005 3.66231 9.73502 4.05202C9.58861 3.70692 9.43586 3.34831 9.26887 2.95674L9.14178 2.65874L8.81792 2.67618C8.30716 2.70368 7.79688 2.74757 7.30133 2.8065L6.89306 2.85513V5.89416C6.47933 5.95025 6.06713 6.01706 5.65687 6.09452V3.05716L5.09641 3.17756C4.7471 3.25263 4.39187 3.33753 4.04054 3.4299L3.69531 3.52064V8.27539L4.27587 8.12323C5.60454 7.77497 6.9731 7.54524 8.34346 7.44032L8.77111 7.40759V6.79272C8.81192 6.89314 8.85317 6.99461 8.89489 7.09752L9.01651 7.39715L9.33999 7.38604C9.5781 7.37784 9.82691 7.37367 10.0794 7.37367L10.1292 7.37372L10.4487 7.37434L10.5627 7.0762C10.5868 7.01315 10.6109 6.95005 10.6351 6.88691V7.37664L11.079 7.39504C11.4089 7.40865 11.7474 7.4305 12.0851 7.45986L12.2564 7.47472L12.4017 7.48938C13.2274 7.57264 14.06 7.70291 14.8765 7.87668C15.1208 7.92847 15.3014 7.95157 15.4623 7.95157C15.7713 7.95157 16.0195 7.86058 16.2001 7.68116C16.3952 7.48727 16.4942 7.20441 16.4944 6.84048V6.49376C16.494 6.20012 16.4196 5.9438 16.2726 5.72748C16.4161 5.55496 16.4887 5.32001 16.4887 5.02636V4.67911C16.4887 4.23 16.3082 3.43766 15.0998 3.17713C14.2733 2.999 13.4289 2.86413 12.5883 2.77583V2.76884L12.1656 2.7319C12.1424 2.72993 12.1191 2.72792 12.0959 2.72596L11.9851 2.7148V2.71686C11.5219 2.68006 11.0536 2.65673 10.5907 2.64739L10.263 2.64078Z" fill="white"/>
<path d="M11.098 6.88592C11.4406 6.90015 11.7833 6.92223 12.1251 6.95189V5.19569C11.7833 5.1634 11.4406 5.13662 11.098 5.11583V6.88592ZM9.76296 5.25644C9.73644 5.19378 9.71006 5.13082 9.68335 5.06849C9.31953 5.066 8.95567 5.07122 8.59282 5.0843C8.83616 5.67767 9.07984 6.27535 9.32385 6.87686C9.59203 6.86757 9.86113 6.86373 10.1299 6.86431C10.356 6.27319 10.5819 5.68529 10.8079 5.1005C10.4831 5.0843 10.157 5.07415 9.83206 5.06983C9.80933 5.13188 9.78583 5.19406 9.76296 5.25644ZM7.35597 6.25484C6.6308 6.34046 5.90915 6.45952 5.19363 6.61249V5.47079C4.8468 5.53916 4.50169 5.61663 4.1582 5.70503V7.62891C5.52177 7.27126 6.91083 7.03923 8.3079 6.93215V5.0969C7.99003 5.11199 7.6726 5.13394 7.35597 5.16264V6.25484ZM15.6812 5.72663C14.6189 5.5142 13.5373 5.34263 12.448 5.2277V6.98217C13.2945 7.06764 14.1375 7.19925 14.9728 7.37743C15.5578 7.50166 16.0308 7.51373 16.0312 6.79345V6.44687C16.0308 6.16041 15.9378 5.91928 15.6812 5.72663ZM14.9964 6.4095C14.9964 6.59644 14.9137 6.6386 14.7298 6.60157C14.3236 6.51921 13.9155 6.44806 13.5058 6.38779V5.5474C13.9038 5.60595 14.3003 5.67476 14.6948 5.75375C14.8902 5.79261 14.9964 5.86045 14.9964 6.014V6.4095Z" fill="#393536"/>
<mask id="mask0_3486_23499" style="mask-type:luminance" maskUnits="userSpaceOnUse" x="4" y="3" width="2" height="3">
<path d="M5.19363 3.58379C4.84713 3.65815 4.50185 3.74084 4.1582 3.8311V5.7168C4.50169 5.62917 4.8468 5.55064 5.19363 5.48223V3.58379Z" fill="white"/>
</mask>
<g mask="url(#mask0_3486_23499)">
<path d="M5.19363 3.58379C4.84713 3.65815 4.50185 3.74084 4.1582 3.8311V5.7168C4.50169 5.62917 4.8468 5.55064 5.19363 5.48223V3.58379Z" fill="url(#paint0_linear_3486_23499)"/>
</g>
<mask id="mask1_3486_23499" style="mask-type:luminance" maskUnits="userSpaceOnUse" x="9" y="3" width="4" height="3">
<path d="M10.5812 3.06352C10.331 3.72985 10.0815 4.40059 9.83203 5.07493C10.1576 5.0791 10.4831 5.0894 10.8079 5.10559C10.9046 4.85445 11.0014 4.60455 11.0979 4.35436V5.12154C11.4406 5.14205 11.7833 5.16869 12.1251 5.20117V3.14635C11.6113 3.10204 11.0963 3.0742 10.5812 3.06352Z" fill="white"/>
</mask>
<g mask="url(#mask1_3486_23499)">
<path d="M10.5812 3.06352C10.331 3.72985 10.0815 4.40059 9.83203 5.07493C10.1576 5.0791 10.4831 5.0894 10.8079 5.10559C10.9046 4.85445 11.0014 4.60455 11.0979 4.35436V5.12154C11.4406 5.14205 11.7833 5.16869 12.1251 5.20117V3.14635C11.6113 3.10204 11.0963 3.0742 10.5812 3.06352Z" fill="url(#paint1_linear_3486_23499)"/>
</g>
<mask id="mask2_3486_23499" style="mask-type:luminance" maskUnits="userSpaceOnUse" x="7" y="3" width="3" height="3">
<path d="M8.84218 3.09231C8.34581 3.1189 7.84978 3.16106 7.35547 3.21961V5.16797C7.67209 5.13908 7.98986 5.11675 8.30739 5.10142V4.39566C8.40206 4.62658 8.49774 4.85756 8.59231 5.08954C8.95517 5.07588 9.31903 5.07076 9.68284 5.07354C9.40295 4.40816 9.12173 3.74748 8.84218 3.09231Z" fill="white"/>
</mask>
<g mask="url(#mask2_3486_23499)">
<path d="M8.84218 3.09231C8.34581 3.1189 7.84978 3.16106 7.35547 3.21961V5.16797C7.67209 5.13908 7.98986 5.11675 8.30739 5.10142V4.39566C8.40206 4.62658 8.49774 4.85756 8.59231 5.08954C8.95517 5.07588 9.31903 5.07076 9.68284 5.07354C9.40295 4.40816 9.12173 3.74748 8.84218 3.09231Z" fill="url(#paint2_linear_3486_23499)"/>
</g>
<mask id="mask3_3486_23499" style="mask-type:luminance" maskUnits="userSpaceOnUse" x="12" y="3" width="5" height="3">
<path d="M15.6814 5.73633C15.6041 5.67773 15.5127 5.62408 15.4031 5.5754V5.53683C15.7568 5.54224 16.0257 5.48149 16.0257 4.97959V4.63219C16.0257 4.01516 15.6103 3.71356 15.0023 3.58248C14.1574 3.40023 13.3047 3.26603 12.4482 3.17956V5.23543C13.5376 5.35089 14.6192 5.52289 15.6814 5.73633ZM13.506 4.03897C13.9137 4.09909 14.3196 4.17029 14.7244 4.25217C14.8905 4.28585 14.9966 4.38656 14.9966 4.51266V4.91582C14.9966 5.10329 14.8843 5.09553 14.7189 5.06228C14.316 4.9804 13.9118 4.91007 13.506 4.85013V4.03897Z" fill="white"/>
</mask>
<g mask="url(#mask3_3486_23499)">
<path d="M15.6814 5.73633C15.6041 5.67773 15.5127 5.62408 15.4031 5.5754V5.53683C15.7568 5.54224 16.0257 5.48149 16.0257 4.97959V4.63219C16.0257 4.01516 15.6103 3.71356 15.0023 3.58248C14.1574 3.40023 13.3047 3.26603 12.4482 3.17956V5.23543C13.5376 5.35089 14.6192 5.52289 15.6814 5.73633ZM13.506 4.03897C13.9137 4.09909 14.3196 4.17029 14.7244 4.25217C14.8905 4.28585 14.9966 4.38656 14.9966 4.51266V4.91582C14.9966 5.10329 14.8843 5.09553 14.7189 5.06228C14.316 4.9804 13.9118 4.91007 13.506 4.85013V4.03897Z" fill="url(#paint3_linear_3486_23499)"/>
</g>
<mask id="mask4_3486_23499" style="mask-type:luminance" maskUnits="userSpaceOnUse" x="7" y="16" width="6" height="3">
<path d="M7.80664 16.2426L10.0539 18.252L12.2916 16.2625C11.6128 16.5665 10.8623 16.7369 10.0718 16.7369C9.26381 16.7369 8.49719 16.5592 7.80664 16.2426Z" fill="white"/>
</mask>
<g mask="url(#mask4_3486_23499)">
<path d="M7.80664 16.2426L10.0539 18.252L12.2916 16.2625C11.6128 16.5665 10.8623 16.7369 10.0718 16.7369C9.26381 16.7369 8.49719 16.5592 7.80664 16.2426Z" fill="url(#paint4_linear_3486_23499)"/>
</g>
<path d="M2.39258 11.3997L5.40089 14.0898C4.9461 13.3345 4.67003 12.4598 4.631 11.5255C3.88965 11.4699 3.14828 11.4587 2.40693 11.3764C2.4023 11.3841 2.39743 11.3914 2.39258 11.3997Z" fill="#62B92C"/>
<mask id="mask5_3486_23499" style="mask-type:luminance" maskUnits="userSpaceOnUse" x="2" y="7" width="5" height="5">
<path d="M6.34518 7.33402C4.92388 8.16387 3.58875 9.49252 2.44183 11.3216C2.43047 11.3398 2.40374 11.3815 2.39258 11.3995C3.13359 11.4819 3.88698 11.5008 4.631 11.5254C4.628 11.4487 4.62603 11.3727 4.62603 11.296C4.62603 9.73528 5.2877 8.32729 6.34518 7.33402Z" fill="white"/>
</mask>
<g mask="url(#mask5_3486_23499)">
<path d="M6.34518 7.33402C4.92388 8.16387 3.58875 9.49252 2.44183 11.3216C2.43047 11.3398 2.40374 11.3815 2.39258 11.3995C3.13359 11.4819 3.88698 11.5008 4.631 11.5254C4.628 11.4487 4.62603 11.3727 4.62603 11.296C4.62603 9.73528 5.2877 8.32729 6.34518 7.33402Z" fill="url(#paint5_linear_3486_23499)"/>
</g>
<path d="M15.5069 11.616C15.4549 12.5116 15.1851 13.3484 14.75 14.0762L17.6185 11.5266L17.6593 11.4901V11.4899C16.9552 11.5879 16.2166 11.6409 15.5069 11.616Z" fill="#E51B24"/>
<path d="M17.6594 11.4899C17.6504 11.4755 17.6422 11.4612 17.6335 11.447C16.5731 9.72086 15.346 8.4303 14.0371 7.57252C14.9537 8.54658 15.5176 9.8564 15.5176 11.2956C15.5176 11.4035 15.5022 11.6691 15.496 11.7754C16.391 11.7064 16.9519 11.6 17.6594 11.4899Z" fill="#EA4137"/>
<path d="M10.0718 5.8552C7.06885 5.8552 4.62598 8.29603 4.62598 11.2961C4.62598 14.2961 7.06885 16.7363 10.0718 16.7363C13.0746 16.7363 15.5177 14.2961 15.5177 11.2961C15.5177 8.29603 13.0746 5.8552 10.0718 5.8552Z" fill="white"/>
<mask id="mask6_3486_23499" style="mask-type:luminance" maskUnits="userSpaceOnUse" x="4" y="6" width="12" height="6">
<path d="M15.1936 11.7269C15.2054 11.585 15.2129 11.4414 15.2129 11.2964C15.2129 8.45998 12.9111 6.16034 10.0714 6.16034C7.23202 6.16034 4.92969 8.45998 4.92969 11.2964C4.92969 11.347 4.93199 11.397 4.93383 11.4477C8.33353 11.6068 11.7954 12.3027 15.1936 11.7269Z" fill="white"/>
</mask>
<g mask="url(#mask6_3486_23499)">
<path d="M15.1936 11.7269C15.2054 11.585 15.2129 11.4414 15.2129 11.2964C15.2129 8.45998 12.9111 6.16034 10.0714 6.16034C7.23202 6.16034 4.92969 8.45998 4.92969 11.2964C4.92969 11.347 4.93199 11.397 4.93383 11.4477C8.33353 11.6068 11.7954 12.3027 15.1936 11.7269Z" fill="url(#paint6_linear_3486_23499)"/>
</g>
<path d="M4.93457 11.4468C5.01483 14.2128 7.28331 16.4316 10.0722 16.4316C12.7668 16.4316 14.9753 14.3608 15.1944 11.7259C11.7961 12.3017 8.33427 11.6059 4.93457 11.4468Z" fill="#393536"/>
<path fill-rule="evenodd" clip-rule="evenodd" d="M14.7217 11.2968C14.7217 13.8623 12.6396 15.9414 10.0723 15.9414C7.50419 15.9414 5.42285 13.8623 5.42285 11.2968C5.42285 8.73173 7.50419 6.65263 10.0723 6.65263C12.6396 6.65263 14.7217 8.73173 14.7217 11.2968Z" fill="white"/>
<mask id="mask7_3486_23499" style="mask-type:luminance" maskUnits="userSpaceOnUse" x="7" y="6" width="8" height="10">
<path d="M10.047 15.6483C11.1551 15.6399 12.2616 15.2151 13.1096 14.372C13.9684 13.5184 14.4006 12.3975 14.404 11.2759C14.4071 10.1535 13.9821 9.02994 13.1273 8.17091C12.4608 7.50103 11.6309 7.09097 10.7647 6.94187C10.6831 6.92769 10.6009 6.91538 10.5184 6.90632C10.763 7.0684 10.9938 7.25645 11.2081 7.47252C12.9176 9.18919 12.9095 11.9662 11.1901 13.6739C10.2048 14.6525 8.8716 15.0677 7.59082 14.9206C7.61988 14.9402 7.64995 14.9591 7.68031 14.9778C8.40026 15.4309 9.22438 15.6543 10.047 15.6483Z" fill="white"/>
</mask>
<g mask="url(#mask7_3486_23499)">
<mask id="mask8_3486_23499" style="mask-type:luminance" maskUnits="userSpaceOnUse" x="7" y="6" width="8" height="10">
<path d="M10.047 15.6483C11.1551 15.6399 12.2616 15.2151 13.1096 14.372C13.9684 13.5184 14.4006 12.3975 14.404 11.2759C14.4071 10.1535 13.9821 9.02994 13.1273 8.17091C12.4608 7.50103 11.6309 7.09097 10.7647 6.94187C10.6831 6.92769 10.6009 6.91538 10.5184 6.90632C10.763 7.0684 10.9938 7.25645 11.2081 7.47252C12.9176 9.18919 12.9095 11.9662 11.1901 13.6739C10.2048 14.6525 8.8716 15.0677 7.59082 14.9206C7.61988 14.9402 7.64995 14.9591 7.68031 14.9778C8.40026 15.4309 9.22438 15.6543 10.047 15.6483Z" fill="white"/>
</mask>
<g mask="url(#mask8_3486_23499)">
<path d="M10.0498 15.6494C10.4204 15.6468 10.7899 15.5971 11.1527 15.5007C11.1156 15.4798 11.0764 15.4651 11.0363 15.457C10.7144 15.555 10.3867 15.6193 10.0567 15.6494H10.0498Z" fill="#D4D5D5"/>
<path d="M9.70094 15.6405C10.1502 15.6423 10.5982 15.5808 11.0368 15.4569L10.8998 15.4395C10.3914 15.5785 9.87081 15.6314 9.35156 15.5968C9.46536 15.6159 9.58644 15.6304 9.70094 15.6405Z" fill="#DFE0E0"/>
<path d="M11.1526 15.4989C11.5133 15.4019 11.8647 15.2554 12.2007 15.0618C12.2408 15.0228 12.2756 14.9755 12.3035 14.9219C11.8987 15.162 11.4734 15.341 11.0361 15.4552C11.0763 15.4632 11.1154 15.4779 11.1526 15.4989Z" fill="#D6D7D6"/>
<path d="M11.0364 15.4554C11.4734 15.344 11.8987 15.1679 12.3037 14.9308C12.3261 14.8827 12.3401 14.829 12.3448 14.7734C11.8913 15.0755 11.4072 15.2962 10.9062 15.4292L11.0433 15.4466L11.0364 15.4554Z" fill="#E1E2E2"/>
<path d="M9.35131 15.5965C9.87283 15.6319 10.3957 15.579 10.9064 15.4392C10.8507 15.4263 10.7958 15.4088 10.742 15.3867C10.1726 15.5405 9.58877 15.5876 9.00879 15.5266C9.12244 15.5515 9.23667 15.5719 9.35131 15.5878V15.5965Z" fill="#E9EAEA"/>
<path d="M9.01539 15.5349C9.59343 15.5922 10.1749 15.5421 10.7417 15.3863C10.6757 15.365 10.6115 15.3357 10.5499 15.2988C9.93031 15.4596 9.29563 15.5038 8.66602 15.43C8.77942 15.4638 8.89365 15.493 9.00854 15.5174L9.01539 15.5349Z" fill="#F2F3F3"/>
<path d="M10.9066 15.4381C11.4078 15.3023 11.892 15.0787 12.3452 14.7736C12.3535 14.7247 12.3535 14.674 12.3452 14.625C11.8455 14.9844 11.3045 15.2411 10.7422 15.3856C10.7939 15.4044 10.8466 15.419 10.8997 15.4293L10.9066 15.4381Z" fill="#EAEBEA"/>
<path d="M10.7416 15.3956C11.3039 15.2511 11.8449 14.9944 12.3446 14.635C12.3321 14.5806 12.3112 14.5301 12.283 14.4863C11.7475 14.8832 11.1641 15.1638 10.5566 15.3169L10.7485 15.4043L10.7416 15.3956Z" fill="#F3F3F3"/>
<path d="M12.2012 15.0636C12.3536 14.9778 12.5022 14.8815 12.6465 14.7751C12.7082 14.7022 12.7655 14.6232 12.8177 14.5391C12.6536 14.6822 12.4819 14.8108 12.3039 14.9237C12.276 14.9774 12.2413 15.0246 12.2012 15.0636Z" fill="#D7D7D6"/>
<path d="M12.3037 14.9225C12.4817 14.8096 12.6534 14.681 12.8175 14.5379C12.8652 14.4683 12.9066 14.392 12.9408 14.3105C12.7505 14.482 12.5514 14.6368 12.3448 14.7739C12.3382 14.8235 12.3243 14.8797 12.3037 14.9225Z" fill="#E2E2E2"/>
<path d="M12.6465 14.7736C12.7936 14.662 12.9354 14.5394 13.0712 14.4064C13.1521 14.3045 13.2255 14.1933 13.2904 14.0742C13.1397 14.237 12.9819 14.3888 12.8177 14.5288C12.7658 14.616 12.7085 14.6979 12.6465 14.7736Z" fill="#D7D8D8"/>
<path d="M12.8174 14.5388C12.9815 14.3987 13.1393 14.2469 13.2901 14.0842C13.3474 13.9805 13.3957 13.8691 13.4339 13.752C13.2833 13.9574 13.1182 14.1447 12.9407 14.3115C12.9064 14.393 12.8651 14.4692 12.8174 14.5388Z" fill="#E2E2E1"/>
<path d="M12.3447 14.7736C12.5512 14.6393 12.7503 14.4874 12.9407 14.319C12.9682 14.2418 12.9845 14.1589 12.9887 14.0742C12.7826 14.2806 12.5651 14.4676 12.3379 14.6338C12.3475 14.6793 12.3499 14.7269 12.3447 14.7736Z" fill="#EBECEC"/>
<path d="M12.338 14.6336C12.5653 14.4674 12.7828 14.2804 12.9888 14.074C13.0025 14.0041 12.9888 13.9254 12.9682 13.8555C12.7555 14.0917 12.5262 14.3024 12.2832 14.485C12.3106 14.5287 12.3312 14.5724 12.338 14.6336Z" fill="#F3F3F3"/>
<path d="M12.9346 14.3102C12.9661 14.2424 12.9861 14.1669 12.9932 14.0885C13.0003 14.0102 12.9943 13.9308 12.9757 13.8556C13.1705 13.6407 13.3473 13.4004 13.5032 13.1387C13.5282 13.3468 13.5043 13.5598 13.4347 13.7507C13.284 13.9561 13.1189 14.1434 12.9414 14.3102H12.9346Z" fill="#EBECEC"/>
<path d="M13.0713 14.4157C13.0828 14.4012 13.0942 14.3866 13.1056 14.372C13.4686 13.9261 13.6125 13.4452 13.5508 13.0605C13.5351 13.087 13.5191 13.1132 13.5029 13.1392C13.5508 13.5152 13.4207 13.9785 13.0713 14.4157Z" fill="#D7D8D8"/>
<path d="M13.1123 14.3715C13.4481 14.0421 13.7357 13.6396 13.9618 13.1825L14.1399 12.6055C13.9609 13.1497 13.6895 13.6365 13.3452 14.0306C13.2783 14.1529 13.1957 14.267 13.1123 14.3715Z" fill="#D7D8D8"/>
<path d="M13.3389 14.0304C13.6856 13.6372 13.9594 13.1504 14.1404 12.6053C14.1976 12.4148 14.2434 12.2189 14.2774 12.0195C14.1129 12.6425 13.844 13.2124 13.4896 13.6894C13.4498 13.8128 13.3992 13.9214 13.3389 14.0304Z" fill="#E2E2E1"/>
<path d="M13.9619 13.1821L14.14 12.6051C14.2282 12.3466 14.2947 12.077 14.3387 11.8008L14.2154 12.5264C14.1474 12.7548 14.0625 12.9743 13.9619 13.1821Z" fill="#D8D8D7"/>
<path d="M14.2148 12.5273L14.3382 11.8016C14.3786 11.5515 14.397 11.2964 14.393 11.041C14.4207 11.5472 14.3599 12.0549 14.2148 12.5273Z" fill="#D8D8D7"/>
<path d="M14.1396 12.605C14.312 12.1098 14.3985 11.573 14.3931 11.0312C14.4059 11.3636 14.3687 11.696 14.2835 12.0104C14.2499 12.2128 14.2041 12.4116 14.1465 12.605H14.1396Z" fill="#E2E2E1"/>
<path d="M13.4824 13.6893C13.8443 13.2148 14.1202 12.6448 14.2908 12.0195C14.32 11.8323 14.3246 11.6403 14.3045 11.4512C14.173 12.1527 13.9149 12.8053 13.5509 13.3571C13.5393 13.4683 13.5162 13.577 13.4824 13.6806V13.6893Z" fill="#EBECEC"/>
<path d="M13.5508 13.3661C13.9157 12.8118 14.1738 12.1561 14.3043 11.4515C14.2886 11.2715 14.2367 11.0999 14.1536 10.9531C14.1248 11.7146 13.9145 12.4467 13.5508 13.0514C13.5643 13.1556 13.5643 13.2619 13.5508 13.3661Z" fill="#F3F3F3"/>
<path d="M14.2832 12.021C14.4383 11.4509 14.4334 10.8297 14.2695 10.2637C14.3566 10.6506 14.3683 11.0587 14.3038 11.4527C14.3243 11.6276 14.3106 11.8286 14.2832 12.021Z" fill="#EBECEC"/>
<path d="M14.3043 11.4526C14.2875 11.2757 14.2356 11.1072 14.1536 10.963C14.1613 10.5946 14.1172 10.2275 14.0234 9.87891C14.1673 10.0712 14.2564 10.2723 14.318 10.4909C14.3609 10.8097 14.3562 11.136 14.3043 11.4526Z" fill="#F4F4F4"/>
<path d="M14.318 10.4797C14.2541 10.2544 14.1537 10.0489 14.0234 9.87643C13.9245 9.50579 13.7762 9.15973 13.585 8.85352C13.7562 9.06334 13.8932 9.29066 14.0028 9.52671C14.1584 9.81312 14.2657 10.1376 14.318 10.4797Z" fill="#F4F4F4"/>
<path d="M14.3658 11.8369C14.469 11.0812 14.3726 10.3032 14.0918 9.625C14.1672 9.82609 14.2083 10.0447 14.2631 10.2632C14.4001 10.7703 14.4275 11.3124 14.359 11.8369H14.3658Z" fill="#D9D8D7"/>
<path d="M14.2705 10.2632C14.1309 9.73498 13.8963 9.25588 13.5854 8.86432C13.5176 8.74197 13.4468 8.62242 13.373 8.50586C13.7291 8.89755 14.0103 9.388 14.1951 9.93968L14.2705 10.2632Z" fill="#EDEDEC"/>
<path d="M14.1878 9.93988C14.003 9.3882 13.7218 8.89775 13.3657 8.50606C13.2915 8.38888 13.2114 8.27791 13.126 8.17383C13.5914 8.6382 13.9568 9.2459 14.1878 9.93988Z" fill="#ECEDEC"/>
<path d="M8.6734 15.4384C9.30268 15.5151 9.93736 15.4739 10.5573 15.316C10.5068 15.286 10.454 15.2625 10.3997 15.2461C9.74568 15.4113 9.07558 15.4467 8.41309 15.351C8.49926 15.383 8.58606 15.4122 8.6734 15.4384Z" fill="#F8F9F9"/>
<path d="M8.41263 15.3508C9.07513 15.4465 9.74523 15.4111 10.3993 15.2459C10.3494 15.2315 10.2992 15.2199 10.2486 15.2109C9.56083 15.3738 8.85613 15.3827 8.16602 15.2372C8.24971 15.2779 8.33422 15.3158 8.41948 15.3508H8.41263Z" fill="#FCFDFD"/>
<path d="M10.557 15.3164C11.1645 15.1634 11.7478 14.8827 12.2833 14.4859C12.2628 14.4538 12.2399 14.4246 12.2148 14.3984C11.6517 14.8105 11.0379 15.0973 10.3994 15.2465C10.4537 15.2629 10.5064 15.2864 10.557 15.3164Z" fill="#F8F9F9"/>
<path d="M10.3997 15.2471C11.0386 15.0951 11.6525 14.8054 12.2151 14.3903C12.1873 14.3632 12.1575 14.3398 12.1261 14.3203C11.5471 14.7582 10.9114 15.0602 10.249 15.2121C10.2996 15.221 10.3499 15.2327 10.3997 15.2471Z" fill="#FBFCFC"/>
<path d="M8.16654 15.2367C8.85665 15.3822 9.56135 15.3733 10.2491 15.2105L10.0915 15.1755C9.37141 15.3308 8.63491 15.313 7.91992 15.123L8.16654 15.2367Z" fill="#FEFFFF"/>
<path d="M7.91945 15.1232C8.63444 15.3132 9.37094 15.3309 10.0911 15.1757C10.0328 15.1649 9.97552 15.1473 9.91979 15.1232C9.1721 15.2439 8.41354 15.1936 7.67969 14.9746C7.75851 15.027 7.83846 15.0766 7.91945 15.1232Z" fill="white"/>
<path d="M10.2487 15.2106C10.1391 15.1931 10.0432 15.1756 9.91992 15.1232C10.6335 15.0075 11.3198 14.7006 11.934 14.2227C12.0025 14.2401 12.071 14.2664 12.1258 14.3101C11.5473 14.751 10.9116 15.056 10.2487 15.2106Z" fill="#FEFFFF"/>
<path d="M12.283 14.4858C12.1975 14.3498 12.0754 14.2593 11.9404 14.2323C12.2153 14.016 12.4683 13.7576 12.694 13.4629C12.831 13.5153 12.8995 13.6377 12.968 13.8563C12.7553 14.0925 12.5259 14.3032 12.283 14.4858Z" fill="#F8F9F9"/>
<path d="M12.9684 13.8564C12.8999 13.6466 12.8313 13.5155 12.6943 13.463C12.8999 13.1973 13.0731 12.8938 13.2081 12.5625C13.3451 12.6499 13.4547 12.851 13.5027 13.1395C13.3447 13.4017 13.1656 13.642 12.9684 13.8564Z" fill="#F9FAFA"/>
<path d="M13.5026 13.14C13.5188 13.1111 13.5348 13.0819 13.5505 13.0526C13.5026 12.7641 13.3793 12.563 13.2423 12.4668C13.2312 12.4991 13.2198 12.5311 13.208 12.563C13.345 12.6504 13.4546 12.8515 13.5026 13.14Z" fill="#F9F9FA"/>
<path d="M13.551 13.0516C13.5298 12.9198 13.4878 12.7949 13.4277 12.6844C13.5932 12.33 13.7113 11.9429 13.7771 11.5391C13.8592 11.6893 13.9281 11.8505 13.9826 12.0199C13.877 12.385 13.7317 12.7381 13.551 13.0516Z" fill="#F9F9FA"/>
<path d="M13.9819 12.0281C13.9273 11.8588 13.8584 11.6975 13.7764 11.5473C13.8434 11.1477 13.8527 10.7359 13.8038 10.332C13.9134 10.5069 14.0093 10.7167 14.1463 10.9528C14.1375 11.3202 14.082 11.6834 13.9819 12.0281Z" fill="#F9FAFA"/>
<path d="M13.4272 12.6751C13.3788 12.5904 13.3154 12.5215 13.2422 12.474C13.3874 12.0905 13.4734 11.675 13.4957 11.25C13.6053 11.3025 13.7012 11.4161 13.7765 11.556C13.7121 11.9563 13.5964 12.3403 13.434 12.6926L13.4272 12.6751Z" fill="white"/>
<path d="M13.7763 11.5396C13.7092 11.409 13.6141 11.3058 13.5023 11.2423C13.5168 10.8105 13.4632 10.3794 13.3447 9.97461C13.5502 10.0358 13.6873 10.167 13.7969 10.3331C13.8457 10.7369 13.8365 11.1487 13.7695 11.5483L13.7763 11.5396Z" fill="white"/>
<path d="M14.1538 10.9543C14.0168 10.7182 13.914 10.5084 13.8044 10.3423C13.7505 9.91905 13.6342 9.51266 13.4619 9.14453C13.6469 9.33687 13.8044 9.58167 14.0237 9.87893C14.1196 10.2286 14.1607 10.5958 14.1538 10.9543Z" fill="#F9FAFA"/>
<path d="M14.0301 9.87802C13.927 9.50617 13.7741 9.16004 13.578 8.85511C13.4524 8.69619 13.3173 8.55004 13.1738 8.41797C13.3991 8.72818 13.5842 9.08236 13.7219 9.46711L14.0301 9.87802Z" fill="#F9FAFA"/>
<path d="M13.7287 9.46805C13.591 9.0833 13.406 8.72912 13.1806 8.41891C13.0376 8.27924 12.8864 8.15357 12.7285 8.04297C13.0436 8.38394 13.2903 8.7424 13.4615 9.13582C13.5581 9.23611 13.6497 9.34416 13.7355 9.45931L13.7287 9.46805Z" fill="#FCFDFD"/>
<path d="M13.8039 10.3333C13.6864 10.152 13.5249 10.0259 13.345 9.97483C13.2176 9.51685 13.0248 9.09296 12.7764 8.72461C13.0778 8.81204 13.2833 8.95192 13.4614 9.14427C13.6395 9.52895 13.756 9.93112 13.8039 10.3333Z" fill="white"/>
<path d="M13.4617 9.14421C13.2647 8.93292 13.029 8.78857 12.7766 8.72455C12.4753 8.28726 12.1243 7.91005 11.7354 7.60547C12.0779 7.70164 12.4204 7.85027 12.7287 8.0601C13.0438 8.40107 13.2904 8.75078 13.4617 9.14421Z" fill="white"/>
<path d="M13.5853 8.8544C13.4499 8.60877 13.2962 8.3804 13.1264 8.17246C12.7908 7.83607 12.4194 7.56231 12.0234 7.35938C12.2906 7.56046 12.503 7.80526 12.729 8.0588C13.0446 8.2668 13.3333 8.5351 13.5853 8.8544Z" fill="#FAFAFA"/>
<path d="M12.7285 8.05175C12.5024 7.80695 12.2901 7.56215 12.0229 7.36106C11.618 7.15499 11.1946 7.01402 10.7624 6.94141C11.1015 7.12547 11.4271 7.34784 11.7352 7.60586C12.0777 7.70203 12.4202 7.85066 12.7285 8.06049V8.05175ZM7.67969 14.9761C8.00419 15.0334 8.33182 15.0568 8.6593 15.046C8.69299 15.0934 8.72965 15.1373 8.76891 15.1772C8.402 15.15 8.03758 15.0828 7.67969 14.9761ZM8.76891 15.1772C8.72965 15.1373 8.69299 15.0934 8.6593 15.046C9.00183 15.046 9.34435 14.9936 9.68002 14.9149C9.7336 14.9921 9.79079 15.0651 9.85129 15.1334C9.48991 15.1886 9.12544 15.2032 8.76206 15.1772H8.76891Z" fill="white"/>
<path d="M7.63192 14.9481C7.61813 14.9396 7.60443 14.9308 7.59082 14.9219C7.90993 14.9566 8.23078 14.9566 8.54989 14.9219C8.59099 14.9481 8.61839 15.0006 8.66634 15.0443C8.32382 15.0443 7.9813 15.018 7.63877 14.9481H7.63192Z" fill="white"/>
<path d="M8.6594 15.0434L8.55664 14.921C8.87578 14.8896 9.19212 14.8223 9.502 14.72C9.56366 14.7724 9.61846 14.8511 9.68012 14.921C9.34336 15.0001 9.0018 15.041 8.6594 15.0434ZM9.85138 15.1221C9.79381 15.062 9.73893 14.9978 9.68697 14.9298C10.0146 14.8522 10.3357 14.7351 10.646 14.5801L10.8926 14.8511C10.558 14.9881 10.2139 15.0847 9.86508 15.1396L9.85138 15.1221Z" fill="white"/>
<path d="M10.8857 14.8441C10.7967 14.7567 10.7145 14.6693 10.6391 14.5731C10.9445 14.4212 11.2362 14.2277 11.5091 13.9961L11.8243 14.3196C11.5271 14.537 11.2124 14.7128 10.8857 14.8441ZM9.68007 14.9228C9.61841 14.8616 9.56361 14.7742 9.50195 14.7217C9.80859 14.6183 10.1068 14.4778 10.3925 14.3021C10.4816 14.3895 10.5638 14.4769 10.6391 14.5731C10.3288 14.7281 10.0077 14.8452 9.68007 14.9228Z" fill="white"/>
<path d="M10.6392 14.5724C10.5613 14.4791 10.4814 14.3887 10.3994 14.3014C10.6787 14.1275 10.9427 13.9165 11.1872 13.6719L11.5092 13.9954C11.2362 14.227 10.9446 14.4204 10.6392 14.5724Z" fill="white"/>
<path d="M11.8246 14.3203C11.8615 14.2919 11.898 14.2628 11.9342 14.2329L11.2766 13.5859C11.2472 13.6156 11.2175 13.6448 11.1875 13.6734L11.8246 14.3203Z" fill="white"/>
<path d="M11.934 14.233L11.2764 13.5861C11.4784 13.3726 11.6622 13.1322 11.8244 12.8691L12.7013 13.4637C12.4756 13.7584 12.2225 14.0167 11.9477 14.233H11.934Z" fill="white"/>
<path d="M12.6942 13.4634L11.8379 12.8689C11.9889 12.6262 12.1177 12.3622 12.2215 12.082L13.208 12.5629C13.073 12.8942 12.8998 13.1977 12.6942 13.4634Z" fill="white"/>
<path d="M13.2082 12.5603C12.8773 12.3992 12.5462 12.2389 12.2148 12.0794C12.4889 11.3275 12.5574 10.5144 12.4067 9.73633C12.6396 9.82376 13.1328 9.93741 13.3657 10.0161C13.5986 10.8904 13.5233 11.7734 13.2082 12.5603Z" fill="white"/>
<path d="M13.3653 10.0183C13.2064 9.96663 13.0465 9.91998 12.8858 9.87839C12.7841 9.44266 12.6217 9.03393 12.4062 8.67188L12.7967 8.7593C13.0707 9.15273 13.2557 9.58113 13.3653 10.0095V10.0183Z" fill="white"/>
<path d="M12.7966 8.75069L12.4062 8.672C12.1592 8.25532 11.8635 7.88967 11.5293 7.58789L11.7348 7.59663C12.1732 7.95509 12.5226 8.33977 12.7966 8.75069ZM12.8857 9.87851C12.7076 9.82606 12.5226 9.79108 12.4062 9.73863C12.3284 9.33533 12.1987 8.95127 12.0225 8.60206L12.4062 8.672C12.6322 9.06543 12.7898 9.45886 12.8857 9.87851Z" fill="white"/>
<path d="M12.4066 8.672C12.279 8.64662 12.1511 8.6233 12.023 8.60206C11.829 8.22072 11.5911 7.87883 11.3174 7.58789H11.5229C11.8928 7.92886 12.1737 8.28732 12.4066 8.672Z" fill="white"/>
<path d="M11.7355 7.6038C11.6878 7.55968 11.6398 7.51596 11.5916 7.47266H11.208L11.3176 7.58631L11.7286 7.59506L11.7355 7.6038Z" fill="white"/>
<path d="M11.5912 7.48328C11.3291 7.27439 11.0542 7.0931 10.7691 6.94122C10.6826 6.92663 10.5958 6.91497 10.5088 6.90625C10.7531 7.06712 10.9848 7.25742 11.2007 7.47453L11.5912 7.48328Z" fill="white"/>
</g>
</g>
<path d="M10.8587 8.36778L11.0435 8.7411L11.4545 8.80127L11.1574 9.09137L11.2271 9.50105L10.8587 9.30792L10.49 9.50105L10.5609 9.09137L10.2625 8.80127L10.6746 8.7411L10.8587 8.36778ZM10.8715 10.2458L10.4024 10.3142L10.7415 10.6439L10.6616 11.1108L11.0808 10.8911L11.5004 11.1108L11.4209 10.6439L11.7595 10.3142L11.2907 10.2458L11.0808 9.82157L10.8715 10.2458ZM10.568 11.8268L10.1867 11.8822L10.4626 12.1511L10.3972 12.5306L10.7385 12.3517L11.0796 12.5306L11.0144 12.1511L11.2907 11.8822L10.9093 11.8268L10.7385 11.4817L10.568 11.8268ZM9.84522 12.9198L9.55536 12.9619L9.76566 13.1669L9.71573 13.4556L9.97524 13.3188L10.2348 13.4556L10.1854 13.1669L10.3958 12.9619L10.1054 12.9198L9.97524 12.6568L9.84522 12.9198ZM9.62279 7.69618L9.27178 7.74682L9.52558 7.99394L9.46573 8.34344L9.77913 8.17811L10.0927 8.34344L10.0332 7.99394L10.2863 7.74682L9.93606 7.69618L9.77913 7.37901L9.62279 7.69618ZM8.57883 7.35381L8.32182 7.39161L8.50742 7.57271L8.46349 7.82836L8.6935 7.70739L8.92365 7.82836L8.87958 7.57271L9.06547 7.39161L8.80836 7.35381L8.6935 7.12149L8.57883 7.35381ZM8.46584 14.5415L8.24389 14.5739L8.40474 14.7304L8.36657 14.9507L8.56512 14.8468L8.76357 14.9507L8.72573 14.7304L8.88629 14.5739L8.66458 14.5415L8.56512 14.3407L8.46584 14.5415ZM7.71664 7.55609L7.55176 7.57956L7.67108 7.69618L7.64307 7.86017L7.7903 7.78265L7.93763 7.86017L7.90991 7.69618L8.02904 7.57956L7.86397 7.55609L7.7903 7.40694L7.71664 7.55609ZM8.28197 15.2705L8.15872 15.2879L8.24773 15.3752L8.22668 15.498L8.33732 15.4401L8.44714 15.498L8.42623 15.3752L8.51591 15.2879L8.39189 15.2705L8.33732 15.1585L8.28197 15.2705ZM9.05847 13.7865L8.79129 13.8247L8.98471 14.0131L8.93847 14.2786L9.17764 14.1535L9.41671 14.2786L9.37091 14.0131L9.56404 13.8247L9.2972 13.7865L9.17764 13.5447L9.05847 13.7865Z" fill="#E51B24"/>
<mask id="mask9_3486_23499" style="mask-type:luminance" maskUnits="userSpaceOnUse" x="3" y="13" width="15" height="4">
<path d="M17.0146 15.4696C12.4991 16.9815 7.59759 16.9815 3.08203 15.4696V13.4243C7.59759 14.9358 12.4991 14.9358 17.0146 13.4243V15.4696Z" fill="white"/>
</mask>
<g mask="url(#mask9_3486_23499)">
<path d="M17.0146 15.4696C12.4991 16.9815 7.59759 16.9815 3.08203 15.4696V13.4243C7.59759 14.9358 12.4991 14.9358 17.0146 13.4243V15.4696Z" fill="url(#paint7_linear_3486_23499)"/>
<path d="M17.0146 15.4696C12.4991 16.9815 7.59759 16.9815 3.08203 15.4696V13.4243C7.59759 14.9358 12.4991 14.9358 17.0146 13.4243V15.4696Z" fill="url(#paint8_linear_3486_23499)"/>
</g>
<path d="M3.03498 15.6103L2.93359 15.5762V13.2177L3.12955 13.2834C5.37195 14.0341 7.71003 14.4094 10.0485 14.4094C12.3867 14.4094 14.7249 14.0338 16.9675 13.2834L17.1636 13.2177V15.5763L17.062 15.6103C14.7888 16.3714 12.4186 16.752 10.0483 16.752C7.67809 16.752 5.30789 16.3714 3.03498 15.6103ZM10.0483 16.4548C12.3516 16.4548 14.6547 16.0907 16.8661 15.3622V13.6296C14.6528 14.3474 12.3506 14.7064 10.0485 14.7064C7.74629 14.7064 5.44417 14.3476 3.23095 13.6296V15.3622C5.44217 16.0907 7.74524 16.4548 10.0483 16.4548Z" fill="white"/>
<path d="M3.65039 14.1473C3.70725 14.1637 3.76416 14.1801 3.82111 14.196V15.0693C3.92186 15.0976 4.02284 15.1254 4.12386 15.1523V15.3252C3.96574 15.2829 3.80785 15.239 3.65039 15.1932V14.1473ZM4.17864 14.2938C4.23569 14.3089 4.29296 14.3237 4.35 14.3384V15.3845C4.29296 15.3697 4.23569 15.3549 4.17864 15.3398V14.2938ZM4.82114 14.7044C4.81746 14.683 4.81167 14.6628 4.80373 14.6439C4.79569 14.625 4.78562 14.6085 4.77322 14.5943C4.76089 14.58 4.74596 14.5708 4.7284 14.5668C4.68693 14.5568 4.6571 14.5779 4.6388 14.6302C4.6205 14.6823 4.61128 14.7739 4.61128 14.9047C4.61128 14.9672 4.61295 15.0243 4.61609 15.0759C4.61913 15.1274 4.62509 15.172 4.63333 15.2096C4.64159 15.2474 4.65364 15.2775 4.66928 15.3004C4.68468 15.3233 4.70489 15.3376 4.72953 15.3434C4.73987 15.3458 4.75126 15.3453 4.76362 15.3414C4.77603 15.3372 4.78769 15.3298 4.79845 15.3187C4.80918 15.3075 4.81808 15.2923 4.82514 15.2731C4.83254 15.2537 4.83597 15.2299 4.83597 15.2016V15.0946C4.79811 15.0858 4.76025 15.0767 4.72239 15.0678V14.9125C4.81524 14.9346 4.90821 14.9562 5.0013 14.9773V15.5412C4.95896 15.5318 4.91668 15.522 4.87432 15.5122V15.4155C4.87352 15.4152 4.87273 15.4152 4.8719 15.4149C4.85113 15.4512 4.82629 15.4746 4.79708 15.4848C4.76812 15.495 4.73322 15.4952 4.69262 15.4855C4.63991 15.4729 4.59717 15.4512 4.56428 15.4205C4.53106 15.3901 4.50521 15.3488 4.48655 15.2974C4.46784 15.2458 4.4554 15.1847 4.44906 15.1144C4.44266 15.0439 4.43945 14.9631 4.43945 14.8724C4.43945 14.7846 4.44402 14.7085 4.45315 14.6444C4.46229 14.5802 4.47805 14.5288 4.50034 14.4899C4.52256 14.451 4.55191 14.4248 4.58848 14.4113C4.62522 14.3979 4.67097 14.3978 4.72601 14.4109C4.82001 14.4332 4.88786 14.4776 4.92936 14.544C4.97091 14.6107 4.99161 14.6972 4.99161 14.8037C4.93649 14.7912 4.8814 14.7785 4.82636 14.7657C4.82636 14.7461 4.82458 14.7256 4.82114 14.7044ZM5.46316 14.5943C5.53882 14.9581 5.61462 15.3218 5.69057 15.6855C5.63033 15.674 5.57016 15.6621 5.51007 15.6498C5.49684 15.5733 5.48368 15.4971 5.47045 15.4207C5.39431 15.4052 5.31825 15.3892 5.24212 15.373C5.22906 15.4438 5.21574 15.5148 5.20257 15.5856C5.1426 15.5727 5.08269 15.5595 5.02282 15.5461C5.0983 15.2142 5.17371 14.8822 5.24943 14.5497C5.3206 14.5649 5.39185 14.5797 5.46316 14.5943ZM5.44036 15.2416C5.41276 15.0792 5.38519 14.9167 5.3575 14.754C5.35668 14.754 5.35586 14.7539 5.35508 14.7536C5.3274 14.9047 5.29989 15.0557 5.27223 15.2065C5.32822 15.2184 5.38427 15.2301 5.44036 15.2416ZM6.24153 14.7392C6.28267 14.9922 6.32375 15.2453 6.36491 15.4979C6.36564 15.498 6.36633 15.4982 6.36723 15.4983C6.40871 15.2589 6.45026 15.0196 6.49174 14.7798C6.57758 14.7933 6.6635 14.8063 6.7495 14.8187V15.8647C6.6962 15.857 6.64293 15.8492 6.5897 15.8411V15.006C6.58888 15.0059 6.58817 15.0057 6.58721 15.0056C6.53612 15.2761 6.48482 15.5466 6.43366 15.8166C6.38855 15.8095 6.34342 15.8021 6.29831 15.7947C6.24728 15.5077 6.19612 15.2209 6.14509 14.9337C6.14422 14.9336 6.14334 14.9334 6.14261 14.9333V15.7685C6.08943 15.7591 6.03641 15.7498 5.98321 15.7403V14.6943C6.06924 14.7097 6.15535 14.7246 6.24153 14.7392ZM7.32787 15.0683C7.22468 15.0559 7.12157 15.0429 7.01854 15.0291V15.2752C7.11553 15.2881 7.2126 15.3004 7.30975 15.3121V15.4851C7.21262 15.4733 7.11555 15.461 7.01854 15.4482V15.7295C7.12563 15.7437 7.23282 15.7572 7.34006 15.77V15.9428C7.1745 15.9231 7.00914 15.9017 6.84393 15.8784V14.8322C7.00507 14.8551 7.1664 14.876 7.32787 14.8954V15.0683ZM7.55385 14.9213C7.59117 15.038 7.62838 15.1549 7.6656 15.2716C7.70257 15.1625 7.73931 15.0536 7.77614 14.9445C7.83979 14.9509 7.90346 14.9569 7.96716 14.9627C7.9 15.1286 7.83269 15.2945 7.76526 15.4604C7.83743 15.6441 7.90956 15.8272 7.98183 16.01C7.91599 16.0041 7.85052 15.9978 7.78473 15.9914C7.74295 15.869 7.70123 15.7465 7.65951 15.624C7.61821 15.7378 7.57687 15.8516 7.53558 15.9652C7.47151 15.9582 7.40763 15.951 7.34361 15.9433C7.41569 15.7755 7.48782 15.6076 7.55985 15.439C7.49338 15.2593 7.4271 15.0795 7.36068 14.8992C7.42509 14.9068 7.4894 14.9141 7.55385 14.9213ZM8.02807 14.9681C8.08653 14.9732 8.14475 14.9782 8.20331 14.983V16.0291C8.14475 16.0243 8.08653 16.0193 8.02807 16.0141V14.9681ZM8.65215 15.2016C8.63714 15.1659 8.6098 15.1469 8.56995 15.1444C8.54803 15.143 8.5299 15.149 8.5159 15.1621C8.50151 15.1753 8.49029 15.1975 8.48228 15.2286C8.47422 15.2599 8.46842 15.3009 8.46526 15.352C8.46195 15.403 8.46036 15.4658 8.46036 15.54C8.46036 15.619 8.46252 15.6832 8.46693 15.7322C8.47144 15.7814 8.47844 15.8198 8.4877 15.8473C8.4971 15.8747 8.5089 15.8937 8.52309 15.9039C8.53738 15.9141 8.55383 15.9197 8.5723 15.921C8.58784 15.9219 8.60218 15.9197 8.61565 15.9143C8.62918 15.9087 8.64059 15.8968 8.65052 15.8784C8.66021 15.86 8.66788 15.8334 8.67359 15.7991C8.67929 15.7648 8.68217 15.7193 8.68217 15.6626C8.74063 15.6662 8.79919 15.6696 8.8576 15.6724C8.8576 15.7292 8.85391 15.7827 8.84662 15.8331C8.83943 15.8835 8.82571 15.9272 8.80576 15.9643C8.7859 16.001 8.7578 16.0295 8.72169 16.0489C8.68553 16.0682 8.63862 16.0762 8.58093 16.0724C8.51523 16.0682 8.46286 16.0519 8.42377 16.0238C8.38478 15.9956 8.3549 15.9567 8.33423 15.9073C8.31356 15.858 8.30013 15.7998 8.294 15.7328C8.28795 15.666 8.28493 15.5926 8.28493 15.5125C8.28493 15.4334 8.28795 15.3605 8.294 15.2941C8.30013 15.2276 8.31356 15.1714 8.33423 15.125C8.3549 15.0788 8.38478 15.0435 8.42377 15.0196C8.46286 14.9954 8.51523 14.9856 8.58093 14.9898C8.64356 14.9938 8.69282 15.0089 8.72917 15.0354C8.76528 15.062 8.79214 15.0945 8.81012 15.133C8.82801 15.1716 8.83923 15.2128 8.84374 15.2565C8.84806 15.3002 8.85041 15.341 8.85041 15.3791C8.7919 15.3762 8.73329 15.3727 8.67478 15.3693C8.67478 15.2929 8.6673 15.2372 8.65215 15.2016ZM9.31388 15.0456C9.39066 15.3967 9.46768 15.7476 9.54441 16.0979C9.48351 16.0965 9.42246 16.095 9.36145 16.0931C9.34798 16.0191 9.3346 15.9448 9.32107 15.8708C9.24395 15.8683 9.1666 15.8655 9.08953 15.862C9.07596 15.9354 9.06258 16.0084 9.04915 16.0816C8.98805 16.0789 8.92714 16.076 8.86619 16.073C8.94306 15.7281 9.0198 15.3832 9.09667 15.0376C9.16909 15.0406 9.24146 15.0432 9.31388 15.0456ZM9.29071 15.6967C9.26266 15.5392 9.23465 15.3813 9.2065 15.2236C9.20564 15.2236 9.20487 15.2235 9.20415 15.2235C9.17609 15.3793 9.14799 15.5349 9.11979 15.6905C9.17681 15.6929 9.23379 15.6951 9.29071 15.6967ZM9.99009 15.7739H9.99239V15.0575C10.0461 15.0576 10.0998 15.0575 10.1535 15.0573V16.1033C10.0868 16.1036 10.02 16.1036 9.95345 16.1033C9.88161 15.8588 9.81015 15.614 9.7385 15.3689H9.73601V16.1014C9.68239 16.1006 9.62877 16.0997 9.57487 16.0985V15.0526C9.64258 15.0539 9.71001 15.055 9.77759 15.0559C9.84842 15.2956 9.91916 15.5349 9.99009 15.7739ZM10.6321 15.0503C10.7088 15.3971 10.7857 15.7432 10.8625 16.0893C10.8014 16.0913 10.7405 16.0933 10.6796 16.095C10.6661 16.0216 10.6526 15.9483 10.6393 15.8748C10.562 15.8768 10.4846 15.8784 10.4074 15.8797C10.394 15.9535 10.3805 16.0274 10.3671 16.1014C10.3061 16.1022 10.245 16.1029 10.184 16.1032C10.2608 15.7541 10.3378 15.4045 10.4147 15.0547C10.4871 15.0536 10.5595 15.052 10.6321 15.0503ZM10.6088 15.7028C10.5807 15.5466 10.5527 15.3905 10.5245 15.2343C10.5238 15.2343 10.523 15.2343 10.5221 15.2345C10.4941 15.3917 10.466 15.5491 10.4378 15.7062C10.4949 15.7053 10.5518 15.704 10.6088 15.7028ZM11.4516 15.0149C11.5126 15.0112 11.5616 15.0199 11.5989 15.0413C11.6364 15.0627 11.6654 15.0948 11.686 15.1377C11.7068 15.1809 11.7208 15.2332 11.7281 15.2953C11.7354 15.3572 11.7391 15.4268 11.7391 15.504C11.7391 15.5956 11.7343 15.6759 11.7252 15.7445C11.7158 15.813 11.6997 15.8701 11.6769 15.9157C11.6543 15.9612 11.6238 15.9961 11.5857 16.0202C11.5474 16.0442 11.4991 16.058 11.4406 16.0615C11.3483 16.0673 11.2561 16.0723 11.1638 16.0767V15.0306C11.2597 15.026 11.3557 15.0207 11.4516 15.0149ZM11.4175 15.9077C11.4483 15.906 11.473 15.8979 11.4918 15.884C11.5105 15.8703 11.5253 15.8481 11.5363 15.8183C11.5472 15.7883 11.5545 15.7492 11.5582 15.7011C11.5619 15.653 11.5638 15.5933 11.5638 15.522C11.5638 15.4625 11.562 15.4103 11.5589 15.3655C11.5557 15.3207 11.5488 15.2839 11.5388 15.2547C11.5285 15.2257 11.5136 15.2042 11.4935 15.1903C11.4737 15.1764 11.4471 15.1704 11.4138 15.1725C11.3889 15.1739 11.3641 15.1753 11.3394 15.1768V15.9121C11.3655 15.9107 11.3913 15.9092 11.4175 15.9077ZM12.31 15.1192C12.2065 15.1294 12.1031 15.1391 11.9998 15.1477V15.3939C12.097 15.3857 12.1944 15.3767 12.2916 15.3672V15.54C12.1944 15.5495 12.0971 15.5584 11.9998 15.5666V15.848C12.1071 15.8388 12.2148 15.8288 12.3221 15.8184V15.9912C12.1564 16.0075 11.9904 16.0223 11.8243 16.035V14.9891C11.9864 14.9765 12.1483 14.9625 12.31 14.9463V15.1192ZM12.9331 14.8762C12.9686 14.8717 13.0016 14.8719 13.0319 14.8767C13.0623 14.8814 13.0883 14.8927 13.1101 14.9102C13.1321 14.9278 13.149 14.9529 13.1611 14.9856C13.1733 15.018 13.1794 15.0591 13.1794 15.1088C13.1794 15.1656 13.1684 15.2158 13.1466 15.2593C13.1247 15.3027 13.0919 15.3348 13.0483 15.3551V15.3581C13.0968 15.3595 13.1352 15.3792 13.1634 15.4172C13.1918 15.4554 13.2059 15.5095 13.2059 15.5801C13.2059 15.621 13.2015 15.6608 13.1926 15.699C13.1837 15.7373 13.1685 15.772 13.1472 15.8026C13.1257 15.8334 13.0979 15.8593 13.0635 15.8805C13.0291 15.9017 12.9864 15.9156 12.9355 15.9219C12.8372 15.9343 12.7389 15.9461 12.6405 15.9573V14.9113C12.738 14.9003 12.8357 14.8886 12.9331 14.8762ZM12.8651 15.314C12.9137 15.3079 12.9491 15.2929 12.9714 15.2692C12.9936 15.2453 13.0047 15.2084 13.0047 15.1587C13.0047 15.1088 12.9945 15.0748 12.9744 15.057C12.9542 15.0392 12.9221 15.033 12.8786 15.0383C12.8575 15.041 12.8364 15.0435 12.8154 15.0462V15.32C12.832 15.3181 12.8486 15.316 12.8651 15.314ZM12.8834 15.7732C12.9254 15.768 12.9595 15.7526 12.9853 15.7267C13.0112 15.7009 13.0241 15.6577 13.0241 15.5971C13.0241 15.5669 13.0205 15.5421 13.0137 15.5229C13.0069 15.504 12.9977 15.4889 12.986 15.4782C12.9742 15.4675 12.9601 15.4608 12.944 15.458C12.9279 15.455 12.9101 15.4549 12.8906 15.4574C12.8656 15.4604 12.8405 15.4635 12.8154 15.4666V15.7816C12.838 15.7787 12.8608 15.776 12.8834 15.7732ZM13.7673 14.9282C13.6648 14.9449 13.5619 14.9609 13.4591 14.9765V15.2226C13.5558 15.2082 13.6526 15.1929 13.7494 15.1772V15.3499C13.6526 15.3659 13.5558 15.3809 13.4591 15.3954V15.6767C13.566 15.6608 13.6728 15.6439 13.7795 15.6264V15.7993C13.6148 15.8263 13.4498 15.8516 13.2846 15.8751V14.829C13.4457 14.8062 13.6066 14.7816 13.7673 14.7552V14.9282ZM13.8447 14.7425C13.9026 14.7328 13.9607 14.7228 14.0185 14.7127V15.7586C13.9607 15.7689 13.9026 15.7787 13.8447 15.7885V14.7425ZM14.2572 15.4196C14.2572 15.4439 14.2588 15.4659 14.2621 15.4853C14.2653 15.5048 14.2713 15.5205 14.2803 15.5325C14.2891 15.5444 14.3009 15.5529 14.3158 15.5581C14.3308 15.5631 14.3492 15.5634 14.3718 15.559C14.3983 15.5539 14.4221 15.5391 14.4434 15.5138C14.4646 15.4886 14.4753 15.4541 14.4753 15.4101C14.4753 15.3867 14.4727 15.367 14.4675 15.3508C14.4622 15.3348 14.4537 15.321 14.4416 15.3098C14.4295 15.2986 14.4136 15.289 14.394 15.2815C14.3744 15.2743 14.3501 15.2673 14.3212 15.2611C14.2826 15.2528 14.2493 15.2419 14.2212 15.2285C14.1931 15.2152 14.1695 15.1976 14.1506 15.1761C14.1318 15.1547 14.1178 15.1284 14.109 15.0973C14.1001 15.0661 14.0957 15.029 14.0957 14.9861C14.0957 14.8825 14.1195 14.8012 14.167 14.7418C14.2145 14.6824 14.2794 14.645 14.3621 14.6292C14.4006 14.6218 14.436 14.6201 14.4686 14.6239C14.5011 14.6278 14.5293 14.6389 14.5528 14.6571C14.5764 14.6753 14.595 14.701 14.6082 14.7339C14.6214 14.7669 14.628 14.8082 14.628 14.8581V14.8874C14.5727 14.8987 14.5174 14.9097 14.4621 14.9205C14.4621 14.8707 14.4548 14.8338 14.4404 14.8096C14.4259 14.7857 14.4018 14.7769 14.3681 14.7833C14.349 14.787 14.3329 14.7935 14.3199 14.8027C14.3072 14.812 14.2969 14.8229 14.2892 14.8356C14.2816 14.8483 14.2764 14.8623 14.2736 14.8774C14.2708 14.8927 14.2695 14.9079 14.2695 14.9236C14.2695 14.9558 14.2749 14.9818 14.2862 15.0017C14.2975 15.0217 14.3214 15.0374 14.3586 15.0489C14.4031 15.0638 14.4477 15.0786 14.4921 15.0933C14.5251 15.1044 14.5519 15.1173 14.5728 15.1322C14.5935 15.1471 14.6102 15.1643 14.6225 15.1836C14.635 15.2031 14.6436 15.2256 14.6485 15.251C14.6533 15.2763 14.6557 15.3052 14.6557 15.3372C14.6557 15.4478 14.6294 15.5334 14.5768 15.5943C14.5245 15.655 14.4512 15.6948 14.3574 15.7127C14.2593 15.7315 14.1893 15.7182 14.147 15.6742C14.1049 15.6302 14.0837 15.5596 14.0837 15.4629V15.4204C14.1417 15.4101 14.1994 15.3995 14.2572 15.3889V15.4196ZM15.0014 14.5182C15.0365 14.5105 15.0691 14.5075 15.099 14.5095C15.1289 14.5116 15.1547 14.5205 15.1763 14.536C15.1977 14.5515 15.2145 14.5751 15.2266 14.6064C15.2385 14.638 15.2444 14.6785 15.2444 14.7283C15.2444 14.7849 15.2337 14.8361 15.2121 14.8815C15.1906 14.927 15.1582 14.9622 15.1153 14.9865V14.9894C15.1631 14.9865 15.2011 15.0026 15.2289 15.0381C15.2569 15.0737 15.2707 15.1265 15.2707 15.1968C15.2707 15.2379 15.2664 15.2781 15.2577 15.3172C15.2488 15.3561 15.2339 15.3921 15.2128 15.4249C15.1916 15.4577 15.1639 15.4863 15.1301 15.5105C15.0961 15.5347 15.0543 15.5525 15.0038 15.5637C14.9067 15.5851 14.8095 15.6059 14.7121 15.6261V14.58C14.8086 14.5601 14.905 14.5393 15.0014 14.5182ZM14.9342 14.9622C14.9823 14.9517 15.0171 14.9335 15.0391 14.9076C15.061 14.8816 15.072 14.8438 15.072 14.7941C15.072 14.7442 15.0621 14.7113 15.0421 14.6953C15.022 14.6791 14.9905 14.6761 14.9474 14.6854C14.9265 14.6899 14.9058 14.6944 14.8849 14.6988V14.9729C14.9013 14.9693 14.9178 14.9658 14.9342 14.9622ZM14.9522 15.4196C14.9938 15.4107 15.0274 15.3919 15.0529 15.3638C15.0784 15.3357 15.0912 15.2912 15.0912 15.2307C15.0912 15.2006 15.0879 15.1761 15.0809 15.1575C15.0742 15.1391 15.065 15.125 15.0533 15.1153C15.0419 15.1056 15.0281 15.1001 15.0121 15.0989C14.9962 15.0976 14.9785 15.099 14.9593 15.1032C14.9345 15.1085 14.9097 15.114 14.8849 15.1193V15.4342C14.9074 15.4294 14.9298 15.4246 14.9522 15.4196ZM15.3397 14.7448C15.3456 14.6766 15.3588 14.616 15.379 14.5633C15.3994 14.5106 15.4287 14.4663 15.4669 14.4303C15.5052 14.394 15.5564 14.368 15.6208 14.3521C15.6852 14.3359 15.7365 14.3362 15.7748 14.3531C15.8127 14.3704 15.842 14.4001 15.8622 14.4427C15.8825 14.4852 15.8955 14.5391 15.9015 14.6045C15.9075 14.6698 15.9103 14.742 15.9103 14.8211C15.9103 14.9013 15.9075 14.9752 15.9015 15.0432C15.8955 15.1114 15.8825 15.1719 15.8622 15.225C15.842 15.2781 15.8127 15.3223 15.7748 15.3575C15.7365 15.3927 15.6852 15.4185 15.6208 15.4347C15.5564 15.4507 15.5052 15.4505 15.4669 15.4344C15.4287 15.4183 15.3994 15.3887 15.379 15.3457C15.3588 15.3027 15.3456 15.2486 15.3397 15.1836C15.3337 15.1187 15.3306 15.046 15.3306 14.966C15.3306 14.887 15.3337 14.8131 15.3397 14.7448ZM15.507 15.1032C15.5097 15.1517 15.5153 15.1904 15.5236 15.2192C15.532 15.2479 15.5439 15.2673 15.5593 15.2777C15.5749 15.2879 15.5954 15.2901 15.6208 15.2836C15.6463 15.2774 15.6669 15.2652 15.6823 15.247C15.6978 15.2289 15.7097 15.2035 15.718 15.1706C15.7264 15.1376 15.7318 15.0962 15.7347 15.0462C15.7376 14.9961 15.7388 14.9359 15.7388 14.8657C15.7388 14.7954 15.7376 14.7361 15.7347 14.688C15.7318 14.6398 15.7264 14.6012 15.718 14.5721C15.7097 14.543 15.6978 14.5234 15.6823 14.513C15.6669 14.5029 15.6463 14.501 15.6208 14.5072C15.5954 14.5136 15.5749 14.5259 15.5593 14.5437C15.5439 14.5618 15.532 14.5874 15.5236 14.6207C15.5153 14.6539 15.5097 14.6955 15.507 14.7449C15.5041 14.7945 15.5027 14.8544 15.5027 14.9246C15.5027 14.9951 15.5041 15.0545 15.507 15.1032ZM15.9817 14.2792C16.0389 14.2639 16.0959 14.2484 16.1528 14.2328V15.106C16.2537 15.0781 16.3545 15.0496 16.4551 15.0205V15.1932C16.2978 15.239 16.14 15.2829 15.9817 15.3252V14.2792Z" fill="white"/>
<defs>
<linearGradient id="paint0_linear_3486_23499" x1="4.06228" y1="5.7168" x2="4.06228" y2="3.58381" gradientUnits="userSpaceOnUse">
<stop stop-color="#4F4C4D"/>
<stop offset="0.612978" stop-color="#393637"/>
<stop offset="1" stop-color="#393637"/>
</linearGradient>
<linearGradient id="paint1_linear_3486_23499" x1="9.73611" y1="5.20117" x2="9.73611" y2="3.06351" gradientUnits="userSpaceOnUse">
<stop stop-color="#4F4C4D"/>
<stop offset="0.612978" stop-color="#393637"/>
<stop offset="1" stop-color="#393637"/>
</linearGradient>
<linearGradient id="paint2_linear_3486_23499" x1="7.25955" y1="5.16797" x2="7.25955" y2="3.09235" gradientUnits="userSpaceOnUse">
<stop stop-color="#4F4C4D"/>
<stop offset="0.612978" stop-color="#393637"/>
<stop offset="1" stop-color="#393637"/>
</linearGradient>
<linearGradient id="paint3_linear_3486_23499" x1="12.3523" y1="5.73633" x2="12.3523" y2="3.17959" gradientUnits="userSpaceOnUse">
<stop stop-color="#4F4C4D"/>
<stop offset="0.612978" stop-color="#393637"/>
<stop offset="1" stop-color="#393637"/>
</linearGradient>
<linearGradient id="paint4_linear_3486_23499" x1="7.71072" y1="18.252" x2="7.71072" y2="16.9823" gradientUnits="userSpaceOnUse">
<stop stop-color="#5A5758"/>
<stop offset="0.773228" stop-color="#393536"/>
<stop offset="1" stop-color="#393536"/>
</linearGradient>
<linearGradient id="paint5_linear_3486_23499" x1="2.29666" y1="11.5253" x2="2.29666" y2="7.33402" gradientUnits="userSpaceOnUse">
<stop stop-color="#83C74F"/>
<stop offset="1" stop-color="#62B92C"/>
</linearGradient>
<linearGradient id="paint6_linear_3486_23499" x1="4.83376" y1="11.9511" x2="4.83376" y2="6.19211" gradientUnits="userSpaceOnUse">
<stop stop-color="#4F4C4D"/>
<stop offset="0.629481" stop-color="#393637"/>
<stop offset="1" stop-color="#393637"/>
</linearGradient>
<linearGradient id="paint7_linear_3486_23499" x1="3.08203" y1="13.3284" x2="10.1249" y2="13.3284" gradientUnits="userSpaceOnUse">
<stop stop-color="#393637"/>
<stop offset="1" stop-color="#5A5758"/>
</linearGradient>
<linearGradient id="paint8_linear_3486_23499" x1="10.1249" y1="13.3284" x2="17.0146" y2="13.3284" gradientUnits="userSpaceOnUse">
<stop stop-color="#5A5758"/>
<stop offset="1" stop-color="#393536"/>
</linearGradient>
</defs>
</svg>
