<svg width="560" height="400" viewBox="0 0 560 400" fill="none" xmlns="http://www.w3.org/2000/svg">
<path fill-rule="evenodd" clip-rule="evenodd" d="M493.37 62.0022H66.7099C55.4029 61.9666 44.5282 66.3907 36.4565 74.3117C28.399 82.3834 23.918 93.3619 24.0289 104.766V295.157C23.9038 306.521 28.3734 317.464 36.4181 325.491C44.4486 333.519 55.356 338.024 66.7099 338H493.37C516.792 337.889 535.995 318.58 535.974 295.157V104.406C535.974 81.2671 517.033 62.1799 493.892 62.005H493.37V62.0022Z" fill="white"/>
<path fill-rule="evenodd" clip-rule="evenodd" d="M520.989 104.727C521.165 89.6866 508.934 77.168 493.897 76.9931L493.372 76.9902H374.118L442.538 191.331L448.854 192.131L452.85 197.364V202.242L457.167 203.118L461.163 208.553V213.27L465.639 214.069L470.154 218.984V229.856C475.533 234.71 481.591 238.751 488.14 241.845C494.175 244.162 494.852 253.835 498.49 258.991C503.046 266.503 509.281 269.502 507.964 273.697C504.925 284.927 493.416 303.869 482.705 304.749H440.343V322.894H493.416C508.632 322.828 521.097 310.254 521.033 295.038L521.03 294.919V104.727" fill="#BF0D3E"/>
<path fill-rule="evenodd" clip-rule="evenodd" d="M229.244 305.031H208.745C208.745 253.794 226.049 225.461 246.79 219.825C249.628 219.306 248.269 205.318 244.672 201.042H232.683C230.766 201.042 231.883 197.443 231.883 197.443L241.595 176.702L240.274 171.028H204.388L233.88 150.406C235.24 96.0144 291.029 91.778 324.64 114.44C344.622 127.667 346.142 153.883 344.622 171.989C344.383 173.147 339.427 172.389 339.427 172.389C339.427 172.389 336.031 192.37 344.902 192.37H384.107C400.093 191.732 415.521 202.562 415.521 202.562L419.278 188.855L333.393 76.9926H66.7087C59.3352 76.9514 52.2347 79.8254 46.9659 84.9862C41.7781 90.2365 38.8998 97.3483 38.9724 104.729V295.158C38.8799 302.521 41.7639 309.614 46.9659 314.82C52.202 320.056 59.3053 323.006 66.7087 323.014H239.836C235.598 315.742 230.766 307.467 229.287 305.031" fill="#041E42"/>
<path fill-rule="evenodd" clip-rule="evenodd" d="M77.4199 264.622C77.4199 254.231 85.9723 245.682 96.3635 245.682C106.755 245.682 115.307 254.234 115.307 264.625C115.307 275.016 106.755 283.569 96.3635 283.569L96.2028 283.566H96.1644C85.8955 283.566 77.4413 275.13 77.4214 264.864V264.622" fill="white"/>
</svg>
