<?xml version="1.0" encoding="UTF-8"?>
<svg id="logosandtypes_com" data-name="logosandtypes com" xmlns="http://www.w3.org/2000/svg" viewBox="0 0 150 150">
  <defs>
    <style>
      .cls-1 {
        fill: #fa5500;
        fill-rule: evenodd;
      }

      .cls-2 {
        fill: none;
      }
    </style>
  </defs>
  <path class="cls-2" d="M0,0H150V150H0V0Z"/>
  <g>
    <path class="cls-1" d="M141.07,72.08c-.57-1.14-1.14-1.71-2.28-1.71-2.28-.57-4.56-.57-6.84-1.14-6.84-1.14-17.67-3.42-29.64-8.55-13.11-5.13-28.5-13.68-35.35-22.23-2.85-2.85-4.56-6.27-4.56-9.69,0,0-1.71-15.96,26.79-7.41,0,.57,10.26,28.5,43.9,32.49,2.28,0,3.99,0,4.56-1.14C122.46,7.97,62.74-6.01,28.77,27.62c-12.67,12.44-6.81,23.2,11.4,31.92,0,0,22.8,10.83,38.2,14.82,1.14,0,1.14,.57,1.14,.57q0,.57-.57,.57c-14.82,2.85-38.77,14.25-38.77,14.25,0,0-18.24,7.98-18.24,18.24,0,5.7,4.56,10.83,5.7,13.11,11.94,12.57,29.12,19.97,47.32,20.52,28.5,0,53.02-18.24,62.71-43.9,0-1.14-2.28-1.14-4.56-1.14-34.2,3.42-43.9,31.92-44.47,31.92-28.5,8.55-26.22-7.41-26.22-7.41,0-11.4,22.23-26.22,39.91-33.63,2.28-1.14,17.67-6.84,37.06-9.12,2.59-.09,1.48-4.67,1.71-6.27Z"/>
    <path class="cls-1" d="M47.01,75.5c1.06-.21,.57-1.22-.57-1.14-3.99-1.71-10.26-3.99-15.39-6.27-9.12-4.56-16.53-10.83-16.53-17.1-.14-1-1.24-.5-1.14,0-6,14.57-6,33.31,0,47.89l.57,.57s.57,0,.57-.57c0-6.84,7.41-12.54,17.1-17.67,5.13-1.71,10.26-4.56,15.39-5.7Z"/>
  </g>
</svg>