<svg width="389" height="389" viewBox="0 0 389 389" fill="none" xmlns="http://www.w3.org/2000/svg">
<path d="M39.9064 173.641H12.2343C8.99077 173.644 5.88097 174.933 3.58732 177.227C1.29367 179.52 0.00352383 182.63 0 185.873L0 279.575C0.00116136 282.821 1.29002 285.933 3.5837 288.23C5.87739 290.526 8.98851 291.819 12.2343 291.824H39.8863C43.1347 291.82 46.2491 290.528 48.5472 288.232C50.8453 285.936 52.1398 282.823 52.1474 279.575V185.873C52.1418 182.629 50.85 179.52 48.5554 177.227C46.2607 174.934 43.1504 173.644 39.9064 173.641Z" fill="white"/>
<path d="M33.0425 195.306L33.071 195.705C33.9159 196.198 34.3434 196.596 35.1933 197.145C37.4497 198.566 40.2308 201.091 39.8805 209.791C40.5125 211.689 40.7925 215.417 41.3758 216.613C42.4805 218.484 43.2593 220.529 43.6791 222.661C43.6791 222.661 44.0178 226.084 44.4603 226.332C46.7939 226.859 46.12 227.088 46.4603 227.489C46.8224 227.957 48.1702 227.935 48.1702 229.19C48.6167 229.789 48.9788 230.446 49.2464 231.143V185.873C49.2446 183.395 48.2601 181.019 46.509 179.267C44.7579 177.514 42.3831 176.528 39.9056 176.523H30.9654C31.5368 176.663 32.0733 176.919 32.5415 177.275C33.0096 177.631 33.3993 178.08 33.6862 178.594C34.8412 178.693 36.2125 181.279 34.0751 185.103C35.0223 185.732 34.283 186.676 33.6024 187.77C33.4046 188.121 33.1866 188.743 32.5547 188.702C31.7433 190.409 30.7609 192.065 30.0217 192.169C29.8762 192.363 29.7935 192.597 29.7845 192.839C29.7755 193.082 29.8407 193.321 29.9714 193.525C31.0733 193.972 32.107 194.572 33.0425 195.306Z" fill="#DA1A32"/>
<path d="M49.2457 237.277C48.7166 238.607 47.8542 239.779 46.7413 240.68C45.6284 241.58 44.3025 242.18 42.8911 242.42C41.4797 242.66 40.0303 242.533 38.6822 242.051C37.3341 241.568 36.1327 240.748 35.1936 239.667C34.2544 238.586 33.6091 237.282 33.3197 235.88C33.0302 234.478 33.1064 233.025 33.5409 231.661C33.9754 230.297 34.7535 229.067 35.8005 228.091C36.8475 227.114 38.1282 226.424 39.5193 226.085C38.557 223.68 36.5286 219.782 35.9251 218.501C35.3551 217.232 33.9805 209.305 33.6855 207.736C33.6167 207.394 30.0879 209.784 30.0812 209.932C29.875 210.133 27.4325 216.51 27.3302 216.853C27.2927 217.209 27.2743 217.566 27.2749 217.923C27.2749 217.923 28.4769 218.07 29.1676 220.166C29.8516 222.258 31.9353 229.896 31.9353 229.896C31.7541 230.094 31.5573 230.277 31.3469 230.444C33.9805 239.26 33.0601 243.055 34.242 245.64C35.7273 249.285 36.1279 248.807 37.402 251.87C38.3173 254.101 39.3365 262.879 39.6768 263.268C41.0984 265.07 41.8645 266.48 41.8645 267.495C41.8645 268.518 40.6592 271.542 41.0984 273.302C41.365 274.338 41.5041 276.662 41.9869 277.101C41.9869 277.101 42.4295 277.974 42.2115 278.36C42.1495 278.494 42.0238 278.697 42.0791 278.856C42.8636 281.626 45.395 286.346 41.2962 288.819H41.3834C43.5842 288.476 45.5888 287.355 47.0319 285.658C48.475 283.961 49.2606 281.803 49.2456 279.575L49.2457 237.277Z" fill="#DA1A32"/>
<path d="M38.717 277.78C37.215 276.439 38.2174 275.872 38.1588 275.342C37.1663 271.249 33.9158 268.774 35.5973 267.423C35.1832 266.07 34.3383 264.374 34.3685 264.376C29.3025 261.467 24.9874 256.741 24.2548 256.047C23.3663 255.082 21.8526 254.113 21.5692 253.328C18.307 249.377 15.4332 245.12 12.9878 240.618L10.5638 240.276C9.46071 235.771 5.77937 231.996 5.68884 227.48C5.79654 225.412 6.15743 223.366 6.76341 221.386C7.22384 220.648 7.7994 219.988 8.46829 219.432V218.223C3.18097 218.374 4.70145 217.834 3.79117 215.777C3.15079 214.355 3.60845 214.042 3.83979 213.055C4.5489 210.141 6.9059 205.647 7.88156 203.605C8.17828 202.574 9.19919 200.089 9.19919 200.089C13.1387 192.065 14.6106 192.656 19.291 192.204L19.5207 191.87C24.2112 191.669 23.4434 191.315 24.1056 186.797C23.4216 187.091 23.2188 185.383 23.2188 185.383C22.845 182.811 23.9296 183.299 24.4442 183.247C24.5549 179.019 24.9874 177.69 28.0367 176.524H12.2402C9.75907 176.524 7.37949 177.51 5.62492 179.264C3.87035 181.018 2.88451 183.398 2.88428 185.879V279.575C2.88388 280.804 3.12558 282.021 3.59558 283.157C4.06557 284.292 4.75466 285.324 5.62347 286.193C6.49228 287.062 7.5238 287.752 8.65911 288.222C9.79442 288.692 11.0113 288.935 12.2402 288.935H39.9072C36.7389 287.223 38.6097 283.966 38.717 277.78Z" fill="#00438C"/>
<path d="M17.4727 283.046V266.081H20.7634C22.6678 266.081 23.8446 267.104 23.8446 269.481V271.999C23.8446 273.541 23.3736 274.327 22.7148 274.706C23.1016 274.99 23.4088 275.368 23.6068 275.805C23.8047 276.242 23.8866 276.723 23.8446 277.201V279.673C23.8446 282.002 22.5974 283.046 20.7634 283.046L17.4727 283.046ZM19.7291 275.68V280.909H20.5991C21.3753 280.909 21.5865 280.503 21.5865 279.695V276.822C21.5865 275.989 21.3283 275.68 20.5756 275.68H19.7291ZM19.7291 268.22V273.828H20.5757C21.3753 273.828 21.5866 273.541 21.5866 272.616V269.362C21.5866 268.576 21.3502 268.22 20.5992 268.22H19.7291ZM29.1571 279.601H27.1119L26.8286 283.046H24.5487L26.5939 266.081H29.8394L31.8125 283.046H29.4387L29.1571 279.601ZM28.1446 267.982H28.0272C27.8881 270.026 27.6048 273.613 27.5109 274.755L27.2527 277.675H29.0163L28.7565 274.755C28.6626 273.591 28.334 270.051 28.1446 267.982ZM10.7487 283.046H8.77393V266.081H11.9021L14.4166 279.982C14.2054 276.656 13.9221 272.641 13.9221 269.218V266.081H15.8986V283.046H13.0303L10.5141 269.454C10.6801 272.59 10.7488 275.088 10.7488 277.7L10.7487 283.046Z" fill="white"/>
<path d="M349.201 156.599L336.534 165.804H376.182L388.85 156.599H349.201ZM244.592 156.599L225.227 97L205.861 156.599H143.198L193.893 193.432L174.529 253.028L213.041 224.995C212.842 224.504 212.607 224.001 212.421 223.515C211.307 220.602 210.457 217.595 209.881 214.53L194.172 225.996L206.034 189.488L174.979 166.925H213.366L225.227 130.419L236.725 165.804H285.394L298.064 156.599L244.592 156.599ZM302.855 156.599L290.187 165.804H331.645L344.312 156.599H302.855Z" fill="#DA1A32"/>
<path d="M92.0084 266.732H82.7212L81.4606 288.934H66.187L77.0517 176.506H98.6251L109.33 288.934H93.4266L92.0084 266.732ZM83.5058 252.718H91.2238L90.1225 234.452C89.9079 232.353 89.6978 229.23 89.4921 225.082C89.2792 220.938 89.0166 216.451 88.7042 211.621C88.3874 206.793 88.0985 201.99 87.8376 197.213C87.5743 192.437 87.3385 188.369 87.1301 185.009C86.9172 188.37 86.6803 192.464 86.4193 197.291C86.1561 202.121 85.9203 206.95 85.7119 211.777C85.5007 216.608 85.2906 221.097 85.0816 225.242C84.872 229.389 84.715 232.459 84.6105 234.452L83.5058 252.718Z" fill="white"/>
<path d="M142.397 288.934H114.841V176.507H129.957V274.762H142.397V288.934Z" fill="white"/>
<path d="M176.248 288.934H148.693V176.507H163.809V274.762H176.248V288.934Z" fill="white"/>
<path d="M252.773 266.89C252.861 270.491 252.355 274.082 251.276 277.518C250.432 280.145 249.036 282.56 247.182 284.603C245.509 286.403 243.431 287.779 241.12 288.618C238.695 289.478 236.137 289.905 233.563 289.878C226.95 289.878 222.016 288.146 218.761 284.682C215.505 281.218 213.878 275.602 213.879 267.834V252.088H228.995V268.937C228.995 271.668 229.415 273.478 230.254 274.369C230.653 274.803 231.141 275.148 231.684 275.379C232.227 275.61 232.814 275.722 233.404 275.708C234.142 275.76 234.877 275.564 235.49 275.15C236.104 274.736 236.562 274.129 236.79 273.425C237.433 271.47 237.726 269.418 237.657 267.361V263.11C237.677 261.34 237.518 259.573 237.184 257.834C236.807 256.143 236.226 254.503 235.452 252.953C234.439 250.921 233.308 248.95 232.068 247.048C230.65 244.844 228.785 242.01 226.475 238.546C222.924 233.204 219.942 227.504 217.579 221.541C215.547 216.265 214.507 210.66 214.509 205.006V200.44C214.509 192.044 216.162 185.799 219.468 181.703C222.776 177.609 227.578 175.562 233.877 175.561C236.422 175.541 238.96 175.831 241.435 176.426C243.751 177.009 245.853 178.238 247.495 179.971C249.43 182.125 250.809 184.72 251.512 187.528C252.572 191.747 253.049 196.091 252.93 200.44V214.612H238.128V199.023C238.232 196.676 237.912 194.329 237.184 192.095C236.968 191.393 236.527 190.782 235.929 190.355C235.332 189.928 234.611 189.709 233.877 189.733C233.148 189.679 232.421 189.846 231.789 190.211C231.157 190.577 230.65 191.124 230.333 191.781C229.65 193.146 229.31 195.56 229.312 199.023V202.016C229.295 204.258 229.479 206.498 229.862 208.708C230.245 210.813 230.852 212.872 231.672 214.848C232.607 217.082 233.712 219.24 234.978 221.304C236.341 223.562 237.968 226.16 239.86 229.098C241.853 232.248 243.664 235.109 245.293 237.681C246.849 240.119 248.218 242.672 249.386 245.318C250.477 247.801 251.321 250.385 251.906 253.033C252.505 255.88 252.796 258.784 252.773 261.693V266.89Z" fill="white"/>
<path d="M258.439 176.506H297.019V190.679H285.207V288.933H270.091V190.679H258.439V176.506Z" fill="white"/>
<path d="M321.739 266.732H312.448L311.189 288.934H295.914L306.782 176.506H328.352L339.058 288.934H323.157L321.739 266.732ZM313.236 252.718H320.951L319.849 234.452C319.638 232.353 319.428 229.23 319.219 225.082C319.01 220.938 318.747 216.451 318.431 211.621C318.118 206.793 317.829 201.99 317.566 197.213C317.301 192.437 317.065 188.369 316.857 185.009C316.648 188.37 316.412 192.464 316.15 197.291C315.886 202.121 315.65 206.95 315.439 211.777C315.229 216.608 315.02 221.097 314.81 225.242C314.599 229.389 314.441 232.459 314.338 234.452L313.236 252.718Z" fill="white"/>
<path d="M362.362 250.828H359.683V288.934H344.567V176.506H363.306C369.708 176.506 374.668 178.317 378.186 181.939C381.701 185.56 383.46 191.308 383.461 199.182V228.154C383.461 239.387 379.63 246.473 371.966 249.41C372.961 249.782 373.871 250.35 374.642 251.081C375.413 251.812 376.029 252.69 376.454 253.663C377.672 256.446 378.596 259.349 379.21 262.324C379.418 263.478 379.837 265.499 380.469 268.385C381.099 271.272 381.677 274.238 382.201 277.282C382.831 280.851 383.514 284.735 384.249 288.934H368.503L362.362 250.828ZM359.683 190.678V237.759H362.203C364.619 237.759 366.246 237.103 367.085 235.791C367.923 234.479 368.343 232.458 368.345 229.728V198.708C368.345 195.98 367.925 193.96 367.085 192.646C366.245 191.334 364.618 190.678 362.203 190.678H359.683Z" fill="white"/>
</svg>
